%TF.GenerationSoftware,KiCad,Pcbnew,10.0.1*%
%TF.CreationDate,2026-06-27T21:41:19+12:00*%
%TF.ProjectId,keyboard,6b657962-6f61-4726-942e-6b696361645f,rev?*%
%TF.SameCoordinates,Original*%
%TF.FileFunction,Copper,L1,Top*%
%TF.FilePolarity,Positive*%
%FSLAX46Y46*%
G04 Gerber Fmt 4.6, Leading zero omitted, Abs format (unit mm)*
G04 Created by KiCad (PCBNEW 10.0.1) date 2026-06-27 21:41:19*
%MOMM*%
%LPD*%
G01*
G04 APERTURE LIST*
%TA.AperFunction,ComponentPad*%
%ADD10O,2.000000X1.600000*%
%TD*%
%TA.AperFunction,ComponentPad*%
%ADD11O,2.500000X1.500000*%
%TD*%
%TA.AperFunction,ComponentPad*%
%ADD12O,1.500000X2.500000*%
%TD*%
%TA.AperFunction,ViaPad*%
%ADD13C,0.600000*%
%TD*%
%TA.AperFunction,Conductor*%
%ADD14C,0.200000*%
%TD*%
G04 APERTURE END LIST*
D10*
%TO.P,U1,1,SLEEVE_1*%
%TO.N,GND*%
X162500000Y-72450000D03*
%TO.P,U1,2,TIP_2*%
%TO.N,RX*%
X163600000Y-77050000D03*
%TO.P,U1,3,RING1_3*%
%TO.N,TX*%
X167600000Y-77050000D03*
%TO.P,U1,4,RING2_4*%
%TO.N,VCC*%
X170600000Y-77050000D03*
%TD*%
D11*
%TO.P,U2,1,0_1*%
%TO.N,TX*%
X171696000Y-30607000D03*
%TO.P,U2,2,1_2*%
%TO.N,RX*%
X171696000Y-33147000D03*
%TO.P,U2,3,2_3*%
%TO.N,ROW0*%
X171696000Y-35687000D03*
%TO.P,U2,4,3_4*%
%TO.N,ROW1*%
X171696000Y-38227000D03*
%TO.P,U2,5,4_5*%
%TO.N,ROW2*%
X171696000Y-40767000D03*
%TO.P,U2,6,5_6*%
%TO.N,ROW3*%
X171696000Y-43307000D03*
%TO.P,U2,7,6_7*%
%TO.N,ROW4*%
X171696000Y-45847000D03*
%TO.P,U2,8,7_8*%
%TO.N,COL0*%
X171696000Y-48387000D03*
%TO.P,U2,9,8_9*%
%TO.N,COL1*%
X171696000Y-50927000D03*
D12*
%TO.P,U2,10,9_10*%
%TO.N,COL2*%
X168656000Y-51427000D03*
%TO.P,U2,11,10_11*%
%TO.N,COL3*%
X166116000Y-51427000D03*
%TO.P,U2,12,11_12*%
%TO.N,COL4*%
X163576000Y-51427000D03*
%TO.P,U2,13,12_13*%
%TO.N,COL5*%
X161036000Y-51427000D03*
%TO.P,U2,14,13_14*%
%TO.N,COL6*%
X158496000Y-51427000D03*
D11*
%TO.P,U2,15,14_15*%
%TO.N,unconnected-(U2-14-Pad15)*%
X155456000Y-50927000D03*
%TO.P,U2,16,15_16*%
%TO.N,unconnected-(U2-15-Pad16)*%
X155456000Y-48387000D03*
%TO.P,U2,17,26_17*%
%TO.N,unconnected-(U2-26-Pad17)*%
X155456000Y-45847000D03*
%TO.P,U2,18,27_18*%
%TO.N,unconnected-(U2-27-Pad18)*%
X155456000Y-43307000D03*
%TO.P,U2,19,28_19*%
%TO.N,unconnected-(U2-28-Pad19)*%
X155456000Y-40767000D03*
%TO.P,U2,20,29_20*%
%TO.N,unconnected-(U2-29-Pad20)*%
X155456000Y-38227000D03*
%TO.P,U2,21,3V3_21*%
%TO.N,VCC*%
X155456000Y-35687000D03*
%TO.P,U2,22,GND_22*%
%TO.N,GND*%
X155456000Y-33147000D03*
%TO.P,U2,23,5V_23*%
%TO.N,unconnected-(U2-5V-Pad23)*%
X155456000Y-30607000D03*
%TD*%
D13*
%TO.N,COL4*%
X97536000Y-44831000D03*
X97536000Y-47117000D03*
X94869000Y-79629000D03*
X94615000Y-61468000D03*
X136652000Y-85090000D03*
X98806000Y-83566000D03*
X135001000Y-85090000D03*
X109220000Y-88392000D03*
X97663000Y-77183500D03*
X97536000Y-57785000D03*
X117475000Y-88138000D03*
%TO.N,COL5*%
X136339000Y-68199000D03*
X135139000Y-68199000D03*
%TO.N,COL2*%
X134874000Y-45847000D03*
X79248000Y-44196000D03*
X117348000Y-43522997D03*
X166624000Y-48895000D03*
X98239000Y-39116000D03*
X136652000Y-45720000D03*
X77724000Y-44069000D03*
X97028000Y-39116000D03*
X115951000Y-43434000D03*
%TO.N,COL1*%
X135128000Y-48641000D03*
X79248000Y-50165000D03*
X136906000Y-48641000D03*
X107188000Y-48260000D03*
X110490000Y-48260000D03*
X115697000Y-44323000D03*
X77978000Y-50165000D03*
X60325000Y-49149000D03*
X58547000Y-49276000D03*
X117348000Y-44323000D03*
%TO.N,COL3*%
X130556000Y-96774000D03*
X78613000Y-89027000D03*
X122428000Y-103378000D03*
X100330000Y-98171000D03*
%TO.N,TX*%
X159773303Y-48573303D03*
X161700000Y-40250000D03*
X158300000Y-48100000D03*
X160700000Y-41350000D03*
%TO.N,RX*%
X166700000Y-73450000D03*
X174200000Y-56950000D03*
X172646000Y-57000000D03*
X168200000Y-73500000D03*
%TO.N,ROW0*%
X115951000Y-37973000D03*
X98425000Y-36195000D03*
X58939000Y-43180000D03*
X60325000Y-43561000D03*
X136339000Y-42545000D03*
X117348000Y-38227000D03*
X77989000Y-41529000D03*
X135001000Y-42164000D03*
X97039000Y-36576000D03*
X79189000Y-41021000D03*
%TO.N,ROW1*%
X139319000Y-61214000D03*
X142313446Y-58037605D03*
X131318000Y-58674000D03*
X116089000Y-56896000D03*
X77989000Y-63119000D03*
X60198000Y-64516000D03*
X117475000Y-57150000D03*
X58928000Y-64389000D03*
X129794000Y-58674000D03*
X79189000Y-63119000D03*
X139827000Y-48006000D03*
X135139000Y-59563000D03*
%TO.N,ROW2*%
X58939000Y-83693000D03*
X142875000Y-83947000D03*
X148844000Y-50673000D03*
X77989000Y-79375000D03*
X146939000Y-63627000D03*
X129794000Y-79248000D03*
X116078000Y-75946000D03*
X79248000Y-79121000D03*
X149987000Y-46736000D03*
X60198000Y-83693000D03*
X135139000Y-81026000D03*
X131029000Y-79375000D03*
X147363265Y-65448265D03*
X149225000Y-57785000D03*
X148971000Y-59309000D03*
X136339000Y-81153000D03*
X142875000Y-81153000D03*
X117289000Y-76327000D03*
%TO.N,ROW3*%
X148463000Y-48768000D03*
X114129735Y-94150265D03*
X130429000Y-65405000D03*
X120777000Y-94742000D03*
X130048000Y-84201000D03*
X133731000Y-94488000D03*
X136339000Y-54356000D03*
X131064000Y-93726000D03*
X135128000Y-54356000D03*
X130429000Y-63754000D03*
X129921000Y-85852000D03*
X145034000Y-51308000D03*
%TO.N,ROW4*%
X122936000Y-120650000D03*
%TO.N,GND*%
X150200000Y-64950000D03*
X150130765Y-62680765D03*
%TD*%
%TO.N,COL4*%
D14*
X97314500Y-77183500D02*
X94869000Y-79629000D01*
X97663000Y-77183500D02*
X97314500Y-77183500D01*
X97536000Y-58547000D02*
X94615000Y-61468000D01*
X106925864Y-88392000D02*
X102099864Y-83566000D01*
X109474000Y-88138000D02*
X109220000Y-88392000D01*
X102099864Y-83566000D02*
X98806000Y-83566000D01*
X136652000Y-85090000D02*
X135001000Y-85090000D01*
X109220000Y-88392000D02*
X106925864Y-88392000D01*
X97536000Y-44831000D02*
X97536000Y-47117000D01*
X97536000Y-57785000D02*
X97536000Y-58547000D01*
X117475000Y-88138000D02*
X109474000Y-88138000D01*
%TO.N,COL5*%
X136339000Y-68199000D02*
X135139000Y-68199000D01*
%TO.N,COL2*%
X79248000Y-44196000D02*
X77851000Y-44196000D01*
X117348000Y-43522997D02*
X116039997Y-43522997D01*
X98239000Y-39116000D02*
X97028000Y-39116000D01*
X77851000Y-44196000D02*
X77724000Y-44069000D01*
X168656000Y-50927000D02*
X166624000Y-48895000D01*
X116039997Y-43522997D02*
X115951000Y-43434000D01*
X136652000Y-45720000D02*
X135001000Y-45720000D01*
X135001000Y-45720000D02*
X134874000Y-45847000D01*
%TO.N,COL1*%
X115697000Y-44323000D02*
X117348000Y-44323000D01*
X58547000Y-49276000D02*
X60198000Y-49276000D01*
X107188000Y-48260000D02*
X110490000Y-48260000D01*
X135128000Y-48641000D02*
X136906000Y-48641000D01*
X60198000Y-49276000D02*
X60325000Y-49149000D01*
X77978000Y-50165000D02*
X79248000Y-50165000D01*
%TO.N,COL3*%
X83279864Y-88558500D02*
X79081500Y-88558500D01*
X79081500Y-88558500D02*
X78613000Y-89027000D01*
X130556000Y-96774000D02*
X123952000Y-103378000D01*
X100330000Y-98171000D02*
X92892364Y-98171000D01*
X123952000Y-103378000D02*
X122428000Y-103378000D01*
X92892364Y-98171000D02*
X83279864Y-88558500D01*
%TO.N,TX*%
X158300000Y-43750000D02*
X158300000Y-48100000D01*
X162300000Y-59250000D02*
X159773303Y-56723303D01*
X163300000Y-59250000D02*
X162300000Y-59250000D01*
X159773303Y-56723303D02*
X159773303Y-48573303D01*
X171196000Y-30607000D02*
X161700000Y-40103000D01*
X167600000Y-77050000D02*
X167600000Y-63550000D01*
X160700000Y-41350000D02*
X158300000Y-43750000D01*
X161700000Y-40103000D02*
X161700000Y-40250000D01*
X167600000Y-63550000D02*
X163300000Y-59250000D01*
%TO.N,RX*%
X168200000Y-73500000D02*
X168200000Y-72250000D01*
X165350000Y-73450000D02*
X165295000Y-73450000D01*
X163600000Y-77050000D02*
X163600000Y-75200000D01*
X174200000Y-36151000D02*
X174200000Y-56950000D01*
X172646000Y-67804000D02*
X172646000Y-57000000D01*
X171196000Y-33147000D02*
X174200000Y-36151000D01*
X168200000Y-72250000D02*
X172646000Y-67804000D01*
X166700000Y-73450000D02*
X165350000Y-73450000D01*
X163600000Y-75200000D02*
X165350000Y-73450000D01*
%TO.N,ROW0*%
X135958000Y-42164000D02*
X136339000Y-42545000D01*
X117094000Y-37973000D02*
X117348000Y-38227000D01*
X115951000Y-37973000D02*
X117094000Y-37973000D01*
X135001000Y-42164000D02*
X135958000Y-42164000D01*
X59944000Y-43180000D02*
X60325000Y-43561000D01*
X77989000Y-41529000D02*
X78681000Y-41529000D01*
X97039000Y-36576000D02*
X98044000Y-36576000D01*
X98044000Y-36576000D02*
X98425000Y-36195000D01*
X58939000Y-43180000D02*
X59944000Y-43180000D01*
X78681000Y-41529000D02*
X79189000Y-41021000D01*
%TO.N,ROW1*%
X77989000Y-63119000D02*
X79189000Y-63119000D01*
X117221000Y-56896000D02*
X117475000Y-57150000D01*
X139827000Y-48006000D02*
X142313446Y-50492446D01*
X116089000Y-56896000D02*
X117221000Y-56896000D01*
X129794000Y-58674000D02*
X131318000Y-58674000D01*
X142313446Y-50492446D02*
X142313446Y-58037605D01*
X136790000Y-61214000D02*
X139319000Y-61214000D01*
X60071000Y-64389000D02*
X60198000Y-64516000D01*
X135139000Y-59563000D02*
X136790000Y-61214000D01*
X58928000Y-64389000D02*
X60071000Y-64389000D01*
%TO.N,ROW2*%
X149987000Y-49530000D02*
X148844000Y-50673000D01*
X130902000Y-79248000D02*
X131029000Y-79375000D01*
X116459000Y-76327000D02*
X116078000Y-75946000D01*
X149225000Y-57785000D02*
X149225000Y-59055000D01*
X78994000Y-79375000D02*
X79248000Y-79121000D01*
X142875000Y-81153000D02*
X142875000Y-83947000D01*
X135139000Y-81026000D02*
X136212000Y-81026000D01*
X149225000Y-59055000D02*
X148971000Y-59309000D01*
X146939000Y-63627000D02*
X146939000Y-65024000D01*
X146939000Y-65024000D02*
X147363265Y-65448265D01*
X136212000Y-81026000D02*
X136339000Y-81153000D01*
X77989000Y-79375000D02*
X78994000Y-79375000D01*
X129794000Y-79248000D02*
X130902000Y-79248000D01*
X149987000Y-46736000D02*
X149987000Y-49530000D01*
X117289000Y-76327000D02*
X116459000Y-76327000D01*
X58939000Y-83693000D02*
X60198000Y-83693000D01*
%TO.N,ROW3*%
X131826000Y-94488000D02*
X131064000Y-93726000D01*
X136339000Y-54356000D02*
X135128000Y-54356000D01*
X114721470Y-94742000D02*
X120777000Y-94742000D01*
X130429000Y-63754000D02*
X130429000Y-65405000D01*
X130048000Y-85725000D02*
X129921000Y-85852000D01*
X148463000Y-48768000D02*
X145923000Y-51308000D01*
X145923000Y-51308000D02*
X145034000Y-51308000D01*
X114129735Y-94150265D02*
X114721470Y-94742000D01*
X133731000Y-94488000D02*
X131826000Y-94488000D01*
X130048000Y-84201000D02*
X130048000Y-85725000D01*
%TO.N,ROW4*%
X157006000Y-56735000D02*
X142114000Y-71627000D01*
X131550864Y-107950000D02*
X129921000Y-107950000D01*
X157006000Y-50492076D02*
X157006000Y-56735000D01*
X129921000Y-107950000D02*
X125484752Y-112386248D01*
X161651076Y-45847000D02*
X157006000Y-50492076D01*
X171196000Y-45847000D02*
X161651076Y-45847000D01*
X142114000Y-97386864D02*
X131550864Y-107950000D01*
X125484752Y-118101248D02*
X122936000Y-120650000D01*
X125484752Y-112386248D02*
X125484752Y-118101248D01*
X142114000Y-71627000D02*
X142114000Y-97386864D01*
%TO.N,VCC*%
X173246000Y-70500000D02*
X170600000Y-73146000D01*
X173246000Y-70500000D02*
X173246000Y-70604000D01*
X170600000Y-73146000D02*
X170600000Y-77050000D01*
X173246000Y-45412076D02*
X173246000Y-70500000D01*
X172383924Y-44550000D02*
X173246000Y-45412076D01*
X164819000Y-44550000D02*
X172383924Y-44550000D01*
X155956000Y-35687000D02*
X164819000Y-44550000D01*
%TO.N,GND*%
X150587000Y-38516000D02*
X155956000Y-33147000D01*
X161295000Y-69850000D02*
X155100000Y-69850000D01*
X150130765Y-62680765D02*
X150587000Y-62224530D01*
X150587000Y-62224530D02*
X150587000Y-38516000D01*
X161295000Y-69850000D02*
X162500000Y-71055000D01*
X155100000Y-69850000D02*
X150200000Y-64950000D01*
X162500000Y-71055000D02*
X162500000Y-72450000D01*
%TD*%
M02*
