M48
; DRILL file KiCad 10.0.1 date 2026-06-27T21:41:22
; FORMAT={-:-/ absolute / metric / decimal}
; #@! TF.CreationDate,2026-06-27T21:41:22+12:00
; #@! TF.GenerationSoftware,Kicad,Pcbnew,10.0.1
; #@! TF.FileFunction,Plated,1,2,PTH
FMAT,2
METRIC
; #@! TA.AperFunction,Plated,PTH,ViaDrill
T1C0.300
; #@! TA.AperFunction,Plated,PTH,ComponentDrill
T2C0.900
; #@! TA.AperFunction,Plated,PTH,ComponentDrill
T3C1.000
%
G90
G05
T1
X58.547Y-49.276
X58.928Y-64.389
X58.939Y-43.18
X58.939Y-83.693
X60.198Y-64.516
X60.198Y-83.693
X60.325Y-43.561
X60.325Y-49.149
X77.724Y-44.069
X77.978Y-50.165
X77.989Y-41.529
X77.989Y-63.119
X77.989Y-79.375
X78.613Y-89.027
X79.189Y-41.021
X79.189Y-63.119
X79.248Y-44.196
X79.248Y-50.165
X79.248Y-79.121
X94.615Y-61.468
X94.869Y-79.629
X97.028Y-39.116
X97.039Y-36.576
X97.536Y-44.831
X97.536Y-47.117
X97.536Y-57.785
X97.663Y-77.183
X98.239Y-39.116
X98.425Y-36.195
X98.806Y-83.566
X100.33Y-98.171
X107.188Y-48.26
X109.22Y-88.392
X110.49Y-48.26
X114.13Y-94.15
X115.697Y-44.323
X115.951Y-37.973
X115.951Y-43.434
X116.078Y-75.946
X116.089Y-56.896
X117.289Y-76.327
X117.348Y-38.227
X117.348Y-43.523
X117.348Y-44.323
X117.475Y-57.15
X117.475Y-88.138
X120.777Y-94.742
X122.428Y-103.378
X122.936Y-120.65
X129.794Y-58.674
X129.794Y-79.248
X129.921Y-85.852
X130.048Y-84.201
X130.429Y-63.754
X130.429Y-65.405
X130.556Y-96.774
X131.029Y-79.375
X131.064Y-93.726
X131.318Y-58.674
X133.731Y-94.488
X134.874Y-45.847
X135.001Y-42.164
X135.001Y-85.09
X135.128Y-48.641
X135.128Y-54.356
X135.139Y-59.563
X135.139Y-68.199
X135.139Y-81.026
X136.339Y-42.545
X136.339Y-54.356
X136.339Y-68.199
X136.339Y-81.153
X136.652Y-45.72
X136.652Y-85.09
X136.906Y-48.641
X139.319Y-61.214
X139.827Y-48.006
X142.313Y-58.038
X142.875Y-81.153
X142.875Y-83.947
X145.034Y-51.308
X146.939Y-63.627
X147.363Y-65.448
X148.463Y-48.768
X148.844Y-50.673
X148.971Y-59.309
X149.225Y-57.785
X149.987Y-46.736
X150.131Y-62.681
X150.2Y-64.95
X158.3Y-48.1
X159.773Y-48.573
X160.7Y-41.35
X161.7Y-40.25
X166.624Y-48.895
X166.7Y-73.45
X168.2Y-73.5
X172.646Y-57.0
X174.2Y-56.95
T3
X155.956Y-30.607
X155.956Y-33.147
X155.956Y-35.687
X155.956Y-38.227
X155.956Y-40.767
X155.956Y-43.307
X155.956Y-45.847
X155.956Y-48.387
X155.956Y-50.927
X158.496Y-50.927
X161.036Y-50.927
X163.576Y-50.927
X166.116Y-50.927
X168.656Y-50.927
X171.196Y-30.607
X171.196Y-33.147
X171.196Y-35.687
X171.196Y-38.227
X171.196Y-40.767
X171.196Y-43.307
X171.196Y-45.847
X171.196Y-48.387
X171.196Y-50.927
T2
G00X162.7Y-72.45
M15
G01X162.3Y-72.45
M16
G05
G00X163.8Y-77.05
M15
G01X163.4Y-77.05
M16
G05
G00X167.8Y-77.05
M15
G01X167.4Y-77.05
M16
G05
G00X170.8Y-77.05
M15
G01X170.4Y-77.05
M16
G05
M30
