%TF.GenerationSoftware,KiCad,Pcbnew,10.0.1*%
%TF.CreationDate,2026-07-24T20:15:28+12:00*%
%TF.ProjectId,keyboard,6b657962-6f61-4726-942e-6b696361645f,rev?*%
%TF.SameCoordinates,Original*%
%TF.FileFunction,Copper,L2,Bot*%
%TF.FilePolarity,Positive*%
%FSLAX46Y46*%
G04 Gerber Fmt 4.6, Leading zero omitted, Abs format (unit mm)*
G04 Created by KiCad (PCBNEW 10.0.1) date 2026-07-24 20:15:28*
%MOMM*%
%LPD*%
G01*
G04 APERTURE LIST*
G04 Aperture macros list*
%AMRoundRect*
0 Rectangle with rounded corners*
0 $1 Rounding radius*
0 $2 $3 $4 $5 $6 $7 $8 $9 X,Y pos of 4 corners*
0 Add a 4 corners polygon primitive as box body*
4,1,4,$2,$3,$4,$5,$6,$7,$8,$9,$2,$3,0*
0 Add four circle primitives for the rounded corners*
1,1,$1+$1,$2,$3*
1,1,$1+$1,$4,$5*
1,1,$1+$1,$6,$7*
1,1,$1+$1,$8,$9*
0 Add four rect primitives between the rounded corners*
20,1,$1+$1,$2,$3,$4,$5,0*
20,1,$1+$1,$4,$5,$6,$7,0*
20,1,$1+$1,$6,$7,$8,$9,0*
20,1,$1+$1,$8,$9,$2,$3,0*%
G04 Aperture macros list end*
%TA.AperFunction,SMDPad,CuDef*%
%ADD10RoundRect,0.250000X-1.025000X-1.000000X1.025000X-1.000000X1.025000X1.000000X-1.025000X1.000000X0*%
%TD*%
%TA.AperFunction,SMDPad,CuDef*%
%ADD11RoundRect,0.250000X-1.427983X-0.107187X0.142408X-1.424902X1.427983X0.107187X-0.142408X1.424902X0*%
%TD*%
%TA.AperFunction,ComponentPad*%
%ADD12O,2.000000X1.600000*%
%TD*%
%TA.AperFunction,SMDPad,CuDef*%
%ADD13RoundRect,0.250000X-1.387676X-0.353525X0.387676X-1.378525X1.387676X0.353525X-0.387676X1.378525X0*%
%TD*%
%TA.AperFunction,SMDPad,CuDef*%
%ADD14RoundRect,0.250000X-1.248893X-0.700636X0.731255X-1.231215X1.248893X0.700636X-0.731255X1.231215X0*%
%TD*%
%TA.AperFunction,ComponentPad*%
%ADD15O,2.500000X1.500000*%
%TD*%
%TA.AperFunction,ComponentPad*%
%ADD16O,1.500000X2.500000*%
%TD*%
%TA.AperFunction,SMDPad,CuDef*%
%ADD17RoundRect,0.250000X0.300000X-0.300000X0.300000X0.300000X-0.300000X0.300000X-0.300000X-0.300000X0*%
%TD*%
%TA.AperFunction,SMDPad,CuDef*%
%ADD18RoundRect,0.250000X0.212132X-0.367423X0.367423X0.212132X-0.212132X0.367423X-0.367423X-0.212132X0*%
%TD*%
%TA.AperFunction,SMDPad,CuDef*%
%ADD19RoundRect,0.250000X0.109808X-0.409808X0.409808X0.109808X-0.109808X0.409808X-0.409808X-0.109808X0*%
%TD*%
%TA.AperFunction,SMDPad,CuDef*%
%ADD20RoundRect,0.250000X0.036977X-0.422650X0.422650X0.036977X-0.036977X0.422650X-0.422650X-0.036977X0*%
%TD*%
%TA.AperFunction,ViaPad*%
%ADD21C,0.600000*%
%TD*%
%TA.AperFunction,Conductor*%
%ADD22C,0.200000*%
%TD*%
G04 APERTURE END LIST*
D10*
%TO.P,SW22,1,1*%
%TO.N,COL4*%
X97639000Y-80671000D03*
%TO.P,SW22,2,2*%
%TO.N,Net-(D22-A)*%
X109639000Y-82871000D03*
%TD*%
%TO.P,SW23,1,1*%
%TO.N,COL5*%
X116689000Y-85433500D03*
%TO.P,SW23,2,2*%
%TO.N,Net-(D23-A)*%
X128689000Y-87633500D03*
%TD*%
D11*
%TO.P,SW27,1,1*%
%TO.N,COL5*%
X163948013Y-132555538D03*
%TO.P,SW27,2,2*%
%TO.N,Net-(D27-A)*%
X171726414Y-141954287D03*
%TD*%
D10*
%TO.P,SW16,1,1*%
%TO.N,COL4*%
X97639000Y-61621000D03*
%TO.P,SW16,2,2*%
%TO.N,Net-(D16-A)*%
X109639000Y-63821000D03*
%TD*%
D12*
%TO.P,U1,1,SLEEVE_1*%
%TO.N,GND*%
X162500000Y-72450000D03*
%TO.P,U1,2,TIP_2*%
%TO.N,RX*%
X163600000Y-77050000D03*
%TO.P,U1,3,RING1_3*%
%TO.N,TX*%
X167600000Y-77050000D03*
%TO.P,U1,4,RING2_4*%
%TO.N,VCC*%
X170600000Y-77050000D03*
%TD*%
D10*
%TO.P,SW10,1,1*%
%TO.N,COL4*%
X97639000Y-42571000D03*
%TO.P,SW10,2,2*%
%TO.N,Net-(D10-A)*%
X109639000Y-44771000D03*
%TD*%
%TO.P,SW17,1,1*%
%TO.N,COL5*%
X116689000Y-66383500D03*
%TO.P,SW17,2,2*%
%TO.N,Net-(D17-A)*%
X128689000Y-68583500D03*
%TD*%
%TO.P,SW14,1,1*%
%TO.N,COL2*%
X59539000Y-71146000D03*
%TO.P,SW14,2,2*%
%TO.N,Net-(D14-A)*%
X71539000Y-73346000D03*
%TD*%
%TO.P,SW6,1,1*%
%TO.N,COL6*%
X135739000Y-33046000D03*
%TO.P,SW6,2,2*%
%TO.N,Net-(D6-A)*%
X147739000Y-35246000D03*
%TD*%
%TO.P,SW2,1,1*%
%TO.N,COL2*%
X59539000Y-33046000D03*
%TO.P,SW2,2,2*%
%TO.N,Net-(D2-A)*%
X71539000Y-35246000D03*
%TD*%
%TO.P,SW13,1,1*%
%TO.N,COL1*%
X40489000Y-71146000D03*
%TO.P,SW13,2,2*%
%TO.N,Net-(D13-A)*%
X52489000Y-73346000D03*
%TD*%
%TO.P,SW5,1,1*%
%TO.N,COL5*%
X116689000Y-28283500D03*
%TO.P,SW5,2,2*%
%TO.N,Net-(D5-A)*%
X128689000Y-30483500D03*
%TD*%
%TO.P,SW8,1,1*%
%TO.N,COL2*%
X59539000Y-52096000D03*
%TO.P,SW8,2,2*%
%TO.N,Net-(D8-A)*%
X71539000Y-54296000D03*
%TD*%
%TO.P,SW7,1,1*%
%TO.N,COL1*%
X40489000Y-52096000D03*
%TO.P,SW7,2,2*%
%TO.N,Net-(D7-A)*%
X52489000Y-54296000D03*
%TD*%
%TO.P,SW1,1,1*%
%TO.N,COL1*%
X40489000Y-33046000D03*
%TO.P,SW1,2,2*%
%TO.N,Net-(D1-A)*%
X52489000Y-35246000D03*
%TD*%
%TO.P,SW20,1,1*%
%TO.N,COL2*%
X59539000Y-90196000D03*
%TO.P,SW20,2,2*%
%TO.N,Net-(D20-A)*%
X71539000Y-92396000D03*
%TD*%
%TO.P,SW4,1,1*%
%TO.N,COL4*%
X97639000Y-23521000D03*
%TO.P,SW4,2,2*%
%TO.N,Net-(D4-A)*%
X109639000Y-25721000D03*
%TD*%
%TO.P,SW11,1,1*%
%TO.N,COL5*%
X116689000Y-47333500D03*
%TO.P,SW11,2,2*%
%TO.N,Net-(D11-A)*%
X128689000Y-49533500D03*
%TD*%
D13*
%TO.P,SW26,1,1*%
%TO.N,COL4*%
X143651055Y-119568702D03*
%TO.P,SW26,2,2*%
%TO.N,Net-(D26-A)*%
X152943360Y-127473957D03*
%TD*%
D10*
%TO.P,SW15,1,1*%
%TO.N,COL3*%
X78589000Y-66383500D03*
%TO.P,SW15,2,2*%
%TO.N,Net-(D15-A)*%
X90589000Y-68583500D03*
%TD*%
%TO.P,SW21,1,1*%
%TO.N,COL3*%
X78589000Y-85433500D03*
%TO.P,SW21,2,2*%
%TO.N,Net-(D21-A)*%
X90589000Y-87633500D03*
%TD*%
%TO.P,SW9,1,1*%
%TO.N,COL3*%
X78589000Y-47333500D03*
%TO.P,SW9,2,2*%
%TO.N,Net-(D9-A)*%
X90589000Y-49533500D03*
%TD*%
%TO.P,SW24,1,1*%
%TO.N,COL6*%
X135739000Y-90196000D03*
%TO.P,SW24,2,2*%
%TO.N,Net-(D24-A)*%
X147739000Y-92396000D03*
%TD*%
%TO.P,SW12,1,1*%
%TO.N,COL6*%
X135739000Y-52096000D03*
%TO.P,SW12,2,2*%
%TO.N,Net-(D12-A)*%
X147739000Y-54296000D03*
%TD*%
D14*
%TO.P,SW25,1,1*%
%TO.N,COL3*%
X120781926Y-110058532D03*
%TO.P,SW25,2,2*%
%TO.N,Net-(D25-A)*%
X131803634Y-115289398D03*
%TD*%
D10*
%TO.P,SW19,1,1*%
%TO.N,COL1*%
X40489000Y-90196000D03*
%TO.P,SW19,2,2*%
%TO.N,Net-(D19-A)*%
X52489000Y-92396000D03*
%TD*%
D15*
%TO.P,U2,1,0_1*%
%TO.N,TX*%
X171696000Y-30607000D03*
%TO.P,U2,2,1_2*%
%TO.N,RX*%
X171696000Y-33147000D03*
%TO.P,U2,3,2_3*%
%TO.N,ROW0*%
X171696000Y-35687000D03*
%TO.P,U2,4,3_4*%
%TO.N,ROW1*%
X171696000Y-38227000D03*
%TO.P,U2,5,4_5*%
%TO.N,ROW2*%
X171696000Y-40767000D03*
%TO.P,U2,6,5_6*%
%TO.N,ROW3*%
X171696000Y-43307000D03*
%TO.P,U2,7,6_7*%
%TO.N,ROW4*%
X171696000Y-45847000D03*
%TO.P,U2,8,7_8*%
%TO.N,COL0*%
X171696000Y-48387000D03*
%TO.P,U2,9,8_9*%
%TO.N,COL1*%
X171696000Y-50927000D03*
D16*
%TO.P,U2,10,9_10*%
%TO.N,COL2*%
X168656000Y-51427000D03*
%TO.P,U2,11,10_11*%
%TO.N,COL3*%
X166116000Y-51427000D03*
%TO.P,U2,12,11_12*%
%TO.N,COL4*%
X163576000Y-51427000D03*
%TO.P,U2,13,12_13*%
%TO.N,COL5*%
X161036000Y-51427000D03*
%TO.P,U2,14,13_14*%
%TO.N,COL6*%
X158496000Y-51427000D03*
D15*
%TO.P,U2,15,14_15*%
%TO.N,unconnected-(U2-14-Pad15)*%
X155456000Y-50927000D03*
%TO.P,U2,16,15_16*%
%TO.N,unconnected-(U2-15-Pad16)*%
X155456000Y-48387000D03*
%TO.P,U2,17,26_17*%
%TO.N,unconnected-(U2-26-Pad17)*%
X155456000Y-45847000D03*
%TO.P,U2,18,27_18*%
%TO.N,unconnected-(U2-27-Pad18)*%
X155456000Y-43307000D03*
%TO.P,U2,19,28_19*%
%TO.N,unconnected-(U2-28-Pad19)*%
X155456000Y-40767000D03*
%TO.P,U2,20,29_20*%
%TO.N,unconnected-(U2-29-Pad20)*%
X155456000Y-38227000D03*
%TO.P,U2,21,3V3_21*%
%TO.N,VCC*%
X155456000Y-35687000D03*
%TO.P,U2,22,GND_22*%
%TO.N,GND*%
X155456000Y-33147000D03*
%TO.P,U2,23,5V_23*%
%TO.N,unconnected-(U2-5V-Pad23)*%
X155456000Y-30607000D03*
%TD*%
D10*
%TO.P,SW3,1,1*%
%TO.N,COL3*%
X78589000Y-28283500D03*
%TO.P,SW3,2,2*%
%TO.N,Net-(D3-A)*%
X90589000Y-30483500D03*
%TD*%
%TO.P,SW18,1,1*%
%TO.N,COL6*%
X135739000Y-71146000D03*
%TO.P,SW18,2,2*%
%TO.N,Net-(D18-A)*%
X147739000Y-73346000D03*
%TD*%
D17*
%TO.P,D6,1,K*%
%TO.N,ROW0*%
X144319000Y-44446000D03*
%TO.P,D6,2,A*%
%TO.N,Net-(D6-A)*%
X144319000Y-41646000D03*
%TD*%
%TO.P,D20,1,K*%
%TO.N,ROW3*%
X68119000Y-101596000D03*
%TO.P,D20,2,A*%
%TO.N,Net-(D20-A)*%
X68119000Y-98796000D03*
%TD*%
%TO.P,D14,1,K*%
%TO.N,ROW2*%
X68119000Y-82546000D03*
%TO.P,D14,2,A*%
%TO.N,Net-(D14-A)*%
X68119000Y-79746000D03*
%TD*%
%TO.P,D1,1,K*%
%TO.N,ROW0*%
X49069000Y-44446000D03*
%TO.P,D1,2,A*%
%TO.N,Net-(D1-A)*%
X49069000Y-41646000D03*
%TD*%
%TO.P,D15,1,K*%
%TO.N,ROW2*%
X87169000Y-77783500D03*
%TO.P,D15,2,A*%
%TO.N,Net-(D15-A)*%
X87169000Y-74983500D03*
%TD*%
%TO.P,D16,1,K*%
%TO.N,ROW2*%
X106219000Y-73021000D03*
%TO.P,D16,2,A*%
%TO.N,Net-(D16-A)*%
X106219000Y-70221000D03*
%TD*%
D18*
%TO.P,D25,1,K*%
%TO.N,ROW4*%
X126119032Y-123290754D03*
%TO.P,D25,2,A*%
%TO.N,Net-(D25-A)*%
X126843726Y-120586162D03*
%TD*%
D17*
%TO.P,D13,1,K*%
%TO.N,ROW2*%
X49069000Y-82546000D03*
%TO.P,D13,2,A*%
%TO.N,Net-(D13-A)*%
X49069000Y-79746000D03*
%TD*%
%TO.P,D11,1,K*%
%TO.N,ROW1*%
X125269000Y-58733500D03*
%TO.P,D11,2,A*%
%TO.N,Net-(D11-A)*%
X125269000Y-55933500D03*
%TD*%
%TO.P,D8,1,K*%
%TO.N,ROW1*%
X68119000Y-63496000D03*
%TO.P,D8,2,A*%
%TO.N,Net-(D8-A)*%
X68119000Y-60696000D03*
%TD*%
%TO.P,D10,1,K*%
%TO.N,ROW1*%
X106219000Y-53971000D03*
%TO.P,D10,2,A*%
%TO.N,Net-(D10-A)*%
X106219000Y-51171000D03*
%TD*%
%TO.P,D7,1,K*%
%TO.N,ROW1*%
X49069000Y-63496000D03*
%TO.P,D7,2,A*%
%TO.N,Net-(D7-A)*%
X49069000Y-60696000D03*
%TD*%
%TO.P,D22,1,K*%
%TO.N,ROW3*%
X106219000Y-92071000D03*
%TO.P,D22,2,A*%
%TO.N,Net-(D22-A)*%
X106219000Y-89271000D03*
%TD*%
%TO.P,D19,1,K*%
%TO.N,ROW3*%
X49069000Y-101596000D03*
%TO.P,D19,2,A*%
%TO.N,Net-(D19-A)*%
X49069000Y-98796000D03*
%TD*%
%TO.P,D4,1,K*%
%TO.N,ROW0*%
X106219000Y-34921000D03*
%TO.P,D4,2,A*%
%TO.N,Net-(D4-A)*%
X106219000Y-32121000D03*
%TD*%
%TO.P,D12,1,K*%
%TO.N,ROW1*%
X144319000Y-63496000D03*
%TO.P,D12,2,A*%
%TO.N,Net-(D12-A)*%
X144319000Y-60696000D03*
%TD*%
D19*
%TO.P,D26,1,K*%
%TO.N,ROW4*%
X145381553Y-133731391D03*
%TO.P,D26,2,A*%
%TO.N,Net-(D26-A)*%
X146781553Y-131306519D03*
%TD*%
D17*
%TO.P,D2,1,K*%
%TO.N,ROW0*%
X68119000Y-44446000D03*
%TO.P,D2,2,A*%
%TO.N,Net-(D2-A)*%
X68119000Y-41646000D03*
%TD*%
%TO.P,D5,1,K*%
%TO.N,ROW0*%
X125269000Y-39683500D03*
%TO.P,D5,2,A*%
%TO.N,Net-(D5-A)*%
X125269000Y-36883500D03*
%TD*%
%TO.P,D21,1,K*%
%TO.N,ROW3*%
X87169000Y-96833500D03*
%TO.P,D21,2,A*%
%TO.N,Net-(D21-A)*%
X87169000Y-94033500D03*
%TD*%
D20*
%TO.P,D27,1,K*%
%TO.N,ROW4*%
X163192895Y-146803561D03*
%TO.P,D27,2,A*%
%TO.N,Net-(D27-A)*%
X164992701Y-144658637D03*
%TD*%
D17*
%TO.P,D18,1,K*%
%TO.N,ROW2*%
X144319000Y-82546000D03*
%TO.P,D18,2,A*%
%TO.N,Net-(D18-A)*%
X144319000Y-79746000D03*
%TD*%
%TO.P,D3,1,K*%
%TO.N,ROW0*%
X87169000Y-39683500D03*
%TO.P,D3,2,A*%
%TO.N,Net-(D3-A)*%
X87169000Y-36883500D03*
%TD*%
%TO.P,D24,1,K*%
%TO.N,ROW3*%
X144319000Y-101596000D03*
%TO.P,D24,2,A*%
%TO.N,Net-(D24-A)*%
X144319000Y-98796000D03*
%TD*%
%TO.P,D17,1,K*%
%TO.N,ROW2*%
X125269000Y-77783500D03*
%TO.P,D17,2,A*%
%TO.N,Net-(D17-A)*%
X125269000Y-74983500D03*
%TD*%
%TO.P,D9,1,K*%
%TO.N,ROW1*%
X87169000Y-58733500D03*
%TO.P,D9,2,A*%
%TO.N,Net-(D9-A)*%
X87169000Y-55933500D03*
%TD*%
%TO.P,D23,1,K*%
%TO.N,ROW3*%
X125269000Y-96833500D03*
%TO.P,D23,2,A*%
%TO.N,Net-(D23-A)*%
X125269000Y-94033500D03*
%TD*%
D21*
%TO.N,COL4*%
X97536000Y-44831000D03*
X97536000Y-47117000D03*
X94869000Y-79629000D03*
X94615000Y-61468000D03*
X136652000Y-85090000D03*
X98806000Y-83566000D03*
X135001000Y-85090000D03*
X109220000Y-88392000D03*
X97663000Y-77183500D03*
X97536000Y-57785000D03*
X117475000Y-88138000D03*
%TO.N,COL5*%
X136339000Y-68199000D03*
X135139000Y-68199000D03*
%TO.N,GND*%
X150200000Y-64950000D03*
X150130765Y-62680765D03*
%TO.N,RX*%
X166700000Y-73450000D03*
X174200000Y-56950000D03*
X172646000Y-57000000D03*
X168200000Y-73500000D03*
%TO.N,TX*%
X159773303Y-48573303D03*
X161700000Y-40250000D03*
X158300000Y-48100000D03*
X160700000Y-41350000D03*
%TO.N,COL2*%
X134874000Y-45847000D03*
X79248000Y-44196000D03*
X117348000Y-43522997D03*
X166624000Y-48895000D03*
X98239000Y-39116000D03*
X136652000Y-45720000D03*
X77724000Y-44069000D03*
X97028000Y-39116000D03*
X115951000Y-43434000D03*
%TO.N,COL1*%
X135128000Y-48641000D03*
X79248000Y-50165000D03*
X136906000Y-48641000D03*
X107188000Y-48260000D03*
X110490000Y-48260000D03*
X115697000Y-44323000D03*
X77978000Y-50165000D03*
X60325000Y-49149000D03*
X58547000Y-49276000D03*
X117348000Y-44323000D03*
%TO.N,COL3*%
X130556000Y-96774000D03*
X78613000Y-89027000D03*
X122428000Y-103378000D03*
X100330000Y-98171000D03*
%TO.N,ROW0*%
X115951000Y-37973000D03*
X98425000Y-36195000D03*
X58939000Y-43180000D03*
X60325000Y-43561000D03*
X136339000Y-42545000D03*
X117348000Y-38227000D03*
X77989000Y-41529000D03*
X135001000Y-42164000D03*
X97039000Y-36576000D03*
X79189000Y-41021000D03*
%TO.N,ROW1*%
X139319000Y-61214000D03*
X142313446Y-58037605D03*
X131318000Y-58674000D03*
X116089000Y-56896000D03*
X77989000Y-63119000D03*
X60198000Y-64516000D03*
X117475000Y-57150000D03*
X58928000Y-64389000D03*
X129794000Y-58674000D03*
X79189000Y-63119000D03*
X139827000Y-48006000D03*
X135139000Y-59563000D03*
%TO.N,ROW2*%
X58939000Y-83693000D03*
X142875000Y-83947000D03*
X148844000Y-50673000D03*
X77989000Y-79375000D03*
X146939000Y-63627000D03*
X129794000Y-79248000D03*
X116078000Y-75946000D03*
X79248000Y-79121000D03*
X149987000Y-46736000D03*
X60198000Y-83693000D03*
X135139000Y-81026000D03*
X131029000Y-79375000D03*
X147363265Y-65448265D03*
X149225000Y-57785000D03*
X148971000Y-59309000D03*
X136339000Y-81153000D03*
X142875000Y-81153000D03*
X117289000Y-76327000D03*
%TO.N,ROW3*%
X148463000Y-48768000D03*
X114129735Y-94150265D03*
X130429000Y-65405000D03*
X120777000Y-94742000D03*
X130048000Y-84201000D03*
X133731000Y-94488000D03*
X136339000Y-54356000D03*
X131064000Y-93726000D03*
X135128000Y-54356000D03*
X130429000Y-63754000D03*
X129921000Y-85852000D03*
X145034000Y-51308000D03*
%TO.N,ROW4*%
X122936000Y-120650000D03*
%TD*%
%TO.N,COL4*%
D22*
X97639000Y-42571000D02*
X97536000Y-42674000D01*
X94869000Y-79629000D02*
X95911000Y-80671000D01*
X95911000Y-80671000D02*
X97639000Y-80671000D01*
X97639000Y-61621000D02*
X97639000Y-77159500D01*
X122032850Y-88138000D02*
X117475000Y-88138000D01*
X98806000Y-83566000D02*
X98806000Y-83312000D01*
X140359744Y-85090000D02*
X136652000Y-85090000D01*
X94615000Y-61468000D02*
X94768000Y-61621000D01*
X163576000Y-50927000D02*
X151257000Y-63246000D01*
X97639000Y-77159500D02*
X97663000Y-77183500D01*
X151257000Y-74192744D02*
X140359744Y-85090000D01*
X97536000Y-42674000D02*
X97536000Y-44831000D01*
X97536000Y-47117000D02*
X97536000Y-57785000D01*
X97639000Y-82145000D02*
X97639000Y-80671000D01*
X125080850Y-85090000D02*
X122032850Y-88138000D01*
X94768000Y-61621000D02*
X97639000Y-61621000D01*
X97639000Y-23521000D02*
X97639000Y-42571000D01*
X151257000Y-63246000D02*
X151257000Y-74192744D01*
X98806000Y-83312000D02*
X97639000Y-82145000D01*
X135001000Y-85090000D02*
X125080850Y-85090000D01*
X140396702Y-119568702D02*
X109220000Y-88392000D01*
X143651055Y-119568702D02*
X140396702Y-119568702D01*
%TO.N,Net-(D22-A)*%
X109639000Y-85851000D02*
X106219000Y-89271000D01*
X109639000Y-82871000D02*
X109639000Y-85851000D01*
%TO.N,COL5*%
X122373136Y-97683500D02*
X116689000Y-91999364D01*
X116689000Y-47333500D02*
X116689000Y-66383500D01*
X163948013Y-132555538D02*
X162293683Y-132555538D01*
X116689000Y-28283500D02*
X116689000Y-47333500D01*
X161036000Y-50927000D02*
X143764000Y-68199000D01*
X143764000Y-68199000D02*
X136339000Y-68199000D01*
X116689000Y-66383500D02*
X116689000Y-85433500D01*
X116689000Y-91999364D02*
X116689000Y-85433500D01*
X135139000Y-68199000D02*
X131548500Y-64608500D01*
X131548500Y-64608500D02*
X118464000Y-64608500D01*
X162293683Y-132555538D02*
X127421645Y-97683500D01*
X127421645Y-97683500D02*
X122373136Y-97683500D01*
X118464000Y-64608500D02*
X116689000Y-66383500D01*
%TO.N,Net-(D23-A)*%
X128689000Y-87633500D02*
X128689000Y-90613500D01*
X128689000Y-90613500D02*
X125269000Y-94033500D01*
%TO.N,Net-(D27-A)*%
X169810907Y-144237098D02*
X164992701Y-144658637D01*
X171726414Y-141954287D02*
X169810907Y-144237098D01*
%TO.N,Net-(D16-A)*%
X109639000Y-63821000D02*
X109639000Y-66801000D01*
X109639000Y-66801000D02*
X106219000Y-70221000D01*
%TO.N,GND*%
X150200000Y-64950000D02*
X150200000Y-62750000D01*
X150200000Y-62750000D02*
X150130765Y-62680765D01*
%TO.N,RX*%
X174200000Y-56950000D02*
X172696000Y-56950000D01*
X168150000Y-73450000D02*
X168200000Y-73500000D01*
X166700000Y-73450000D02*
X168150000Y-73450000D01*
X172696000Y-56950000D02*
X172646000Y-57000000D01*
%TO.N,TX*%
X161700000Y-40350000D02*
X160700000Y-41350000D01*
X161700000Y-40250000D02*
X161700000Y-40350000D01*
X158300000Y-48100000D02*
X159300000Y-48100000D01*
X159300000Y-48100000D02*
X159773303Y-48573303D01*
%TO.N,Net-(D10-A)*%
X109639000Y-47751000D02*
X106219000Y-51171000D01*
X109639000Y-44771000D02*
X109639000Y-47751000D01*
%TO.N,Net-(D17-A)*%
X128689000Y-71563500D02*
X125269000Y-74983500D01*
X128689000Y-68583500D02*
X128689000Y-71563500D01*
%TO.N,COL2*%
X134874000Y-45847000D02*
X132899686Y-45847000D01*
X166082000Y-49437000D02*
X140369000Y-49437000D01*
X73244000Y-48549000D02*
X60076471Y-48549000D01*
X140369000Y-49437000D02*
X136652000Y-45720000D01*
X111633000Y-39116000D02*
X98239000Y-39116000D01*
X132899686Y-45847000D02*
X130575683Y-43522997D01*
X166624000Y-48895000D02*
X166082000Y-49437000D01*
X60076471Y-48549000D02*
X59539000Y-49086471D01*
X91948000Y-44196000D02*
X79248000Y-44196000D01*
X59539000Y-52096000D02*
X59539000Y-71146000D01*
X59539000Y-71146000D02*
X59539000Y-90196000D01*
X59539000Y-33046000D02*
X59539000Y-52096000D01*
X115951000Y-43434000D02*
X111633000Y-39116000D01*
X77724000Y-44069000D02*
X73244000Y-48549000D01*
X130575683Y-43522997D02*
X117348000Y-43522997D01*
X97028000Y-39116000D02*
X91948000Y-44196000D01*
X59539000Y-49086471D02*
X59539000Y-52096000D01*
%TO.N,Net-(D14-A)*%
X71539000Y-76326000D02*
X68119000Y-79746000D01*
X71539000Y-73346000D02*
X71539000Y-76326000D01*
%TO.N,COL6*%
X135739000Y-58661864D02*
X142482136Y-65405000D01*
X135739000Y-52096000D02*
X135739000Y-71146000D01*
X146431000Y-60579000D02*
X148463000Y-58547000D01*
X143794744Y-65405000D02*
X146431000Y-62768744D01*
X150876000Y-58547000D02*
X158496000Y-50927000D01*
X146431000Y-62768744D02*
X146431000Y-60579000D01*
X148463000Y-58547000D02*
X150876000Y-58547000D01*
X135739000Y-71146000D02*
X135739000Y-90196000D01*
X142482136Y-65405000D02*
X143794744Y-65405000D01*
X135739000Y-52096000D02*
X135739000Y-58661864D01*
X135739000Y-33046000D02*
X135739000Y-52096000D01*
%TO.N,Net-(D6-A)*%
X147739000Y-35246000D02*
X147739000Y-38226000D01*
X147739000Y-38226000D02*
X144319000Y-41646000D01*
%TO.N,Net-(D2-A)*%
X71539000Y-35246000D02*
X71539000Y-38226000D01*
X71539000Y-38226000D02*
X68119000Y-41646000D01*
%TO.N,COL1*%
X40489000Y-52096000D02*
X40489000Y-71146000D01*
X40489000Y-71146000D02*
X40489000Y-90196000D01*
X106976350Y-48260000D02*
X107188000Y-48260000D01*
X43309000Y-49276000D02*
X58547000Y-49276000D01*
X76962000Y-49149000D02*
X77978000Y-50165000D01*
X86478150Y-45696000D02*
X104412350Y-45696000D01*
X170146000Y-49877000D02*
X171196000Y-50927000D01*
X60325000Y-49149000D02*
X76962000Y-49149000D01*
X40489000Y-33046000D02*
X40489000Y-52096000D01*
X40489000Y-52096000D02*
X43309000Y-49276000D01*
X114427000Y-44323000D02*
X115697000Y-44323000D01*
X138142000Y-49877000D02*
X170146000Y-49877000D01*
X136906000Y-48641000D02*
X138142000Y-49877000D01*
X110490000Y-48260000D02*
X114427000Y-44323000D01*
X104412350Y-45696000D02*
X106976350Y-48260000D01*
X79248000Y-50165000D02*
X82009150Y-50165000D01*
X130810000Y-44323000D02*
X135128000Y-48641000D01*
X117348000Y-44323000D02*
X130810000Y-44323000D01*
X82009150Y-50165000D02*
X86478150Y-45696000D01*
%TO.N,Net-(D13-A)*%
X52489000Y-73346000D02*
X52489000Y-76326000D01*
X52489000Y-76326000D02*
X49069000Y-79746000D01*
%TO.N,Net-(D5-A)*%
X128689000Y-30483500D02*
X128689000Y-33463500D01*
X128689000Y-33463500D02*
X125269000Y-36883500D01*
%TO.N,Net-(D8-A)*%
X71539000Y-54296000D02*
X71539000Y-57276000D01*
X71539000Y-57276000D02*
X68119000Y-60696000D01*
%TO.N,Net-(D7-A)*%
X52489000Y-57276000D02*
X49069000Y-60696000D01*
X52489000Y-54296000D02*
X52489000Y-57276000D01*
%TO.N,Net-(D1-A)*%
X52489000Y-38226000D02*
X49069000Y-41646000D01*
X52489000Y-35246000D02*
X52489000Y-38226000D01*
%TO.N,Net-(D20-A)*%
X71539000Y-92396000D02*
X71539000Y-95376000D01*
X71539000Y-95376000D02*
X68119000Y-98796000D01*
%TO.N,Net-(D4-A)*%
X109639000Y-25721000D02*
X109639000Y-28701000D01*
X109639000Y-28701000D02*
X106219000Y-32121000D01*
%TO.N,Net-(D11-A)*%
X128689000Y-49533500D02*
X128689000Y-52513500D01*
X128689000Y-52513500D02*
X125269000Y-55933500D01*
%TO.N,Net-(D26-A)*%
X152943360Y-127473957D02*
X151453360Y-130054711D01*
X151453360Y-130054711D02*
X146781553Y-131306519D01*
%TO.N,COL3*%
X149479000Y-77597000D02*
X149479000Y-82707650D01*
X78589000Y-47333500D02*
X78589000Y-66383500D01*
X78589000Y-66383500D02*
X78589000Y-85433500D01*
X152019000Y-63754000D02*
X152019000Y-75057000D01*
X134042110Y-93287890D02*
X130556000Y-96774000D01*
X120781926Y-110058532D02*
X108894394Y-98171000D01*
X152019000Y-75057000D02*
X149479000Y-77597000D01*
X78589000Y-89003000D02*
X78589000Y-85433500D01*
X108894394Y-98171000D02*
X100330000Y-98171000D01*
X122428000Y-103378000D02*
X122428000Y-108412458D01*
X78613000Y-89027000D02*
X78589000Y-89003000D01*
X153289000Y-63754000D02*
X152019000Y-63754000D01*
X78589000Y-28283500D02*
X78589000Y-47333500D01*
X149479000Y-82707650D02*
X138898760Y-93287890D01*
X166116000Y-50927000D02*
X153289000Y-63754000D01*
X122428000Y-108412458D02*
X120781926Y-110058532D01*
X138898760Y-93287890D02*
X134042110Y-93287890D01*
%TO.N,Net-(D15-A)*%
X90589000Y-68583500D02*
X90589000Y-71563500D01*
X90589000Y-71563500D02*
X87169000Y-74983500D01*
%TO.N,Net-(D21-A)*%
X90589000Y-87633500D02*
X90589000Y-90613500D01*
X90589000Y-90613500D02*
X87169000Y-94033500D01*
%TO.N,Net-(D9-A)*%
X90589000Y-49533500D02*
X90589000Y-52513500D01*
X90589000Y-52513500D02*
X87169000Y-55933500D01*
%TO.N,Net-(D24-A)*%
X147739000Y-92396000D02*
X147739000Y-95376000D01*
X147739000Y-95376000D02*
X144319000Y-98796000D01*
%TO.N,Net-(D12-A)*%
X147739000Y-57276000D02*
X144319000Y-60696000D01*
X147739000Y-54296000D02*
X147739000Y-57276000D01*
%TO.N,Net-(D25-A)*%
X131803634Y-115289398D02*
X131032352Y-118167857D01*
X131032352Y-118167857D02*
X126843726Y-120586162D01*
%TO.N,Net-(D19-A)*%
X52489000Y-92396000D02*
X52489000Y-95376000D01*
X52489000Y-95376000D02*
X49069000Y-98796000D01*
%TO.N,ROW0*%
X99699000Y-34921000D02*
X106219000Y-34921000D01*
X58805000Y-43046000D02*
X58939000Y-43180000D01*
X80526500Y-39683500D02*
X87169000Y-39683500D01*
X79189000Y-41021000D02*
X80526500Y-39683500D01*
X125269000Y-39683500D02*
X132520500Y-39683500D01*
X87169000Y-39683500D02*
X93931500Y-39683500D01*
X118804500Y-39683500D02*
X125269000Y-39683500D01*
X138240000Y-44446000D02*
X144319000Y-44446000D01*
X132520500Y-39683500D02*
X135001000Y-42164000D01*
X50469000Y-43046000D02*
X58805000Y-43046000D01*
X75072000Y-44446000D02*
X77989000Y-41529000D01*
X136339000Y-42545000D02*
X138240000Y-44446000D01*
X49069000Y-44446000D02*
X50469000Y-43046000D01*
X163288000Y-44357000D02*
X144408000Y-44357000D01*
X68119000Y-44446000D02*
X75072000Y-44446000D01*
X93931500Y-39683500D02*
X97039000Y-36576000D01*
X171196000Y-36449000D02*
X163288000Y-44357000D01*
X60325000Y-43561000D02*
X61210000Y-44446000D01*
X171196000Y-35687000D02*
X171196000Y-36449000D01*
X144408000Y-44357000D02*
X144319000Y-44446000D01*
X112899000Y-34921000D02*
X115951000Y-37973000D01*
X106219000Y-34921000D02*
X112899000Y-34921000D01*
X117348000Y-38227000D02*
X118804500Y-39683500D01*
X61210000Y-44446000D02*
X68119000Y-44446000D01*
X98425000Y-36195000D02*
X99699000Y-34921000D01*
%TO.N,ROW1*%
X106219000Y-53971000D02*
X113164000Y-53971000D01*
X58921000Y-64396000D02*
X58928000Y-64389000D01*
X142313446Y-61490446D02*
X144319000Y-63496000D01*
X142313446Y-58037605D02*
X142313446Y-61490446D01*
X141728000Y-63496000D02*
X144319000Y-63496000D01*
X139319000Y-61214000D02*
X139446000Y-61214000D01*
X61218000Y-63496000D02*
X68119000Y-63496000D01*
X68119000Y-63496000D02*
X77612000Y-63496000D01*
X77612000Y-63496000D02*
X77989000Y-63119000D01*
X171196000Y-38227000D02*
X164626000Y-44797000D01*
X87169000Y-58733500D02*
X101456500Y-58733500D01*
X117475000Y-57150000D02*
X119058500Y-58733500D01*
X49069000Y-63496000D02*
X49969000Y-64396000D01*
X101456500Y-58733500D02*
X106219000Y-53971000D01*
X60198000Y-64516000D02*
X61218000Y-63496000D01*
X145352744Y-44797000D02*
X142143744Y-48006000D01*
X119058500Y-58733500D02*
X125269000Y-58733500D01*
X129734500Y-58733500D02*
X129794000Y-58674000D01*
X131318000Y-58674000D02*
X132334000Y-59690000D01*
X139446000Y-61214000D02*
X141728000Y-63496000D01*
X142143744Y-48006000D02*
X139827000Y-48006000D01*
X135012000Y-59690000D02*
X135139000Y-59563000D01*
X79189000Y-63119000D02*
X83574500Y-58733500D01*
X113164000Y-53971000D02*
X116089000Y-56896000D01*
X132334000Y-59690000D02*
X135012000Y-59690000D01*
X49969000Y-64396000D02*
X58921000Y-64396000D01*
X83574500Y-58733500D02*
X87169000Y-58733500D01*
X164626000Y-44797000D02*
X145352744Y-44797000D01*
X125269000Y-58733500D02*
X129734500Y-58733500D01*
%TO.N,ROW2*%
X80585500Y-77783500D02*
X87169000Y-77783500D01*
X131029000Y-79375000D02*
X132680000Y-81026000D01*
X118745500Y-77783500D02*
X117289000Y-76327000D01*
X79248000Y-79121000D02*
X80585500Y-77783500D01*
X60579000Y-83693000D02*
X61726000Y-82546000D01*
X116078000Y-75946000D02*
X113153000Y-73021000D01*
X150148000Y-46897000D02*
X149987000Y-46736000D01*
X125269000Y-77783500D02*
X128329500Y-77783500D01*
X71290000Y-79375000D02*
X77989000Y-79375000D01*
X165066000Y-46897000D02*
X150148000Y-46897000D01*
X125269000Y-77783500D02*
X118745500Y-77783500D01*
X87169000Y-77783500D02*
X101456500Y-77783500D01*
X61726000Y-82546000D02*
X68119000Y-82546000D01*
X49069000Y-82546000D02*
X50216000Y-83693000D01*
X113153000Y-73021000D02*
X106219000Y-73021000D01*
X148844000Y-50673000D02*
X149314000Y-51143000D01*
X148971000Y-59309000D02*
X148971000Y-61595000D01*
X142364000Y-70447530D02*
X142364000Y-80642000D01*
X136339000Y-81153000D02*
X142875000Y-81153000D01*
X147363265Y-65448265D02*
X142364000Y-70447530D01*
X149314000Y-51143000D02*
X149314000Y-57696000D01*
X132680000Y-81026000D02*
X135139000Y-81026000D01*
X50216000Y-83693000D02*
X58939000Y-83693000D01*
X68119000Y-82546000D02*
X71290000Y-79375000D01*
X101456500Y-77783500D02*
X106219000Y-73021000D01*
X60198000Y-83693000D02*
X60579000Y-83693000D01*
X142364000Y-80642000D02*
X142875000Y-81153000D01*
X148971000Y-61595000D02*
X146939000Y-63627000D01*
X128329500Y-77783500D02*
X129794000Y-79248000D01*
X171196000Y-40767000D02*
X165066000Y-46897000D01*
X142875000Y-83947000D02*
X144276000Y-82546000D01*
X144276000Y-82546000D02*
X144319000Y-82546000D01*
X149314000Y-57696000D02*
X149225000Y-57785000D01*
%TO.N,ROW3*%
X149894000Y-47337000D02*
X148463000Y-48768000D01*
X130264000Y-86195000D02*
X130264000Y-91838500D01*
X87169000Y-96833500D02*
X101456500Y-96833500D01*
X145034000Y-51308000D02*
X142778650Y-51308000D01*
X167166000Y-47337000D02*
X149894000Y-47337000D01*
X130429000Y-83820000D02*
X130048000Y-84201000D01*
X49969000Y-102496000D02*
X67219000Y-102496000D01*
X144319000Y-101596000D02*
X140573136Y-101596000D01*
X68119000Y-101596000D02*
X82406500Y-101596000D01*
X101456500Y-96833500D02*
X106219000Y-92071000D01*
X133731000Y-94753864D02*
X133731000Y-94488000D01*
X139730650Y-54356000D02*
X136339000Y-54356000D01*
X130264000Y-91838500D02*
X125269000Y-96833500D01*
X171196000Y-43307000D02*
X167166000Y-47337000D01*
X129921000Y-85852000D02*
X130264000Y-86195000D01*
X82406500Y-101596000D02*
X87169000Y-96833500D01*
X130556000Y-54356000D02*
X130556000Y-63627000D01*
X49069000Y-101596000D02*
X49969000Y-102496000D01*
X108298265Y-94150265D02*
X114129735Y-94150265D01*
X130429000Y-65405000D02*
X130429000Y-83820000D01*
X142778650Y-51308000D02*
X139730650Y-54356000D01*
X122868500Y-96833500D02*
X125269000Y-96833500D01*
X130556000Y-63627000D02*
X130429000Y-63754000D01*
X106219000Y-92071000D02*
X108298265Y-94150265D01*
X120777000Y-94742000D02*
X122868500Y-96833500D01*
X135128000Y-54356000D02*
X130556000Y-54356000D01*
X127956500Y-96833500D02*
X125269000Y-96833500D01*
X131064000Y-93726000D02*
X127956500Y-96833500D01*
X140573136Y-101596000D02*
X133731000Y-94753864D01*
X67219000Y-102496000D02*
X68119000Y-101596000D01*
%TO.N,ROW4*%
X158453723Y-146803561D02*
X163192895Y-146803561D01*
X125576754Y-123290754D02*
X126119032Y-123290754D01*
X145381553Y-133731391D02*
X158453723Y-146803561D01*
X134940916Y-123290754D02*
X145381553Y-133731391D01*
X126119032Y-123290754D02*
X134940916Y-123290754D01*
X122936000Y-120650000D02*
X125576754Y-123290754D01*
%TO.N,Net-(D3-A)*%
X90589000Y-33463500D02*
X87169000Y-36883500D01*
X90589000Y-30483500D02*
X90589000Y-33463500D01*
%TO.N,Net-(D18-A)*%
X147739000Y-76326000D02*
X144319000Y-79746000D01*
X147739000Y-73346000D02*
X147739000Y-76326000D01*
%TD*%
M02*
