%TF.GenerationSoftware,KiCad,Pcbnew,10.0.1*%
%TF.CreationDate,2026-06-27T21:41:19+12:00*%
%TF.ProjectId,keyboard,6b657962-6f61-4726-942e-6b696361645f,rev?*%
%TF.SameCoordinates,Original*%
%TF.FileFunction,Profile,NP*%
%FSLAX46Y46*%
G04 Gerber Fmt 4.6, Leading zero omitted, Abs format (unit mm)*
G04 Created by KiCad (PCBNEW 10.0.1) date 2026-06-27 21:41:19*
%MOMM*%
%LPD*%
G01*
G04 APERTURE LIST*
%TA.AperFunction,Profile*%
%ADD10C,0.944881*%
%TD*%
G04 APERTURE END LIST*
D10*
X111633000Y-18542000D02*
X111683784Y-18545862D01*
X111733830Y-18552221D01*
X111783075Y-18561015D01*
X111831455Y-18572182D01*
X111878909Y-18585657D01*
X111925373Y-18601379D01*
X111970785Y-18619284D01*
X112015081Y-18639310D01*
X112058199Y-18661394D01*
X112100076Y-18685472D01*
X112140649Y-18711483D01*
X112179856Y-18739364D01*
X112217633Y-18769050D01*
X112253917Y-18800481D01*
X112288647Y-18833592D01*
X112321758Y-18868322D01*
X112353188Y-18904606D01*
X112382875Y-18942383D01*
X112410755Y-18981590D01*
X112436766Y-19022163D01*
X112460845Y-19064040D01*
X112482929Y-19107158D01*
X112502955Y-19151454D01*
X112520860Y-19196865D01*
X112536582Y-19243330D01*
X112550057Y-19290783D01*
X112561223Y-19339164D01*
X112570018Y-19388409D01*
X112576377Y-19438455D01*
X112580239Y-19489239D01*
X112581540Y-19540699D01*
X112581540Y-22303699D01*
X112582841Y-22355159D01*
X112586703Y-22405943D01*
X112593062Y-22455989D01*
X112601856Y-22505234D01*
X112613023Y-22553615D01*
X112626498Y-22601068D01*
X112642220Y-22647533D01*
X112660125Y-22692944D01*
X112680151Y-22737240D01*
X112702235Y-22780358D01*
X112726313Y-22822235D01*
X112752324Y-22862809D01*
X112780205Y-22902015D01*
X112809891Y-22939792D01*
X112841322Y-22976076D01*
X112874433Y-23010806D01*
X112909163Y-23043917D01*
X112945447Y-23075348D01*
X112983224Y-23105034D01*
X113022431Y-23132915D01*
X113063004Y-23158926D01*
X113104881Y-23183004D01*
X113147999Y-23205088D01*
X113192295Y-23225114D01*
X113237707Y-23243019D01*
X113284171Y-23258741D01*
X113331625Y-23272216D01*
X113380005Y-23283383D01*
X113429250Y-23292177D01*
X113479296Y-23298536D01*
X113530080Y-23302398D01*
X113581540Y-23303699D01*
X130631543Y-23303699D01*
X130683003Y-23305000D01*
X130733787Y-23308862D01*
X130783833Y-23315221D01*
X130833078Y-23324016D01*
X130881458Y-23335182D01*
X130928912Y-23348657D01*
X130975376Y-23364379D01*
X131020788Y-23382284D01*
X131065084Y-23402310D01*
X131108202Y-23424394D01*
X131150079Y-23448472D01*
X131190652Y-23474483D01*
X131229859Y-23502364D01*
X131267636Y-23532050D01*
X131303920Y-23563481D01*
X131338650Y-23596592D01*
X131371761Y-23631322D01*
X131403191Y-23667606D01*
X131432878Y-23705383D01*
X131460759Y-23744590D01*
X131486770Y-23785163D01*
X131510848Y-23827040D01*
X131532932Y-23870158D01*
X131552958Y-23914454D01*
X131570863Y-23959865D01*
X131586585Y-24006330D01*
X131600060Y-24053783D01*
X131611227Y-24102164D01*
X131620021Y-24151409D01*
X131626380Y-24201455D01*
X131630242Y-24252239D01*
X131631543Y-24303699D01*
X131631543Y-27065700D01*
X131632844Y-27117160D01*
X131636706Y-27167945D01*
X131643065Y-27217991D01*
X131651859Y-27267235D01*
X131663026Y-27315616D01*
X131676501Y-27363070D01*
X131692223Y-27409534D01*
X131710128Y-27454945D01*
X131730154Y-27499242D01*
X131752238Y-27542360D01*
X131776316Y-27584237D01*
X131802327Y-27624810D01*
X131830208Y-27664016D01*
X131859895Y-27701793D01*
X131891325Y-27738078D01*
X131924436Y-27772807D01*
X131959166Y-27805918D01*
X131995450Y-27837349D01*
X132033227Y-27867036D01*
X132072434Y-27894916D01*
X132113007Y-27920927D01*
X132154884Y-27945006D01*
X132198002Y-27967090D01*
X132242298Y-27987115D01*
X132287710Y-28005021D01*
X132334174Y-28020742D01*
X132381628Y-28034218D01*
X132430008Y-28045384D01*
X132479253Y-28054178D01*
X132529299Y-28060538D01*
X132580083Y-28064399D01*
X132631543Y-28065700D01*
X149681546Y-28065700D01*
X175428830Y-28065700D01*
X175428830Y-78540699D01*
X150681073Y-78540699D01*
X150681546Y-85215717D01*
X150681546Y-90165714D01*
X150681546Y-108215710D01*
X150680245Y-108267169D01*
X150676383Y-108317954D01*
X150670024Y-108368000D01*
X150661229Y-108417244D01*
X150650063Y-108465625D01*
X150636587Y-108513079D01*
X150620865Y-108559543D01*
X150602960Y-108604955D01*
X150582934Y-108649251D01*
X150560850Y-108692369D01*
X150536771Y-108734246D01*
X150510760Y-108774819D01*
X150482879Y-108814025D01*
X150453192Y-108851802D01*
X150421761Y-108888087D01*
X150388650Y-108922816D01*
X150353920Y-108955928D01*
X150317636Y-108987358D01*
X150279859Y-109017045D01*
X150240652Y-109044925D01*
X150200079Y-109070936D01*
X150158202Y-109095015D01*
X150115084Y-109117099D01*
X150070788Y-109137125D01*
X150025376Y-109155030D01*
X149978912Y-109170752D01*
X149931459Y-109184227D01*
X149883079Y-109195393D01*
X149833834Y-109204187D01*
X149783789Y-109210547D01*
X149733005Y-109214409D01*
X149681546Y-109215710D01*
X148652539Y-109215710D01*
X148558580Y-109219615D01*
X148468597Y-109231053D01*
X148382698Y-109249622D01*
X148300990Y-109274920D01*
X148223581Y-109306544D01*
X148150579Y-109344092D01*
X148082092Y-109387162D01*
X148018228Y-109435351D01*
X147959094Y-109488257D01*
X147904798Y-109545478D01*
X147855449Y-109606612D01*
X147811152Y-109671255D01*
X147772018Y-109739007D01*
X147738153Y-109809464D01*
X147709665Y-109882224D01*
X147686663Y-109956885D01*
X147669252Y-110033045D01*
X147657543Y-110110301D01*
X147651642Y-110188251D01*
X147651657Y-110266493D01*
X147657696Y-110344624D01*
X147669867Y-110422243D01*
X147688278Y-110498946D01*
X147713035Y-110574331D01*
X147744248Y-110647997D01*
X147782024Y-110719540D01*
X147826471Y-110788559D01*
X147877696Y-110854652D01*
X147935808Y-110917415D01*
X148000914Y-110976447D01*
X148073122Y-111031345D01*
X148152539Y-111081707D01*
X161032544Y-118517704D01*
X161076457Y-118544561D01*
X161118505Y-118573298D01*
X161158664Y-118603828D01*
X161196912Y-118636066D01*
X161233226Y-118669927D01*
X161267582Y-118705323D01*
X161299959Y-118742170D01*
X161330332Y-118780382D01*
X161358678Y-118819873D01*
X161384976Y-118860556D01*
X161409201Y-118902347D01*
X161431332Y-118945158D01*
X161451344Y-118988906D01*
X161469214Y-119033503D01*
X161484921Y-119078864D01*
X161498441Y-119124903D01*
X161509750Y-119171534D01*
X161518826Y-119218671D01*
X161525646Y-119266229D01*
X161530187Y-119314122D01*
X161532426Y-119362263D01*
X161532340Y-119410568D01*
X161529906Y-119458950D01*
X161525101Y-119507323D01*
X161517901Y-119555602D01*
X161508285Y-119603701D01*
X161496228Y-119651533D01*
X161481709Y-119699014D01*
X161464704Y-119746057D01*
X161445189Y-119792576D01*
X161423143Y-119838487D01*
X161398541Y-119883701D01*
X163154538Y-120632702D01*
X163188622Y-120594115D01*
X163224233Y-120557693D01*
X163261283Y-120523443D01*
X163299684Y-120491372D01*
X163339346Y-120461488D01*
X163380181Y-120433800D01*
X163422100Y-120408314D01*
X163465015Y-120385039D01*
X163508838Y-120363982D01*
X163553480Y-120345152D01*
X163598852Y-120328554D01*
X163644866Y-120314199D01*
X163691433Y-120302092D01*
X163738465Y-120292243D01*
X163785872Y-120284658D01*
X163833567Y-120279345D01*
X163881462Y-120276313D01*
X163929466Y-120275569D01*
X163977493Y-120277120D01*
X164025453Y-120280974D01*
X164073257Y-120287140D01*
X164120818Y-120295624D01*
X164168046Y-120306435D01*
X164214854Y-120319580D01*
X164261152Y-120335067D01*
X164306852Y-120352903D01*
X164351865Y-120373098D01*
X164396104Y-120395657D01*
X164439478Y-120420589D01*
X164481901Y-120447902D01*
X164523282Y-120477603D01*
X164563535Y-120509701D01*
X181416547Y-134650700D01*
X181455132Y-134684782D01*
X181491554Y-134720392D01*
X181525804Y-134757441D01*
X181557874Y-134795841D01*
X181587757Y-134835502D01*
X181615445Y-134876336D01*
X181640929Y-134918255D01*
X181664204Y-134961170D01*
X181685260Y-135004992D01*
X181704090Y-135049633D01*
X181720687Y-135095005D01*
X181735042Y-135141019D01*
X181747148Y-135187586D01*
X181756998Y-135234617D01*
X181764582Y-135282025D01*
X181769894Y-135329720D01*
X181772927Y-135377615D01*
X181773671Y-135425620D01*
X181772120Y-135473647D01*
X181768266Y-135521607D01*
X181762100Y-135569412D01*
X181753616Y-135616973D01*
X181742806Y-135664202D01*
X181729661Y-135711010D01*
X181714175Y-135757309D01*
X181696339Y-135803009D01*
X181676145Y-135848024D01*
X181653587Y-135892262D01*
X181628656Y-135935638D01*
X181601344Y-135978061D01*
X181571644Y-136019443D01*
X181539548Y-136059696D01*
X161275540Y-160209705D01*
X161241458Y-160248291D01*
X161205848Y-160284713D01*
X161168799Y-160318963D01*
X161130400Y-160351033D01*
X161090739Y-160380916D01*
X161049905Y-160408604D01*
X161007986Y-160434090D01*
X160965071Y-160457365D01*
X160921249Y-160478422D01*
X160876608Y-160497252D01*
X160831236Y-160513849D01*
X160785223Y-160528205D01*
X160738656Y-160540312D01*
X160691625Y-160550161D01*
X160644217Y-160557746D01*
X160596522Y-160563059D01*
X160548628Y-160566091D01*
X160500623Y-160566836D01*
X160452596Y-160565285D01*
X160404636Y-160561431D01*
X160356831Y-160555266D01*
X160309270Y-160546782D01*
X160262041Y-160535971D01*
X160215233Y-160522826D01*
X160168934Y-160507340D01*
X160123233Y-160489503D01*
X160078219Y-160469309D01*
X160033980Y-160446750D01*
X159990604Y-160421818D01*
X159948180Y-160394505D01*
X159906797Y-160364804D01*
X159866544Y-160332706D01*
X145166539Y-147997700D01*
X145135541Y-148051701D01*
X125217542Y-136551701D01*
X125173629Y-136524844D01*
X125131581Y-136496107D01*
X125091421Y-136465577D01*
X125053173Y-136433338D01*
X125016859Y-136399478D01*
X124982502Y-136364081D01*
X124950125Y-136327234D01*
X124919752Y-136289022D01*
X124891404Y-136249532D01*
X124865106Y-136208849D01*
X124840880Y-136167058D01*
X124818750Y-136124246D01*
X124798737Y-136080499D01*
X124780866Y-136035902D01*
X124765158Y-135990541D01*
X124751638Y-135944502D01*
X124740328Y-135897871D01*
X124731252Y-135850733D01*
X124724431Y-135803175D01*
X124719890Y-135755283D01*
X124717650Y-135707141D01*
X124717736Y-135658836D01*
X124720170Y-135610455D01*
X124724975Y-135562081D01*
X124732175Y-135513802D01*
X124741791Y-135465704D01*
X124753847Y-135417871D01*
X124768367Y-135370391D01*
X124785373Y-135323348D01*
X124804888Y-135276828D01*
X124826935Y-135230918D01*
X124851537Y-135185703D01*
X126315533Y-132648701D01*
X126344527Y-132594882D01*
X126369885Y-132540274D01*
X126391663Y-132485007D01*
X126409914Y-132429213D01*
X126424692Y-132373021D01*
X126436051Y-132316563D01*
X126444046Y-132259968D01*
X126448730Y-132203368D01*
X126450157Y-132146892D01*
X126448383Y-132090672D01*
X126443459Y-132034838D01*
X126435442Y-131979521D01*
X126424384Y-131924850D01*
X126410340Y-131870958D01*
X126393364Y-131817973D01*
X126373509Y-131766027D01*
X126350831Y-131715251D01*
X126325383Y-131665774D01*
X126297219Y-131617728D01*
X126266393Y-131571243D01*
X126232959Y-131526449D01*
X126196972Y-131483478D01*
X126158485Y-131442458D01*
X126117552Y-131403523D01*
X126074228Y-131366801D01*
X126028567Y-131332423D01*
X125980622Y-131300520D01*
X125930447Y-131271222D01*
X125878098Y-131244661D01*
X125823627Y-131220966D01*
X125767090Y-131200268D01*
X125708539Y-131182697D01*
X108321538Y-126523701D01*
X108272160Y-126509120D01*
X108224099Y-126492241D01*
X108177397Y-126473139D01*
X108132101Y-126451893D01*
X108088253Y-126428579D01*
X108045900Y-126403273D01*
X108005084Y-126376054D01*
X107965851Y-126346998D01*
X107928244Y-126316181D01*
X107892310Y-126283682D01*
X107858091Y-126249576D01*
X107825632Y-126213941D01*
X107794978Y-126176854D01*
X107766173Y-126138393D01*
X107739261Y-126098633D01*
X107714288Y-126057651D01*
X107691296Y-126015526D01*
X107670332Y-125972334D01*
X107651439Y-125928151D01*
X107634662Y-125883056D01*
X107620045Y-125837124D01*
X107607633Y-125790432D01*
X107597469Y-125743059D01*
X107589599Y-125695081D01*
X107584068Y-125646574D01*
X107580918Y-125597616D01*
X107580195Y-125548283D01*
X107581943Y-125498654D01*
X107586207Y-125448804D01*
X107593031Y-125398811D01*
X107602460Y-125348751D01*
X107614537Y-125298702D01*
X112862538Y-105711704D01*
X112876548Y-105652238D01*
X112886847Y-105592954D01*
X112893521Y-105533962D01*
X112896657Y-105475375D01*
X112896340Y-105417306D01*
X112892655Y-105359865D01*
X112885690Y-105303165D01*
X112875529Y-105247317D01*
X112862260Y-105192434D01*
X112845966Y-105138628D01*
X112826736Y-105086010D01*
X112804654Y-105034692D01*
X112779807Y-104984786D01*
X112752280Y-104936404D01*
X112722160Y-104889658D01*
X112689531Y-104844660D01*
X112654481Y-104801521D01*
X112617095Y-104760355D01*
X112577459Y-104721271D01*
X112535659Y-104684383D01*
X112491780Y-104649803D01*
X112445910Y-104617641D01*
X112398133Y-104588011D01*
X112348536Y-104561024D01*
X112297204Y-104536791D01*
X112244224Y-104515426D01*
X112189681Y-104497039D01*
X112133662Y-104481742D01*
X112076251Y-104469649D01*
X112017536Y-104460869D01*
X111957602Y-104455516D01*
X111896535Y-104453701D01*
X108631535Y-104453701D01*
X108580076Y-104452400D01*
X108529291Y-104448538D01*
X108479245Y-104442179D01*
X108430001Y-104433385D01*
X108381620Y-104422218D01*
X108334166Y-104408743D01*
X108287702Y-104393021D01*
X108242291Y-104375116D01*
X108197994Y-104355090D01*
X108154876Y-104333006D01*
X108112999Y-104308928D01*
X108072426Y-104282917D01*
X108033220Y-104255036D01*
X107995443Y-104225349D01*
X107959158Y-104193919D01*
X107924429Y-104160808D01*
X107891317Y-104126078D01*
X107859887Y-104089794D01*
X107830200Y-104052017D01*
X107802320Y-104012810D01*
X107776309Y-103972237D01*
X107752230Y-103930360D01*
X107730146Y-103887242D01*
X107710120Y-103842946D01*
X107692215Y-103797534D01*
X107676493Y-103751070D01*
X107663018Y-103703616D01*
X107651852Y-103655236D01*
X107643058Y-103605991D01*
X107636698Y-103555945D01*
X107632837Y-103505161D01*
X107631535Y-103453701D01*
X107631535Y-100690701D01*
X107630234Y-100639241D01*
X107626372Y-100588456D01*
X107620013Y-100538410D01*
X107611219Y-100489166D01*
X107600053Y-100440785D01*
X107586577Y-100393331D01*
X107570856Y-100346867D01*
X107552950Y-100301456D01*
X107532924Y-100257159D01*
X107510841Y-100214041D01*
X107486762Y-100172164D01*
X107460751Y-100131591D01*
X107432871Y-100092385D01*
X107403184Y-100054608D01*
X107371753Y-100018323D01*
X107338642Y-99983594D01*
X107303913Y-99950483D01*
X107267628Y-99919052D01*
X107229851Y-99889365D01*
X107190645Y-99861485D01*
X107150072Y-99835474D01*
X107108194Y-99811395D01*
X107065077Y-99789312D01*
X107020780Y-99769285D01*
X106975369Y-99751380D01*
X106928905Y-99735659D01*
X106881451Y-99722183D01*
X106833070Y-99711017D01*
X106783825Y-99702223D01*
X106733779Y-99695863D01*
X106682995Y-99692002D01*
X106631535Y-99690700D01*
X94531537Y-99690700D01*
X94480077Y-99692002D01*
X94429293Y-99695863D01*
X94379247Y-99702223D01*
X94330002Y-99711017D01*
X94281621Y-99722183D01*
X94234168Y-99735659D01*
X94187704Y-99751380D01*
X94142292Y-99769285D01*
X94097996Y-99789312D01*
X94054878Y-99811395D01*
X94013001Y-99835474D01*
X93972428Y-99861485D01*
X93933221Y-99889365D01*
X93895444Y-99919052D01*
X93859160Y-99950483D01*
X93824430Y-99983594D01*
X93791319Y-100018323D01*
X93759889Y-100054608D01*
X93730202Y-100092385D01*
X93702321Y-100131591D01*
X93676310Y-100172164D01*
X93652232Y-100214041D01*
X93630148Y-100257159D01*
X93610122Y-100301456D01*
X93592217Y-100346867D01*
X93576495Y-100393331D01*
X93563020Y-100440785D01*
X93551853Y-100489166D01*
X93543059Y-100538410D01*
X93536700Y-100588456D01*
X93532838Y-100639241D01*
X93531537Y-100690701D01*
X93531537Y-103453701D01*
X93530236Y-103505161D01*
X93526374Y-103555945D01*
X93520015Y-103605991D01*
X93511221Y-103655236D01*
X93500054Y-103703616D01*
X93486579Y-103751070D01*
X93470857Y-103797534D01*
X93452952Y-103842946D01*
X93432926Y-103887242D01*
X93410842Y-103930360D01*
X93386763Y-103972237D01*
X93360753Y-104012810D01*
X93332872Y-104052017D01*
X93303185Y-104089794D01*
X93271755Y-104126078D01*
X93238643Y-104160808D01*
X93203914Y-104193919D01*
X93167630Y-104225349D01*
X93129853Y-104255036D01*
X93090646Y-104282917D01*
X93050073Y-104308928D01*
X93008196Y-104333006D01*
X92965078Y-104355090D01*
X92920782Y-104375116D01*
X92875370Y-104393021D01*
X92828906Y-104408743D01*
X92781452Y-104422218D01*
X92733072Y-104433385D01*
X92683827Y-104442179D01*
X92633781Y-104448538D01*
X92582997Y-104452400D01*
X92531537Y-104453701D01*
X75481534Y-104453701D01*
X75430075Y-104455002D01*
X75379291Y-104458864D01*
X75329246Y-104465223D01*
X75280001Y-104474017D01*
X75231621Y-104485184D01*
X75184168Y-104498659D01*
X75137704Y-104514381D01*
X75092292Y-104532286D01*
X75047996Y-104552312D01*
X75004878Y-104574396D01*
X74963001Y-104598475D01*
X74922428Y-104624485D01*
X74883221Y-104652366D01*
X74845444Y-104682053D01*
X74809160Y-104713483D01*
X74774430Y-104746594D01*
X74741319Y-104781324D01*
X74709888Y-104817608D01*
X74680201Y-104855385D01*
X74652320Y-104894592D01*
X74626309Y-104935165D01*
X74602230Y-104977042D01*
X74580146Y-105020160D01*
X74560120Y-105064456D01*
X74542215Y-105109868D01*
X74526493Y-105156332D01*
X74513017Y-105203786D01*
X74501851Y-105252166D01*
X74493056Y-105301411D01*
X74486697Y-105351457D01*
X74482835Y-105402241D01*
X74481534Y-105453701D01*
X74481534Y-108215702D01*
X74480233Y-108267162D01*
X74476371Y-108317946D01*
X74470011Y-108367992D01*
X74461217Y-108417237D01*
X74450051Y-108465617D01*
X74436575Y-108513071D01*
X74420853Y-108559535D01*
X74402948Y-108604947D01*
X74382922Y-108649243D01*
X74360838Y-108692361D01*
X74336759Y-108734238D01*
X74310747Y-108774811D01*
X74282867Y-108814018D01*
X74253180Y-108851795D01*
X74221749Y-108888079D01*
X74188638Y-108922809D01*
X74153908Y-108955920D01*
X74117623Y-108987351D01*
X74079846Y-109017037D01*
X74040640Y-109044918D01*
X74000067Y-109070929D01*
X73958190Y-109095007D01*
X73915072Y-109117091D01*
X73870776Y-109137117D01*
X73825364Y-109155022D01*
X73778900Y-109170744D01*
X73731447Y-109184219D01*
X73683066Y-109195386D01*
X73633822Y-109204180D01*
X73583777Y-109210539D01*
X73532993Y-109214401D01*
X73481534Y-109215702D01*
X55431531Y-109215702D01*
X50481534Y-109215702D01*
X32431531Y-109215702D01*
X32380072Y-109214401D01*
X32329288Y-109210539D01*
X32279242Y-109204180D01*
X32229998Y-109195386D01*
X32181618Y-109184219D01*
X32134164Y-109170744D01*
X32087701Y-109155022D01*
X32042289Y-109137117D01*
X31997993Y-109117091D01*
X31954875Y-109095007D01*
X31912998Y-109070929D01*
X31872425Y-109044918D01*
X31833218Y-109017037D01*
X31795441Y-108987351D01*
X31759157Y-108955920D01*
X31724427Y-108922809D01*
X31691316Y-108888079D01*
X31659885Y-108851795D01*
X31630198Y-108814018D01*
X31602317Y-108774811D01*
X31576306Y-108734238D01*
X31552227Y-108692361D01*
X31530143Y-108649243D01*
X31510117Y-108604947D01*
X31492211Y-108559535D01*
X31476490Y-108513071D01*
X31463014Y-108465617D01*
X31451848Y-108417237D01*
X31443053Y-108367992D01*
X31436694Y-108317946D01*
X31432832Y-108267162D01*
X31431531Y-108215702D01*
X31431531Y-90165699D01*
X31431531Y-85215702D01*
X31431531Y-71115700D01*
X31431531Y-66165699D01*
X31431531Y-52065697D01*
X31431531Y-47115698D01*
X31431531Y-29065699D01*
X31432832Y-29014239D01*
X31436694Y-28963455D01*
X31443053Y-28913409D01*
X31451848Y-28864164D01*
X31463014Y-28815783D01*
X31476490Y-28768329D01*
X31492211Y-28721865D01*
X31510117Y-28676454D01*
X31530143Y-28632157D01*
X31552227Y-28589040D01*
X31576306Y-28547162D01*
X31602317Y-28506589D01*
X31630198Y-28467383D01*
X31659885Y-28429606D01*
X31691316Y-28393321D01*
X31724427Y-28358592D01*
X31759157Y-28325481D01*
X31795441Y-28294050D01*
X31833218Y-28264363D01*
X31872425Y-28236483D01*
X31912998Y-28210472D01*
X31954875Y-28186393D01*
X31997993Y-28164310D01*
X32042289Y-28144284D01*
X32087701Y-28126378D01*
X32134164Y-28110657D01*
X32181618Y-28097181D01*
X32229998Y-28086015D01*
X32279242Y-28077221D01*
X32329288Y-28070862D01*
X32380072Y-28067000D01*
X32431531Y-28065699D01*
X50481534Y-28065699D01*
X55431538Y-28065699D01*
X68531537Y-28065699D01*
X68582996Y-28064397D01*
X68633780Y-28060536D01*
X68683825Y-28054176D01*
X68733069Y-28045382D01*
X68781450Y-28034216D01*
X68828903Y-28020741D01*
X68875367Y-28005019D01*
X68920779Y-27987114D01*
X68965075Y-27967088D01*
X69008193Y-27945004D01*
X69050070Y-27920925D01*
X69090643Y-27894914D01*
X69129849Y-27867034D01*
X69167626Y-27837347D01*
X69203911Y-27805917D01*
X69238641Y-27772805D01*
X69271752Y-27738076D01*
X69303183Y-27701791D01*
X69332870Y-27664014D01*
X69360750Y-27624808D01*
X69386762Y-27584235D01*
X69410841Y-27542358D01*
X69432925Y-27499240D01*
X69452951Y-27454943D01*
X69470856Y-27409532D01*
X69486578Y-27363068D01*
X69500054Y-27315614D01*
X69511220Y-27267233D01*
X69520014Y-27217989D01*
X69526374Y-27167943D01*
X69530236Y-27117158D01*
X69531537Y-27065699D01*
X69531537Y-24303699D01*
X69532838Y-24252239D01*
X69536700Y-24201455D01*
X69543059Y-24151409D01*
X69551854Y-24102164D01*
X69563020Y-24053783D01*
X69576496Y-24006330D01*
X69592218Y-23959865D01*
X69610123Y-23914454D01*
X69630149Y-23870158D01*
X69652233Y-23827040D01*
X69676312Y-23785163D01*
X69702323Y-23744590D01*
X69730204Y-23705383D01*
X69759891Y-23667606D01*
X69791322Y-23631322D01*
X69824433Y-23596592D01*
X69859163Y-23563481D01*
X69895447Y-23532050D01*
X69933224Y-23502364D01*
X69972431Y-23474483D01*
X70013004Y-23448472D01*
X70054881Y-23424394D01*
X70097999Y-23402310D01*
X70142295Y-23382284D01*
X70187707Y-23364379D01*
X70234171Y-23348657D01*
X70281624Y-23335182D01*
X70330004Y-23324016D01*
X70379249Y-23315221D01*
X70429294Y-23308862D01*
X70480078Y-23305000D01*
X70531537Y-23303699D01*
X87581540Y-23303699D01*
X87633000Y-23302398D01*
X87683784Y-23298536D01*
X87733830Y-23292177D01*
X87783075Y-23283383D01*
X87831455Y-23272216D01*
X87878909Y-23258741D01*
X87925373Y-23243019D01*
X87970785Y-23225114D01*
X88015081Y-23205088D01*
X88058199Y-23183004D01*
X88100076Y-23158926D01*
X88140649Y-23132915D01*
X88179856Y-23105034D01*
X88217633Y-23075348D01*
X88253917Y-23043917D01*
X88288647Y-23010806D01*
X88321758Y-22976076D01*
X88353188Y-22939792D01*
X88382875Y-22902015D01*
X88410756Y-22862809D01*
X88436766Y-22822235D01*
X88460845Y-22780358D01*
X88482929Y-22737240D01*
X88502955Y-22692944D01*
X88520860Y-22647533D01*
X88536582Y-22601068D01*
X88550057Y-22553615D01*
X88561223Y-22505234D01*
X88570018Y-22455989D01*
X88576377Y-22405943D01*
X88580239Y-22355159D01*
X88581540Y-22303699D01*
X88581540Y-19540699D01*
X88582841Y-19489239D01*
X88586703Y-19438455D01*
X88593062Y-19388409D01*
X88601856Y-19339164D01*
X88613023Y-19290783D01*
X88626498Y-19243330D01*
X88642220Y-19196865D01*
X88660125Y-19151454D01*
X88680151Y-19107158D01*
X88702235Y-19064040D01*
X88726313Y-19022163D01*
X88752324Y-18981590D01*
X88780205Y-18942383D01*
X88809892Y-18904606D01*
X88841322Y-18868322D01*
X88874433Y-18833592D01*
X88909163Y-18800481D01*
X88945447Y-18769050D01*
X88983224Y-18739364D01*
X89022431Y-18711483D01*
X89063004Y-18685472D01*
X89104881Y-18661394D01*
X89147999Y-18639310D01*
X89192295Y-18619284D01*
X89237707Y-18601379D01*
X89284171Y-18585657D01*
X89331625Y-18572182D01*
X89380005Y-18561015D01*
X89429250Y-18552221D01*
X89479296Y-18545862D01*
X89530080Y-18542000D01*
X89581540Y-18540699D01*
X111581540Y-18540699D01*
X111633000Y-18542000D01*
M02*
