%TF.GenerationSoftware,KiCad,Pcbnew,10.0.1*%
%TF.CreationDate,2026-07-24T20:15:37+12:00*%
%TF.ProjectId,keyboard,6b657962-6f61-4726-942e-6b696361645f,rev?*%
%TF.SameCoordinates,Original*%
%TF.FileFunction,Drillmap*%
%TF.FilePolarity,Positive*%
%FSLAX45Y45*%
G04 Gerber Fmt 4.5, Leading zero omitted, Abs format (unit mm)*
G04 Created by KiCad (PCBNEW 10.0.1) date 2026-07-24 20:15:37*
%MOMM*%
%LPD*%
G01*
G04 APERTURE LIST*
%ADD10C,0.944881*%
%ADD11C,0.200000*%
%ADD12C,0.100000*%
%ADD13C,0.160000*%
%ADD14C,0.220000*%
%ADD15C,0.305000*%
%ADD16C,0.505000*%
G04 APERTURE END LIST*
D10*
X11163300Y-1854200D02*
X11168378Y-1854586D01*
X11173383Y-1855222D01*
X11178308Y-1856101D01*
X11183146Y-1857218D01*
X11187891Y-1858566D01*
X11192537Y-1860138D01*
X11197078Y-1861928D01*
X11201508Y-1863931D01*
X11205820Y-1866139D01*
X11210008Y-1868547D01*
X11214065Y-1871148D01*
X11217986Y-1873936D01*
X11221763Y-1876905D01*
X11225392Y-1880048D01*
X11228865Y-1883359D01*
X11232176Y-1886832D01*
X11235319Y-1890461D01*
X11238287Y-1894238D01*
X11241075Y-1898159D01*
X11243677Y-1902216D01*
X11246084Y-1906404D01*
X11248293Y-1910716D01*
X11250295Y-1915145D01*
X11252086Y-1919686D01*
X11253658Y-1924333D01*
X11255006Y-1929078D01*
X11256122Y-1933916D01*
X11257002Y-1938841D01*
X11257638Y-1943845D01*
X11258024Y-1948924D01*
X11258154Y-1954070D01*
X11258154Y-2230370D01*
X11258284Y-2235516D01*
X11258670Y-2240594D01*
X11259306Y-2245599D01*
X11260186Y-2250523D01*
X11261302Y-2255362D01*
X11262650Y-2260107D01*
X11264222Y-2264753D01*
X11266012Y-2269294D01*
X11268015Y-2273724D01*
X11270223Y-2278036D01*
X11272631Y-2282224D01*
X11275232Y-2286281D01*
X11278020Y-2290202D01*
X11280989Y-2293979D01*
X11284132Y-2297608D01*
X11287443Y-2301081D01*
X11290916Y-2304392D01*
X11294545Y-2307535D01*
X11298322Y-2310503D01*
X11302243Y-2313292D01*
X11306300Y-2315893D01*
X11310488Y-2318300D01*
X11314800Y-2320509D01*
X11319229Y-2322511D01*
X11323771Y-2324302D01*
X11328417Y-2325874D01*
X11333162Y-2327222D01*
X11338000Y-2328338D01*
X11342925Y-2329218D01*
X11347930Y-2329854D01*
X11353008Y-2330240D01*
X11358154Y-2330370D01*
X13063154Y-2330370D01*
X13068300Y-2330500D01*
X13073379Y-2330886D01*
X13078383Y-2331522D01*
X13083308Y-2332402D01*
X13088146Y-2333518D01*
X13092891Y-2334866D01*
X13097538Y-2336438D01*
X13102079Y-2338228D01*
X13106508Y-2340231D01*
X13110820Y-2342439D01*
X13115008Y-2344847D01*
X13119065Y-2347448D01*
X13122986Y-2350236D01*
X13126764Y-2353205D01*
X13130392Y-2356348D01*
X13133865Y-2359659D01*
X13137176Y-2363132D01*
X13140319Y-2366761D01*
X13143288Y-2370538D01*
X13146076Y-2374459D01*
X13148677Y-2378516D01*
X13151085Y-2382704D01*
X13153293Y-2387016D01*
X13155296Y-2391445D01*
X13157086Y-2395987D01*
X13158658Y-2400633D01*
X13160006Y-2405378D01*
X13161123Y-2410216D01*
X13162002Y-2415141D01*
X13162638Y-2420146D01*
X13163024Y-2425224D01*
X13163154Y-2430370D01*
X13163154Y-2706570D01*
X13163284Y-2711716D01*
X13163671Y-2716795D01*
X13164306Y-2721799D01*
X13165186Y-2726724D01*
X13166303Y-2731562D01*
X13167650Y-2736307D01*
X13169222Y-2740953D01*
X13171013Y-2745495D01*
X13173015Y-2749924D01*
X13175224Y-2754236D01*
X13177632Y-2758424D01*
X13180233Y-2762481D01*
X13183021Y-2766402D01*
X13185989Y-2770179D01*
X13189132Y-2773808D01*
X13192444Y-2777281D01*
X13195917Y-2780592D01*
X13199545Y-2783735D01*
X13203323Y-2786704D01*
X13207243Y-2789492D01*
X13211301Y-2792093D01*
X13215488Y-2794501D01*
X13219800Y-2796709D01*
X13224230Y-2798711D01*
X13228771Y-2800502D01*
X13233417Y-2802074D01*
X13238163Y-2803422D01*
X13243001Y-2804538D01*
X13247925Y-2805418D01*
X13252930Y-2806054D01*
X13258008Y-2806440D01*
X13263154Y-2806570D01*
X14968155Y-2806570D01*
X17542883Y-2806570D01*
X17542883Y-7854070D01*
X15068107Y-7854070D01*
X15068155Y-8521572D01*
X15068155Y-9016571D01*
X15068155Y-10821571D01*
X15068024Y-10826717D01*
X15067638Y-10831795D01*
X15067002Y-10836800D01*
X15066123Y-10841724D01*
X15065006Y-10846563D01*
X15063659Y-10851308D01*
X15062086Y-10855954D01*
X15060296Y-10860496D01*
X15058293Y-10864925D01*
X15056085Y-10869237D01*
X15053677Y-10873425D01*
X15051076Y-10877482D01*
X15048288Y-10881403D01*
X15045319Y-10885180D01*
X15042176Y-10888809D01*
X15038865Y-10892282D01*
X15035392Y-10895593D01*
X15031764Y-10898736D01*
X15027986Y-10901705D01*
X15024065Y-10904493D01*
X15020008Y-10907094D01*
X15015820Y-10909502D01*
X15011508Y-10911710D01*
X15007079Y-10913713D01*
X15002538Y-10915503D01*
X14997891Y-10917075D01*
X14993146Y-10918423D01*
X14988308Y-10919539D01*
X14983383Y-10920419D01*
X14978379Y-10921055D01*
X14973300Y-10921441D01*
X14968155Y-10921571D01*
X14865254Y-10921571D01*
X14855858Y-10921962D01*
X14846860Y-10923105D01*
X14838270Y-10924962D01*
X14830099Y-10927492D01*
X14822358Y-10930654D01*
X14815058Y-10934409D01*
X14808209Y-10938716D01*
X14801823Y-10943535D01*
X14795909Y-10948826D01*
X14790480Y-10954548D01*
X14785545Y-10960661D01*
X14781115Y-10967126D01*
X14777202Y-10973901D01*
X14773815Y-10980946D01*
X14770966Y-10988222D01*
X14768666Y-10995689D01*
X14766925Y-11003305D01*
X14765754Y-11011030D01*
X14765164Y-11018825D01*
X14765166Y-11026649D01*
X14765770Y-11034462D01*
X14766987Y-11042224D01*
X14768828Y-11049895D01*
X14771303Y-11057433D01*
X14774425Y-11064800D01*
X14778202Y-11071954D01*
X14782647Y-11078856D01*
X14787770Y-11085465D01*
X14793581Y-11091742D01*
X14800091Y-11097645D01*
X14807312Y-11103135D01*
X14815254Y-11108171D01*
X16103254Y-11851770D01*
X16107646Y-11854456D01*
X16111850Y-11857330D01*
X16115866Y-11860383D01*
X16119691Y-11863607D01*
X16123323Y-11866993D01*
X16126758Y-11870532D01*
X16129996Y-11874217D01*
X16133033Y-11878038D01*
X16135868Y-11881987D01*
X16138498Y-11886056D01*
X16140920Y-11890235D01*
X16143133Y-11894516D01*
X16145134Y-11898891D01*
X16146921Y-11903350D01*
X16148492Y-11907886D01*
X16149844Y-11912490D01*
X16150975Y-11917153D01*
X16151883Y-11921867D01*
X16152565Y-11926623D01*
X16153019Y-11931412D01*
X16153243Y-11936226D01*
X16153234Y-11941057D01*
X16152991Y-11945895D01*
X16152510Y-11950732D01*
X16151790Y-11955560D01*
X16150828Y-11960370D01*
X16149623Y-11965153D01*
X16148171Y-11969901D01*
X16146470Y-11974606D01*
X16144519Y-11979258D01*
X16142314Y-11983849D01*
X16139854Y-11988370D01*
X16315454Y-12063270D01*
X16318862Y-12059411D01*
X16322423Y-12055769D01*
X16326128Y-12052344D01*
X16329968Y-12049137D01*
X16333935Y-12046149D01*
X16338018Y-12043380D01*
X16342210Y-12040831D01*
X16346501Y-12038504D01*
X16350884Y-12036398D01*
X16355348Y-12034515D01*
X16359885Y-12032855D01*
X16364487Y-12031420D01*
X16369143Y-12030209D01*
X16373846Y-12029224D01*
X16378587Y-12028466D01*
X16383357Y-12027934D01*
X16388146Y-12027631D01*
X16392947Y-12027557D01*
X16397749Y-12027712D01*
X16402545Y-12028097D01*
X16407326Y-12028714D01*
X16412082Y-12029562D01*
X16416805Y-12030643D01*
X16421485Y-12031958D01*
X16426115Y-12033507D01*
X16430685Y-12035290D01*
X16435186Y-12037310D01*
X16439610Y-12039566D01*
X16443948Y-12042059D01*
X16448190Y-12044790D01*
X16452328Y-12047760D01*
X16456353Y-12050970D01*
X18141655Y-13465070D01*
X18145513Y-13468478D01*
X18149155Y-13472039D01*
X18152580Y-13475744D01*
X18155787Y-13479584D01*
X18158776Y-13483550D01*
X18161545Y-13487634D01*
X18164093Y-13491825D01*
X18166420Y-13496117D01*
X18168526Y-13500499D01*
X18170409Y-13504963D01*
X18172069Y-13509500D01*
X18173504Y-13514102D01*
X18174715Y-13518759D01*
X18175700Y-13523462D01*
X18176458Y-13528202D01*
X18176989Y-13532972D01*
X18177293Y-13537761D01*
X18177367Y-13542562D01*
X18177212Y-13547365D01*
X18176827Y-13552161D01*
X18176210Y-13556941D01*
X18175362Y-13561697D01*
X18174281Y-13566420D01*
X18172966Y-13571101D01*
X18171418Y-13575731D01*
X18169634Y-13580301D01*
X18167615Y-13584802D01*
X18165359Y-13589226D01*
X18162866Y-13593564D01*
X18160134Y-13597806D01*
X18157164Y-13601944D01*
X18153955Y-13605970D01*
X16127554Y-16020970D01*
X16124146Y-16024829D01*
X16120585Y-16028471D01*
X16116880Y-16031896D01*
X16113040Y-16035103D01*
X16109074Y-16038092D01*
X16104990Y-16040860D01*
X16100799Y-16043409D01*
X16096507Y-16045736D01*
X16092125Y-16047842D01*
X16087661Y-16049725D01*
X16083124Y-16051385D01*
X16078522Y-16052820D01*
X16073866Y-16054031D01*
X16069162Y-16055016D01*
X16064422Y-16055775D01*
X16059652Y-16056306D01*
X16054863Y-16056609D01*
X16050062Y-16056684D01*
X16045260Y-16056528D01*
X16040464Y-16056143D01*
X16035683Y-16055527D01*
X16030927Y-16054678D01*
X16026204Y-16053597D01*
X16021523Y-16052283D01*
X16016893Y-16050734D01*
X16012323Y-16048950D01*
X16007822Y-16046931D01*
X16003398Y-16044675D01*
X15999060Y-16042182D01*
X15994818Y-16039450D01*
X15990680Y-16036480D01*
X15986654Y-16033271D01*
X14516654Y-14799770D01*
X14513554Y-14805170D01*
X12521754Y-13655170D01*
X12517363Y-13652484D01*
X12513158Y-13649611D01*
X12509142Y-13646558D01*
X12505317Y-13643334D01*
X12501686Y-13639948D01*
X12498250Y-13636408D01*
X12495012Y-13632723D01*
X12491975Y-13628902D01*
X12489140Y-13624953D01*
X12486511Y-13620885D01*
X12484088Y-13616706D01*
X12481875Y-13612425D01*
X12479874Y-13608050D01*
X12478087Y-13603590D01*
X12476516Y-13599054D01*
X12475164Y-13594450D01*
X12474033Y-13589787D01*
X12473125Y-13585073D01*
X12472443Y-13580317D01*
X12471989Y-13575528D01*
X12471765Y-13570714D01*
X12471774Y-13565884D01*
X12472017Y-13561045D01*
X12472497Y-13556208D01*
X12473217Y-13551380D01*
X12474179Y-13546570D01*
X12475385Y-13541787D01*
X12476837Y-13537039D01*
X12478537Y-13532335D01*
X12480489Y-13527683D01*
X12482693Y-13523092D01*
X12485154Y-13518570D01*
X12631553Y-13264870D01*
X12634453Y-13259488D01*
X12636988Y-13254027D01*
X12639166Y-13248501D01*
X12640991Y-13242921D01*
X12642469Y-13237302D01*
X12643605Y-13231656D01*
X12644405Y-13225997D01*
X12644873Y-13220337D01*
X12645016Y-13214689D01*
X12644838Y-13209067D01*
X12644346Y-13203484D01*
X12643544Y-13197952D01*
X12642438Y-13192485D01*
X12641034Y-13187096D01*
X12639336Y-13181797D01*
X12637351Y-13176603D01*
X12635083Y-13171525D01*
X12632538Y-13166577D01*
X12629722Y-13161773D01*
X12626639Y-13157124D01*
X12623296Y-13152645D01*
X12619697Y-13148348D01*
X12615848Y-13144246D01*
X12611755Y-13140352D01*
X12607423Y-13136680D01*
X12602857Y-13133242D01*
X12598062Y-13130052D01*
X12593045Y-13127122D01*
X12587810Y-13124466D01*
X12582363Y-13122097D01*
X12576709Y-13120027D01*
X12570854Y-13118270D01*
X10832154Y-12652370D01*
X10827216Y-12650912D01*
X10822410Y-12649224D01*
X10817740Y-12647314D01*
X10813210Y-12645189D01*
X10808825Y-12642858D01*
X10804590Y-12640327D01*
X10800508Y-12637605D01*
X10796585Y-12634700D01*
X10792824Y-12631618D01*
X10789231Y-12628368D01*
X10785809Y-12624958D01*
X10782563Y-12621394D01*
X10779498Y-12617685D01*
X10776617Y-12613839D01*
X10773926Y-12609863D01*
X10771429Y-12605765D01*
X10769130Y-12601553D01*
X10767033Y-12597233D01*
X10765144Y-12592815D01*
X10763466Y-12588306D01*
X10762005Y-12583712D01*
X10760763Y-12579043D01*
X10759747Y-12574306D01*
X10758960Y-12569508D01*
X10758407Y-12564657D01*
X10758092Y-12559762D01*
X10758020Y-12554828D01*
X10758194Y-12549865D01*
X10758621Y-12544880D01*
X10759303Y-12539881D01*
X10760246Y-12534875D01*
X10761454Y-12529870D01*
X11286254Y-10571170D01*
X11287655Y-10565224D01*
X11288685Y-10559295D01*
X11289352Y-10553396D01*
X11289666Y-10547538D01*
X11289634Y-10541731D01*
X11289265Y-10535987D01*
X11288569Y-10530317D01*
X11287553Y-10524732D01*
X11286226Y-10519243D01*
X11284597Y-10513863D01*
X11282674Y-10508601D01*
X11280465Y-10503469D01*
X11277981Y-10498479D01*
X11275228Y-10493640D01*
X11272216Y-10488966D01*
X11268953Y-10484466D01*
X11265448Y-10480152D01*
X11261709Y-10476036D01*
X11257746Y-10472127D01*
X11253566Y-10468438D01*
X11249178Y-10464980D01*
X11244591Y-10461764D01*
X11239813Y-10458801D01*
X11234854Y-10456102D01*
X11229720Y-10453679D01*
X11224422Y-10451543D01*
X11218968Y-10449704D01*
X11213366Y-10448174D01*
X11207625Y-10446965D01*
X11201754Y-10446087D01*
X11195760Y-10445552D01*
X11189653Y-10445370D01*
X10863154Y-10445370D01*
X10858008Y-10445240D01*
X10852929Y-10444854D01*
X10847925Y-10444218D01*
X10843000Y-10443339D01*
X10838162Y-10442222D01*
X10833417Y-10440874D01*
X10828770Y-10439302D01*
X10824229Y-10437512D01*
X10819799Y-10435509D01*
X10815488Y-10433301D01*
X10811300Y-10430893D01*
X10807243Y-10428292D01*
X10803322Y-10425504D01*
X10799544Y-10422535D01*
X10795916Y-10419392D01*
X10792443Y-10416081D01*
X10789132Y-10412608D01*
X10785989Y-10408979D01*
X10783020Y-10405202D01*
X10780232Y-10401281D01*
X10777631Y-10397224D01*
X10775223Y-10393036D01*
X10773015Y-10388724D01*
X10771012Y-10384295D01*
X10769222Y-10379753D01*
X10767649Y-10375107D01*
X10766302Y-10370362D01*
X10765185Y-10365524D01*
X10764306Y-10360599D01*
X10763670Y-10355595D01*
X10763284Y-10350516D01*
X10763154Y-10345370D01*
X10763154Y-10069070D01*
X10763023Y-10063924D01*
X10762637Y-10058846D01*
X10762001Y-10053841D01*
X10761122Y-10048917D01*
X10760005Y-10044079D01*
X10758658Y-10039333D01*
X10757086Y-10034687D01*
X10755295Y-10030146D01*
X10753292Y-10025716D01*
X10751084Y-10021404D01*
X10748676Y-10017216D01*
X10746075Y-10013159D01*
X10743287Y-10009239D01*
X10740318Y-10005461D01*
X10737175Y-10001832D01*
X10733864Y-9998359D01*
X10730391Y-9995048D01*
X10726763Y-9991905D01*
X10722985Y-9988937D01*
X10719065Y-9986149D01*
X10715007Y-9983547D01*
X10710819Y-9981140D01*
X10706508Y-9978931D01*
X10702078Y-9976929D01*
X10697537Y-9975138D01*
X10692891Y-9973566D01*
X10688145Y-9972218D01*
X10683307Y-9971102D01*
X10678383Y-9970222D01*
X10673378Y-9969586D01*
X10668300Y-9969200D01*
X10663154Y-9969070D01*
X9453154Y-9969070D01*
X9448008Y-9969200D01*
X9442929Y-9969586D01*
X9437925Y-9970222D01*
X9433000Y-9971102D01*
X9428162Y-9972218D01*
X9423417Y-9973566D01*
X9418770Y-9975138D01*
X9414229Y-9976929D01*
X9409800Y-9978931D01*
X9405488Y-9981140D01*
X9401300Y-9983547D01*
X9397243Y-9986149D01*
X9393322Y-9988937D01*
X9389544Y-9991905D01*
X9385916Y-9995048D01*
X9382443Y-9998359D01*
X9379132Y-10001832D01*
X9375989Y-10005461D01*
X9373020Y-10009239D01*
X9370232Y-10013159D01*
X9367631Y-10017216D01*
X9365223Y-10021404D01*
X9363015Y-10025716D01*
X9361012Y-10030146D01*
X9359222Y-10034687D01*
X9357650Y-10039333D01*
X9356302Y-10044079D01*
X9355185Y-10048917D01*
X9354306Y-10053841D01*
X9353670Y-10058846D01*
X9353284Y-10063924D01*
X9353154Y-10069070D01*
X9353154Y-10345370D01*
X9353024Y-10350516D01*
X9352637Y-10355595D01*
X9352002Y-10360599D01*
X9351122Y-10365524D01*
X9350005Y-10370362D01*
X9348658Y-10375107D01*
X9347086Y-10379753D01*
X9345295Y-10384295D01*
X9343293Y-10388724D01*
X9341084Y-10393036D01*
X9338676Y-10397224D01*
X9336075Y-10401281D01*
X9333287Y-10405202D01*
X9330319Y-10408979D01*
X9327176Y-10412608D01*
X9323864Y-10416081D01*
X9320391Y-10419392D01*
X9316763Y-10422535D01*
X9312985Y-10425504D01*
X9309065Y-10428292D01*
X9305007Y-10430893D01*
X9300820Y-10433301D01*
X9296508Y-10435509D01*
X9292078Y-10437512D01*
X9287537Y-10439302D01*
X9282891Y-10440874D01*
X9278145Y-10442222D01*
X9273307Y-10443339D01*
X9268383Y-10444218D01*
X9263378Y-10444854D01*
X9258300Y-10445240D01*
X9253154Y-10445370D01*
X7548153Y-10445370D01*
X7543007Y-10445500D01*
X7537929Y-10445886D01*
X7532925Y-10446522D01*
X7528000Y-10447402D01*
X7523162Y-10448518D01*
X7518417Y-10449866D01*
X7513770Y-10451438D01*
X7509229Y-10453229D01*
X7504800Y-10455231D01*
X7500488Y-10457440D01*
X7496300Y-10459848D01*
X7492243Y-10462449D01*
X7488322Y-10465237D01*
X7484544Y-10468205D01*
X7480916Y-10471348D01*
X7477443Y-10474659D01*
X7474132Y-10478132D01*
X7470989Y-10481761D01*
X7468020Y-10485539D01*
X7465232Y-10489459D01*
X7462631Y-10493517D01*
X7460223Y-10497704D01*
X7458015Y-10502016D01*
X7456012Y-10506446D01*
X7454221Y-10510987D01*
X7452649Y-10515633D01*
X7451302Y-10520379D01*
X7450185Y-10525217D01*
X7449306Y-10530141D01*
X7448670Y-10535146D01*
X7448283Y-10540224D01*
X7448153Y-10545370D01*
X7448153Y-10821570D01*
X7448023Y-10826716D01*
X7447637Y-10831795D01*
X7447001Y-10836799D01*
X7446122Y-10841724D01*
X7445005Y-10846562D01*
X7443657Y-10851307D01*
X7442085Y-10855954D01*
X7440295Y-10860495D01*
X7438292Y-10864924D01*
X7436084Y-10869236D01*
X7433676Y-10873424D01*
X7431075Y-10877481D01*
X7428287Y-10881402D01*
X7425318Y-10885180D01*
X7422175Y-10888808D01*
X7418864Y-10892281D01*
X7415391Y-10895592D01*
X7411762Y-10898735D01*
X7407985Y-10901704D01*
X7404064Y-10904492D01*
X7400007Y-10907093D01*
X7395819Y-10909501D01*
X7391507Y-10911709D01*
X7387078Y-10913712D01*
X7382536Y-10915502D01*
X7377890Y-10917074D01*
X7373145Y-10918422D01*
X7368307Y-10919539D01*
X7363382Y-10920418D01*
X7358378Y-10921054D01*
X7353299Y-10921440D01*
X7348153Y-10921570D01*
X5543153Y-10921570D01*
X5048153Y-10921570D01*
X3243153Y-10921570D01*
X3238007Y-10921440D01*
X3232929Y-10921054D01*
X3227924Y-10920418D01*
X3223000Y-10919539D01*
X3218162Y-10918422D01*
X3213416Y-10917074D01*
X3208770Y-10915502D01*
X3204229Y-10913712D01*
X3199799Y-10911709D01*
X3195487Y-10909501D01*
X3191300Y-10907093D01*
X3187242Y-10904492D01*
X3183322Y-10901704D01*
X3179544Y-10898735D01*
X3175916Y-10895592D01*
X3172443Y-10892281D01*
X3169132Y-10888808D01*
X3165988Y-10885180D01*
X3163020Y-10881402D01*
X3160232Y-10877481D01*
X3157631Y-10873424D01*
X3155223Y-10869236D01*
X3153014Y-10864924D01*
X3151012Y-10860495D01*
X3149221Y-10855954D01*
X3147649Y-10851307D01*
X3146301Y-10846562D01*
X3145185Y-10841724D01*
X3144305Y-10836799D01*
X3143669Y-10831795D01*
X3143283Y-10826716D01*
X3143153Y-10821570D01*
X3143153Y-9016570D01*
X3143153Y-8521570D01*
X3143153Y-7111570D01*
X3143153Y-6616570D01*
X3143153Y-5206570D01*
X3143153Y-4711570D01*
X3143153Y-2906570D01*
X3143283Y-2901424D01*
X3143669Y-2896345D01*
X3144305Y-2891341D01*
X3145185Y-2886416D01*
X3146301Y-2881578D01*
X3147649Y-2876833D01*
X3149221Y-2872186D01*
X3151012Y-2867645D01*
X3153014Y-2863216D01*
X3155223Y-2858904D01*
X3157631Y-2854716D01*
X3160232Y-2850659D01*
X3163020Y-2846738D01*
X3165988Y-2842961D01*
X3169132Y-2839332D01*
X3172443Y-2835859D01*
X3175916Y-2832548D01*
X3179544Y-2829405D01*
X3183322Y-2826436D01*
X3187242Y-2823648D01*
X3191300Y-2821047D01*
X3195487Y-2818639D01*
X3199799Y-2816431D01*
X3204229Y-2814428D01*
X3208770Y-2812638D01*
X3213416Y-2811066D01*
X3218162Y-2809718D01*
X3223000Y-2808601D01*
X3227924Y-2807722D01*
X3232929Y-2807086D01*
X3238007Y-2806700D01*
X3243153Y-2806570D01*
X5048153Y-2806570D01*
X5543154Y-2806570D01*
X6853154Y-2806570D01*
X6858300Y-2806440D01*
X6863378Y-2806054D01*
X6868382Y-2805418D01*
X6873307Y-2804538D01*
X6878145Y-2803422D01*
X6882890Y-2802074D01*
X6887537Y-2800502D01*
X6892078Y-2798711D01*
X6896507Y-2796709D01*
X6900819Y-2794500D01*
X6905007Y-2792093D01*
X6909064Y-2789491D01*
X6912985Y-2786703D01*
X6916763Y-2783735D01*
X6920391Y-2780592D01*
X6923864Y-2777281D01*
X6927175Y-2773808D01*
X6930318Y-2770179D01*
X6933287Y-2766401D01*
X6936075Y-2762481D01*
X6938676Y-2758424D01*
X6941084Y-2754236D01*
X6943292Y-2749924D01*
X6945295Y-2745494D01*
X6947086Y-2740953D01*
X6948658Y-2736307D01*
X6950005Y-2731561D01*
X6951122Y-2726723D01*
X6952001Y-2721799D01*
X6952637Y-2716794D01*
X6953024Y-2711716D01*
X6953154Y-2706570D01*
X6953154Y-2430370D01*
X6953284Y-2425224D01*
X6953670Y-2420146D01*
X6954306Y-2415141D01*
X6955185Y-2410216D01*
X6956302Y-2405378D01*
X6957650Y-2400633D01*
X6959222Y-2395987D01*
X6961012Y-2391445D01*
X6963015Y-2387016D01*
X6965223Y-2382704D01*
X6967631Y-2378516D01*
X6970232Y-2374459D01*
X6973020Y-2370538D01*
X6975989Y-2366761D01*
X6979132Y-2363132D01*
X6982443Y-2359659D01*
X6985916Y-2356348D01*
X6989545Y-2353205D01*
X6993322Y-2350236D01*
X6997243Y-2347448D01*
X7001300Y-2344847D01*
X7005488Y-2342439D01*
X7009800Y-2340231D01*
X7014229Y-2338228D01*
X7018771Y-2336438D01*
X7023417Y-2334866D01*
X7028162Y-2333518D01*
X7033000Y-2332402D01*
X7037925Y-2331522D01*
X7042929Y-2330886D01*
X7048008Y-2330500D01*
X7053154Y-2330370D01*
X8758154Y-2330370D01*
X8763300Y-2330240D01*
X8768378Y-2329854D01*
X8773383Y-2329218D01*
X8778308Y-2328338D01*
X8783146Y-2327222D01*
X8787891Y-2325874D01*
X8792537Y-2324302D01*
X8797079Y-2322511D01*
X8801508Y-2320509D01*
X8805820Y-2318300D01*
X8810008Y-2315893D01*
X8814065Y-2313292D01*
X8817986Y-2310503D01*
X8821763Y-2307535D01*
X8825392Y-2304392D01*
X8828865Y-2301081D01*
X8832176Y-2297608D01*
X8835319Y-2293979D01*
X8838288Y-2290202D01*
X8841076Y-2286281D01*
X8843677Y-2282224D01*
X8846085Y-2278036D01*
X8848293Y-2273724D01*
X8850296Y-2269294D01*
X8852086Y-2264753D01*
X8853658Y-2260107D01*
X8855006Y-2255362D01*
X8856122Y-2250523D01*
X8857002Y-2245599D01*
X8857638Y-2240594D01*
X8858024Y-2235516D01*
X8858154Y-2230370D01*
X8858154Y-1954070D01*
X8858284Y-1948924D01*
X8858670Y-1943845D01*
X8859306Y-1938841D01*
X8860186Y-1933916D01*
X8861302Y-1929078D01*
X8862650Y-1924333D01*
X8864222Y-1919686D01*
X8866013Y-1915145D01*
X8868015Y-1910716D01*
X8870224Y-1906404D01*
X8872631Y-1902216D01*
X8875232Y-1898159D01*
X8878021Y-1894238D01*
X8880989Y-1890461D01*
X8884132Y-1886832D01*
X8887443Y-1883359D01*
X8890916Y-1880048D01*
X8894545Y-1876905D01*
X8898322Y-1873936D01*
X8902243Y-1871148D01*
X8906300Y-1868547D01*
X8910488Y-1866139D01*
X8914800Y-1863931D01*
X8919230Y-1861928D01*
X8923771Y-1860138D01*
X8928417Y-1858566D01*
X8933163Y-1857218D01*
X8938001Y-1856101D01*
X8942925Y-1855222D01*
X8947930Y-1854586D01*
X8953008Y-1854200D01*
X8958154Y-1854070D01*
X11158154Y-1854070D01*
X11163300Y-1854200D01*
D11*
D12*
X16480000Y-7435000D02*
X16560000Y-7515000D01*
X16560000Y-7435000D02*
X16480000Y-7515000D01*
X17180000Y-7435000D02*
X17260000Y-7515000D01*
X17260000Y-7435000D02*
X17180000Y-7515000D01*
D13*
X3978900Y-4419600D02*
G75*
G02*
X3818900Y-4419600I-80000J0D01*
G01*
X3818900Y-4419600D02*
G75*
G02*
X3978900Y-4419600I80000J0D01*
G01*
X3978900Y-6324600D02*
G75*
G02*
X3818900Y-6324600I-80000J0D01*
G01*
X3818900Y-6324600D02*
G75*
G02*
X3978900Y-6324600I80000J0D01*
G01*
X3978900Y-8229600D02*
G75*
G02*
X3818900Y-8229600I-80000J0D01*
G01*
X3818900Y-8229600D02*
G75*
G02*
X3978900Y-8229600I80000J0D01*
G01*
X3978900Y-10134600D02*
G75*
G02*
X3818900Y-10134600I-80000J0D01*
G01*
X3818900Y-10134600D02*
G75*
G02*
X3978900Y-10134600I80000J0D01*
G01*
X5883900Y-4419600D02*
G75*
G02*
X5723900Y-4419600I-80000J0D01*
G01*
X5723900Y-4419600D02*
G75*
G02*
X5883900Y-4419600I80000J0D01*
G01*
X5883900Y-6324600D02*
G75*
G02*
X5723900Y-6324600I-80000J0D01*
G01*
X5723900Y-6324600D02*
G75*
G02*
X5883900Y-6324600I80000J0D01*
G01*
X5883900Y-8229600D02*
G75*
G02*
X5723900Y-8229600I-80000J0D01*
G01*
X5723900Y-8229600D02*
G75*
G02*
X5883900Y-8229600I80000J0D01*
G01*
X5883900Y-10134600D02*
G75*
G02*
X5723900Y-10134600I-80000J0D01*
G01*
X5723900Y-10134600D02*
G75*
G02*
X5883900Y-10134600I80000J0D01*
G01*
X7788900Y-3943350D02*
G75*
G02*
X7628900Y-3943350I-80000J0D01*
G01*
X7628900Y-3943350D02*
G75*
G02*
X7788900Y-3943350I80000J0D01*
G01*
X7788900Y-5848350D02*
G75*
G02*
X7628900Y-5848350I-80000J0D01*
G01*
X7628900Y-5848350D02*
G75*
G02*
X7788900Y-5848350I80000J0D01*
G01*
X7788900Y-7753350D02*
G75*
G02*
X7628900Y-7753350I-80000J0D01*
G01*
X7628900Y-7753350D02*
G75*
G02*
X7788900Y-7753350I80000J0D01*
G01*
X7788900Y-9658350D02*
G75*
G02*
X7628900Y-9658350I-80000J0D01*
G01*
X7628900Y-9658350D02*
G75*
G02*
X7788900Y-9658350I80000J0D01*
G01*
X9693900Y-3467100D02*
G75*
G02*
X9533900Y-3467100I-80000J0D01*
G01*
X9533900Y-3467100D02*
G75*
G02*
X9693900Y-3467100I80000J0D01*
G01*
X9693900Y-5372100D02*
G75*
G02*
X9533900Y-5372100I-80000J0D01*
G01*
X9533900Y-5372100D02*
G75*
G02*
X9693900Y-5372100I80000J0D01*
G01*
X9693900Y-7277100D02*
G75*
G02*
X9533900Y-7277100I-80000J0D01*
G01*
X9533900Y-7277100D02*
G75*
G02*
X9693900Y-7277100I80000J0D01*
G01*
X9693900Y-9182100D02*
G75*
G02*
X9533900Y-9182100I-80000J0D01*
G01*
X9533900Y-9182100D02*
G75*
G02*
X9693900Y-9182100I80000J0D01*
G01*
X11598900Y-3943350D02*
G75*
G02*
X11438900Y-3943350I-80000J0D01*
G01*
X11438900Y-3943350D02*
G75*
G02*
X11598900Y-3943350I80000J0D01*
G01*
X11598900Y-5848350D02*
G75*
G02*
X11438900Y-5848350I-80000J0D01*
G01*
X11438900Y-5848350D02*
G75*
G02*
X11598900Y-5848350I80000J0D01*
G01*
X11598900Y-7753350D02*
G75*
G02*
X11438900Y-7753350I-80000J0D01*
G01*
X11438900Y-7753350D02*
G75*
G02*
X11598900Y-7753350I80000J0D01*
G01*
X11598900Y-9658350D02*
G75*
G02*
X11438900Y-9658350I-80000J0D01*
G01*
X11438900Y-9658350D02*
G75*
G02*
X11598900Y-9658350I80000J0D01*
G01*
X11724720Y-12044038D02*
G75*
G02*
X11564720Y-12044038I-80000J0D01*
G01*
X11564720Y-12044038D02*
G75*
G02*
X11724720Y-12044038I80000J0D01*
G01*
X13503900Y-4419600D02*
G75*
G02*
X13343900Y-4419600I-80000J0D01*
G01*
X13343900Y-4419600D02*
G75*
G02*
X13503900Y-4419600I80000J0D01*
G01*
X13503900Y-6324600D02*
G75*
G02*
X13343900Y-6324600I-80000J0D01*
G01*
X13343900Y-6324600D02*
G75*
G02*
X13503900Y-6324600I80000J0D01*
G01*
X13503900Y-8229600D02*
G75*
G02*
X13343900Y-8229600I-80000J0D01*
G01*
X13343900Y-8229600D02*
G75*
G02*
X13503900Y-8229600I80000J0D01*
G01*
X13503900Y-10134600D02*
G75*
G02*
X13343900Y-10134600I-80000J0D01*
G01*
X13343900Y-10134600D02*
G75*
G02*
X13503900Y-10134600I80000J0D01*
G01*
X13757702Y-12847488D02*
G75*
G02*
X13597702Y-12847488I-80000J0D01*
G01*
X13597702Y-12847488D02*
G75*
G02*
X13757702Y-12847488I80000J0D01*
G01*
X15643186Y-14013275D02*
G75*
G02*
X15483186Y-14013275I-80000J0D01*
G01*
X15483186Y-14013275D02*
G75*
G02*
X15643186Y-14013275I80000J0D01*
G01*
D14*
X3375000Y-2915000D02*
X3375000Y-3135000D01*
X3265000Y-3025000D02*
X3485000Y-3025000D01*
X3425000Y-10540000D02*
X3425000Y-10760000D01*
X3315000Y-10650000D02*
X3535000Y-10650000D01*
X14675000Y-14350000D02*
X14675000Y-14570000D01*
X14565000Y-14460000D02*
X14785000Y-14460000D01*
X15025000Y-3065000D02*
X15025000Y-3285000D01*
X14915000Y-3175000D02*
X15135000Y-3175000D01*
D15*
X4506735Y-3422435D02*
X4506735Y-3206765D01*
X4291065Y-3206765D01*
X4291065Y-3422435D01*
X4506735Y-3422435D01*
X4506735Y-5327435D02*
X4506735Y-5111765D01*
X4291065Y-5111765D01*
X4291065Y-5327435D01*
X4506735Y-5327435D01*
X4506735Y-7232435D02*
X4506735Y-7016765D01*
X4291065Y-7016765D01*
X4291065Y-7232435D01*
X4506735Y-7232435D01*
X4506735Y-9137435D02*
X4506735Y-8921765D01*
X4291065Y-8921765D01*
X4291065Y-9137435D01*
X4506735Y-9137435D01*
X5006735Y-3632435D02*
X5006735Y-3416765D01*
X4791065Y-3416765D01*
X4791065Y-3632435D01*
X5006735Y-3632435D01*
X5006735Y-5537435D02*
X5006735Y-5321765D01*
X4791065Y-5321765D01*
X4791065Y-5537435D01*
X5006735Y-5537435D01*
X5006735Y-7442435D02*
X5006735Y-7226765D01*
X4791065Y-7226765D01*
X4791065Y-7442435D01*
X5006735Y-7442435D01*
X5006735Y-9347435D02*
X5006735Y-9131765D01*
X4791065Y-9131765D01*
X4791065Y-9347435D01*
X5006735Y-9347435D01*
X6411735Y-3422435D02*
X6411735Y-3206765D01*
X6196065Y-3206765D01*
X6196065Y-3422435D01*
X6411735Y-3422435D01*
X6411735Y-5327435D02*
X6411735Y-5111765D01*
X6196065Y-5111765D01*
X6196065Y-5327435D01*
X6411735Y-5327435D01*
X6411735Y-7232435D02*
X6411735Y-7016765D01*
X6196065Y-7016765D01*
X6196065Y-7232435D01*
X6411735Y-7232435D01*
X6411735Y-9137435D02*
X6411735Y-8921765D01*
X6196065Y-8921765D01*
X6196065Y-9137435D01*
X6411735Y-9137435D01*
X6911735Y-3632435D02*
X6911735Y-3416765D01*
X6696065Y-3416765D01*
X6696065Y-3632435D01*
X6911735Y-3632435D01*
X6911735Y-5537435D02*
X6911735Y-5321765D01*
X6696065Y-5321765D01*
X6696065Y-5537435D01*
X6911735Y-5537435D01*
X6911735Y-7442435D02*
X6911735Y-7226765D01*
X6696065Y-7226765D01*
X6696065Y-7442435D01*
X6911735Y-7442435D01*
X6911735Y-9347435D02*
X6911735Y-9131765D01*
X6696065Y-9131765D01*
X6696065Y-9347435D01*
X6911735Y-9347435D01*
X8316735Y-2946185D02*
X8316735Y-2730515D01*
X8101065Y-2730515D01*
X8101065Y-2946185D01*
X8316735Y-2946185D01*
X8316735Y-4851185D02*
X8316735Y-4635515D01*
X8101065Y-4635515D01*
X8101065Y-4851185D01*
X8316735Y-4851185D01*
X8316735Y-6756185D02*
X8316735Y-6540515D01*
X8101065Y-6540515D01*
X8101065Y-6756185D01*
X8316735Y-6756185D01*
X8316735Y-8661185D02*
X8316735Y-8445515D01*
X8101065Y-8445515D01*
X8101065Y-8661185D01*
X8316735Y-8661185D01*
X8816735Y-3156185D02*
X8816735Y-2940515D01*
X8601065Y-2940515D01*
X8601065Y-3156185D01*
X8816735Y-3156185D01*
X8816735Y-5061185D02*
X8816735Y-4845515D01*
X8601065Y-4845515D01*
X8601065Y-5061185D01*
X8816735Y-5061185D01*
X8816735Y-6966185D02*
X8816735Y-6750515D01*
X8601065Y-6750515D01*
X8601065Y-6966185D01*
X8816735Y-6966185D01*
X8816735Y-8871185D02*
X8816735Y-8655515D01*
X8601065Y-8655515D01*
X8601065Y-8871185D01*
X8816735Y-8871185D01*
X10221735Y-2469935D02*
X10221735Y-2254265D01*
X10006065Y-2254265D01*
X10006065Y-2469935D01*
X10221735Y-2469935D01*
X10221735Y-4374935D02*
X10221735Y-4159265D01*
X10006065Y-4159265D01*
X10006065Y-4374935D01*
X10221735Y-4374935D01*
X10221735Y-6279935D02*
X10221735Y-6064265D01*
X10006065Y-6064265D01*
X10006065Y-6279935D01*
X10221735Y-6279935D01*
X10221735Y-8184935D02*
X10221735Y-7969265D01*
X10006065Y-7969265D01*
X10006065Y-8184935D01*
X10221735Y-8184935D01*
X10721735Y-2679935D02*
X10721735Y-2464265D01*
X10506065Y-2464265D01*
X10506065Y-2679935D01*
X10721735Y-2679935D01*
X10721735Y-4584935D02*
X10721735Y-4369265D01*
X10506065Y-4369265D01*
X10506065Y-4584935D01*
X10721735Y-4584935D01*
X10721735Y-6489935D02*
X10721735Y-6274265D01*
X10506065Y-6274265D01*
X10506065Y-6489935D01*
X10721735Y-6489935D01*
X10721735Y-8394935D02*
X10721735Y-8179265D01*
X10506065Y-8179265D01*
X10506065Y-8394935D01*
X10721735Y-8394935D01*
X12126735Y-2946185D02*
X12126735Y-2730515D01*
X11911065Y-2730515D01*
X11911065Y-2946185D01*
X12126735Y-2946185D01*
X12126735Y-4851185D02*
X12126735Y-4635515D01*
X11911065Y-4635515D01*
X11911065Y-4851185D01*
X12126735Y-4851185D01*
X12126735Y-6756185D02*
X12126735Y-6540515D01*
X11911065Y-6540515D01*
X11911065Y-6756185D01*
X12126735Y-6756185D01*
X12126735Y-8661185D02*
X12126735Y-8445515D01*
X11911065Y-8445515D01*
X11911065Y-8661185D01*
X12126735Y-8661185D01*
X12521513Y-11213934D02*
X12521513Y-10998264D01*
X12305844Y-10998264D01*
X12305844Y-11213934D01*
X12521513Y-11213934D01*
X12626735Y-3156185D02*
X12626735Y-2940515D01*
X12411065Y-2940515D01*
X12411065Y-3156185D01*
X12626735Y-3156185D01*
X12626735Y-5061185D02*
X12626735Y-4845515D01*
X12411065Y-4845515D01*
X12411065Y-5061185D01*
X12626735Y-5061185D01*
X12626735Y-6966185D02*
X12626735Y-6750515D01*
X12411065Y-6750515D01*
X12411065Y-6966185D01*
X12626735Y-6966185D01*
X12626735Y-8871185D02*
X12626735Y-8655515D01*
X12411065Y-8655515D01*
X12411065Y-8871185D01*
X12626735Y-8871185D01*
X12950124Y-11546188D02*
X12950124Y-11330518D01*
X12734455Y-11330518D01*
X12734455Y-11546188D01*
X12950124Y-11546188D01*
X14031735Y-3422435D02*
X14031735Y-3206765D01*
X13816065Y-3206765D01*
X13816065Y-3422435D01*
X14031735Y-3422435D01*
X14031735Y-5327435D02*
X14031735Y-5111765D01*
X13816065Y-5111765D01*
X13816065Y-5327435D01*
X14031735Y-5327435D01*
X14031735Y-7232435D02*
X14031735Y-7016765D01*
X13816065Y-7016765D01*
X13816065Y-7232435D01*
X14031735Y-7232435D01*
X14031735Y-9137435D02*
X14031735Y-8921765D01*
X13816065Y-8921765D01*
X13816065Y-9137435D01*
X14031735Y-9137435D01*
X14531735Y-3632435D02*
X14531735Y-3416765D01*
X14316065Y-3416765D01*
X14316065Y-3632435D01*
X14531735Y-3632435D01*
X14531735Y-5537435D02*
X14531735Y-5321765D01*
X14316065Y-5321765D01*
X14316065Y-5537435D01*
X14531735Y-5537435D01*
X14531735Y-7442435D02*
X14531735Y-7226765D01*
X14316065Y-7226765D01*
X14316065Y-7442435D01*
X14531735Y-7442435D01*
X14531735Y-9347435D02*
X14531735Y-9131765D01*
X14316065Y-9131765D01*
X14316065Y-9347435D01*
X14531735Y-9347435D01*
X14771049Y-12248365D02*
X14771049Y-12032696D01*
X14555380Y-12032696D01*
X14555380Y-12248365D01*
X14771049Y-12248365D01*
X15099062Y-12680230D02*
X15099062Y-12464561D01*
X14883392Y-12464561D01*
X14883392Y-12680230D01*
X15099062Y-12680230D01*
X16764324Y-13596025D02*
X16764324Y-13380355D01*
X16548654Y-13380355D01*
X16548654Y-13596025D01*
X16764324Y-13596025D01*
X17012361Y-14078288D02*
X17012361Y-13862618D01*
X16796691Y-13862618D01*
X16796691Y-14078288D01*
X17012361Y-14078288D01*
D16*
X4398900Y-4157100D02*
X4651400Y-3904600D01*
X4398900Y-3652100D01*
X4146400Y-3904600D01*
X4398900Y-4157100D01*
X4398900Y-6062100D02*
X4651400Y-5809600D01*
X4398900Y-5557100D01*
X4146400Y-5809600D01*
X4398900Y-6062100D01*
X4398900Y-7967100D02*
X4651400Y-7714600D01*
X4398900Y-7462100D01*
X4146400Y-7714600D01*
X4398900Y-7967100D01*
X4398900Y-9872100D02*
X4651400Y-9619600D01*
X4398900Y-9367100D01*
X4146400Y-9619600D01*
X4398900Y-9872100D01*
X6303900Y-4157100D02*
X6556400Y-3904600D01*
X6303900Y-3652100D01*
X6051400Y-3904600D01*
X6303900Y-4157100D01*
X6303900Y-6062100D02*
X6556400Y-5809600D01*
X6303900Y-5557100D01*
X6051400Y-5809600D01*
X6303900Y-6062100D01*
X6303900Y-7967100D02*
X6556400Y-7714600D01*
X6303900Y-7462100D01*
X6051400Y-7714600D01*
X6303900Y-7967100D01*
X6303900Y-9872100D02*
X6556400Y-9619600D01*
X6303900Y-9367100D01*
X6051400Y-9619600D01*
X6303900Y-9872100D01*
X8208900Y-3680850D02*
X8461400Y-3428350D01*
X8208900Y-3175850D01*
X7956400Y-3428350D01*
X8208900Y-3680850D01*
X8208900Y-5585850D02*
X8461400Y-5333350D01*
X8208900Y-5080850D01*
X7956400Y-5333350D01*
X8208900Y-5585850D01*
X8208900Y-7490850D02*
X8461400Y-7238350D01*
X8208900Y-6985850D01*
X7956400Y-7238350D01*
X8208900Y-7490850D01*
X8208900Y-9395850D02*
X8461400Y-9143350D01*
X8208900Y-8890850D01*
X7956400Y-9143350D01*
X8208900Y-9395850D01*
X10113900Y-3204600D02*
X10366400Y-2952100D01*
X10113900Y-2699600D01*
X9861400Y-2952100D01*
X10113900Y-3204600D01*
X10113900Y-5109600D02*
X10366400Y-4857100D01*
X10113900Y-4604600D01*
X9861400Y-4857100D01*
X10113900Y-5109600D01*
X10113900Y-7014600D02*
X10366400Y-6762100D01*
X10113900Y-6509600D01*
X9861400Y-6762100D01*
X10113900Y-7014600D01*
X10113900Y-8919600D02*
X10366400Y-8667100D01*
X10113900Y-8414600D01*
X9861400Y-8667100D01*
X10113900Y-8919600D01*
X12018900Y-3680850D02*
X12271400Y-3428350D01*
X12018900Y-3175850D01*
X11766400Y-3428350D01*
X12018900Y-3680850D01*
X12018900Y-5585850D02*
X12271400Y-5333350D01*
X12018900Y-5080850D01*
X11766400Y-5333350D01*
X12018900Y-5585850D01*
X12018900Y-7490850D02*
X12271400Y-7238350D01*
X12018900Y-6985850D01*
X11766400Y-7238350D01*
X12018900Y-7490850D01*
X12018900Y-9395850D02*
X12271400Y-9143350D01*
X12018900Y-8890850D01*
X11766400Y-9143350D01*
X12018900Y-9395850D01*
X12260975Y-11928495D02*
X12513475Y-11675995D01*
X12260975Y-11423495D01*
X12008475Y-11675995D01*
X12260975Y-11928495D01*
X13923900Y-4157100D02*
X14176400Y-3904600D01*
X13923900Y-3652100D01*
X13671400Y-3904600D01*
X13923900Y-4157100D01*
X13923900Y-6062100D02*
X14176400Y-5809600D01*
X13923900Y-5557100D01*
X13671400Y-5809600D01*
X13923900Y-6062100D01*
X13923900Y-7967100D02*
X14176400Y-7714600D01*
X13923900Y-7462100D01*
X13671400Y-7714600D01*
X13923900Y-7967100D01*
X13923900Y-9872100D02*
X14176400Y-9619600D01*
X13923900Y-9367100D01*
X13671400Y-9619600D01*
X13923900Y-9872100D01*
X14368214Y-12903985D02*
X14620714Y-12651485D01*
X14368214Y-12398985D01*
X14115714Y-12651485D01*
X14368214Y-12903985D01*
X16277244Y-14192656D02*
X16529744Y-13940156D01*
X16277244Y-13687656D01*
X16024744Y-13940156D01*
X16277244Y-14192656D01*
D11*
X3356686Y-16415411D02*
X3356686Y-16215411D01*
X3356686Y-16215411D02*
X3404305Y-16215411D01*
X3404305Y-16215411D02*
X3432876Y-16224935D01*
X3432876Y-16224935D02*
X3451924Y-16243983D01*
X3451924Y-16243983D02*
X3461448Y-16263030D01*
X3461448Y-16263030D02*
X3470972Y-16301126D01*
X3470972Y-16301126D02*
X3470972Y-16329697D01*
X3470972Y-16329697D02*
X3461448Y-16367792D01*
X3461448Y-16367792D02*
X3451924Y-16386840D01*
X3451924Y-16386840D02*
X3432876Y-16405888D01*
X3432876Y-16405888D02*
X3404305Y-16415411D01*
X3404305Y-16415411D02*
X3356686Y-16415411D01*
X3556686Y-16415411D02*
X3556686Y-16282078D01*
X3556686Y-16320173D02*
X3566210Y-16301126D01*
X3566210Y-16301126D02*
X3575733Y-16291602D01*
X3575733Y-16291602D02*
X3594781Y-16282078D01*
X3594781Y-16282078D02*
X3613829Y-16282078D01*
X3680495Y-16415411D02*
X3680495Y-16282078D01*
X3680495Y-16215411D02*
X3670972Y-16224935D01*
X3670972Y-16224935D02*
X3680495Y-16234459D01*
X3680495Y-16234459D02*
X3690019Y-16224935D01*
X3690019Y-16224935D02*
X3680495Y-16215411D01*
X3680495Y-16215411D02*
X3680495Y-16234459D01*
X3804305Y-16415411D02*
X3785257Y-16405888D01*
X3785257Y-16405888D02*
X3775733Y-16386840D01*
X3775733Y-16386840D02*
X3775733Y-16215411D01*
X3909067Y-16415411D02*
X3890019Y-16405888D01*
X3890019Y-16405888D02*
X3880495Y-16386840D01*
X3880495Y-16386840D02*
X3880495Y-16215411D01*
X4137638Y-16415411D02*
X4137638Y-16215411D01*
X4137638Y-16215411D02*
X4204305Y-16358268D01*
X4204305Y-16358268D02*
X4270972Y-16215411D01*
X4270972Y-16215411D02*
X4270972Y-16415411D01*
X4451924Y-16415411D02*
X4451924Y-16310649D01*
X4451924Y-16310649D02*
X4442400Y-16291602D01*
X4442400Y-16291602D02*
X4423353Y-16282078D01*
X4423353Y-16282078D02*
X4385257Y-16282078D01*
X4385257Y-16282078D02*
X4366210Y-16291602D01*
X4451924Y-16405888D02*
X4432876Y-16415411D01*
X4432876Y-16415411D02*
X4385257Y-16415411D01*
X4385257Y-16415411D02*
X4366210Y-16405888D01*
X4366210Y-16405888D02*
X4356686Y-16386840D01*
X4356686Y-16386840D02*
X4356686Y-16367792D01*
X4356686Y-16367792D02*
X4366210Y-16348745D01*
X4366210Y-16348745D02*
X4385257Y-16339221D01*
X4385257Y-16339221D02*
X4432876Y-16339221D01*
X4432876Y-16339221D02*
X4451924Y-16329697D01*
X4547162Y-16282078D02*
X4547162Y-16482078D01*
X4547162Y-16291602D02*
X4566210Y-16282078D01*
X4566210Y-16282078D02*
X4604305Y-16282078D01*
X4604305Y-16282078D02*
X4623353Y-16291602D01*
X4623353Y-16291602D02*
X4632876Y-16301126D01*
X4632876Y-16301126D02*
X4642400Y-16320173D01*
X4642400Y-16320173D02*
X4642400Y-16377316D01*
X4642400Y-16377316D02*
X4632876Y-16396364D01*
X4632876Y-16396364D02*
X4623353Y-16405888D01*
X4623353Y-16405888D02*
X4604305Y-16415411D01*
X4604305Y-16415411D02*
X4566210Y-16415411D01*
X4566210Y-16415411D02*
X4547162Y-16405888D01*
X4728115Y-16396364D02*
X4737638Y-16405888D01*
X4737638Y-16405888D02*
X4728115Y-16415411D01*
X4728115Y-16415411D02*
X4718591Y-16405888D01*
X4718591Y-16405888D02*
X4728115Y-16396364D01*
X4728115Y-16396364D02*
X4728115Y-16415411D01*
X4728115Y-16291602D02*
X4737638Y-16301126D01*
X4737638Y-16301126D02*
X4728115Y-16310649D01*
X4728115Y-16310649D02*
X4718591Y-16301126D01*
X4718591Y-16301126D02*
X4728115Y-16291602D01*
X4728115Y-16291602D02*
X4728115Y-16310649D01*
D12*
X3015909Y-16703928D02*
X3095909Y-16783928D01*
X3095909Y-16703928D02*
X3015909Y-16783928D01*
D11*
X3394781Y-16635411D02*
X3413829Y-16635411D01*
X3413829Y-16635411D02*
X3432876Y-16644935D01*
X3432876Y-16644935D02*
X3442400Y-16654459D01*
X3442400Y-16654459D02*
X3451924Y-16673507D01*
X3451924Y-16673507D02*
X3461448Y-16711602D01*
X3461448Y-16711602D02*
X3461448Y-16759221D01*
X3461448Y-16759221D02*
X3451924Y-16797316D01*
X3451924Y-16797316D02*
X3442400Y-16816364D01*
X3442400Y-16816364D02*
X3432876Y-16825888D01*
X3432876Y-16825888D02*
X3413829Y-16835411D01*
X3413829Y-16835411D02*
X3394781Y-16835411D01*
X3394781Y-16835411D02*
X3375733Y-16825888D01*
X3375733Y-16825888D02*
X3366210Y-16816364D01*
X3366210Y-16816364D02*
X3356686Y-16797316D01*
X3356686Y-16797316D02*
X3347162Y-16759221D01*
X3347162Y-16759221D02*
X3347162Y-16711602D01*
X3347162Y-16711602D02*
X3356686Y-16673507D01*
X3356686Y-16673507D02*
X3366210Y-16654459D01*
X3366210Y-16654459D02*
X3375733Y-16644935D01*
X3375733Y-16644935D02*
X3394781Y-16635411D01*
X3547162Y-16816364D02*
X3556686Y-16825888D01*
X3556686Y-16825888D02*
X3547162Y-16835411D01*
X3547162Y-16835411D02*
X3537638Y-16825888D01*
X3537638Y-16825888D02*
X3547162Y-16816364D01*
X3547162Y-16816364D02*
X3547162Y-16835411D01*
X3670972Y-16721126D02*
X3651924Y-16711602D01*
X3651924Y-16711602D02*
X3642400Y-16702078D01*
X3642400Y-16702078D02*
X3632876Y-16683030D01*
X3632876Y-16683030D02*
X3632876Y-16673507D01*
X3632876Y-16673507D02*
X3642400Y-16654459D01*
X3642400Y-16654459D02*
X3651924Y-16644935D01*
X3651924Y-16644935D02*
X3670972Y-16635411D01*
X3670972Y-16635411D02*
X3709067Y-16635411D01*
X3709067Y-16635411D02*
X3728114Y-16644935D01*
X3728114Y-16644935D02*
X3737638Y-16654459D01*
X3737638Y-16654459D02*
X3747162Y-16673507D01*
X3747162Y-16673507D02*
X3747162Y-16683030D01*
X3747162Y-16683030D02*
X3737638Y-16702078D01*
X3737638Y-16702078D02*
X3728114Y-16711602D01*
X3728114Y-16711602D02*
X3709067Y-16721126D01*
X3709067Y-16721126D02*
X3670972Y-16721126D01*
X3670972Y-16721126D02*
X3651924Y-16730649D01*
X3651924Y-16730649D02*
X3642400Y-16740173D01*
X3642400Y-16740173D02*
X3632876Y-16759221D01*
X3632876Y-16759221D02*
X3632876Y-16797316D01*
X3632876Y-16797316D02*
X3642400Y-16816364D01*
X3642400Y-16816364D02*
X3651924Y-16825888D01*
X3651924Y-16825888D02*
X3670972Y-16835411D01*
X3670972Y-16835411D02*
X3709067Y-16835411D01*
X3709067Y-16835411D02*
X3728114Y-16825888D01*
X3728114Y-16825888D02*
X3737638Y-16816364D01*
X3737638Y-16816364D02*
X3747162Y-16797316D01*
X3747162Y-16797316D02*
X3747162Y-16759221D01*
X3747162Y-16759221D02*
X3737638Y-16740173D01*
X3737638Y-16740173D02*
X3728114Y-16730649D01*
X3728114Y-16730649D02*
X3709067Y-16721126D01*
X3870972Y-16635411D02*
X3890019Y-16635411D01*
X3890019Y-16635411D02*
X3909067Y-16644935D01*
X3909067Y-16644935D02*
X3918591Y-16654459D01*
X3918591Y-16654459D02*
X3928114Y-16673507D01*
X3928114Y-16673507D02*
X3937638Y-16711602D01*
X3937638Y-16711602D02*
X3937638Y-16759221D01*
X3937638Y-16759221D02*
X3928114Y-16797316D01*
X3928114Y-16797316D02*
X3918591Y-16816364D01*
X3918591Y-16816364D02*
X3909067Y-16825888D01*
X3909067Y-16825888D02*
X3890019Y-16835411D01*
X3890019Y-16835411D02*
X3870972Y-16835411D01*
X3870972Y-16835411D02*
X3851924Y-16825888D01*
X3851924Y-16825888D02*
X3842400Y-16816364D01*
X3842400Y-16816364D02*
X3832876Y-16797316D01*
X3832876Y-16797316D02*
X3823353Y-16759221D01*
X3823353Y-16759221D02*
X3823353Y-16711602D01*
X3823353Y-16711602D02*
X3832876Y-16673507D01*
X3832876Y-16673507D02*
X3842400Y-16654459D01*
X3842400Y-16654459D02*
X3851924Y-16644935D01*
X3851924Y-16644935D02*
X3870972Y-16635411D01*
X4061448Y-16635411D02*
X4080495Y-16635411D01*
X4080495Y-16635411D02*
X4099543Y-16644935D01*
X4099543Y-16644935D02*
X4109067Y-16654459D01*
X4109067Y-16654459D02*
X4118591Y-16673507D01*
X4118591Y-16673507D02*
X4128114Y-16711602D01*
X4128114Y-16711602D02*
X4128114Y-16759221D01*
X4128114Y-16759221D02*
X4118591Y-16797316D01*
X4118591Y-16797316D02*
X4109067Y-16816364D01*
X4109067Y-16816364D02*
X4099543Y-16825888D01*
X4099543Y-16825888D02*
X4080495Y-16835411D01*
X4080495Y-16835411D02*
X4061448Y-16835411D01*
X4061448Y-16835411D02*
X4042400Y-16825888D01*
X4042400Y-16825888D02*
X4032876Y-16816364D01*
X4032876Y-16816364D02*
X4023353Y-16797316D01*
X4023353Y-16797316D02*
X4013829Y-16759221D01*
X4013829Y-16759221D02*
X4013829Y-16711602D01*
X4013829Y-16711602D02*
X4023353Y-16673507D01*
X4023353Y-16673507D02*
X4032876Y-16654459D01*
X4032876Y-16654459D02*
X4042400Y-16644935D01*
X4042400Y-16644935D02*
X4061448Y-16635411D01*
X4213829Y-16835411D02*
X4213829Y-16702078D01*
X4213829Y-16721126D02*
X4223353Y-16711602D01*
X4223353Y-16711602D02*
X4242400Y-16702078D01*
X4242400Y-16702078D02*
X4270972Y-16702078D01*
X4270972Y-16702078D02*
X4290019Y-16711602D01*
X4290019Y-16711602D02*
X4299543Y-16730649D01*
X4299543Y-16730649D02*
X4299543Y-16835411D01*
X4299543Y-16730649D02*
X4309067Y-16711602D01*
X4309067Y-16711602D02*
X4328115Y-16702078D01*
X4328115Y-16702078D02*
X4356686Y-16702078D01*
X4356686Y-16702078D02*
X4375734Y-16711602D01*
X4375734Y-16711602D02*
X4385257Y-16730649D01*
X4385257Y-16730649D02*
X4385257Y-16835411D01*
X4480496Y-16835411D02*
X4480496Y-16702078D01*
X4480496Y-16721126D02*
X4490019Y-16711602D01*
X4490019Y-16711602D02*
X4509067Y-16702078D01*
X4509067Y-16702078D02*
X4537638Y-16702078D01*
X4537638Y-16702078D02*
X4556686Y-16711602D01*
X4556686Y-16711602D02*
X4566210Y-16730649D01*
X4566210Y-16730649D02*
X4566210Y-16835411D01*
X4566210Y-16730649D02*
X4575734Y-16711602D01*
X4575734Y-16711602D02*
X4594781Y-16702078D01*
X4594781Y-16702078D02*
X4623353Y-16702078D01*
X4623353Y-16702078D02*
X4642400Y-16711602D01*
X4642400Y-16711602D02*
X4651924Y-16730649D01*
X4651924Y-16730649D02*
X4651924Y-16835411D01*
X5042400Y-16625888D02*
X4870972Y-16883030D01*
X5299543Y-16635411D02*
X5318591Y-16635411D01*
X5318591Y-16635411D02*
X5337639Y-16644935D01*
X5337639Y-16644935D02*
X5347162Y-16654459D01*
X5347162Y-16654459D02*
X5356686Y-16673507D01*
X5356686Y-16673507D02*
X5366210Y-16711602D01*
X5366210Y-16711602D02*
X5366210Y-16759221D01*
X5366210Y-16759221D02*
X5356686Y-16797316D01*
X5356686Y-16797316D02*
X5347162Y-16816364D01*
X5347162Y-16816364D02*
X5337639Y-16825888D01*
X5337639Y-16825888D02*
X5318591Y-16835411D01*
X5318591Y-16835411D02*
X5299543Y-16835411D01*
X5299543Y-16835411D02*
X5280496Y-16825888D01*
X5280496Y-16825888D02*
X5270972Y-16816364D01*
X5270972Y-16816364D02*
X5261448Y-16797316D01*
X5261448Y-16797316D02*
X5251924Y-16759221D01*
X5251924Y-16759221D02*
X5251924Y-16711602D01*
X5251924Y-16711602D02*
X5261448Y-16673507D01*
X5261448Y-16673507D02*
X5270972Y-16654459D01*
X5270972Y-16654459D02*
X5280496Y-16644935D01*
X5280496Y-16644935D02*
X5299543Y-16635411D01*
X5451924Y-16816364D02*
X5461448Y-16825888D01*
X5461448Y-16825888D02*
X5451924Y-16835411D01*
X5451924Y-16835411D02*
X5442400Y-16825888D01*
X5442400Y-16825888D02*
X5451924Y-16816364D01*
X5451924Y-16816364D02*
X5451924Y-16835411D01*
X5585258Y-16635411D02*
X5604305Y-16635411D01*
X5604305Y-16635411D02*
X5623353Y-16644935D01*
X5623353Y-16644935D02*
X5632877Y-16654459D01*
X5632877Y-16654459D02*
X5642400Y-16673507D01*
X5642400Y-16673507D02*
X5651924Y-16711602D01*
X5651924Y-16711602D02*
X5651924Y-16759221D01*
X5651924Y-16759221D02*
X5642400Y-16797316D01*
X5642400Y-16797316D02*
X5632877Y-16816364D01*
X5632877Y-16816364D02*
X5623353Y-16825888D01*
X5623353Y-16825888D02*
X5604305Y-16835411D01*
X5604305Y-16835411D02*
X5585258Y-16835411D01*
X5585258Y-16835411D02*
X5566210Y-16825888D01*
X5566210Y-16825888D02*
X5556686Y-16816364D01*
X5556686Y-16816364D02*
X5547162Y-16797316D01*
X5547162Y-16797316D02*
X5537639Y-16759221D01*
X5537639Y-16759221D02*
X5537639Y-16711602D01*
X5537639Y-16711602D02*
X5547162Y-16673507D01*
X5547162Y-16673507D02*
X5556686Y-16654459D01*
X5556686Y-16654459D02*
X5566210Y-16644935D01*
X5566210Y-16644935D02*
X5585258Y-16635411D01*
X5718591Y-16635411D02*
X5842400Y-16635411D01*
X5842400Y-16635411D02*
X5775734Y-16711602D01*
X5775734Y-16711602D02*
X5804305Y-16711602D01*
X5804305Y-16711602D02*
X5823353Y-16721126D01*
X5823353Y-16721126D02*
X5832877Y-16730649D01*
X5832877Y-16730649D02*
X5842400Y-16749697D01*
X5842400Y-16749697D02*
X5842400Y-16797316D01*
X5842400Y-16797316D02*
X5832877Y-16816364D01*
X5832877Y-16816364D02*
X5823353Y-16825888D01*
X5823353Y-16825888D02*
X5804305Y-16835411D01*
X5804305Y-16835411D02*
X5747162Y-16835411D01*
X5747162Y-16835411D02*
X5728115Y-16825888D01*
X5728115Y-16825888D02*
X5718591Y-16816364D01*
X6032877Y-16835411D02*
X5918591Y-16835411D01*
X5975734Y-16835411D02*
X5975734Y-16635411D01*
X5975734Y-16635411D02*
X5956686Y-16663983D01*
X5956686Y-16663983D02*
X5937638Y-16683030D01*
X5937638Y-16683030D02*
X5918591Y-16692554D01*
X6213829Y-16635411D02*
X6118591Y-16635411D01*
X6118591Y-16635411D02*
X6109067Y-16730649D01*
X6109067Y-16730649D02*
X6118591Y-16721126D01*
X6118591Y-16721126D02*
X6137638Y-16711602D01*
X6137638Y-16711602D02*
X6185258Y-16711602D01*
X6185258Y-16711602D02*
X6204305Y-16721126D01*
X6204305Y-16721126D02*
X6213829Y-16730649D01*
X6213829Y-16730649D02*
X6223353Y-16749697D01*
X6223353Y-16749697D02*
X6223353Y-16797316D01*
X6223353Y-16797316D02*
X6213829Y-16816364D01*
X6213829Y-16816364D02*
X6204305Y-16825888D01*
X6204305Y-16825888D02*
X6185258Y-16835411D01*
X6185258Y-16835411D02*
X6137638Y-16835411D01*
X6137638Y-16835411D02*
X6118591Y-16825888D01*
X6118591Y-16825888D02*
X6109067Y-16816364D01*
X6299543Y-16635411D02*
X6299543Y-16673507D01*
X6375734Y-16635411D02*
X6375734Y-16673507D01*
X6670972Y-16911602D02*
X6661448Y-16902078D01*
X6661448Y-16902078D02*
X6642400Y-16873507D01*
X6642400Y-16873507D02*
X6632877Y-16854459D01*
X6632877Y-16854459D02*
X6623353Y-16825888D01*
X6623353Y-16825888D02*
X6613829Y-16778269D01*
X6613829Y-16778269D02*
X6613829Y-16740173D01*
X6613829Y-16740173D02*
X6623353Y-16692554D01*
X6623353Y-16692554D02*
X6632877Y-16663983D01*
X6632877Y-16663983D02*
X6642400Y-16644935D01*
X6642400Y-16644935D02*
X6661448Y-16616364D01*
X6661448Y-16616364D02*
X6670972Y-16606840D01*
X6737639Y-16654459D02*
X6747162Y-16644935D01*
X6747162Y-16644935D02*
X6766210Y-16635411D01*
X6766210Y-16635411D02*
X6813829Y-16635411D01*
X6813829Y-16635411D02*
X6832877Y-16644935D01*
X6832877Y-16644935D02*
X6842400Y-16654459D01*
X6842400Y-16654459D02*
X6851924Y-16673507D01*
X6851924Y-16673507D02*
X6851924Y-16692554D01*
X6851924Y-16692554D02*
X6842400Y-16721126D01*
X6842400Y-16721126D02*
X6728115Y-16835411D01*
X6728115Y-16835411D02*
X6851924Y-16835411D01*
X7090020Y-16835411D02*
X7090020Y-16635411D01*
X7175734Y-16835411D02*
X7175734Y-16730649D01*
X7175734Y-16730649D02*
X7166210Y-16711602D01*
X7166210Y-16711602D02*
X7147162Y-16702078D01*
X7147162Y-16702078D02*
X7118591Y-16702078D01*
X7118591Y-16702078D02*
X7099543Y-16711602D01*
X7099543Y-16711602D02*
X7090020Y-16721126D01*
X7299543Y-16835411D02*
X7280496Y-16825888D01*
X7280496Y-16825888D02*
X7270972Y-16816364D01*
X7270972Y-16816364D02*
X7261448Y-16797316D01*
X7261448Y-16797316D02*
X7261448Y-16740173D01*
X7261448Y-16740173D02*
X7270972Y-16721126D01*
X7270972Y-16721126D02*
X7280496Y-16711602D01*
X7280496Y-16711602D02*
X7299543Y-16702078D01*
X7299543Y-16702078D02*
X7328115Y-16702078D01*
X7328115Y-16702078D02*
X7347162Y-16711602D01*
X7347162Y-16711602D02*
X7356686Y-16721126D01*
X7356686Y-16721126D02*
X7366210Y-16740173D01*
X7366210Y-16740173D02*
X7366210Y-16797316D01*
X7366210Y-16797316D02*
X7356686Y-16816364D01*
X7356686Y-16816364D02*
X7347162Y-16825888D01*
X7347162Y-16825888D02*
X7328115Y-16835411D01*
X7328115Y-16835411D02*
X7299543Y-16835411D01*
X7480496Y-16835411D02*
X7461448Y-16825888D01*
X7461448Y-16825888D02*
X7451924Y-16806840D01*
X7451924Y-16806840D02*
X7451924Y-16635411D01*
X7632877Y-16825888D02*
X7613829Y-16835411D01*
X7613829Y-16835411D02*
X7575734Y-16835411D01*
X7575734Y-16835411D02*
X7556686Y-16825888D01*
X7556686Y-16825888D02*
X7547162Y-16806840D01*
X7547162Y-16806840D02*
X7547162Y-16730649D01*
X7547162Y-16730649D02*
X7556686Y-16711602D01*
X7556686Y-16711602D02*
X7575734Y-16702078D01*
X7575734Y-16702078D02*
X7613829Y-16702078D01*
X7613829Y-16702078D02*
X7632877Y-16711602D01*
X7632877Y-16711602D02*
X7642401Y-16730649D01*
X7642401Y-16730649D02*
X7642401Y-16749697D01*
X7642401Y-16749697D02*
X7547162Y-16768745D01*
X7718591Y-16825888D02*
X7737639Y-16835411D01*
X7737639Y-16835411D02*
X7775734Y-16835411D01*
X7775734Y-16835411D02*
X7794782Y-16825888D01*
X7794782Y-16825888D02*
X7804305Y-16806840D01*
X7804305Y-16806840D02*
X7804305Y-16797316D01*
X7804305Y-16797316D02*
X7794782Y-16778269D01*
X7794782Y-16778269D02*
X7775734Y-16768745D01*
X7775734Y-16768745D02*
X7747162Y-16768745D01*
X7747162Y-16768745D02*
X7728115Y-16759221D01*
X7728115Y-16759221D02*
X7718591Y-16740173D01*
X7718591Y-16740173D02*
X7718591Y-16730649D01*
X7718591Y-16730649D02*
X7728115Y-16711602D01*
X7728115Y-16711602D02*
X7747162Y-16702078D01*
X7747162Y-16702078D02*
X7775734Y-16702078D01*
X7775734Y-16702078D02*
X7794782Y-16711602D01*
X7870972Y-16911602D02*
X7880496Y-16902078D01*
X7880496Y-16902078D02*
X7899543Y-16873507D01*
X7899543Y-16873507D02*
X7909067Y-16854459D01*
X7909067Y-16854459D02*
X7918591Y-16825888D01*
X7918591Y-16825888D02*
X7928115Y-16778269D01*
X7928115Y-16778269D02*
X7928115Y-16740173D01*
X7928115Y-16740173D02*
X7918591Y-16692554D01*
X7918591Y-16692554D02*
X7909067Y-16663983D01*
X7909067Y-16663983D02*
X7899543Y-16644935D01*
X7899543Y-16644935D02*
X7880496Y-16616364D01*
X7880496Y-16616364D02*
X7870972Y-16606840D01*
X8232877Y-16911602D02*
X8223353Y-16902078D01*
X8223353Y-16902078D02*
X8204305Y-16873507D01*
X8204305Y-16873507D02*
X8194782Y-16854459D01*
X8194782Y-16854459D02*
X8185258Y-16825888D01*
X8185258Y-16825888D02*
X8175734Y-16778269D01*
X8175734Y-16778269D02*
X8175734Y-16740173D01*
X8175734Y-16740173D02*
X8185258Y-16692554D01*
X8185258Y-16692554D02*
X8194782Y-16663983D01*
X8194782Y-16663983D02*
X8204305Y-16644935D01*
X8204305Y-16644935D02*
X8223353Y-16616364D01*
X8223353Y-16616364D02*
X8232877Y-16606840D01*
X8309067Y-16702078D02*
X8309067Y-16835411D01*
X8309067Y-16721126D02*
X8318591Y-16711602D01*
X8318591Y-16711602D02*
X8337639Y-16702078D01*
X8337639Y-16702078D02*
X8366210Y-16702078D01*
X8366210Y-16702078D02*
X8385258Y-16711602D01*
X8385258Y-16711602D02*
X8394782Y-16730649D01*
X8394782Y-16730649D02*
X8394782Y-16835411D01*
X8518591Y-16835411D02*
X8499544Y-16825888D01*
X8499544Y-16825888D02*
X8490020Y-16816364D01*
X8490020Y-16816364D02*
X8480496Y-16797316D01*
X8480496Y-16797316D02*
X8480496Y-16740173D01*
X8480496Y-16740173D02*
X8490020Y-16721126D01*
X8490020Y-16721126D02*
X8499544Y-16711602D01*
X8499544Y-16711602D02*
X8518591Y-16702078D01*
X8518591Y-16702078D02*
X8547163Y-16702078D01*
X8547163Y-16702078D02*
X8566210Y-16711602D01*
X8566210Y-16711602D02*
X8575734Y-16721126D01*
X8575734Y-16721126D02*
X8585258Y-16740173D01*
X8585258Y-16740173D02*
X8585258Y-16797316D01*
X8585258Y-16797316D02*
X8575734Y-16816364D01*
X8575734Y-16816364D02*
X8566210Y-16825888D01*
X8566210Y-16825888D02*
X8547163Y-16835411D01*
X8547163Y-16835411D02*
X8518591Y-16835411D01*
X8642401Y-16702078D02*
X8718591Y-16702078D01*
X8670972Y-16635411D02*
X8670972Y-16806840D01*
X8670972Y-16806840D02*
X8680496Y-16825888D01*
X8680496Y-16825888D02*
X8699544Y-16835411D01*
X8699544Y-16835411D02*
X8718591Y-16835411D01*
X8937639Y-16702078D02*
X8937639Y-16902078D01*
X8937639Y-16711602D02*
X8956686Y-16702078D01*
X8956686Y-16702078D02*
X8994782Y-16702078D01*
X8994782Y-16702078D02*
X9013829Y-16711602D01*
X9013829Y-16711602D02*
X9023353Y-16721126D01*
X9023353Y-16721126D02*
X9032877Y-16740173D01*
X9032877Y-16740173D02*
X9032877Y-16797316D01*
X9032877Y-16797316D02*
X9023353Y-16816364D01*
X9023353Y-16816364D02*
X9013829Y-16825888D01*
X9013829Y-16825888D02*
X8994782Y-16835411D01*
X8994782Y-16835411D02*
X8956686Y-16835411D01*
X8956686Y-16835411D02*
X8937639Y-16825888D01*
X9147163Y-16835411D02*
X9128115Y-16825888D01*
X9128115Y-16825888D02*
X9118591Y-16806840D01*
X9118591Y-16806840D02*
X9118591Y-16635411D01*
X9309067Y-16835411D02*
X9309067Y-16730649D01*
X9309067Y-16730649D02*
X9299544Y-16711602D01*
X9299544Y-16711602D02*
X9280496Y-16702078D01*
X9280496Y-16702078D02*
X9242401Y-16702078D01*
X9242401Y-16702078D02*
X9223353Y-16711602D01*
X9309067Y-16825888D02*
X9290020Y-16835411D01*
X9290020Y-16835411D02*
X9242401Y-16835411D01*
X9242401Y-16835411D02*
X9223353Y-16825888D01*
X9223353Y-16825888D02*
X9213829Y-16806840D01*
X9213829Y-16806840D02*
X9213829Y-16787792D01*
X9213829Y-16787792D02*
X9223353Y-16768745D01*
X9223353Y-16768745D02*
X9242401Y-16759221D01*
X9242401Y-16759221D02*
X9290020Y-16759221D01*
X9290020Y-16759221D02*
X9309067Y-16749697D01*
X9375734Y-16702078D02*
X9451925Y-16702078D01*
X9404306Y-16635411D02*
X9404306Y-16806840D01*
X9404306Y-16806840D02*
X9413829Y-16825888D01*
X9413829Y-16825888D02*
X9432877Y-16835411D01*
X9432877Y-16835411D02*
X9451925Y-16835411D01*
X9594782Y-16825888D02*
X9575734Y-16835411D01*
X9575734Y-16835411D02*
X9537639Y-16835411D01*
X9537639Y-16835411D02*
X9518591Y-16825888D01*
X9518591Y-16825888D02*
X9509067Y-16806840D01*
X9509067Y-16806840D02*
X9509067Y-16730649D01*
X9509067Y-16730649D02*
X9518591Y-16711602D01*
X9518591Y-16711602D02*
X9537639Y-16702078D01*
X9537639Y-16702078D02*
X9575734Y-16702078D01*
X9575734Y-16702078D02*
X9594782Y-16711602D01*
X9594782Y-16711602D02*
X9604306Y-16730649D01*
X9604306Y-16730649D02*
X9604306Y-16749697D01*
X9604306Y-16749697D02*
X9509067Y-16768745D01*
X9775734Y-16835411D02*
X9775734Y-16635411D01*
X9775734Y-16825888D02*
X9756687Y-16835411D01*
X9756687Y-16835411D02*
X9718591Y-16835411D01*
X9718591Y-16835411D02*
X9699544Y-16825888D01*
X9699544Y-16825888D02*
X9690020Y-16816364D01*
X9690020Y-16816364D02*
X9680496Y-16797316D01*
X9680496Y-16797316D02*
X9680496Y-16740173D01*
X9680496Y-16740173D02*
X9690020Y-16721126D01*
X9690020Y-16721126D02*
X9699544Y-16711602D01*
X9699544Y-16711602D02*
X9718591Y-16702078D01*
X9718591Y-16702078D02*
X9756687Y-16702078D01*
X9756687Y-16702078D02*
X9775734Y-16711602D01*
X9851925Y-16911602D02*
X9861448Y-16902078D01*
X9861448Y-16902078D02*
X9880496Y-16873507D01*
X9880496Y-16873507D02*
X9890020Y-16854459D01*
X9890020Y-16854459D02*
X9899544Y-16825888D01*
X9899544Y-16825888D02*
X9909067Y-16778269D01*
X9909067Y-16778269D02*
X9909067Y-16740173D01*
X9909067Y-16740173D02*
X9899544Y-16692554D01*
X9899544Y-16692554D02*
X9890020Y-16663983D01*
X9890020Y-16663983D02*
X9880496Y-16644935D01*
X9880496Y-16644935D02*
X9861448Y-16616364D01*
X9861448Y-16616364D02*
X9851925Y-16606840D01*
D13*
X3095909Y-17007928D02*
G75*
G02*
X2935909Y-17007928I-80000J0D01*
G01*
X2935909Y-17007928D02*
G75*
G02*
X3095909Y-17007928I80000J0D01*
G01*
D11*
X3461448Y-17099411D02*
X3347162Y-17099411D01*
X3404305Y-17099411D02*
X3404305Y-16899411D01*
X3404305Y-16899411D02*
X3385257Y-16927983D01*
X3385257Y-16927983D02*
X3366210Y-16947030D01*
X3366210Y-16947030D02*
X3347162Y-16956554D01*
X3547162Y-17080364D02*
X3556686Y-17089888D01*
X3556686Y-17089888D02*
X3547162Y-17099411D01*
X3547162Y-17099411D02*
X3537638Y-17089888D01*
X3537638Y-17089888D02*
X3547162Y-17080364D01*
X3547162Y-17080364D02*
X3547162Y-17099411D01*
X3728114Y-16899411D02*
X3690019Y-16899411D01*
X3690019Y-16899411D02*
X3670972Y-16908935D01*
X3670972Y-16908935D02*
X3661448Y-16918459D01*
X3661448Y-16918459D02*
X3642400Y-16947030D01*
X3642400Y-16947030D02*
X3632876Y-16985126D01*
X3632876Y-16985126D02*
X3632876Y-17061316D01*
X3632876Y-17061316D02*
X3642400Y-17080364D01*
X3642400Y-17080364D02*
X3651924Y-17089888D01*
X3651924Y-17089888D02*
X3670972Y-17099411D01*
X3670972Y-17099411D02*
X3709067Y-17099411D01*
X3709067Y-17099411D02*
X3728114Y-17089888D01*
X3728114Y-17089888D02*
X3737638Y-17080364D01*
X3737638Y-17080364D02*
X3747162Y-17061316D01*
X3747162Y-17061316D02*
X3747162Y-17013697D01*
X3747162Y-17013697D02*
X3737638Y-16994650D01*
X3737638Y-16994650D02*
X3728114Y-16985126D01*
X3728114Y-16985126D02*
X3709067Y-16975602D01*
X3709067Y-16975602D02*
X3670972Y-16975602D01*
X3670972Y-16975602D02*
X3651924Y-16985126D01*
X3651924Y-16985126D02*
X3642400Y-16994650D01*
X3642400Y-16994650D02*
X3632876Y-17013697D01*
X3870972Y-16899411D02*
X3890019Y-16899411D01*
X3890019Y-16899411D02*
X3909067Y-16908935D01*
X3909067Y-16908935D02*
X3918591Y-16918459D01*
X3918591Y-16918459D02*
X3928114Y-16937507D01*
X3928114Y-16937507D02*
X3937638Y-16975602D01*
X3937638Y-16975602D02*
X3937638Y-17023221D01*
X3937638Y-17023221D02*
X3928114Y-17061316D01*
X3928114Y-17061316D02*
X3918591Y-17080364D01*
X3918591Y-17080364D02*
X3909067Y-17089888D01*
X3909067Y-17089888D02*
X3890019Y-17099411D01*
X3890019Y-17099411D02*
X3870972Y-17099411D01*
X3870972Y-17099411D02*
X3851924Y-17089888D01*
X3851924Y-17089888D02*
X3842400Y-17080364D01*
X3842400Y-17080364D02*
X3832876Y-17061316D01*
X3832876Y-17061316D02*
X3823353Y-17023221D01*
X3823353Y-17023221D02*
X3823353Y-16975602D01*
X3823353Y-16975602D02*
X3832876Y-16937507D01*
X3832876Y-16937507D02*
X3842400Y-16918459D01*
X3842400Y-16918459D02*
X3851924Y-16908935D01*
X3851924Y-16908935D02*
X3870972Y-16899411D01*
X4061448Y-16899411D02*
X4080495Y-16899411D01*
X4080495Y-16899411D02*
X4099543Y-16908935D01*
X4099543Y-16908935D02*
X4109067Y-16918459D01*
X4109067Y-16918459D02*
X4118591Y-16937507D01*
X4118591Y-16937507D02*
X4128114Y-16975602D01*
X4128114Y-16975602D02*
X4128114Y-17023221D01*
X4128114Y-17023221D02*
X4118591Y-17061316D01*
X4118591Y-17061316D02*
X4109067Y-17080364D01*
X4109067Y-17080364D02*
X4099543Y-17089888D01*
X4099543Y-17089888D02*
X4080495Y-17099411D01*
X4080495Y-17099411D02*
X4061448Y-17099411D01*
X4061448Y-17099411D02*
X4042400Y-17089888D01*
X4042400Y-17089888D02*
X4032876Y-17080364D01*
X4032876Y-17080364D02*
X4023353Y-17061316D01*
X4023353Y-17061316D02*
X4013829Y-17023221D01*
X4013829Y-17023221D02*
X4013829Y-16975602D01*
X4013829Y-16975602D02*
X4023353Y-16937507D01*
X4023353Y-16937507D02*
X4032876Y-16918459D01*
X4032876Y-16918459D02*
X4042400Y-16908935D01*
X4042400Y-16908935D02*
X4061448Y-16899411D01*
X4213829Y-17099411D02*
X4213829Y-16966078D01*
X4213829Y-16985126D02*
X4223353Y-16975602D01*
X4223353Y-16975602D02*
X4242400Y-16966078D01*
X4242400Y-16966078D02*
X4270972Y-16966078D01*
X4270972Y-16966078D02*
X4290019Y-16975602D01*
X4290019Y-16975602D02*
X4299543Y-16994650D01*
X4299543Y-16994650D02*
X4299543Y-17099411D01*
X4299543Y-16994650D02*
X4309067Y-16975602D01*
X4309067Y-16975602D02*
X4328115Y-16966078D01*
X4328115Y-16966078D02*
X4356686Y-16966078D01*
X4356686Y-16966078D02*
X4375734Y-16975602D01*
X4375734Y-16975602D02*
X4385257Y-16994650D01*
X4385257Y-16994650D02*
X4385257Y-17099411D01*
X4480496Y-17099411D02*
X4480496Y-16966078D01*
X4480496Y-16985126D02*
X4490019Y-16975602D01*
X4490019Y-16975602D02*
X4509067Y-16966078D01*
X4509067Y-16966078D02*
X4537638Y-16966078D01*
X4537638Y-16966078D02*
X4556686Y-16975602D01*
X4556686Y-16975602D02*
X4566210Y-16994650D01*
X4566210Y-16994650D02*
X4566210Y-17099411D01*
X4566210Y-16994650D02*
X4575734Y-16975602D01*
X4575734Y-16975602D02*
X4594781Y-16966078D01*
X4594781Y-16966078D02*
X4623353Y-16966078D01*
X4623353Y-16966078D02*
X4642400Y-16975602D01*
X4642400Y-16975602D02*
X4651924Y-16994650D01*
X4651924Y-16994650D02*
X4651924Y-17099411D01*
X5042400Y-16889888D02*
X4870972Y-17147030D01*
X5299543Y-16899411D02*
X5318591Y-16899411D01*
X5318591Y-16899411D02*
X5337639Y-16908935D01*
X5337639Y-16908935D02*
X5347162Y-16918459D01*
X5347162Y-16918459D02*
X5356686Y-16937507D01*
X5356686Y-16937507D02*
X5366210Y-16975602D01*
X5366210Y-16975602D02*
X5366210Y-17023221D01*
X5366210Y-17023221D02*
X5356686Y-17061316D01*
X5356686Y-17061316D02*
X5347162Y-17080364D01*
X5347162Y-17080364D02*
X5337639Y-17089888D01*
X5337639Y-17089888D02*
X5318591Y-17099411D01*
X5318591Y-17099411D02*
X5299543Y-17099411D01*
X5299543Y-17099411D02*
X5280496Y-17089888D01*
X5280496Y-17089888D02*
X5270972Y-17080364D01*
X5270972Y-17080364D02*
X5261448Y-17061316D01*
X5261448Y-17061316D02*
X5251924Y-17023221D01*
X5251924Y-17023221D02*
X5251924Y-16975602D01*
X5251924Y-16975602D02*
X5261448Y-16937507D01*
X5261448Y-16937507D02*
X5270972Y-16918459D01*
X5270972Y-16918459D02*
X5280496Y-16908935D01*
X5280496Y-16908935D02*
X5299543Y-16899411D01*
X5451924Y-17080364D02*
X5461448Y-17089888D01*
X5461448Y-17089888D02*
X5451924Y-17099411D01*
X5451924Y-17099411D02*
X5442400Y-17089888D01*
X5442400Y-17089888D02*
X5451924Y-17080364D01*
X5451924Y-17080364D02*
X5451924Y-17099411D01*
X5585258Y-16899411D02*
X5604305Y-16899411D01*
X5604305Y-16899411D02*
X5623353Y-16908935D01*
X5623353Y-16908935D02*
X5632877Y-16918459D01*
X5632877Y-16918459D02*
X5642400Y-16937507D01*
X5642400Y-16937507D02*
X5651924Y-16975602D01*
X5651924Y-16975602D02*
X5651924Y-17023221D01*
X5651924Y-17023221D02*
X5642400Y-17061316D01*
X5642400Y-17061316D02*
X5632877Y-17080364D01*
X5632877Y-17080364D02*
X5623353Y-17089888D01*
X5623353Y-17089888D02*
X5604305Y-17099411D01*
X5604305Y-17099411D02*
X5585258Y-17099411D01*
X5585258Y-17099411D02*
X5566210Y-17089888D01*
X5566210Y-17089888D02*
X5556686Y-17080364D01*
X5556686Y-17080364D02*
X5547162Y-17061316D01*
X5547162Y-17061316D02*
X5537639Y-17023221D01*
X5537639Y-17023221D02*
X5537639Y-16975602D01*
X5537639Y-16975602D02*
X5547162Y-16937507D01*
X5547162Y-16937507D02*
X5556686Y-16918459D01*
X5556686Y-16918459D02*
X5566210Y-16908935D01*
X5566210Y-16908935D02*
X5585258Y-16899411D01*
X5823353Y-16899411D02*
X5785257Y-16899411D01*
X5785257Y-16899411D02*
X5766210Y-16908935D01*
X5766210Y-16908935D02*
X5756686Y-16918459D01*
X5756686Y-16918459D02*
X5737638Y-16947030D01*
X5737638Y-16947030D02*
X5728115Y-16985126D01*
X5728115Y-16985126D02*
X5728115Y-17061316D01*
X5728115Y-17061316D02*
X5737638Y-17080364D01*
X5737638Y-17080364D02*
X5747162Y-17089888D01*
X5747162Y-17089888D02*
X5766210Y-17099411D01*
X5766210Y-17099411D02*
X5804305Y-17099411D01*
X5804305Y-17099411D02*
X5823353Y-17089888D01*
X5823353Y-17089888D02*
X5832877Y-17080364D01*
X5832877Y-17080364D02*
X5842400Y-17061316D01*
X5842400Y-17061316D02*
X5842400Y-17013697D01*
X5842400Y-17013697D02*
X5832877Y-16994650D01*
X5832877Y-16994650D02*
X5823353Y-16985126D01*
X5823353Y-16985126D02*
X5804305Y-16975602D01*
X5804305Y-16975602D02*
X5766210Y-16975602D01*
X5766210Y-16975602D02*
X5747162Y-16985126D01*
X5747162Y-16985126D02*
X5737638Y-16994650D01*
X5737638Y-16994650D02*
X5728115Y-17013697D01*
X5909067Y-16899411D02*
X6032877Y-16899411D01*
X6032877Y-16899411D02*
X5966210Y-16975602D01*
X5966210Y-16975602D02*
X5994781Y-16975602D01*
X5994781Y-16975602D02*
X6013829Y-16985126D01*
X6013829Y-16985126D02*
X6023353Y-16994650D01*
X6023353Y-16994650D02*
X6032877Y-17013697D01*
X6032877Y-17013697D02*
X6032877Y-17061316D01*
X6032877Y-17061316D02*
X6023353Y-17080364D01*
X6023353Y-17080364D02*
X6013829Y-17089888D01*
X6013829Y-17089888D02*
X5994781Y-17099411D01*
X5994781Y-17099411D02*
X5937638Y-17099411D01*
X5937638Y-17099411D02*
X5918591Y-17089888D01*
X5918591Y-17089888D02*
X5909067Y-17080364D01*
X6156686Y-16899411D02*
X6175734Y-16899411D01*
X6175734Y-16899411D02*
X6194781Y-16908935D01*
X6194781Y-16908935D02*
X6204305Y-16918459D01*
X6204305Y-16918459D02*
X6213829Y-16937507D01*
X6213829Y-16937507D02*
X6223353Y-16975602D01*
X6223353Y-16975602D02*
X6223353Y-17023221D01*
X6223353Y-17023221D02*
X6213829Y-17061316D01*
X6213829Y-17061316D02*
X6204305Y-17080364D01*
X6204305Y-17080364D02*
X6194781Y-17089888D01*
X6194781Y-17089888D02*
X6175734Y-17099411D01*
X6175734Y-17099411D02*
X6156686Y-17099411D01*
X6156686Y-17099411D02*
X6137638Y-17089888D01*
X6137638Y-17089888D02*
X6128115Y-17080364D01*
X6128115Y-17080364D02*
X6118591Y-17061316D01*
X6118591Y-17061316D02*
X6109067Y-17023221D01*
X6109067Y-17023221D02*
X6109067Y-16975602D01*
X6109067Y-16975602D02*
X6118591Y-16937507D01*
X6118591Y-16937507D02*
X6128115Y-16918459D01*
X6128115Y-16918459D02*
X6137638Y-16908935D01*
X6137638Y-16908935D02*
X6156686Y-16899411D01*
X6299543Y-16899411D02*
X6299543Y-16937507D01*
X6375734Y-16899411D02*
X6375734Y-16937507D01*
X6670972Y-17175602D02*
X6661448Y-17166078D01*
X6661448Y-17166078D02*
X6642400Y-17137507D01*
X6642400Y-17137507D02*
X6632877Y-17118459D01*
X6632877Y-17118459D02*
X6623353Y-17089888D01*
X6623353Y-17089888D02*
X6613829Y-17042269D01*
X6613829Y-17042269D02*
X6613829Y-17004173D01*
X6613829Y-17004173D02*
X6623353Y-16956554D01*
X6623353Y-16956554D02*
X6632877Y-16927983D01*
X6632877Y-16927983D02*
X6642400Y-16908935D01*
X6642400Y-16908935D02*
X6661448Y-16880364D01*
X6661448Y-16880364D02*
X6670972Y-16870840D01*
X6737639Y-16918459D02*
X6747162Y-16908935D01*
X6747162Y-16908935D02*
X6766210Y-16899411D01*
X6766210Y-16899411D02*
X6813829Y-16899411D01*
X6813829Y-16899411D02*
X6832877Y-16908935D01*
X6832877Y-16908935D02*
X6842400Y-16918459D01*
X6842400Y-16918459D02*
X6851924Y-16937507D01*
X6851924Y-16937507D02*
X6851924Y-16956554D01*
X6851924Y-16956554D02*
X6842400Y-16985126D01*
X6842400Y-16985126D02*
X6728115Y-17099411D01*
X6728115Y-17099411D02*
X6851924Y-17099411D01*
X6918591Y-16899411D02*
X7051924Y-16899411D01*
X7051924Y-16899411D02*
X6966210Y-17099411D01*
X7280496Y-17099411D02*
X7280496Y-16899411D01*
X7366210Y-17099411D02*
X7366210Y-16994650D01*
X7366210Y-16994650D02*
X7356686Y-16975602D01*
X7356686Y-16975602D02*
X7337639Y-16966078D01*
X7337639Y-16966078D02*
X7309067Y-16966078D01*
X7309067Y-16966078D02*
X7290020Y-16975602D01*
X7290020Y-16975602D02*
X7280496Y-16985126D01*
X7490020Y-17099411D02*
X7470972Y-17089888D01*
X7470972Y-17089888D02*
X7461448Y-17080364D01*
X7461448Y-17080364D02*
X7451924Y-17061316D01*
X7451924Y-17061316D02*
X7451924Y-17004173D01*
X7451924Y-17004173D02*
X7461448Y-16985126D01*
X7461448Y-16985126D02*
X7470972Y-16975602D01*
X7470972Y-16975602D02*
X7490020Y-16966078D01*
X7490020Y-16966078D02*
X7518591Y-16966078D01*
X7518591Y-16966078D02*
X7537639Y-16975602D01*
X7537639Y-16975602D02*
X7547162Y-16985126D01*
X7547162Y-16985126D02*
X7556686Y-17004173D01*
X7556686Y-17004173D02*
X7556686Y-17061316D01*
X7556686Y-17061316D02*
X7547162Y-17080364D01*
X7547162Y-17080364D02*
X7537639Y-17089888D01*
X7537639Y-17089888D02*
X7518591Y-17099411D01*
X7518591Y-17099411D02*
X7490020Y-17099411D01*
X7670972Y-17099411D02*
X7651924Y-17089888D01*
X7651924Y-17089888D02*
X7642401Y-17070840D01*
X7642401Y-17070840D02*
X7642401Y-16899411D01*
X7823353Y-17089888D02*
X7804305Y-17099411D01*
X7804305Y-17099411D02*
X7766210Y-17099411D01*
X7766210Y-17099411D02*
X7747162Y-17089888D01*
X7747162Y-17089888D02*
X7737639Y-17070840D01*
X7737639Y-17070840D02*
X7737639Y-16994650D01*
X7737639Y-16994650D02*
X7747162Y-16975602D01*
X7747162Y-16975602D02*
X7766210Y-16966078D01*
X7766210Y-16966078D02*
X7804305Y-16966078D01*
X7804305Y-16966078D02*
X7823353Y-16975602D01*
X7823353Y-16975602D02*
X7832877Y-16994650D01*
X7832877Y-16994650D02*
X7832877Y-17013697D01*
X7832877Y-17013697D02*
X7737639Y-17032745D01*
X7909067Y-17089888D02*
X7928115Y-17099411D01*
X7928115Y-17099411D02*
X7966210Y-17099411D01*
X7966210Y-17099411D02*
X7985258Y-17089888D01*
X7985258Y-17089888D02*
X7994782Y-17070840D01*
X7994782Y-17070840D02*
X7994782Y-17061316D01*
X7994782Y-17061316D02*
X7985258Y-17042269D01*
X7985258Y-17042269D02*
X7966210Y-17032745D01*
X7966210Y-17032745D02*
X7937639Y-17032745D01*
X7937639Y-17032745D02*
X7918591Y-17023221D01*
X7918591Y-17023221D02*
X7909067Y-17004173D01*
X7909067Y-17004173D02*
X7909067Y-16994650D01*
X7909067Y-16994650D02*
X7918591Y-16975602D01*
X7918591Y-16975602D02*
X7937639Y-16966078D01*
X7937639Y-16966078D02*
X7966210Y-16966078D01*
X7966210Y-16966078D02*
X7985258Y-16975602D01*
X8061448Y-17175602D02*
X8070972Y-17166078D01*
X8070972Y-17166078D02*
X8090020Y-17137507D01*
X8090020Y-17137507D02*
X8099543Y-17118459D01*
X8099543Y-17118459D02*
X8109067Y-17089888D01*
X8109067Y-17089888D02*
X8118591Y-17042269D01*
X8118591Y-17042269D02*
X8118591Y-17004173D01*
X8118591Y-17004173D02*
X8109067Y-16956554D01*
X8109067Y-16956554D02*
X8099543Y-16927983D01*
X8099543Y-16927983D02*
X8090020Y-16908935D01*
X8090020Y-16908935D02*
X8070972Y-16880364D01*
X8070972Y-16880364D02*
X8061448Y-16870840D01*
X8423353Y-17175602D02*
X8413829Y-17166078D01*
X8413829Y-17166078D02*
X8394782Y-17137507D01*
X8394782Y-17137507D02*
X8385258Y-17118459D01*
X8385258Y-17118459D02*
X8375734Y-17089888D01*
X8375734Y-17089888D02*
X8366210Y-17042269D01*
X8366210Y-17042269D02*
X8366210Y-17004173D01*
X8366210Y-17004173D02*
X8375734Y-16956554D01*
X8375734Y-16956554D02*
X8385258Y-16927983D01*
X8385258Y-16927983D02*
X8394782Y-16908935D01*
X8394782Y-16908935D02*
X8413829Y-16880364D01*
X8413829Y-16880364D02*
X8423353Y-16870840D01*
X8499544Y-16966078D02*
X8499544Y-17099411D01*
X8499544Y-16985126D02*
X8509067Y-16975602D01*
X8509067Y-16975602D02*
X8528115Y-16966078D01*
X8528115Y-16966078D02*
X8556686Y-16966078D01*
X8556686Y-16966078D02*
X8575734Y-16975602D01*
X8575734Y-16975602D02*
X8585258Y-16994650D01*
X8585258Y-16994650D02*
X8585258Y-17099411D01*
X8709067Y-17099411D02*
X8690020Y-17089888D01*
X8690020Y-17089888D02*
X8680496Y-17080364D01*
X8680496Y-17080364D02*
X8670972Y-17061316D01*
X8670972Y-17061316D02*
X8670972Y-17004173D01*
X8670972Y-17004173D02*
X8680496Y-16985126D01*
X8680496Y-16985126D02*
X8690020Y-16975602D01*
X8690020Y-16975602D02*
X8709067Y-16966078D01*
X8709067Y-16966078D02*
X8737639Y-16966078D01*
X8737639Y-16966078D02*
X8756686Y-16975602D01*
X8756686Y-16975602D02*
X8766210Y-16985126D01*
X8766210Y-16985126D02*
X8775734Y-17004173D01*
X8775734Y-17004173D02*
X8775734Y-17061316D01*
X8775734Y-17061316D02*
X8766210Y-17080364D01*
X8766210Y-17080364D02*
X8756686Y-17089888D01*
X8756686Y-17089888D02*
X8737639Y-17099411D01*
X8737639Y-17099411D02*
X8709067Y-17099411D01*
X8832877Y-16966078D02*
X8909067Y-16966078D01*
X8861448Y-16899411D02*
X8861448Y-17070840D01*
X8861448Y-17070840D02*
X8870972Y-17089888D01*
X8870972Y-17089888D02*
X8890020Y-17099411D01*
X8890020Y-17099411D02*
X8909067Y-17099411D01*
X9128115Y-16966078D02*
X9128115Y-17166078D01*
X9128115Y-16975602D02*
X9147163Y-16966078D01*
X9147163Y-16966078D02*
X9185258Y-16966078D01*
X9185258Y-16966078D02*
X9204306Y-16975602D01*
X9204306Y-16975602D02*
X9213829Y-16985126D01*
X9213829Y-16985126D02*
X9223353Y-17004173D01*
X9223353Y-17004173D02*
X9223353Y-17061316D01*
X9223353Y-17061316D02*
X9213829Y-17080364D01*
X9213829Y-17080364D02*
X9204306Y-17089888D01*
X9204306Y-17089888D02*
X9185258Y-17099411D01*
X9185258Y-17099411D02*
X9147163Y-17099411D01*
X9147163Y-17099411D02*
X9128115Y-17089888D01*
X9337639Y-17099411D02*
X9318591Y-17089888D01*
X9318591Y-17089888D02*
X9309067Y-17070840D01*
X9309067Y-17070840D02*
X9309067Y-16899411D01*
X9499544Y-17099411D02*
X9499544Y-16994650D01*
X9499544Y-16994650D02*
X9490020Y-16975602D01*
X9490020Y-16975602D02*
X9470972Y-16966078D01*
X9470972Y-16966078D02*
X9432877Y-16966078D01*
X9432877Y-16966078D02*
X9413829Y-16975602D01*
X9499544Y-17089888D02*
X9480496Y-17099411D01*
X9480496Y-17099411D02*
X9432877Y-17099411D01*
X9432877Y-17099411D02*
X9413829Y-17089888D01*
X9413829Y-17089888D02*
X9404306Y-17070840D01*
X9404306Y-17070840D02*
X9404306Y-17051792D01*
X9404306Y-17051792D02*
X9413829Y-17032745D01*
X9413829Y-17032745D02*
X9432877Y-17023221D01*
X9432877Y-17023221D02*
X9480496Y-17023221D01*
X9480496Y-17023221D02*
X9499544Y-17013697D01*
X9566210Y-16966078D02*
X9642401Y-16966078D01*
X9594782Y-16899411D02*
X9594782Y-17070840D01*
X9594782Y-17070840D02*
X9604306Y-17089888D01*
X9604306Y-17089888D02*
X9623353Y-17099411D01*
X9623353Y-17099411D02*
X9642401Y-17099411D01*
X9785258Y-17089888D02*
X9766210Y-17099411D01*
X9766210Y-17099411D02*
X9728115Y-17099411D01*
X9728115Y-17099411D02*
X9709067Y-17089888D01*
X9709067Y-17089888D02*
X9699544Y-17070840D01*
X9699544Y-17070840D02*
X9699544Y-16994650D01*
X9699544Y-16994650D02*
X9709067Y-16975602D01*
X9709067Y-16975602D02*
X9728115Y-16966078D01*
X9728115Y-16966078D02*
X9766210Y-16966078D01*
X9766210Y-16966078D02*
X9785258Y-16975602D01*
X9785258Y-16975602D02*
X9794782Y-16994650D01*
X9794782Y-16994650D02*
X9794782Y-17013697D01*
X9794782Y-17013697D02*
X9699544Y-17032745D01*
X9966210Y-17099411D02*
X9966210Y-16899411D01*
X9966210Y-17089888D02*
X9947163Y-17099411D01*
X9947163Y-17099411D02*
X9909067Y-17099411D01*
X9909067Y-17099411D02*
X9890020Y-17089888D01*
X9890020Y-17089888D02*
X9880496Y-17080364D01*
X9880496Y-17080364D02*
X9870972Y-17061316D01*
X9870972Y-17061316D02*
X9870972Y-17004173D01*
X9870972Y-17004173D02*
X9880496Y-16985126D01*
X9880496Y-16985126D02*
X9890020Y-16975602D01*
X9890020Y-16975602D02*
X9909067Y-16966078D01*
X9909067Y-16966078D02*
X9947163Y-16966078D01*
X9947163Y-16966078D02*
X9966210Y-16975602D01*
X10042401Y-17175602D02*
X10051925Y-17166078D01*
X10051925Y-17166078D02*
X10070972Y-17137507D01*
X10070972Y-17137507D02*
X10080496Y-17118459D01*
X10080496Y-17118459D02*
X10090020Y-17089888D01*
X10090020Y-17089888D02*
X10099544Y-17042269D01*
X10099544Y-17042269D02*
X10099544Y-17004173D01*
X10099544Y-17004173D02*
X10090020Y-16956554D01*
X10090020Y-16956554D02*
X10080496Y-16927983D01*
X10080496Y-16927983D02*
X10070972Y-16908935D01*
X10070972Y-16908935D02*
X10051925Y-16880364D01*
X10051925Y-16880364D02*
X10042401Y-16870840D01*
X2995909Y-17187928D02*
X2995909Y-17387928D01*
X2895909Y-17287928D02*
X3095909Y-17287928D01*
X3347162Y-17198459D02*
X3356686Y-17188935D01*
X3356686Y-17188935D02*
X3375733Y-17179411D01*
X3375733Y-17179411D02*
X3423353Y-17179411D01*
X3423353Y-17179411D02*
X3442400Y-17188935D01*
X3442400Y-17188935D02*
X3451924Y-17198459D01*
X3451924Y-17198459D02*
X3461448Y-17217507D01*
X3461448Y-17217507D02*
X3461448Y-17236554D01*
X3461448Y-17236554D02*
X3451924Y-17265126D01*
X3451924Y-17265126D02*
X3337638Y-17379411D01*
X3337638Y-17379411D02*
X3461448Y-17379411D01*
X3547162Y-17360364D02*
X3556686Y-17369888D01*
X3556686Y-17369888D02*
X3547162Y-17379411D01*
X3547162Y-17379411D02*
X3537638Y-17369888D01*
X3537638Y-17369888D02*
X3547162Y-17360364D01*
X3547162Y-17360364D02*
X3547162Y-17379411D01*
X3632876Y-17198459D02*
X3642400Y-17188935D01*
X3642400Y-17188935D02*
X3661448Y-17179411D01*
X3661448Y-17179411D02*
X3709067Y-17179411D01*
X3709067Y-17179411D02*
X3728114Y-17188935D01*
X3728114Y-17188935D02*
X3737638Y-17198459D01*
X3737638Y-17198459D02*
X3747162Y-17217507D01*
X3747162Y-17217507D02*
X3747162Y-17236554D01*
X3747162Y-17236554D02*
X3737638Y-17265126D01*
X3737638Y-17265126D02*
X3623353Y-17379411D01*
X3623353Y-17379411D02*
X3747162Y-17379411D01*
X3870972Y-17179411D02*
X3890019Y-17179411D01*
X3890019Y-17179411D02*
X3909067Y-17188935D01*
X3909067Y-17188935D02*
X3918591Y-17198459D01*
X3918591Y-17198459D02*
X3928114Y-17217507D01*
X3928114Y-17217507D02*
X3937638Y-17255602D01*
X3937638Y-17255602D02*
X3937638Y-17303221D01*
X3937638Y-17303221D02*
X3928114Y-17341316D01*
X3928114Y-17341316D02*
X3918591Y-17360364D01*
X3918591Y-17360364D02*
X3909067Y-17369888D01*
X3909067Y-17369888D02*
X3890019Y-17379411D01*
X3890019Y-17379411D02*
X3870972Y-17379411D01*
X3870972Y-17379411D02*
X3851924Y-17369888D01*
X3851924Y-17369888D02*
X3842400Y-17360364D01*
X3842400Y-17360364D02*
X3832876Y-17341316D01*
X3832876Y-17341316D02*
X3823353Y-17303221D01*
X3823353Y-17303221D02*
X3823353Y-17255602D01*
X3823353Y-17255602D02*
X3832876Y-17217507D01*
X3832876Y-17217507D02*
X3842400Y-17198459D01*
X3842400Y-17198459D02*
X3851924Y-17188935D01*
X3851924Y-17188935D02*
X3870972Y-17179411D01*
X4061448Y-17179411D02*
X4080495Y-17179411D01*
X4080495Y-17179411D02*
X4099543Y-17188935D01*
X4099543Y-17188935D02*
X4109067Y-17198459D01*
X4109067Y-17198459D02*
X4118591Y-17217507D01*
X4118591Y-17217507D02*
X4128114Y-17255602D01*
X4128114Y-17255602D02*
X4128114Y-17303221D01*
X4128114Y-17303221D02*
X4118591Y-17341316D01*
X4118591Y-17341316D02*
X4109067Y-17360364D01*
X4109067Y-17360364D02*
X4099543Y-17369888D01*
X4099543Y-17369888D02*
X4080495Y-17379411D01*
X4080495Y-17379411D02*
X4061448Y-17379411D01*
X4061448Y-17379411D02*
X4042400Y-17369888D01*
X4042400Y-17369888D02*
X4032876Y-17360364D01*
X4032876Y-17360364D02*
X4023353Y-17341316D01*
X4023353Y-17341316D02*
X4013829Y-17303221D01*
X4013829Y-17303221D02*
X4013829Y-17255602D01*
X4013829Y-17255602D02*
X4023353Y-17217507D01*
X4023353Y-17217507D02*
X4032876Y-17198459D01*
X4032876Y-17198459D02*
X4042400Y-17188935D01*
X4042400Y-17188935D02*
X4061448Y-17179411D01*
X4213829Y-17379411D02*
X4213829Y-17246078D01*
X4213829Y-17265126D02*
X4223353Y-17255602D01*
X4223353Y-17255602D02*
X4242400Y-17246078D01*
X4242400Y-17246078D02*
X4270972Y-17246078D01*
X4270972Y-17246078D02*
X4290019Y-17255602D01*
X4290019Y-17255602D02*
X4299543Y-17274650D01*
X4299543Y-17274650D02*
X4299543Y-17379411D01*
X4299543Y-17274650D02*
X4309067Y-17255602D01*
X4309067Y-17255602D02*
X4328115Y-17246078D01*
X4328115Y-17246078D02*
X4356686Y-17246078D01*
X4356686Y-17246078D02*
X4375734Y-17255602D01*
X4375734Y-17255602D02*
X4385257Y-17274650D01*
X4385257Y-17274650D02*
X4385257Y-17379411D01*
X4480496Y-17379411D02*
X4480496Y-17246078D01*
X4480496Y-17265126D02*
X4490019Y-17255602D01*
X4490019Y-17255602D02*
X4509067Y-17246078D01*
X4509067Y-17246078D02*
X4537638Y-17246078D01*
X4537638Y-17246078D02*
X4556686Y-17255602D01*
X4556686Y-17255602D02*
X4566210Y-17274650D01*
X4566210Y-17274650D02*
X4566210Y-17379411D01*
X4566210Y-17274650D02*
X4575734Y-17255602D01*
X4575734Y-17255602D02*
X4594781Y-17246078D01*
X4594781Y-17246078D02*
X4623353Y-17246078D01*
X4623353Y-17246078D02*
X4642400Y-17255602D01*
X4642400Y-17255602D02*
X4651924Y-17274650D01*
X4651924Y-17274650D02*
X4651924Y-17379411D01*
X5042400Y-17169888D02*
X4870972Y-17427030D01*
X5299543Y-17179411D02*
X5318591Y-17179411D01*
X5318591Y-17179411D02*
X5337639Y-17188935D01*
X5337639Y-17188935D02*
X5347162Y-17198459D01*
X5347162Y-17198459D02*
X5356686Y-17217507D01*
X5356686Y-17217507D02*
X5366210Y-17255602D01*
X5366210Y-17255602D02*
X5366210Y-17303221D01*
X5366210Y-17303221D02*
X5356686Y-17341316D01*
X5356686Y-17341316D02*
X5347162Y-17360364D01*
X5347162Y-17360364D02*
X5337639Y-17369888D01*
X5337639Y-17369888D02*
X5318591Y-17379411D01*
X5318591Y-17379411D02*
X5299543Y-17379411D01*
X5299543Y-17379411D02*
X5280496Y-17369888D01*
X5280496Y-17369888D02*
X5270972Y-17360364D01*
X5270972Y-17360364D02*
X5261448Y-17341316D01*
X5261448Y-17341316D02*
X5251924Y-17303221D01*
X5251924Y-17303221D02*
X5251924Y-17255602D01*
X5251924Y-17255602D02*
X5261448Y-17217507D01*
X5261448Y-17217507D02*
X5270972Y-17198459D01*
X5270972Y-17198459D02*
X5280496Y-17188935D01*
X5280496Y-17188935D02*
X5299543Y-17179411D01*
X5451924Y-17360364D02*
X5461448Y-17369888D01*
X5461448Y-17369888D02*
X5451924Y-17379411D01*
X5451924Y-17379411D02*
X5442400Y-17369888D01*
X5442400Y-17369888D02*
X5451924Y-17360364D01*
X5451924Y-17360364D02*
X5451924Y-17379411D01*
X5585258Y-17179411D02*
X5604305Y-17179411D01*
X5604305Y-17179411D02*
X5623353Y-17188935D01*
X5623353Y-17188935D02*
X5632877Y-17198459D01*
X5632877Y-17198459D02*
X5642400Y-17217507D01*
X5642400Y-17217507D02*
X5651924Y-17255602D01*
X5651924Y-17255602D02*
X5651924Y-17303221D01*
X5651924Y-17303221D02*
X5642400Y-17341316D01*
X5642400Y-17341316D02*
X5632877Y-17360364D01*
X5632877Y-17360364D02*
X5623353Y-17369888D01*
X5623353Y-17369888D02*
X5604305Y-17379411D01*
X5604305Y-17379411D02*
X5585258Y-17379411D01*
X5585258Y-17379411D02*
X5566210Y-17369888D01*
X5566210Y-17369888D02*
X5556686Y-17360364D01*
X5556686Y-17360364D02*
X5547162Y-17341316D01*
X5547162Y-17341316D02*
X5537639Y-17303221D01*
X5537639Y-17303221D02*
X5537639Y-17255602D01*
X5537639Y-17255602D02*
X5547162Y-17217507D01*
X5547162Y-17217507D02*
X5556686Y-17198459D01*
X5556686Y-17198459D02*
X5566210Y-17188935D01*
X5566210Y-17188935D02*
X5585258Y-17179411D01*
X5766210Y-17265126D02*
X5747162Y-17255602D01*
X5747162Y-17255602D02*
X5737638Y-17246078D01*
X5737638Y-17246078D02*
X5728115Y-17227030D01*
X5728115Y-17227030D02*
X5728115Y-17217507D01*
X5728115Y-17217507D02*
X5737638Y-17198459D01*
X5737638Y-17198459D02*
X5747162Y-17188935D01*
X5747162Y-17188935D02*
X5766210Y-17179411D01*
X5766210Y-17179411D02*
X5804305Y-17179411D01*
X5804305Y-17179411D02*
X5823353Y-17188935D01*
X5823353Y-17188935D02*
X5832877Y-17198459D01*
X5832877Y-17198459D02*
X5842400Y-17217507D01*
X5842400Y-17217507D02*
X5842400Y-17227030D01*
X5842400Y-17227030D02*
X5832877Y-17246078D01*
X5832877Y-17246078D02*
X5823353Y-17255602D01*
X5823353Y-17255602D02*
X5804305Y-17265126D01*
X5804305Y-17265126D02*
X5766210Y-17265126D01*
X5766210Y-17265126D02*
X5747162Y-17274650D01*
X5747162Y-17274650D02*
X5737638Y-17284173D01*
X5737638Y-17284173D02*
X5728115Y-17303221D01*
X5728115Y-17303221D02*
X5728115Y-17341316D01*
X5728115Y-17341316D02*
X5737638Y-17360364D01*
X5737638Y-17360364D02*
X5747162Y-17369888D01*
X5747162Y-17369888D02*
X5766210Y-17379411D01*
X5766210Y-17379411D02*
X5804305Y-17379411D01*
X5804305Y-17379411D02*
X5823353Y-17369888D01*
X5823353Y-17369888D02*
X5832877Y-17360364D01*
X5832877Y-17360364D02*
X5842400Y-17341316D01*
X5842400Y-17341316D02*
X5842400Y-17303221D01*
X5842400Y-17303221D02*
X5832877Y-17284173D01*
X5832877Y-17284173D02*
X5823353Y-17274650D01*
X5823353Y-17274650D02*
X5804305Y-17265126D01*
X6013829Y-17179411D02*
X5975734Y-17179411D01*
X5975734Y-17179411D02*
X5956686Y-17188935D01*
X5956686Y-17188935D02*
X5947162Y-17198459D01*
X5947162Y-17198459D02*
X5928115Y-17227030D01*
X5928115Y-17227030D02*
X5918591Y-17265126D01*
X5918591Y-17265126D02*
X5918591Y-17341316D01*
X5918591Y-17341316D02*
X5928115Y-17360364D01*
X5928115Y-17360364D02*
X5937638Y-17369888D01*
X5937638Y-17369888D02*
X5956686Y-17379411D01*
X5956686Y-17379411D02*
X5994781Y-17379411D01*
X5994781Y-17379411D02*
X6013829Y-17369888D01*
X6013829Y-17369888D02*
X6023353Y-17360364D01*
X6023353Y-17360364D02*
X6032877Y-17341316D01*
X6032877Y-17341316D02*
X6032877Y-17293697D01*
X6032877Y-17293697D02*
X6023353Y-17274650D01*
X6023353Y-17274650D02*
X6013829Y-17265126D01*
X6013829Y-17265126D02*
X5994781Y-17255602D01*
X5994781Y-17255602D02*
X5956686Y-17255602D01*
X5956686Y-17255602D02*
X5937638Y-17265126D01*
X5937638Y-17265126D02*
X5928115Y-17274650D01*
X5928115Y-17274650D02*
X5918591Y-17293697D01*
X6204305Y-17179411D02*
X6166210Y-17179411D01*
X6166210Y-17179411D02*
X6147162Y-17188935D01*
X6147162Y-17188935D02*
X6137638Y-17198459D01*
X6137638Y-17198459D02*
X6118591Y-17227030D01*
X6118591Y-17227030D02*
X6109067Y-17265126D01*
X6109067Y-17265126D02*
X6109067Y-17341316D01*
X6109067Y-17341316D02*
X6118591Y-17360364D01*
X6118591Y-17360364D02*
X6128115Y-17369888D01*
X6128115Y-17369888D02*
X6147162Y-17379411D01*
X6147162Y-17379411D02*
X6185258Y-17379411D01*
X6185258Y-17379411D02*
X6204305Y-17369888D01*
X6204305Y-17369888D02*
X6213829Y-17360364D01*
X6213829Y-17360364D02*
X6223353Y-17341316D01*
X6223353Y-17341316D02*
X6223353Y-17293697D01*
X6223353Y-17293697D02*
X6213829Y-17274650D01*
X6213829Y-17274650D02*
X6204305Y-17265126D01*
X6204305Y-17265126D02*
X6185258Y-17255602D01*
X6185258Y-17255602D02*
X6147162Y-17255602D01*
X6147162Y-17255602D02*
X6128115Y-17265126D01*
X6128115Y-17265126D02*
X6118591Y-17274650D01*
X6118591Y-17274650D02*
X6109067Y-17293697D01*
X6299543Y-17179411D02*
X6299543Y-17217507D01*
X6375734Y-17179411D02*
X6375734Y-17217507D01*
X6670972Y-17455602D02*
X6661448Y-17446078D01*
X6661448Y-17446078D02*
X6642400Y-17417507D01*
X6642400Y-17417507D02*
X6632877Y-17398459D01*
X6632877Y-17398459D02*
X6623353Y-17369888D01*
X6623353Y-17369888D02*
X6613829Y-17322269D01*
X6613829Y-17322269D02*
X6613829Y-17284173D01*
X6613829Y-17284173D02*
X6623353Y-17236554D01*
X6623353Y-17236554D02*
X6632877Y-17207983D01*
X6632877Y-17207983D02*
X6642400Y-17188935D01*
X6642400Y-17188935D02*
X6661448Y-17160364D01*
X6661448Y-17160364D02*
X6670972Y-17150840D01*
X6832877Y-17246078D02*
X6832877Y-17379411D01*
X6785258Y-17169888D02*
X6737639Y-17312745D01*
X6737639Y-17312745D02*
X6861448Y-17312745D01*
X7090020Y-17379411D02*
X7090020Y-17179411D01*
X7175734Y-17379411D02*
X7175734Y-17274650D01*
X7175734Y-17274650D02*
X7166210Y-17255602D01*
X7166210Y-17255602D02*
X7147162Y-17246078D01*
X7147162Y-17246078D02*
X7118591Y-17246078D01*
X7118591Y-17246078D02*
X7099543Y-17255602D01*
X7099543Y-17255602D02*
X7090020Y-17265126D01*
X7299543Y-17379411D02*
X7280496Y-17369888D01*
X7280496Y-17369888D02*
X7270972Y-17360364D01*
X7270972Y-17360364D02*
X7261448Y-17341316D01*
X7261448Y-17341316D02*
X7261448Y-17284173D01*
X7261448Y-17284173D02*
X7270972Y-17265126D01*
X7270972Y-17265126D02*
X7280496Y-17255602D01*
X7280496Y-17255602D02*
X7299543Y-17246078D01*
X7299543Y-17246078D02*
X7328115Y-17246078D01*
X7328115Y-17246078D02*
X7347162Y-17255602D01*
X7347162Y-17255602D02*
X7356686Y-17265126D01*
X7356686Y-17265126D02*
X7366210Y-17284173D01*
X7366210Y-17284173D02*
X7366210Y-17341316D01*
X7366210Y-17341316D02*
X7356686Y-17360364D01*
X7356686Y-17360364D02*
X7347162Y-17369888D01*
X7347162Y-17369888D02*
X7328115Y-17379411D01*
X7328115Y-17379411D02*
X7299543Y-17379411D01*
X7480496Y-17379411D02*
X7461448Y-17369888D01*
X7461448Y-17369888D02*
X7451924Y-17350840D01*
X7451924Y-17350840D02*
X7451924Y-17179411D01*
X7632877Y-17369888D02*
X7613829Y-17379411D01*
X7613829Y-17379411D02*
X7575734Y-17379411D01*
X7575734Y-17379411D02*
X7556686Y-17369888D01*
X7556686Y-17369888D02*
X7547162Y-17350840D01*
X7547162Y-17350840D02*
X7547162Y-17274650D01*
X7547162Y-17274650D02*
X7556686Y-17255602D01*
X7556686Y-17255602D02*
X7575734Y-17246078D01*
X7575734Y-17246078D02*
X7613829Y-17246078D01*
X7613829Y-17246078D02*
X7632877Y-17255602D01*
X7632877Y-17255602D02*
X7642401Y-17274650D01*
X7642401Y-17274650D02*
X7642401Y-17293697D01*
X7642401Y-17293697D02*
X7547162Y-17312745D01*
X7718591Y-17369888D02*
X7737639Y-17379411D01*
X7737639Y-17379411D02*
X7775734Y-17379411D01*
X7775734Y-17379411D02*
X7794782Y-17369888D01*
X7794782Y-17369888D02*
X7804305Y-17350840D01*
X7804305Y-17350840D02*
X7804305Y-17341316D01*
X7804305Y-17341316D02*
X7794782Y-17322269D01*
X7794782Y-17322269D02*
X7775734Y-17312745D01*
X7775734Y-17312745D02*
X7747162Y-17312745D01*
X7747162Y-17312745D02*
X7728115Y-17303221D01*
X7728115Y-17303221D02*
X7718591Y-17284173D01*
X7718591Y-17284173D02*
X7718591Y-17274650D01*
X7718591Y-17274650D02*
X7728115Y-17255602D01*
X7728115Y-17255602D02*
X7747162Y-17246078D01*
X7747162Y-17246078D02*
X7775734Y-17246078D01*
X7775734Y-17246078D02*
X7794782Y-17255602D01*
X7870972Y-17455602D02*
X7880496Y-17446078D01*
X7880496Y-17446078D02*
X7899543Y-17417507D01*
X7899543Y-17417507D02*
X7909067Y-17398459D01*
X7909067Y-17398459D02*
X7918591Y-17369888D01*
X7918591Y-17369888D02*
X7928115Y-17322269D01*
X7928115Y-17322269D02*
X7928115Y-17284173D01*
X7928115Y-17284173D02*
X7918591Y-17236554D01*
X7918591Y-17236554D02*
X7909067Y-17207983D01*
X7909067Y-17207983D02*
X7899543Y-17188935D01*
X7899543Y-17188935D02*
X7880496Y-17160364D01*
X7880496Y-17160364D02*
X7870972Y-17150840D01*
X8232877Y-17455602D02*
X8223353Y-17446078D01*
X8223353Y-17446078D02*
X8204305Y-17417507D01*
X8204305Y-17417507D02*
X8194782Y-17398459D01*
X8194782Y-17398459D02*
X8185258Y-17369888D01*
X8185258Y-17369888D02*
X8175734Y-17322269D01*
X8175734Y-17322269D02*
X8175734Y-17284173D01*
X8175734Y-17284173D02*
X8185258Y-17236554D01*
X8185258Y-17236554D02*
X8194782Y-17207983D01*
X8194782Y-17207983D02*
X8204305Y-17188935D01*
X8204305Y-17188935D02*
X8223353Y-17160364D01*
X8223353Y-17160364D02*
X8232877Y-17150840D01*
X8309067Y-17246078D02*
X8309067Y-17379411D01*
X8309067Y-17265126D02*
X8318591Y-17255602D01*
X8318591Y-17255602D02*
X8337639Y-17246078D01*
X8337639Y-17246078D02*
X8366210Y-17246078D01*
X8366210Y-17246078D02*
X8385258Y-17255602D01*
X8385258Y-17255602D02*
X8394782Y-17274650D01*
X8394782Y-17274650D02*
X8394782Y-17379411D01*
X8518591Y-17379411D02*
X8499544Y-17369888D01*
X8499544Y-17369888D02*
X8490020Y-17360364D01*
X8490020Y-17360364D02*
X8480496Y-17341316D01*
X8480496Y-17341316D02*
X8480496Y-17284173D01*
X8480496Y-17284173D02*
X8490020Y-17265126D01*
X8490020Y-17265126D02*
X8499544Y-17255602D01*
X8499544Y-17255602D02*
X8518591Y-17246078D01*
X8518591Y-17246078D02*
X8547163Y-17246078D01*
X8547163Y-17246078D02*
X8566210Y-17255602D01*
X8566210Y-17255602D02*
X8575734Y-17265126D01*
X8575734Y-17265126D02*
X8585258Y-17284173D01*
X8585258Y-17284173D02*
X8585258Y-17341316D01*
X8585258Y-17341316D02*
X8575734Y-17360364D01*
X8575734Y-17360364D02*
X8566210Y-17369888D01*
X8566210Y-17369888D02*
X8547163Y-17379411D01*
X8547163Y-17379411D02*
X8518591Y-17379411D01*
X8642401Y-17246078D02*
X8718591Y-17246078D01*
X8670972Y-17179411D02*
X8670972Y-17350840D01*
X8670972Y-17350840D02*
X8680496Y-17369888D01*
X8680496Y-17369888D02*
X8699544Y-17379411D01*
X8699544Y-17379411D02*
X8718591Y-17379411D01*
X8937639Y-17246078D02*
X8937639Y-17446078D01*
X8937639Y-17255602D02*
X8956686Y-17246078D01*
X8956686Y-17246078D02*
X8994782Y-17246078D01*
X8994782Y-17246078D02*
X9013829Y-17255602D01*
X9013829Y-17255602D02*
X9023353Y-17265126D01*
X9023353Y-17265126D02*
X9032877Y-17284173D01*
X9032877Y-17284173D02*
X9032877Y-17341316D01*
X9032877Y-17341316D02*
X9023353Y-17360364D01*
X9023353Y-17360364D02*
X9013829Y-17369888D01*
X9013829Y-17369888D02*
X8994782Y-17379411D01*
X8994782Y-17379411D02*
X8956686Y-17379411D01*
X8956686Y-17379411D02*
X8937639Y-17369888D01*
X9147163Y-17379411D02*
X9128115Y-17369888D01*
X9128115Y-17369888D02*
X9118591Y-17350840D01*
X9118591Y-17350840D02*
X9118591Y-17179411D01*
X9309067Y-17379411D02*
X9309067Y-17274650D01*
X9309067Y-17274650D02*
X9299544Y-17255602D01*
X9299544Y-17255602D02*
X9280496Y-17246078D01*
X9280496Y-17246078D02*
X9242401Y-17246078D01*
X9242401Y-17246078D02*
X9223353Y-17255602D01*
X9309067Y-17369888D02*
X9290020Y-17379411D01*
X9290020Y-17379411D02*
X9242401Y-17379411D01*
X9242401Y-17379411D02*
X9223353Y-17369888D01*
X9223353Y-17369888D02*
X9213829Y-17350840D01*
X9213829Y-17350840D02*
X9213829Y-17331792D01*
X9213829Y-17331792D02*
X9223353Y-17312745D01*
X9223353Y-17312745D02*
X9242401Y-17303221D01*
X9242401Y-17303221D02*
X9290020Y-17303221D01*
X9290020Y-17303221D02*
X9309067Y-17293697D01*
X9375734Y-17246078D02*
X9451925Y-17246078D01*
X9404306Y-17179411D02*
X9404306Y-17350840D01*
X9404306Y-17350840D02*
X9413829Y-17369888D01*
X9413829Y-17369888D02*
X9432877Y-17379411D01*
X9432877Y-17379411D02*
X9451925Y-17379411D01*
X9594782Y-17369888D02*
X9575734Y-17379411D01*
X9575734Y-17379411D02*
X9537639Y-17379411D01*
X9537639Y-17379411D02*
X9518591Y-17369888D01*
X9518591Y-17369888D02*
X9509067Y-17350840D01*
X9509067Y-17350840D02*
X9509067Y-17274650D01*
X9509067Y-17274650D02*
X9518591Y-17255602D01*
X9518591Y-17255602D02*
X9537639Y-17246078D01*
X9537639Y-17246078D02*
X9575734Y-17246078D01*
X9575734Y-17246078D02*
X9594782Y-17255602D01*
X9594782Y-17255602D02*
X9604306Y-17274650D01*
X9604306Y-17274650D02*
X9604306Y-17293697D01*
X9604306Y-17293697D02*
X9509067Y-17312745D01*
X9775734Y-17379411D02*
X9775734Y-17179411D01*
X9775734Y-17369888D02*
X9756687Y-17379411D01*
X9756687Y-17379411D02*
X9718591Y-17379411D01*
X9718591Y-17379411D02*
X9699544Y-17369888D01*
X9699544Y-17369888D02*
X9690020Y-17360364D01*
X9690020Y-17360364D02*
X9680496Y-17341316D01*
X9680496Y-17341316D02*
X9680496Y-17284173D01*
X9680496Y-17284173D02*
X9690020Y-17265126D01*
X9690020Y-17265126D02*
X9699544Y-17255602D01*
X9699544Y-17255602D02*
X9718591Y-17246078D01*
X9718591Y-17246078D02*
X9756687Y-17246078D01*
X9756687Y-17246078D02*
X9775734Y-17255602D01*
X9851925Y-17455602D02*
X9861448Y-17446078D01*
X9861448Y-17446078D02*
X9880496Y-17417507D01*
X9880496Y-17417507D02*
X9890020Y-17398459D01*
X9890020Y-17398459D02*
X9899544Y-17369888D01*
X9899544Y-17369888D02*
X9909067Y-17322269D01*
X9909067Y-17322269D02*
X9909067Y-17284173D01*
X9909067Y-17284173D02*
X9899544Y-17236554D01*
X9899544Y-17236554D02*
X9890020Y-17207983D01*
X9890020Y-17207983D02*
X9880496Y-17188935D01*
X9880496Y-17188935D02*
X9861448Y-17160364D01*
X9861448Y-17160364D02*
X9851925Y-17150840D01*
X3066620Y-17678639D02*
X3066620Y-17537216D01*
X2925198Y-17537216D01*
X2925198Y-17678639D01*
X3066620Y-17678639D01*
X3337638Y-17499411D02*
X3461448Y-17499411D01*
X3461448Y-17499411D02*
X3394781Y-17575602D01*
X3394781Y-17575602D02*
X3423353Y-17575602D01*
X3423353Y-17575602D02*
X3442400Y-17585126D01*
X3442400Y-17585126D02*
X3451924Y-17594650D01*
X3451924Y-17594650D02*
X3461448Y-17613697D01*
X3461448Y-17613697D02*
X3461448Y-17661316D01*
X3461448Y-17661316D02*
X3451924Y-17680364D01*
X3451924Y-17680364D02*
X3442400Y-17689888D01*
X3442400Y-17689888D02*
X3423353Y-17699411D01*
X3423353Y-17699411D02*
X3366210Y-17699411D01*
X3366210Y-17699411D02*
X3347162Y-17689888D01*
X3347162Y-17689888D02*
X3337638Y-17680364D01*
X3547162Y-17680364D02*
X3556686Y-17689888D01*
X3556686Y-17689888D02*
X3547162Y-17699411D01*
X3547162Y-17699411D02*
X3537638Y-17689888D01*
X3537638Y-17689888D02*
X3547162Y-17680364D01*
X3547162Y-17680364D02*
X3547162Y-17699411D01*
X3680495Y-17499411D02*
X3699543Y-17499411D01*
X3699543Y-17499411D02*
X3718591Y-17508935D01*
X3718591Y-17508935D02*
X3728114Y-17518459D01*
X3728114Y-17518459D02*
X3737638Y-17537507D01*
X3737638Y-17537507D02*
X3747162Y-17575602D01*
X3747162Y-17575602D02*
X3747162Y-17623221D01*
X3747162Y-17623221D02*
X3737638Y-17661316D01*
X3737638Y-17661316D02*
X3728114Y-17680364D01*
X3728114Y-17680364D02*
X3718591Y-17689888D01*
X3718591Y-17689888D02*
X3699543Y-17699411D01*
X3699543Y-17699411D02*
X3680495Y-17699411D01*
X3680495Y-17699411D02*
X3661448Y-17689888D01*
X3661448Y-17689888D02*
X3651924Y-17680364D01*
X3651924Y-17680364D02*
X3642400Y-17661316D01*
X3642400Y-17661316D02*
X3632876Y-17623221D01*
X3632876Y-17623221D02*
X3632876Y-17575602D01*
X3632876Y-17575602D02*
X3642400Y-17537507D01*
X3642400Y-17537507D02*
X3651924Y-17518459D01*
X3651924Y-17518459D02*
X3661448Y-17508935D01*
X3661448Y-17508935D02*
X3680495Y-17499411D01*
X3928114Y-17499411D02*
X3832876Y-17499411D01*
X3832876Y-17499411D02*
X3823353Y-17594650D01*
X3823353Y-17594650D02*
X3832876Y-17585126D01*
X3832876Y-17585126D02*
X3851924Y-17575602D01*
X3851924Y-17575602D02*
X3899543Y-17575602D01*
X3899543Y-17575602D02*
X3918591Y-17585126D01*
X3918591Y-17585126D02*
X3928114Y-17594650D01*
X3928114Y-17594650D02*
X3937638Y-17613697D01*
X3937638Y-17613697D02*
X3937638Y-17661316D01*
X3937638Y-17661316D02*
X3928114Y-17680364D01*
X3928114Y-17680364D02*
X3918591Y-17689888D01*
X3918591Y-17689888D02*
X3899543Y-17699411D01*
X3899543Y-17699411D02*
X3851924Y-17699411D01*
X3851924Y-17699411D02*
X3832876Y-17689888D01*
X3832876Y-17689888D02*
X3823353Y-17680364D01*
X4061448Y-17499411D02*
X4080495Y-17499411D01*
X4080495Y-17499411D02*
X4099543Y-17508935D01*
X4099543Y-17508935D02*
X4109067Y-17518459D01*
X4109067Y-17518459D02*
X4118591Y-17537507D01*
X4118591Y-17537507D02*
X4128114Y-17575602D01*
X4128114Y-17575602D02*
X4128114Y-17623221D01*
X4128114Y-17623221D02*
X4118591Y-17661316D01*
X4118591Y-17661316D02*
X4109067Y-17680364D01*
X4109067Y-17680364D02*
X4099543Y-17689888D01*
X4099543Y-17689888D02*
X4080495Y-17699411D01*
X4080495Y-17699411D02*
X4061448Y-17699411D01*
X4061448Y-17699411D02*
X4042400Y-17689888D01*
X4042400Y-17689888D02*
X4032876Y-17680364D01*
X4032876Y-17680364D02*
X4023353Y-17661316D01*
X4023353Y-17661316D02*
X4013829Y-17623221D01*
X4013829Y-17623221D02*
X4013829Y-17575602D01*
X4013829Y-17575602D02*
X4023353Y-17537507D01*
X4023353Y-17537507D02*
X4032876Y-17518459D01*
X4032876Y-17518459D02*
X4042400Y-17508935D01*
X4042400Y-17508935D02*
X4061448Y-17499411D01*
X4213829Y-17699411D02*
X4213829Y-17566078D01*
X4213829Y-17585126D02*
X4223353Y-17575602D01*
X4223353Y-17575602D02*
X4242400Y-17566078D01*
X4242400Y-17566078D02*
X4270972Y-17566078D01*
X4270972Y-17566078D02*
X4290019Y-17575602D01*
X4290019Y-17575602D02*
X4299543Y-17594650D01*
X4299543Y-17594650D02*
X4299543Y-17699411D01*
X4299543Y-17594650D02*
X4309067Y-17575602D01*
X4309067Y-17575602D02*
X4328115Y-17566078D01*
X4328115Y-17566078D02*
X4356686Y-17566078D01*
X4356686Y-17566078D02*
X4375734Y-17575602D01*
X4375734Y-17575602D02*
X4385257Y-17594650D01*
X4385257Y-17594650D02*
X4385257Y-17699411D01*
X4480496Y-17699411D02*
X4480496Y-17566078D01*
X4480496Y-17585126D02*
X4490019Y-17575602D01*
X4490019Y-17575602D02*
X4509067Y-17566078D01*
X4509067Y-17566078D02*
X4537638Y-17566078D01*
X4537638Y-17566078D02*
X4556686Y-17575602D01*
X4556686Y-17575602D02*
X4566210Y-17594650D01*
X4566210Y-17594650D02*
X4566210Y-17699411D01*
X4566210Y-17594650D02*
X4575734Y-17575602D01*
X4575734Y-17575602D02*
X4594781Y-17566078D01*
X4594781Y-17566078D02*
X4623353Y-17566078D01*
X4623353Y-17566078D02*
X4642400Y-17575602D01*
X4642400Y-17575602D02*
X4651924Y-17594650D01*
X4651924Y-17594650D02*
X4651924Y-17699411D01*
X5042400Y-17489888D02*
X4870972Y-17747030D01*
X5299543Y-17499411D02*
X5318591Y-17499411D01*
X5318591Y-17499411D02*
X5337639Y-17508935D01*
X5337639Y-17508935D02*
X5347162Y-17518459D01*
X5347162Y-17518459D02*
X5356686Y-17537507D01*
X5356686Y-17537507D02*
X5366210Y-17575602D01*
X5366210Y-17575602D02*
X5366210Y-17623221D01*
X5366210Y-17623221D02*
X5356686Y-17661316D01*
X5356686Y-17661316D02*
X5347162Y-17680364D01*
X5347162Y-17680364D02*
X5337639Y-17689888D01*
X5337639Y-17689888D02*
X5318591Y-17699411D01*
X5318591Y-17699411D02*
X5299543Y-17699411D01*
X5299543Y-17699411D02*
X5280496Y-17689888D01*
X5280496Y-17689888D02*
X5270972Y-17680364D01*
X5270972Y-17680364D02*
X5261448Y-17661316D01*
X5261448Y-17661316D02*
X5251924Y-17623221D01*
X5251924Y-17623221D02*
X5251924Y-17575602D01*
X5251924Y-17575602D02*
X5261448Y-17537507D01*
X5261448Y-17537507D02*
X5270972Y-17518459D01*
X5270972Y-17518459D02*
X5280496Y-17508935D01*
X5280496Y-17508935D02*
X5299543Y-17499411D01*
X5451924Y-17680364D02*
X5461448Y-17689888D01*
X5461448Y-17689888D02*
X5451924Y-17699411D01*
X5451924Y-17699411D02*
X5442400Y-17689888D01*
X5442400Y-17689888D02*
X5451924Y-17680364D01*
X5451924Y-17680364D02*
X5451924Y-17699411D01*
X5651924Y-17699411D02*
X5537639Y-17699411D01*
X5594781Y-17699411D02*
X5594781Y-17499411D01*
X5594781Y-17499411D02*
X5575734Y-17527983D01*
X5575734Y-17527983D02*
X5556686Y-17547030D01*
X5556686Y-17547030D02*
X5537639Y-17556554D01*
X5728115Y-17518459D02*
X5737638Y-17508935D01*
X5737638Y-17508935D02*
X5756686Y-17499411D01*
X5756686Y-17499411D02*
X5804305Y-17499411D01*
X5804305Y-17499411D02*
X5823353Y-17508935D01*
X5823353Y-17508935D02*
X5832877Y-17518459D01*
X5832877Y-17518459D02*
X5842400Y-17537507D01*
X5842400Y-17537507D02*
X5842400Y-17556554D01*
X5842400Y-17556554D02*
X5832877Y-17585126D01*
X5832877Y-17585126D02*
X5718591Y-17699411D01*
X5718591Y-17699411D02*
X5842400Y-17699411D01*
X5966210Y-17499411D02*
X5985258Y-17499411D01*
X5985258Y-17499411D02*
X6004305Y-17508935D01*
X6004305Y-17508935D02*
X6013829Y-17518459D01*
X6013829Y-17518459D02*
X6023353Y-17537507D01*
X6023353Y-17537507D02*
X6032877Y-17575602D01*
X6032877Y-17575602D02*
X6032877Y-17623221D01*
X6032877Y-17623221D02*
X6023353Y-17661316D01*
X6023353Y-17661316D02*
X6013829Y-17680364D01*
X6013829Y-17680364D02*
X6004305Y-17689888D01*
X6004305Y-17689888D02*
X5985258Y-17699411D01*
X5985258Y-17699411D02*
X5966210Y-17699411D01*
X5966210Y-17699411D02*
X5947162Y-17689888D01*
X5947162Y-17689888D02*
X5937638Y-17680364D01*
X5937638Y-17680364D02*
X5928115Y-17661316D01*
X5928115Y-17661316D02*
X5918591Y-17623221D01*
X5918591Y-17623221D02*
X5918591Y-17575602D01*
X5918591Y-17575602D02*
X5928115Y-17537507D01*
X5928115Y-17537507D02*
X5937638Y-17518459D01*
X5937638Y-17518459D02*
X5947162Y-17508935D01*
X5947162Y-17508935D02*
X5966210Y-17499411D01*
X6223353Y-17699411D02*
X6109067Y-17699411D01*
X6166210Y-17699411D02*
X6166210Y-17499411D01*
X6166210Y-17499411D02*
X6147162Y-17527983D01*
X6147162Y-17527983D02*
X6128115Y-17547030D01*
X6128115Y-17547030D02*
X6109067Y-17556554D01*
X6299543Y-17499411D02*
X6299543Y-17537507D01*
X6375734Y-17499411D02*
X6375734Y-17537507D01*
X6670972Y-17775602D02*
X6661448Y-17766078D01*
X6661448Y-17766078D02*
X6642400Y-17737507D01*
X6642400Y-17737507D02*
X6632877Y-17718459D01*
X6632877Y-17718459D02*
X6623353Y-17689888D01*
X6623353Y-17689888D02*
X6613829Y-17642269D01*
X6613829Y-17642269D02*
X6613829Y-17604173D01*
X6613829Y-17604173D02*
X6623353Y-17556554D01*
X6623353Y-17556554D02*
X6632877Y-17527983D01*
X6632877Y-17527983D02*
X6642400Y-17508935D01*
X6642400Y-17508935D02*
X6661448Y-17480364D01*
X6661448Y-17480364D02*
X6670972Y-17470840D01*
X6842400Y-17499411D02*
X6747162Y-17499411D01*
X6747162Y-17499411D02*
X6737639Y-17594650D01*
X6737639Y-17594650D02*
X6747162Y-17585126D01*
X6747162Y-17585126D02*
X6766210Y-17575602D01*
X6766210Y-17575602D02*
X6813829Y-17575602D01*
X6813829Y-17575602D02*
X6832877Y-17585126D01*
X6832877Y-17585126D02*
X6842400Y-17594650D01*
X6842400Y-17594650D02*
X6851924Y-17613697D01*
X6851924Y-17613697D02*
X6851924Y-17661316D01*
X6851924Y-17661316D02*
X6842400Y-17680364D01*
X6842400Y-17680364D02*
X6832877Y-17689888D01*
X6832877Y-17689888D02*
X6813829Y-17699411D01*
X6813829Y-17699411D02*
X6766210Y-17699411D01*
X6766210Y-17699411D02*
X6747162Y-17689888D01*
X6747162Y-17689888D02*
X6737639Y-17680364D01*
X7023353Y-17566078D02*
X7023353Y-17699411D01*
X6975734Y-17489888D02*
X6928115Y-17632745D01*
X6928115Y-17632745D02*
X7051924Y-17632745D01*
X7280496Y-17699411D02*
X7280496Y-17499411D01*
X7366210Y-17699411D02*
X7366210Y-17594650D01*
X7366210Y-17594650D02*
X7356686Y-17575602D01*
X7356686Y-17575602D02*
X7337639Y-17566078D01*
X7337639Y-17566078D02*
X7309067Y-17566078D01*
X7309067Y-17566078D02*
X7290020Y-17575602D01*
X7290020Y-17575602D02*
X7280496Y-17585126D01*
X7490020Y-17699411D02*
X7470972Y-17689888D01*
X7470972Y-17689888D02*
X7461448Y-17680364D01*
X7461448Y-17680364D02*
X7451924Y-17661316D01*
X7451924Y-17661316D02*
X7451924Y-17604173D01*
X7451924Y-17604173D02*
X7461448Y-17585126D01*
X7461448Y-17585126D02*
X7470972Y-17575602D01*
X7470972Y-17575602D02*
X7490020Y-17566078D01*
X7490020Y-17566078D02*
X7518591Y-17566078D01*
X7518591Y-17566078D02*
X7537639Y-17575602D01*
X7537639Y-17575602D02*
X7547162Y-17585126D01*
X7547162Y-17585126D02*
X7556686Y-17604173D01*
X7556686Y-17604173D02*
X7556686Y-17661316D01*
X7556686Y-17661316D02*
X7547162Y-17680364D01*
X7547162Y-17680364D02*
X7537639Y-17689888D01*
X7537639Y-17689888D02*
X7518591Y-17699411D01*
X7518591Y-17699411D02*
X7490020Y-17699411D01*
X7670972Y-17699411D02*
X7651924Y-17689888D01*
X7651924Y-17689888D02*
X7642401Y-17670840D01*
X7642401Y-17670840D02*
X7642401Y-17499411D01*
X7823353Y-17689888D02*
X7804305Y-17699411D01*
X7804305Y-17699411D02*
X7766210Y-17699411D01*
X7766210Y-17699411D02*
X7747162Y-17689888D01*
X7747162Y-17689888D02*
X7737639Y-17670840D01*
X7737639Y-17670840D02*
X7737639Y-17594650D01*
X7737639Y-17594650D02*
X7747162Y-17575602D01*
X7747162Y-17575602D02*
X7766210Y-17566078D01*
X7766210Y-17566078D02*
X7804305Y-17566078D01*
X7804305Y-17566078D02*
X7823353Y-17575602D01*
X7823353Y-17575602D02*
X7832877Y-17594650D01*
X7832877Y-17594650D02*
X7832877Y-17613697D01*
X7832877Y-17613697D02*
X7737639Y-17632745D01*
X7909067Y-17689888D02*
X7928115Y-17699411D01*
X7928115Y-17699411D02*
X7966210Y-17699411D01*
X7966210Y-17699411D02*
X7985258Y-17689888D01*
X7985258Y-17689888D02*
X7994782Y-17670840D01*
X7994782Y-17670840D02*
X7994782Y-17661316D01*
X7994782Y-17661316D02*
X7985258Y-17642269D01*
X7985258Y-17642269D02*
X7966210Y-17632745D01*
X7966210Y-17632745D02*
X7937639Y-17632745D01*
X7937639Y-17632745D02*
X7918591Y-17623221D01*
X7918591Y-17623221D02*
X7909067Y-17604173D01*
X7909067Y-17604173D02*
X7909067Y-17594650D01*
X7909067Y-17594650D02*
X7918591Y-17575602D01*
X7918591Y-17575602D02*
X7937639Y-17566078D01*
X7937639Y-17566078D02*
X7966210Y-17566078D01*
X7966210Y-17566078D02*
X7985258Y-17575602D01*
X8061448Y-17775602D02*
X8070972Y-17766078D01*
X8070972Y-17766078D02*
X8090020Y-17737507D01*
X8090020Y-17737507D02*
X8099543Y-17718459D01*
X8099543Y-17718459D02*
X8109067Y-17689888D01*
X8109067Y-17689888D02*
X8118591Y-17642269D01*
X8118591Y-17642269D02*
X8118591Y-17604173D01*
X8118591Y-17604173D02*
X8109067Y-17556554D01*
X8109067Y-17556554D02*
X8099543Y-17527983D01*
X8099543Y-17527983D02*
X8090020Y-17508935D01*
X8090020Y-17508935D02*
X8070972Y-17480364D01*
X8070972Y-17480364D02*
X8061448Y-17470840D01*
X8423353Y-17775602D02*
X8413829Y-17766078D01*
X8413829Y-17766078D02*
X8394782Y-17737507D01*
X8394782Y-17737507D02*
X8385258Y-17718459D01*
X8385258Y-17718459D02*
X8375734Y-17689888D01*
X8375734Y-17689888D02*
X8366210Y-17642269D01*
X8366210Y-17642269D02*
X8366210Y-17604173D01*
X8366210Y-17604173D02*
X8375734Y-17556554D01*
X8375734Y-17556554D02*
X8385258Y-17527983D01*
X8385258Y-17527983D02*
X8394782Y-17508935D01*
X8394782Y-17508935D02*
X8413829Y-17480364D01*
X8413829Y-17480364D02*
X8423353Y-17470840D01*
X8499544Y-17566078D02*
X8499544Y-17699411D01*
X8499544Y-17585126D02*
X8509067Y-17575602D01*
X8509067Y-17575602D02*
X8528115Y-17566078D01*
X8528115Y-17566078D02*
X8556686Y-17566078D01*
X8556686Y-17566078D02*
X8575734Y-17575602D01*
X8575734Y-17575602D02*
X8585258Y-17594650D01*
X8585258Y-17594650D02*
X8585258Y-17699411D01*
X8709067Y-17699411D02*
X8690020Y-17689888D01*
X8690020Y-17689888D02*
X8680496Y-17680364D01*
X8680496Y-17680364D02*
X8670972Y-17661316D01*
X8670972Y-17661316D02*
X8670972Y-17604173D01*
X8670972Y-17604173D02*
X8680496Y-17585126D01*
X8680496Y-17585126D02*
X8690020Y-17575602D01*
X8690020Y-17575602D02*
X8709067Y-17566078D01*
X8709067Y-17566078D02*
X8737639Y-17566078D01*
X8737639Y-17566078D02*
X8756686Y-17575602D01*
X8756686Y-17575602D02*
X8766210Y-17585126D01*
X8766210Y-17585126D02*
X8775734Y-17604173D01*
X8775734Y-17604173D02*
X8775734Y-17661316D01*
X8775734Y-17661316D02*
X8766210Y-17680364D01*
X8766210Y-17680364D02*
X8756686Y-17689888D01*
X8756686Y-17689888D02*
X8737639Y-17699411D01*
X8737639Y-17699411D02*
X8709067Y-17699411D01*
X8832877Y-17566078D02*
X8909067Y-17566078D01*
X8861448Y-17499411D02*
X8861448Y-17670840D01*
X8861448Y-17670840D02*
X8870972Y-17689888D01*
X8870972Y-17689888D02*
X8890020Y-17699411D01*
X8890020Y-17699411D02*
X8909067Y-17699411D01*
X9128115Y-17566078D02*
X9128115Y-17766078D01*
X9128115Y-17575602D02*
X9147163Y-17566078D01*
X9147163Y-17566078D02*
X9185258Y-17566078D01*
X9185258Y-17566078D02*
X9204306Y-17575602D01*
X9204306Y-17575602D02*
X9213829Y-17585126D01*
X9213829Y-17585126D02*
X9223353Y-17604173D01*
X9223353Y-17604173D02*
X9223353Y-17661316D01*
X9223353Y-17661316D02*
X9213829Y-17680364D01*
X9213829Y-17680364D02*
X9204306Y-17689888D01*
X9204306Y-17689888D02*
X9185258Y-17699411D01*
X9185258Y-17699411D02*
X9147163Y-17699411D01*
X9147163Y-17699411D02*
X9128115Y-17689888D01*
X9337639Y-17699411D02*
X9318591Y-17689888D01*
X9318591Y-17689888D02*
X9309067Y-17670840D01*
X9309067Y-17670840D02*
X9309067Y-17499411D01*
X9499544Y-17699411D02*
X9499544Y-17594650D01*
X9499544Y-17594650D02*
X9490020Y-17575602D01*
X9490020Y-17575602D02*
X9470972Y-17566078D01*
X9470972Y-17566078D02*
X9432877Y-17566078D01*
X9432877Y-17566078D02*
X9413829Y-17575602D01*
X9499544Y-17689888D02*
X9480496Y-17699411D01*
X9480496Y-17699411D02*
X9432877Y-17699411D01*
X9432877Y-17699411D02*
X9413829Y-17689888D01*
X9413829Y-17689888D02*
X9404306Y-17670840D01*
X9404306Y-17670840D02*
X9404306Y-17651792D01*
X9404306Y-17651792D02*
X9413829Y-17632745D01*
X9413829Y-17632745D02*
X9432877Y-17623221D01*
X9432877Y-17623221D02*
X9480496Y-17623221D01*
X9480496Y-17623221D02*
X9499544Y-17613697D01*
X9566210Y-17566078D02*
X9642401Y-17566078D01*
X9594782Y-17499411D02*
X9594782Y-17670840D01*
X9594782Y-17670840D02*
X9604306Y-17689888D01*
X9604306Y-17689888D02*
X9623353Y-17699411D01*
X9623353Y-17699411D02*
X9642401Y-17699411D01*
X9785258Y-17689888D02*
X9766210Y-17699411D01*
X9766210Y-17699411D02*
X9728115Y-17699411D01*
X9728115Y-17699411D02*
X9709067Y-17689888D01*
X9709067Y-17689888D02*
X9699544Y-17670840D01*
X9699544Y-17670840D02*
X9699544Y-17594650D01*
X9699544Y-17594650D02*
X9709067Y-17575602D01*
X9709067Y-17575602D02*
X9728115Y-17566078D01*
X9728115Y-17566078D02*
X9766210Y-17566078D01*
X9766210Y-17566078D02*
X9785258Y-17575602D01*
X9785258Y-17575602D02*
X9794782Y-17594650D01*
X9794782Y-17594650D02*
X9794782Y-17613697D01*
X9794782Y-17613697D02*
X9699544Y-17632745D01*
X9966210Y-17699411D02*
X9966210Y-17499411D01*
X9966210Y-17689888D02*
X9947163Y-17699411D01*
X9947163Y-17699411D02*
X9909067Y-17699411D01*
X9909067Y-17699411D02*
X9890020Y-17689888D01*
X9890020Y-17689888D02*
X9880496Y-17680364D01*
X9880496Y-17680364D02*
X9870972Y-17661316D01*
X9870972Y-17661316D02*
X9870972Y-17604173D01*
X9870972Y-17604173D02*
X9880496Y-17585126D01*
X9880496Y-17585126D02*
X9890020Y-17575602D01*
X9890020Y-17575602D02*
X9909067Y-17566078D01*
X9909067Y-17566078D02*
X9947163Y-17566078D01*
X9947163Y-17566078D02*
X9966210Y-17575602D01*
X10042401Y-17775602D02*
X10051925Y-17766078D01*
X10051925Y-17766078D02*
X10070972Y-17737507D01*
X10070972Y-17737507D02*
X10080496Y-17718459D01*
X10080496Y-17718459D02*
X10090020Y-17689888D01*
X10090020Y-17689888D02*
X10099544Y-17642269D01*
X10099544Y-17642269D02*
X10099544Y-17604173D01*
X10099544Y-17604173D02*
X10090020Y-17556554D01*
X10090020Y-17556554D02*
X10080496Y-17527983D01*
X10080496Y-17527983D02*
X10070972Y-17508935D01*
X10070972Y-17508935D02*
X10051925Y-17480364D01*
X10051925Y-17480364D02*
X10042401Y-17470840D01*
X2995909Y-18027928D02*
X3095909Y-17927928D01*
X2995909Y-17827928D01*
X2895909Y-17927928D01*
X2995909Y-18027928D01*
X3451924Y-17819411D02*
X3356686Y-17819411D01*
X3356686Y-17819411D02*
X3347162Y-17914650D01*
X3347162Y-17914650D02*
X3356686Y-17905126D01*
X3356686Y-17905126D02*
X3375733Y-17895602D01*
X3375733Y-17895602D02*
X3423353Y-17895602D01*
X3423353Y-17895602D02*
X3442400Y-17905126D01*
X3442400Y-17905126D02*
X3451924Y-17914650D01*
X3451924Y-17914650D02*
X3461448Y-17933697D01*
X3461448Y-17933697D02*
X3461448Y-17981316D01*
X3461448Y-17981316D02*
X3451924Y-18000364D01*
X3451924Y-18000364D02*
X3442400Y-18009888D01*
X3442400Y-18009888D02*
X3423353Y-18019411D01*
X3423353Y-18019411D02*
X3375733Y-18019411D01*
X3375733Y-18019411D02*
X3356686Y-18009888D01*
X3356686Y-18009888D02*
X3347162Y-18000364D01*
X3547162Y-18000364D02*
X3556686Y-18009888D01*
X3556686Y-18009888D02*
X3547162Y-18019411D01*
X3547162Y-18019411D02*
X3537638Y-18009888D01*
X3537638Y-18009888D02*
X3547162Y-18000364D01*
X3547162Y-18000364D02*
X3547162Y-18019411D01*
X3680495Y-17819411D02*
X3699543Y-17819411D01*
X3699543Y-17819411D02*
X3718591Y-17828935D01*
X3718591Y-17828935D02*
X3728114Y-17838459D01*
X3728114Y-17838459D02*
X3737638Y-17857507D01*
X3737638Y-17857507D02*
X3747162Y-17895602D01*
X3747162Y-17895602D02*
X3747162Y-17943221D01*
X3747162Y-17943221D02*
X3737638Y-17981316D01*
X3737638Y-17981316D02*
X3728114Y-18000364D01*
X3728114Y-18000364D02*
X3718591Y-18009888D01*
X3718591Y-18009888D02*
X3699543Y-18019411D01*
X3699543Y-18019411D02*
X3680495Y-18019411D01*
X3680495Y-18019411D02*
X3661448Y-18009888D01*
X3661448Y-18009888D02*
X3651924Y-18000364D01*
X3651924Y-18000364D02*
X3642400Y-17981316D01*
X3642400Y-17981316D02*
X3632876Y-17943221D01*
X3632876Y-17943221D02*
X3632876Y-17895602D01*
X3632876Y-17895602D02*
X3642400Y-17857507D01*
X3642400Y-17857507D02*
X3651924Y-17838459D01*
X3651924Y-17838459D02*
X3661448Y-17828935D01*
X3661448Y-17828935D02*
X3680495Y-17819411D01*
X3928114Y-17819411D02*
X3832876Y-17819411D01*
X3832876Y-17819411D02*
X3823353Y-17914650D01*
X3823353Y-17914650D02*
X3832876Y-17905126D01*
X3832876Y-17905126D02*
X3851924Y-17895602D01*
X3851924Y-17895602D02*
X3899543Y-17895602D01*
X3899543Y-17895602D02*
X3918591Y-17905126D01*
X3918591Y-17905126D02*
X3928114Y-17914650D01*
X3928114Y-17914650D02*
X3937638Y-17933697D01*
X3937638Y-17933697D02*
X3937638Y-17981316D01*
X3937638Y-17981316D02*
X3928114Y-18000364D01*
X3928114Y-18000364D02*
X3918591Y-18009888D01*
X3918591Y-18009888D02*
X3899543Y-18019411D01*
X3899543Y-18019411D02*
X3851924Y-18019411D01*
X3851924Y-18019411D02*
X3832876Y-18009888D01*
X3832876Y-18009888D02*
X3823353Y-18000364D01*
X4061448Y-17819411D02*
X4080495Y-17819411D01*
X4080495Y-17819411D02*
X4099543Y-17828935D01*
X4099543Y-17828935D02*
X4109067Y-17838459D01*
X4109067Y-17838459D02*
X4118591Y-17857507D01*
X4118591Y-17857507D02*
X4128114Y-17895602D01*
X4128114Y-17895602D02*
X4128114Y-17943221D01*
X4128114Y-17943221D02*
X4118591Y-17981316D01*
X4118591Y-17981316D02*
X4109067Y-18000364D01*
X4109067Y-18000364D02*
X4099543Y-18009888D01*
X4099543Y-18009888D02*
X4080495Y-18019411D01*
X4080495Y-18019411D02*
X4061448Y-18019411D01*
X4061448Y-18019411D02*
X4042400Y-18009888D01*
X4042400Y-18009888D02*
X4032876Y-18000364D01*
X4032876Y-18000364D02*
X4023353Y-17981316D01*
X4023353Y-17981316D02*
X4013829Y-17943221D01*
X4013829Y-17943221D02*
X4013829Y-17895602D01*
X4013829Y-17895602D02*
X4023353Y-17857507D01*
X4023353Y-17857507D02*
X4032876Y-17838459D01*
X4032876Y-17838459D02*
X4042400Y-17828935D01*
X4042400Y-17828935D02*
X4061448Y-17819411D01*
X4213829Y-18019411D02*
X4213829Y-17886078D01*
X4213829Y-17905126D02*
X4223353Y-17895602D01*
X4223353Y-17895602D02*
X4242400Y-17886078D01*
X4242400Y-17886078D02*
X4270972Y-17886078D01*
X4270972Y-17886078D02*
X4290019Y-17895602D01*
X4290019Y-17895602D02*
X4299543Y-17914650D01*
X4299543Y-17914650D02*
X4299543Y-18019411D01*
X4299543Y-17914650D02*
X4309067Y-17895602D01*
X4309067Y-17895602D02*
X4328115Y-17886078D01*
X4328115Y-17886078D02*
X4356686Y-17886078D01*
X4356686Y-17886078D02*
X4375734Y-17895602D01*
X4375734Y-17895602D02*
X4385257Y-17914650D01*
X4385257Y-17914650D02*
X4385257Y-18019411D01*
X4480496Y-18019411D02*
X4480496Y-17886078D01*
X4480496Y-17905126D02*
X4490019Y-17895602D01*
X4490019Y-17895602D02*
X4509067Y-17886078D01*
X4509067Y-17886078D02*
X4537638Y-17886078D01*
X4537638Y-17886078D02*
X4556686Y-17895602D01*
X4556686Y-17895602D02*
X4566210Y-17914650D01*
X4566210Y-17914650D02*
X4566210Y-18019411D01*
X4566210Y-17914650D02*
X4575734Y-17895602D01*
X4575734Y-17895602D02*
X4594781Y-17886078D01*
X4594781Y-17886078D02*
X4623353Y-17886078D01*
X4623353Y-17886078D02*
X4642400Y-17895602D01*
X4642400Y-17895602D02*
X4651924Y-17914650D01*
X4651924Y-17914650D02*
X4651924Y-18019411D01*
X5042400Y-17809888D02*
X4870972Y-18067030D01*
X5299543Y-17819411D02*
X5318591Y-17819411D01*
X5318591Y-17819411D02*
X5337639Y-17828935D01*
X5337639Y-17828935D02*
X5347162Y-17838459D01*
X5347162Y-17838459D02*
X5356686Y-17857507D01*
X5356686Y-17857507D02*
X5366210Y-17895602D01*
X5366210Y-17895602D02*
X5366210Y-17943221D01*
X5366210Y-17943221D02*
X5356686Y-17981316D01*
X5356686Y-17981316D02*
X5347162Y-18000364D01*
X5347162Y-18000364D02*
X5337639Y-18009888D01*
X5337639Y-18009888D02*
X5318591Y-18019411D01*
X5318591Y-18019411D02*
X5299543Y-18019411D01*
X5299543Y-18019411D02*
X5280496Y-18009888D01*
X5280496Y-18009888D02*
X5270972Y-18000364D01*
X5270972Y-18000364D02*
X5261448Y-17981316D01*
X5261448Y-17981316D02*
X5251924Y-17943221D01*
X5251924Y-17943221D02*
X5251924Y-17895602D01*
X5251924Y-17895602D02*
X5261448Y-17857507D01*
X5261448Y-17857507D02*
X5270972Y-17838459D01*
X5270972Y-17838459D02*
X5280496Y-17828935D01*
X5280496Y-17828935D02*
X5299543Y-17819411D01*
X5451924Y-18000364D02*
X5461448Y-18009888D01*
X5461448Y-18009888D02*
X5451924Y-18019411D01*
X5451924Y-18019411D02*
X5442400Y-18009888D01*
X5442400Y-18009888D02*
X5451924Y-18000364D01*
X5451924Y-18000364D02*
X5451924Y-18019411D01*
X5651924Y-18019411D02*
X5537639Y-18019411D01*
X5594781Y-18019411D02*
X5594781Y-17819411D01*
X5594781Y-17819411D02*
X5575734Y-17847983D01*
X5575734Y-17847983D02*
X5556686Y-17867030D01*
X5556686Y-17867030D02*
X5537639Y-17876554D01*
X5747162Y-18019411D02*
X5785257Y-18019411D01*
X5785257Y-18019411D02*
X5804305Y-18009888D01*
X5804305Y-18009888D02*
X5813829Y-18000364D01*
X5813829Y-18000364D02*
X5832877Y-17971792D01*
X5832877Y-17971792D02*
X5842400Y-17933697D01*
X5842400Y-17933697D02*
X5842400Y-17857507D01*
X5842400Y-17857507D02*
X5832877Y-17838459D01*
X5832877Y-17838459D02*
X5823353Y-17828935D01*
X5823353Y-17828935D02*
X5804305Y-17819411D01*
X5804305Y-17819411D02*
X5766210Y-17819411D01*
X5766210Y-17819411D02*
X5747162Y-17828935D01*
X5747162Y-17828935D02*
X5737638Y-17838459D01*
X5737638Y-17838459D02*
X5728115Y-17857507D01*
X5728115Y-17857507D02*
X5728115Y-17905126D01*
X5728115Y-17905126D02*
X5737638Y-17924173D01*
X5737638Y-17924173D02*
X5747162Y-17933697D01*
X5747162Y-17933697D02*
X5766210Y-17943221D01*
X5766210Y-17943221D02*
X5804305Y-17943221D01*
X5804305Y-17943221D02*
X5823353Y-17933697D01*
X5823353Y-17933697D02*
X5832877Y-17924173D01*
X5832877Y-17924173D02*
X5842400Y-17905126D01*
X5956686Y-17905126D02*
X5937638Y-17895602D01*
X5937638Y-17895602D02*
X5928115Y-17886078D01*
X5928115Y-17886078D02*
X5918591Y-17867030D01*
X5918591Y-17867030D02*
X5918591Y-17857507D01*
X5918591Y-17857507D02*
X5928115Y-17838459D01*
X5928115Y-17838459D02*
X5937638Y-17828935D01*
X5937638Y-17828935D02*
X5956686Y-17819411D01*
X5956686Y-17819411D02*
X5994781Y-17819411D01*
X5994781Y-17819411D02*
X6013829Y-17828935D01*
X6013829Y-17828935D02*
X6023353Y-17838459D01*
X6023353Y-17838459D02*
X6032877Y-17857507D01*
X6032877Y-17857507D02*
X6032877Y-17867030D01*
X6032877Y-17867030D02*
X6023353Y-17886078D01*
X6023353Y-17886078D02*
X6013829Y-17895602D01*
X6013829Y-17895602D02*
X5994781Y-17905126D01*
X5994781Y-17905126D02*
X5956686Y-17905126D01*
X5956686Y-17905126D02*
X5937638Y-17914650D01*
X5937638Y-17914650D02*
X5928115Y-17924173D01*
X5928115Y-17924173D02*
X5918591Y-17943221D01*
X5918591Y-17943221D02*
X5918591Y-17981316D01*
X5918591Y-17981316D02*
X5928115Y-18000364D01*
X5928115Y-18000364D02*
X5937638Y-18009888D01*
X5937638Y-18009888D02*
X5956686Y-18019411D01*
X5956686Y-18019411D02*
X5994781Y-18019411D01*
X5994781Y-18019411D02*
X6013829Y-18009888D01*
X6013829Y-18009888D02*
X6023353Y-18000364D01*
X6023353Y-18000364D02*
X6032877Y-17981316D01*
X6032877Y-17981316D02*
X6032877Y-17943221D01*
X6032877Y-17943221D02*
X6023353Y-17924173D01*
X6023353Y-17924173D02*
X6013829Y-17914650D01*
X6013829Y-17914650D02*
X5994781Y-17905126D01*
X6147162Y-17905126D02*
X6128115Y-17895602D01*
X6128115Y-17895602D02*
X6118591Y-17886078D01*
X6118591Y-17886078D02*
X6109067Y-17867030D01*
X6109067Y-17867030D02*
X6109067Y-17857507D01*
X6109067Y-17857507D02*
X6118591Y-17838459D01*
X6118591Y-17838459D02*
X6128115Y-17828935D01*
X6128115Y-17828935D02*
X6147162Y-17819411D01*
X6147162Y-17819411D02*
X6185258Y-17819411D01*
X6185258Y-17819411D02*
X6204305Y-17828935D01*
X6204305Y-17828935D02*
X6213829Y-17838459D01*
X6213829Y-17838459D02*
X6223353Y-17857507D01*
X6223353Y-17857507D02*
X6223353Y-17867030D01*
X6223353Y-17867030D02*
X6213829Y-17886078D01*
X6213829Y-17886078D02*
X6204305Y-17895602D01*
X6204305Y-17895602D02*
X6185258Y-17905126D01*
X6185258Y-17905126D02*
X6147162Y-17905126D01*
X6147162Y-17905126D02*
X6128115Y-17914650D01*
X6128115Y-17914650D02*
X6118591Y-17924173D01*
X6118591Y-17924173D02*
X6109067Y-17943221D01*
X6109067Y-17943221D02*
X6109067Y-17981316D01*
X6109067Y-17981316D02*
X6118591Y-18000364D01*
X6118591Y-18000364D02*
X6128115Y-18009888D01*
X6128115Y-18009888D02*
X6147162Y-18019411D01*
X6147162Y-18019411D02*
X6185258Y-18019411D01*
X6185258Y-18019411D02*
X6204305Y-18009888D01*
X6204305Y-18009888D02*
X6213829Y-18000364D01*
X6213829Y-18000364D02*
X6223353Y-17981316D01*
X6223353Y-17981316D02*
X6223353Y-17943221D01*
X6223353Y-17943221D02*
X6213829Y-17924173D01*
X6213829Y-17924173D02*
X6204305Y-17914650D01*
X6204305Y-17914650D02*
X6185258Y-17905126D01*
X6299543Y-17819411D02*
X6299543Y-17857507D01*
X6375734Y-17819411D02*
X6375734Y-17857507D01*
X6670972Y-18095602D02*
X6661448Y-18086078D01*
X6661448Y-18086078D02*
X6642400Y-18057507D01*
X6642400Y-18057507D02*
X6632877Y-18038459D01*
X6632877Y-18038459D02*
X6623353Y-18009888D01*
X6623353Y-18009888D02*
X6613829Y-17962269D01*
X6613829Y-17962269D02*
X6613829Y-17924173D01*
X6613829Y-17924173D02*
X6623353Y-17876554D01*
X6623353Y-17876554D02*
X6632877Y-17847983D01*
X6632877Y-17847983D02*
X6642400Y-17828935D01*
X6642400Y-17828935D02*
X6661448Y-17800364D01*
X6661448Y-17800364D02*
X6670972Y-17790840D01*
X6737639Y-17838459D02*
X6747162Y-17828935D01*
X6747162Y-17828935D02*
X6766210Y-17819411D01*
X6766210Y-17819411D02*
X6813829Y-17819411D01*
X6813829Y-17819411D02*
X6832877Y-17828935D01*
X6832877Y-17828935D02*
X6842400Y-17838459D01*
X6842400Y-17838459D02*
X6851924Y-17857507D01*
X6851924Y-17857507D02*
X6851924Y-17876554D01*
X6851924Y-17876554D02*
X6842400Y-17905126D01*
X6842400Y-17905126D02*
X6728115Y-18019411D01*
X6728115Y-18019411D02*
X6851924Y-18019411D01*
X6918591Y-17819411D02*
X7051924Y-17819411D01*
X7051924Y-17819411D02*
X6966210Y-18019411D01*
X7280496Y-18019411D02*
X7280496Y-17819411D01*
X7366210Y-18019411D02*
X7366210Y-17914650D01*
X7366210Y-17914650D02*
X7356686Y-17895602D01*
X7356686Y-17895602D02*
X7337639Y-17886078D01*
X7337639Y-17886078D02*
X7309067Y-17886078D01*
X7309067Y-17886078D02*
X7290020Y-17895602D01*
X7290020Y-17895602D02*
X7280496Y-17905126D01*
X7490020Y-18019411D02*
X7470972Y-18009888D01*
X7470972Y-18009888D02*
X7461448Y-18000364D01*
X7461448Y-18000364D02*
X7451924Y-17981316D01*
X7451924Y-17981316D02*
X7451924Y-17924173D01*
X7451924Y-17924173D02*
X7461448Y-17905126D01*
X7461448Y-17905126D02*
X7470972Y-17895602D01*
X7470972Y-17895602D02*
X7490020Y-17886078D01*
X7490020Y-17886078D02*
X7518591Y-17886078D01*
X7518591Y-17886078D02*
X7537639Y-17895602D01*
X7537639Y-17895602D02*
X7547162Y-17905126D01*
X7547162Y-17905126D02*
X7556686Y-17924173D01*
X7556686Y-17924173D02*
X7556686Y-17981316D01*
X7556686Y-17981316D02*
X7547162Y-18000364D01*
X7547162Y-18000364D02*
X7537639Y-18009888D01*
X7537639Y-18009888D02*
X7518591Y-18019411D01*
X7518591Y-18019411D02*
X7490020Y-18019411D01*
X7670972Y-18019411D02*
X7651924Y-18009888D01*
X7651924Y-18009888D02*
X7642401Y-17990840D01*
X7642401Y-17990840D02*
X7642401Y-17819411D01*
X7823353Y-18009888D02*
X7804305Y-18019411D01*
X7804305Y-18019411D02*
X7766210Y-18019411D01*
X7766210Y-18019411D02*
X7747162Y-18009888D01*
X7747162Y-18009888D02*
X7737639Y-17990840D01*
X7737639Y-17990840D02*
X7737639Y-17914650D01*
X7737639Y-17914650D02*
X7747162Y-17895602D01*
X7747162Y-17895602D02*
X7766210Y-17886078D01*
X7766210Y-17886078D02*
X7804305Y-17886078D01*
X7804305Y-17886078D02*
X7823353Y-17895602D01*
X7823353Y-17895602D02*
X7832877Y-17914650D01*
X7832877Y-17914650D02*
X7832877Y-17933697D01*
X7832877Y-17933697D02*
X7737639Y-17952745D01*
X7909067Y-18009888D02*
X7928115Y-18019411D01*
X7928115Y-18019411D02*
X7966210Y-18019411D01*
X7966210Y-18019411D02*
X7985258Y-18009888D01*
X7985258Y-18009888D02*
X7994782Y-17990840D01*
X7994782Y-17990840D02*
X7994782Y-17981316D01*
X7994782Y-17981316D02*
X7985258Y-17962269D01*
X7985258Y-17962269D02*
X7966210Y-17952745D01*
X7966210Y-17952745D02*
X7937639Y-17952745D01*
X7937639Y-17952745D02*
X7918591Y-17943221D01*
X7918591Y-17943221D02*
X7909067Y-17924173D01*
X7909067Y-17924173D02*
X7909067Y-17914650D01*
X7909067Y-17914650D02*
X7918591Y-17895602D01*
X7918591Y-17895602D02*
X7937639Y-17886078D01*
X7937639Y-17886078D02*
X7966210Y-17886078D01*
X7966210Y-17886078D02*
X7985258Y-17895602D01*
X8061448Y-18095602D02*
X8070972Y-18086078D01*
X8070972Y-18086078D02*
X8090020Y-18057507D01*
X8090020Y-18057507D02*
X8099543Y-18038459D01*
X8099543Y-18038459D02*
X8109067Y-18009888D01*
X8109067Y-18009888D02*
X8118591Y-17962269D01*
X8118591Y-17962269D02*
X8118591Y-17924173D01*
X8118591Y-17924173D02*
X8109067Y-17876554D01*
X8109067Y-17876554D02*
X8099543Y-17847983D01*
X8099543Y-17847983D02*
X8090020Y-17828935D01*
X8090020Y-17828935D02*
X8070972Y-17800364D01*
X8070972Y-17800364D02*
X8061448Y-17790840D01*
X8423353Y-18095602D02*
X8413829Y-18086078D01*
X8413829Y-18086078D02*
X8394782Y-18057507D01*
X8394782Y-18057507D02*
X8385258Y-18038459D01*
X8385258Y-18038459D02*
X8375734Y-18009888D01*
X8375734Y-18009888D02*
X8366210Y-17962269D01*
X8366210Y-17962269D02*
X8366210Y-17924173D01*
X8366210Y-17924173D02*
X8375734Y-17876554D01*
X8375734Y-17876554D02*
X8385258Y-17847983D01*
X8385258Y-17847983D02*
X8394782Y-17828935D01*
X8394782Y-17828935D02*
X8413829Y-17800364D01*
X8413829Y-17800364D02*
X8423353Y-17790840D01*
X8499544Y-17886078D02*
X8499544Y-18019411D01*
X8499544Y-17905126D02*
X8509067Y-17895602D01*
X8509067Y-17895602D02*
X8528115Y-17886078D01*
X8528115Y-17886078D02*
X8556686Y-17886078D01*
X8556686Y-17886078D02*
X8575734Y-17895602D01*
X8575734Y-17895602D02*
X8585258Y-17914650D01*
X8585258Y-17914650D02*
X8585258Y-18019411D01*
X8709067Y-18019411D02*
X8690020Y-18009888D01*
X8690020Y-18009888D02*
X8680496Y-18000364D01*
X8680496Y-18000364D02*
X8670972Y-17981316D01*
X8670972Y-17981316D02*
X8670972Y-17924173D01*
X8670972Y-17924173D02*
X8680496Y-17905126D01*
X8680496Y-17905126D02*
X8690020Y-17895602D01*
X8690020Y-17895602D02*
X8709067Y-17886078D01*
X8709067Y-17886078D02*
X8737639Y-17886078D01*
X8737639Y-17886078D02*
X8756686Y-17895602D01*
X8756686Y-17895602D02*
X8766210Y-17905126D01*
X8766210Y-17905126D02*
X8775734Y-17924173D01*
X8775734Y-17924173D02*
X8775734Y-17981316D01*
X8775734Y-17981316D02*
X8766210Y-18000364D01*
X8766210Y-18000364D02*
X8756686Y-18009888D01*
X8756686Y-18009888D02*
X8737639Y-18019411D01*
X8737639Y-18019411D02*
X8709067Y-18019411D01*
X8832877Y-17886078D02*
X8909067Y-17886078D01*
X8861448Y-17819411D02*
X8861448Y-17990840D01*
X8861448Y-17990840D02*
X8870972Y-18009888D01*
X8870972Y-18009888D02*
X8890020Y-18019411D01*
X8890020Y-18019411D02*
X8909067Y-18019411D01*
X9128115Y-17886078D02*
X9128115Y-18086078D01*
X9128115Y-17895602D02*
X9147163Y-17886078D01*
X9147163Y-17886078D02*
X9185258Y-17886078D01*
X9185258Y-17886078D02*
X9204306Y-17895602D01*
X9204306Y-17895602D02*
X9213829Y-17905126D01*
X9213829Y-17905126D02*
X9223353Y-17924173D01*
X9223353Y-17924173D02*
X9223353Y-17981316D01*
X9223353Y-17981316D02*
X9213829Y-18000364D01*
X9213829Y-18000364D02*
X9204306Y-18009888D01*
X9204306Y-18009888D02*
X9185258Y-18019411D01*
X9185258Y-18019411D02*
X9147163Y-18019411D01*
X9147163Y-18019411D02*
X9128115Y-18009888D01*
X9337639Y-18019411D02*
X9318591Y-18009888D01*
X9318591Y-18009888D02*
X9309067Y-17990840D01*
X9309067Y-17990840D02*
X9309067Y-17819411D01*
X9499544Y-18019411D02*
X9499544Y-17914650D01*
X9499544Y-17914650D02*
X9490020Y-17895602D01*
X9490020Y-17895602D02*
X9470972Y-17886078D01*
X9470972Y-17886078D02*
X9432877Y-17886078D01*
X9432877Y-17886078D02*
X9413829Y-17895602D01*
X9499544Y-18009888D02*
X9480496Y-18019411D01*
X9480496Y-18019411D02*
X9432877Y-18019411D01*
X9432877Y-18019411D02*
X9413829Y-18009888D01*
X9413829Y-18009888D02*
X9404306Y-17990840D01*
X9404306Y-17990840D02*
X9404306Y-17971792D01*
X9404306Y-17971792D02*
X9413829Y-17952745D01*
X9413829Y-17952745D02*
X9432877Y-17943221D01*
X9432877Y-17943221D02*
X9480496Y-17943221D01*
X9480496Y-17943221D02*
X9499544Y-17933697D01*
X9566210Y-17886078D02*
X9642401Y-17886078D01*
X9594782Y-17819411D02*
X9594782Y-17990840D01*
X9594782Y-17990840D02*
X9604306Y-18009888D01*
X9604306Y-18009888D02*
X9623353Y-18019411D01*
X9623353Y-18019411D02*
X9642401Y-18019411D01*
X9785258Y-18009888D02*
X9766210Y-18019411D01*
X9766210Y-18019411D02*
X9728115Y-18019411D01*
X9728115Y-18019411D02*
X9709067Y-18009888D01*
X9709067Y-18009888D02*
X9699544Y-17990840D01*
X9699544Y-17990840D02*
X9699544Y-17914650D01*
X9699544Y-17914650D02*
X9709067Y-17895602D01*
X9709067Y-17895602D02*
X9728115Y-17886078D01*
X9728115Y-17886078D02*
X9766210Y-17886078D01*
X9766210Y-17886078D02*
X9785258Y-17895602D01*
X9785258Y-17895602D02*
X9794782Y-17914650D01*
X9794782Y-17914650D02*
X9794782Y-17933697D01*
X9794782Y-17933697D02*
X9699544Y-17952745D01*
X9966210Y-18019411D02*
X9966210Y-17819411D01*
X9966210Y-18009888D02*
X9947163Y-18019411D01*
X9947163Y-18019411D02*
X9909067Y-18019411D01*
X9909067Y-18019411D02*
X9890020Y-18009888D01*
X9890020Y-18009888D02*
X9880496Y-18000364D01*
X9880496Y-18000364D02*
X9870972Y-17981316D01*
X9870972Y-17981316D02*
X9870972Y-17924173D01*
X9870972Y-17924173D02*
X9880496Y-17905126D01*
X9880496Y-17905126D02*
X9890020Y-17895602D01*
X9890020Y-17895602D02*
X9909067Y-17886078D01*
X9909067Y-17886078D02*
X9947163Y-17886078D01*
X9947163Y-17886078D02*
X9966210Y-17895602D01*
X10042401Y-18095602D02*
X10051925Y-18086078D01*
X10051925Y-18086078D02*
X10070972Y-18057507D01*
X10070972Y-18057507D02*
X10080496Y-18038459D01*
X10080496Y-18038459D02*
X10090020Y-18009888D01*
X10090020Y-18009888D02*
X10099544Y-17962269D01*
X10099544Y-17962269D02*
X10099544Y-17924173D01*
X10099544Y-17924173D02*
X10090020Y-17876554D01*
X10090020Y-17876554D02*
X10080496Y-17847983D01*
X10080496Y-17847983D02*
X10070972Y-17828935D01*
X10070972Y-17828935D02*
X10051925Y-17800364D01*
X10051925Y-17800364D02*
X10042401Y-17790840D01*
M02*
