M48
; DRILL file KiCad 10.0.1 date 2026-07-24T20:15:37
; FORMAT={-:-/ absolute / metric / decimal}
; #@! TF.CreationDate,2026-07-24T20:15:37+12:00
; #@! TF.GenerationSoftware,Kicad,Pcbnew,10.0.1
; #@! TF.FileFunction,NonPlated,1,2,NPTH
FMAT,2
METRIC
; #@! TA.AperFunction,NonPlated,NPTH,ComponentDrill
T1C0.800
; #@! TA.AperFunction,NonPlated,NPTH,ComponentDrill
T2C1.600
; #@! TA.AperFunction,NonPlated,NPTH,ComponentDrill
T3C2.200
; #@! TA.AperFunction,NonPlated,NPTH,ComponentDrill
T4C3.050
; #@! TA.AperFunction,NonPlated,NPTH,ComponentDrill
T5C5.050
%
G90
G05
T1
X165.2Y-74.75
X172.2Y-74.75
T2
X38.989Y-44.196
X38.989Y-63.246
X38.989Y-82.296
X38.989Y-101.346
X58.039Y-44.196
X58.039Y-63.246
X58.039Y-82.296
X58.039Y-101.346
X77.089Y-39.433
X77.089Y-58.483
X77.089Y-77.533
X77.089Y-96.584
X96.139Y-34.671
X96.139Y-53.721
X96.139Y-72.771
X96.139Y-91.821
X115.189Y-39.433
X115.189Y-58.483
X115.189Y-77.533
X115.189Y-96.584
X116.447Y-120.44
X134.239Y-44.196
X134.239Y-63.246
X134.239Y-82.296
X134.239Y-101.346
X136.777Y-128.475
X155.632Y-140.133
T3
X33.75Y-30.25
X34.25Y-106.5
X146.75Y-144.6
X150.25Y-31.75
T4
X43.989Y-33.146
X43.989Y-52.196
X43.989Y-71.246
X43.989Y-90.296
X48.989Y-35.246
X48.989Y-54.296
X48.989Y-73.346
X48.989Y-92.396
X63.039Y-33.146
X63.039Y-52.196
X63.039Y-71.246
X63.039Y-90.296
X68.039Y-35.246
X68.039Y-54.296
X68.039Y-73.346
X68.039Y-92.396
X82.089Y-28.383
X82.089Y-47.433
X82.089Y-66.483
X82.089Y-85.533
X87.089Y-30.483
X87.089Y-49.533
X87.089Y-68.584
X87.089Y-87.633
X101.139Y-23.621
X101.139Y-42.671
X101.139Y-61.721
X101.139Y-80.771
X106.139Y-25.721
X106.139Y-44.771
X106.139Y-63.821
X106.139Y-82.871
X120.189Y-28.383
X120.189Y-47.433
X120.189Y-66.483
X120.189Y-85.533
X124.137Y-111.061
X125.189Y-30.483
X125.189Y-49.533
X125.189Y-68.584
X125.189Y-87.633
X128.423Y-114.384
X139.239Y-33.146
X139.239Y-52.196
X139.239Y-71.246
X139.239Y-90.296
X144.239Y-35.246
X144.239Y-54.296
X144.239Y-73.346
X144.239Y-92.396
X146.632Y-121.405
X149.912Y-125.724
X166.565Y-134.882
X169.045Y-139.705
T5
X43.989Y-39.046
X43.989Y-58.096
X43.989Y-77.146
X43.989Y-96.196
X63.039Y-39.046
X63.039Y-58.096
X63.039Y-77.146
X63.039Y-96.196
X82.089Y-34.283
X82.089Y-53.334
X82.089Y-72.383
X82.089Y-91.433
X101.139Y-29.521
X101.139Y-48.571
X101.139Y-67.621
X101.139Y-86.671
X120.189Y-34.283
X120.189Y-53.334
X120.189Y-72.383
X120.189Y-91.433
X122.61Y-116.76
X139.239Y-39.046
X139.239Y-58.096
X139.239Y-77.146
X139.239Y-96.196
X143.682Y-126.515
X162.772Y-139.402
M30
