%TF.GenerationSoftware,KiCad,Pcbnew,10.0.1*%
%TF.CreationDate,2026-07-24T20:15:28+12:00*%
%TF.ProjectId,keyboard,6b657962-6f61-4726-942e-6b696361645f,rev?*%
%TF.SameCoordinates,Original*%
%TF.FileFunction,Soldermask,Top*%
%TF.FilePolarity,Negative*%
%FSLAX46Y46*%
G04 Gerber Fmt 4.6, Leading zero omitted, Abs format (unit mm)*
G04 Created by KiCad (PCBNEW 10.0.1) date 2026-07-24 20:15:28*
%MOMM*%
%LPD*%
G01*
G04 APERTURE LIST*
%ADD10C,1.600000*%
%ADD11C,3.050000*%
%ADD12C,5.050000*%
%ADD13C,2.200000*%
%ADD14C,0.800000*%
%ADD15O,2.000000X1.600000*%
%ADD16O,2.500000X1.500000*%
%ADD17O,1.500000X2.500000*%
G04 APERTURE END LIST*
D10*
%TO.C,SW22*%
X96139000Y-91821000D03*
D11*
X101139000Y-80771000D03*
D12*
X101139000Y-86671000D03*
D11*
X106139000Y-82871000D03*
%TD*%
D10*
%TO.C,SW23*%
X115189000Y-96583500D03*
D11*
X120189000Y-85533500D03*
D12*
X120189000Y-91433500D03*
D11*
X125189000Y-87633500D03*
%TD*%
D10*
%TO.C,SW27*%
X155631865Y-140132752D03*
D11*
X166564890Y-134881899D03*
D12*
X162772443Y-139401561D03*
D11*
X169045258Y-139704530D03*
%TD*%
D13*
%TO.C,REF\u002A\u002A*%
X33750000Y-30250000D03*
%TD*%
D10*
%TO.C,SW16*%
X96139000Y-72771000D03*
D11*
X101139000Y-61721000D03*
D12*
X101139000Y-67621000D03*
D11*
X106139000Y-63821000D03*
%TD*%
D14*
%TO.C,U1*%
X172200000Y-74750000D03*
X165200000Y-74750000D03*
D15*
X162500000Y-72450000D03*
X163600000Y-77050000D03*
X167600000Y-77050000D03*
X170600000Y-77050000D03*
%TD*%
D10*
%TO.C,SW10*%
X96139000Y-53721000D03*
D11*
X101139000Y-42671000D03*
D12*
X101139000Y-48571000D03*
D11*
X106139000Y-44771000D03*
%TD*%
D13*
%TO.C,REF\u002A\u002A*%
X34250000Y-106500000D03*
%TD*%
D10*
%TO.C,SW17*%
X115189000Y-77533500D03*
D11*
X120189000Y-66483500D03*
D12*
X120189000Y-72383500D03*
D11*
X125189000Y-68583500D03*
%TD*%
D10*
%TO.C,SW14*%
X58039000Y-82296000D03*
D11*
X63039000Y-71246000D03*
D12*
X63039000Y-77146000D03*
D11*
X68039000Y-73346000D03*
%TD*%
D10*
%TO.C,SW6*%
X134239000Y-44196000D03*
D11*
X139239000Y-33146000D03*
D12*
X139239000Y-39046000D03*
D11*
X144239000Y-35246000D03*
%TD*%
D10*
%TO.C,SW2*%
X58039000Y-44196000D03*
D11*
X63039000Y-33146000D03*
D12*
X63039000Y-39046000D03*
D11*
X68039000Y-35246000D03*
%TD*%
D10*
%TO.C,SW13*%
X38989000Y-82296000D03*
D11*
X43989000Y-71246000D03*
D12*
X43989000Y-77146000D03*
D11*
X48989000Y-73346000D03*
%TD*%
D10*
%TO.C,SW5*%
X115189000Y-39433500D03*
D11*
X120189000Y-28383500D03*
D12*
X120189000Y-34283500D03*
D11*
X125189000Y-30483500D03*
%TD*%
D10*
%TO.C,SW8*%
X58039000Y-63246000D03*
D11*
X63039000Y-52196000D03*
D12*
X63039000Y-58096000D03*
D11*
X68039000Y-54296000D03*
%TD*%
D10*
%TO.C,SW7*%
X38989000Y-63246000D03*
D11*
X43989000Y-52196000D03*
D12*
X43989000Y-58096000D03*
D11*
X48989000Y-54296000D03*
%TD*%
D10*
%TO.C,SW1*%
X38989000Y-44196000D03*
D11*
X43989000Y-33146000D03*
D12*
X43989000Y-39046000D03*
D11*
X48989000Y-35246000D03*
%TD*%
D10*
%TO.C,SW20*%
X58039000Y-101346000D03*
D11*
X63039000Y-90296000D03*
D12*
X63039000Y-96196000D03*
D11*
X68039000Y-92396000D03*
%TD*%
D10*
%TO.C,SW4*%
X96139000Y-34671000D03*
D11*
X101139000Y-23621000D03*
D12*
X101139000Y-29521000D03*
D11*
X106139000Y-25721000D03*
%TD*%
D10*
%TO.C,SW11*%
X115189000Y-58483500D03*
D11*
X120189000Y-47433500D03*
D12*
X120189000Y-53333500D03*
D11*
X125189000Y-49533500D03*
%TD*%
D10*
%TO.C,SW26*%
X136777017Y-128474885D03*
D11*
X146632144Y-121405304D03*
D12*
X143682144Y-126514854D03*
D11*
X149912271Y-125723957D03*
%TD*%
D10*
%TO.C,SW15*%
X77089000Y-77533500D03*
D11*
X82089000Y-66483500D03*
D12*
X82089000Y-72383500D03*
D11*
X87089000Y-68583500D03*
%TD*%
D10*
%TO.C,SW21*%
X77089000Y-96583500D03*
D11*
X82089000Y-85533500D03*
D12*
X82089000Y-91433500D03*
D11*
X87089000Y-87633500D03*
%TD*%
D13*
%TO.C,REF\u002A\u002A*%
X146750000Y-144600000D03*
%TD*%
D10*
%TO.C,SW9*%
X77089000Y-58483500D03*
D11*
X82089000Y-47433500D03*
D12*
X82089000Y-53333500D03*
D11*
X87089000Y-49533500D03*
%TD*%
D10*
%TO.C,SW24*%
X134239000Y-101346000D03*
D11*
X139239000Y-90296000D03*
D12*
X139239000Y-96196000D03*
D11*
X144239000Y-92396000D03*
%TD*%
D10*
%TO.C,SW12*%
X134239000Y-63246000D03*
D11*
X139239000Y-52196000D03*
D12*
X139239000Y-58096000D03*
D11*
X144239000Y-54296000D03*
%TD*%
D10*
%TO.C,SW25*%
X116447205Y-120440377D03*
D11*
X124136784Y-111060992D03*
D12*
X122609752Y-116759954D03*
D11*
X128422894Y-114383531D03*
%TD*%
D10*
%TO.C,SW19*%
X38989000Y-101346000D03*
D11*
X43989000Y-90296000D03*
D12*
X43989000Y-96196000D03*
D11*
X48989000Y-92396000D03*
%TD*%
D16*
%TO.C,U2*%
X171696000Y-30607000D03*
X171696000Y-33147000D03*
X171696000Y-35687000D03*
X171696000Y-38227000D03*
X171696000Y-40767000D03*
X171696000Y-43307000D03*
X171696000Y-45847000D03*
X171696000Y-48387000D03*
X171696000Y-50927000D03*
D17*
X168656000Y-51427000D03*
X166116000Y-51427000D03*
X163576000Y-51427000D03*
X161036000Y-51427000D03*
X158496000Y-51427000D03*
D16*
X155456000Y-50927000D03*
X155456000Y-48387000D03*
X155456000Y-45847000D03*
X155456000Y-43307000D03*
X155456000Y-40767000D03*
X155456000Y-38227000D03*
X155456000Y-35687000D03*
X155456000Y-33147000D03*
X155456000Y-30607000D03*
%TD*%
D13*
%TO.C,REF\u002A\u002A*%
X150250000Y-31750000D03*
%TD*%
D10*
%TO.C,SW3*%
X77089000Y-39433500D03*
D11*
X82089000Y-28383500D03*
D12*
X82089000Y-34283500D03*
D11*
X87089000Y-30483500D03*
%TD*%
D10*
%TO.C,SW18*%
X134239000Y-82296000D03*
D11*
X139239000Y-71246000D03*
D12*
X139239000Y-77146000D03*
D11*
X144239000Y-73346000D03*
%TD*%
M02*
