%TF.GenerationSoftware,KiCad,Pcbnew,10.0.1*%
%TF.CreationDate,2026-06-27T21:41:19+12:00*%
%TF.ProjectId,keyboard,6b657962-6f61-4726-942e-6b696361645f,rev?*%
%TF.SameCoordinates,Original*%
%TF.FileFunction,Paste,Bot*%
%TF.FilePolarity,Positive*%
%FSLAX46Y46*%
G04 Gerber Fmt 4.6, Leading zero omitted, Abs format (unit mm)*
G04 Created by KiCad (PCBNEW 10.0.1) date 2026-06-27 21:41:19*
%MOMM*%
%LPD*%
G01*
G04 APERTURE LIST*
G04 Aperture macros list*
%AMRoundRect*
0 Rectangle with rounded corners*
0 $1 Rounding radius*
0 $2 $3 $4 $5 $6 $7 $8 $9 X,Y pos of 4 corners*
0 Add a 4 corners polygon primitive as box body*
4,1,4,$2,$3,$4,$5,$6,$7,$8,$9,$2,$3,0*
0 Add four circle primitives for the rounded corners*
1,1,$1+$1,$2,$3*
1,1,$1+$1,$4,$5*
1,1,$1+$1,$6,$7*
1,1,$1+$1,$8,$9*
0 Add four rect primitives between the rounded corners*
20,1,$1+$1,$2,$3,$4,$5,0*
20,1,$1+$1,$4,$5,$6,$7,0*
20,1,$1+$1,$6,$7,$8,$9,0*
20,1,$1+$1,$8,$9,$2,$3,0*%
G04 Aperture macros list end*
%ADD10RoundRect,0.250000X-1.025000X-1.000000X1.025000X-1.000000X1.025000X1.000000X-1.025000X1.000000X0*%
%ADD11RoundRect,0.250000X-1.427983X-0.107187X0.142408X-1.424902X1.427983X0.107187X-0.142408X1.424902X0*%
%ADD12RoundRect,0.250000X-1.387676X-0.353525X0.387676X-1.378525X1.387676X0.353525X-0.387676X1.378525X0*%
%ADD13RoundRect,0.250000X-1.248893X-0.700636X0.731255X-1.231215X1.248893X0.700636X-0.731255X1.231215X0*%
%ADD14RoundRect,0.250000X0.300000X-0.300000X0.300000X0.300000X-0.300000X0.300000X-0.300000X-0.300000X0*%
%ADD15RoundRect,0.250000X0.212132X-0.367423X0.367423X0.212132X-0.212132X0.367423X-0.367423X-0.212132X0*%
%ADD16RoundRect,0.250000X0.109808X-0.409808X0.409808X0.109808X-0.109808X0.409808X-0.409808X-0.109808X0*%
%ADD17RoundRect,0.250000X0.036977X-0.422650X0.422650X0.036977X-0.036977X0.422650X-0.422650X-0.036977X0*%
G04 APERTURE END LIST*
D10*
%TO.C,SW22*%
X97639000Y-80671000D03*
X109639000Y-82871000D03*
%TD*%
%TO.C,SW23*%
X116689000Y-85433500D03*
X128689000Y-87633500D03*
%TD*%
D11*
%TO.C,SW27*%
X163948013Y-132555538D03*
X171726414Y-141954287D03*
%TD*%
D10*
%TO.C,SW16*%
X97639000Y-61621000D03*
X109639000Y-63821000D03*
%TD*%
%TO.C,SW10*%
X97639000Y-42571000D03*
X109639000Y-44771000D03*
%TD*%
%TO.C,SW17*%
X116689000Y-66383500D03*
X128689000Y-68583500D03*
%TD*%
%TO.C,SW14*%
X59539000Y-71146000D03*
X71539000Y-73346000D03*
%TD*%
%TO.C,SW6*%
X135739000Y-33046000D03*
X147739000Y-35246000D03*
%TD*%
%TO.C,SW2*%
X59539000Y-33046000D03*
X71539000Y-35246000D03*
%TD*%
%TO.C,SW13*%
X40489000Y-71146000D03*
X52489000Y-73346000D03*
%TD*%
%TO.C,SW5*%
X116689000Y-28283500D03*
X128689000Y-30483500D03*
%TD*%
%TO.C,SW8*%
X59539000Y-52096000D03*
X71539000Y-54296000D03*
%TD*%
%TO.C,SW7*%
X40489000Y-52096000D03*
X52489000Y-54296000D03*
%TD*%
%TO.C,SW1*%
X40489000Y-33046000D03*
X52489000Y-35246000D03*
%TD*%
%TO.C,SW20*%
X59539000Y-90196000D03*
X71539000Y-92396000D03*
%TD*%
%TO.C,SW4*%
X97639000Y-23521000D03*
X109639000Y-25721000D03*
%TD*%
%TO.C,SW11*%
X116689000Y-47333500D03*
X128689000Y-49533500D03*
%TD*%
D12*
%TO.C,SW26*%
X143651055Y-119568702D03*
X152943360Y-127473957D03*
%TD*%
D10*
%TO.C,SW15*%
X78589000Y-66383500D03*
X90589000Y-68583500D03*
%TD*%
%TO.C,SW21*%
X78589000Y-85433500D03*
X90589000Y-87633500D03*
%TD*%
%TO.C,SW9*%
X78589000Y-47333500D03*
X90589000Y-49533500D03*
%TD*%
%TO.C,SW24*%
X135739000Y-90196000D03*
X147739000Y-92396000D03*
%TD*%
%TO.C,SW12*%
X135739000Y-52096000D03*
X147739000Y-54296000D03*
%TD*%
D13*
%TO.C,SW25*%
X120781926Y-110058532D03*
X131803634Y-115289398D03*
%TD*%
D10*
%TO.C,SW19*%
X40489000Y-90196000D03*
X52489000Y-92396000D03*
%TD*%
%TO.C,SW3*%
X78589000Y-28283500D03*
X90589000Y-30483500D03*
%TD*%
%TO.C,SW18*%
X135739000Y-71146000D03*
X147739000Y-73346000D03*
%TD*%
D14*
%TO.C,D6*%
X144319000Y-44446000D03*
X144319000Y-41646000D03*
%TD*%
%TO.C,D20*%
X68119000Y-101596000D03*
X68119000Y-98796000D03*
%TD*%
%TO.C,D14*%
X68119000Y-82546000D03*
X68119000Y-79746000D03*
%TD*%
%TO.C,D1*%
X49069000Y-44446000D03*
X49069000Y-41646000D03*
%TD*%
%TO.C,D15*%
X87169000Y-77783500D03*
X87169000Y-74983500D03*
%TD*%
%TO.C,D16*%
X106219000Y-73021000D03*
X106219000Y-70221000D03*
%TD*%
D15*
%TO.C,D25*%
X126119032Y-123290754D03*
X126843726Y-120586162D03*
%TD*%
D14*
%TO.C,D13*%
X49069000Y-82546000D03*
X49069000Y-79746000D03*
%TD*%
%TO.C,D11*%
X125269000Y-58733500D03*
X125269000Y-55933500D03*
%TD*%
%TO.C,D8*%
X68119000Y-63496000D03*
X68119000Y-60696000D03*
%TD*%
%TO.C,D10*%
X106219000Y-53971000D03*
X106219000Y-51171000D03*
%TD*%
%TO.C,D7*%
X49069000Y-63496000D03*
X49069000Y-60696000D03*
%TD*%
%TO.C,D22*%
X106219000Y-92071000D03*
X106219000Y-89271000D03*
%TD*%
%TO.C,D19*%
X49069000Y-101596000D03*
X49069000Y-98796000D03*
%TD*%
%TO.C,D4*%
X106219000Y-34921000D03*
X106219000Y-32121000D03*
%TD*%
%TO.C,D12*%
X144319000Y-63496000D03*
X144319000Y-60696000D03*
%TD*%
D16*
%TO.C,D26*%
X145381553Y-133731391D03*
X146781553Y-131306519D03*
%TD*%
D14*
%TO.C,D2*%
X68119000Y-44446000D03*
X68119000Y-41646000D03*
%TD*%
%TO.C,D5*%
X125269000Y-39683500D03*
X125269000Y-36883500D03*
%TD*%
%TO.C,D21*%
X87169000Y-96833500D03*
X87169000Y-94033500D03*
%TD*%
D17*
%TO.C,D27*%
X163192895Y-146803561D03*
X164992701Y-144658637D03*
%TD*%
D14*
%TO.C,D18*%
X144319000Y-82546000D03*
X144319000Y-79746000D03*
%TD*%
%TO.C,D3*%
X87169000Y-39683500D03*
X87169000Y-36883500D03*
%TD*%
%TO.C,D24*%
X144319000Y-101596000D03*
X144319000Y-98796000D03*
%TD*%
%TO.C,D17*%
X125269000Y-77783500D03*
X125269000Y-74983500D03*
%TD*%
%TO.C,D9*%
X87169000Y-58733500D03*
X87169000Y-55933500D03*
%TD*%
%TO.C,D23*%
X125269000Y-96833500D03*
X125269000Y-94033500D03*
%TD*%
M02*
