M48
; DRILL file KiCad 10.0.1 date 2026-06-07T15:59:30
; FORMAT={-:-/ absolute / metric / decimal}
; #@! TF.CreationDate,2026-06-07T15:59:30+12:00
; #@! TF.GenerationSoftware,Kicad,Pcbnew,10.0.1
; #@! TF.FileFunction,NonPlated,1,2,NPTH
FMAT,2
METRIC
; #@! TA.AperFunction,NonPlated,NPTH,ComponentDrill
T1C1.500
; #@! TA.AperFunction,NonPlated,NPTH,ComponentDrill
T2C1.750
; #@! TA.AperFunction,NonPlated,NPTH,ComponentDrill
T3C2.200
; #@! TA.AperFunction,NonPlated,NPTH,ComponentDrill
T4C3.050
; #@! TA.AperFunction,NonPlated,NPTH,ComponentDrill
T5C4.000
%
G90
G05
T1
X107.475Y-98.0
X114.475Y-98.0
T2
X112.235Y-167.823
X120.018Y-161.293
X130.817Y-154.211
X134.58Y-64.203
X134.58Y-83.252
X134.58Y-102.302
X134.58Y-121.352
X139.616Y-149.131
X144.74Y-64.203
X144.74Y-83.252
X144.74Y-102.302
X144.74Y-121.352
X151.382Y-143.231
X153.63Y-59.44
X153.63Y-78.49
X153.63Y-97.54
X153.63Y-116.59
X161.196Y-140.602
X163.79Y-59.44
X163.79Y-78.49
X163.79Y-97.54
X163.79Y-116.59
X172.68Y-54.677
X172.68Y-73.727
X172.68Y-92.777
X172.68Y-111.828
X182.84Y-54.677
X182.84Y-73.727
X182.84Y-92.777
X182.84Y-111.828
X191.73Y-59.44
X191.73Y-78.49
X191.73Y-97.54
X191.73Y-116.59
X201.89Y-59.44
X201.89Y-78.49
X201.89Y-97.54
X201.89Y-116.59
X210.78Y-64.203
X210.78Y-83.252
X210.78Y-102.302
X210.78Y-121.352
X220.94Y-64.203
X220.94Y-83.252
X220.94Y-102.302
X220.94Y-121.352
X229.83Y-64.203
X229.83Y-83.252
X229.83Y-102.302
X229.83Y-121.352
X239.99Y-64.203
X239.99Y-83.252
X239.99Y-102.302
X239.99Y-121.352
T3
X128.204Y-56.684
X130.62Y-167.937
X244.204Y-131.434
X244.704Y-55.184
T4
X111.575Y-165.061
X114.807Y-159.034
X130.647Y-151.377
X134.877Y-146.002
X135.85Y-61.662
X135.85Y-80.712
X135.85Y-99.762
X135.85Y-118.812
X142.2Y-59.122
X142.2Y-78.172
X142.2Y-97.222
X142.2Y-116.272
X151.952Y-140.449
X154.9Y-56.9
X154.9Y-75.95
X154.9Y-95.0
X154.9Y-114.05
X157.428Y-136.352
X161.25Y-54.36
X161.25Y-73.41
X161.25Y-92.46
X161.25Y-111.51
X173.95Y-52.137
X173.95Y-71.188
X173.95Y-90.237
X173.95Y-109.287
X180.3Y-49.597
X180.3Y-68.647
X180.3Y-87.697
X180.3Y-106.748
X193.0Y-56.9
X193.0Y-75.95
X193.0Y-95.0
X193.0Y-114.05
X199.35Y-54.36
X199.35Y-73.41
X199.35Y-92.46
X199.35Y-111.51
X212.05Y-61.662
X212.05Y-80.712
X212.05Y-99.762
X212.05Y-118.812
X218.4Y-59.122
X218.4Y-78.172
X218.4Y-97.222
X218.4Y-116.272
X231.1Y-61.662
X231.1Y-80.712
X231.1Y-99.762
X231.1Y-118.812
X237.45Y-59.122
X237.45Y-78.172
X237.45Y-97.222
X237.45Y-116.272
T5
X116.127Y-164.558
X135.217Y-151.671
X139.66Y-64.203
X139.66Y-83.252
X139.66Y-102.302
X139.66Y-121.352
X156.289Y-141.916
X158.71Y-59.44
X158.71Y-78.49
X158.71Y-97.54
X158.71Y-116.59
X177.76Y-54.677
X177.76Y-73.727
X177.76Y-92.777
X177.76Y-111.828
X196.81Y-59.44
X196.81Y-78.49
X196.81Y-97.54
X196.81Y-116.59
X215.86Y-64.203
X215.86Y-83.252
X215.86Y-102.302
X215.86Y-121.352
X234.91Y-64.203
X234.91Y-83.252
X234.91Y-102.302
X234.91Y-121.352
M30
