%TF.GenerationSoftware,KiCad,Pcbnew,10.0.1*%
%TF.CreationDate,2026-06-06T18:00:52+12:00*%
%TF.ProjectId,keyboard,6b657962-6f61-4726-942e-6b696361645f,rev?*%
%TF.SameCoordinates,Original*%
%TF.FileFunction,Legend,Top*%
%TF.FilePolarity,Positive*%
%FSLAX46Y46*%
G04 Gerber Fmt 4.6, Leading zero omitted, Abs format (unit mm)*
G04 Created by KiCad (PCBNEW 10.0.1) date 2026-06-06 18:00:52*
%MOMM*%
%LPD*%
G01*
G04 APERTURE LIST*
%ADD10C,0.300000*%
%ADD11C,0.200000*%
%ADD12C,0.150000*%
%ADD13C,0.120000*%
G04 APERTURE END LIST*
D10*
X119885912Y-101445489D02*
X118885912Y-101445489D01*
X119171626Y-101445489D02*
X119028769Y-101374060D01*
X119028769Y-101374060D02*
X118957341Y-101302632D01*
X118957341Y-101302632D02*
X118885912Y-101159774D01*
X118885912Y-101159774D02*
X118885912Y-101016917D01*
X118885912Y-100731203D02*
X118885912Y-100159775D01*
X118385912Y-100516918D02*
X119671626Y-100516918D01*
X119671626Y-100516918D02*
X119814484Y-100445489D01*
X119814484Y-100445489D02*
X119885912Y-100302632D01*
X119885912Y-100302632D02*
X119885912Y-100159775D01*
X118885912Y-99802632D02*
X119885912Y-99445489D01*
X118885912Y-99088346D02*
X119885912Y-99445489D01*
X119885912Y-99445489D02*
X120243055Y-99588346D01*
X120243055Y-99588346D02*
X120314484Y-99659775D01*
X120314484Y-99659775D02*
X120385912Y-99802632D01*
X118885912Y-97874061D02*
X119885912Y-97874061D01*
X118885912Y-98516918D02*
X119671626Y-98516918D01*
X119671626Y-98516918D02*
X119814484Y-98445489D01*
X119814484Y-98445489D02*
X119885912Y-98302632D01*
X119885912Y-98302632D02*
X119885912Y-98088346D01*
X119885912Y-98088346D02*
X119814484Y-97945489D01*
X119814484Y-97945489D02*
X119743055Y-97874061D01*
X119885912Y-96016918D02*
X118885912Y-96016918D01*
X119028769Y-96016918D02*
X118957341Y-95945489D01*
X118957341Y-95945489D02*
X118885912Y-95802632D01*
X118885912Y-95802632D02*
X118885912Y-95588346D01*
X118885912Y-95588346D02*
X118957341Y-95445489D01*
X118957341Y-95445489D02*
X119100198Y-95374061D01*
X119100198Y-95374061D02*
X119885912Y-95374061D01*
X119100198Y-95374061D02*
X118957341Y-95302632D01*
X118957341Y-95302632D02*
X118885912Y-95159775D01*
X118885912Y-95159775D02*
X118885912Y-94945489D01*
X118885912Y-94945489D02*
X118957341Y-94802632D01*
X118957341Y-94802632D02*
X119100198Y-94731203D01*
X119100198Y-94731203D02*
X119885912Y-94731203D01*
X119885912Y-94159775D02*
X118885912Y-93374061D01*
X118885912Y-94159775D02*
X119885912Y-93374061D01*
X122300828Y-101445489D02*
X121300828Y-101445489D01*
X121586542Y-101445489D02*
X121443685Y-101374060D01*
X121443685Y-101374060D02*
X121372257Y-101302632D01*
X121372257Y-101302632D02*
X121300828Y-101159774D01*
X121300828Y-101159774D02*
X121300828Y-101016917D01*
X122300828Y-100516918D02*
X121300828Y-100516918D01*
X120800828Y-100516918D02*
X120872257Y-100588346D01*
X120872257Y-100588346D02*
X120943685Y-100516918D01*
X120943685Y-100516918D02*
X120872257Y-100445489D01*
X120872257Y-100445489D02*
X120800828Y-100516918D01*
X120800828Y-100516918D02*
X120943685Y-100516918D01*
X121300828Y-99159775D02*
X122515114Y-99159775D01*
X122515114Y-99159775D02*
X122657971Y-99231203D01*
X122657971Y-99231203D02*
X122729400Y-99302632D01*
X122729400Y-99302632D02*
X122800828Y-99445489D01*
X122800828Y-99445489D02*
X122800828Y-99659775D01*
X122800828Y-99659775D02*
X122729400Y-99802632D01*
X122229400Y-99159775D02*
X122300828Y-99302632D01*
X122300828Y-99302632D02*
X122300828Y-99588346D01*
X122300828Y-99588346D02*
X122229400Y-99731203D01*
X122229400Y-99731203D02*
X122157971Y-99802632D01*
X122157971Y-99802632D02*
X122015114Y-99874060D01*
X122015114Y-99874060D02*
X121586542Y-99874060D01*
X121586542Y-99874060D02*
X121443685Y-99802632D01*
X121443685Y-99802632D02*
X121372257Y-99731203D01*
X121372257Y-99731203D02*
X121300828Y-99588346D01*
X121300828Y-99588346D02*
X121300828Y-99302632D01*
X121300828Y-99302632D02*
X121372257Y-99159775D01*
X122300828Y-98445489D02*
X120800828Y-98445489D01*
X122300828Y-97802632D02*
X121515114Y-97802632D01*
X121515114Y-97802632D02*
X121372257Y-97874060D01*
X121372257Y-97874060D02*
X121300828Y-98016917D01*
X121300828Y-98016917D02*
X121300828Y-98231203D01*
X121300828Y-98231203D02*
X121372257Y-98374060D01*
X121372257Y-98374060D02*
X121443685Y-98445489D01*
X121300828Y-97302631D02*
X121300828Y-96731203D01*
X120800828Y-97088346D02*
X122086542Y-97088346D01*
X122086542Y-97088346D02*
X122229400Y-97016917D01*
X122229400Y-97016917D02*
X122300828Y-96874060D01*
X122300828Y-96874060D02*
X122300828Y-96731203D01*
X122229400Y-95159774D02*
X122300828Y-95016917D01*
X122300828Y-95016917D02*
X122300828Y-94731203D01*
X122300828Y-94731203D02*
X122229400Y-94588346D01*
X122229400Y-94588346D02*
X122086542Y-94516917D01*
X122086542Y-94516917D02*
X122015114Y-94516917D01*
X122015114Y-94516917D02*
X121872257Y-94588346D01*
X121872257Y-94588346D02*
X121800828Y-94731203D01*
X121800828Y-94731203D02*
X121800828Y-94945489D01*
X121800828Y-94945489D02*
X121729400Y-95088346D01*
X121729400Y-95088346D02*
X121586542Y-95159774D01*
X121586542Y-95159774D02*
X121515114Y-95159774D01*
X121515114Y-95159774D02*
X121372257Y-95088346D01*
X121372257Y-95088346D02*
X121300828Y-94945489D01*
X121300828Y-94945489D02*
X121300828Y-94731203D01*
X121300828Y-94731203D02*
X121372257Y-94588346D01*
X122300828Y-93874060D02*
X121300828Y-93874060D01*
X120800828Y-93874060D02*
X120872257Y-93945488D01*
X120872257Y-93945488D02*
X120943685Y-93874060D01*
X120943685Y-93874060D02*
X120872257Y-93802631D01*
X120872257Y-93802631D02*
X120800828Y-93874060D01*
X120800828Y-93874060D02*
X120943685Y-93874060D01*
X122300828Y-92516917D02*
X120800828Y-92516917D01*
X122229400Y-92516917D02*
X122300828Y-92659774D01*
X122300828Y-92659774D02*
X122300828Y-92945488D01*
X122300828Y-92945488D02*
X122229400Y-93088345D01*
X122229400Y-93088345D02*
X122157971Y-93159774D01*
X122157971Y-93159774D02*
X122015114Y-93231202D01*
X122015114Y-93231202D02*
X121586542Y-93231202D01*
X121586542Y-93231202D02*
X121443685Y-93159774D01*
X121443685Y-93159774D02*
X121372257Y-93088345D01*
X121372257Y-93088345D02*
X121300828Y-92945488D01*
X121300828Y-92945488D02*
X121300828Y-92659774D01*
X121300828Y-92659774D02*
X121372257Y-92516917D01*
X122229400Y-91231202D02*
X122300828Y-91374059D01*
X122300828Y-91374059D02*
X122300828Y-91659774D01*
X122300828Y-91659774D02*
X122229400Y-91802631D01*
X122229400Y-91802631D02*
X122086542Y-91874059D01*
X122086542Y-91874059D02*
X121515114Y-91874059D01*
X121515114Y-91874059D02*
X121372257Y-91802631D01*
X121372257Y-91802631D02*
X121300828Y-91659774D01*
X121300828Y-91659774D02*
X121300828Y-91374059D01*
X121300828Y-91374059D02*
X121372257Y-91231202D01*
X121372257Y-91231202D02*
X121515114Y-91159774D01*
X121515114Y-91159774D02*
X121657971Y-91159774D01*
X121657971Y-91159774D02*
X121800828Y-91874059D01*
D11*
X103654136Y-70547457D02*
X103701755Y-70499838D01*
X103701755Y-70499838D02*
X103796993Y-70452219D01*
X103796993Y-70452219D02*
X104035088Y-70452219D01*
X104035088Y-70452219D02*
X104130326Y-70499838D01*
X104130326Y-70499838D02*
X104177945Y-70547457D01*
X104177945Y-70547457D02*
X104225564Y-70642695D01*
X104225564Y-70642695D02*
X104225564Y-70737933D01*
X104225564Y-70737933D02*
X104177945Y-70880790D01*
X104177945Y-70880790D02*
X103606517Y-71452219D01*
X103606517Y-71452219D02*
X104225564Y-71452219D01*
X105082707Y-70452219D02*
X104892231Y-70452219D01*
X104892231Y-70452219D02*
X104796993Y-70499838D01*
X104796993Y-70499838D02*
X104749374Y-70547457D01*
X104749374Y-70547457D02*
X104654136Y-70690314D01*
X104654136Y-70690314D02*
X104606517Y-70880790D01*
X104606517Y-70880790D02*
X104606517Y-71261742D01*
X104606517Y-71261742D02*
X104654136Y-71356980D01*
X104654136Y-71356980D02*
X104701755Y-71404600D01*
X104701755Y-71404600D02*
X104796993Y-71452219D01*
X104796993Y-71452219D02*
X104987469Y-71452219D01*
X104987469Y-71452219D02*
X105082707Y-71404600D01*
X105082707Y-71404600D02*
X105130326Y-71356980D01*
X105130326Y-71356980D02*
X105177945Y-71261742D01*
X105177945Y-71261742D02*
X105177945Y-71023647D01*
X105177945Y-71023647D02*
X105130326Y-70928409D01*
X105130326Y-70928409D02*
X105082707Y-70880790D01*
X105082707Y-70880790D02*
X104987469Y-70833171D01*
X104987469Y-70833171D02*
X104796993Y-70833171D01*
X104796993Y-70833171D02*
X104701755Y-70880790D01*
X104701755Y-70880790D02*
X104654136Y-70928409D01*
X104654136Y-70928409D02*
X104606517Y-71023647D01*
X104225564Y-73952219D02*
X103654136Y-73952219D01*
X103939850Y-73952219D02*
X103939850Y-72952219D01*
X103939850Y-72952219D02*
X103844612Y-73095076D01*
X103844612Y-73095076D02*
X103749374Y-73190314D01*
X103749374Y-73190314D02*
X103654136Y-73237933D01*
X105130326Y-72952219D02*
X104654136Y-72952219D01*
X104654136Y-72952219D02*
X104606517Y-73428409D01*
X104606517Y-73428409D02*
X104654136Y-73380790D01*
X104654136Y-73380790D02*
X104749374Y-73333171D01*
X104749374Y-73333171D02*
X104987469Y-73333171D01*
X104987469Y-73333171D02*
X105082707Y-73380790D01*
X105082707Y-73380790D02*
X105130326Y-73428409D01*
X105130326Y-73428409D02*
X105177945Y-73523647D01*
X105177945Y-73523647D02*
X105177945Y-73761742D01*
X105177945Y-73761742D02*
X105130326Y-73856980D01*
X105130326Y-73856980D02*
X105082707Y-73904600D01*
X105082707Y-73904600D02*
X104987469Y-73952219D01*
X104987469Y-73952219D02*
X104749374Y-73952219D01*
X104749374Y-73952219D02*
X104654136Y-73904600D01*
X104654136Y-73904600D02*
X104606517Y-73856980D01*
X105234662Y-78452219D02*
X104663234Y-78452219D01*
X104948948Y-78452219D02*
X104948948Y-77452219D01*
X104948948Y-77452219D02*
X104853710Y-77595076D01*
X104853710Y-77595076D02*
X104758472Y-77690314D01*
X104758472Y-77690314D02*
X104663234Y-77737933D01*
X106091805Y-77785552D02*
X106091805Y-78452219D01*
X105853710Y-77404600D02*
X105615615Y-78118885D01*
X105615615Y-78118885D02*
X106234662Y-78118885D01*
X109607291Y-79148519D02*
X109035863Y-79148519D01*
X109321577Y-79148519D02*
X109321577Y-78148519D01*
X109321577Y-78148519D02*
X109226339Y-78291376D01*
X109226339Y-78291376D02*
X109131101Y-78386614D01*
X109131101Y-78386614D02*
X109035863Y-78434233D01*
X109940625Y-78148519D02*
X110559672Y-78148519D01*
X110559672Y-78148519D02*
X110226339Y-78529471D01*
X110226339Y-78529471D02*
X110369196Y-78529471D01*
X110369196Y-78529471D02*
X110464434Y-78577090D01*
X110464434Y-78577090D02*
X110512053Y-78624709D01*
X110512053Y-78624709D02*
X110559672Y-78719947D01*
X110559672Y-78719947D02*
X110559672Y-78958042D01*
X110559672Y-78958042D02*
X110512053Y-79053280D01*
X110512053Y-79053280D02*
X110464434Y-79100900D01*
X110464434Y-79100900D02*
X110369196Y-79148519D01*
X110369196Y-79148519D02*
X110083482Y-79148519D01*
X110083482Y-79148519D02*
X109988244Y-79100900D01*
X109988244Y-79100900D02*
X109940625Y-79053280D01*
X109074951Y-54886519D02*
X108598761Y-54886519D01*
X108598761Y-54886519D02*
X108551142Y-55362709D01*
X108551142Y-55362709D02*
X108598761Y-55315090D01*
X108598761Y-55315090D02*
X108693999Y-55267471D01*
X108693999Y-55267471D02*
X108932094Y-55267471D01*
X108932094Y-55267471D02*
X109027332Y-55315090D01*
X109027332Y-55315090D02*
X109074951Y-55362709D01*
X109074951Y-55362709D02*
X109122570Y-55457947D01*
X109122570Y-55457947D02*
X109122570Y-55696042D01*
X109122570Y-55696042D02*
X109074951Y-55791280D01*
X109074951Y-55791280D02*
X109027332Y-55838900D01*
X109027332Y-55838900D02*
X108932094Y-55886519D01*
X108932094Y-55886519D02*
X108693999Y-55886519D01*
X108693999Y-55886519D02*
X108598761Y-55838900D01*
X108598761Y-55838900D02*
X108551142Y-55791280D01*
X109408285Y-54886519D02*
X109741618Y-55886519D01*
X109741618Y-55886519D02*
X110074951Y-54886519D01*
X109154136Y-62708757D02*
X109201755Y-62661138D01*
X109201755Y-62661138D02*
X109296993Y-62613519D01*
X109296993Y-62613519D02*
X109535088Y-62613519D01*
X109535088Y-62613519D02*
X109630326Y-62661138D01*
X109630326Y-62661138D02*
X109677945Y-62708757D01*
X109677945Y-62708757D02*
X109725564Y-62803995D01*
X109725564Y-62803995D02*
X109725564Y-62899233D01*
X109725564Y-62899233D02*
X109677945Y-63042090D01*
X109677945Y-63042090D02*
X109106517Y-63613519D01*
X109106517Y-63613519D02*
X109725564Y-63613519D01*
X110201755Y-63613519D02*
X110392231Y-63613519D01*
X110392231Y-63613519D02*
X110487469Y-63565900D01*
X110487469Y-63565900D02*
X110535088Y-63518280D01*
X110535088Y-63518280D02*
X110630326Y-63375423D01*
X110630326Y-63375423D02*
X110677945Y-63184947D01*
X110677945Y-63184947D02*
X110677945Y-62803995D01*
X110677945Y-62803995D02*
X110630326Y-62708757D01*
X110630326Y-62708757D02*
X110582707Y-62661138D01*
X110582707Y-62661138D02*
X110487469Y-62613519D01*
X110487469Y-62613519D02*
X110296993Y-62613519D01*
X110296993Y-62613519D02*
X110201755Y-62661138D01*
X110201755Y-62661138D02*
X110154136Y-62708757D01*
X110154136Y-62708757D02*
X110106517Y-62803995D01*
X110106517Y-62803995D02*
X110106517Y-63042090D01*
X110106517Y-63042090D02*
X110154136Y-63137328D01*
X110154136Y-63137328D02*
X110201755Y-63184947D01*
X110201755Y-63184947D02*
X110296993Y-63232566D01*
X110296993Y-63232566D02*
X110487469Y-63232566D01*
X110487469Y-63232566D02*
X110582707Y-63184947D01*
X110582707Y-63184947D02*
X110630326Y-63137328D01*
X110630326Y-63137328D02*
X110677945Y-63042090D01*
X109154136Y-67788757D02*
X109201755Y-67741138D01*
X109201755Y-67741138D02*
X109296993Y-67693519D01*
X109296993Y-67693519D02*
X109535088Y-67693519D01*
X109535088Y-67693519D02*
X109630326Y-67741138D01*
X109630326Y-67741138D02*
X109677945Y-67788757D01*
X109677945Y-67788757D02*
X109725564Y-67883995D01*
X109725564Y-67883995D02*
X109725564Y-67979233D01*
X109725564Y-67979233D02*
X109677945Y-68122090D01*
X109677945Y-68122090D02*
X109106517Y-68693519D01*
X109106517Y-68693519D02*
X109725564Y-68693519D01*
X110058898Y-67693519D02*
X110725564Y-67693519D01*
X110725564Y-67693519D02*
X110296993Y-68693519D01*
X108258472Y-60073519D02*
X108877519Y-60073519D01*
X108877519Y-60073519D02*
X108544186Y-60454471D01*
X108544186Y-60454471D02*
X108687043Y-60454471D01*
X108687043Y-60454471D02*
X108782281Y-60502090D01*
X108782281Y-60502090D02*
X108829900Y-60549709D01*
X108829900Y-60549709D02*
X108877519Y-60644947D01*
X108877519Y-60644947D02*
X108877519Y-60883042D01*
X108877519Y-60883042D02*
X108829900Y-60978280D01*
X108829900Y-60978280D02*
X108782281Y-61025900D01*
X108782281Y-61025900D02*
X108687043Y-61073519D01*
X108687043Y-61073519D02*
X108401329Y-61073519D01*
X108401329Y-61073519D02*
X108306091Y-61025900D01*
X108306091Y-61025900D02*
X108258472Y-60978280D01*
X109163234Y-60073519D02*
X109496567Y-61073519D01*
X109496567Y-61073519D02*
X109829900Y-60073519D01*
X110067996Y-60073519D02*
X110687043Y-60073519D01*
X110687043Y-60073519D02*
X110353710Y-60454471D01*
X110353710Y-60454471D02*
X110496567Y-60454471D01*
X110496567Y-60454471D02*
X110591805Y-60502090D01*
X110591805Y-60502090D02*
X110639424Y-60549709D01*
X110639424Y-60549709D02*
X110687043Y-60644947D01*
X110687043Y-60644947D02*
X110687043Y-60883042D01*
X110687043Y-60883042D02*
X110639424Y-60978280D01*
X110639424Y-60978280D02*
X110591805Y-61025900D01*
X110591805Y-61025900D02*
X110496567Y-61073519D01*
X110496567Y-61073519D02*
X110210853Y-61073519D01*
X110210853Y-61073519D02*
X110115615Y-61025900D01*
X110115615Y-61025900D02*
X110067996Y-60978280D01*
X109163234Y-65248757D02*
X109210853Y-65201138D01*
X109210853Y-65201138D02*
X109306091Y-65153519D01*
X109306091Y-65153519D02*
X109544186Y-65153519D01*
X109544186Y-65153519D02*
X109639424Y-65201138D01*
X109639424Y-65201138D02*
X109687043Y-65248757D01*
X109687043Y-65248757D02*
X109734662Y-65343995D01*
X109734662Y-65343995D02*
X109734662Y-65439233D01*
X109734662Y-65439233D02*
X109687043Y-65582090D01*
X109687043Y-65582090D02*
X109115615Y-66153519D01*
X109115615Y-66153519D02*
X109734662Y-66153519D01*
X110306091Y-65582090D02*
X110210853Y-65534471D01*
X110210853Y-65534471D02*
X110163234Y-65486852D01*
X110163234Y-65486852D02*
X110115615Y-65391614D01*
X110115615Y-65391614D02*
X110115615Y-65343995D01*
X110115615Y-65343995D02*
X110163234Y-65248757D01*
X110163234Y-65248757D02*
X110210853Y-65201138D01*
X110210853Y-65201138D02*
X110306091Y-65153519D01*
X110306091Y-65153519D02*
X110496567Y-65153519D01*
X110496567Y-65153519D02*
X110591805Y-65201138D01*
X110591805Y-65201138D02*
X110639424Y-65248757D01*
X110639424Y-65248757D02*
X110687043Y-65343995D01*
X110687043Y-65343995D02*
X110687043Y-65391614D01*
X110687043Y-65391614D02*
X110639424Y-65486852D01*
X110639424Y-65486852D02*
X110591805Y-65534471D01*
X110591805Y-65534471D02*
X110496567Y-65582090D01*
X110496567Y-65582090D02*
X110306091Y-65582090D01*
X110306091Y-65582090D02*
X110210853Y-65629709D01*
X110210853Y-65629709D02*
X110163234Y-65677328D01*
X110163234Y-65677328D02*
X110115615Y-65772566D01*
X110115615Y-65772566D02*
X110115615Y-65963042D01*
X110115615Y-65963042D02*
X110163234Y-66058280D01*
X110163234Y-66058280D02*
X110210853Y-66105900D01*
X110210853Y-66105900D02*
X110306091Y-66153519D01*
X110306091Y-66153519D02*
X110496567Y-66153519D01*
X110496567Y-66153519D02*
X110591805Y-66105900D01*
X110591805Y-66105900D02*
X110639424Y-66058280D01*
X110639424Y-66058280D02*
X110687043Y-65963042D01*
X110687043Y-65963042D02*
X110687043Y-65772566D01*
X110687043Y-65772566D02*
X110639424Y-65677328D01*
X110639424Y-65677328D02*
X110591805Y-65629709D01*
X110591805Y-65629709D02*
X110496567Y-65582090D01*
X108893573Y-57684138D02*
X108798335Y-57636519D01*
X108798335Y-57636519D02*
X108655478Y-57636519D01*
X108655478Y-57636519D02*
X108512621Y-57684138D01*
X108512621Y-57684138D02*
X108417383Y-57779376D01*
X108417383Y-57779376D02*
X108369764Y-57874614D01*
X108369764Y-57874614D02*
X108322145Y-58065090D01*
X108322145Y-58065090D02*
X108322145Y-58207947D01*
X108322145Y-58207947D02*
X108369764Y-58398423D01*
X108369764Y-58398423D02*
X108417383Y-58493661D01*
X108417383Y-58493661D02*
X108512621Y-58588900D01*
X108512621Y-58588900D02*
X108655478Y-58636519D01*
X108655478Y-58636519D02*
X108750716Y-58636519D01*
X108750716Y-58636519D02*
X108893573Y-58588900D01*
X108893573Y-58588900D02*
X108941192Y-58541280D01*
X108941192Y-58541280D02*
X108941192Y-58207947D01*
X108941192Y-58207947D02*
X108750716Y-58207947D01*
X109369764Y-58636519D02*
X109369764Y-57636519D01*
X109369764Y-57636519D02*
X109941192Y-58636519D01*
X109941192Y-58636519D02*
X109941192Y-57636519D01*
X110417383Y-58636519D02*
X110417383Y-57636519D01*
X110417383Y-57636519D02*
X110655478Y-57636519D01*
X110655478Y-57636519D02*
X110798335Y-57684138D01*
X110798335Y-57684138D02*
X110893573Y-57779376D01*
X110893573Y-57779376D02*
X110941192Y-57874614D01*
X110941192Y-57874614D02*
X110988811Y-58065090D01*
X110988811Y-58065090D02*
X110988811Y-58207947D01*
X110988811Y-58207947D02*
X110941192Y-58398423D01*
X110941192Y-58398423D02*
X110893573Y-58493661D01*
X110893573Y-58493661D02*
X110798335Y-58588900D01*
X110798335Y-58588900D02*
X110655478Y-58636519D01*
X110655478Y-58636519D02*
X110417383Y-58636519D01*
X112187291Y-79148519D02*
X111615863Y-79148519D01*
X111901577Y-79148519D02*
X111901577Y-78148519D01*
X111901577Y-78148519D02*
X111806339Y-78291376D01*
X111806339Y-78291376D02*
X111711101Y-78386614D01*
X111711101Y-78386614D02*
X111615863Y-78434233D01*
X112568244Y-78243757D02*
X112615863Y-78196138D01*
X112615863Y-78196138D02*
X112711101Y-78148519D01*
X112711101Y-78148519D02*
X112949196Y-78148519D01*
X112949196Y-78148519D02*
X113044434Y-78196138D01*
X113044434Y-78196138D02*
X113092053Y-78243757D01*
X113092053Y-78243757D02*
X113139672Y-78338995D01*
X113139672Y-78338995D02*
X113139672Y-78434233D01*
X113139672Y-78434233D02*
X113092053Y-78577090D01*
X113092053Y-78577090D02*
X112520625Y-79148519D01*
X112520625Y-79148519D02*
X113139672Y-79148519D01*
X114687291Y-79148519D02*
X114115863Y-79148519D01*
X114401577Y-79148519D02*
X114401577Y-78148519D01*
X114401577Y-78148519D02*
X114306339Y-78291376D01*
X114306339Y-78291376D02*
X114211101Y-78386614D01*
X114211101Y-78386614D02*
X114115863Y-78434233D01*
X115639672Y-79148519D02*
X115068244Y-79148519D01*
X115353958Y-79148519D02*
X115353958Y-78148519D01*
X115353958Y-78148519D02*
X115258720Y-78291376D01*
X115258720Y-78291376D02*
X115163482Y-78386614D01*
X115163482Y-78386614D02*
X115068244Y-78434233D01*
X117227291Y-79148519D02*
X116655863Y-79148519D01*
X116941577Y-79148519D02*
X116941577Y-78148519D01*
X116941577Y-78148519D02*
X116846339Y-78291376D01*
X116846339Y-78291376D02*
X116751101Y-78386614D01*
X116751101Y-78386614D02*
X116655863Y-78434233D01*
X117846339Y-78148519D02*
X117941577Y-78148519D01*
X117941577Y-78148519D02*
X118036815Y-78196138D01*
X118036815Y-78196138D02*
X118084434Y-78243757D01*
X118084434Y-78243757D02*
X118132053Y-78338995D01*
X118132053Y-78338995D02*
X118179672Y-78529471D01*
X118179672Y-78529471D02*
X118179672Y-78767566D01*
X118179672Y-78767566D02*
X118132053Y-78958042D01*
X118132053Y-78958042D02*
X118084434Y-79053280D01*
X118084434Y-79053280D02*
X118036815Y-79100900D01*
X118036815Y-79100900D02*
X117941577Y-79148519D01*
X117941577Y-79148519D02*
X117846339Y-79148519D01*
X117846339Y-79148519D02*
X117751101Y-79100900D01*
X117751101Y-79100900D02*
X117703482Y-79053280D01*
X117703482Y-79053280D02*
X117655863Y-78958042D01*
X117655863Y-78958042D02*
X117608244Y-78767566D01*
X117608244Y-78767566D02*
X117608244Y-78529471D01*
X117608244Y-78529471D02*
X117655863Y-78338995D01*
X117655863Y-78338995D02*
X117703482Y-78243757D01*
X117703482Y-78243757D02*
X117751101Y-78196138D01*
X117751101Y-78196138D02*
X117846339Y-78148519D01*
X119767292Y-79148519D02*
X119957768Y-79148519D01*
X119957768Y-79148519D02*
X120053006Y-79100900D01*
X120053006Y-79100900D02*
X120100625Y-79053280D01*
X120100625Y-79053280D02*
X120195863Y-78910423D01*
X120195863Y-78910423D02*
X120243482Y-78719947D01*
X120243482Y-78719947D02*
X120243482Y-78338995D01*
X120243482Y-78338995D02*
X120195863Y-78243757D01*
X120195863Y-78243757D02*
X120148244Y-78196138D01*
X120148244Y-78196138D02*
X120053006Y-78148519D01*
X120053006Y-78148519D02*
X119862530Y-78148519D01*
X119862530Y-78148519D02*
X119767292Y-78196138D01*
X119767292Y-78196138D02*
X119719673Y-78243757D01*
X119719673Y-78243757D02*
X119672054Y-78338995D01*
X119672054Y-78338995D02*
X119672054Y-78577090D01*
X119672054Y-78577090D02*
X119719673Y-78672328D01*
X119719673Y-78672328D02*
X119767292Y-78719947D01*
X119767292Y-78719947D02*
X119862530Y-78767566D01*
X119862530Y-78767566D02*
X120053006Y-78767566D01*
X120053006Y-78767566D02*
X120148244Y-78719947D01*
X120148244Y-78719947D02*
X120195863Y-78672328D01*
X120195863Y-78672328D02*
X120243482Y-78577090D01*
X125307917Y-54993519D02*
X125403155Y-54993519D01*
X125403155Y-54993519D02*
X125498393Y-55041138D01*
X125498393Y-55041138D02*
X125546012Y-55088757D01*
X125546012Y-55088757D02*
X125593631Y-55183995D01*
X125593631Y-55183995D02*
X125641250Y-55374471D01*
X125641250Y-55374471D02*
X125641250Y-55612566D01*
X125641250Y-55612566D02*
X125593631Y-55803042D01*
X125593631Y-55803042D02*
X125546012Y-55898280D01*
X125546012Y-55898280D02*
X125498393Y-55945900D01*
X125498393Y-55945900D02*
X125403155Y-55993519D01*
X125403155Y-55993519D02*
X125307917Y-55993519D01*
X125307917Y-55993519D02*
X125212679Y-55945900D01*
X125212679Y-55945900D02*
X125165060Y-55898280D01*
X125165060Y-55898280D02*
X125117441Y-55803042D01*
X125117441Y-55803042D02*
X125069822Y-55612566D01*
X125069822Y-55612566D02*
X125069822Y-55374471D01*
X125069822Y-55374471D02*
X125117441Y-55183995D01*
X125117441Y-55183995D02*
X125165060Y-55088757D01*
X125165060Y-55088757D02*
X125212679Y-55041138D01*
X125212679Y-55041138D02*
X125307917Y-54993519D01*
X125641250Y-58533519D02*
X125069822Y-58533519D01*
X125355536Y-58533519D02*
X125355536Y-57533519D01*
X125355536Y-57533519D02*
X125260298Y-57676376D01*
X125260298Y-57676376D02*
X125165060Y-57771614D01*
X125165060Y-57771614D02*
X125069822Y-57819233D01*
X125069822Y-60168757D02*
X125117441Y-60121138D01*
X125117441Y-60121138D02*
X125212679Y-60073519D01*
X125212679Y-60073519D02*
X125450774Y-60073519D01*
X125450774Y-60073519D02*
X125546012Y-60121138D01*
X125546012Y-60121138D02*
X125593631Y-60168757D01*
X125593631Y-60168757D02*
X125641250Y-60263995D01*
X125641250Y-60263995D02*
X125641250Y-60359233D01*
X125641250Y-60359233D02*
X125593631Y-60502090D01*
X125593631Y-60502090D02*
X125022203Y-61073519D01*
X125022203Y-61073519D02*
X125641250Y-61073519D01*
X125022203Y-62613519D02*
X125641250Y-62613519D01*
X125641250Y-62613519D02*
X125307917Y-62994471D01*
X125307917Y-62994471D02*
X125450774Y-62994471D01*
X125450774Y-62994471D02*
X125546012Y-63042090D01*
X125546012Y-63042090D02*
X125593631Y-63089709D01*
X125593631Y-63089709D02*
X125641250Y-63184947D01*
X125641250Y-63184947D02*
X125641250Y-63423042D01*
X125641250Y-63423042D02*
X125593631Y-63518280D01*
X125593631Y-63518280D02*
X125546012Y-63565900D01*
X125546012Y-63565900D02*
X125450774Y-63613519D01*
X125450774Y-63613519D02*
X125165060Y-63613519D01*
X125165060Y-63613519D02*
X125069822Y-63565900D01*
X125069822Y-63565900D02*
X125022203Y-63518280D01*
X125546012Y-65486852D02*
X125546012Y-66153519D01*
X125307917Y-65105900D02*
X125069822Y-65820185D01*
X125069822Y-65820185D02*
X125688869Y-65820185D01*
X125593631Y-67693519D02*
X125117441Y-67693519D01*
X125117441Y-67693519D02*
X125069822Y-68169709D01*
X125069822Y-68169709D02*
X125117441Y-68122090D01*
X125117441Y-68122090D02*
X125212679Y-68074471D01*
X125212679Y-68074471D02*
X125450774Y-68074471D01*
X125450774Y-68074471D02*
X125546012Y-68122090D01*
X125546012Y-68122090D02*
X125593631Y-68169709D01*
X125593631Y-68169709D02*
X125641250Y-68264947D01*
X125641250Y-68264947D02*
X125641250Y-68503042D01*
X125641250Y-68503042D02*
X125593631Y-68598280D01*
X125593631Y-68598280D02*
X125546012Y-68645900D01*
X125546012Y-68645900D02*
X125450774Y-68693519D01*
X125450774Y-68693519D02*
X125212679Y-68693519D01*
X125212679Y-68693519D02*
X125117441Y-68645900D01*
X125117441Y-68645900D02*
X125069822Y-68598280D01*
X125546012Y-70233519D02*
X125355536Y-70233519D01*
X125355536Y-70233519D02*
X125260298Y-70281138D01*
X125260298Y-70281138D02*
X125212679Y-70328757D01*
X125212679Y-70328757D02*
X125117441Y-70471614D01*
X125117441Y-70471614D02*
X125069822Y-70662090D01*
X125069822Y-70662090D02*
X125069822Y-71043042D01*
X125069822Y-71043042D02*
X125117441Y-71138280D01*
X125117441Y-71138280D02*
X125165060Y-71185900D01*
X125165060Y-71185900D02*
X125260298Y-71233519D01*
X125260298Y-71233519D02*
X125450774Y-71233519D01*
X125450774Y-71233519D02*
X125546012Y-71185900D01*
X125546012Y-71185900D02*
X125593631Y-71138280D01*
X125593631Y-71138280D02*
X125641250Y-71043042D01*
X125641250Y-71043042D02*
X125641250Y-70804947D01*
X125641250Y-70804947D02*
X125593631Y-70709709D01*
X125593631Y-70709709D02*
X125546012Y-70662090D01*
X125546012Y-70662090D02*
X125450774Y-70614471D01*
X125450774Y-70614471D02*
X125260298Y-70614471D01*
X125260298Y-70614471D02*
X125165060Y-70662090D01*
X125165060Y-70662090D02*
X125117441Y-70709709D01*
X125117441Y-70709709D02*
X125069822Y-70804947D01*
X125022203Y-72773519D02*
X125688869Y-72773519D01*
X125688869Y-72773519D02*
X125260298Y-73773519D01*
X125260298Y-75742090D02*
X125165060Y-75694471D01*
X125165060Y-75694471D02*
X125117441Y-75646852D01*
X125117441Y-75646852D02*
X125069822Y-75551614D01*
X125069822Y-75551614D02*
X125069822Y-75503995D01*
X125069822Y-75503995D02*
X125117441Y-75408757D01*
X125117441Y-75408757D02*
X125165060Y-75361138D01*
X125165060Y-75361138D02*
X125260298Y-75313519D01*
X125260298Y-75313519D02*
X125450774Y-75313519D01*
X125450774Y-75313519D02*
X125546012Y-75361138D01*
X125546012Y-75361138D02*
X125593631Y-75408757D01*
X125593631Y-75408757D02*
X125641250Y-75503995D01*
X125641250Y-75503995D02*
X125641250Y-75551614D01*
X125641250Y-75551614D02*
X125593631Y-75646852D01*
X125593631Y-75646852D02*
X125546012Y-75694471D01*
X125546012Y-75694471D02*
X125450774Y-75742090D01*
X125450774Y-75742090D02*
X125260298Y-75742090D01*
X125260298Y-75742090D02*
X125165060Y-75789709D01*
X125165060Y-75789709D02*
X125117441Y-75837328D01*
X125117441Y-75837328D02*
X125069822Y-75932566D01*
X125069822Y-75932566D02*
X125069822Y-76123042D01*
X125069822Y-76123042D02*
X125117441Y-76218280D01*
X125117441Y-76218280D02*
X125165060Y-76265900D01*
X125165060Y-76265900D02*
X125260298Y-76313519D01*
X125260298Y-76313519D02*
X125450774Y-76313519D01*
X125450774Y-76313519D02*
X125546012Y-76265900D01*
X125546012Y-76265900D02*
X125593631Y-76218280D01*
X125593631Y-76218280D02*
X125641250Y-76123042D01*
X125641250Y-76123042D02*
X125641250Y-75932566D01*
X125641250Y-75932566D02*
X125593631Y-75837328D01*
X125593631Y-75837328D02*
X125546012Y-75789709D01*
X125546012Y-75789709D02*
X125450774Y-75742090D01*
D12*
X195000476Y-108997200D02*
X195143333Y-109044819D01*
X195143333Y-109044819D02*
X195381428Y-109044819D01*
X195381428Y-109044819D02*
X195476666Y-108997200D01*
X195476666Y-108997200D02*
X195524285Y-108949580D01*
X195524285Y-108949580D02*
X195571904Y-108854342D01*
X195571904Y-108854342D02*
X195571904Y-108759104D01*
X195571904Y-108759104D02*
X195524285Y-108663866D01*
X195524285Y-108663866D02*
X195476666Y-108616247D01*
X195476666Y-108616247D02*
X195381428Y-108568628D01*
X195381428Y-108568628D02*
X195190952Y-108521009D01*
X195190952Y-108521009D02*
X195095714Y-108473390D01*
X195095714Y-108473390D02*
X195048095Y-108425771D01*
X195048095Y-108425771D02*
X195000476Y-108330533D01*
X195000476Y-108330533D02*
X195000476Y-108235295D01*
X195000476Y-108235295D02*
X195048095Y-108140057D01*
X195048095Y-108140057D02*
X195095714Y-108092438D01*
X195095714Y-108092438D02*
X195190952Y-108044819D01*
X195190952Y-108044819D02*
X195429047Y-108044819D01*
X195429047Y-108044819D02*
X195571904Y-108092438D01*
X195905238Y-108044819D02*
X196143333Y-109044819D01*
X196143333Y-109044819D02*
X196333809Y-108330533D01*
X196333809Y-108330533D02*
X196524285Y-109044819D01*
X196524285Y-109044819D02*
X196762381Y-108044819D01*
X197095714Y-108140057D02*
X197143333Y-108092438D01*
X197143333Y-108092438D02*
X197238571Y-108044819D01*
X197238571Y-108044819D02*
X197476666Y-108044819D01*
X197476666Y-108044819D02*
X197571904Y-108092438D01*
X197571904Y-108092438D02*
X197619523Y-108140057D01*
X197619523Y-108140057D02*
X197667142Y-108235295D01*
X197667142Y-108235295D02*
X197667142Y-108330533D01*
X197667142Y-108330533D02*
X197619523Y-108473390D01*
X197619523Y-108473390D02*
X197048095Y-109044819D01*
X197048095Y-109044819D02*
X197667142Y-109044819D01*
X198619523Y-109044819D02*
X198048095Y-109044819D01*
X198333809Y-109044819D02*
X198333809Y-108044819D01*
X198333809Y-108044819D02*
X198238571Y-108187676D01*
X198238571Y-108187676D02*
X198143333Y-108282914D01*
X198143333Y-108282914D02*
X198048095Y-108330533D01*
X195476667Y-70897200D02*
X195619524Y-70944819D01*
X195619524Y-70944819D02*
X195857619Y-70944819D01*
X195857619Y-70944819D02*
X195952857Y-70897200D01*
X195952857Y-70897200D02*
X196000476Y-70849580D01*
X196000476Y-70849580D02*
X196048095Y-70754342D01*
X196048095Y-70754342D02*
X196048095Y-70659104D01*
X196048095Y-70659104D02*
X196000476Y-70563866D01*
X196000476Y-70563866D02*
X195952857Y-70516247D01*
X195952857Y-70516247D02*
X195857619Y-70468628D01*
X195857619Y-70468628D02*
X195667143Y-70421009D01*
X195667143Y-70421009D02*
X195571905Y-70373390D01*
X195571905Y-70373390D02*
X195524286Y-70325771D01*
X195524286Y-70325771D02*
X195476667Y-70230533D01*
X195476667Y-70230533D02*
X195476667Y-70135295D01*
X195476667Y-70135295D02*
X195524286Y-70040057D01*
X195524286Y-70040057D02*
X195571905Y-69992438D01*
X195571905Y-69992438D02*
X195667143Y-69944819D01*
X195667143Y-69944819D02*
X195905238Y-69944819D01*
X195905238Y-69944819D02*
X196048095Y-69992438D01*
X196381429Y-69944819D02*
X196619524Y-70944819D01*
X196619524Y-70944819D02*
X196810000Y-70230533D01*
X196810000Y-70230533D02*
X197000476Y-70944819D01*
X197000476Y-70944819D02*
X197238572Y-69944819D01*
X197667143Y-70944819D02*
X197857619Y-70944819D01*
X197857619Y-70944819D02*
X197952857Y-70897200D01*
X197952857Y-70897200D02*
X198000476Y-70849580D01*
X198000476Y-70849580D02*
X198095714Y-70706723D01*
X198095714Y-70706723D02*
X198143333Y-70516247D01*
X198143333Y-70516247D02*
X198143333Y-70135295D01*
X198143333Y-70135295D02*
X198095714Y-70040057D01*
X198095714Y-70040057D02*
X198048095Y-69992438D01*
X198048095Y-69992438D02*
X197952857Y-69944819D01*
X197952857Y-69944819D02*
X197762381Y-69944819D01*
X197762381Y-69944819D02*
X197667143Y-69992438D01*
X197667143Y-69992438D02*
X197619524Y-70040057D01*
X197619524Y-70040057D02*
X197571905Y-70135295D01*
X197571905Y-70135295D02*
X197571905Y-70373390D01*
X197571905Y-70373390D02*
X197619524Y-70468628D01*
X197619524Y-70468628D02*
X197667143Y-70516247D01*
X197667143Y-70516247D02*
X197762381Y-70563866D01*
X197762381Y-70563866D02*
X197952857Y-70563866D01*
X197952857Y-70563866D02*
X198048095Y-70516247D01*
X198048095Y-70516247D02*
X198095714Y-70468628D01*
X198095714Y-70468628D02*
X198143333Y-70373390D01*
X214526667Y-56609700D02*
X214669524Y-56657319D01*
X214669524Y-56657319D02*
X214907619Y-56657319D01*
X214907619Y-56657319D02*
X215002857Y-56609700D01*
X215002857Y-56609700D02*
X215050476Y-56562080D01*
X215050476Y-56562080D02*
X215098095Y-56466842D01*
X215098095Y-56466842D02*
X215098095Y-56371604D01*
X215098095Y-56371604D02*
X215050476Y-56276366D01*
X215050476Y-56276366D02*
X215002857Y-56228747D01*
X215002857Y-56228747D02*
X214907619Y-56181128D01*
X214907619Y-56181128D02*
X214717143Y-56133509D01*
X214717143Y-56133509D02*
X214621905Y-56085890D01*
X214621905Y-56085890D02*
X214574286Y-56038271D01*
X214574286Y-56038271D02*
X214526667Y-55943033D01*
X214526667Y-55943033D02*
X214526667Y-55847795D01*
X214526667Y-55847795D02*
X214574286Y-55752557D01*
X214574286Y-55752557D02*
X214621905Y-55704938D01*
X214621905Y-55704938D02*
X214717143Y-55657319D01*
X214717143Y-55657319D02*
X214955238Y-55657319D01*
X214955238Y-55657319D02*
X215098095Y-55704938D01*
X215431429Y-55657319D02*
X215669524Y-56657319D01*
X215669524Y-56657319D02*
X215860000Y-55943033D01*
X215860000Y-55943033D02*
X216050476Y-56657319D01*
X216050476Y-56657319D02*
X216288572Y-55657319D01*
X216621905Y-55752557D02*
X216669524Y-55704938D01*
X216669524Y-55704938D02*
X216764762Y-55657319D01*
X216764762Y-55657319D02*
X217002857Y-55657319D01*
X217002857Y-55657319D02*
X217098095Y-55704938D01*
X217098095Y-55704938D02*
X217145714Y-55752557D01*
X217145714Y-55752557D02*
X217193333Y-55847795D01*
X217193333Y-55847795D02*
X217193333Y-55943033D01*
X217193333Y-55943033D02*
X217145714Y-56085890D01*
X217145714Y-56085890D02*
X216574286Y-56657319D01*
X216574286Y-56657319D02*
X217193333Y-56657319D01*
X111966666Y-92104819D02*
X111966666Y-92819104D01*
X111966666Y-92819104D02*
X111919047Y-92961961D01*
X111919047Y-92961961D02*
X111823809Y-93057200D01*
X111823809Y-93057200D02*
X111680952Y-93104819D01*
X111680952Y-93104819D02*
X111585714Y-93104819D01*
X112395238Y-92200057D02*
X112442857Y-92152438D01*
X112442857Y-92152438D02*
X112538095Y-92104819D01*
X112538095Y-92104819D02*
X112776190Y-92104819D01*
X112776190Y-92104819D02*
X112871428Y-92152438D01*
X112871428Y-92152438D02*
X112919047Y-92200057D01*
X112919047Y-92200057D02*
X112966666Y-92295295D01*
X112966666Y-92295295D02*
X112966666Y-92390533D01*
X112966666Y-92390533D02*
X112919047Y-92533390D01*
X112919047Y-92533390D02*
X112347619Y-93104819D01*
X112347619Y-93104819D02*
X112966666Y-93104819D01*
X175950476Y-66134700D02*
X176093333Y-66182319D01*
X176093333Y-66182319D02*
X176331428Y-66182319D01*
X176331428Y-66182319D02*
X176426666Y-66134700D01*
X176426666Y-66134700D02*
X176474285Y-66087080D01*
X176474285Y-66087080D02*
X176521904Y-65991842D01*
X176521904Y-65991842D02*
X176521904Y-65896604D01*
X176521904Y-65896604D02*
X176474285Y-65801366D01*
X176474285Y-65801366D02*
X176426666Y-65753747D01*
X176426666Y-65753747D02*
X176331428Y-65706128D01*
X176331428Y-65706128D02*
X176140952Y-65658509D01*
X176140952Y-65658509D02*
X176045714Y-65610890D01*
X176045714Y-65610890D02*
X175998095Y-65563271D01*
X175998095Y-65563271D02*
X175950476Y-65468033D01*
X175950476Y-65468033D02*
X175950476Y-65372795D01*
X175950476Y-65372795D02*
X175998095Y-65277557D01*
X175998095Y-65277557D02*
X176045714Y-65229938D01*
X176045714Y-65229938D02*
X176140952Y-65182319D01*
X176140952Y-65182319D02*
X176379047Y-65182319D01*
X176379047Y-65182319D02*
X176521904Y-65229938D01*
X176855238Y-65182319D02*
X177093333Y-66182319D01*
X177093333Y-66182319D02*
X177283809Y-65468033D01*
X177283809Y-65468033D02*
X177474285Y-66182319D01*
X177474285Y-66182319D02*
X177712381Y-65182319D01*
X178617142Y-66182319D02*
X178045714Y-66182319D01*
X178331428Y-66182319D02*
X178331428Y-65182319D01*
X178331428Y-65182319D02*
X178236190Y-65325176D01*
X178236190Y-65325176D02*
X178140952Y-65420414D01*
X178140952Y-65420414D02*
X178045714Y-65468033D01*
X179236190Y-65182319D02*
X179331428Y-65182319D01*
X179331428Y-65182319D02*
X179426666Y-65229938D01*
X179426666Y-65229938D02*
X179474285Y-65277557D01*
X179474285Y-65277557D02*
X179521904Y-65372795D01*
X179521904Y-65372795D02*
X179569523Y-65563271D01*
X179569523Y-65563271D02*
X179569523Y-65801366D01*
X179569523Y-65801366D02*
X179521904Y-65991842D01*
X179521904Y-65991842D02*
X179474285Y-66087080D01*
X179474285Y-66087080D02*
X179426666Y-66134700D01*
X179426666Y-66134700D02*
X179331428Y-66182319D01*
X179331428Y-66182319D02*
X179236190Y-66182319D01*
X179236190Y-66182319D02*
X179140952Y-66134700D01*
X179140952Y-66134700D02*
X179093333Y-66087080D01*
X179093333Y-66087080D02*
X179045714Y-65991842D01*
X179045714Y-65991842D02*
X178998095Y-65801366D01*
X178998095Y-65801366D02*
X178998095Y-65563271D01*
X178998095Y-65563271D02*
X179045714Y-65372795D01*
X179045714Y-65372795D02*
X179093333Y-65277557D01*
X179093333Y-65277557D02*
X179140952Y-65229938D01*
X179140952Y-65229938D02*
X179236190Y-65182319D01*
X233576667Y-75659700D02*
X233719524Y-75707319D01*
X233719524Y-75707319D02*
X233957619Y-75707319D01*
X233957619Y-75707319D02*
X234052857Y-75659700D01*
X234052857Y-75659700D02*
X234100476Y-75612080D01*
X234100476Y-75612080D02*
X234148095Y-75516842D01*
X234148095Y-75516842D02*
X234148095Y-75421604D01*
X234148095Y-75421604D02*
X234100476Y-75326366D01*
X234100476Y-75326366D02*
X234052857Y-75278747D01*
X234052857Y-75278747D02*
X233957619Y-75231128D01*
X233957619Y-75231128D02*
X233767143Y-75183509D01*
X233767143Y-75183509D02*
X233671905Y-75135890D01*
X233671905Y-75135890D02*
X233624286Y-75088271D01*
X233624286Y-75088271D02*
X233576667Y-74993033D01*
X233576667Y-74993033D02*
X233576667Y-74897795D01*
X233576667Y-74897795D02*
X233624286Y-74802557D01*
X233624286Y-74802557D02*
X233671905Y-74754938D01*
X233671905Y-74754938D02*
X233767143Y-74707319D01*
X233767143Y-74707319D02*
X234005238Y-74707319D01*
X234005238Y-74707319D02*
X234148095Y-74754938D01*
X234481429Y-74707319D02*
X234719524Y-75707319D01*
X234719524Y-75707319D02*
X234910000Y-74993033D01*
X234910000Y-74993033D02*
X235100476Y-75707319D01*
X235100476Y-75707319D02*
X235338572Y-74707319D01*
X235624286Y-74707319D02*
X236290952Y-74707319D01*
X236290952Y-74707319D02*
X235862381Y-75707319D01*
X152576221Y-135050711D02*
X152726535Y-135059733D01*
X152726535Y-135059733D02*
X152956517Y-134998109D01*
X152956517Y-134998109D02*
X153036186Y-134927464D01*
X153036186Y-134927464D02*
X153069857Y-134869142D01*
X153069857Y-134869142D02*
X153091204Y-134764825D01*
X153091204Y-134764825D02*
X153066555Y-134672832D01*
X153066555Y-134672832D02*
X152995909Y-134593164D01*
X152995909Y-134593164D02*
X152937588Y-134559492D01*
X152937588Y-134559492D02*
X152833270Y-134538145D01*
X152833270Y-134538145D02*
X152636960Y-134541447D01*
X152636960Y-134541447D02*
X152532642Y-134520100D01*
X152532642Y-134520100D02*
X152474321Y-134486428D01*
X152474321Y-134486428D02*
X152403675Y-134406760D01*
X152403675Y-134406760D02*
X152379025Y-134314767D01*
X152379025Y-134314767D02*
X152400372Y-134210450D01*
X152400372Y-134210450D02*
X152434044Y-134152128D01*
X152434044Y-134152128D02*
X152513712Y-134081482D01*
X152513712Y-134081482D02*
X152743695Y-134019859D01*
X152743695Y-134019859D02*
X152894009Y-134028881D01*
X153203659Y-133896612D02*
X153692461Y-134800914D01*
X153692461Y-134800914D02*
X153691576Y-134061668D01*
X153691576Y-134061668D02*
X154060433Y-134702316D01*
X154060433Y-134702316D02*
X154031596Y-133674767D01*
X154378220Y-133680487D02*
X154411892Y-133622166D01*
X154411892Y-133622166D02*
X154491560Y-133551520D01*
X154491560Y-133551520D02*
X154721543Y-133489896D01*
X154721543Y-133489896D02*
X154825860Y-133511243D01*
X154825860Y-133511243D02*
X154884182Y-133544915D01*
X154884182Y-133544915D02*
X154954827Y-133624583D01*
X154954827Y-133624583D02*
X154979477Y-133716576D01*
X154979477Y-133716576D02*
X154970455Y-133866890D01*
X154970455Y-133866890D02*
X154566394Y-134566744D01*
X154566394Y-134566744D02*
X155164348Y-134406523D01*
X155779462Y-133206428D02*
X155319497Y-133329675D01*
X155319497Y-133329675D02*
X155396748Y-133801964D01*
X155396748Y-133801964D02*
X155430419Y-133743643D01*
X155430419Y-133743643D02*
X155510088Y-133672997D01*
X155510088Y-133672997D02*
X155740070Y-133611374D01*
X155740070Y-133611374D02*
X155844388Y-133632721D01*
X155844388Y-133632721D02*
X155902709Y-133666392D01*
X155902709Y-133666392D02*
X155973355Y-133746061D01*
X155973355Y-133746061D02*
X156034978Y-133976043D01*
X156034978Y-133976043D02*
X156013631Y-134080361D01*
X156013631Y-134080361D02*
X155979959Y-134138682D01*
X155979959Y-134138682D02*
X155900291Y-134209328D01*
X155900291Y-134209328D02*
X155670309Y-134270951D01*
X155670309Y-134270951D02*
X155565991Y-134249604D01*
X155565991Y-134249604D02*
X155507670Y-134215932D01*
X195000476Y-89947200D02*
X195143333Y-89994819D01*
X195143333Y-89994819D02*
X195381428Y-89994819D01*
X195381428Y-89994819D02*
X195476666Y-89947200D01*
X195476666Y-89947200D02*
X195524285Y-89899580D01*
X195524285Y-89899580D02*
X195571904Y-89804342D01*
X195571904Y-89804342D02*
X195571904Y-89709104D01*
X195571904Y-89709104D02*
X195524285Y-89613866D01*
X195524285Y-89613866D02*
X195476666Y-89566247D01*
X195476666Y-89566247D02*
X195381428Y-89518628D01*
X195381428Y-89518628D02*
X195190952Y-89471009D01*
X195190952Y-89471009D02*
X195095714Y-89423390D01*
X195095714Y-89423390D02*
X195048095Y-89375771D01*
X195048095Y-89375771D02*
X195000476Y-89280533D01*
X195000476Y-89280533D02*
X195000476Y-89185295D01*
X195000476Y-89185295D02*
X195048095Y-89090057D01*
X195048095Y-89090057D02*
X195095714Y-89042438D01*
X195095714Y-89042438D02*
X195190952Y-88994819D01*
X195190952Y-88994819D02*
X195429047Y-88994819D01*
X195429047Y-88994819D02*
X195571904Y-89042438D01*
X195905238Y-88994819D02*
X196143333Y-89994819D01*
X196143333Y-89994819D02*
X196333809Y-89280533D01*
X196333809Y-89280533D02*
X196524285Y-89994819D01*
X196524285Y-89994819D02*
X196762381Y-88994819D01*
X197667142Y-89994819D02*
X197095714Y-89994819D01*
X197381428Y-89994819D02*
X197381428Y-88994819D01*
X197381428Y-88994819D02*
X197286190Y-89137676D01*
X197286190Y-89137676D02*
X197190952Y-89232914D01*
X197190952Y-89232914D02*
X197095714Y-89280533D01*
X198571904Y-88994819D02*
X198095714Y-88994819D01*
X198095714Y-88994819D02*
X198048095Y-89471009D01*
X198048095Y-89471009D02*
X198095714Y-89423390D01*
X198095714Y-89423390D02*
X198190952Y-89375771D01*
X198190952Y-89375771D02*
X198429047Y-89375771D01*
X198429047Y-89375771D02*
X198524285Y-89423390D01*
X198524285Y-89423390D02*
X198571904Y-89471009D01*
X198571904Y-89471009D02*
X198619523Y-89566247D01*
X198619523Y-89566247D02*
X198619523Y-89804342D01*
X198619523Y-89804342D02*
X198571904Y-89899580D01*
X198571904Y-89899580D02*
X198524285Y-89947200D01*
X198524285Y-89947200D02*
X198429047Y-89994819D01*
X198429047Y-89994819D02*
X198190952Y-89994819D01*
X198190952Y-89994819D02*
X198095714Y-89947200D01*
X198095714Y-89947200D02*
X198048095Y-89899580D01*
X175950476Y-104234700D02*
X176093333Y-104282319D01*
X176093333Y-104282319D02*
X176331428Y-104282319D01*
X176331428Y-104282319D02*
X176426666Y-104234700D01*
X176426666Y-104234700D02*
X176474285Y-104187080D01*
X176474285Y-104187080D02*
X176521904Y-104091842D01*
X176521904Y-104091842D02*
X176521904Y-103996604D01*
X176521904Y-103996604D02*
X176474285Y-103901366D01*
X176474285Y-103901366D02*
X176426666Y-103853747D01*
X176426666Y-103853747D02*
X176331428Y-103806128D01*
X176331428Y-103806128D02*
X176140952Y-103758509D01*
X176140952Y-103758509D02*
X176045714Y-103710890D01*
X176045714Y-103710890D02*
X175998095Y-103663271D01*
X175998095Y-103663271D02*
X175950476Y-103568033D01*
X175950476Y-103568033D02*
X175950476Y-103472795D01*
X175950476Y-103472795D02*
X175998095Y-103377557D01*
X175998095Y-103377557D02*
X176045714Y-103329938D01*
X176045714Y-103329938D02*
X176140952Y-103282319D01*
X176140952Y-103282319D02*
X176379047Y-103282319D01*
X176379047Y-103282319D02*
X176521904Y-103329938D01*
X176855238Y-103282319D02*
X177093333Y-104282319D01*
X177093333Y-104282319D02*
X177283809Y-103568033D01*
X177283809Y-103568033D02*
X177474285Y-104282319D01*
X177474285Y-104282319D02*
X177712381Y-103282319D01*
X178045714Y-103377557D02*
X178093333Y-103329938D01*
X178093333Y-103329938D02*
X178188571Y-103282319D01*
X178188571Y-103282319D02*
X178426666Y-103282319D01*
X178426666Y-103282319D02*
X178521904Y-103329938D01*
X178521904Y-103329938D02*
X178569523Y-103377557D01*
X178569523Y-103377557D02*
X178617142Y-103472795D01*
X178617142Y-103472795D02*
X178617142Y-103568033D01*
X178617142Y-103568033D02*
X178569523Y-103710890D01*
X178569523Y-103710890D02*
X177998095Y-104282319D01*
X177998095Y-104282319D02*
X178617142Y-104282319D01*
X178998095Y-103377557D02*
X179045714Y-103329938D01*
X179045714Y-103329938D02*
X179140952Y-103282319D01*
X179140952Y-103282319D02*
X179379047Y-103282319D01*
X179379047Y-103282319D02*
X179474285Y-103329938D01*
X179474285Y-103329938D02*
X179521904Y-103377557D01*
X179521904Y-103377557D02*
X179569523Y-103472795D01*
X179569523Y-103472795D02*
X179569523Y-103568033D01*
X179569523Y-103568033D02*
X179521904Y-103710890D01*
X179521904Y-103710890D02*
X178950476Y-104282319D01*
X178950476Y-104282319D02*
X179569523Y-104282319D01*
X214050476Y-113759700D02*
X214193333Y-113807319D01*
X214193333Y-113807319D02*
X214431428Y-113807319D01*
X214431428Y-113807319D02*
X214526666Y-113759700D01*
X214526666Y-113759700D02*
X214574285Y-113712080D01*
X214574285Y-113712080D02*
X214621904Y-113616842D01*
X214621904Y-113616842D02*
X214621904Y-113521604D01*
X214621904Y-113521604D02*
X214574285Y-113426366D01*
X214574285Y-113426366D02*
X214526666Y-113378747D01*
X214526666Y-113378747D02*
X214431428Y-113331128D01*
X214431428Y-113331128D02*
X214240952Y-113283509D01*
X214240952Y-113283509D02*
X214145714Y-113235890D01*
X214145714Y-113235890D02*
X214098095Y-113188271D01*
X214098095Y-113188271D02*
X214050476Y-113093033D01*
X214050476Y-113093033D02*
X214050476Y-112997795D01*
X214050476Y-112997795D02*
X214098095Y-112902557D01*
X214098095Y-112902557D02*
X214145714Y-112854938D01*
X214145714Y-112854938D02*
X214240952Y-112807319D01*
X214240952Y-112807319D02*
X214479047Y-112807319D01*
X214479047Y-112807319D02*
X214621904Y-112854938D01*
X214955238Y-112807319D02*
X215193333Y-113807319D01*
X215193333Y-113807319D02*
X215383809Y-113093033D01*
X215383809Y-113093033D02*
X215574285Y-113807319D01*
X215574285Y-113807319D02*
X215812381Y-112807319D01*
X216145714Y-112902557D02*
X216193333Y-112854938D01*
X216193333Y-112854938D02*
X216288571Y-112807319D01*
X216288571Y-112807319D02*
X216526666Y-112807319D01*
X216526666Y-112807319D02*
X216621904Y-112854938D01*
X216621904Y-112854938D02*
X216669523Y-112902557D01*
X216669523Y-112902557D02*
X216717142Y-112997795D01*
X216717142Y-112997795D02*
X216717142Y-113093033D01*
X216717142Y-113093033D02*
X216669523Y-113235890D01*
X216669523Y-113235890D02*
X216098095Y-113807319D01*
X216098095Y-113807319D02*
X216717142Y-113807319D01*
X217336190Y-112807319D02*
X217431428Y-112807319D01*
X217431428Y-112807319D02*
X217526666Y-112854938D01*
X217526666Y-112854938D02*
X217574285Y-112902557D01*
X217574285Y-112902557D02*
X217621904Y-112997795D01*
X217621904Y-112997795D02*
X217669523Y-113188271D01*
X217669523Y-113188271D02*
X217669523Y-113426366D01*
X217669523Y-113426366D02*
X217621904Y-113616842D01*
X217621904Y-113616842D02*
X217574285Y-113712080D01*
X217574285Y-113712080D02*
X217526666Y-113759700D01*
X217526666Y-113759700D02*
X217431428Y-113807319D01*
X217431428Y-113807319D02*
X217336190Y-113807319D01*
X217336190Y-113807319D02*
X217240952Y-113759700D01*
X217240952Y-113759700D02*
X217193333Y-113712080D01*
X217193333Y-113712080D02*
X217145714Y-113616842D01*
X217145714Y-113616842D02*
X217098095Y-113426366D01*
X217098095Y-113426366D02*
X217098095Y-113188271D01*
X217098095Y-113188271D02*
X217145714Y-112997795D01*
X217145714Y-112997795D02*
X217193333Y-112902557D01*
X217193333Y-112902557D02*
X217240952Y-112854938D01*
X217240952Y-112854938D02*
X217336190Y-112807319D01*
X195476667Y-51847200D02*
X195619524Y-51894819D01*
X195619524Y-51894819D02*
X195857619Y-51894819D01*
X195857619Y-51894819D02*
X195952857Y-51847200D01*
X195952857Y-51847200D02*
X196000476Y-51799580D01*
X196000476Y-51799580D02*
X196048095Y-51704342D01*
X196048095Y-51704342D02*
X196048095Y-51609104D01*
X196048095Y-51609104D02*
X196000476Y-51513866D01*
X196000476Y-51513866D02*
X195952857Y-51466247D01*
X195952857Y-51466247D02*
X195857619Y-51418628D01*
X195857619Y-51418628D02*
X195667143Y-51371009D01*
X195667143Y-51371009D02*
X195571905Y-51323390D01*
X195571905Y-51323390D02*
X195524286Y-51275771D01*
X195524286Y-51275771D02*
X195476667Y-51180533D01*
X195476667Y-51180533D02*
X195476667Y-51085295D01*
X195476667Y-51085295D02*
X195524286Y-50990057D01*
X195524286Y-50990057D02*
X195571905Y-50942438D01*
X195571905Y-50942438D02*
X195667143Y-50894819D01*
X195667143Y-50894819D02*
X195905238Y-50894819D01*
X195905238Y-50894819D02*
X196048095Y-50942438D01*
X196381429Y-50894819D02*
X196619524Y-51894819D01*
X196619524Y-51894819D02*
X196810000Y-51180533D01*
X196810000Y-51180533D02*
X197000476Y-51894819D01*
X197000476Y-51894819D02*
X197238572Y-50894819D01*
X197524286Y-50894819D02*
X198143333Y-50894819D01*
X198143333Y-50894819D02*
X197810000Y-51275771D01*
X197810000Y-51275771D02*
X197952857Y-51275771D01*
X197952857Y-51275771D02*
X198048095Y-51323390D01*
X198048095Y-51323390D02*
X198095714Y-51371009D01*
X198095714Y-51371009D02*
X198143333Y-51466247D01*
X198143333Y-51466247D02*
X198143333Y-51704342D01*
X198143333Y-51704342D02*
X198095714Y-51799580D01*
X198095714Y-51799580D02*
X198048095Y-51847200D01*
X198048095Y-51847200D02*
X197952857Y-51894819D01*
X197952857Y-51894819D02*
X197667143Y-51894819D01*
X197667143Y-51894819D02*
X197571905Y-51847200D01*
X197571905Y-51847200D02*
X197524286Y-51799580D01*
X109859823Y-159904777D02*
X109999867Y-159849429D01*
X109999867Y-159849429D02*
X110182258Y-159696384D01*
X110182258Y-159696384D02*
X110224606Y-159598688D01*
X110224606Y-159598688D02*
X110230475Y-159531601D01*
X110230475Y-159531601D02*
X110205736Y-159428035D01*
X110205736Y-159428035D02*
X110144518Y-159355079D01*
X110144518Y-159355079D02*
X110046822Y-159312731D01*
X110046822Y-159312731D02*
X109979735Y-159306861D01*
X109979735Y-159306861D02*
X109876169Y-159331601D01*
X109876169Y-159331601D02*
X109699647Y-159417558D01*
X109699647Y-159417558D02*
X109596081Y-159442298D01*
X109596081Y-159442298D02*
X109528994Y-159436429D01*
X109528994Y-159436429D02*
X109431298Y-159394081D01*
X109431298Y-159394081D02*
X109370080Y-159321124D01*
X109370080Y-159321124D02*
X109345340Y-159217559D01*
X109345340Y-159217559D02*
X109351210Y-159150472D01*
X109351210Y-159150472D02*
X109393558Y-159052775D01*
X109393558Y-159052775D02*
X109575949Y-158899731D01*
X109575949Y-158899731D02*
X109715993Y-158844382D01*
X109940732Y-158593641D02*
X110765911Y-159206641D01*
X110765911Y-159206641D02*
X110452691Y-158537031D01*
X110452691Y-158537031D02*
X111057738Y-158961770D01*
X111057738Y-158961770D02*
X110597342Y-158042681D01*
X110913908Y-157901375D02*
X110919777Y-157834287D01*
X110919777Y-157834287D02*
X110962125Y-157736591D01*
X110962125Y-157736591D02*
X111144516Y-157583547D01*
X111144516Y-157583547D02*
X111248082Y-157558807D01*
X111248082Y-157558807D02*
X111315169Y-157564676D01*
X111315169Y-157564676D02*
X111412865Y-157607024D01*
X111412865Y-157607024D02*
X111474083Y-157679981D01*
X111474083Y-157679981D02*
X111529431Y-157820025D01*
X111529431Y-157820025D02*
X111458999Y-158625071D01*
X111458999Y-158625071D02*
X111933217Y-158227155D01*
X111545778Y-157246848D02*
X112056474Y-156818323D01*
X112056474Y-156818323D02*
X112370957Y-157859848D01*
X137850476Y-75659700D02*
X137993333Y-75707319D01*
X137993333Y-75707319D02*
X138231428Y-75707319D01*
X138231428Y-75707319D02*
X138326666Y-75659700D01*
X138326666Y-75659700D02*
X138374285Y-75612080D01*
X138374285Y-75612080D02*
X138421904Y-75516842D01*
X138421904Y-75516842D02*
X138421904Y-75421604D01*
X138421904Y-75421604D02*
X138374285Y-75326366D01*
X138374285Y-75326366D02*
X138326666Y-75278747D01*
X138326666Y-75278747D02*
X138231428Y-75231128D01*
X138231428Y-75231128D02*
X138040952Y-75183509D01*
X138040952Y-75183509D02*
X137945714Y-75135890D01*
X137945714Y-75135890D02*
X137898095Y-75088271D01*
X137898095Y-75088271D02*
X137850476Y-74993033D01*
X137850476Y-74993033D02*
X137850476Y-74897795D01*
X137850476Y-74897795D02*
X137898095Y-74802557D01*
X137898095Y-74802557D02*
X137945714Y-74754938D01*
X137945714Y-74754938D02*
X138040952Y-74707319D01*
X138040952Y-74707319D02*
X138279047Y-74707319D01*
X138279047Y-74707319D02*
X138421904Y-74754938D01*
X138755238Y-74707319D02*
X138993333Y-75707319D01*
X138993333Y-75707319D02*
X139183809Y-74993033D01*
X139183809Y-74993033D02*
X139374285Y-75707319D01*
X139374285Y-75707319D02*
X139612381Y-74707319D01*
X140517142Y-75707319D02*
X139945714Y-75707319D01*
X140231428Y-75707319D02*
X140231428Y-74707319D01*
X140231428Y-74707319D02*
X140136190Y-74850176D01*
X140136190Y-74850176D02*
X140040952Y-74945414D01*
X140040952Y-74945414D02*
X139945714Y-74993033D01*
X140898095Y-74802557D02*
X140945714Y-74754938D01*
X140945714Y-74754938D02*
X141040952Y-74707319D01*
X141040952Y-74707319D02*
X141279047Y-74707319D01*
X141279047Y-74707319D02*
X141374285Y-74754938D01*
X141374285Y-74754938D02*
X141421904Y-74802557D01*
X141421904Y-74802557D02*
X141469523Y-74897795D01*
X141469523Y-74897795D02*
X141469523Y-74993033D01*
X141469523Y-74993033D02*
X141421904Y-75135890D01*
X141421904Y-75135890D02*
X140850476Y-75707319D01*
X140850476Y-75707319D02*
X141469523Y-75707319D01*
X175950476Y-85184700D02*
X176093333Y-85232319D01*
X176093333Y-85232319D02*
X176331428Y-85232319D01*
X176331428Y-85232319D02*
X176426666Y-85184700D01*
X176426666Y-85184700D02*
X176474285Y-85137080D01*
X176474285Y-85137080D02*
X176521904Y-85041842D01*
X176521904Y-85041842D02*
X176521904Y-84946604D01*
X176521904Y-84946604D02*
X176474285Y-84851366D01*
X176474285Y-84851366D02*
X176426666Y-84803747D01*
X176426666Y-84803747D02*
X176331428Y-84756128D01*
X176331428Y-84756128D02*
X176140952Y-84708509D01*
X176140952Y-84708509D02*
X176045714Y-84660890D01*
X176045714Y-84660890D02*
X175998095Y-84613271D01*
X175998095Y-84613271D02*
X175950476Y-84518033D01*
X175950476Y-84518033D02*
X175950476Y-84422795D01*
X175950476Y-84422795D02*
X175998095Y-84327557D01*
X175998095Y-84327557D02*
X176045714Y-84279938D01*
X176045714Y-84279938D02*
X176140952Y-84232319D01*
X176140952Y-84232319D02*
X176379047Y-84232319D01*
X176379047Y-84232319D02*
X176521904Y-84279938D01*
X176855238Y-84232319D02*
X177093333Y-85232319D01*
X177093333Y-85232319D02*
X177283809Y-84518033D01*
X177283809Y-84518033D02*
X177474285Y-85232319D01*
X177474285Y-85232319D02*
X177712381Y-84232319D01*
X178617142Y-85232319D02*
X178045714Y-85232319D01*
X178331428Y-85232319D02*
X178331428Y-84232319D01*
X178331428Y-84232319D02*
X178236190Y-84375176D01*
X178236190Y-84375176D02*
X178140952Y-84470414D01*
X178140952Y-84470414D02*
X178045714Y-84518033D01*
X179474285Y-84232319D02*
X179283809Y-84232319D01*
X179283809Y-84232319D02*
X179188571Y-84279938D01*
X179188571Y-84279938D02*
X179140952Y-84327557D01*
X179140952Y-84327557D02*
X179045714Y-84470414D01*
X179045714Y-84470414D02*
X178998095Y-84660890D01*
X178998095Y-84660890D02*
X178998095Y-85041842D01*
X178998095Y-85041842D02*
X179045714Y-85137080D01*
X179045714Y-85137080D02*
X179093333Y-85184700D01*
X179093333Y-85184700D02*
X179188571Y-85232319D01*
X179188571Y-85232319D02*
X179379047Y-85232319D01*
X179379047Y-85232319D02*
X179474285Y-85184700D01*
X179474285Y-85184700D02*
X179521904Y-85137080D01*
X179521904Y-85137080D02*
X179569523Y-85041842D01*
X179569523Y-85041842D02*
X179569523Y-84803747D01*
X179569523Y-84803747D02*
X179521904Y-84708509D01*
X179521904Y-84708509D02*
X179474285Y-84660890D01*
X179474285Y-84660890D02*
X179379047Y-84613271D01*
X179379047Y-84613271D02*
X179188571Y-84613271D01*
X179188571Y-84613271D02*
X179093333Y-84660890D01*
X179093333Y-84660890D02*
X179045714Y-84708509D01*
X179045714Y-84708509D02*
X178998095Y-84803747D01*
X137850476Y-113759700D02*
X137993333Y-113807319D01*
X137993333Y-113807319D02*
X138231428Y-113807319D01*
X138231428Y-113807319D02*
X138326666Y-113759700D01*
X138326666Y-113759700D02*
X138374285Y-113712080D01*
X138374285Y-113712080D02*
X138421904Y-113616842D01*
X138421904Y-113616842D02*
X138421904Y-113521604D01*
X138421904Y-113521604D02*
X138374285Y-113426366D01*
X138374285Y-113426366D02*
X138326666Y-113378747D01*
X138326666Y-113378747D02*
X138231428Y-113331128D01*
X138231428Y-113331128D02*
X138040952Y-113283509D01*
X138040952Y-113283509D02*
X137945714Y-113235890D01*
X137945714Y-113235890D02*
X137898095Y-113188271D01*
X137898095Y-113188271D02*
X137850476Y-113093033D01*
X137850476Y-113093033D02*
X137850476Y-112997795D01*
X137850476Y-112997795D02*
X137898095Y-112902557D01*
X137898095Y-112902557D02*
X137945714Y-112854938D01*
X137945714Y-112854938D02*
X138040952Y-112807319D01*
X138040952Y-112807319D02*
X138279047Y-112807319D01*
X138279047Y-112807319D02*
X138421904Y-112854938D01*
X138755238Y-112807319D02*
X138993333Y-113807319D01*
X138993333Y-113807319D02*
X139183809Y-113093033D01*
X139183809Y-113093033D02*
X139374285Y-113807319D01*
X139374285Y-113807319D02*
X139612381Y-112807319D01*
X139945714Y-112902557D02*
X139993333Y-112854938D01*
X139993333Y-112854938D02*
X140088571Y-112807319D01*
X140088571Y-112807319D02*
X140326666Y-112807319D01*
X140326666Y-112807319D02*
X140421904Y-112854938D01*
X140421904Y-112854938D02*
X140469523Y-112902557D01*
X140469523Y-112902557D02*
X140517142Y-112997795D01*
X140517142Y-112997795D02*
X140517142Y-113093033D01*
X140517142Y-113093033D02*
X140469523Y-113235890D01*
X140469523Y-113235890D02*
X139898095Y-113807319D01*
X139898095Y-113807319D02*
X140517142Y-113807319D01*
X141374285Y-113140652D02*
X141374285Y-113807319D01*
X141136190Y-112759700D02*
X140898095Y-113473985D01*
X140898095Y-113473985D02*
X141517142Y-113473985D01*
X214526667Y-75659700D02*
X214669524Y-75707319D01*
X214669524Y-75707319D02*
X214907619Y-75707319D01*
X214907619Y-75707319D02*
X215002857Y-75659700D01*
X215002857Y-75659700D02*
X215050476Y-75612080D01*
X215050476Y-75612080D02*
X215098095Y-75516842D01*
X215098095Y-75516842D02*
X215098095Y-75421604D01*
X215098095Y-75421604D02*
X215050476Y-75326366D01*
X215050476Y-75326366D02*
X215002857Y-75278747D01*
X215002857Y-75278747D02*
X214907619Y-75231128D01*
X214907619Y-75231128D02*
X214717143Y-75183509D01*
X214717143Y-75183509D02*
X214621905Y-75135890D01*
X214621905Y-75135890D02*
X214574286Y-75088271D01*
X214574286Y-75088271D02*
X214526667Y-74993033D01*
X214526667Y-74993033D02*
X214526667Y-74897795D01*
X214526667Y-74897795D02*
X214574286Y-74802557D01*
X214574286Y-74802557D02*
X214621905Y-74754938D01*
X214621905Y-74754938D02*
X214717143Y-74707319D01*
X214717143Y-74707319D02*
X214955238Y-74707319D01*
X214955238Y-74707319D02*
X215098095Y-74754938D01*
X215431429Y-74707319D02*
X215669524Y-75707319D01*
X215669524Y-75707319D02*
X215860000Y-74993033D01*
X215860000Y-74993033D02*
X216050476Y-75707319D01*
X216050476Y-75707319D02*
X216288572Y-74707319D01*
X216812381Y-75135890D02*
X216717143Y-75088271D01*
X216717143Y-75088271D02*
X216669524Y-75040652D01*
X216669524Y-75040652D02*
X216621905Y-74945414D01*
X216621905Y-74945414D02*
X216621905Y-74897795D01*
X216621905Y-74897795D02*
X216669524Y-74802557D01*
X216669524Y-74802557D02*
X216717143Y-74754938D01*
X216717143Y-74754938D02*
X216812381Y-74707319D01*
X216812381Y-74707319D02*
X217002857Y-74707319D01*
X217002857Y-74707319D02*
X217098095Y-74754938D01*
X217098095Y-74754938D02*
X217145714Y-74802557D01*
X217145714Y-74802557D02*
X217193333Y-74897795D01*
X217193333Y-74897795D02*
X217193333Y-74945414D01*
X217193333Y-74945414D02*
X217145714Y-75040652D01*
X217145714Y-75040652D02*
X217098095Y-75088271D01*
X217098095Y-75088271D02*
X217002857Y-75135890D01*
X217002857Y-75135890D02*
X216812381Y-75135890D01*
X216812381Y-75135890D02*
X216717143Y-75183509D01*
X216717143Y-75183509D02*
X216669524Y-75231128D01*
X216669524Y-75231128D02*
X216621905Y-75326366D01*
X216621905Y-75326366D02*
X216621905Y-75516842D01*
X216621905Y-75516842D02*
X216669524Y-75612080D01*
X216669524Y-75612080D02*
X216717143Y-75659700D01*
X216717143Y-75659700D02*
X216812381Y-75707319D01*
X216812381Y-75707319D02*
X217002857Y-75707319D01*
X217002857Y-75707319D02*
X217098095Y-75659700D01*
X217098095Y-75659700D02*
X217145714Y-75612080D01*
X217145714Y-75612080D02*
X217193333Y-75516842D01*
X217193333Y-75516842D02*
X217193333Y-75326366D01*
X217193333Y-75326366D02*
X217145714Y-75231128D01*
X217145714Y-75231128D02*
X217098095Y-75183509D01*
X217098095Y-75183509D02*
X217002857Y-75135890D01*
X137850476Y-94709700D02*
X137993333Y-94757319D01*
X137993333Y-94757319D02*
X138231428Y-94757319D01*
X138231428Y-94757319D02*
X138326666Y-94709700D01*
X138326666Y-94709700D02*
X138374285Y-94662080D01*
X138374285Y-94662080D02*
X138421904Y-94566842D01*
X138421904Y-94566842D02*
X138421904Y-94471604D01*
X138421904Y-94471604D02*
X138374285Y-94376366D01*
X138374285Y-94376366D02*
X138326666Y-94328747D01*
X138326666Y-94328747D02*
X138231428Y-94281128D01*
X138231428Y-94281128D02*
X138040952Y-94233509D01*
X138040952Y-94233509D02*
X137945714Y-94185890D01*
X137945714Y-94185890D02*
X137898095Y-94138271D01*
X137898095Y-94138271D02*
X137850476Y-94043033D01*
X137850476Y-94043033D02*
X137850476Y-93947795D01*
X137850476Y-93947795D02*
X137898095Y-93852557D01*
X137898095Y-93852557D02*
X137945714Y-93804938D01*
X137945714Y-93804938D02*
X138040952Y-93757319D01*
X138040952Y-93757319D02*
X138279047Y-93757319D01*
X138279047Y-93757319D02*
X138421904Y-93804938D01*
X138755238Y-93757319D02*
X138993333Y-94757319D01*
X138993333Y-94757319D02*
X139183809Y-94043033D01*
X139183809Y-94043033D02*
X139374285Y-94757319D01*
X139374285Y-94757319D02*
X139612381Y-93757319D01*
X140517142Y-94757319D02*
X139945714Y-94757319D01*
X140231428Y-94757319D02*
X140231428Y-93757319D01*
X140231428Y-93757319D02*
X140136190Y-93900176D01*
X140136190Y-93900176D02*
X140040952Y-93995414D01*
X140040952Y-93995414D02*
X139945714Y-94043033D01*
X141088571Y-94185890D02*
X140993333Y-94138271D01*
X140993333Y-94138271D02*
X140945714Y-94090652D01*
X140945714Y-94090652D02*
X140898095Y-93995414D01*
X140898095Y-93995414D02*
X140898095Y-93947795D01*
X140898095Y-93947795D02*
X140945714Y-93852557D01*
X140945714Y-93852557D02*
X140993333Y-93804938D01*
X140993333Y-93804938D02*
X141088571Y-93757319D01*
X141088571Y-93757319D02*
X141279047Y-93757319D01*
X141279047Y-93757319D02*
X141374285Y-93804938D01*
X141374285Y-93804938D02*
X141421904Y-93852557D01*
X141421904Y-93852557D02*
X141469523Y-93947795D01*
X141469523Y-93947795D02*
X141469523Y-93995414D01*
X141469523Y-93995414D02*
X141421904Y-94090652D01*
X141421904Y-94090652D02*
X141374285Y-94138271D01*
X141374285Y-94138271D02*
X141279047Y-94185890D01*
X141279047Y-94185890D02*
X141088571Y-94185890D01*
X141088571Y-94185890D02*
X140993333Y-94233509D01*
X140993333Y-94233509D02*
X140945714Y-94281128D01*
X140945714Y-94281128D02*
X140898095Y-94376366D01*
X140898095Y-94376366D02*
X140898095Y-94566842D01*
X140898095Y-94566842D02*
X140945714Y-94662080D01*
X140945714Y-94662080D02*
X140993333Y-94709700D01*
X140993333Y-94709700D02*
X141088571Y-94757319D01*
X141088571Y-94757319D02*
X141279047Y-94757319D01*
X141279047Y-94757319D02*
X141374285Y-94709700D01*
X141374285Y-94709700D02*
X141421904Y-94662080D01*
X141421904Y-94662080D02*
X141469523Y-94566842D01*
X141469523Y-94566842D02*
X141469523Y-94376366D01*
X141469523Y-94376366D02*
X141421904Y-94281128D01*
X141421904Y-94281128D02*
X141374285Y-94233509D01*
X141374285Y-94233509D02*
X141279047Y-94185890D01*
X157376667Y-51847200D02*
X157519524Y-51894819D01*
X157519524Y-51894819D02*
X157757619Y-51894819D01*
X157757619Y-51894819D02*
X157852857Y-51847200D01*
X157852857Y-51847200D02*
X157900476Y-51799580D01*
X157900476Y-51799580D02*
X157948095Y-51704342D01*
X157948095Y-51704342D02*
X157948095Y-51609104D01*
X157948095Y-51609104D02*
X157900476Y-51513866D01*
X157900476Y-51513866D02*
X157852857Y-51466247D01*
X157852857Y-51466247D02*
X157757619Y-51418628D01*
X157757619Y-51418628D02*
X157567143Y-51371009D01*
X157567143Y-51371009D02*
X157471905Y-51323390D01*
X157471905Y-51323390D02*
X157424286Y-51275771D01*
X157424286Y-51275771D02*
X157376667Y-51180533D01*
X157376667Y-51180533D02*
X157376667Y-51085295D01*
X157376667Y-51085295D02*
X157424286Y-50990057D01*
X157424286Y-50990057D02*
X157471905Y-50942438D01*
X157471905Y-50942438D02*
X157567143Y-50894819D01*
X157567143Y-50894819D02*
X157805238Y-50894819D01*
X157805238Y-50894819D02*
X157948095Y-50942438D01*
X158281429Y-50894819D02*
X158519524Y-51894819D01*
X158519524Y-51894819D02*
X158710000Y-51180533D01*
X158710000Y-51180533D02*
X158900476Y-51894819D01*
X158900476Y-51894819D02*
X159138572Y-50894819D01*
X159995714Y-50894819D02*
X159519524Y-50894819D01*
X159519524Y-50894819D02*
X159471905Y-51371009D01*
X159471905Y-51371009D02*
X159519524Y-51323390D01*
X159519524Y-51323390D02*
X159614762Y-51275771D01*
X159614762Y-51275771D02*
X159852857Y-51275771D01*
X159852857Y-51275771D02*
X159948095Y-51323390D01*
X159948095Y-51323390D02*
X159995714Y-51371009D01*
X159995714Y-51371009D02*
X160043333Y-51466247D01*
X160043333Y-51466247D02*
X160043333Y-51704342D01*
X160043333Y-51704342D02*
X159995714Y-51799580D01*
X159995714Y-51799580D02*
X159948095Y-51847200D01*
X159948095Y-51847200D02*
X159852857Y-51894819D01*
X159852857Y-51894819D02*
X159614762Y-51894819D01*
X159614762Y-51894819D02*
X159519524Y-51847200D01*
X159519524Y-51847200D02*
X159471905Y-51799580D01*
X156900476Y-89947200D02*
X157043333Y-89994819D01*
X157043333Y-89994819D02*
X157281428Y-89994819D01*
X157281428Y-89994819D02*
X157376666Y-89947200D01*
X157376666Y-89947200D02*
X157424285Y-89899580D01*
X157424285Y-89899580D02*
X157471904Y-89804342D01*
X157471904Y-89804342D02*
X157471904Y-89709104D01*
X157471904Y-89709104D02*
X157424285Y-89613866D01*
X157424285Y-89613866D02*
X157376666Y-89566247D01*
X157376666Y-89566247D02*
X157281428Y-89518628D01*
X157281428Y-89518628D02*
X157090952Y-89471009D01*
X157090952Y-89471009D02*
X156995714Y-89423390D01*
X156995714Y-89423390D02*
X156948095Y-89375771D01*
X156948095Y-89375771D02*
X156900476Y-89280533D01*
X156900476Y-89280533D02*
X156900476Y-89185295D01*
X156900476Y-89185295D02*
X156948095Y-89090057D01*
X156948095Y-89090057D02*
X156995714Y-89042438D01*
X156995714Y-89042438D02*
X157090952Y-88994819D01*
X157090952Y-88994819D02*
X157329047Y-88994819D01*
X157329047Y-88994819D02*
X157471904Y-89042438D01*
X157805238Y-88994819D02*
X158043333Y-89994819D01*
X158043333Y-89994819D02*
X158233809Y-89280533D01*
X158233809Y-89280533D02*
X158424285Y-89994819D01*
X158424285Y-89994819D02*
X158662381Y-88994819D01*
X159567142Y-89994819D02*
X158995714Y-89994819D01*
X159281428Y-89994819D02*
X159281428Y-88994819D01*
X159281428Y-88994819D02*
X159186190Y-89137676D01*
X159186190Y-89137676D02*
X159090952Y-89232914D01*
X159090952Y-89232914D02*
X158995714Y-89280533D01*
X159900476Y-88994819D02*
X160567142Y-88994819D01*
X160567142Y-88994819D02*
X160138571Y-89994819D01*
X233100476Y-94709700D02*
X233243333Y-94757319D01*
X233243333Y-94757319D02*
X233481428Y-94757319D01*
X233481428Y-94757319D02*
X233576666Y-94709700D01*
X233576666Y-94709700D02*
X233624285Y-94662080D01*
X233624285Y-94662080D02*
X233671904Y-94566842D01*
X233671904Y-94566842D02*
X233671904Y-94471604D01*
X233671904Y-94471604D02*
X233624285Y-94376366D01*
X233624285Y-94376366D02*
X233576666Y-94328747D01*
X233576666Y-94328747D02*
X233481428Y-94281128D01*
X233481428Y-94281128D02*
X233290952Y-94233509D01*
X233290952Y-94233509D02*
X233195714Y-94185890D01*
X233195714Y-94185890D02*
X233148095Y-94138271D01*
X233148095Y-94138271D02*
X233100476Y-94043033D01*
X233100476Y-94043033D02*
X233100476Y-93947795D01*
X233100476Y-93947795D02*
X233148095Y-93852557D01*
X233148095Y-93852557D02*
X233195714Y-93804938D01*
X233195714Y-93804938D02*
X233290952Y-93757319D01*
X233290952Y-93757319D02*
X233529047Y-93757319D01*
X233529047Y-93757319D02*
X233671904Y-93804938D01*
X234005238Y-93757319D02*
X234243333Y-94757319D01*
X234243333Y-94757319D02*
X234433809Y-94043033D01*
X234433809Y-94043033D02*
X234624285Y-94757319D01*
X234624285Y-94757319D02*
X234862381Y-93757319D01*
X235767142Y-94757319D02*
X235195714Y-94757319D01*
X235481428Y-94757319D02*
X235481428Y-93757319D01*
X235481428Y-93757319D02*
X235386190Y-93900176D01*
X235386190Y-93900176D02*
X235290952Y-93995414D01*
X235290952Y-93995414D02*
X235195714Y-94043033D01*
X236100476Y-93757319D02*
X236719523Y-93757319D01*
X236719523Y-93757319D02*
X236386190Y-94138271D01*
X236386190Y-94138271D02*
X236529047Y-94138271D01*
X236529047Y-94138271D02*
X236624285Y-94185890D01*
X236624285Y-94185890D02*
X236671904Y-94233509D01*
X236671904Y-94233509D02*
X236719523Y-94328747D01*
X236719523Y-94328747D02*
X236719523Y-94566842D01*
X236719523Y-94566842D02*
X236671904Y-94662080D01*
X236671904Y-94662080D02*
X236624285Y-94709700D01*
X236624285Y-94709700D02*
X236529047Y-94757319D01*
X236529047Y-94757319D02*
X236243333Y-94757319D01*
X236243333Y-94757319D02*
X236148095Y-94709700D01*
X236148095Y-94709700D02*
X236100476Y-94662080D01*
X176426667Y-47084700D02*
X176569524Y-47132319D01*
X176569524Y-47132319D02*
X176807619Y-47132319D01*
X176807619Y-47132319D02*
X176902857Y-47084700D01*
X176902857Y-47084700D02*
X176950476Y-47037080D01*
X176950476Y-47037080D02*
X176998095Y-46941842D01*
X176998095Y-46941842D02*
X176998095Y-46846604D01*
X176998095Y-46846604D02*
X176950476Y-46751366D01*
X176950476Y-46751366D02*
X176902857Y-46703747D01*
X176902857Y-46703747D02*
X176807619Y-46656128D01*
X176807619Y-46656128D02*
X176617143Y-46608509D01*
X176617143Y-46608509D02*
X176521905Y-46560890D01*
X176521905Y-46560890D02*
X176474286Y-46513271D01*
X176474286Y-46513271D02*
X176426667Y-46418033D01*
X176426667Y-46418033D02*
X176426667Y-46322795D01*
X176426667Y-46322795D02*
X176474286Y-46227557D01*
X176474286Y-46227557D02*
X176521905Y-46179938D01*
X176521905Y-46179938D02*
X176617143Y-46132319D01*
X176617143Y-46132319D02*
X176855238Y-46132319D01*
X176855238Y-46132319D02*
X176998095Y-46179938D01*
X177331429Y-46132319D02*
X177569524Y-47132319D01*
X177569524Y-47132319D02*
X177760000Y-46418033D01*
X177760000Y-46418033D02*
X177950476Y-47132319D01*
X177950476Y-47132319D02*
X178188572Y-46132319D01*
X178998095Y-46465652D02*
X178998095Y-47132319D01*
X178760000Y-46084700D02*
X178521905Y-46798985D01*
X178521905Y-46798985D02*
X179140952Y-46798985D01*
X233100476Y-113759700D02*
X233243333Y-113807319D01*
X233243333Y-113807319D02*
X233481428Y-113807319D01*
X233481428Y-113807319D02*
X233576666Y-113759700D01*
X233576666Y-113759700D02*
X233624285Y-113712080D01*
X233624285Y-113712080D02*
X233671904Y-113616842D01*
X233671904Y-113616842D02*
X233671904Y-113521604D01*
X233671904Y-113521604D02*
X233624285Y-113426366D01*
X233624285Y-113426366D02*
X233576666Y-113378747D01*
X233576666Y-113378747D02*
X233481428Y-113331128D01*
X233481428Y-113331128D02*
X233290952Y-113283509D01*
X233290952Y-113283509D02*
X233195714Y-113235890D01*
X233195714Y-113235890D02*
X233148095Y-113188271D01*
X233148095Y-113188271D02*
X233100476Y-113093033D01*
X233100476Y-113093033D02*
X233100476Y-112997795D01*
X233100476Y-112997795D02*
X233148095Y-112902557D01*
X233148095Y-112902557D02*
X233195714Y-112854938D01*
X233195714Y-112854938D02*
X233290952Y-112807319D01*
X233290952Y-112807319D02*
X233529047Y-112807319D01*
X233529047Y-112807319D02*
X233671904Y-112854938D01*
X234005238Y-112807319D02*
X234243333Y-113807319D01*
X234243333Y-113807319D02*
X234433809Y-113093033D01*
X234433809Y-113093033D02*
X234624285Y-113807319D01*
X234624285Y-113807319D02*
X234862381Y-112807319D01*
X235767142Y-113807319D02*
X235195714Y-113807319D01*
X235481428Y-113807319D02*
X235481428Y-112807319D01*
X235481428Y-112807319D02*
X235386190Y-112950176D01*
X235386190Y-112950176D02*
X235290952Y-113045414D01*
X235290952Y-113045414D02*
X235195714Y-113093033D01*
X236243333Y-113807319D02*
X236433809Y-113807319D01*
X236433809Y-113807319D02*
X236529047Y-113759700D01*
X236529047Y-113759700D02*
X236576666Y-113712080D01*
X236576666Y-113712080D02*
X236671904Y-113569223D01*
X236671904Y-113569223D02*
X236719523Y-113378747D01*
X236719523Y-113378747D02*
X236719523Y-112997795D01*
X236719523Y-112997795D02*
X236671904Y-112902557D01*
X236671904Y-112902557D02*
X236624285Y-112854938D01*
X236624285Y-112854938D02*
X236529047Y-112807319D01*
X236529047Y-112807319D02*
X236338571Y-112807319D01*
X236338571Y-112807319D02*
X236243333Y-112854938D01*
X236243333Y-112854938D02*
X236195714Y-112902557D01*
X236195714Y-112902557D02*
X236148095Y-112997795D01*
X236148095Y-112997795D02*
X236148095Y-113235890D01*
X236148095Y-113235890D02*
X236195714Y-113331128D01*
X236195714Y-113331128D02*
X236243333Y-113378747D01*
X236243333Y-113378747D02*
X236338571Y-113426366D01*
X236338571Y-113426366D02*
X236529047Y-113426366D01*
X236529047Y-113426366D02*
X236624285Y-113378747D01*
X236624285Y-113378747D02*
X236671904Y-113331128D01*
X236671904Y-113331128D02*
X236719523Y-113235890D01*
X129853362Y-146000558D02*
X130000889Y-145970369D01*
X130000889Y-145970369D02*
X130207086Y-145851321D01*
X130207086Y-145851321D02*
X130265755Y-145762463D01*
X130265755Y-145762463D02*
X130283185Y-145697414D01*
X130283185Y-145697414D02*
X130276805Y-145591126D01*
X130276805Y-145591126D02*
X130229186Y-145508647D01*
X130229186Y-145508647D02*
X130140328Y-145449978D01*
X130140328Y-145449978D02*
X130075279Y-145432548D01*
X130075279Y-145432548D02*
X129968991Y-145438928D01*
X129968991Y-145438928D02*
X129780224Y-145492927D01*
X129780224Y-145492927D02*
X129673936Y-145499307D01*
X129673936Y-145499307D02*
X129608887Y-145481877D01*
X129608887Y-145481877D02*
X129520029Y-145423208D01*
X129520029Y-145423208D02*
X129472410Y-145340729D01*
X129472410Y-145340729D02*
X129466030Y-145234441D01*
X129466030Y-145234441D02*
X129483460Y-145169392D01*
X129483460Y-145169392D02*
X129542129Y-145080534D01*
X129542129Y-145080534D02*
X129748325Y-144961486D01*
X129748325Y-144961486D02*
X129895853Y-144931297D01*
X130160718Y-144723391D02*
X130866915Y-145470369D01*
X130866915Y-145470369D02*
X130674729Y-144756541D01*
X130674729Y-144756541D02*
X131196829Y-145279892D01*
X131196829Y-145279892D02*
X130903026Y-144294819D01*
X131239320Y-144210631D02*
X131256750Y-144145583D01*
X131256750Y-144145583D02*
X131315419Y-144056724D01*
X131315419Y-144056724D02*
X131521615Y-143937677D01*
X131521615Y-143937677D02*
X131627903Y-143931297D01*
X131627903Y-143931297D02*
X131692952Y-143948727D01*
X131692952Y-143948727D02*
X131781811Y-144007396D01*
X131781811Y-144007396D02*
X131829430Y-144089874D01*
X131829430Y-144089874D02*
X131859619Y-144237402D01*
X131859619Y-144237402D02*
X131650461Y-145017988D01*
X131650461Y-145017988D02*
X132186572Y-144708464D01*
X132428880Y-143413867D02*
X132263923Y-143509105D01*
X132263923Y-143509105D02*
X132205254Y-143597964D01*
X132205254Y-143597964D02*
X132187824Y-143663012D01*
X132187824Y-143663012D02*
X132176774Y-143834349D01*
X132176774Y-143834349D02*
X132230773Y-144023116D01*
X132230773Y-144023116D02*
X132421249Y-144353031D01*
X132421249Y-144353031D02*
X132510107Y-144411700D01*
X132510107Y-144411700D02*
X132575156Y-144429129D01*
X132575156Y-144429129D02*
X132681444Y-144422750D01*
X132681444Y-144422750D02*
X132846401Y-144327512D01*
X132846401Y-144327512D02*
X132905070Y-144238653D01*
X132905070Y-144238653D02*
X132922500Y-144173604D01*
X132922500Y-144173604D02*
X132916120Y-144067316D01*
X132916120Y-144067316D02*
X132797073Y-143861120D01*
X132797073Y-143861120D02*
X132708215Y-143802451D01*
X132708215Y-143802451D02*
X132643166Y-143785021D01*
X132643166Y-143785021D02*
X132536878Y-143791401D01*
X132536878Y-143791401D02*
X132371920Y-143886639D01*
X132371920Y-143886639D02*
X132313251Y-143975497D01*
X132313251Y-143975497D02*
X132295821Y-144040546D01*
X132295821Y-144040546D02*
X132302201Y-144146834D01*
X156900476Y-70897200D02*
X157043333Y-70944819D01*
X157043333Y-70944819D02*
X157281428Y-70944819D01*
X157281428Y-70944819D02*
X157376666Y-70897200D01*
X157376666Y-70897200D02*
X157424285Y-70849580D01*
X157424285Y-70849580D02*
X157471904Y-70754342D01*
X157471904Y-70754342D02*
X157471904Y-70659104D01*
X157471904Y-70659104D02*
X157424285Y-70563866D01*
X157424285Y-70563866D02*
X157376666Y-70516247D01*
X157376666Y-70516247D02*
X157281428Y-70468628D01*
X157281428Y-70468628D02*
X157090952Y-70421009D01*
X157090952Y-70421009D02*
X156995714Y-70373390D01*
X156995714Y-70373390D02*
X156948095Y-70325771D01*
X156948095Y-70325771D02*
X156900476Y-70230533D01*
X156900476Y-70230533D02*
X156900476Y-70135295D01*
X156900476Y-70135295D02*
X156948095Y-70040057D01*
X156948095Y-70040057D02*
X156995714Y-69992438D01*
X156995714Y-69992438D02*
X157090952Y-69944819D01*
X157090952Y-69944819D02*
X157329047Y-69944819D01*
X157329047Y-69944819D02*
X157471904Y-69992438D01*
X157805238Y-69944819D02*
X158043333Y-70944819D01*
X158043333Y-70944819D02*
X158233809Y-70230533D01*
X158233809Y-70230533D02*
X158424285Y-70944819D01*
X158424285Y-70944819D02*
X158662381Y-69944819D01*
X159567142Y-70944819D02*
X158995714Y-70944819D01*
X159281428Y-70944819D02*
X159281428Y-69944819D01*
X159281428Y-69944819D02*
X159186190Y-70087676D01*
X159186190Y-70087676D02*
X159090952Y-70182914D01*
X159090952Y-70182914D02*
X158995714Y-70230533D01*
X160519523Y-70944819D02*
X159948095Y-70944819D01*
X160233809Y-70944819D02*
X160233809Y-69944819D01*
X160233809Y-69944819D02*
X160138571Y-70087676D01*
X160138571Y-70087676D02*
X160043333Y-70182914D01*
X160043333Y-70182914D02*
X159948095Y-70230533D01*
X214050476Y-94709700D02*
X214193333Y-94757319D01*
X214193333Y-94757319D02*
X214431428Y-94757319D01*
X214431428Y-94757319D02*
X214526666Y-94709700D01*
X214526666Y-94709700D02*
X214574285Y-94662080D01*
X214574285Y-94662080D02*
X214621904Y-94566842D01*
X214621904Y-94566842D02*
X214621904Y-94471604D01*
X214621904Y-94471604D02*
X214574285Y-94376366D01*
X214574285Y-94376366D02*
X214526666Y-94328747D01*
X214526666Y-94328747D02*
X214431428Y-94281128D01*
X214431428Y-94281128D02*
X214240952Y-94233509D01*
X214240952Y-94233509D02*
X214145714Y-94185890D01*
X214145714Y-94185890D02*
X214098095Y-94138271D01*
X214098095Y-94138271D02*
X214050476Y-94043033D01*
X214050476Y-94043033D02*
X214050476Y-93947795D01*
X214050476Y-93947795D02*
X214098095Y-93852557D01*
X214098095Y-93852557D02*
X214145714Y-93804938D01*
X214145714Y-93804938D02*
X214240952Y-93757319D01*
X214240952Y-93757319D02*
X214479047Y-93757319D01*
X214479047Y-93757319D02*
X214621904Y-93804938D01*
X214955238Y-93757319D02*
X215193333Y-94757319D01*
X215193333Y-94757319D02*
X215383809Y-94043033D01*
X215383809Y-94043033D02*
X215574285Y-94757319D01*
X215574285Y-94757319D02*
X215812381Y-93757319D01*
X216717142Y-94757319D02*
X216145714Y-94757319D01*
X216431428Y-94757319D02*
X216431428Y-93757319D01*
X216431428Y-93757319D02*
X216336190Y-93900176D01*
X216336190Y-93900176D02*
X216240952Y-93995414D01*
X216240952Y-93995414D02*
X216145714Y-94043033D01*
X217574285Y-94090652D02*
X217574285Y-94757319D01*
X217336190Y-93709700D02*
X217098095Y-94423985D01*
X217098095Y-94423985D02*
X217717142Y-94423985D01*
X156900476Y-108997200D02*
X157043333Y-109044819D01*
X157043333Y-109044819D02*
X157281428Y-109044819D01*
X157281428Y-109044819D02*
X157376666Y-108997200D01*
X157376666Y-108997200D02*
X157424285Y-108949580D01*
X157424285Y-108949580D02*
X157471904Y-108854342D01*
X157471904Y-108854342D02*
X157471904Y-108759104D01*
X157471904Y-108759104D02*
X157424285Y-108663866D01*
X157424285Y-108663866D02*
X157376666Y-108616247D01*
X157376666Y-108616247D02*
X157281428Y-108568628D01*
X157281428Y-108568628D02*
X157090952Y-108521009D01*
X157090952Y-108521009D02*
X156995714Y-108473390D01*
X156995714Y-108473390D02*
X156948095Y-108425771D01*
X156948095Y-108425771D02*
X156900476Y-108330533D01*
X156900476Y-108330533D02*
X156900476Y-108235295D01*
X156900476Y-108235295D02*
X156948095Y-108140057D01*
X156948095Y-108140057D02*
X156995714Y-108092438D01*
X156995714Y-108092438D02*
X157090952Y-108044819D01*
X157090952Y-108044819D02*
X157329047Y-108044819D01*
X157329047Y-108044819D02*
X157471904Y-108092438D01*
X157805238Y-108044819D02*
X158043333Y-109044819D01*
X158043333Y-109044819D02*
X158233809Y-108330533D01*
X158233809Y-108330533D02*
X158424285Y-109044819D01*
X158424285Y-109044819D02*
X158662381Y-108044819D01*
X158995714Y-108140057D02*
X159043333Y-108092438D01*
X159043333Y-108092438D02*
X159138571Y-108044819D01*
X159138571Y-108044819D02*
X159376666Y-108044819D01*
X159376666Y-108044819D02*
X159471904Y-108092438D01*
X159471904Y-108092438D02*
X159519523Y-108140057D01*
X159519523Y-108140057D02*
X159567142Y-108235295D01*
X159567142Y-108235295D02*
X159567142Y-108330533D01*
X159567142Y-108330533D02*
X159519523Y-108473390D01*
X159519523Y-108473390D02*
X158948095Y-109044819D01*
X158948095Y-109044819D02*
X159567142Y-109044819D01*
X159900476Y-108044819D02*
X160519523Y-108044819D01*
X160519523Y-108044819D02*
X160186190Y-108425771D01*
X160186190Y-108425771D02*
X160329047Y-108425771D01*
X160329047Y-108425771D02*
X160424285Y-108473390D01*
X160424285Y-108473390D02*
X160471904Y-108521009D01*
X160471904Y-108521009D02*
X160519523Y-108616247D01*
X160519523Y-108616247D02*
X160519523Y-108854342D01*
X160519523Y-108854342D02*
X160471904Y-108949580D01*
X160471904Y-108949580D02*
X160424285Y-108997200D01*
X160424285Y-108997200D02*
X160329047Y-109044819D01*
X160329047Y-109044819D02*
X160043333Y-109044819D01*
X160043333Y-109044819D02*
X159948095Y-108997200D01*
X159948095Y-108997200D02*
X159900476Y-108949580D01*
X233576667Y-56609700D02*
X233719524Y-56657319D01*
X233719524Y-56657319D02*
X233957619Y-56657319D01*
X233957619Y-56657319D02*
X234052857Y-56609700D01*
X234052857Y-56609700D02*
X234100476Y-56562080D01*
X234100476Y-56562080D02*
X234148095Y-56466842D01*
X234148095Y-56466842D02*
X234148095Y-56371604D01*
X234148095Y-56371604D02*
X234100476Y-56276366D01*
X234100476Y-56276366D02*
X234052857Y-56228747D01*
X234052857Y-56228747D02*
X233957619Y-56181128D01*
X233957619Y-56181128D02*
X233767143Y-56133509D01*
X233767143Y-56133509D02*
X233671905Y-56085890D01*
X233671905Y-56085890D02*
X233624286Y-56038271D01*
X233624286Y-56038271D02*
X233576667Y-55943033D01*
X233576667Y-55943033D02*
X233576667Y-55847795D01*
X233576667Y-55847795D02*
X233624286Y-55752557D01*
X233624286Y-55752557D02*
X233671905Y-55704938D01*
X233671905Y-55704938D02*
X233767143Y-55657319D01*
X233767143Y-55657319D02*
X234005238Y-55657319D01*
X234005238Y-55657319D02*
X234148095Y-55704938D01*
X234481429Y-55657319D02*
X234719524Y-56657319D01*
X234719524Y-56657319D02*
X234910000Y-55943033D01*
X234910000Y-55943033D02*
X235100476Y-56657319D01*
X235100476Y-56657319D02*
X235338572Y-55657319D01*
X236243333Y-56657319D02*
X235671905Y-56657319D01*
X235957619Y-56657319D02*
X235957619Y-55657319D01*
X235957619Y-55657319D02*
X235862381Y-55800176D01*
X235862381Y-55800176D02*
X235767143Y-55895414D01*
X235767143Y-55895414D02*
X235671905Y-55943033D01*
X138326667Y-56609700D02*
X138469524Y-56657319D01*
X138469524Y-56657319D02*
X138707619Y-56657319D01*
X138707619Y-56657319D02*
X138802857Y-56609700D01*
X138802857Y-56609700D02*
X138850476Y-56562080D01*
X138850476Y-56562080D02*
X138898095Y-56466842D01*
X138898095Y-56466842D02*
X138898095Y-56371604D01*
X138898095Y-56371604D02*
X138850476Y-56276366D01*
X138850476Y-56276366D02*
X138802857Y-56228747D01*
X138802857Y-56228747D02*
X138707619Y-56181128D01*
X138707619Y-56181128D02*
X138517143Y-56133509D01*
X138517143Y-56133509D02*
X138421905Y-56085890D01*
X138421905Y-56085890D02*
X138374286Y-56038271D01*
X138374286Y-56038271D02*
X138326667Y-55943033D01*
X138326667Y-55943033D02*
X138326667Y-55847795D01*
X138326667Y-55847795D02*
X138374286Y-55752557D01*
X138374286Y-55752557D02*
X138421905Y-55704938D01*
X138421905Y-55704938D02*
X138517143Y-55657319D01*
X138517143Y-55657319D02*
X138755238Y-55657319D01*
X138755238Y-55657319D02*
X138898095Y-55704938D01*
X139231429Y-55657319D02*
X139469524Y-56657319D01*
X139469524Y-56657319D02*
X139660000Y-55943033D01*
X139660000Y-55943033D02*
X139850476Y-56657319D01*
X139850476Y-56657319D02*
X140088572Y-55657319D01*
X140898095Y-55657319D02*
X140707619Y-55657319D01*
X140707619Y-55657319D02*
X140612381Y-55704938D01*
X140612381Y-55704938D02*
X140564762Y-55752557D01*
X140564762Y-55752557D02*
X140469524Y-55895414D01*
X140469524Y-55895414D02*
X140421905Y-56085890D01*
X140421905Y-56085890D02*
X140421905Y-56466842D01*
X140421905Y-56466842D02*
X140469524Y-56562080D01*
X140469524Y-56562080D02*
X140517143Y-56609700D01*
X140517143Y-56609700D02*
X140612381Y-56657319D01*
X140612381Y-56657319D02*
X140802857Y-56657319D01*
X140802857Y-56657319D02*
X140898095Y-56609700D01*
X140898095Y-56609700D02*
X140945714Y-56562080D01*
X140945714Y-56562080D02*
X140993333Y-56466842D01*
X140993333Y-56466842D02*
X140993333Y-56228747D01*
X140993333Y-56228747D02*
X140945714Y-56133509D01*
X140945714Y-56133509D02*
X140898095Y-56085890D01*
X140898095Y-56085890D02*
X140802857Y-56038271D01*
X140802857Y-56038271D02*
X140612381Y-56038271D01*
X140612381Y-56038271D02*
X140517143Y-56085890D01*
X140517143Y-56085890D02*
X140469524Y-56133509D01*
X140469524Y-56133509D02*
X140421905Y-56228747D01*
%TO.C,SW21*%
D13*
X189710000Y-109490000D02*
X189710000Y-123690000D01*
X189710000Y-123690000D02*
X203910000Y-123690000D01*
X203910000Y-109490000D02*
X189710000Y-109490000D01*
X203910000Y-123690000D02*
X203910000Y-109490000D01*
%TO.C,SW9*%
X189710000Y-71390000D02*
X189710000Y-85590000D01*
X189710000Y-85590000D02*
X203910000Y-85590000D01*
X203910000Y-71390000D02*
X189710000Y-71390000D01*
X203910000Y-85590000D02*
X203910000Y-71390000D01*
%TO.C,SW2*%
X208760000Y-57102500D02*
X208760000Y-71302500D01*
X208760000Y-71302500D02*
X222960000Y-71302500D01*
X222960000Y-57102500D02*
X208760000Y-57102500D01*
X222960000Y-71302500D02*
X222960000Y-57102500D01*
%TO.C,J2*%
X103875000Y-95500000D02*
X103875000Y-100500000D01*
X105875000Y-94900000D02*
X105875000Y-95500000D01*
X105875000Y-94900000D02*
X108250000Y-94900000D01*
X105875000Y-95500000D02*
X103875000Y-95500000D01*
X105875000Y-100500000D02*
X103875000Y-100500000D01*
X105875000Y-100500000D02*
X105875000Y-101100000D01*
X109900000Y-94900000D02*
X111250000Y-94900000D01*
X112900000Y-94900000D02*
X115300000Y-94900000D01*
X115300000Y-94900000D02*
X115300000Y-93500000D01*
X116400000Y-101100000D02*
X105875000Y-101100000D01*
X116850000Y-94900000D02*
X116850000Y-93500000D01*
X116850000Y-94900000D02*
X117975000Y-94900000D01*
X117975000Y-101100000D02*
X117975000Y-94900000D01*
%TO.C,SW10*%
X170660000Y-66627500D02*
X170660000Y-80827500D01*
X170660000Y-80827500D02*
X184860000Y-80827500D01*
X184860000Y-66627500D02*
X170660000Y-66627500D01*
X184860000Y-80827500D02*
X184860000Y-66627500D01*
%TO.C,SW7*%
X227810000Y-76152500D02*
X227810000Y-90352500D01*
X227810000Y-90352500D02*
X242010000Y-90352500D01*
X242010000Y-76152500D02*
X227810000Y-76152500D01*
X242010000Y-90352500D02*
X242010000Y-76152500D01*
%TO.C,SW25*%
X147593559Y-136895996D02*
X151268790Y-150612143D01*
X151268790Y-150612143D02*
X164984937Y-146936912D01*
X161309706Y-133220765D02*
X147593559Y-136895996D01*
X164984937Y-146936912D02*
X161309706Y-133220765D01*
%TO.C,SW15*%
X189710000Y-90440000D02*
X189710000Y-104640000D01*
X189710000Y-104640000D02*
X203910000Y-104640000D01*
X203910000Y-90440000D02*
X189710000Y-90440000D01*
X203910000Y-104640000D02*
X203910000Y-90440000D01*
%TO.C,SW22*%
X170660000Y-104727500D02*
X170660000Y-118927500D01*
X170660000Y-118927500D02*
X184860000Y-118927500D01*
X184860000Y-104727500D02*
X170660000Y-104727500D01*
X184860000Y-118927500D02*
X184860000Y-104727500D01*
%TO.C,SW20*%
X208760000Y-114252500D02*
X208760000Y-128452500D01*
X208760000Y-128452500D02*
X222960000Y-128452500D01*
X222960000Y-114252500D02*
X208760000Y-114252500D01*
X222960000Y-128452500D02*
X222960000Y-114252500D01*
%TO.C,SW3*%
X189710000Y-52340000D02*
X189710000Y-66540000D01*
X189710000Y-66540000D02*
X203910000Y-66540000D01*
X203910000Y-52340000D02*
X189710000Y-52340000D01*
X203910000Y-66540000D02*
X203910000Y-52340000D01*
%TO.C,SW27*%
X106123849Y-163682937D02*
X115251433Y-174560769D01*
X115251433Y-174560769D02*
X126129265Y-165433185D01*
X117001681Y-154555353D02*
X106123849Y-163682937D01*
X126129265Y-165433185D02*
X117001681Y-154555353D01*
%TO.C,SW12*%
X132560000Y-76152500D02*
X132560000Y-90352500D01*
X132560000Y-90352500D02*
X146760000Y-90352500D01*
X146760000Y-76152500D02*
X132560000Y-76152500D01*
X146760000Y-90352500D02*
X146760000Y-76152500D01*
%TO.C,SW16*%
X170660000Y-85677500D02*
X170660000Y-99877500D01*
X170660000Y-99877500D02*
X184860000Y-99877500D01*
X184860000Y-85677500D02*
X170660000Y-85677500D01*
X184860000Y-99877500D02*
X184860000Y-85677500D01*
%TO.C,SW24*%
X132560000Y-114252500D02*
X132560000Y-128452500D01*
X132560000Y-128452500D02*
X146760000Y-128452500D01*
X146760000Y-114252500D02*
X132560000Y-114252500D01*
X146760000Y-128452500D02*
X146760000Y-114252500D01*
%TO.C,SW8*%
X208760000Y-76152500D02*
X208760000Y-90352500D01*
X208760000Y-90352500D02*
X222960000Y-90352500D01*
X222960000Y-76152500D02*
X208760000Y-76152500D01*
X222960000Y-90352500D02*
X222960000Y-76152500D01*
%TO.C,SW18*%
X132560000Y-95202500D02*
X132560000Y-109402500D01*
X132560000Y-109402500D02*
X146760000Y-109402500D01*
X146760000Y-95202500D02*
X132560000Y-95202500D01*
X146760000Y-109402500D02*
X146760000Y-95202500D01*
%TO.C,SW5*%
X151610000Y-52340000D02*
X151610000Y-66540000D01*
X151610000Y-66540000D02*
X165810000Y-66540000D01*
X165810000Y-52340000D02*
X151610000Y-52340000D01*
X165810000Y-66540000D02*
X165810000Y-52340000D01*
%TO.C,SW17*%
X151610000Y-90440000D02*
X151610000Y-104640000D01*
X151610000Y-104640000D02*
X165810000Y-104640000D01*
X165810000Y-90440000D02*
X151610000Y-90440000D01*
X165810000Y-104640000D02*
X165810000Y-90440000D01*
%TO.C,SW13*%
X227810000Y-95202500D02*
X227810000Y-109402500D01*
X227810000Y-109402500D02*
X242010000Y-109402500D01*
X242010000Y-95202500D02*
X227810000Y-95202500D01*
X242010000Y-109402500D02*
X242010000Y-95202500D01*
%TO.C,SW4*%
X170660000Y-47577500D02*
X170660000Y-61777500D01*
X170660000Y-61777500D02*
X184860000Y-61777500D01*
X184860000Y-47577500D02*
X170660000Y-47577500D01*
X184860000Y-61777500D02*
X184860000Y-47577500D01*
%TO.C,SW19*%
X227810000Y-114252500D02*
X227810000Y-128452500D01*
X227810000Y-128452500D02*
X242010000Y-128452500D01*
X242010000Y-114252500D02*
X227810000Y-114252500D01*
X242010000Y-128452500D02*
X242010000Y-114252500D01*
%TO.C,SW26*%
X125518076Y-149072574D02*
X132618076Y-161370134D01*
X132618076Y-161370134D02*
X144915636Y-154270134D01*
X137815636Y-141972574D02*
X125518076Y-149072574D01*
X144915636Y-154270134D02*
X137815636Y-141972574D01*
%TO.C,SW11*%
X151610000Y-71390000D02*
X151610000Y-85590000D01*
X151610000Y-85590000D02*
X165810000Y-85590000D01*
X165810000Y-71390000D02*
X151610000Y-71390000D01*
X165810000Y-85590000D02*
X165810000Y-71390000D01*
%TO.C,SW14*%
X208760000Y-95202500D02*
X208760000Y-109402500D01*
X208760000Y-109402500D02*
X222960000Y-109402500D01*
X222960000Y-95202500D02*
X208760000Y-95202500D01*
X222960000Y-109402500D02*
X222960000Y-95202500D01*
%TO.C,SW23*%
X151610000Y-109490000D02*
X151610000Y-123690000D01*
X151610000Y-123690000D02*
X165810000Y-123690000D01*
X165810000Y-109490000D02*
X151610000Y-109490000D01*
X165810000Y-123690000D02*
X165810000Y-109490000D01*
%TO.C,SW1*%
X227810000Y-57102500D02*
X227810000Y-71302500D01*
X227810000Y-71302500D02*
X242010000Y-71302500D01*
X242010000Y-57102500D02*
X227810000Y-57102500D01*
X242010000Y-71302500D02*
X242010000Y-57102500D01*
%TO.C,SW6*%
X132560000Y-57102500D02*
X132560000Y-71302500D01*
X132560000Y-71302500D02*
X146760000Y-71302500D01*
X146760000Y-57102500D02*
X132560000Y-57102500D01*
X146760000Y-71302500D02*
X146760000Y-57102500D01*
%TD*%
M02*
