%TF.GenerationSoftware,KiCad,Pcbnew,10.0.1*%
%TF.CreationDate,2026-06-06T18:00:52+12:00*%
%TF.ProjectId,keyboard,6b657962-6f61-4726-942e-6b696361645f,rev?*%
%TF.SameCoordinates,Original*%
%TF.FileFunction,Copper,L2,Bot*%
%TF.FilePolarity,Positive*%
%FSLAX46Y46*%
G04 Gerber Fmt 4.6, Leading zero omitted, Abs format (unit mm)*
G04 Created by KiCad (PCBNEW 10.0.1) date 2026-06-06 18:00:52*
%MOMM*%
%LPD*%
G01*
G04 APERTURE LIST*
G04 Aperture macros list*
%AMRoundRect*
0 Rectangle with rounded corners*
0 $1 Rounding radius*
0 $2 $3 $4 $5 $6 $7 $8 $9 X,Y pos of 4 corners*
0 Add a 4 corners polygon primitive as box body*
4,1,4,$2,$3,$4,$5,$6,$7,$8,$9,$2,$3,0*
0 Add four circle primitives for the rounded corners*
1,1,$1+$1,$2,$3*
1,1,$1+$1,$4,$5*
1,1,$1+$1,$6,$7*
1,1,$1+$1,$8,$9*
0 Add four rect primitives between the rounded corners*
20,1,$1+$1,$2,$3,$4,$5,0*
20,1,$1+$1,$4,$5,$6,$7,0*
20,1,$1+$1,$6,$7,$8,$9,0*
20,1,$1+$1,$8,$9,$2,$3,0*%
G04 Aperture macros list end*
%TA.AperFunction,ComponentPad*%
%ADD10O,2.500000X1.500000*%
%TD*%
%TA.AperFunction,ComponentPad*%
%ADD11O,1.500000X2.500000*%
%TD*%
%TA.AperFunction,SMDPad,CuDef*%
%ADD12RoundRect,0.250000X-1.025000X-1.000000X1.025000X-1.000000X1.025000X1.000000X-1.025000X1.000000X0*%
%TD*%
%TA.AperFunction,SMDPad,CuDef*%
%ADD13RoundRect,0.250000X-0.731255X-1.231215X1.248893X-0.700636X0.731255X1.231215X-1.248893X0.700636X0*%
%TD*%
%TA.AperFunction,SMDPad,CuDef*%
%ADD14RoundRect,0.250000X-0.142408X-1.424902X1.427983X-0.107187X0.142408X1.424902X-1.427983X0.107187X0*%
%TD*%
%TA.AperFunction,SMDPad,CuDef*%
%ADD15RoundRect,0.250000X-0.387676X-1.378525X1.387676X-0.353525X0.387676X1.378525X-1.387676X0.353525X0*%
%TD*%
%TA.AperFunction,SMDPad,CuDef*%
%ADD16RoundRect,0.225000X0.431894X0.068685X0.142639X0.413405X-0.431894X-0.068685X-0.142639X-0.413405X0*%
%TD*%
%TA.AperFunction,SMDPad,CuDef*%
%ADD17RoundRect,0.225000X0.375000X-0.225000X0.375000X0.225000X-0.375000X0.225000X-0.375000X-0.225000X0*%
%TD*%
%TA.AperFunction,SMDPad,CuDef*%
%ADD18RoundRect,0.225000X0.437260X-0.007356X0.212260X0.382356X-0.437260X0.007356X-0.212260X-0.382356X0*%
%TD*%
%TA.AperFunction,SMDPad,CuDef*%
%ADD19RoundRect,0.225000X0.420456X-0.120276X0.303988X0.314390X-0.420456X0.120276X-0.303988X-0.314390X0*%
%TD*%
%TA.AperFunction,ViaPad*%
%ADD20C,0.600000*%
%TD*%
%TA.AperFunction,Conductor*%
%ADD21C,0.200000*%
%TD*%
G04 APERTURE END LIST*
D10*
%TO.P,U2,1,0_1*%
%TO.N,TX*%
X122997768Y-55541300D03*
%TO.P,U2,2,1_2*%
%TO.N,RX*%
X122997768Y-58081300D03*
%TO.P,U2,3,2_3*%
%TO.N,ROW0*%
X122997768Y-60621300D03*
%TO.P,U2,4,3_4*%
%TO.N,ROW1*%
X122997768Y-63161300D03*
%TO.P,U2,5,4_5*%
%TO.N,ROW2*%
X122997768Y-65701300D03*
%TO.P,U2,6,5_6*%
%TO.N,ROW3*%
X122997768Y-68241300D03*
%TO.P,U2,7,6_7*%
%TO.N,ROW4*%
X122997768Y-70781300D03*
%TO.P,U2,8,7_8*%
%TO.N,COL0*%
X122997768Y-73321300D03*
%TO.P,U2,9,8_9*%
%TO.N,COL1*%
X122997768Y-75861300D03*
D11*
%TO.P,U2,10,9_10*%
%TO.N,COL2*%
X119957768Y-76361300D03*
%TO.P,U2,11,10_11*%
%TO.N,COL3*%
X117417768Y-76361300D03*
%TO.P,U2,12,11_12*%
%TO.N,COL4*%
X114877768Y-76361300D03*
%TO.P,U2,13,12_13*%
%TO.N,COL5*%
X112337768Y-76361300D03*
%TO.P,U2,14,13_14*%
%TO.N,COL6*%
X109797768Y-76361300D03*
D10*
%TO.P,U2,15,14_15*%
%TO.N,unconnected-(U2-14-Pad15)*%
X106757768Y-75861300D03*
%TO.P,U2,16,15_16*%
%TO.N,unconnected-(U2-15-Pad16)*%
X106757768Y-73321300D03*
%TO.P,U2,17,26_17*%
%TO.N,unconnected-(U2-26-Pad17)*%
X106757768Y-70781300D03*
%TO.P,U2,18,27_18*%
%TO.N,unconnected-(U2-27-Pad18)*%
X106757768Y-68241300D03*
%TO.P,U2,19,28_19*%
%TO.N,unconnected-(U2-28-Pad19)*%
X106757768Y-65701300D03*
%TO.P,U2,20,29_20*%
%TO.N,unconnected-(U2-29-Pad20)*%
X106757768Y-63161300D03*
%TO.P,U2,21,3V3_21*%
%TO.N,VCC*%
X106757768Y-60621300D03*
%TO.P,U2,22,GND_22*%
%TO.N,GND*%
X106757768Y-58081300D03*
%TO.P,U2,23,5V_23*%
%TO.N,unconnected-(U2-5V-Pad23)*%
X106757768Y-55541300D03*
%TD*%
D12*
%TO.P,SW21,1,1*%
%TO.N,COL3*%
X189725000Y-114050000D03*
%TO.P,SW21,2,2*%
%TO.N,Net-(D21-A)*%
X202652000Y-111510000D03*
%TD*%
%TO.P,SW9,1,1*%
%TO.N,COL3*%
X189725000Y-75950000D03*
%TO.P,SW9,2,2*%
%TO.N,Net-(D9-A)*%
X202652000Y-73410000D03*
%TD*%
%TO.P,SW2,1,1*%
%TO.N,COL2*%
X208775000Y-61662500D03*
%TO.P,SW2,2,2*%
%TO.N,Net-(D2-A)*%
X221702000Y-59122500D03*
%TD*%
%TO.P,SW10,1,1*%
%TO.N,COL4*%
X170675000Y-71187500D03*
%TO.P,SW10,2,2*%
%TO.N,Net-(D10-A)*%
X183602000Y-68647500D03*
%TD*%
%TO.P,SW7,1,1*%
%TO.N,COL1*%
X227825000Y-80712500D03*
%TO.P,SW7,2,2*%
%TO.N,Net-(D7-A)*%
X240752000Y-78172500D03*
%TD*%
D13*
%TO.P,SW25,1,1*%
%TO.N,COL3*%
X148788263Y-141296735D03*
%TO.P,SW25,2,2*%
%TO.N,Net-(D25-A)*%
X160617386Y-135497530D03*
%TD*%
D12*
%TO.P,SW15,1,1*%
%TO.N,COL3*%
X189725000Y-95000000D03*
%TO.P,SW15,2,2*%
%TO.N,Net-(D15-A)*%
X202652000Y-92460000D03*
%TD*%
%TO.P,SW22,1,1*%
%TO.N,COL4*%
X170675000Y-109287500D03*
%TO.P,SW22,2,2*%
%TO.N,Net-(D22-A)*%
X183602000Y-106747500D03*
%TD*%
%TO.P,SW20,1,1*%
%TO.N,COL2*%
X208775000Y-118812500D03*
%TO.P,SW20,2,2*%
%TO.N,Net-(D20-A)*%
X221702000Y-116272500D03*
%TD*%
%TO.P,SW3,1,1*%
%TO.N,COL3*%
X189725000Y-56900000D03*
%TO.P,SW3,2,2*%
%TO.N,Net-(D3-A)*%
X202652000Y-54360000D03*
%TD*%
D14*
%TO.P,SW27,1,1*%
%TO.N,COL5*%
X109066452Y-167166458D03*
%TO.P,SW27,2,2*%
%TO.N,Net-(D27-A)*%
X117336428Y-156911390D03*
%TD*%
D12*
%TO.P,SW12,1,1*%
%TO.N,COL6*%
X132575000Y-80712500D03*
%TO.P,SW12,2,2*%
%TO.N,Net-(D12-A)*%
X145502000Y-78172500D03*
%TD*%
%TO.P,SW16,1,1*%
%TO.N,COL4*%
X170675000Y-90237500D03*
%TO.P,SW16,2,2*%
%TO.N,Net-(D16-A)*%
X183602000Y-87697500D03*
%TD*%
%TO.P,SW24,1,1*%
%TO.N,COL6*%
X132575000Y-118812500D03*
%TO.P,SW24,2,2*%
%TO.N,Net-(D24-A)*%
X145502000Y-116272500D03*
%TD*%
%TO.P,SW8,1,1*%
%TO.N,COL2*%
X208775000Y-80712500D03*
%TO.P,SW8,2,2*%
%TO.N,Net-(D8-A)*%
X221702000Y-78172500D03*
%TD*%
%TO.P,SW18,1,1*%
%TO.N,COL6*%
X132575000Y-99762500D03*
%TO.P,SW18,2,2*%
%TO.N,Net-(D18-A)*%
X145502000Y-97222500D03*
%TD*%
%TO.P,SW5,1,1*%
%TO.N,COL5*%
X151625000Y-56900000D03*
%TO.P,SW5,2,2*%
%TO.N,Net-(D5-A)*%
X164552000Y-54360000D03*
%TD*%
%TO.P,SW17,1,1*%
%TO.N,COL5*%
X151625000Y-95000000D03*
%TO.P,SW17,2,2*%
%TO.N,Net-(D17-A)*%
X164552000Y-92460000D03*
%TD*%
%TO.P,SW13,1,1*%
%TO.N,COL1*%
X227825000Y-99762500D03*
%TO.P,SW13,2,2*%
%TO.N,Net-(D13-A)*%
X240752000Y-97222500D03*
%TD*%
%TO.P,SW4,1,1*%
%TO.N,COL4*%
X170675000Y-52137500D03*
%TO.P,SW4,2,2*%
%TO.N,Net-(D4-A)*%
X183602000Y-49597500D03*
%TD*%
%TO.P,SW19,1,1*%
%TO.N,COL1*%
X227825000Y-118812500D03*
%TO.P,SW19,2,2*%
%TO.N,Net-(D19-A)*%
X240752000Y-116272500D03*
%TD*%
D15*
%TO.P,SW26,1,1*%
%TO.N,COL4*%
X127811066Y-153014149D03*
%TO.P,SW26,2,2*%
%TO.N,Net-(D26-A)*%
X137736176Y-144350945D03*
%TD*%
D12*
%TO.P,SW11,1,1*%
%TO.N,COL5*%
X151625000Y-75950000D03*
%TO.P,SW11,2,2*%
%TO.N,Net-(D11-A)*%
X164552000Y-73410000D03*
%TD*%
%TO.P,SW14,1,1*%
%TO.N,COL2*%
X208775000Y-99762500D03*
%TO.P,SW14,2,2*%
%TO.N,Net-(D14-A)*%
X221702000Y-97222500D03*
%TD*%
%TO.P,SW23,1,1*%
%TO.N,COL5*%
X151625000Y-114050000D03*
%TO.P,SW23,2,2*%
%TO.N,Net-(D23-A)*%
X164552000Y-111510000D03*
%TD*%
%TO.P,SW1,1,1*%
%TO.N,COL1*%
X227825000Y-61662500D03*
%TO.P,SW1,2,2*%
%TO.N,Net-(D1-A)*%
X240752000Y-59122500D03*
%TD*%
%TO.P,SW6,1,1*%
%TO.N,COL6*%
X132575000Y-61662500D03*
%TO.P,SW6,2,2*%
%TO.N,Net-(D6-A)*%
X145502000Y-59122500D03*
%TD*%
D16*
%TO.P,D27,1,K*%
%TO.N,ROW4*%
X123649813Y-165620851D03*
%TO.P,D27,2,A*%
%TO.N,Net-(D27-A)*%
X121528613Y-163092905D03*
%TD*%
D17*
%TO.P,D16,1,K*%
%TO.N,ROW2*%
X182840000Y-98427500D03*
%TO.P,D16,2,A*%
%TO.N,Net-(D16-A)*%
X182840000Y-95127500D03*
%TD*%
%TO.P,D8,1,K*%
%TO.N,ROW1*%
X220940000Y-88902500D03*
%TO.P,D8,2,A*%
%TO.N,Net-(D8-A)*%
X220940000Y-85602500D03*
%TD*%
%TO.P,D4,1,K*%
%TO.N,ROW0*%
X182840000Y-60327500D03*
%TO.P,D4,2,A*%
%TO.N,Net-(D4-A)*%
X182840000Y-57027500D03*
%TD*%
%TO.P,D23,1,K*%
%TO.N,ROW3*%
X163790000Y-122240000D03*
%TO.P,D23,2,A*%
%TO.N,Net-(D23-A)*%
X163790000Y-118940000D03*
%TD*%
%TO.P,D5,1,K*%
%TO.N,ROW0*%
X163790000Y-65090000D03*
%TO.P,D5,2,A*%
%TO.N,Net-(D5-A)*%
X163790000Y-61790000D03*
%TD*%
%TO.P,D18,1,K*%
%TO.N,ROW2*%
X144740000Y-107952500D03*
%TO.P,D18,2,A*%
%TO.N,Net-(D18-A)*%
X144740000Y-104652500D03*
%TD*%
%TO.P,D21,1,K*%
%TO.N,ROW3*%
X201890000Y-122240000D03*
%TO.P,D21,2,A*%
%TO.N,Net-(D21-A)*%
X201890000Y-118940000D03*
%TD*%
%TO.P,D9,1,K*%
%TO.N,ROW1*%
X201890000Y-84140000D03*
%TO.P,D9,2,A*%
%TO.N,Net-(D9-A)*%
X201890000Y-80840000D03*
%TD*%
%TO.P,D20,1,K*%
%TO.N,ROW3*%
X220940000Y-127002500D03*
%TO.P,D20,2,A*%
%TO.N,Net-(D20-A)*%
X220940000Y-123702500D03*
%TD*%
%TO.P,D6,1,K*%
%TO.N,ROW0*%
X144740000Y-69852500D03*
%TO.P,D6,2,A*%
%TO.N,Net-(D6-A)*%
X144740000Y-66552500D03*
%TD*%
%TO.P,D12,1,K*%
%TO.N,ROW1*%
X144740000Y-88902500D03*
%TO.P,D12,2,A*%
%TO.N,Net-(D12-A)*%
X144740000Y-85602500D03*
%TD*%
%TO.P,D7,1,K*%
%TO.N,ROW1*%
X239990000Y-88902500D03*
%TO.P,D7,2,A*%
%TO.N,Net-(D7-A)*%
X239990000Y-85602500D03*
%TD*%
%TO.P,D13,1,K*%
%TO.N,ROW2*%
X239990000Y-107952500D03*
%TO.P,D13,2,A*%
%TO.N,Net-(D13-A)*%
X239990000Y-104652500D03*
%TD*%
%TO.P,D11,1,K*%
%TO.N,ROW1*%
X163790000Y-84140000D03*
%TO.P,D11,2,A*%
%TO.N,Net-(D11-A)*%
X163790000Y-80840000D03*
%TD*%
%TO.P,D10,1,K*%
%TO.N,ROW1*%
X182840000Y-79377500D03*
%TO.P,D10,2,A*%
%TO.N,Net-(D10-A)*%
X182840000Y-76077500D03*
%TD*%
%TO.P,D19,1,K*%
%TO.N,ROW3*%
X239990000Y-127002500D03*
%TO.P,D19,2,A*%
%TO.N,Net-(D19-A)*%
X239990000Y-123702500D03*
%TD*%
%TO.P,D22,1,K*%
%TO.N,ROW3*%
X182840000Y-117477500D03*
%TO.P,D22,2,A*%
%TO.N,Net-(D22-A)*%
X182840000Y-114177500D03*
%TD*%
D18*
%TO.P,D26,1,K*%
%TO.N,ROW4*%
X142441265Y-154024397D03*
%TO.P,D26,2,A*%
%TO.N,Net-(D26-A)*%
X140791265Y-151166513D03*
%TD*%
D17*
%TO.P,D24,1,K*%
%TO.N,ROW3*%
X144740000Y-127002500D03*
%TO.P,D24,2,A*%
%TO.N,Net-(D24-A)*%
X144740000Y-123702500D03*
%TD*%
%TO.P,D17,1,K*%
%TO.N,ROW2*%
X163790000Y-103190000D03*
%TO.P,D17,2,A*%
%TO.N,Net-(D17-A)*%
X163790000Y-99890000D03*
%TD*%
%TO.P,D2,1,K*%
%TO.N,ROW0*%
X220940000Y-69852500D03*
%TO.P,D2,2,A*%
%TO.N,Net-(D2-A)*%
X220940000Y-66552500D03*
%TD*%
%TO.P,D15,1,K*%
%TO.N,ROW2*%
X201890000Y-103190000D03*
%TO.P,D15,2,A*%
%TO.N,Net-(D15-A)*%
X201890000Y-99890000D03*
%TD*%
%TO.P,D1,1,K*%
%TO.N,ROW0*%
X239990000Y-69852500D03*
%TO.P,D1,2,A*%
%TO.N,Net-(D1-A)*%
X239990000Y-66552500D03*
%TD*%
D19*
%TO.P,D25,1,K*%
%TO.N,ROW4*%
X162658477Y-146059134D03*
%TO.P,D25,2,A*%
%TO.N,Net-(D25-A)*%
X161804377Y-142871578D03*
%TD*%
D17*
%TO.P,D3,1,K*%
%TO.N,ROW0*%
X201890000Y-65090000D03*
%TO.P,D3,2,A*%
%TO.N,Net-(D3-A)*%
X201890000Y-61790000D03*
%TD*%
%TO.P,D14,1,K*%
%TO.N,ROW2*%
X220940000Y-107952500D03*
%TO.P,D14,2,A*%
%TO.N,Net-(D14-A)*%
X220940000Y-104652500D03*
%TD*%
D20*
%TO.N,TX*%
X116250000Y-82000000D03*
X117775000Y-82000000D03*
%TO.N,ROW1*%
X131500000Y-64000000D03*
X133206169Y-64580940D03*
X171275000Y-82000000D03*
X169500000Y-82500000D03*
%TO.N,ROW2*%
X131975000Y-73000000D03*
X169500000Y-101500000D03*
X171275000Y-101500000D03*
X133175000Y-73000000D03*
%TO.N,ROW3*%
X131500000Y-85000000D03*
X134000000Y-85500000D03*
X141500000Y-127000000D03*
X143000000Y-128500000D03*
%TO.N,ROW4*%
X132500000Y-136500000D03*
X133500000Y-138000000D03*
%TO.N,COL1*%
X129400000Y-75000000D03*
X227500000Y-69252500D03*
X228000000Y-107000000D03*
X228000000Y-109000000D03*
X170000000Y-67500000D03*
X209500000Y-74500000D03*
X227500000Y-70500000D03*
X228000000Y-88000000D03*
X151000000Y-72000000D03*
X208000000Y-74500000D03*
X171500000Y-67500000D03*
X228000000Y-89502500D03*
X190500000Y-70500000D03*
X189000000Y-70500000D03*
X136500000Y-74000000D03*
X152500000Y-72000000D03*
%TO.N,COL2*%
X170000000Y-85000000D03*
X209000000Y-70500000D03*
X171275000Y-85000000D03*
X209000000Y-89502500D03*
X190500000Y-90000000D03*
X188500000Y-90000000D03*
X209000000Y-69000000D03*
X137612190Y-75387810D03*
X152500000Y-85500000D03*
X129400000Y-76000000D03*
X209000000Y-108552500D03*
X209000000Y-107352500D03*
X151000000Y-85500000D03*
X209000000Y-88000000D03*
X161500000Y-85500000D03*
X163500000Y-85500000D03*
%TO.N,COL3*%
X172000000Y-95500000D03*
X129400000Y-91500000D03*
X189500000Y-64000000D03*
X169500000Y-93500000D03*
X184000000Y-120000000D03*
X190000000Y-102500000D03*
X189500000Y-65690000D03*
X152500000Y-90500000D03*
X189500000Y-85000000D03*
X185500000Y-119000000D03*
X189500000Y-83000000D03*
X190000000Y-104000000D03*
X151000000Y-91500000D03*
X138000000Y-91500000D03*
%TO.N,COL4*%
X170500000Y-66000000D03*
X129400000Y-92500000D03*
X130600000Y-93000000D03*
X138500000Y-107500000D03*
X150000000Y-127602500D03*
X133175000Y-106000000D03*
X170500000Y-64000000D03*
X150500000Y-126000000D03*
X131975000Y-93000000D03*
X137000000Y-107000000D03*
%TO.N,COL5*%
X129000000Y-131500000D03*
X151500000Y-89502500D03*
X151500000Y-107000000D03*
X151500000Y-88000000D03*
X151500000Y-109000000D03*
X124500000Y-141000000D03*
X151500000Y-70500000D03*
X151500000Y-68500000D03*
%TO.N,GND*%
X112500000Y-58250000D03*
X116250000Y-58250000D03*
%TD*%
%TO.N,TX*%
D21*
X116250000Y-82000000D02*
X117775000Y-82000000D01*
%TO.N,ROW0*%
X136626650Y-64516738D02*
X136626650Y-63537500D01*
X144740000Y-69852500D02*
X141962412Y-69852500D01*
X187602500Y-65090000D02*
X201890000Y-65090000D01*
X123331568Y-59787500D02*
X122497768Y-60621300D01*
X144740000Y-69852500D02*
X159027500Y-69852500D01*
X136626650Y-63537500D02*
X137725000Y-62439150D01*
X201890000Y-65090000D02*
X206652500Y-69852500D01*
X141962412Y-69852500D02*
X136626650Y-64516738D01*
X136626650Y-59787500D02*
X123331568Y-59787500D01*
X159027500Y-69852500D02*
X163790000Y-65090000D01*
X137725000Y-62439150D02*
X137725000Y-60885850D01*
X163790000Y-65090000D02*
X178077500Y-65090000D01*
X206652500Y-69852500D02*
X220940000Y-69852500D01*
X178077500Y-65090000D02*
X182840000Y-60327500D01*
X220940000Y-69852500D02*
X239990000Y-69852500D01*
X137725000Y-60885850D02*
X136626650Y-59787500D01*
X182840000Y-60327500D02*
X187602500Y-65090000D01*
%TO.N,ROW1*%
X159027500Y-88902500D02*
X163790000Y-84140000D01*
X131500000Y-64000000D02*
X130661300Y-63161300D01*
X144740000Y-88902500D02*
X159027500Y-88902500D01*
X180217500Y-82000000D02*
X171275000Y-82000000D01*
X169500000Y-82500000D02*
X167860000Y-84140000D01*
X144740000Y-88902500D02*
X142010000Y-86172500D01*
X220940000Y-88902500D02*
X239990000Y-88902500D01*
X182840000Y-79377500D02*
X187602500Y-84140000D01*
X206652500Y-88902500D02*
X220940000Y-88902500D01*
X167860000Y-84140000D02*
X163790000Y-84140000D01*
X142010000Y-86172500D02*
X142010000Y-80634150D01*
X130661300Y-63161300D02*
X122497768Y-63161300D01*
X182840000Y-79377500D02*
X180217500Y-82000000D01*
X201890000Y-84140000D02*
X206652500Y-88902500D01*
X133206169Y-71830319D02*
X133206169Y-64580940D01*
X142010000Y-80634150D02*
X133206169Y-71830319D01*
X187602500Y-84140000D02*
X201890000Y-84140000D01*
%TO.N,ROW2*%
X182840000Y-98427500D02*
X187602500Y-103190000D01*
X167310000Y-103190000D02*
X163790000Y-103190000D01*
X179767500Y-101500000D02*
X171275000Y-101500000D01*
X137310000Y-81904150D02*
X137725000Y-81489150D01*
X132000000Y-65500000D02*
X122699068Y-65500000D01*
X187602500Y-103190000D02*
X201890000Y-103190000D01*
X169500000Y-101500000D02*
X169000000Y-101500000D01*
X137310000Y-96604912D02*
X137310000Y-81904150D01*
X169000000Y-101500000D02*
X167310000Y-103190000D01*
X131975000Y-65525000D02*
X132000000Y-65500000D01*
X206652500Y-107952500D02*
X220940000Y-107952500D01*
X143515000Y-102809912D02*
X137310000Y-96604912D01*
X201890000Y-103190000D02*
X206652500Y-107952500D01*
X144740000Y-107952500D02*
X143515000Y-106727500D01*
X122699068Y-65500000D02*
X122497768Y-65701300D01*
X182840000Y-98427500D02*
X179767500Y-101500000D01*
X144740000Y-107952500D02*
X159027500Y-107952500D01*
X220940000Y-107952500D02*
X239990000Y-107952500D01*
X137725000Y-77550000D02*
X133175000Y-73000000D01*
X143515000Y-106727500D02*
X143515000Y-102809912D01*
X131975000Y-73000000D02*
X131975000Y-65525000D01*
X137725000Y-81489150D02*
X137725000Y-77550000D01*
X159027500Y-107952500D02*
X163790000Y-103190000D01*
%TO.N,ROW3*%
X159027500Y-127002500D02*
X163790000Y-122240000D01*
X136626650Y-101637500D02*
X137725000Y-100539150D01*
X178077500Y-122240000D02*
X182840000Y-117477500D01*
X131000000Y-84500000D02*
X131000000Y-68000000D01*
X144497500Y-127002500D02*
X143000000Y-128500000D01*
X137725000Y-103715088D02*
X136626650Y-102616738D01*
X141500000Y-127000000D02*
X136626650Y-122126650D01*
X134000000Y-95260850D02*
X134000000Y-85500000D01*
X206652500Y-127002500D02*
X220940000Y-127002500D01*
X144740000Y-127002500D02*
X144497500Y-127002500D01*
X163790000Y-122240000D02*
X178077500Y-122240000D01*
X137725000Y-98985850D02*
X134000000Y-95260850D01*
X122739068Y-68000000D02*
X122497768Y-68241300D01*
X182840000Y-117477500D02*
X187602500Y-122240000D01*
X220940000Y-127002500D02*
X239990000Y-127002500D01*
X131500000Y-85000000D02*
X131000000Y-84500000D01*
X131000000Y-68000000D02*
X122739068Y-68000000D01*
X137725000Y-119589150D02*
X137725000Y-103715088D01*
X136626650Y-120687500D02*
X137725000Y-119589150D01*
X136626650Y-102616738D02*
X136626650Y-101637500D01*
X137725000Y-100539150D02*
X137725000Y-98985850D01*
X201890000Y-122240000D02*
X206652500Y-127002500D01*
X136626650Y-122126650D02*
X136626650Y-120687500D01*
X144740000Y-127002500D02*
X159027500Y-127002500D01*
X187602500Y-122240000D02*
X201890000Y-122240000D01*
%TO.N,ROW4*%
X132500000Y-135570432D02*
X132500000Y-136500000D01*
X130000000Y-133070432D02*
X132500000Y-135570432D01*
X123649813Y-165620851D02*
X130844811Y-165620851D01*
X130844811Y-165620851D02*
X142441265Y-154024397D01*
X123649813Y-147850187D02*
X123649813Y-165620851D01*
X154693214Y-154024397D02*
X162658477Y-146059134D01*
X133500000Y-138000000D02*
X123649813Y-147850187D01*
X122497768Y-70781300D02*
X122716468Y-71000000D01*
X122716468Y-71000000D02*
X130000000Y-71000000D01*
X130000000Y-71000000D02*
X130000000Y-133070432D01*
X142441265Y-154024397D02*
X154693214Y-154024397D01*
%TO.N,COL1*%
X138500000Y-72000000D02*
X136500000Y-74000000D01*
X172227500Y-66772500D02*
X171500000Y-67500000D01*
X228000000Y-107000000D02*
X227825000Y-106825000D01*
X189000000Y-70500000D02*
X185272500Y-66772500D01*
X227825000Y-80712500D02*
X227825000Y-87825000D01*
X154247500Y-70252500D02*
X152500000Y-72000000D01*
X221612500Y-74500000D02*
X209500000Y-74500000D01*
X227500000Y-70500000D02*
X227825000Y-70825000D01*
X227825000Y-109175000D02*
X228000000Y-109000000D01*
X185272500Y-66772500D02*
X172227500Y-66772500D01*
X227825000Y-80712500D02*
X221612500Y-74500000D01*
X204000000Y-70500000D02*
X190500000Y-70500000D01*
X227825000Y-70825000D02*
X227825000Y-80712500D01*
X227825000Y-89677500D02*
X227825000Y-99762500D01*
X167247500Y-70252500D02*
X154247500Y-70252500D01*
X123359068Y-75000000D02*
X122497768Y-75861300D01*
X227825000Y-87825000D02*
X228000000Y-88000000D01*
X170000000Y-67500000D02*
X167247500Y-70252500D01*
X228000000Y-89502500D02*
X227825000Y-89677500D01*
X129400000Y-75000000D02*
X123359068Y-75000000D01*
X208000000Y-74500000D02*
X204000000Y-70500000D01*
X227825000Y-68927500D02*
X227500000Y-69252500D01*
X227825000Y-61662500D02*
X227825000Y-68927500D01*
X227825000Y-118812500D02*
X227825000Y-109175000D01*
X151000000Y-72000000D02*
X138500000Y-72000000D01*
X227825000Y-106825000D02*
X227825000Y-99762500D01*
%TO.N,COL2*%
X208775000Y-107127500D02*
X208775000Y-99762500D01*
X209000000Y-88000000D02*
X208775000Y-87775000D01*
X170000000Y-85000000D02*
X169500000Y-85500000D01*
X128488700Y-76911300D02*
X121007768Y-76911300D01*
X208775000Y-108777500D02*
X209000000Y-108552500D01*
X208775000Y-70725000D02*
X209000000Y-70500000D01*
X146387810Y-75387810D02*
X137612190Y-75387810D01*
X208775000Y-80712500D02*
X208775000Y-70725000D01*
X151000000Y-80000000D02*
X146387810Y-75387810D01*
X169500000Y-85500000D02*
X163500000Y-85500000D01*
X208775000Y-89727500D02*
X209000000Y-89502500D01*
X209000000Y-69000000D02*
X208775000Y-68775000D01*
X129400000Y-76000000D02*
X128488700Y-76911300D01*
X161500000Y-85500000D02*
X152500000Y-85500000D01*
X208775000Y-87775000D02*
X208775000Y-80712500D01*
X188500000Y-89785756D02*
X183714244Y-85000000D01*
X208775000Y-99762500D02*
X208775000Y-89727500D01*
X208775000Y-118812500D02*
X208775000Y-108777500D01*
X203001744Y-90000000D02*
X190500000Y-90000000D01*
X121007768Y-76911300D02*
X119957768Y-75861300D01*
X209000000Y-107352500D02*
X208775000Y-107127500D01*
X208775000Y-95773256D02*
X203001744Y-90000000D01*
X208775000Y-68775000D02*
X208775000Y-61662500D01*
X208775000Y-99762500D02*
X208775000Y-95773256D01*
X188500000Y-90000000D02*
X188500000Y-89785756D01*
X183714244Y-85000000D02*
X171275000Y-85000000D01*
X151000000Y-85500000D02*
X151000000Y-80000000D01*
%TO.N,COL3*%
X189500000Y-85000000D02*
X189725000Y-85225000D01*
X189725000Y-65915000D02*
X189500000Y-65690000D01*
X189725000Y-75950000D02*
X189725000Y-82775000D01*
X189725000Y-85225000D02*
X189725000Y-95000000D01*
X181360000Y-122640000D02*
X184000000Y-120000000D01*
X189725000Y-63275000D02*
X189725000Y-56900000D01*
X189725000Y-114775000D02*
X189725000Y-114050000D01*
X189725000Y-105275000D02*
X189725000Y-114050000D01*
X190000000Y-105000000D02*
X189725000Y-105275000D01*
X166150903Y-122640000D02*
X181360000Y-122640000D01*
X189500000Y-64000000D02*
X189500000Y-63500000D01*
X189725000Y-75950000D02*
X189725000Y-65915000D01*
X148788263Y-141296735D02*
X148788263Y-140002640D01*
X151000000Y-91500000D02*
X138000000Y-91500000D01*
X129400000Y-87843532D02*
X117417768Y-75861300D01*
X169500000Y-93500000D02*
X166500000Y-90500000D01*
X188847500Y-95877500D02*
X172377500Y-95877500D01*
X189500000Y-63500000D02*
X189725000Y-63275000D01*
X190000000Y-104000000D02*
X190000000Y-105000000D01*
X148788263Y-140002640D02*
X166150903Y-122640000D01*
X189725000Y-95000000D02*
X188847500Y-95877500D01*
X172377500Y-95877500D02*
X172000000Y-95500000D01*
X189725000Y-82775000D02*
X189500000Y-83000000D01*
X185500000Y-119000000D02*
X189725000Y-114775000D01*
X189725000Y-102225000D02*
X190000000Y-102500000D01*
X166500000Y-90500000D02*
X152500000Y-90500000D01*
X129400000Y-91500000D02*
X129400000Y-87843532D01*
X189725000Y-95000000D02*
X189725000Y-102225000D01*
%TO.N,COL4*%
X170500000Y-64000000D02*
X170675000Y-63825000D01*
X159375000Y-112286650D02*
X159375000Y-110733350D01*
X159375000Y-110733350D02*
X160820850Y-109287500D01*
X170675000Y-66175000D02*
X170500000Y-66000000D01*
X160820850Y-109287500D02*
X170675000Y-109287500D01*
X150500000Y-126000000D02*
X152623402Y-126000000D01*
X170675000Y-109287500D02*
X170675000Y-90237500D01*
X170675000Y-90237500D02*
X170675000Y-71187500D01*
X145641196Y-108400000D02*
X145338696Y-108702500D01*
X139702500Y-108702500D02*
X138500000Y-107500000D01*
X129400000Y-92500000D02*
X114877768Y-77977768D01*
X169787500Y-108400000D02*
X145641196Y-108400000D01*
X127811066Y-153014149D02*
X127811066Y-149791434D01*
X161060000Y-117563402D02*
X161060000Y-113971650D01*
X137000000Y-107000000D02*
X134175000Y-107000000D01*
X170675000Y-71187500D02*
X170675000Y-66175000D01*
X152623402Y-126000000D02*
X161060000Y-117563402D01*
X134175000Y-107000000D02*
X133175000Y-106000000D01*
X161060000Y-113971650D02*
X159375000Y-112286650D01*
X145338696Y-108702500D02*
X139702500Y-108702500D01*
X170675000Y-63825000D02*
X170675000Y-52137500D01*
X170675000Y-109287500D02*
X169787500Y-108400000D01*
X127811066Y-149791434D02*
X150000000Y-127602500D01*
X131975000Y-93000000D02*
X130600000Y-93000000D01*
X114877768Y-77977768D02*
X114877768Y-75861300D01*
%TO.N,COL5*%
X151625000Y-70625000D02*
X151500000Y-70500000D01*
X151500000Y-68500000D02*
X151625000Y-68375000D01*
X109066452Y-156433548D02*
X109066452Y-167166458D01*
X151500000Y-89502500D02*
X151500000Y-90500000D01*
X109066452Y-167166458D02*
X109066452Y-161327352D01*
X129000000Y-131500000D02*
X129000000Y-96000000D01*
X112337768Y-83837768D02*
X112337768Y-75861300D01*
X151625000Y-68375000D02*
X151625000Y-56900000D01*
X151500000Y-109000000D02*
X151500000Y-110000000D01*
X115250000Y-86750000D02*
X112337768Y-83837768D01*
X118500000Y-85500000D02*
X117250000Y-86750000D01*
X151625000Y-118768804D02*
X151625000Y-114050000D01*
X151500000Y-110000000D02*
X151625000Y-110125000D01*
X129000000Y-96000000D02*
X118500000Y-85500000D01*
X151625000Y-110125000D02*
X151625000Y-114050000D01*
X151625000Y-90625000D02*
X151625000Y-95000000D01*
X151625000Y-95000000D02*
X151500000Y-95125000D01*
X109066452Y-161327352D02*
X151625000Y-118768804D01*
X151500000Y-95125000D02*
X151500000Y-107000000D01*
X124500000Y-141000000D02*
X109066452Y-156433548D01*
X151625000Y-75950000D02*
X151625000Y-87875000D01*
X151500000Y-90500000D02*
X151625000Y-90625000D01*
X117250000Y-86750000D02*
X115250000Y-86750000D01*
X151625000Y-87875000D02*
X151500000Y-88000000D01*
X151625000Y-75950000D02*
X151625000Y-70625000D01*
%TO.N,COL6*%
X132575000Y-61662500D02*
X132126200Y-62111300D01*
X132575000Y-118812500D02*
X132575000Y-99762500D01*
X132575000Y-99762500D02*
X132575000Y-80712500D01*
X122062844Y-62111300D02*
X120000000Y-64174144D01*
X120000000Y-64174144D02*
X120000000Y-74000000D01*
X111659068Y-74000000D02*
X109797768Y-75861300D01*
X120000000Y-74000000D02*
X111659068Y-74000000D01*
X132126200Y-62111300D02*
X122062844Y-62111300D01*
X132575000Y-80712500D02*
X132575000Y-61662500D01*
%TO.N,GND*%
X116250000Y-58250000D02*
X112500000Y-58250000D01*
%TO.N,Net-(D21-A)*%
X202652000Y-111510000D02*
X203115000Y-111973000D01*
X203115000Y-111973000D02*
X203115000Y-117715000D01*
X203115000Y-117715000D02*
X201890000Y-118940000D01*
%TO.N,Net-(D9-A)*%
X202652000Y-73410000D02*
X203115000Y-73873000D01*
X203115000Y-79615000D02*
X201890000Y-80840000D01*
X203115000Y-73873000D02*
X203115000Y-79615000D01*
%TO.N,Net-(D2-A)*%
X222165000Y-59585500D02*
X222165000Y-65327500D01*
X222165000Y-65327500D02*
X220940000Y-66552500D01*
X221702000Y-59122500D02*
X222165000Y-59585500D01*
%TO.N,Net-(D10-A)*%
X184065000Y-74852500D02*
X182840000Y-76077500D01*
X183602000Y-68647500D02*
X184065000Y-69110500D01*
X184065000Y-69110500D02*
X184065000Y-74852500D01*
%TO.N,Net-(D7-A)*%
X240752000Y-78172500D02*
X241215000Y-78635500D01*
X241215000Y-84377500D02*
X239990000Y-85602500D01*
X241215000Y-78635500D02*
X241215000Y-84377500D01*
%TO.N,Net-(D25-A)*%
X160617386Y-135497530D02*
X159971151Y-136143765D01*
X159971151Y-141109065D02*
X161733664Y-142871578D01*
X161733664Y-142871578D02*
X161804377Y-142871578D01*
X159971151Y-136143765D02*
X159971151Y-141109065D01*
%TO.N,Net-(D15-A)*%
X203115000Y-92923000D02*
X203115000Y-98665000D01*
X203115000Y-98665000D02*
X201890000Y-99890000D01*
X202652000Y-92460000D02*
X203115000Y-92923000D01*
%TO.N,Net-(D22-A)*%
X183602000Y-106747500D02*
X184065000Y-107210500D01*
X184065000Y-107210500D02*
X184065000Y-112952500D01*
X184065000Y-112952500D02*
X182840000Y-114177500D01*
%TO.N,Net-(D20-A)*%
X222165000Y-116735500D02*
X222165000Y-122477500D01*
X221702000Y-116272500D02*
X222165000Y-116735500D01*
X222165000Y-122477500D02*
X220940000Y-123702500D01*
%TO.N,Net-(D3-A)*%
X202652000Y-54360000D02*
X203115000Y-54823000D01*
X203115000Y-60565000D02*
X201890000Y-61790000D01*
X203115000Y-54823000D02*
X203115000Y-60565000D01*
%TO.N,Net-(D27-A)*%
X117336428Y-156911390D02*
X117336428Y-160343477D01*
X120085856Y-163092905D02*
X121528613Y-163092905D01*
X117336428Y-160343477D02*
X120085856Y-163092905D01*
%TO.N,Net-(D12-A)*%
X145965000Y-78635500D02*
X145965000Y-84377500D01*
X145502000Y-78172500D02*
X145965000Y-78635500D01*
X145965000Y-84377500D02*
X144740000Y-85602500D01*
%TO.N,Net-(D16-A)*%
X184065000Y-93902500D02*
X182840000Y-95127500D01*
X183602000Y-87697500D02*
X184065000Y-88160500D01*
X184065000Y-88160500D02*
X184065000Y-93902500D01*
%TO.N,Net-(D24-A)*%
X145502000Y-116272500D02*
X145965000Y-116735500D01*
X145965000Y-122477500D02*
X144740000Y-123702500D01*
X145965000Y-116735500D02*
X145965000Y-122477500D01*
%TO.N,Net-(D8-A)*%
X221702000Y-78172500D02*
X222165000Y-78635500D01*
X222165000Y-84377500D02*
X220940000Y-85602500D01*
X222165000Y-78635500D02*
X222165000Y-84377500D01*
%TO.N,Net-(D18-A)*%
X145965000Y-103427500D02*
X144740000Y-104652500D01*
X145502000Y-97222500D02*
X145965000Y-97685500D01*
X145965000Y-97685500D02*
X145965000Y-103427500D01*
%TO.N,Net-(D5-A)*%
X164552000Y-54360000D02*
X165015000Y-54823000D01*
X165015000Y-54823000D02*
X165015000Y-60565000D01*
X165015000Y-60565000D02*
X163790000Y-61790000D01*
%TO.N,Net-(D17-A)*%
X164552000Y-92460000D02*
X165015000Y-92923000D01*
X165015000Y-92923000D02*
X165015000Y-98665000D01*
X165015000Y-98665000D02*
X163790000Y-99890000D01*
%TO.N,Net-(D13-A)*%
X240752000Y-97222500D02*
X241215000Y-97685500D01*
X241215000Y-97685500D02*
X241215000Y-103427500D01*
X241215000Y-103427500D02*
X239990000Y-104652500D01*
%TO.N,Net-(D4-A)*%
X184065000Y-50060500D02*
X184065000Y-55802500D01*
X183602000Y-49597500D02*
X184065000Y-50060500D01*
X184065000Y-55802500D02*
X182840000Y-57027500D01*
%TO.N,Net-(D19-A)*%
X241215000Y-122477500D02*
X239990000Y-123702500D01*
X240752000Y-116272500D02*
X241215000Y-116735500D01*
X241215000Y-116735500D02*
X241215000Y-122477500D01*
%TO.N,Net-(D26-A)*%
X137736176Y-144350945D02*
X141000000Y-147614769D01*
X141000000Y-150957778D02*
X140791265Y-151166513D01*
X141000000Y-147614769D02*
X141000000Y-150957778D01*
%TO.N,Net-(D11-A)*%
X165015000Y-73873000D02*
X165015000Y-79615000D01*
X164552000Y-73410000D02*
X165015000Y-73873000D01*
X165015000Y-79615000D02*
X163790000Y-80840000D01*
%TO.N,Net-(D14-A)*%
X221702000Y-97222500D02*
X222165000Y-97685500D01*
X222165000Y-103427500D02*
X220940000Y-104652500D01*
X222165000Y-97685500D02*
X222165000Y-103427500D01*
%TO.N,Net-(D23-A)*%
X165015000Y-117715000D02*
X163790000Y-118940000D01*
X164552000Y-111510000D02*
X165015000Y-111973000D01*
X165015000Y-111973000D02*
X165015000Y-117715000D01*
%TO.N,Net-(D1-A)*%
X240752000Y-59122500D02*
X241215000Y-59585500D01*
X241215000Y-65327500D02*
X239990000Y-66552500D01*
X241215000Y-59585500D02*
X241215000Y-65327500D01*
%TO.N,Net-(D6-A)*%
X145965000Y-65327500D02*
X144740000Y-66552500D01*
X145965000Y-59585500D02*
X145965000Y-65327500D01*
X145502000Y-59122500D02*
X145965000Y-59585500D01*
%TD*%
M02*
