%TF.GenerationSoftware,KiCad,Pcbnew,10.0.1*%
%TF.CreationDate,2026-06-06T18:00:52+12:00*%
%TF.ProjectId,keyboard,6b657962-6f61-4726-942e-6b696361645f,rev?*%
%TF.SameCoordinates,Original*%
%TF.FileFunction,Soldermask,Top*%
%TF.FilePolarity,Negative*%
%FSLAX46Y46*%
G04 Gerber Fmt 4.6, Leading zero omitted, Abs format (unit mm)*
G04 Created by KiCad (PCBNEW 10.0.1) date 2026-06-06 18:00:52*
%MOMM*%
%LPD*%
G01*
G04 APERTURE LIST*
%ADD10O,2.500000X1.500000*%
%ADD11O,1.500000X2.500000*%
%ADD12C,1.750000*%
%ADD13C,3.050000*%
%ADD14C,4.000000*%
%ADD15C,1.500000*%
%ADD16R,1.200000X2.500000*%
%ADD17C,2.200000*%
G04 APERTURE END LIST*
D10*
%TO.C,U2*%
X122997768Y-55541300D03*
X122997768Y-58081300D03*
X122997768Y-60621300D03*
X122997768Y-63161300D03*
X122997768Y-65701300D03*
X122997768Y-68241300D03*
X122997768Y-70781300D03*
X122997768Y-73321300D03*
X122997768Y-75861300D03*
D11*
X119957768Y-76361300D03*
X117417768Y-76361300D03*
X114877768Y-76361300D03*
X112337768Y-76361300D03*
X109797768Y-76361300D03*
D10*
X106757768Y-75861300D03*
X106757768Y-73321300D03*
X106757768Y-70781300D03*
X106757768Y-68241300D03*
X106757768Y-65701300D03*
X106757768Y-63161300D03*
X106757768Y-60621300D03*
X106757768Y-58081300D03*
X106757768Y-55541300D03*
%TD*%
D12*
%TO.C,SW21*%
X191730000Y-116590000D03*
D13*
X193000000Y-114050000D03*
D14*
X196810000Y-116590000D03*
D13*
X199350000Y-111510000D03*
D12*
X201890000Y-116590000D03*
%TD*%
%TO.C,SW9*%
X191730000Y-78490000D03*
D13*
X193000000Y-75950000D03*
D14*
X196810000Y-78490000D03*
D13*
X199350000Y-73410000D03*
D12*
X201890000Y-78490000D03*
%TD*%
%TO.C,SW2*%
X210780000Y-64202500D03*
D13*
X212050000Y-61662500D03*
D14*
X215860000Y-64202500D03*
D13*
X218400000Y-59122500D03*
D12*
X220940000Y-64202500D03*
%TD*%
D15*
%TO.C,J2*%
X107475000Y-98000000D03*
X114475000Y-98000000D03*
D16*
X112075000Y-94750000D03*
X109075000Y-94750000D03*
X117175000Y-101250000D03*
X116075000Y-94750000D03*
%TD*%
D12*
%TO.C,SW10*%
X172680000Y-73727500D03*
D13*
X173950000Y-71187500D03*
D14*
X177760000Y-73727500D03*
D13*
X180300000Y-68647500D03*
D12*
X182840000Y-73727500D03*
%TD*%
%TO.C,SW7*%
X229830000Y-83252500D03*
D13*
X231100000Y-80712500D03*
D14*
X234910000Y-83252500D03*
D13*
X237450000Y-78172500D03*
D12*
X239990000Y-83252500D03*
%TD*%
%TO.C,SW25*%
X151382345Y-143231255D03*
D13*
X151951670Y-140449103D03*
D14*
X156289248Y-141916454D03*
D13*
X157427899Y-136352150D03*
D12*
X161196151Y-140601653D03*
%TD*%
%TO.C,SW15*%
X191730000Y-97540000D03*
D13*
X193000000Y-95000000D03*
D14*
X196810000Y-97540000D03*
D13*
X199350000Y-92460000D03*
D12*
X201890000Y-97540000D03*
%TD*%
%TO.C,SW22*%
X172680000Y-111827500D03*
D13*
X173950000Y-109287500D03*
D14*
X177760000Y-111827500D03*
D13*
X180300000Y-106747500D03*
D12*
X182840000Y-111827500D03*
%TD*%
%TO.C,SW20*%
X210780000Y-121352500D03*
D13*
X212050000Y-118812500D03*
D14*
X215860000Y-121352500D03*
D13*
X218400000Y-116272500D03*
D12*
X220940000Y-121352500D03*
%TD*%
%TO.C,SW3*%
X191730000Y-59440000D03*
D13*
X193000000Y-56900000D03*
D14*
X196810000Y-59440000D03*
D13*
X199350000Y-54360000D03*
D12*
X201890000Y-59440000D03*
%TD*%
%TO.C,SW27*%
X112235051Y-167823422D03*
D13*
X111575247Y-165061329D03*
D14*
X116126557Y-164558061D03*
D13*
X114806949Y-159033875D03*
D12*
X120018063Y-161292700D03*
%TD*%
%TO.C,SW12*%
X134580000Y-83252500D03*
D13*
X135850000Y-80712500D03*
D14*
X139660000Y-83252500D03*
D13*
X142200000Y-78172500D03*
D12*
X144740000Y-83252500D03*
%TD*%
%TO.C,SW16*%
X172680000Y-92777500D03*
D13*
X173950000Y-90237500D03*
D14*
X177760000Y-92777500D03*
D13*
X180300000Y-87697500D03*
D12*
X182840000Y-92777500D03*
%TD*%
%TO.C,SW24*%
X134580000Y-121352500D03*
D13*
X135850000Y-118812500D03*
D14*
X139660000Y-121352500D03*
D13*
X142200000Y-116272500D03*
D12*
X144740000Y-121352500D03*
%TD*%
%TO.C,SW8*%
X210780000Y-83252500D03*
D13*
X212050000Y-80712500D03*
D14*
X215860000Y-83252500D03*
D13*
X218400000Y-78172500D03*
D12*
X220940000Y-83252500D03*
%TD*%
%TO.C,SW18*%
X134580000Y-102302500D03*
D13*
X135850000Y-99762500D03*
D14*
X139660000Y-102302500D03*
D13*
X142200000Y-97222500D03*
D12*
X144740000Y-102302500D03*
%TD*%
%TO.C,SW5*%
X153630000Y-59440000D03*
D13*
X154900000Y-56900000D03*
D14*
X158710000Y-59440000D03*
D13*
X161250000Y-54360000D03*
D12*
X163790000Y-59440000D03*
%TD*%
%TO.C,SW17*%
X153630000Y-97540000D03*
D13*
X154900000Y-95000000D03*
D14*
X158710000Y-97540000D03*
D13*
X161250000Y-92460000D03*
D12*
X163790000Y-97540000D03*
%TD*%
%TO.C,SW13*%
X229830000Y-102302500D03*
D13*
X231100000Y-99762500D03*
D14*
X234910000Y-102302500D03*
D13*
X237450000Y-97222500D03*
D12*
X239990000Y-102302500D03*
%TD*%
%TO.C,SW4*%
X172680000Y-54677500D03*
D13*
X173950000Y-52137500D03*
D14*
X177760000Y-54677500D03*
D13*
X180300000Y-49597500D03*
D12*
X182840000Y-54677500D03*
%TD*%
%TO.C,SW19*%
X229830000Y-121352500D03*
D13*
X231100000Y-118812500D03*
D14*
X234910000Y-121352500D03*
D13*
X237450000Y-116272500D03*
D12*
X239990000Y-121352500D03*
%TD*%
%TO.C,SW26*%
X130817447Y-154211354D03*
D13*
X130647299Y-151376649D03*
D14*
X135216856Y-151671354D03*
D13*
X134876561Y-146001945D03*
D12*
X139616265Y-149131354D03*
%TD*%
%TO.C,SW11*%
X153630000Y-78490000D03*
D13*
X154900000Y-75950000D03*
D14*
X158710000Y-78490000D03*
D13*
X161250000Y-73410000D03*
D12*
X163790000Y-78490000D03*
%TD*%
%TO.C,SW14*%
X210780000Y-102302500D03*
D13*
X212050000Y-99762500D03*
D14*
X215860000Y-102302500D03*
D13*
X218400000Y-97222500D03*
D12*
X220940000Y-102302500D03*
%TD*%
%TO.C,SW23*%
X153630000Y-116590000D03*
D13*
X154900000Y-114050000D03*
D14*
X158710000Y-116590000D03*
D13*
X161250000Y-111510000D03*
D12*
X163790000Y-116590000D03*
%TD*%
%TO.C,SW1*%
X229830000Y-64202500D03*
D13*
X231100000Y-61662500D03*
D14*
X234910000Y-64202500D03*
D13*
X237450000Y-59122500D03*
D12*
X239990000Y-64202500D03*
%TD*%
%TO.C,SW6*%
X134580000Y-64202500D03*
D13*
X135850000Y-61662500D03*
D14*
X139660000Y-64202500D03*
D13*
X142200000Y-59122500D03*
D12*
X144740000Y-64202500D03*
%TD*%
D17*
%TO.C,REF\u002A\u002A*%
X130620307Y-167936600D03*
%TD*%
%TO.C,REF\u002A\u002A*%
X128203768Y-56684300D03*
%TD*%
%TO.C,REF\u002A\u002A*%
X244703768Y-55184300D03*
%TD*%
%TO.C,REF\u002A\u002A*%
X244203768Y-131434300D03*
%TD*%
M02*
