%TF.GenerationSoftware,KiCad,Pcbnew,10.0.1*%
%TF.CreationDate,2026-06-06T18:00:52+12:00*%
%TF.ProjectId,keyboard,6b657962-6f61-4726-942e-6b696361645f,rev?*%
%TF.SameCoordinates,Original*%
%TF.FileFunction,Legend,Bot*%
%TF.FilePolarity,Positive*%
%FSLAX46Y46*%
G04 Gerber Fmt 4.6, Leading zero omitted, Abs format (unit mm)*
G04 Created by KiCad (PCBNEW 10.0.1) date 2026-06-06 18:00:52*
%MOMM*%
%LPD*%
G01*
G04 APERTURE LIST*
%ADD10C,0.300000*%
%ADD11C,0.200000*%
%ADD12C,0.150000*%
%ADD13C,0.120000*%
G04 APERTURE END LIST*
D10*
X122114087Y-101445489D02*
X123114087Y-101445489D01*
X122828373Y-101445489D02*
X122971230Y-101374060D01*
X122971230Y-101374060D02*
X123042658Y-101302632D01*
X123042658Y-101302632D02*
X123114087Y-101159774D01*
X123114087Y-101159774D02*
X123114087Y-101016917D01*
X123114087Y-100731203D02*
X123114087Y-100159775D01*
X123614087Y-100516918D02*
X122328373Y-100516918D01*
X122328373Y-100516918D02*
X122185516Y-100445489D01*
X122185516Y-100445489D02*
X122114087Y-100302632D01*
X122114087Y-100302632D02*
X122114087Y-100159775D01*
X123114087Y-99802632D02*
X122114087Y-99445489D01*
X123114087Y-99088346D02*
X122114087Y-99445489D01*
X122114087Y-99445489D02*
X121756944Y-99588346D01*
X121756944Y-99588346D02*
X121685516Y-99659775D01*
X121685516Y-99659775D02*
X121614087Y-99802632D01*
X123114087Y-97874061D02*
X122114087Y-97874061D01*
X123114087Y-98516918D02*
X122328373Y-98516918D01*
X122328373Y-98516918D02*
X122185516Y-98445489D01*
X122185516Y-98445489D02*
X122114087Y-98302632D01*
X122114087Y-98302632D02*
X122114087Y-98088346D01*
X122114087Y-98088346D02*
X122185516Y-97945489D01*
X122185516Y-97945489D02*
X122256944Y-97874061D01*
X122114087Y-96016918D02*
X123114087Y-96016918D01*
X122971230Y-96016918D02*
X123042658Y-95945489D01*
X123042658Y-95945489D02*
X123114087Y-95802632D01*
X123114087Y-95802632D02*
X123114087Y-95588346D01*
X123114087Y-95588346D02*
X123042658Y-95445489D01*
X123042658Y-95445489D02*
X122899801Y-95374061D01*
X122899801Y-95374061D02*
X122114087Y-95374061D01*
X122899801Y-95374061D02*
X123042658Y-95302632D01*
X123042658Y-95302632D02*
X123114087Y-95159775D01*
X123114087Y-95159775D02*
X123114087Y-94945489D01*
X123114087Y-94945489D02*
X123042658Y-94802632D01*
X123042658Y-94802632D02*
X122899801Y-94731203D01*
X122899801Y-94731203D02*
X122114087Y-94731203D01*
X122114087Y-94159775D02*
X123114087Y-93374061D01*
X123114087Y-94159775D02*
X122114087Y-93374061D01*
X119699171Y-101445489D02*
X120699171Y-101445489D01*
X120413457Y-101445489D02*
X120556314Y-101374060D01*
X120556314Y-101374060D02*
X120627742Y-101302632D01*
X120627742Y-101302632D02*
X120699171Y-101159774D01*
X120699171Y-101159774D02*
X120699171Y-101016917D01*
X119699171Y-100516918D02*
X120699171Y-100516918D01*
X121199171Y-100516918D02*
X121127742Y-100588346D01*
X121127742Y-100588346D02*
X121056314Y-100516918D01*
X121056314Y-100516918D02*
X121127742Y-100445489D01*
X121127742Y-100445489D02*
X121199171Y-100516918D01*
X121199171Y-100516918D02*
X121056314Y-100516918D01*
X120699171Y-99159775D02*
X119484885Y-99159775D01*
X119484885Y-99159775D02*
X119342028Y-99231203D01*
X119342028Y-99231203D02*
X119270600Y-99302632D01*
X119270600Y-99302632D02*
X119199171Y-99445489D01*
X119199171Y-99445489D02*
X119199171Y-99659775D01*
X119199171Y-99659775D02*
X119270600Y-99802632D01*
X119770600Y-99159775D02*
X119699171Y-99302632D01*
X119699171Y-99302632D02*
X119699171Y-99588346D01*
X119699171Y-99588346D02*
X119770600Y-99731203D01*
X119770600Y-99731203D02*
X119842028Y-99802632D01*
X119842028Y-99802632D02*
X119984885Y-99874060D01*
X119984885Y-99874060D02*
X120413457Y-99874060D01*
X120413457Y-99874060D02*
X120556314Y-99802632D01*
X120556314Y-99802632D02*
X120627742Y-99731203D01*
X120627742Y-99731203D02*
X120699171Y-99588346D01*
X120699171Y-99588346D02*
X120699171Y-99302632D01*
X120699171Y-99302632D02*
X120627742Y-99159775D01*
X119699171Y-98445489D02*
X121199171Y-98445489D01*
X119699171Y-97802632D02*
X120484885Y-97802632D01*
X120484885Y-97802632D02*
X120627742Y-97874060D01*
X120627742Y-97874060D02*
X120699171Y-98016917D01*
X120699171Y-98016917D02*
X120699171Y-98231203D01*
X120699171Y-98231203D02*
X120627742Y-98374060D01*
X120627742Y-98374060D02*
X120556314Y-98445489D01*
X120699171Y-97302631D02*
X120699171Y-96731203D01*
X121199171Y-97088346D02*
X119913457Y-97088346D01*
X119913457Y-97088346D02*
X119770600Y-97016917D01*
X119770600Y-97016917D02*
X119699171Y-96874060D01*
X119699171Y-96874060D02*
X119699171Y-96731203D01*
X119770600Y-95159774D02*
X119699171Y-95016917D01*
X119699171Y-95016917D02*
X119699171Y-94731203D01*
X119699171Y-94731203D02*
X119770600Y-94588346D01*
X119770600Y-94588346D02*
X119913457Y-94516917D01*
X119913457Y-94516917D02*
X119984885Y-94516917D01*
X119984885Y-94516917D02*
X120127742Y-94588346D01*
X120127742Y-94588346D02*
X120199171Y-94731203D01*
X120199171Y-94731203D02*
X120199171Y-94945489D01*
X120199171Y-94945489D02*
X120270600Y-95088346D01*
X120270600Y-95088346D02*
X120413457Y-95159774D01*
X120413457Y-95159774D02*
X120484885Y-95159774D01*
X120484885Y-95159774D02*
X120627742Y-95088346D01*
X120627742Y-95088346D02*
X120699171Y-94945489D01*
X120699171Y-94945489D02*
X120699171Y-94731203D01*
X120699171Y-94731203D02*
X120627742Y-94588346D01*
X119699171Y-93874060D02*
X120699171Y-93874060D01*
X121199171Y-93874060D02*
X121127742Y-93945488D01*
X121127742Y-93945488D02*
X121056314Y-93874060D01*
X121056314Y-93874060D02*
X121127742Y-93802631D01*
X121127742Y-93802631D02*
X121199171Y-93874060D01*
X121199171Y-93874060D02*
X121056314Y-93874060D01*
X119699171Y-92516917D02*
X121199171Y-92516917D01*
X119770600Y-92516917D02*
X119699171Y-92659774D01*
X119699171Y-92659774D02*
X119699171Y-92945488D01*
X119699171Y-92945488D02*
X119770600Y-93088345D01*
X119770600Y-93088345D02*
X119842028Y-93159774D01*
X119842028Y-93159774D02*
X119984885Y-93231202D01*
X119984885Y-93231202D02*
X120413457Y-93231202D01*
X120413457Y-93231202D02*
X120556314Y-93159774D01*
X120556314Y-93159774D02*
X120627742Y-93088345D01*
X120627742Y-93088345D02*
X120699171Y-92945488D01*
X120699171Y-92945488D02*
X120699171Y-92659774D01*
X120699171Y-92659774D02*
X120627742Y-92516917D01*
X119770600Y-91231202D02*
X119699171Y-91374059D01*
X119699171Y-91374059D02*
X119699171Y-91659774D01*
X119699171Y-91659774D02*
X119770600Y-91802631D01*
X119770600Y-91802631D02*
X119913457Y-91874059D01*
X119913457Y-91874059D02*
X120484885Y-91874059D01*
X120484885Y-91874059D02*
X120627742Y-91802631D01*
X120627742Y-91802631D02*
X120699171Y-91659774D01*
X120699171Y-91659774D02*
X120699171Y-91374059D01*
X120699171Y-91374059D02*
X120627742Y-91231202D01*
X120627742Y-91231202D02*
X120484885Y-91159774D01*
X120484885Y-91159774D02*
X120342028Y-91159774D01*
X120342028Y-91159774D02*
X120199171Y-91874059D01*
D11*
X105606517Y-78452219D02*
X106177945Y-78452219D01*
X105892231Y-78452219D02*
X105892231Y-77452219D01*
X105892231Y-77452219D02*
X105987469Y-77595076D01*
X105987469Y-77595076D02*
X106082707Y-77690314D01*
X106082707Y-77690314D02*
X106177945Y-77737933D01*
X104749374Y-77785552D02*
X104749374Y-78452219D01*
X104987469Y-77404600D02*
X105225564Y-78118885D01*
X105225564Y-78118885D02*
X104606517Y-78118885D01*
X110028244Y-79148519D02*
X110599672Y-79148519D01*
X110313958Y-79148519D02*
X110313958Y-78148519D01*
X110313958Y-78148519D02*
X110409196Y-78291376D01*
X110409196Y-78291376D02*
X110504434Y-78386614D01*
X110504434Y-78386614D02*
X110599672Y-78434233D01*
X109694910Y-78148519D02*
X109075863Y-78148519D01*
X109075863Y-78148519D02*
X109409196Y-78529471D01*
X109409196Y-78529471D02*
X109266339Y-78529471D01*
X109266339Y-78529471D02*
X109171101Y-78577090D01*
X109171101Y-78577090D02*
X109123482Y-78624709D01*
X109123482Y-78624709D02*
X109075863Y-78719947D01*
X109075863Y-78719947D02*
X109075863Y-78958042D01*
X109075863Y-78958042D02*
X109123482Y-79053280D01*
X109123482Y-79053280D02*
X109171101Y-79100900D01*
X109171101Y-79100900D02*
X109266339Y-79148519D01*
X109266339Y-79148519D02*
X109552053Y-79148519D01*
X109552053Y-79148519D02*
X109647291Y-79100900D01*
X109647291Y-79100900D02*
X109694910Y-79053280D01*
X109455904Y-54993519D02*
X109932094Y-54993519D01*
X109932094Y-54993519D02*
X109979713Y-55469709D01*
X109979713Y-55469709D02*
X109932094Y-55422090D01*
X109932094Y-55422090D02*
X109836856Y-55374471D01*
X109836856Y-55374471D02*
X109598761Y-55374471D01*
X109598761Y-55374471D02*
X109503523Y-55422090D01*
X109503523Y-55422090D02*
X109455904Y-55469709D01*
X109455904Y-55469709D02*
X109408285Y-55564947D01*
X109408285Y-55564947D02*
X109408285Y-55803042D01*
X109408285Y-55803042D02*
X109455904Y-55898280D01*
X109455904Y-55898280D02*
X109503523Y-55945900D01*
X109503523Y-55945900D02*
X109598761Y-55993519D01*
X109598761Y-55993519D02*
X109836856Y-55993519D01*
X109836856Y-55993519D02*
X109932094Y-55945900D01*
X109932094Y-55945900D02*
X109979713Y-55898280D01*
X109122570Y-54993519D02*
X108789237Y-55993519D01*
X108789237Y-55993519D02*
X108455904Y-54993519D01*
X110177945Y-65248757D02*
X110130326Y-65201138D01*
X110130326Y-65201138D02*
X110035088Y-65153519D01*
X110035088Y-65153519D02*
X109796993Y-65153519D01*
X109796993Y-65153519D02*
X109701755Y-65201138D01*
X109701755Y-65201138D02*
X109654136Y-65248757D01*
X109654136Y-65248757D02*
X109606517Y-65343995D01*
X109606517Y-65343995D02*
X109606517Y-65439233D01*
X109606517Y-65439233D02*
X109654136Y-65582090D01*
X109654136Y-65582090D02*
X110225564Y-66153519D01*
X110225564Y-66153519D02*
X109606517Y-66153519D01*
X109035088Y-65582090D02*
X109130326Y-65534471D01*
X109130326Y-65534471D02*
X109177945Y-65486852D01*
X109177945Y-65486852D02*
X109225564Y-65391614D01*
X109225564Y-65391614D02*
X109225564Y-65343995D01*
X109225564Y-65343995D02*
X109177945Y-65248757D01*
X109177945Y-65248757D02*
X109130326Y-65201138D01*
X109130326Y-65201138D02*
X109035088Y-65153519D01*
X109035088Y-65153519D02*
X108844612Y-65153519D01*
X108844612Y-65153519D02*
X108749374Y-65201138D01*
X108749374Y-65201138D02*
X108701755Y-65248757D01*
X108701755Y-65248757D02*
X108654136Y-65343995D01*
X108654136Y-65343995D02*
X108654136Y-65391614D01*
X108654136Y-65391614D02*
X108701755Y-65486852D01*
X108701755Y-65486852D02*
X108749374Y-65534471D01*
X108749374Y-65534471D02*
X108844612Y-65582090D01*
X108844612Y-65582090D02*
X109035088Y-65582090D01*
X109035088Y-65582090D02*
X109130326Y-65629709D01*
X109130326Y-65629709D02*
X109177945Y-65677328D01*
X109177945Y-65677328D02*
X109225564Y-65772566D01*
X109225564Y-65772566D02*
X109225564Y-65963042D01*
X109225564Y-65963042D02*
X109177945Y-66058280D01*
X109177945Y-66058280D02*
X109130326Y-66105900D01*
X109130326Y-66105900D02*
X109035088Y-66153519D01*
X109035088Y-66153519D02*
X108844612Y-66153519D01*
X108844612Y-66153519D02*
X108749374Y-66105900D01*
X108749374Y-66105900D02*
X108701755Y-66058280D01*
X108701755Y-66058280D02*
X108654136Y-65963042D01*
X108654136Y-65963042D02*
X108654136Y-65772566D01*
X108654136Y-65772566D02*
X108701755Y-65677328D01*
X108701755Y-65677328D02*
X108749374Y-65629709D01*
X108749374Y-65629709D02*
X108844612Y-65582090D01*
X110725564Y-60073519D02*
X110106517Y-60073519D01*
X110106517Y-60073519D02*
X110439850Y-60454471D01*
X110439850Y-60454471D02*
X110296993Y-60454471D01*
X110296993Y-60454471D02*
X110201755Y-60502090D01*
X110201755Y-60502090D02*
X110154136Y-60549709D01*
X110154136Y-60549709D02*
X110106517Y-60644947D01*
X110106517Y-60644947D02*
X110106517Y-60883042D01*
X110106517Y-60883042D02*
X110154136Y-60978280D01*
X110154136Y-60978280D02*
X110201755Y-61025900D01*
X110201755Y-61025900D02*
X110296993Y-61073519D01*
X110296993Y-61073519D02*
X110582707Y-61073519D01*
X110582707Y-61073519D02*
X110677945Y-61025900D01*
X110677945Y-61025900D02*
X110725564Y-60978280D01*
X109820802Y-60073519D02*
X109487469Y-61073519D01*
X109487469Y-61073519D02*
X109154136Y-60073519D01*
X108916040Y-60073519D02*
X108296993Y-60073519D01*
X108296993Y-60073519D02*
X108630326Y-60454471D01*
X108630326Y-60454471D02*
X108487469Y-60454471D01*
X108487469Y-60454471D02*
X108392231Y-60502090D01*
X108392231Y-60502090D02*
X108344612Y-60549709D01*
X108344612Y-60549709D02*
X108296993Y-60644947D01*
X108296993Y-60644947D02*
X108296993Y-60883042D01*
X108296993Y-60883042D02*
X108344612Y-60978280D01*
X108344612Y-60978280D02*
X108392231Y-61025900D01*
X108392231Y-61025900D02*
X108487469Y-61073519D01*
X108487469Y-61073519D02*
X108773183Y-61073519D01*
X108773183Y-61073519D02*
X108868421Y-61025900D01*
X108868421Y-61025900D02*
X108916040Y-60978280D01*
X110677945Y-62708757D02*
X110630326Y-62661138D01*
X110630326Y-62661138D02*
X110535088Y-62613519D01*
X110535088Y-62613519D02*
X110296993Y-62613519D01*
X110296993Y-62613519D02*
X110201755Y-62661138D01*
X110201755Y-62661138D02*
X110154136Y-62708757D01*
X110154136Y-62708757D02*
X110106517Y-62803995D01*
X110106517Y-62803995D02*
X110106517Y-62899233D01*
X110106517Y-62899233D02*
X110154136Y-63042090D01*
X110154136Y-63042090D02*
X110725564Y-63613519D01*
X110725564Y-63613519D02*
X110106517Y-63613519D01*
X109630326Y-63613519D02*
X109439850Y-63613519D01*
X109439850Y-63613519D02*
X109344612Y-63565900D01*
X109344612Y-63565900D02*
X109296993Y-63518280D01*
X109296993Y-63518280D02*
X109201755Y-63375423D01*
X109201755Y-63375423D02*
X109154136Y-63184947D01*
X109154136Y-63184947D02*
X109154136Y-62803995D01*
X109154136Y-62803995D02*
X109201755Y-62708757D01*
X109201755Y-62708757D02*
X109249374Y-62661138D01*
X109249374Y-62661138D02*
X109344612Y-62613519D01*
X109344612Y-62613519D02*
X109535088Y-62613519D01*
X109535088Y-62613519D02*
X109630326Y-62661138D01*
X109630326Y-62661138D02*
X109677945Y-62708757D01*
X109677945Y-62708757D02*
X109725564Y-62803995D01*
X109725564Y-62803995D02*
X109725564Y-63042090D01*
X109725564Y-63042090D02*
X109677945Y-63137328D01*
X109677945Y-63137328D02*
X109630326Y-63184947D01*
X109630326Y-63184947D02*
X109535088Y-63232566D01*
X109535088Y-63232566D02*
X109344612Y-63232566D01*
X109344612Y-63232566D02*
X109249374Y-63184947D01*
X109249374Y-63184947D02*
X109201755Y-63137328D01*
X109201755Y-63137328D02*
X109154136Y-63042090D01*
X110677945Y-67788757D02*
X110630326Y-67741138D01*
X110630326Y-67741138D02*
X110535088Y-67693519D01*
X110535088Y-67693519D02*
X110296993Y-67693519D01*
X110296993Y-67693519D02*
X110201755Y-67741138D01*
X110201755Y-67741138D02*
X110154136Y-67788757D01*
X110154136Y-67788757D02*
X110106517Y-67883995D01*
X110106517Y-67883995D02*
X110106517Y-67979233D01*
X110106517Y-67979233D02*
X110154136Y-68122090D01*
X110154136Y-68122090D02*
X110725564Y-68693519D01*
X110725564Y-68693519D02*
X110106517Y-68693519D01*
X109773183Y-67693519D02*
X109106517Y-67693519D01*
X109106517Y-67693519D02*
X109535088Y-68693519D01*
X110106517Y-73773519D02*
X110677945Y-73773519D01*
X110392231Y-73773519D02*
X110392231Y-72773519D01*
X110392231Y-72773519D02*
X110487469Y-72916376D01*
X110487469Y-72916376D02*
X110582707Y-73011614D01*
X110582707Y-73011614D02*
X110677945Y-73059233D01*
X109201755Y-72773519D02*
X109677945Y-72773519D01*
X109677945Y-72773519D02*
X109725564Y-73249709D01*
X109725564Y-73249709D02*
X109677945Y-73202090D01*
X109677945Y-73202090D02*
X109582707Y-73154471D01*
X109582707Y-73154471D02*
X109344612Y-73154471D01*
X109344612Y-73154471D02*
X109249374Y-73202090D01*
X109249374Y-73202090D02*
X109201755Y-73249709D01*
X109201755Y-73249709D02*
X109154136Y-73344947D01*
X109154136Y-73344947D02*
X109154136Y-73583042D01*
X109154136Y-73583042D02*
X109201755Y-73678280D01*
X109201755Y-73678280D02*
X109249374Y-73725900D01*
X109249374Y-73725900D02*
X109344612Y-73773519D01*
X109344612Y-73773519D02*
X109582707Y-73773519D01*
X109582707Y-73773519D02*
X109677945Y-73725900D01*
X109677945Y-73725900D02*
X109725564Y-73678280D01*
X110687043Y-70329749D02*
X110639424Y-70282130D01*
X110639424Y-70282130D02*
X110544186Y-70234511D01*
X110544186Y-70234511D02*
X110306091Y-70234511D01*
X110306091Y-70234511D02*
X110210853Y-70282130D01*
X110210853Y-70282130D02*
X110163234Y-70329749D01*
X110163234Y-70329749D02*
X110115615Y-70424987D01*
X110115615Y-70424987D02*
X110115615Y-70520225D01*
X110115615Y-70520225D02*
X110163234Y-70663082D01*
X110163234Y-70663082D02*
X110734662Y-71234511D01*
X110734662Y-71234511D02*
X110115615Y-71234511D01*
X109258472Y-70234511D02*
X109448948Y-70234511D01*
X109448948Y-70234511D02*
X109544186Y-70282130D01*
X109544186Y-70282130D02*
X109591805Y-70329749D01*
X109591805Y-70329749D02*
X109687043Y-70472606D01*
X109687043Y-70472606D02*
X109734662Y-70663082D01*
X109734662Y-70663082D02*
X109734662Y-71044034D01*
X109734662Y-71044034D02*
X109687043Y-71139272D01*
X109687043Y-71139272D02*
X109639424Y-71186892D01*
X109639424Y-71186892D02*
X109544186Y-71234511D01*
X109544186Y-71234511D02*
X109353710Y-71234511D01*
X109353710Y-71234511D02*
X109258472Y-71186892D01*
X109258472Y-71186892D02*
X109210853Y-71139272D01*
X109210853Y-71139272D02*
X109163234Y-71044034D01*
X109163234Y-71044034D02*
X109163234Y-70805939D01*
X109163234Y-70805939D02*
X109210853Y-70710701D01*
X109210853Y-70710701D02*
X109258472Y-70663082D01*
X109258472Y-70663082D02*
X109353710Y-70615463D01*
X109353710Y-70615463D02*
X109544186Y-70615463D01*
X109544186Y-70615463D02*
X109639424Y-70663082D01*
X109639424Y-70663082D02*
X109687043Y-70710701D01*
X109687043Y-70710701D02*
X109734662Y-70805939D01*
X110408285Y-57684138D02*
X110503523Y-57636519D01*
X110503523Y-57636519D02*
X110646380Y-57636519D01*
X110646380Y-57636519D02*
X110789237Y-57684138D01*
X110789237Y-57684138D02*
X110884475Y-57779376D01*
X110884475Y-57779376D02*
X110932094Y-57874614D01*
X110932094Y-57874614D02*
X110979713Y-58065090D01*
X110979713Y-58065090D02*
X110979713Y-58207947D01*
X110979713Y-58207947D02*
X110932094Y-58398423D01*
X110932094Y-58398423D02*
X110884475Y-58493661D01*
X110884475Y-58493661D02*
X110789237Y-58588900D01*
X110789237Y-58588900D02*
X110646380Y-58636519D01*
X110646380Y-58636519D02*
X110551142Y-58636519D01*
X110551142Y-58636519D02*
X110408285Y-58588900D01*
X110408285Y-58588900D02*
X110360666Y-58541280D01*
X110360666Y-58541280D02*
X110360666Y-58207947D01*
X110360666Y-58207947D02*
X110551142Y-58207947D01*
X109932094Y-58636519D02*
X109932094Y-57636519D01*
X109932094Y-57636519D02*
X109360666Y-58636519D01*
X109360666Y-58636519D02*
X109360666Y-57636519D01*
X108884475Y-58636519D02*
X108884475Y-57636519D01*
X108884475Y-57636519D02*
X108646380Y-57636519D01*
X108646380Y-57636519D02*
X108503523Y-57684138D01*
X108503523Y-57684138D02*
X108408285Y-57779376D01*
X108408285Y-57779376D02*
X108360666Y-57874614D01*
X108360666Y-57874614D02*
X108313047Y-58065090D01*
X108313047Y-58065090D02*
X108313047Y-58207947D01*
X108313047Y-58207947D02*
X108360666Y-58398423D01*
X108360666Y-58398423D02*
X108408285Y-58493661D01*
X108408285Y-58493661D02*
X108503523Y-58588900D01*
X108503523Y-58588900D02*
X108646380Y-58636519D01*
X108646380Y-58636519D02*
X108884475Y-58636519D01*
X112528244Y-79148519D02*
X113099672Y-79148519D01*
X112813958Y-79148519D02*
X112813958Y-78148519D01*
X112813958Y-78148519D02*
X112909196Y-78291376D01*
X112909196Y-78291376D02*
X113004434Y-78386614D01*
X113004434Y-78386614D02*
X113099672Y-78434233D01*
X112147291Y-78243757D02*
X112099672Y-78196138D01*
X112099672Y-78196138D02*
X112004434Y-78148519D01*
X112004434Y-78148519D02*
X111766339Y-78148519D01*
X111766339Y-78148519D02*
X111671101Y-78196138D01*
X111671101Y-78196138D02*
X111623482Y-78243757D01*
X111623482Y-78243757D02*
X111575863Y-78338995D01*
X111575863Y-78338995D02*
X111575863Y-78434233D01*
X111575863Y-78434233D02*
X111623482Y-78577090D01*
X111623482Y-78577090D02*
X112194910Y-79148519D01*
X112194910Y-79148519D02*
X111575863Y-79148519D01*
X115068244Y-79148519D02*
X115639672Y-79148519D01*
X115353958Y-79148519D02*
X115353958Y-78148519D01*
X115353958Y-78148519D02*
X115449196Y-78291376D01*
X115449196Y-78291376D02*
X115544434Y-78386614D01*
X115544434Y-78386614D02*
X115639672Y-78434233D01*
X114115863Y-79148519D02*
X114687291Y-79148519D01*
X114401577Y-79148519D02*
X114401577Y-78148519D01*
X114401577Y-78148519D02*
X114496815Y-78291376D01*
X114496815Y-78291376D02*
X114592053Y-78386614D01*
X114592053Y-78386614D02*
X114687291Y-78434233D01*
X117608244Y-79148519D02*
X118179672Y-79148519D01*
X117893958Y-79148519D02*
X117893958Y-78148519D01*
X117893958Y-78148519D02*
X117989196Y-78291376D01*
X117989196Y-78291376D02*
X118084434Y-78386614D01*
X118084434Y-78386614D02*
X118179672Y-78434233D01*
X116989196Y-78148519D02*
X116893958Y-78148519D01*
X116893958Y-78148519D02*
X116798720Y-78196138D01*
X116798720Y-78196138D02*
X116751101Y-78243757D01*
X116751101Y-78243757D02*
X116703482Y-78338995D01*
X116703482Y-78338995D02*
X116655863Y-78529471D01*
X116655863Y-78529471D02*
X116655863Y-78767566D01*
X116655863Y-78767566D02*
X116703482Y-78958042D01*
X116703482Y-78958042D02*
X116751101Y-79053280D01*
X116751101Y-79053280D02*
X116798720Y-79100900D01*
X116798720Y-79100900D02*
X116893958Y-79148519D01*
X116893958Y-79148519D02*
X116989196Y-79148519D01*
X116989196Y-79148519D02*
X117084434Y-79100900D01*
X117084434Y-79100900D02*
X117132053Y-79053280D01*
X117132053Y-79053280D02*
X117179672Y-78958042D01*
X117179672Y-78958042D02*
X117227291Y-78767566D01*
X117227291Y-78767566D02*
X117227291Y-78529471D01*
X117227291Y-78529471D02*
X117179672Y-78338995D01*
X117179672Y-78338995D02*
X117132053Y-78243757D01*
X117132053Y-78243757D02*
X117084434Y-78196138D01*
X117084434Y-78196138D02*
X116989196Y-78148519D01*
X120148243Y-79148519D02*
X119957767Y-79148519D01*
X119957767Y-79148519D02*
X119862529Y-79100900D01*
X119862529Y-79100900D02*
X119814910Y-79053280D01*
X119814910Y-79053280D02*
X119719672Y-78910423D01*
X119719672Y-78910423D02*
X119672053Y-78719947D01*
X119672053Y-78719947D02*
X119672053Y-78338995D01*
X119672053Y-78338995D02*
X119719672Y-78243757D01*
X119719672Y-78243757D02*
X119767291Y-78196138D01*
X119767291Y-78196138D02*
X119862529Y-78148519D01*
X119862529Y-78148519D02*
X120053005Y-78148519D01*
X120053005Y-78148519D02*
X120148243Y-78196138D01*
X120148243Y-78196138D02*
X120195862Y-78243757D01*
X120195862Y-78243757D02*
X120243481Y-78338995D01*
X120243481Y-78338995D02*
X120243481Y-78577090D01*
X120243481Y-78577090D02*
X120195862Y-78672328D01*
X120195862Y-78672328D02*
X120148243Y-78719947D01*
X120148243Y-78719947D02*
X120053005Y-78767566D01*
X120053005Y-78767566D02*
X119862529Y-78767566D01*
X119862529Y-78767566D02*
X119767291Y-78719947D01*
X119767291Y-78719947D02*
X119719672Y-78672328D01*
X119719672Y-78672328D02*
X119672053Y-78577090D01*
X125403155Y-54993519D02*
X125307917Y-54993519D01*
X125307917Y-54993519D02*
X125212679Y-55041138D01*
X125212679Y-55041138D02*
X125165060Y-55088757D01*
X125165060Y-55088757D02*
X125117441Y-55183995D01*
X125117441Y-55183995D02*
X125069822Y-55374471D01*
X125069822Y-55374471D02*
X125069822Y-55612566D01*
X125069822Y-55612566D02*
X125117441Y-55803042D01*
X125117441Y-55803042D02*
X125165060Y-55898280D01*
X125165060Y-55898280D02*
X125212679Y-55945900D01*
X125212679Y-55945900D02*
X125307917Y-55993519D01*
X125307917Y-55993519D02*
X125403155Y-55993519D01*
X125403155Y-55993519D02*
X125498393Y-55945900D01*
X125498393Y-55945900D02*
X125546012Y-55898280D01*
X125546012Y-55898280D02*
X125593631Y-55803042D01*
X125593631Y-55803042D02*
X125641250Y-55612566D01*
X125641250Y-55612566D02*
X125641250Y-55374471D01*
X125641250Y-55374471D02*
X125593631Y-55183995D01*
X125593631Y-55183995D02*
X125546012Y-55088757D01*
X125546012Y-55088757D02*
X125498393Y-55041138D01*
X125498393Y-55041138D02*
X125403155Y-54993519D01*
X125069822Y-58533519D02*
X125641250Y-58533519D01*
X125355536Y-58533519D02*
X125355536Y-57533519D01*
X125355536Y-57533519D02*
X125450774Y-57676376D01*
X125450774Y-57676376D02*
X125546012Y-57771614D01*
X125546012Y-57771614D02*
X125641250Y-57819233D01*
X125641250Y-60168757D02*
X125593631Y-60121138D01*
X125593631Y-60121138D02*
X125498393Y-60073519D01*
X125498393Y-60073519D02*
X125260298Y-60073519D01*
X125260298Y-60073519D02*
X125165060Y-60121138D01*
X125165060Y-60121138D02*
X125117441Y-60168757D01*
X125117441Y-60168757D02*
X125069822Y-60263995D01*
X125069822Y-60263995D02*
X125069822Y-60359233D01*
X125069822Y-60359233D02*
X125117441Y-60502090D01*
X125117441Y-60502090D02*
X125688869Y-61073519D01*
X125688869Y-61073519D02*
X125069822Y-61073519D01*
X125688869Y-62613519D02*
X125069822Y-62613519D01*
X125069822Y-62613519D02*
X125403155Y-62994471D01*
X125403155Y-62994471D02*
X125260298Y-62994471D01*
X125260298Y-62994471D02*
X125165060Y-63042090D01*
X125165060Y-63042090D02*
X125117441Y-63089709D01*
X125117441Y-63089709D02*
X125069822Y-63184947D01*
X125069822Y-63184947D02*
X125069822Y-63423042D01*
X125069822Y-63423042D02*
X125117441Y-63518280D01*
X125117441Y-63518280D02*
X125165060Y-63565900D01*
X125165060Y-63565900D02*
X125260298Y-63613519D01*
X125260298Y-63613519D02*
X125546012Y-63613519D01*
X125546012Y-63613519D02*
X125641250Y-63565900D01*
X125641250Y-63565900D02*
X125688869Y-63518280D01*
X125165060Y-65486852D02*
X125165060Y-66153519D01*
X125403155Y-65105900D02*
X125641250Y-65820185D01*
X125641250Y-65820185D02*
X125022203Y-65820185D01*
X125117441Y-67693519D02*
X125593631Y-67693519D01*
X125593631Y-67693519D02*
X125641250Y-68169709D01*
X125641250Y-68169709D02*
X125593631Y-68122090D01*
X125593631Y-68122090D02*
X125498393Y-68074471D01*
X125498393Y-68074471D02*
X125260298Y-68074471D01*
X125260298Y-68074471D02*
X125165060Y-68122090D01*
X125165060Y-68122090D02*
X125117441Y-68169709D01*
X125117441Y-68169709D02*
X125069822Y-68264947D01*
X125069822Y-68264947D02*
X125069822Y-68503042D01*
X125069822Y-68503042D02*
X125117441Y-68598280D01*
X125117441Y-68598280D02*
X125165060Y-68645900D01*
X125165060Y-68645900D02*
X125260298Y-68693519D01*
X125260298Y-68693519D02*
X125498393Y-68693519D01*
X125498393Y-68693519D02*
X125593631Y-68645900D01*
X125593631Y-68645900D02*
X125641250Y-68598280D01*
X125165060Y-70233519D02*
X125355536Y-70233519D01*
X125355536Y-70233519D02*
X125450774Y-70281138D01*
X125450774Y-70281138D02*
X125498393Y-70328757D01*
X125498393Y-70328757D02*
X125593631Y-70471614D01*
X125593631Y-70471614D02*
X125641250Y-70662090D01*
X125641250Y-70662090D02*
X125641250Y-71043042D01*
X125641250Y-71043042D02*
X125593631Y-71138280D01*
X125593631Y-71138280D02*
X125546012Y-71185900D01*
X125546012Y-71185900D02*
X125450774Y-71233519D01*
X125450774Y-71233519D02*
X125260298Y-71233519D01*
X125260298Y-71233519D02*
X125165060Y-71185900D01*
X125165060Y-71185900D02*
X125117441Y-71138280D01*
X125117441Y-71138280D02*
X125069822Y-71043042D01*
X125069822Y-71043042D02*
X125069822Y-70804947D01*
X125069822Y-70804947D02*
X125117441Y-70709709D01*
X125117441Y-70709709D02*
X125165060Y-70662090D01*
X125165060Y-70662090D02*
X125260298Y-70614471D01*
X125260298Y-70614471D02*
X125450774Y-70614471D01*
X125450774Y-70614471D02*
X125546012Y-70662090D01*
X125546012Y-70662090D02*
X125593631Y-70709709D01*
X125593631Y-70709709D02*
X125641250Y-70804947D01*
X125688869Y-72773519D02*
X125022203Y-72773519D01*
X125022203Y-72773519D02*
X125450774Y-73773519D01*
X125450774Y-75742090D02*
X125546012Y-75694471D01*
X125546012Y-75694471D02*
X125593631Y-75646852D01*
X125593631Y-75646852D02*
X125641250Y-75551614D01*
X125641250Y-75551614D02*
X125641250Y-75503995D01*
X125641250Y-75503995D02*
X125593631Y-75408757D01*
X125593631Y-75408757D02*
X125546012Y-75361138D01*
X125546012Y-75361138D02*
X125450774Y-75313519D01*
X125450774Y-75313519D02*
X125260298Y-75313519D01*
X125260298Y-75313519D02*
X125165060Y-75361138D01*
X125165060Y-75361138D02*
X125117441Y-75408757D01*
X125117441Y-75408757D02*
X125069822Y-75503995D01*
X125069822Y-75503995D02*
X125069822Y-75551614D01*
X125069822Y-75551614D02*
X125117441Y-75646852D01*
X125117441Y-75646852D02*
X125165060Y-75694471D01*
X125165060Y-75694471D02*
X125260298Y-75742090D01*
X125260298Y-75742090D02*
X125450774Y-75742090D01*
X125450774Y-75742090D02*
X125546012Y-75789709D01*
X125546012Y-75789709D02*
X125593631Y-75837328D01*
X125593631Y-75837328D02*
X125641250Y-75932566D01*
X125641250Y-75932566D02*
X125641250Y-76123042D01*
X125641250Y-76123042D02*
X125593631Y-76218280D01*
X125593631Y-76218280D02*
X125546012Y-76265900D01*
X125546012Y-76265900D02*
X125450774Y-76313519D01*
X125450774Y-76313519D02*
X125260298Y-76313519D01*
X125260298Y-76313519D02*
X125165060Y-76265900D01*
X125165060Y-76265900D02*
X125117441Y-76218280D01*
X125117441Y-76218280D02*
X125069822Y-76123042D01*
X125069822Y-76123042D02*
X125069822Y-75932566D01*
X125069822Y-75932566D02*
X125117441Y-75837328D01*
X125117441Y-75837328D02*
X125165060Y-75789709D01*
X125165060Y-75789709D02*
X125260298Y-75742090D01*
D12*
X124553418Y-164293851D02*
X125319462Y-163651064D01*
X125319462Y-163651064D02*
X125166418Y-163468672D01*
X125166418Y-163468672D02*
X125038112Y-163389846D01*
X125038112Y-163389846D02*
X124903938Y-163378108D01*
X124903938Y-163378108D02*
X124800372Y-163402847D01*
X124800372Y-163402847D02*
X124623850Y-163488805D01*
X124623850Y-163488805D02*
X124514415Y-163580631D01*
X124514415Y-163580631D02*
X124399111Y-163739545D01*
X124399111Y-163739545D02*
X124356763Y-163837242D01*
X124356763Y-163837242D02*
X124345025Y-163971416D01*
X124345025Y-163971416D02*
X124400373Y-164111460D01*
X124400373Y-164111460D02*
X124553418Y-164293851D01*
X124634327Y-162982716D02*
X124640196Y-162915628D01*
X124640196Y-162915628D02*
X124615457Y-162812063D01*
X124615457Y-162812063D02*
X124462412Y-162629671D01*
X124462412Y-162629671D02*
X124364716Y-162587324D01*
X124364716Y-162587324D02*
X124297629Y-162581454D01*
X124297629Y-162581454D02*
X124194063Y-162606194D01*
X124194063Y-162606194D02*
X124121106Y-162667412D01*
X124121106Y-162667412D02*
X124042280Y-162795717D01*
X124042280Y-162795717D02*
X123971848Y-163600764D01*
X123971848Y-163600764D02*
X123573932Y-163126546D01*
X124125714Y-162228410D02*
X123697189Y-161717714D01*
X123697189Y-161717714D02*
X123206625Y-162688806D01*
X185294819Y-95563214D02*
X184294819Y-95563214D01*
X184294819Y-95563214D02*
X184294819Y-95801309D01*
X184294819Y-95801309D02*
X184342438Y-95944166D01*
X184342438Y-95944166D02*
X184437676Y-96039404D01*
X184437676Y-96039404D02*
X184532914Y-96087023D01*
X184532914Y-96087023D02*
X184723390Y-96134642D01*
X184723390Y-96134642D02*
X184866247Y-96134642D01*
X184866247Y-96134642D02*
X185056723Y-96087023D01*
X185056723Y-96087023D02*
X185151961Y-96039404D01*
X185151961Y-96039404D02*
X185247200Y-95944166D01*
X185247200Y-95944166D02*
X185294819Y-95801309D01*
X185294819Y-95801309D02*
X185294819Y-95563214D01*
X185294819Y-97087023D02*
X185294819Y-96515595D01*
X185294819Y-96801309D02*
X184294819Y-96801309D01*
X184294819Y-96801309D02*
X184437676Y-96706071D01*
X184437676Y-96706071D02*
X184532914Y-96610833D01*
X184532914Y-96610833D02*
X184580533Y-96515595D01*
X184294819Y-97944166D02*
X184294819Y-97753690D01*
X184294819Y-97753690D02*
X184342438Y-97658452D01*
X184342438Y-97658452D02*
X184390057Y-97610833D01*
X184390057Y-97610833D02*
X184532914Y-97515595D01*
X184532914Y-97515595D02*
X184723390Y-97467976D01*
X184723390Y-97467976D02*
X185104342Y-97467976D01*
X185104342Y-97467976D02*
X185199580Y-97515595D01*
X185199580Y-97515595D02*
X185247200Y-97563214D01*
X185247200Y-97563214D02*
X185294819Y-97658452D01*
X185294819Y-97658452D02*
X185294819Y-97848928D01*
X185294819Y-97848928D02*
X185247200Y-97944166D01*
X185247200Y-97944166D02*
X185199580Y-97991785D01*
X185199580Y-97991785D02*
X185104342Y-98039404D01*
X185104342Y-98039404D02*
X184866247Y-98039404D01*
X184866247Y-98039404D02*
X184771009Y-97991785D01*
X184771009Y-97991785D02*
X184723390Y-97944166D01*
X184723390Y-97944166D02*
X184675771Y-97848928D01*
X184675771Y-97848928D02*
X184675771Y-97658452D01*
X184675771Y-97658452D02*
X184723390Y-97563214D01*
X184723390Y-97563214D02*
X184771009Y-97515595D01*
X184771009Y-97515595D02*
X184866247Y-97467976D01*
X223394819Y-86514405D02*
X222394819Y-86514405D01*
X222394819Y-86514405D02*
X222394819Y-86752500D01*
X222394819Y-86752500D02*
X222442438Y-86895357D01*
X222442438Y-86895357D02*
X222537676Y-86990595D01*
X222537676Y-86990595D02*
X222632914Y-87038214D01*
X222632914Y-87038214D02*
X222823390Y-87085833D01*
X222823390Y-87085833D02*
X222966247Y-87085833D01*
X222966247Y-87085833D02*
X223156723Y-87038214D01*
X223156723Y-87038214D02*
X223251961Y-86990595D01*
X223251961Y-86990595D02*
X223347200Y-86895357D01*
X223347200Y-86895357D02*
X223394819Y-86752500D01*
X223394819Y-86752500D02*
X223394819Y-86514405D01*
X222823390Y-87657262D02*
X222775771Y-87562024D01*
X222775771Y-87562024D02*
X222728152Y-87514405D01*
X222728152Y-87514405D02*
X222632914Y-87466786D01*
X222632914Y-87466786D02*
X222585295Y-87466786D01*
X222585295Y-87466786D02*
X222490057Y-87514405D01*
X222490057Y-87514405D02*
X222442438Y-87562024D01*
X222442438Y-87562024D02*
X222394819Y-87657262D01*
X222394819Y-87657262D02*
X222394819Y-87847738D01*
X222394819Y-87847738D02*
X222442438Y-87942976D01*
X222442438Y-87942976D02*
X222490057Y-87990595D01*
X222490057Y-87990595D02*
X222585295Y-88038214D01*
X222585295Y-88038214D02*
X222632914Y-88038214D01*
X222632914Y-88038214D02*
X222728152Y-87990595D01*
X222728152Y-87990595D02*
X222775771Y-87942976D01*
X222775771Y-87942976D02*
X222823390Y-87847738D01*
X222823390Y-87847738D02*
X222823390Y-87657262D01*
X222823390Y-87657262D02*
X222871009Y-87562024D01*
X222871009Y-87562024D02*
X222918628Y-87514405D01*
X222918628Y-87514405D02*
X223013866Y-87466786D01*
X223013866Y-87466786D02*
X223204342Y-87466786D01*
X223204342Y-87466786D02*
X223299580Y-87514405D01*
X223299580Y-87514405D02*
X223347200Y-87562024D01*
X223347200Y-87562024D02*
X223394819Y-87657262D01*
X223394819Y-87657262D02*
X223394819Y-87847738D01*
X223394819Y-87847738D02*
X223347200Y-87942976D01*
X223347200Y-87942976D02*
X223299580Y-87990595D01*
X223299580Y-87990595D02*
X223204342Y-88038214D01*
X223204342Y-88038214D02*
X223013866Y-88038214D01*
X223013866Y-88038214D02*
X222918628Y-87990595D01*
X222918628Y-87990595D02*
X222871009Y-87942976D01*
X222871009Y-87942976D02*
X222823390Y-87847738D01*
X185294819Y-57939405D02*
X184294819Y-57939405D01*
X184294819Y-57939405D02*
X184294819Y-58177500D01*
X184294819Y-58177500D02*
X184342438Y-58320357D01*
X184342438Y-58320357D02*
X184437676Y-58415595D01*
X184437676Y-58415595D02*
X184532914Y-58463214D01*
X184532914Y-58463214D02*
X184723390Y-58510833D01*
X184723390Y-58510833D02*
X184866247Y-58510833D01*
X184866247Y-58510833D02*
X185056723Y-58463214D01*
X185056723Y-58463214D02*
X185151961Y-58415595D01*
X185151961Y-58415595D02*
X185247200Y-58320357D01*
X185247200Y-58320357D02*
X185294819Y-58177500D01*
X185294819Y-58177500D02*
X185294819Y-57939405D01*
X184628152Y-59367976D02*
X185294819Y-59367976D01*
X184247200Y-59129881D02*
X184961485Y-58891786D01*
X184961485Y-58891786D02*
X184961485Y-59510833D01*
X166244819Y-119375714D02*
X165244819Y-119375714D01*
X165244819Y-119375714D02*
X165244819Y-119613809D01*
X165244819Y-119613809D02*
X165292438Y-119756666D01*
X165292438Y-119756666D02*
X165387676Y-119851904D01*
X165387676Y-119851904D02*
X165482914Y-119899523D01*
X165482914Y-119899523D02*
X165673390Y-119947142D01*
X165673390Y-119947142D02*
X165816247Y-119947142D01*
X165816247Y-119947142D02*
X166006723Y-119899523D01*
X166006723Y-119899523D02*
X166101961Y-119851904D01*
X166101961Y-119851904D02*
X166197200Y-119756666D01*
X166197200Y-119756666D02*
X166244819Y-119613809D01*
X166244819Y-119613809D02*
X166244819Y-119375714D01*
X165340057Y-120328095D02*
X165292438Y-120375714D01*
X165292438Y-120375714D02*
X165244819Y-120470952D01*
X165244819Y-120470952D02*
X165244819Y-120709047D01*
X165244819Y-120709047D02*
X165292438Y-120804285D01*
X165292438Y-120804285D02*
X165340057Y-120851904D01*
X165340057Y-120851904D02*
X165435295Y-120899523D01*
X165435295Y-120899523D02*
X165530533Y-120899523D01*
X165530533Y-120899523D02*
X165673390Y-120851904D01*
X165673390Y-120851904D02*
X166244819Y-120280476D01*
X166244819Y-120280476D02*
X166244819Y-120899523D01*
X165244819Y-121232857D02*
X165244819Y-121851904D01*
X165244819Y-121851904D02*
X165625771Y-121518571D01*
X165625771Y-121518571D02*
X165625771Y-121661428D01*
X165625771Y-121661428D02*
X165673390Y-121756666D01*
X165673390Y-121756666D02*
X165721009Y-121804285D01*
X165721009Y-121804285D02*
X165816247Y-121851904D01*
X165816247Y-121851904D02*
X166054342Y-121851904D01*
X166054342Y-121851904D02*
X166149580Y-121804285D01*
X166149580Y-121804285D02*
X166197200Y-121756666D01*
X166197200Y-121756666D02*
X166244819Y-121661428D01*
X166244819Y-121661428D02*
X166244819Y-121375714D01*
X166244819Y-121375714D02*
X166197200Y-121280476D01*
X166197200Y-121280476D02*
X166149580Y-121232857D01*
X166244819Y-62701905D02*
X165244819Y-62701905D01*
X165244819Y-62701905D02*
X165244819Y-62940000D01*
X165244819Y-62940000D02*
X165292438Y-63082857D01*
X165292438Y-63082857D02*
X165387676Y-63178095D01*
X165387676Y-63178095D02*
X165482914Y-63225714D01*
X165482914Y-63225714D02*
X165673390Y-63273333D01*
X165673390Y-63273333D02*
X165816247Y-63273333D01*
X165816247Y-63273333D02*
X166006723Y-63225714D01*
X166006723Y-63225714D02*
X166101961Y-63178095D01*
X166101961Y-63178095D02*
X166197200Y-63082857D01*
X166197200Y-63082857D02*
X166244819Y-62940000D01*
X166244819Y-62940000D02*
X166244819Y-62701905D01*
X165244819Y-64178095D02*
X165244819Y-63701905D01*
X165244819Y-63701905D02*
X165721009Y-63654286D01*
X165721009Y-63654286D02*
X165673390Y-63701905D01*
X165673390Y-63701905D02*
X165625771Y-63797143D01*
X165625771Y-63797143D02*
X165625771Y-64035238D01*
X165625771Y-64035238D02*
X165673390Y-64130476D01*
X165673390Y-64130476D02*
X165721009Y-64178095D01*
X165721009Y-64178095D02*
X165816247Y-64225714D01*
X165816247Y-64225714D02*
X166054342Y-64225714D01*
X166054342Y-64225714D02*
X166149580Y-64178095D01*
X166149580Y-64178095D02*
X166197200Y-64130476D01*
X166197200Y-64130476D02*
X166244819Y-64035238D01*
X166244819Y-64035238D02*
X166244819Y-63797143D01*
X166244819Y-63797143D02*
X166197200Y-63701905D01*
X166197200Y-63701905D02*
X166149580Y-63654286D01*
X147194819Y-105088214D02*
X146194819Y-105088214D01*
X146194819Y-105088214D02*
X146194819Y-105326309D01*
X146194819Y-105326309D02*
X146242438Y-105469166D01*
X146242438Y-105469166D02*
X146337676Y-105564404D01*
X146337676Y-105564404D02*
X146432914Y-105612023D01*
X146432914Y-105612023D02*
X146623390Y-105659642D01*
X146623390Y-105659642D02*
X146766247Y-105659642D01*
X146766247Y-105659642D02*
X146956723Y-105612023D01*
X146956723Y-105612023D02*
X147051961Y-105564404D01*
X147051961Y-105564404D02*
X147147200Y-105469166D01*
X147147200Y-105469166D02*
X147194819Y-105326309D01*
X147194819Y-105326309D02*
X147194819Y-105088214D01*
X147194819Y-106612023D02*
X147194819Y-106040595D01*
X147194819Y-106326309D02*
X146194819Y-106326309D01*
X146194819Y-106326309D02*
X146337676Y-106231071D01*
X146337676Y-106231071D02*
X146432914Y-106135833D01*
X146432914Y-106135833D02*
X146480533Y-106040595D01*
X146623390Y-107183452D02*
X146575771Y-107088214D01*
X146575771Y-107088214D02*
X146528152Y-107040595D01*
X146528152Y-107040595D02*
X146432914Y-106992976D01*
X146432914Y-106992976D02*
X146385295Y-106992976D01*
X146385295Y-106992976D02*
X146290057Y-107040595D01*
X146290057Y-107040595D02*
X146242438Y-107088214D01*
X146242438Y-107088214D02*
X146194819Y-107183452D01*
X146194819Y-107183452D02*
X146194819Y-107373928D01*
X146194819Y-107373928D02*
X146242438Y-107469166D01*
X146242438Y-107469166D02*
X146290057Y-107516785D01*
X146290057Y-107516785D02*
X146385295Y-107564404D01*
X146385295Y-107564404D02*
X146432914Y-107564404D01*
X146432914Y-107564404D02*
X146528152Y-107516785D01*
X146528152Y-107516785D02*
X146575771Y-107469166D01*
X146575771Y-107469166D02*
X146623390Y-107373928D01*
X146623390Y-107373928D02*
X146623390Y-107183452D01*
X146623390Y-107183452D02*
X146671009Y-107088214D01*
X146671009Y-107088214D02*
X146718628Y-107040595D01*
X146718628Y-107040595D02*
X146813866Y-106992976D01*
X146813866Y-106992976D02*
X147004342Y-106992976D01*
X147004342Y-106992976D02*
X147099580Y-107040595D01*
X147099580Y-107040595D02*
X147147200Y-107088214D01*
X147147200Y-107088214D02*
X147194819Y-107183452D01*
X147194819Y-107183452D02*
X147194819Y-107373928D01*
X147194819Y-107373928D02*
X147147200Y-107469166D01*
X147147200Y-107469166D02*
X147099580Y-107516785D01*
X147099580Y-107516785D02*
X147004342Y-107564404D01*
X147004342Y-107564404D02*
X146813866Y-107564404D01*
X146813866Y-107564404D02*
X146718628Y-107516785D01*
X146718628Y-107516785D02*
X146671009Y-107469166D01*
X146671009Y-107469166D02*
X146623390Y-107373928D01*
X204344819Y-119375714D02*
X203344819Y-119375714D01*
X203344819Y-119375714D02*
X203344819Y-119613809D01*
X203344819Y-119613809D02*
X203392438Y-119756666D01*
X203392438Y-119756666D02*
X203487676Y-119851904D01*
X203487676Y-119851904D02*
X203582914Y-119899523D01*
X203582914Y-119899523D02*
X203773390Y-119947142D01*
X203773390Y-119947142D02*
X203916247Y-119947142D01*
X203916247Y-119947142D02*
X204106723Y-119899523D01*
X204106723Y-119899523D02*
X204201961Y-119851904D01*
X204201961Y-119851904D02*
X204297200Y-119756666D01*
X204297200Y-119756666D02*
X204344819Y-119613809D01*
X204344819Y-119613809D02*
X204344819Y-119375714D01*
X203440057Y-120328095D02*
X203392438Y-120375714D01*
X203392438Y-120375714D02*
X203344819Y-120470952D01*
X203344819Y-120470952D02*
X203344819Y-120709047D01*
X203344819Y-120709047D02*
X203392438Y-120804285D01*
X203392438Y-120804285D02*
X203440057Y-120851904D01*
X203440057Y-120851904D02*
X203535295Y-120899523D01*
X203535295Y-120899523D02*
X203630533Y-120899523D01*
X203630533Y-120899523D02*
X203773390Y-120851904D01*
X203773390Y-120851904D02*
X204344819Y-120280476D01*
X204344819Y-120280476D02*
X204344819Y-120899523D01*
X204344819Y-121851904D02*
X204344819Y-121280476D01*
X204344819Y-121566190D02*
X203344819Y-121566190D01*
X203344819Y-121566190D02*
X203487676Y-121470952D01*
X203487676Y-121470952D02*
X203582914Y-121375714D01*
X203582914Y-121375714D02*
X203630533Y-121280476D01*
X204344819Y-81751905D02*
X203344819Y-81751905D01*
X203344819Y-81751905D02*
X203344819Y-81990000D01*
X203344819Y-81990000D02*
X203392438Y-82132857D01*
X203392438Y-82132857D02*
X203487676Y-82228095D01*
X203487676Y-82228095D02*
X203582914Y-82275714D01*
X203582914Y-82275714D02*
X203773390Y-82323333D01*
X203773390Y-82323333D02*
X203916247Y-82323333D01*
X203916247Y-82323333D02*
X204106723Y-82275714D01*
X204106723Y-82275714D02*
X204201961Y-82228095D01*
X204201961Y-82228095D02*
X204297200Y-82132857D01*
X204297200Y-82132857D02*
X204344819Y-81990000D01*
X204344819Y-81990000D02*
X204344819Y-81751905D01*
X204344819Y-82799524D02*
X204344819Y-82990000D01*
X204344819Y-82990000D02*
X204297200Y-83085238D01*
X204297200Y-83085238D02*
X204249580Y-83132857D01*
X204249580Y-83132857D02*
X204106723Y-83228095D01*
X204106723Y-83228095D02*
X203916247Y-83275714D01*
X203916247Y-83275714D02*
X203535295Y-83275714D01*
X203535295Y-83275714D02*
X203440057Y-83228095D01*
X203440057Y-83228095D02*
X203392438Y-83180476D01*
X203392438Y-83180476D02*
X203344819Y-83085238D01*
X203344819Y-83085238D02*
X203344819Y-82894762D01*
X203344819Y-82894762D02*
X203392438Y-82799524D01*
X203392438Y-82799524D02*
X203440057Y-82751905D01*
X203440057Y-82751905D02*
X203535295Y-82704286D01*
X203535295Y-82704286D02*
X203773390Y-82704286D01*
X203773390Y-82704286D02*
X203868628Y-82751905D01*
X203868628Y-82751905D02*
X203916247Y-82799524D01*
X203916247Y-82799524D02*
X203963866Y-82894762D01*
X203963866Y-82894762D02*
X203963866Y-83085238D01*
X203963866Y-83085238D02*
X203916247Y-83180476D01*
X203916247Y-83180476D02*
X203868628Y-83228095D01*
X203868628Y-83228095D02*
X203773390Y-83275714D01*
X223394819Y-124138214D02*
X222394819Y-124138214D01*
X222394819Y-124138214D02*
X222394819Y-124376309D01*
X222394819Y-124376309D02*
X222442438Y-124519166D01*
X222442438Y-124519166D02*
X222537676Y-124614404D01*
X222537676Y-124614404D02*
X222632914Y-124662023D01*
X222632914Y-124662023D02*
X222823390Y-124709642D01*
X222823390Y-124709642D02*
X222966247Y-124709642D01*
X222966247Y-124709642D02*
X223156723Y-124662023D01*
X223156723Y-124662023D02*
X223251961Y-124614404D01*
X223251961Y-124614404D02*
X223347200Y-124519166D01*
X223347200Y-124519166D02*
X223394819Y-124376309D01*
X223394819Y-124376309D02*
X223394819Y-124138214D01*
X222490057Y-125090595D02*
X222442438Y-125138214D01*
X222442438Y-125138214D02*
X222394819Y-125233452D01*
X222394819Y-125233452D02*
X222394819Y-125471547D01*
X222394819Y-125471547D02*
X222442438Y-125566785D01*
X222442438Y-125566785D02*
X222490057Y-125614404D01*
X222490057Y-125614404D02*
X222585295Y-125662023D01*
X222585295Y-125662023D02*
X222680533Y-125662023D01*
X222680533Y-125662023D02*
X222823390Y-125614404D01*
X222823390Y-125614404D02*
X223394819Y-125042976D01*
X223394819Y-125042976D02*
X223394819Y-125662023D01*
X222394819Y-126281071D02*
X222394819Y-126376309D01*
X222394819Y-126376309D02*
X222442438Y-126471547D01*
X222442438Y-126471547D02*
X222490057Y-126519166D01*
X222490057Y-126519166D02*
X222585295Y-126566785D01*
X222585295Y-126566785D02*
X222775771Y-126614404D01*
X222775771Y-126614404D02*
X223013866Y-126614404D01*
X223013866Y-126614404D02*
X223204342Y-126566785D01*
X223204342Y-126566785D02*
X223299580Y-126519166D01*
X223299580Y-126519166D02*
X223347200Y-126471547D01*
X223347200Y-126471547D02*
X223394819Y-126376309D01*
X223394819Y-126376309D02*
X223394819Y-126281071D01*
X223394819Y-126281071D02*
X223347200Y-126185833D01*
X223347200Y-126185833D02*
X223299580Y-126138214D01*
X223299580Y-126138214D02*
X223204342Y-126090595D01*
X223204342Y-126090595D02*
X223013866Y-126042976D01*
X223013866Y-126042976D02*
X222775771Y-126042976D01*
X222775771Y-126042976D02*
X222585295Y-126090595D01*
X222585295Y-126090595D02*
X222490057Y-126138214D01*
X222490057Y-126138214D02*
X222442438Y-126185833D01*
X222442438Y-126185833D02*
X222394819Y-126281071D01*
X147194819Y-67464405D02*
X146194819Y-67464405D01*
X146194819Y-67464405D02*
X146194819Y-67702500D01*
X146194819Y-67702500D02*
X146242438Y-67845357D01*
X146242438Y-67845357D02*
X146337676Y-67940595D01*
X146337676Y-67940595D02*
X146432914Y-67988214D01*
X146432914Y-67988214D02*
X146623390Y-68035833D01*
X146623390Y-68035833D02*
X146766247Y-68035833D01*
X146766247Y-68035833D02*
X146956723Y-67988214D01*
X146956723Y-67988214D02*
X147051961Y-67940595D01*
X147051961Y-67940595D02*
X147147200Y-67845357D01*
X147147200Y-67845357D02*
X147194819Y-67702500D01*
X147194819Y-67702500D02*
X147194819Y-67464405D01*
X146194819Y-68892976D02*
X146194819Y-68702500D01*
X146194819Y-68702500D02*
X146242438Y-68607262D01*
X146242438Y-68607262D02*
X146290057Y-68559643D01*
X146290057Y-68559643D02*
X146432914Y-68464405D01*
X146432914Y-68464405D02*
X146623390Y-68416786D01*
X146623390Y-68416786D02*
X147004342Y-68416786D01*
X147004342Y-68416786D02*
X147099580Y-68464405D01*
X147099580Y-68464405D02*
X147147200Y-68512024D01*
X147147200Y-68512024D02*
X147194819Y-68607262D01*
X147194819Y-68607262D02*
X147194819Y-68797738D01*
X147194819Y-68797738D02*
X147147200Y-68892976D01*
X147147200Y-68892976D02*
X147099580Y-68940595D01*
X147099580Y-68940595D02*
X147004342Y-68988214D01*
X147004342Y-68988214D02*
X146766247Y-68988214D01*
X146766247Y-68988214D02*
X146671009Y-68940595D01*
X146671009Y-68940595D02*
X146623390Y-68892976D01*
X146623390Y-68892976D02*
X146575771Y-68797738D01*
X146575771Y-68797738D02*
X146575771Y-68607262D01*
X146575771Y-68607262D02*
X146623390Y-68512024D01*
X146623390Y-68512024D02*
X146671009Y-68464405D01*
X146671009Y-68464405D02*
X146766247Y-68416786D01*
X147194819Y-86038214D02*
X146194819Y-86038214D01*
X146194819Y-86038214D02*
X146194819Y-86276309D01*
X146194819Y-86276309D02*
X146242438Y-86419166D01*
X146242438Y-86419166D02*
X146337676Y-86514404D01*
X146337676Y-86514404D02*
X146432914Y-86562023D01*
X146432914Y-86562023D02*
X146623390Y-86609642D01*
X146623390Y-86609642D02*
X146766247Y-86609642D01*
X146766247Y-86609642D02*
X146956723Y-86562023D01*
X146956723Y-86562023D02*
X147051961Y-86514404D01*
X147051961Y-86514404D02*
X147147200Y-86419166D01*
X147147200Y-86419166D02*
X147194819Y-86276309D01*
X147194819Y-86276309D02*
X147194819Y-86038214D01*
X147194819Y-87562023D02*
X147194819Y-86990595D01*
X147194819Y-87276309D02*
X146194819Y-87276309D01*
X146194819Y-87276309D02*
X146337676Y-87181071D01*
X146337676Y-87181071D02*
X146432914Y-87085833D01*
X146432914Y-87085833D02*
X146480533Y-86990595D01*
X146290057Y-87942976D02*
X146242438Y-87990595D01*
X146242438Y-87990595D02*
X146194819Y-88085833D01*
X146194819Y-88085833D02*
X146194819Y-88323928D01*
X146194819Y-88323928D02*
X146242438Y-88419166D01*
X146242438Y-88419166D02*
X146290057Y-88466785D01*
X146290057Y-88466785D02*
X146385295Y-88514404D01*
X146385295Y-88514404D02*
X146480533Y-88514404D01*
X146480533Y-88514404D02*
X146623390Y-88466785D01*
X146623390Y-88466785D02*
X147194819Y-87895357D01*
X147194819Y-87895357D02*
X147194819Y-88514404D01*
X242444819Y-86514405D02*
X241444819Y-86514405D01*
X241444819Y-86514405D02*
X241444819Y-86752500D01*
X241444819Y-86752500D02*
X241492438Y-86895357D01*
X241492438Y-86895357D02*
X241587676Y-86990595D01*
X241587676Y-86990595D02*
X241682914Y-87038214D01*
X241682914Y-87038214D02*
X241873390Y-87085833D01*
X241873390Y-87085833D02*
X242016247Y-87085833D01*
X242016247Y-87085833D02*
X242206723Y-87038214D01*
X242206723Y-87038214D02*
X242301961Y-86990595D01*
X242301961Y-86990595D02*
X242397200Y-86895357D01*
X242397200Y-86895357D02*
X242444819Y-86752500D01*
X242444819Y-86752500D02*
X242444819Y-86514405D01*
X241444819Y-87419167D02*
X241444819Y-88085833D01*
X241444819Y-88085833D02*
X242444819Y-87657262D01*
X242444819Y-105088214D02*
X241444819Y-105088214D01*
X241444819Y-105088214D02*
X241444819Y-105326309D01*
X241444819Y-105326309D02*
X241492438Y-105469166D01*
X241492438Y-105469166D02*
X241587676Y-105564404D01*
X241587676Y-105564404D02*
X241682914Y-105612023D01*
X241682914Y-105612023D02*
X241873390Y-105659642D01*
X241873390Y-105659642D02*
X242016247Y-105659642D01*
X242016247Y-105659642D02*
X242206723Y-105612023D01*
X242206723Y-105612023D02*
X242301961Y-105564404D01*
X242301961Y-105564404D02*
X242397200Y-105469166D01*
X242397200Y-105469166D02*
X242444819Y-105326309D01*
X242444819Y-105326309D02*
X242444819Y-105088214D01*
X242444819Y-106612023D02*
X242444819Y-106040595D01*
X242444819Y-106326309D02*
X241444819Y-106326309D01*
X241444819Y-106326309D02*
X241587676Y-106231071D01*
X241587676Y-106231071D02*
X241682914Y-106135833D01*
X241682914Y-106135833D02*
X241730533Y-106040595D01*
X241444819Y-106945357D02*
X241444819Y-107564404D01*
X241444819Y-107564404D02*
X241825771Y-107231071D01*
X241825771Y-107231071D02*
X241825771Y-107373928D01*
X241825771Y-107373928D02*
X241873390Y-107469166D01*
X241873390Y-107469166D02*
X241921009Y-107516785D01*
X241921009Y-107516785D02*
X242016247Y-107564404D01*
X242016247Y-107564404D02*
X242254342Y-107564404D01*
X242254342Y-107564404D02*
X242349580Y-107516785D01*
X242349580Y-107516785D02*
X242397200Y-107469166D01*
X242397200Y-107469166D02*
X242444819Y-107373928D01*
X242444819Y-107373928D02*
X242444819Y-107088214D01*
X242444819Y-107088214D02*
X242397200Y-106992976D01*
X242397200Y-106992976D02*
X242349580Y-106945357D01*
X166244819Y-81275714D02*
X165244819Y-81275714D01*
X165244819Y-81275714D02*
X165244819Y-81513809D01*
X165244819Y-81513809D02*
X165292438Y-81656666D01*
X165292438Y-81656666D02*
X165387676Y-81751904D01*
X165387676Y-81751904D02*
X165482914Y-81799523D01*
X165482914Y-81799523D02*
X165673390Y-81847142D01*
X165673390Y-81847142D02*
X165816247Y-81847142D01*
X165816247Y-81847142D02*
X166006723Y-81799523D01*
X166006723Y-81799523D02*
X166101961Y-81751904D01*
X166101961Y-81751904D02*
X166197200Y-81656666D01*
X166197200Y-81656666D02*
X166244819Y-81513809D01*
X166244819Y-81513809D02*
X166244819Y-81275714D01*
X166244819Y-82799523D02*
X166244819Y-82228095D01*
X166244819Y-82513809D02*
X165244819Y-82513809D01*
X165244819Y-82513809D02*
X165387676Y-82418571D01*
X165387676Y-82418571D02*
X165482914Y-82323333D01*
X165482914Y-82323333D02*
X165530533Y-82228095D01*
X166244819Y-83751904D02*
X166244819Y-83180476D01*
X166244819Y-83466190D02*
X165244819Y-83466190D01*
X165244819Y-83466190D02*
X165387676Y-83370952D01*
X165387676Y-83370952D02*
X165482914Y-83275714D01*
X165482914Y-83275714D02*
X165530533Y-83180476D01*
X185294819Y-76513214D02*
X184294819Y-76513214D01*
X184294819Y-76513214D02*
X184294819Y-76751309D01*
X184294819Y-76751309D02*
X184342438Y-76894166D01*
X184342438Y-76894166D02*
X184437676Y-76989404D01*
X184437676Y-76989404D02*
X184532914Y-77037023D01*
X184532914Y-77037023D02*
X184723390Y-77084642D01*
X184723390Y-77084642D02*
X184866247Y-77084642D01*
X184866247Y-77084642D02*
X185056723Y-77037023D01*
X185056723Y-77037023D02*
X185151961Y-76989404D01*
X185151961Y-76989404D02*
X185247200Y-76894166D01*
X185247200Y-76894166D02*
X185294819Y-76751309D01*
X185294819Y-76751309D02*
X185294819Y-76513214D01*
X185294819Y-78037023D02*
X185294819Y-77465595D01*
X185294819Y-77751309D02*
X184294819Y-77751309D01*
X184294819Y-77751309D02*
X184437676Y-77656071D01*
X184437676Y-77656071D02*
X184532914Y-77560833D01*
X184532914Y-77560833D02*
X184580533Y-77465595D01*
X184294819Y-78656071D02*
X184294819Y-78751309D01*
X184294819Y-78751309D02*
X184342438Y-78846547D01*
X184342438Y-78846547D02*
X184390057Y-78894166D01*
X184390057Y-78894166D02*
X184485295Y-78941785D01*
X184485295Y-78941785D02*
X184675771Y-78989404D01*
X184675771Y-78989404D02*
X184913866Y-78989404D01*
X184913866Y-78989404D02*
X185104342Y-78941785D01*
X185104342Y-78941785D02*
X185199580Y-78894166D01*
X185199580Y-78894166D02*
X185247200Y-78846547D01*
X185247200Y-78846547D02*
X185294819Y-78751309D01*
X185294819Y-78751309D02*
X185294819Y-78656071D01*
X185294819Y-78656071D02*
X185247200Y-78560833D01*
X185247200Y-78560833D02*
X185199580Y-78513214D01*
X185199580Y-78513214D02*
X185104342Y-78465595D01*
X185104342Y-78465595D02*
X184913866Y-78417976D01*
X184913866Y-78417976D02*
X184675771Y-78417976D01*
X184675771Y-78417976D02*
X184485295Y-78465595D01*
X184485295Y-78465595D02*
X184390057Y-78513214D01*
X184390057Y-78513214D02*
X184342438Y-78560833D01*
X184342438Y-78560833D02*
X184294819Y-78656071D01*
X131953640Y-165241419D02*
X132286973Y-164765228D01*
X132525068Y-165241419D02*
X132525068Y-164241419D01*
X132525068Y-164241419D02*
X132144116Y-164241419D01*
X132144116Y-164241419D02*
X132048878Y-164289038D01*
X132048878Y-164289038D02*
X132001259Y-164336657D01*
X132001259Y-164336657D02*
X131953640Y-164431895D01*
X131953640Y-164431895D02*
X131953640Y-164574752D01*
X131953640Y-164574752D02*
X132001259Y-164669990D01*
X132001259Y-164669990D02*
X132048878Y-164717609D01*
X132048878Y-164717609D02*
X132144116Y-164765228D01*
X132144116Y-164765228D02*
X132525068Y-164765228D01*
X131525068Y-164717609D02*
X131191735Y-164717609D01*
X131048878Y-165241419D02*
X131525068Y-165241419D01*
X131525068Y-165241419D02*
X131525068Y-164241419D01*
X131525068Y-164241419D02*
X131048878Y-164241419D01*
X130286973Y-164717609D02*
X130620306Y-164717609D01*
X130620306Y-165241419D02*
X130620306Y-164241419D01*
X130620306Y-164241419D02*
X130144116Y-164241419D01*
X129620306Y-164241419D02*
X129620306Y-164479514D01*
X129858401Y-164384276D02*
X129620306Y-164479514D01*
X129620306Y-164479514D02*
X129382211Y-164384276D01*
X129763163Y-164669990D02*
X129620306Y-164479514D01*
X129620306Y-164479514D02*
X129477449Y-164669990D01*
X128858401Y-164241419D02*
X128858401Y-164479514D01*
X129096496Y-164384276D02*
X128858401Y-164479514D01*
X128858401Y-164479514D02*
X128620306Y-164384276D01*
X129001258Y-164669990D02*
X128858401Y-164479514D01*
X128858401Y-164479514D02*
X128715544Y-164669990D01*
X242444819Y-124138214D02*
X241444819Y-124138214D01*
X241444819Y-124138214D02*
X241444819Y-124376309D01*
X241444819Y-124376309D02*
X241492438Y-124519166D01*
X241492438Y-124519166D02*
X241587676Y-124614404D01*
X241587676Y-124614404D02*
X241682914Y-124662023D01*
X241682914Y-124662023D02*
X241873390Y-124709642D01*
X241873390Y-124709642D02*
X242016247Y-124709642D01*
X242016247Y-124709642D02*
X242206723Y-124662023D01*
X242206723Y-124662023D02*
X242301961Y-124614404D01*
X242301961Y-124614404D02*
X242397200Y-124519166D01*
X242397200Y-124519166D02*
X242444819Y-124376309D01*
X242444819Y-124376309D02*
X242444819Y-124138214D01*
X242444819Y-125662023D02*
X242444819Y-125090595D01*
X242444819Y-125376309D02*
X241444819Y-125376309D01*
X241444819Y-125376309D02*
X241587676Y-125281071D01*
X241587676Y-125281071D02*
X241682914Y-125185833D01*
X241682914Y-125185833D02*
X241730533Y-125090595D01*
X242444819Y-126138214D02*
X242444819Y-126328690D01*
X242444819Y-126328690D02*
X242397200Y-126423928D01*
X242397200Y-126423928D02*
X242349580Y-126471547D01*
X242349580Y-126471547D02*
X242206723Y-126566785D01*
X242206723Y-126566785D02*
X242016247Y-126614404D01*
X242016247Y-126614404D02*
X241635295Y-126614404D01*
X241635295Y-126614404D02*
X241540057Y-126566785D01*
X241540057Y-126566785D02*
X241492438Y-126519166D01*
X241492438Y-126519166D02*
X241444819Y-126423928D01*
X241444819Y-126423928D02*
X241444819Y-126233452D01*
X241444819Y-126233452D02*
X241492438Y-126138214D01*
X241492438Y-126138214D02*
X241540057Y-126090595D01*
X241540057Y-126090595D02*
X241635295Y-126042976D01*
X241635295Y-126042976D02*
X241873390Y-126042976D01*
X241873390Y-126042976D02*
X241968628Y-126090595D01*
X241968628Y-126090595D02*
X242016247Y-126138214D01*
X242016247Y-126138214D02*
X242063866Y-126233452D01*
X242063866Y-126233452D02*
X242063866Y-126423928D01*
X242063866Y-126423928D02*
X242016247Y-126519166D01*
X242016247Y-126519166D02*
X241968628Y-126566785D01*
X241968628Y-126566785D02*
X241873390Y-126614404D01*
X185294819Y-114613214D02*
X184294819Y-114613214D01*
X184294819Y-114613214D02*
X184294819Y-114851309D01*
X184294819Y-114851309D02*
X184342438Y-114994166D01*
X184342438Y-114994166D02*
X184437676Y-115089404D01*
X184437676Y-115089404D02*
X184532914Y-115137023D01*
X184532914Y-115137023D02*
X184723390Y-115184642D01*
X184723390Y-115184642D02*
X184866247Y-115184642D01*
X184866247Y-115184642D02*
X185056723Y-115137023D01*
X185056723Y-115137023D02*
X185151961Y-115089404D01*
X185151961Y-115089404D02*
X185247200Y-114994166D01*
X185247200Y-114994166D02*
X185294819Y-114851309D01*
X185294819Y-114851309D02*
X185294819Y-114613214D01*
X184390057Y-115565595D02*
X184342438Y-115613214D01*
X184342438Y-115613214D02*
X184294819Y-115708452D01*
X184294819Y-115708452D02*
X184294819Y-115946547D01*
X184294819Y-115946547D02*
X184342438Y-116041785D01*
X184342438Y-116041785D02*
X184390057Y-116089404D01*
X184390057Y-116089404D02*
X184485295Y-116137023D01*
X184485295Y-116137023D02*
X184580533Y-116137023D01*
X184580533Y-116137023D02*
X184723390Y-116089404D01*
X184723390Y-116089404D02*
X185294819Y-115517976D01*
X185294819Y-115517976D02*
X185294819Y-116137023D01*
X184390057Y-116517976D02*
X184342438Y-116565595D01*
X184342438Y-116565595D02*
X184294819Y-116660833D01*
X184294819Y-116660833D02*
X184294819Y-116898928D01*
X184294819Y-116898928D02*
X184342438Y-116994166D01*
X184342438Y-116994166D02*
X184390057Y-117041785D01*
X184390057Y-117041785D02*
X184485295Y-117089404D01*
X184485295Y-117089404D02*
X184580533Y-117089404D01*
X184580533Y-117089404D02*
X184723390Y-117041785D01*
X184723390Y-117041785D02*
X185294819Y-116470357D01*
X185294819Y-116470357D02*
X185294819Y-117089404D01*
X143561574Y-152874466D02*
X144427599Y-152374466D01*
X144427599Y-152374466D02*
X144308551Y-152168270D01*
X144308551Y-152168270D02*
X144195883Y-152068361D01*
X144195883Y-152068361D02*
X144065786Y-152033502D01*
X144065786Y-152033502D02*
X143959498Y-152039882D01*
X143959498Y-152039882D02*
X143770731Y-152093880D01*
X143770731Y-152093880D02*
X143647013Y-152165309D01*
X143647013Y-152165309D02*
X143505865Y-152301786D01*
X143505865Y-152301786D02*
X143447196Y-152390645D01*
X143447196Y-152390645D02*
X143412337Y-152520742D01*
X143412337Y-152520742D02*
X143442526Y-152668270D01*
X143442526Y-152668270D02*
X143561574Y-152874466D01*
X143868930Y-151597299D02*
X143886360Y-151532250D01*
X143886360Y-151532250D02*
X143879980Y-151425962D01*
X143879980Y-151425962D02*
X143760932Y-151219766D01*
X143760932Y-151219766D02*
X143672074Y-151161097D01*
X143672074Y-151161097D02*
X143607025Y-151143667D01*
X143607025Y-151143667D02*
X143500737Y-151150047D01*
X143500737Y-151150047D02*
X143418258Y-151197666D01*
X143418258Y-151197666D02*
X143318350Y-151310334D01*
X143318350Y-151310334D02*
X143109193Y-152090920D01*
X143109193Y-152090920D02*
X142799669Y-151554809D01*
X143237123Y-150312501D02*
X143332361Y-150477458D01*
X143332361Y-150477458D02*
X143338741Y-150583746D01*
X143338741Y-150583746D02*
X143321311Y-150648795D01*
X143321311Y-150648795D02*
X143245212Y-150802702D01*
X143245212Y-150802702D02*
X143104064Y-150939180D01*
X143104064Y-150939180D02*
X142774150Y-151129656D01*
X142774150Y-151129656D02*
X142667862Y-151136036D01*
X142667862Y-151136036D02*
X142602813Y-151118606D01*
X142602813Y-151118606D02*
X142513954Y-151059937D01*
X142513954Y-151059937D02*
X142418716Y-150894980D01*
X142418716Y-150894980D02*
X142412337Y-150788692D01*
X142412337Y-150788692D02*
X142429766Y-150723643D01*
X142429766Y-150723643D02*
X142488435Y-150634784D01*
X142488435Y-150634784D02*
X142694632Y-150515737D01*
X142694632Y-150515737D02*
X142800920Y-150509357D01*
X142800920Y-150509357D02*
X142865969Y-150526787D01*
X142865969Y-150526787D02*
X142954827Y-150585456D01*
X142954827Y-150585456D02*
X143050065Y-150750413D01*
X143050065Y-150750413D02*
X143056445Y-150856701D01*
X143056445Y-150856701D02*
X143039015Y-150921750D01*
X143039015Y-150921750D02*
X142980346Y-151010608D01*
X147194819Y-124138214D02*
X146194819Y-124138214D01*
X146194819Y-124138214D02*
X146194819Y-124376309D01*
X146194819Y-124376309D02*
X146242438Y-124519166D01*
X146242438Y-124519166D02*
X146337676Y-124614404D01*
X146337676Y-124614404D02*
X146432914Y-124662023D01*
X146432914Y-124662023D02*
X146623390Y-124709642D01*
X146623390Y-124709642D02*
X146766247Y-124709642D01*
X146766247Y-124709642D02*
X146956723Y-124662023D01*
X146956723Y-124662023D02*
X147051961Y-124614404D01*
X147051961Y-124614404D02*
X147147200Y-124519166D01*
X147147200Y-124519166D02*
X147194819Y-124376309D01*
X147194819Y-124376309D02*
X147194819Y-124138214D01*
X146290057Y-125090595D02*
X146242438Y-125138214D01*
X146242438Y-125138214D02*
X146194819Y-125233452D01*
X146194819Y-125233452D02*
X146194819Y-125471547D01*
X146194819Y-125471547D02*
X146242438Y-125566785D01*
X146242438Y-125566785D02*
X146290057Y-125614404D01*
X146290057Y-125614404D02*
X146385295Y-125662023D01*
X146385295Y-125662023D02*
X146480533Y-125662023D01*
X146480533Y-125662023D02*
X146623390Y-125614404D01*
X146623390Y-125614404D02*
X147194819Y-125042976D01*
X147194819Y-125042976D02*
X147194819Y-125662023D01*
X146528152Y-126519166D02*
X147194819Y-126519166D01*
X146147200Y-126281071D02*
X146861485Y-126042976D01*
X146861485Y-126042976D02*
X146861485Y-126662023D01*
X166244819Y-100325714D02*
X165244819Y-100325714D01*
X165244819Y-100325714D02*
X165244819Y-100563809D01*
X165244819Y-100563809D02*
X165292438Y-100706666D01*
X165292438Y-100706666D02*
X165387676Y-100801904D01*
X165387676Y-100801904D02*
X165482914Y-100849523D01*
X165482914Y-100849523D02*
X165673390Y-100897142D01*
X165673390Y-100897142D02*
X165816247Y-100897142D01*
X165816247Y-100897142D02*
X166006723Y-100849523D01*
X166006723Y-100849523D02*
X166101961Y-100801904D01*
X166101961Y-100801904D02*
X166197200Y-100706666D01*
X166197200Y-100706666D02*
X166244819Y-100563809D01*
X166244819Y-100563809D02*
X166244819Y-100325714D01*
X166244819Y-101849523D02*
X166244819Y-101278095D01*
X166244819Y-101563809D02*
X165244819Y-101563809D01*
X165244819Y-101563809D02*
X165387676Y-101468571D01*
X165387676Y-101468571D02*
X165482914Y-101373333D01*
X165482914Y-101373333D02*
X165530533Y-101278095D01*
X165244819Y-102182857D02*
X165244819Y-102849523D01*
X165244819Y-102849523D02*
X166244819Y-102420952D01*
X223394819Y-67464405D02*
X222394819Y-67464405D01*
X222394819Y-67464405D02*
X222394819Y-67702500D01*
X222394819Y-67702500D02*
X222442438Y-67845357D01*
X222442438Y-67845357D02*
X222537676Y-67940595D01*
X222537676Y-67940595D02*
X222632914Y-67988214D01*
X222632914Y-67988214D02*
X222823390Y-68035833D01*
X222823390Y-68035833D02*
X222966247Y-68035833D01*
X222966247Y-68035833D02*
X223156723Y-67988214D01*
X223156723Y-67988214D02*
X223251961Y-67940595D01*
X223251961Y-67940595D02*
X223347200Y-67845357D01*
X223347200Y-67845357D02*
X223394819Y-67702500D01*
X223394819Y-67702500D02*
X223394819Y-67464405D01*
X222490057Y-68416786D02*
X222442438Y-68464405D01*
X222442438Y-68464405D02*
X222394819Y-68559643D01*
X222394819Y-68559643D02*
X222394819Y-68797738D01*
X222394819Y-68797738D02*
X222442438Y-68892976D01*
X222442438Y-68892976D02*
X222490057Y-68940595D01*
X222490057Y-68940595D02*
X222585295Y-68988214D01*
X222585295Y-68988214D02*
X222680533Y-68988214D01*
X222680533Y-68988214D02*
X222823390Y-68940595D01*
X222823390Y-68940595D02*
X223394819Y-68369167D01*
X223394819Y-68369167D02*
X223394819Y-68988214D01*
X135787101Y-55889119D02*
X136120434Y-55412928D01*
X136358529Y-55889119D02*
X136358529Y-54889119D01*
X136358529Y-54889119D02*
X135977577Y-54889119D01*
X135977577Y-54889119D02*
X135882339Y-54936738D01*
X135882339Y-54936738D02*
X135834720Y-54984357D01*
X135834720Y-54984357D02*
X135787101Y-55079595D01*
X135787101Y-55079595D02*
X135787101Y-55222452D01*
X135787101Y-55222452D02*
X135834720Y-55317690D01*
X135834720Y-55317690D02*
X135882339Y-55365309D01*
X135882339Y-55365309D02*
X135977577Y-55412928D01*
X135977577Y-55412928D02*
X136358529Y-55412928D01*
X135358529Y-55365309D02*
X135025196Y-55365309D01*
X134882339Y-55889119D02*
X135358529Y-55889119D01*
X135358529Y-55889119D02*
X135358529Y-54889119D01*
X135358529Y-54889119D02*
X134882339Y-54889119D01*
X134120434Y-55365309D02*
X134453767Y-55365309D01*
X134453767Y-55889119D02*
X134453767Y-54889119D01*
X134453767Y-54889119D02*
X133977577Y-54889119D01*
X133453767Y-54889119D02*
X133453767Y-55127214D01*
X133691862Y-55031976D02*
X133453767Y-55127214D01*
X133453767Y-55127214D02*
X133215672Y-55031976D01*
X133596624Y-55317690D02*
X133453767Y-55127214D01*
X133453767Y-55127214D02*
X133310910Y-55317690D01*
X132691862Y-54889119D02*
X132691862Y-55127214D01*
X132929957Y-55031976D02*
X132691862Y-55127214D01*
X132691862Y-55127214D02*
X132453767Y-55031976D01*
X132834719Y-55317690D02*
X132691862Y-55127214D01*
X132691862Y-55127214D02*
X132549005Y-55317690D01*
X204344819Y-100325714D02*
X203344819Y-100325714D01*
X203344819Y-100325714D02*
X203344819Y-100563809D01*
X203344819Y-100563809D02*
X203392438Y-100706666D01*
X203392438Y-100706666D02*
X203487676Y-100801904D01*
X203487676Y-100801904D02*
X203582914Y-100849523D01*
X203582914Y-100849523D02*
X203773390Y-100897142D01*
X203773390Y-100897142D02*
X203916247Y-100897142D01*
X203916247Y-100897142D02*
X204106723Y-100849523D01*
X204106723Y-100849523D02*
X204201961Y-100801904D01*
X204201961Y-100801904D02*
X204297200Y-100706666D01*
X204297200Y-100706666D02*
X204344819Y-100563809D01*
X204344819Y-100563809D02*
X204344819Y-100325714D01*
X204344819Y-101849523D02*
X204344819Y-101278095D01*
X204344819Y-101563809D02*
X203344819Y-101563809D01*
X203344819Y-101563809D02*
X203487676Y-101468571D01*
X203487676Y-101468571D02*
X203582914Y-101373333D01*
X203582914Y-101373333D02*
X203630533Y-101278095D01*
X203344819Y-102754285D02*
X203344819Y-102278095D01*
X203344819Y-102278095D02*
X203821009Y-102230476D01*
X203821009Y-102230476D02*
X203773390Y-102278095D01*
X203773390Y-102278095D02*
X203725771Y-102373333D01*
X203725771Y-102373333D02*
X203725771Y-102611428D01*
X203725771Y-102611428D02*
X203773390Y-102706666D01*
X203773390Y-102706666D02*
X203821009Y-102754285D01*
X203821009Y-102754285D02*
X203916247Y-102801904D01*
X203916247Y-102801904D02*
X204154342Y-102801904D01*
X204154342Y-102801904D02*
X204249580Y-102754285D01*
X204249580Y-102754285D02*
X204297200Y-102706666D01*
X204297200Y-102706666D02*
X204344819Y-102611428D01*
X204344819Y-102611428D02*
X204344819Y-102373333D01*
X204344819Y-102373333D02*
X204297200Y-102278095D01*
X204297200Y-102278095D02*
X204249580Y-102230476D01*
X242444819Y-67464405D02*
X241444819Y-67464405D01*
X241444819Y-67464405D02*
X241444819Y-67702500D01*
X241444819Y-67702500D02*
X241492438Y-67845357D01*
X241492438Y-67845357D02*
X241587676Y-67940595D01*
X241587676Y-67940595D02*
X241682914Y-67988214D01*
X241682914Y-67988214D02*
X241873390Y-68035833D01*
X241873390Y-68035833D02*
X242016247Y-68035833D01*
X242016247Y-68035833D02*
X242206723Y-67988214D01*
X242206723Y-67988214D02*
X242301961Y-67940595D01*
X242301961Y-67940595D02*
X242397200Y-67845357D01*
X242397200Y-67845357D02*
X242444819Y-67702500D01*
X242444819Y-67702500D02*
X242444819Y-67464405D01*
X242444819Y-68988214D02*
X242444819Y-68416786D01*
X242444819Y-68702500D02*
X241444819Y-68702500D01*
X241444819Y-68702500D02*
X241587676Y-68607262D01*
X241587676Y-68607262D02*
X241682914Y-68512024D01*
X241682914Y-68512024D02*
X241730533Y-68416786D01*
X164038237Y-145238343D02*
X165004163Y-144979524D01*
X165004163Y-144979524D02*
X164942540Y-144749542D01*
X164942540Y-144749542D02*
X164859569Y-144623877D01*
X164859569Y-144623877D02*
X164742927Y-144556534D01*
X164742927Y-144556534D02*
X164638609Y-144535187D01*
X164638609Y-144535187D02*
X164442298Y-144538489D01*
X164442298Y-144538489D02*
X164304309Y-144575463D01*
X164304309Y-144575463D02*
X164132648Y-144670759D01*
X164132648Y-144670759D02*
X164052980Y-144741404D01*
X164052980Y-144741404D02*
X163985636Y-144858047D01*
X163985636Y-144858047D02*
X163976614Y-145008361D01*
X163976614Y-145008361D02*
X164038237Y-145238343D01*
X164665676Y-144084244D02*
X164699348Y-144025923D01*
X164699348Y-144025923D02*
X164720695Y-143921606D01*
X164720695Y-143921606D02*
X164659071Y-143691623D01*
X164659071Y-143691623D02*
X164588425Y-143611955D01*
X164588425Y-143611955D02*
X164530104Y-143578283D01*
X164530104Y-143578283D02*
X164425786Y-143556936D01*
X164425786Y-143556936D02*
X164333793Y-143581586D01*
X164333793Y-143581586D02*
X164208129Y-143664556D01*
X164208129Y-143664556D02*
X163804068Y-144364410D01*
X163804068Y-144364410D02*
X163643846Y-143766456D01*
X164375603Y-142633704D02*
X164498850Y-143093669D01*
X164498850Y-143093669D02*
X164051210Y-143262913D01*
X164051210Y-143262913D02*
X164084882Y-143204591D01*
X164084882Y-143204591D02*
X164106229Y-143100274D01*
X164106229Y-143100274D02*
X164044605Y-142870291D01*
X164044605Y-142870291D02*
X163973959Y-142790623D01*
X163973959Y-142790623D02*
X163915638Y-142756952D01*
X163915638Y-142756952D02*
X163811320Y-142735604D01*
X163811320Y-142735604D02*
X163581338Y-142797228D01*
X163581338Y-142797228D02*
X163501670Y-142867874D01*
X163501670Y-142867874D02*
X163467998Y-142926195D01*
X163467998Y-142926195D02*
X163446651Y-143030513D01*
X163446651Y-143030513D02*
X163508274Y-143260495D01*
X163508274Y-143260495D02*
X163578920Y-143340163D01*
X163578920Y-143340163D02*
X163637242Y-143373835D01*
X204344819Y-62701905D02*
X203344819Y-62701905D01*
X203344819Y-62701905D02*
X203344819Y-62940000D01*
X203344819Y-62940000D02*
X203392438Y-63082857D01*
X203392438Y-63082857D02*
X203487676Y-63178095D01*
X203487676Y-63178095D02*
X203582914Y-63225714D01*
X203582914Y-63225714D02*
X203773390Y-63273333D01*
X203773390Y-63273333D02*
X203916247Y-63273333D01*
X203916247Y-63273333D02*
X204106723Y-63225714D01*
X204106723Y-63225714D02*
X204201961Y-63178095D01*
X204201961Y-63178095D02*
X204297200Y-63082857D01*
X204297200Y-63082857D02*
X204344819Y-62940000D01*
X204344819Y-62940000D02*
X204344819Y-62701905D01*
X203344819Y-63606667D02*
X203344819Y-64225714D01*
X203344819Y-64225714D02*
X203725771Y-63892381D01*
X203725771Y-63892381D02*
X203725771Y-64035238D01*
X203725771Y-64035238D02*
X203773390Y-64130476D01*
X203773390Y-64130476D02*
X203821009Y-64178095D01*
X203821009Y-64178095D02*
X203916247Y-64225714D01*
X203916247Y-64225714D02*
X204154342Y-64225714D01*
X204154342Y-64225714D02*
X204249580Y-64178095D01*
X204249580Y-64178095D02*
X204297200Y-64130476D01*
X204297200Y-64130476D02*
X204344819Y-64035238D01*
X204344819Y-64035238D02*
X204344819Y-63749524D01*
X204344819Y-63749524D02*
X204297200Y-63654286D01*
X204297200Y-63654286D02*
X204249580Y-63606667D01*
X246037101Y-52489119D02*
X246370434Y-52012928D01*
X246608529Y-52489119D02*
X246608529Y-51489119D01*
X246608529Y-51489119D02*
X246227577Y-51489119D01*
X246227577Y-51489119D02*
X246132339Y-51536738D01*
X246132339Y-51536738D02*
X246084720Y-51584357D01*
X246084720Y-51584357D02*
X246037101Y-51679595D01*
X246037101Y-51679595D02*
X246037101Y-51822452D01*
X246037101Y-51822452D02*
X246084720Y-51917690D01*
X246084720Y-51917690D02*
X246132339Y-51965309D01*
X246132339Y-51965309D02*
X246227577Y-52012928D01*
X246227577Y-52012928D02*
X246608529Y-52012928D01*
X245608529Y-51965309D02*
X245275196Y-51965309D01*
X245132339Y-52489119D02*
X245608529Y-52489119D01*
X245608529Y-52489119D02*
X245608529Y-51489119D01*
X245608529Y-51489119D02*
X245132339Y-51489119D01*
X244370434Y-51965309D02*
X244703767Y-51965309D01*
X244703767Y-52489119D02*
X244703767Y-51489119D01*
X244703767Y-51489119D02*
X244227577Y-51489119D01*
X243703767Y-51489119D02*
X243703767Y-51727214D01*
X243941862Y-51631976D02*
X243703767Y-51727214D01*
X243703767Y-51727214D02*
X243465672Y-51631976D01*
X243846624Y-51917690D02*
X243703767Y-51727214D01*
X243703767Y-51727214D02*
X243560910Y-51917690D01*
X242941862Y-51489119D02*
X242941862Y-51727214D01*
X243179957Y-51631976D02*
X242941862Y-51727214D01*
X242941862Y-51727214D02*
X242703767Y-51631976D01*
X243084719Y-51917690D02*
X242941862Y-51727214D01*
X242941862Y-51727214D02*
X242799005Y-51917690D01*
X223394819Y-105088214D02*
X222394819Y-105088214D01*
X222394819Y-105088214D02*
X222394819Y-105326309D01*
X222394819Y-105326309D02*
X222442438Y-105469166D01*
X222442438Y-105469166D02*
X222537676Y-105564404D01*
X222537676Y-105564404D02*
X222632914Y-105612023D01*
X222632914Y-105612023D02*
X222823390Y-105659642D01*
X222823390Y-105659642D02*
X222966247Y-105659642D01*
X222966247Y-105659642D02*
X223156723Y-105612023D01*
X223156723Y-105612023D02*
X223251961Y-105564404D01*
X223251961Y-105564404D02*
X223347200Y-105469166D01*
X223347200Y-105469166D02*
X223394819Y-105326309D01*
X223394819Y-105326309D02*
X223394819Y-105088214D01*
X223394819Y-106612023D02*
X223394819Y-106040595D01*
X223394819Y-106326309D02*
X222394819Y-106326309D01*
X222394819Y-106326309D02*
X222537676Y-106231071D01*
X222537676Y-106231071D02*
X222632914Y-106135833D01*
X222632914Y-106135833D02*
X222680533Y-106040595D01*
X222728152Y-107469166D02*
X223394819Y-107469166D01*
X222347200Y-107231071D02*
X223061485Y-106992976D01*
X223061485Y-106992976D02*
X223061485Y-107612023D01*
X245537101Y-128739119D02*
X245870434Y-128262928D01*
X246108529Y-128739119D02*
X246108529Y-127739119D01*
X246108529Y-127739119D02*
X245727577Y-127739119D01*
X245727577Y-127739119D02*
X245632339Y-127786738D01*
X245632339Y-127786738D02*
X245584720Y-127834357D01*
X245584720Y-127834357D02*
X245537101Y-127929595D01*
X245537101Y-127929595D02*
X245537101Y-128072452D01*
X245537101Y-128072452D02*
X245584720Y-128167690D01*
X245584720Y-128167690D02*
X245632339Y-128215309D01*
X245632339Y-128215309D02*
X245727577Y-128262928D01*
X245727577Y-128262928D02*
X246108529Y-128262928D01*
X245108529Y-128215309D02*
X244775196Y-128215309D01*
X244632339Y-128739119D02*
X245108529Y-128739119D01*
X245108529Y-128739119D02*
X245108529Y-127739119D01*
X245108529Y-127739119D02*
X244632339Y-127739119D01*
X243870434Y-128215309D02*
X244203767Y-128215309D01*
X244203767Y-128739119D02*
X244203767Y-127739119D01*
X244203767Y-127739119D02*
X243727577Y-127739119D01*
X243203767Y-127739119D02*
X243203767Y-127977214D01*
X243441862Y-127881976D02*
X243203767Y-127977214D01*
X243203767Y-127977214D02*
X242965672Y-127881976D01*
X243346624Y-128167690D02*
X243203767Y-127977214D01*
X243203767Y-127977214D02*
X243060910Y-128167690D01*
X242441862Y-127739119D02*
X242441862Y-127977214D01*
X242679957Y-127881976D02*
X242441862Y-127977214D01*
X242441862Y-127977214D02*
X242203767Y-127881976D01*
X242584719Y-128167690D02*
X242441862Y-127977214D01*
X242441862Y-127977214D02*
X242299005Y-128167690D01*
%TO.C,SW21*%
D13*
X192710000Y-109690000D02*
X197810000Y-109690000D01*
X196610000Y-113890000D02*
X201710000Y-113890000D01*
X190710000Y-111690000D02*
G75*
G02*
X192710000Y-109690000I1999999J1D01*
G01*
X194610000Y-115890000D02*
G75*
G02*
X196610000Y-113890000I1999999J1D01*
G01*
%TO.C,SW9*%
X192710000Y-71590000D02*
X197810000Y-71590000D01*
X196610000Y-75790000D02*
X201710000Y-75790000D01*
X190710000Y-73590000D02*
G75*
G02*
X192710000Y-71590000I1999999J1D01*
G01*
X194610000Y-77790000D02*
G75*
G02*
X196610000Y-75790000I1999999J1D01*
G01*
%TO.C,SW2*%
X211760000Y-57302500D02*
X216860000Y-57302500D01*
X215660000Y-61502500D02*
X220760000Y-61502500D01*
X209760000Y-59302500D02*
G75*
G02*
X211760000Y-57302500I1999999J1D01*
G01*
X213660000Y-63502500D02*
G75*
G02*
X215660000Y-61502500I1999999J1D01*
G01*
%TO.C,SW10*%
X173660000Y-66827500D02*
X178760000Y-66827500D01*
X177560000Y-71027500D02*
X182660000Y-71027500D01*
X171660000Y-68827500D02*
G75*
G02*
X173660000Y-66827500I1999999J1D01*
G01*
X175560000Y-73027500D02*
G75*
G02*
X177560000Y-71027500I1999999J1D01*
G01*
%TO.C,SW7*%
X230810000Y-76352500D02*
X235910000Y-76352500D01*
X234710000Y-80552500D02*
X239810000Y-80552500D01*
X228810000Y-78352500D02*
G75*
G02*
X230810000Y-76352500I1999999J1D01*
G01*
X232710000Y-82552500D02*
G75*
G02*
X234710000Y-80552500I1999999J1D01*
G01*
%TO.C,SW25*%
X150543101Y-136312724D02*
X155469322Y-134992747D01*
X155397251Y-139360218D02*
X160323473Y-138040241D01*
X149128887Y-138762214D02*
G75*
G02*
X150543101Y-136312724I1931852J517638D01*
G01*
X153983038Y-141809708D02*
G75*
G02*
X155397251Y-139360218I1931854J517637D01*
G01*
%TO.C,SW15*%
X192710000Y-90640000D02*
X197810000Y-90640000D01*
X196610000Y-94840000D02*
X201710000Y-94840000D01*
X190710000Y-92640000D02*
G75*
G02*
X192710000Y-90640000I1999999J1D01*
G01*
X194610000Y-96840000D02*
G75*
G02*
X196610000Y-94840000I1999999J1D01*
G01*
%TO.C,SW22*%
X173660000Y-104927500D02*
X178760000Y-104927500D01*
X177560000Y-109127500D02*
X182660000Y-109127500D01*
X171660000Y-106927500D02*
G75*
G02*
X173660000Y-104927500I1999999J1D01*
G01*
X175560000Y-111127500D02*
G75*
G02*
X177560000Y-109127500I1999999J1D01*
G01*
%TO.C,SW20*%
X211760000Y-114452500D02*
X216860000Y-114452500D01*
X215660000Y-118652500D02*
X220760000Y-118652500D01*
X209760000Y-116452500D02*
G75*
G02*
X211760000Y-114452500I1999999J1D01*
G01*
X213660000Y-120652500D02*
G75*
G02*
X215660000Y-118652500I1999999J1D01*
G01*
%TO.C,SW3*%
X192710000Y-52540000D02*
X197810000Y-52540000D01*
X196610000Y-56740000D02*
X201710000Y-56740000D01*
X190710000Y-54540000D02*
G75*
G02*
X192710000Y-52540000I1999999J1D01*
G01*
X194610000Y-58740000D02*
G75*
G02*
X196610000Y-56740000I1999999J1D01*
G01*
%TO.C,SW27*%
X108550540Y-161907784D02*
X112457367Y-158629567D01*
X114237822Y-162618299D02*
X118144648Y-159340082D01*
X108304027Y-164725448D02*
G75*
G02*
X108550540Y-161907784I1532087J1285576D01*
G01*
X113991308Y-165435963D02*
G75*
G02*
X114237822Y-162618299I1532085J1285575D01*
G01*
%TO.C,SW12*%
X135560000Y-76352500D02*
X140660000Y-76352500D01*
X139460000Y-80552500D02*
X144560000Y-80552500D01*
X133560000Y-78352500D02*
G75*
G02*
X135560000Y-76352500I1999999J1D01*
G01*
X137460000Y-82552500D02*
G75*
G02*
X139460000Y-80552500I1999999J1D01*
G01*
%TO.C,SW16*%
X173660000Y-85877500D02*
X178760000Y-85877500D01*
X177560000Y-90077500D02*
X182660000Y-90077500D01*
X171660000Y-87877500D02*
G75*
G02*
X173660000Y-85877500I1999999J1D01*
G01*
X175560000Y-92077500D02*
G75*
G02*
X177560000Y-90077500I1999999J1D01*
G01*
%TO.C,SW24*%
X135560000Y-114452500D02*
X140660000Y-114452500D01*
X139460000Y-118652500D02*
X144560000Y-118652500D01*
X133560000Y-116452500D02*
G75*
G02*
X135560000Y-114452500I1999999J1D01*
G01*
X137460000Y-120652500D02*
G75*
G02*
X139460000Y-118652500I1999999J1D01*
G01*
%TO.C,SW8*%
X211760000Y-76352500D02*
X216860000Y-76352500D01*
X215660000Y-80552500D02*
X220760000Y-80552500D01*
X209760000Y-78352500D02*
G75*
G02*
X211760000Y-76352500I1999999J1D01*
G01*
X213660000Y-82552500D02*
G75*
G02*
X215660000Y-80552500I1999999J1D01*
G01*
%TO.C,SW18*%
X135560000Y-95402500D02*
X140660000Y-95402500D01*
X139460000Y-99602500D02*
X144560000Y-99602500D01*
X133560000Y-97402500D02*
G75*
G02*
X135560000Y-95402500I1999999J1D01*
G01*
X137460000Y-101602500D02*
G75*
G02*
X139460000Y-99602500I1999999J1D01*
G01*
%TO.C,SW5*%
X154610000Y-52540000D02*
X159710000Y-52540000D01*
X158510000Y-56740000D02*
X163610000Y-56740000D01*
X152610000Y-54540000D02*
G75*
G02*
X154610000Y-52540000I1999999J1D01*
G01*
X156510000Y-58740000D02*
G75*
G02*
X158510000Y-56740000I1999999J1D01*
G01*
%TO.C,SW17*%
X154610000Y-90640000D02*
X159710000Y-90640000D01*
X158510000Y-94840000D02*
X163610000Y-94840000D01*
X152610000Y-92640000D02*
G75*
G02*
X154610000Y-90640000I1999999J1D01*
G01*
X156510000Y-96840000D02*
G75*
G02*
X158510000Y-94840000I1999999J1D01*
G01*
%TO.C,SW13*%
X230810000Y-95402500D02*
X235910000Y-95402500D01*
X234710000Y-99602500D02*
X239810000Y-99602500D01*
X228810000Y-97402500D02*
G75*
G02*
X230810000Y-95402500I1999999J1D01*
G01*
X232710000Y-101602500D02*
G75*
G02*
X234710000Y-99602500I1999999J1D01*
G01*
%TO.C,SW4*%
X173660000Y-47777500D02*
X178760000Y-47777500D01*
X177560000Y-51977500D02*
X182660000Y-51977500D01*
X171660000Y-49777500D02*
G75*
G02*
X173660000Y-47777500I1999999J1D01*
G01*
X175560000Y-53977500D02*
G75*
G02*
X177560000Y-51977500I1999999J1D01*
G01*
%TO.C,SW19*%
X230810000Y-114452500D02*
X235910000Y-114452500D01*
X234710000Y-118652500D02*
X239810000Y-118652500D01*
X228810000Y-116452500D02*
G75*
G02*
X230810000Y-114452500I1999999J1D01*
G01*
X232710000Y-120652500D02*
G75*
G02*
X234710000Y-118652500I1999999J1D01*
G01*
%TO.C,SW26*%
X128216152Y-147745779D02*
X132632881Y-145195779D01*
X133693651Y-149433085D02*
X138110380Y-146883085D01*
X127484101Y-150477830D02*
G75*
G02*
X128216152Y-147745779I1732051J1000000D01*
G01*
X132961600Y-152165136D02*
G75*
G02*
X133693651Y-149433085I1732050J1000000D01*
G01*
%TO.C,SW11*%
X154610000Y-71590000D02*
X159710000Y-71590000D01*
X158510000Y-75790000D02*
X163610000Y-75790000D01*
X152610000Y-73590000D02*
G75*
G02*
X154610000Y-71590000I1999999J1D01*
G01*
X156510000Y-77790000D02*
G75*
G02*
X158510000Y-75790000I1999999J1D01*
G01*
%TO.C,SW14*%
X211760000Y-95402500D02*
X216860000Y-95402500D01*
X215660000Y-99602500D02*
X220760000Y-99602500D01*
X209760000Y-97402500D02*
G75*
G02*
X211760000Y-95402500I1999999J1D01*
G01*
X213660000Y-101602500D02*
G75*
G02*
X215660000Y-99602500I1999999J1D01*
G01*
%TO.C,SW23*%
X154610000Y-109690000D02*
X159710000Y-109690000D01*
X158510000Y-113890000D02*
X163610000Y-113890000D01*
X152610000Y-111690000D02*
G75*
G02*
X154610000Y-109690000I1999999J1D01*
G01*
X156510000Y-115890000D02*
G75*
G02*
X158510000Y-113890000I1999999J1D01*
G01*
%TO.C,SW1*%
X230810000Y-57302500D02*
X235910000Y-57302500D01*
X234710000Y-61502500D02*
X239810000Y-61502500D01*
X228810000Y-59302500D02*
G75*
G02*
X230810000Y-57302500I1999999J1D01*
G01*
X232710000Y-63502500D02*
G75*
G02*
X234710000Y-61502500I1999999J1D01*
G01*
%TO.C,SW6*%
X135560000Y-57302500D02*
X140660000Y-57302500D01*
X139460000Y-61502500D02*
X144560000Y-61502500D01*
X133560000Y-59302500D02*
G75*
G02*
X135560000Y-57302500I1999999J1D01*
G01*
X137460000Y-63502500D02*
G75*
G02*
X139460000Y-61502500I1999999J1D01*
G01*
%TO.C,D27*%
X123340147Y-166807530D02*
X120762569Y-163735692D01*
X124872236Y-165521955D02*
X122294658Y-162450117D01*
X124872236Y-165521955D02*
X123340147Y-166807530D01*
%TO.C,D16*%
X181840000Y-99137500D02*
X181840000Y-95127500D01*
X183840000Y-99137500D02*
X181840000Y-99137500D01*
X183840000Y-99137500D02*
X183840000Y-95127500D01*
%TO.C,D8*%
X219940000Y-89612500D02*
X219940000Y-85602500D01*
X221940000Y-89612500D02*
X219940000Y-89612500D01*
X221940000Y-89612500D02*
X221940000Y-85602500D01*
%TO.C,D4*%
X181840000Y-61037500D02*
X181840000Y-57027500D01*
X183840000Y-61037500D02*
X181840000Y-61037500D01*
X183840000Y-61037500D02*
X183840000Y-57027500D01*
%TO.C,D23*%
X162790000Y-122950000D02*
X162790000Y-118940000D01*
X164790000Y-122950000D02*
X162790000Y-122950000D01*
X164790000Y-122950000D02*
X164790000Y-118940000D01*
%TO.C,D5*%
X162790000Y-65800000D02*
X162790000Y-61790000D01*
X164790000Y-65800000D02*
X162790000Y-65800000D01*
X164790000Y-65800000D02*
X164790000Y-61790000D01*
%TO.C,D18*%
X143740000Y-108662500D02*
X143740000Y-104652500D01*
X145740000Y-108662500D02*
X143740000Y-108662500D01*
X145740000Y-108662500D02*
X145740000Y-104652500D01*
%TO.C,D21*%
X200890000Y-122950000D02*
X200890000Y-118940000D01*
X202890000Y-122950000D02*
X200890000Y-122950000D01*
X202890000Y-122950000D02*
X202890000Y-118940000D01*
%TO.C,D9*%
X200890000Y-84850000D02*
X200890000Y-80840000D01*
X202890000Y-84850000D02*
X200890000Y-84850000D01*
X202890000Y-84850000D02*
X202890000Y-80840000D01*
%TO.C,D20*%
X219940000Y-127712500D02*
X219940000Y-123702500D01*
X221940000Y-127712500D02*
X219940000Y-127712500D01*
X221940000Y-127712500D02*
X221940000Y-123702500D01*
%TO.C,D6*%
X143740000Y-70562500D02*
X143740000Y-66552500D01*
X145740000Y-70562500D02*
X143740000Y-70562500D01*
X145740000Y-70562500D02*
X145740000Y-66552500D01*
%TO.C,D12*%
X143740000Y-89612500D02*
X143740000Y-85602500D01*
X145740000Y-89612500D02*
X143740000Y-89612500D01*
X145740000Y-89612500D02*
X145740000Y-85602500D01*
%TO.C,D7*%
X238990000Y-89612500D02*
X238990000Y-85602500D01*
X240990000Y-89612500D02*
X238990000Y-89612500D01*
X240990000Y-89612500D02*
X240990000Y-85602500D01*
%TO.C,D13*%
X238990000Y-108662500D02*
X238990000Y-104652500D01*
X240990000Y-108662500D02*
X238990000Y-108662500D01*
X240990000Y-108662500D02*
X240990000Y-104652500D01*
%TO.C,D11*%
X162790000Y-84850000D02*
X162790000Y-80840000D01*
X164790000Y-84850000D02*
X162790000Y-84850000D01*
X164790000Y-84850000D02*
X164790000Y-80840000D01*
%TO.C,D10*%
X181840000Y-80087500D02*
X181840000Y-76077500D01*
X183840000Y-80087500D02*
X181840000Y-80087500D01*
X183840000Y-80087500D02*
X183840000Y-76077500D01*
%TO.C,D19*%
X238990000Y-127712500D02*
X238990000Y-123702500D01*
X240990000Y-127712500D02*
X238990000Y-127712500D01*
X240990000Y-127712500D02*
X240990000Y-123702500D01*
%TO.C,D22*%
X181840000Y-118187500D02*
X181840000Y-114177500D01*
X183840000Y-118187500D02*
X181840000Y-118187500D01*
X183840000Y-118187500D02*
X183840000Y-114177500D01*
%TO.C,D26*%
X141930240Y-155139275D02*
X139925240Y-151666513D01*
X143662290Y-154139275D02*
X141657290Y-150666513D01*
X143662290Y-154139275D02*
X141930240Y-155139275D01*
%TO.C,D24*%
X143740000Y-127712500D02*
X143740000Y-123702500D01*
X145740000Y-127712500D02*
X143740000Y-127712500D01*
X145740000Y-127712500D02*
X145740000Y-123702500D01*
%TO.C,D17*%
X162790000Y-103900000D02*
X162790000Y-99890000D01*
X164790000Y-103900000D02*
X162790000Y-103900000D01*
X164790000Y-103900000D02*
X164790000Y-99890000D01*
%TO.C,D2*%
X219940000Y-70562500D02*
X219940000Y-66552500D01*
X221940000Y-70562500D02*
X219940000Y-70562500D01*
X221940000Y-70562500D02*
X221940000Y-66552500D01*
%TO.C,D15*%
X200890000Y-103900000D02*
X200890000Y-99890000D01*
X202890000Y-103900000D02*
X200890000Y-103900000D01*
X202890000Y-103900000D02*
X202890000Y-99890000D01*
%TO.C,D1*%
X238990000Y-70562500D02*
X238990000Y-66552500D01*
X240990000Y-70562500D02*
X238990000Y-70562500D01*
X240990000Y-70562500D02*
X240990000Y-66552500D01*
%TO.C,D25*%
X161876314Y-147003760D02*
X160838450Y-143130397D01*
X163808166Y-146486122D02*
X161876314Y-147003760D01*
X163808166Y-146486122D02*
X162770301Y-142612759D01*
%TO.C,D3*%
X200890000Y-65800000D02*
X200890000Y-61790000D01*
X202890000Y-65800000D02*
X200890000Y-65800000D01*
X202890000Y-65800000D02*
X202890000Y-61790000D01*
%TO.C,D14*%
X219940000Y-108662500D02*
X219940000Y-104652500D01*
X221940000Y-108662500D02*
X219940000Y-108662500D01*
X221940000Y-108662500D02*
X221940000Y-104652500D01*
%TD*%
M02*
