%TF.GenerationSoftware,KiCad,Pcbnew,10.0.1*%
%TF.CreationDate,2026-06-06T18:00:52+12:00*%
%TF.ProjectId,keyboard,6b657962-6f61-4726-942e-6b696361645f,rev?*%
%TF.SameCoordinates,Original*%
%TF.FileFunction,Paste,Bot*%
%TF.FilePolarity,Positive*%
%FSLAX46Y46*%
G04 Gerber Fmt 4.6, Leading zero omitted, Abs format (unit mm)*
G04 Created by KiCad (PCBNEW 10.0.1) date 2026-06-06 18:00:52*
%MOMM*%
%LPD*%
G01*
G04 APERTURE LIST*
G04 Aperture macros list*
%AMRoundRect*
0 Rectangle with rounded corners*
0 $1 Rounding radius*
0 $2 $3 $4 $5 $6 $7 $8 $9 X,Y pos of 4 corners*
0 Add a 4 corners polygon primitive as box body*
4,1,4,$2,$3,$4,$5,$6,$7,$8,$9,$2,$3,0*
0 Add four circle primitives for the rounded corners*
1,1,$1+$1,$2,$3*
1,1,$1+$1,$4,$5*
1,1,$1+$1,$6,$7*
1,1,$1+$1,$8,$9*
0 Add four rect primitives between the rounded corners*
20,1,$1+$1,$2,$3,$4,$5,0*
20,1,$1+$1,$4,$5,$6,$7,0*
20,1,$1+$1,$6,$7,$8,$9,0*
20,1,$1+$1,$8,$9,$2,$3,0*%
G04 Aperture macros list end*
%ADD10RoundRect,0.250000X-1.025000X-1.000000X1.025000X-1.000000X1.025000X1.000000X-1.025000X1.000000X0*%
%ADD11RoundRect,0.250000X-0.731255X-1.231215X1.248893X-0.700636X0.731255X1.231215X-1.248893X0.700636X0*%
%ADD12RoundRect,0.250000X-0.142408X-1.424902X1.427983X-0.107187X0.142408X1.424902X-1.427983X0.107187X0*%
%ADD13RoundRect,0.250000X-0.387676X-1.378525X1.387676X-0.353525X0.387676X1.378525X-1.387676X0.353525X0*%
%ADD14RoundRect,0.225000X0.431894X0.068685X0.142639X0.413405X-0.431894X-0.068685X-0.142639X-0.413405X0*%
%ADD15RoundRect,0.225000X0.375000X-0.225000X0.375000X0.225000X-0.375000X0.225000X-0.375000X-0.225000X0*%
%ADD16RoundRect,0.225000X0.437260X-0.007356X0.212260X0.382356X-0.437260X0.007356X-0.212260X-0.382356X0*%
%ADD17RoundRect,0.225000X0.420456X-0.120276X0.303988X0.314390X-0.420456X0.120276X-0.303988X-0.314390X0*%
G04 APERTURE END LIST*
D10*
%TO.C,SW21*%
X189725000Y-114050000D03*
X202652000Y-111510000D03*
%TD*%
%TO.C,SW9*%
X189725000Y-75950000D03*
X202652000Y-73410000D03*
%TD*%
%TO.C,SW2*%
X208775000Y-61662500D03*
X221702000Y-59122500D03*
%TD*%
%TO.C,SW10*%
X170675000Y-71187500D03*
X183602000Y-68647500D03*
%TD*%
%TO.C,SW7*%
X227825000Y-80712500D03*
X240752000Y-78172500D03*
%TD*%
D11*
%TO.C,SW25*%
X148788263Y-141296735D03*
X160617386Y-135497530D03*
%TD*%
D10*
%TO.C,SW15*%
X189725000Y-95000000D03*
X202652000Y-92460000D03*
%TD*%
%TO.C,SW22*%
X170675000Y-109287500D03*
X183602000Y-106747500D03*
%TD*%
%TO.C,SW20*%
X208775000Y-118812500D03*
X221702000Y-116272500D03*
%TD*%
%TO.C,SW3*%
X189725000Y-56900000D03*
X202652000Y-54360000D03*
%TD*%
D12*
%TO.C,SW27*%
X109066452Y-167166458D03*
X117336428Y-156911390D03*
%TD*%
D10*
%TO.C,SW12*%
X132575000Y-80712500D03*
X145502000Y-78172500D03*
%TD*%
%TO.C,SW16*%
X170675000Y-90237500D03*
X183602000Y-87697500D03*
%TD*%
%TO.C,SW24*%
X132575000Y-118812500D03*
X145502000Y-116272500D03*
%TD*%
%TO.C,SW8*%
X208775000Y-80712500D03*
X221702000Y-78172500D03*
%TD*%
%TO.C,SW18*%
X132575000Y-99762500D03*
X145502000Y-97222500D03*
%TD*%
%TO.C,SW5*%
X151625000Y-56900000D03*
X164552000Y-54360000D03*
%TD*%
%TO.C,SW17*%
X151625000Y-95000000D03*
X164552000Y-92460000D03*
%TD*%
%TO.C,SW13*%
X227825000Y-99762500D03*
X240752000Y-97222500D03*
%TD*%
%TO.C,SW4*%
X170675000Y-52137500D03*
X183602000Y-49597500D03*
%TD*%
%TO.C,SW19*%
X227825000Y-118812500D03*
X240752000Y-116272500D03*
%TD*%
D13*
%TO.C,SW26*%
X127811066Y-153014149D03*
X137736176Y-144350945D03*
%TD*%
D10*
%TO.C,SW11*%
X151625000Y-75950000D03*
X164552000Y-73410000D03*
%TD*%
%TO.C,SW14*%
X208775000Y-99762500D03*
X221702000Y-97222500D03*
%TD*%
%TO.C,SW23*%
X151625000Y-114050000D03*
X164552000Y-111510000D03*
%TD*%
%TO.C,SW1*%
X227825000Y-61662500D03*
X240752000Y-59122500D03*
%TD*%
%TO.C,SW6*%
X132575000Y-61662500D03*
X145502000Y-59122500D03*
%TD*%
D14*
%TO.C,D27*%
X123649813Y-165620851D03*
X121528613Y-163092905D03*
%TD*%
D15*
%TO.C,D16*%
X182840000Y-98427500D03*
X182840000Y-95127500D03*
%TD*%
%TO.C,D8*%
X220940000Y-88902500D03*
X220940000Y-85602500D03*
%TD*%
%TO.C,D4*%
X182840000Y-60327500D03*
X182840000Y-57027500D03*
%TD*%
%TO.C,D23*%
X163790000Y-122240000D03*
X163790000Y-118940000D03*
%TD*%
%TO.C,D5*%
X163790000Y-65090000D03*
X163790000Y-61790000D03*
%TD*%
%TO.C,D18*%
X144740000Y-107952500D03*
X144740000Y-104652500D03*
%TD*%
%TO.C,D21*%
X201890000Y-122240000D03*
X201890000Y-118940000D03*
%TD*%
%TO.C,D9*%
X201890000Y-84140000D03*
X201890000Y-80840000D03*
%TD*%
%TO.C,D20*%
X220940000Y-127002500D03*
X220940000Y-123702500D03*
%TD*%
%TO.C,D6*%
X144740000Y-69852500D03*
X144740000Y-66552500D03*
%TD*%
%TO.C,D12*%
X144740000Y-88902500D03*
X144740000Y-85602500D03*
%TD*%
%TO.C,D7*%
X239990000Y-88902500D03*
X239990000Y-85602500D03*
%TD*%
%TO.C,D13*%
X239990000Y-107952500D03*
X239990000Y-104652500D03*
%TD*%
%TO.C,D11*%
X163790000Y-84140000D03*
X163790000Y-80840000D03*
%TD*%
%TO.C,D10*%
X182840000Y-79377500D03*
X182840000Y-76077500D03*
%TD*%
%TO.C,D19*%
X239990000Y-127002500D03*
X239990000Y-123702500D03*
%TD*%
%TO.C,D22*%
X182840000Y-117477500D03*
X182840000Y-114177500D03*
%TD*%
D16*
%TO.C,D26*%
X142441265Y-154024397D03*
X140791265Y-151166513D03*
%TD*%
D15*
%TO.C,D24*%
X144740000Y-127002500D03*
X144740000Y-123702500D03*
%TD*%
%TO.C,D17*%
X163790000Y-103190000D03*
X163790000Y-99890000D03*
%TD*%
%TO.C,D2*%
X220940000Y-69852500D03*
X220940000Y-66552500D03*
%TD*%
%TO.C,D15*%
X201890000Y-103190000D03*
X201890000Y-99890000D03*
%TD*%
%TO.C,D1*%
X239990000Y-69852500D03*
X239990000Y-66552500D03*
%TD*%
D17*
%TO.C,D25*%
X162658477Y-146059134D03*
X161804377Y-142871578D03*
%TD*%
D15*
%TO.C,D3*%
X201890000Y-65090000D03*
X201890000Y-61790000D03*
%TD*%
%TO.C,D14*%
X220940000Y-107952500D03*
X220940000Y-104652500D03*
%TD*%
M02*
