M48
; DRILL file KiCad 10.0.1 date 2026-06-07T15:59:30
; FORMAT={-:-/ absolute / metric / decimal}
; #@! TF.CreationDate,2026-06-07T15:59:30+12:00
; #@! TF.GenerationSoftware,Kicad,Pcbnew,10.0.1
; #@! TF.FileFunction,Plated,1,2,PTH
FMAT,2
METRIC
; #@! TA.AperFunction,Plated,PTH,ViaDrill
T1C0.300
; #@! TA.AperFunction,Plated,PTH,ComponentDrill
T2C1.000
%
G90
G05
T1
X112.5Y-58.25
X116.25Y-58.25
X116.25Y-82.0
X117.775Y-82.0
X124.5Y-141.0
X129.0Y-131.5
X129.4Y-75.0
X129.4Y-76.0
X129.4Y-91.5
X129.4Y-92.5
X130.6Y-93.0
X131.5Y-64.0
X131.5Y-85.0
X131.975Y-73.0
X131.975Y-93.0
X132.5Y-136.5
X133.175Y-73.0
X133.175Y-106.0
X133.206Y-64.581
X133.5Y-138.0
X134.0Y-85.5
X136.5Y-74.0
X137.0Y-107.0
X137.612Y-75.388
X138.0Y-91.5
X138.5Y-107.5
X141.5Y-127.0
X143.0Y-128.5
X150.0Y-127.602
X150.5Y-126.0
X151.0Y-72.0
X151.0Y-85.5
X151.0Y-91.5
X151.5Y-68.5
X151.5Y-70.5
X151.5Y-88.0
X151.5Y-89.502
X151.5Y-107.0
X151.5Y-109.0
X152.5Y-72.0
X152.5Y-85.5
X152.5Y-90.5
X161.5Y-85.5
X163.5Y-85.5
X169.5Y-82.5
X169.5Y-93.5
X169.5Y-101.5
X170.0Y-67.5
X170.0Y-85.0
X170.5Y-64.0
X170.5Y-66.0
X171.275Y-82.0
X171.275Y-85.0
X171.275Y-101.5
X171.5Y-67.5
X172.0Y-95.5
X184.0Y-120.0
X185.5Y-119.0
X188.5Y-90.0
X189.0Y-70.5
X189.5Y-64.0
X189.5Y-65.69
X189.5Y-83.0
X189.5Y-85.0
X190.0Y-102.5
X190.0Y-104.0
X190.5Y-70.5
X190.5Y-90.0
X208.0Y-74.5
X209.0Y-69.0
X209.0Y-70.5
X209.0Y-88.0
X209.0Y-89.502
X209.0Y-107.352
X209.0Y-108.552
X209.5Y-74.5
X227.5Y-69.252
X227.5Y-70.5
X228.0Y-88.0
X228.0Y-89.502
X228.0Y-107.0
X228.0Y-109.0
T2
X107.258Y-55.541
X107.258Y-58.081
X107.258Y-60.621
X107.258Y-63.161
X107.258Y-65.701
X107.258Y-68.241
X107.258Y-70.781
X107.258Y-73.321
X107.258Y-75.861
X109.798Y-75.861
X112.338Y-75.861
X114.878Y-75.861
X117.418Y-75.861
X119.958Y-75.861
X122.498Y-55.541
X122.498Y-58.081
X122.498Y-60.621
X122.498Y-63.161
X122.498Y-65.701
X122.498Y-68.241
X122.498Y-70.781
X122.498Y-73.321
X122.498Y-75.861
M30
