M48
; DRILL file KiCad 10.0.1 date 2026-06-06T19:10:53
; FORMAT={-:-/ absolute / metric / decimal}
; #@! TF.CreationDate,2026-06-06T19:10:53+12:00
; #@! TF.GenerationSoftware,Kicad,Pcbnew,10.0.1
; #@! TF.FileFunction,Plated,1,2,PTH
FMAT,2
METRIC
; #@! TA.AperFunction,Plated,PTH,ViaDrill
T1C0.300
; #@! TA.AperFunction,Plated,PTH,ComponentDrill
T2C1.000
%
G90
G05
T1
X55.626Y-63.246
X58.039Y-64.262
X60.833Y-63.119
X62.357Y-64.389
X66.548Y-63.246
X66.802Y-43.053
X68.707Y-62.992
X70.358Y-56.769
X70.485Y-72.517
X70.993Y-62.484
X71.12Y-74.803
X71.155Y-65.913
X73.533Y-72.517
X73.533Y-74.803
X73.66Y-65.913
X74.168Y-66.929
X74.295Y-56.734
X75.692Y-62.738
X76.073Y-43.434
X76.2Y-55.372
X76.454Y-69.215
X76.454Y-72.517
X76.454Y-74.803
X76.835Y-113.284
X76.835Y-117.856
X77.745Y-67.056
X77.745Y-70.104
X77.851Y-43.688
X77.851Y-56.515
X77.978Y-55.499
X78.105Y-74.93
X78.994Y-111.76
X79.883Y-113.665
X80.518Y-56.515
X81.026Y-72.517
X81.755Y-74.963
X82.169Y-115.951
X82.931Y-56.388
X83.245Y-117.154
X83.312Y-107.95
X84.074Y-74.803
X84.074Y-110.49
X87.249Y-50.419
X89.662Y-50.673
X89.662Y-110.236
X90.12Y-66.548
X90.297Y-108.585
X91.694Y-66.421
X93.472Y-91.059
X94.107Y-75.184
X94.996Y-49.022
X95.123Y-52.197
X95.377Y-67.564
X96.266Y-77.851
X96.266Y-89.154
X96.795Y-48.895
X96.901Y-67.183
X97.028Y-52.07
X114.3Y-46.609
X114.554Y-81.661
X114.645Y-44.577
X114.645Y-63.119
X114.645Y-74.676
X115.845Y-46.609
X116.205Y-43.942
X116.332Y-62.738
X116.459Y-79.502
X118.28Y-80.475
X126.746Y-99.314
X126.969Y-80.614
X127.635Y-81.788
X127.889Y-100.711
X133.223Y-44.831
X133.35Y-83.058
X133.604Y-51.308
X133.604Y-64.262
X134.895Y-45.085
X134.895Y-83.693
X135.001Y-51.181
X135.128Y-64.77
X152.019Y-56.134
X152.654Y-49.784
X152.654Y-68.072
X152.654Y-87.757
X154.051Y-56.134
X154.178Y-49.911
X154.178Y-68.326
X154.178Y-88.265
X170.815Y-91.567
X171.099Y-53.284
X171.704Y-69.723
X173.101Y-52.197
X173.101Y-91.186
X173.355Y-69.723
T2
X47.545Y-38.228
X47.545Y-40.768
X47.545Y-43.308
X47.545Y-45.848
X47.545Y-48.388
X47.545Y-50.928
X47.545Y-53.468
X47.545Y-56.008
X47.545Y-58.548
X50.085Y-58.548
X52.625Y-58.548
X55.165Y-58.548
X57.705Y-58.548
X60.245Y-58.548
X62.785Y-38.228
X62.785Y-40.768
X62.785Y-43.308
X62.785Y-45.848
X62.785Y-48.388
X62.785Y-50.928
X62.785Y-53.468
X62.785Y-56.008
X62.785Y-58.548
M30
