M48
; DRILL file KiCad 10.0.1 date 2026-06-06T19:10:53
; FORMAT={-:-/ absolute / metric / decimal}
; #@! TF.CreationDate,2026-06-06T19:10:53+12:00
; #@! TF.GenerationSoftware,Kicad,Pcbnew,10.0.1
; #@! TF.FileFunction,NonPlated,1,2,NPTH
FMAT,2
METRIC
; #@! TA.AperFunction,NonPlated,NPTH,ComponentDrill
T1C1.500
; #@! TA.AperFunction,NonPlated,NPTH,ComponentDrill
T2C1.600
; #@! TA.AperFunction,NonPlated,NPTH,ComponentDrill
T3C2.200
; #@! TA.AperFunction,NonPlated,NPTH,ComponentDrill
T4C3.050
; #@! TA.AperFunction,NonPlated,NPTH,ComponentDrill
T5C5.050
%
G90
G05
T1
X47.75Y-80.7
X54.75Y-80.7
T2
X56.592Y-154.314
X74.447Y-141.228
X75.645Y-51.95
X75.645Y-70.999
X75.645Y-90.049
X75.645Y-109.099
X93.778Y-130.782
X94.695Y-47.187
X94.695Y-66.237
X94.695Y-85.287
X94.695Y-104.337
X113.745Y-42.424
X113.745Y-61.474
X113.745Y-80.525
X113.745Y-99.575
X132.795Y-47.187
X132.795Y-66.237
X132.795Y-85.287
X132.795Y-104.337
X151.845Y-51.95
X151.845Y-70.999
X151.845Y-90.049
X151.845Y-109.099
X170.895Y-51.95
X170.895Y-70.999
X170.895Y-90.049
X170.895Y-109.099
T3
X68.688Y-39.187
X72.574Y-152.119
X184.706Y-114.221
X185.706Y-37.106
T4
X53.319Y-142.635
X58.499Y-141.03
X73.252Y-129.159
X78.632Y-128.477
X80.645Y-40.899
X80.645Y-59.95
X80.645Y-78.999
X80.645Y-98.049
X85.645Y-42.999
X85.645Y-62.049
X85.645Y-81.099
X85.645Y-100.149
X95.747Y-118.814
X99.695Y-36.137
X99.695Y-55.187
X99.695Y-74.237
X99.695Y-93.287
X101.12Y-119.549
X104.695Y-38.237
X104.695Y-57.287
X104.695Y-76.337
X104.695Y-95.387
X118.745Y-31.374
X118.745Y-50.424
X118.745Y-69.474
X118.745Y-88.524
X123.745Y-33.474
X123.745Y-52.524
X123.745Y-71.575
X123.745Y-90.624
X137.795Y-36.137
X137.795Y-55.187
X137.795Y-74.237
X137.795Y-93.287
X142.795Y-38.237
X142.795Y-57.287
X142.795Y-76.337
X142.795Y-95.387
X156.845Y-40.899
X156.845Y-59.95
X156.845Y-78.999
X156.845Y-98.049
X161.845Y-42.999
X161.845Y-62.049
X161.845Y-81.099
X161.845Y-100.149
X175.895Y-40.899
X175.895Y-59.95
X175.895Y-78.999
X175.895Y-98.049
X180.895Y-42.999
X180.895Y-62.049
X180.895Y-81.099
X180.895Y-100.149
T5
X57.112Y-147.155
X76.202Y-134.268
X80.645Y-46.799
X80.645Y-65.849
X80.645Y-84.899
X80.645Y-103.95
X97.274Y-124.513
X99.695Y-42.037
X99.695Y-61.087
X99.695Y-80.137
X99.695Y-99.187
X118.745Y-37.274
X118.745Y-56.325
X118.745Y-75.374
X118.745Y-94.424
X137.795Y-42.037
X137.795Y-61.087
X137.795Y-80.137
X137.795Y-99.187
X156.845Y-46.799
X156.845Y-65.849
X156.845Y-84.899
X156.845Y-103.95
X175.895Y-46.799
X175.895Y-65.849
X175.895Y-84.899
X175.895Y-103.95
M30
