%TF.GenerationSoftware,KiCad,Pcbnew,10.0.1*%
%TF.CreationDate,2026-06-06T19:10:53+12:00*%
%TF.ProjectId,keyboard,6b657962-6f61-4726-942e-6b696361645f,rev?*%
%TF.SameCoordinates,Original*%
%TF.FileFunction,Drillmap*%
%TF.FilePolarity,Positive*%
%FSLAX45Y45*%
G04 Gerber Fmt 4.5, Leading zero omitted, Abs format (unit mm)*
G04 Created by KiCad (PCBNEW 10.0.1) date 2026-06-06 19:10:53*
%MOMM*%
%LPD*%
G01*
G04 APERTURE LIST*
%ADD10C,0.944881*%
%ADD11C,0.200000*%
%ADD12C,0.150000*%
%ADD13C,0.160000*%
%ADD14C,0.220000*%
%ADD15C,0.305000*%
%ADD16C,0.505000*%
G04 APERTURE END LIST*
D10*
X12921046Y-2616330D02*
X12926124Y-2616716D01*
X12931129Y-2617352D01*
X12936053Y-2618232D01*
X12940891Y-2619348D01*
X12945637Y-2620696D01*
X12950283Y-2622268D01*
X12954824Y-2624059D01*
X12959254Y-2626061D01*
X12963566Y-2628270D01*
X12967754Y-2630677D01*
X12971811Y-2633278D01*
X12975732Y-2636067D01*
X12979509Y-2639035D01*
X12983138Y-2642178D01*
X12986611Y-2645489D01*
X12989922Y-2648962D01*
X12993065Y-2652591D01*
X12996033Y-2656368D01*
X12998822Y-2660289D01*
X13001423Y-2664346D01*
X13003830Y-2668534D01*
X13006039Y-2672846D01*
X13008041Y-2677276D01*
X13009832Y-2681817D01*
X13011404Y-2686463D01*
X13012752Y-2691208D01*
X13013868Y-2696047D01*
X13014748Y-2700971D01*
X13015384Y-2705976D01*
X13015770Y-2711054D01*
X13015900Y-2716200D01*
X13015900Y-2992500D01*
X13016030Y-2997646D01*
X13016416Y-3002724D01*
X13017052Y-3007729D01*
X13017932Y-3012653D01*
X13019048Y-3017492D01*
X13020396Y-3022237D01*
X13021968Y-3026883D01*
X13023758Y-3031424D01*
X13025761Y-3035854D01*
X13027969Y-3040166D01*
X13030377Y-3044354D01*
X13032978Y-3048411D01*
X13035766Y-3052332D01*
X13038735Y-3056109D01*
X13041878Y-3059738D01*
X13045189Y-3063211D01*
X13048662Y-3066522D01*
X13052291Y-3069665D01*
X13056068Y-3072633D01*
X13059989Y-3075422D01*
X13064046Y-3078023D01*
X13068234Y-3080430D01*
X13072546Y-3082639D01*
X13076975Y-3084641D01*
X13081517Y-3086432D01*
X13086163Y-3088004D01*
X13090908Y-3089352D01*
X13095746Y-3090468D01*
X13100671Y-3091348D01*
X13105676Y-3091984D01*
X13110754Y-3092370D01*
X13115900Y-3092500D01*
X14820900Y-3092500D01*
X14826046Y-3092630D01*
X14831125Y-3093016D01*
X14836129Y-3093652D01*
X14841054Y-3094532D01*
X14845892Y-3095648D01*
X14850637Y-3096996D01*
X14855283Y-3098568D01*
X14859824Y-3100358D01*
X14864254Y-3102361D01*
X14868566Y-3104569D01*
X14872754Y-3106977D01*
X14876811Y-3109578D01*
X14880732Y-3112366D01*
X14884509Y-3115335D01*
X14888138Y-3118478D01*
X14891611Y-3121789D01*
X14894922Y-3125262D01*
X14898065Y-3128891D01*
X14901034Y-3132668D01*
X14903822Y-3136589D01*
X14906423Y-3140646D01*
X14908831Y-3144834D01*
X14911039Y-3149146D01*
X14913042Y-3153575D01*
X14914832Y-3158117D01*
X14916404Y-3162763D01*
X14917752Y-3167508D01*
X14918869Y-3172346D01*
X14919748Y-3177271D01*
X14920384Y-3182276D01*
X14920770Y-3187354D01*
X14920900Y-3192500D01*
X14920900Y-3468700D01*
X14921030Y-3473846D01*
X14921417Y-3478924D01*
X14922053Y-3483929D01*
X14922932Y-3488853D01*
X14924049Y-3493691D01*
X14925396Y-3498437D01*
X14926968Y-3503083D01*
X14928759Y-3507624D01*
X14930761Y-3512054D01*
X14932970Y-3516366D01*
X14935378Y-3520554D01*
X14937979Y-3524611D01*
X14940767Y-3528531D01*
X14943736Y-3532309D01*
X14946879Y-3535938D01*
X14950190Y-3539411D01*
X14953663Y-3542722D01*
X14957291Y-3545865D01*
X14961069Y-3548833D01*
X14964990Y-3551621D01*
X14969047Y-3554223D01*
X14973235Y-3556630D01*
X14977546Y-3558839D01*
X14981976Y-3560841D01*
X14986517Y-3562632D01*
X14991164Y-3564204D01*
X14995909Y-3565552D01*
X15000747Y-3566668D01*
X15005671Y-3567548D01*
X15010676Y-3568184D01*
X15015754Y-3568570D01*
X15020900Y-3568700D01*
X16330900Y-3568700D01*
X16825901Y-3568700D01*
X18630901Y-3568700D01*
X18636047Y-3568830D01*
X18641125Y-3569216D01*
X18646130Y-3569852D01*
X18651054Y-3570732D01*
X18655892Y-3571848D01*
X18660638Y-3573196D01*
X18665284Y-3574768D01*
X18669825Y-3576558D01*
X18674255Y-3578561D01*
X18678567Y-3580769D01*
X18682754Y-3583177D01*
X18686812Y-3585778D01*
X18690732Y-3588566D01*
X18694510Y-3591535D01*
X18698138Y-3594678D01*
X18701611Y-3597989D01*
X18704922Y-3601462D01*
X18708066Y-3605091D01*
X18711034Y-3608868D01*
X18713822Y-3612789D01*
X18716423Y-3616846D01*
X18718831Y-3621034D01*
X18721040Y-3625346D01*
X18723042Y-3629775D01*
X18724833Y-3634317D01*
X18726405Y-3638963D01*
X18727753Y-3643708D01*
X18728869Y-3648546D01*
X18729749Y-3653471D01*
X18730385Y-3658476D01*
X18730771Y-3663554D01*
X18730901Y-3668700D01*
X18730901Y-5473700D01*
X18730901Y-5968700D01*
X18730901Y-7378700D01*
X18730901Y-7873700D01*
X18730901Y-9283700D01*
X18730901Y-9778700D01*
X18730901Y-11583700D01*
X18730771Y-11588846D01*
X18730385Y-11593925D01*
X18729749Y-11598929D01*
X18728869Y-11603854D01*
X18727753Y-11608692D01*
X18726405Y-11613437D01*
X18724833Y-11618084D01*
X18723042Y-11622625D01*
X18721040Y-11627054D01*
X18718831Y-11631366D01*
X18716423Y-11635554D01*
X18713822Y-11639611D01*
X18711034Y-11643532D01*
X18708066Y-11647310D01*
X18704922Y-11650938D01*
X18701611Y-11654411D01*
X18698138Y-11657722D01*
X18694510Y-11660865D01*
X18690732Y-11663834D01*
X18686812Y-11666622D01*
X18682754Y-11669223D01*
X18678567Y-11671631D01*
X18674255Y-11673839D01*
X18669825Y-11675842D01*
X18665284Y-11677632D01*
X18660638Y-11679204D01*
X18655892Y-11680552D01*
X18651054Y-11681669D01*
X18646130Y-11682548D01*
X18641125Y-11683184D01*
X18636047Y-11683570D01*
X18630901Y-11683700D01*
X16825901Y-11683700D01*
X16330901Y-11683700D01*
X14525901Y-11683700D01*
X14520755Y-11683570D01*
X14515676Y-11683184D01*
X14510672Y-11682548D01*
X14505747Y-11681669D01*
X14500909Y-11680552D01*
X14496164Y-11679204D01*
X14491518Y-11677632D01*
X14486976Y-11675842D01*
X14482547Y-11673839D01*
X14478235Y-11671631D01*
X14474047Y-11669223D01*
X14469990Y-11666622D01*
X14466069Y-11663834D01*
X14462292Y-11660865D01*
X14458663Y-11657722D01*
X14455190Y-11654411D01*
X14451879Y-11650938D01*
X14448736Y-11647310D01*
X14445767Y-11643532D01*
X14442979Y-11639611D01*
X14440378Y-11635554D01*
X14437970Y-11631366D01*
X14435762Y-11627054D01*
X14433759Y-11622625D01*
X14431969Y-11618084D01*
X14430396Y-11613437D01*
X14429049Y-11608692D01*
X14427932Y-11603854D01*
X14427053Y-11598929D01*
X14426417Y-11593925D01*
X14426031Y-11588846D01*
X14425901Y-11583700D01*
X14425901Y-11307500D01*
X14425770Y-11302354D01*
X14425384Y-11297276D01*
X14424748Y-11292271D01*
X14423869Y-11287347D01*
X14422752Y-11282509D01*
X14421405Y-11277763D01*
X14419832Y-11273117D01*
X14418042Y-11268576D01*
X14416039Y-11264146D01*
X14413831Y-11259834D01*
X14411423Y-11255647D01*
X14408822Y-11251589D01*
X14406034Y-11247669D01*
X14403065Y-11243891D01*
X14399922Y-11240262D01*
X14396611Y-11236789D01*
X14393138Y-11233478D01*
X14389510Y-11230335D01*
X14385732Y-11227367D01*
X14381811Y-11224579D01*
X14377754Y-11221978D01*
X14373566Y-11219570D01*
X14369254Y-11217361D01*
X14364825Y-11215359D01*
X14360284Y-11213568D01*
X14355637Y-11211996D01*
X14350892Y-11210648D01*
X14346054Y-11209532D01*
X14341129Y-11208652D01*
X14336125Y-11208016D01*
X14331046Y-11207630D01*
X14325901Y-11207500D01*
X12620900Y-11207500D01*
X12615754Y-11207370D01*
X12610676Y-11206984D01*
X12605671Y-11206348D01*
X12600747Y-11205469D01*
X12595909Y-11204352D01*
X12591163Y-11203004D01*
X12586517Y-11201432D01*
X12581976Y-11199642D01*
X12577546Y-11197639D01*
X12573234Y-11195431D01*
X12569047Y-11193023D01*
X12564989Y-11190422D01*
X12561069Y-11187634D01*
X12557291Y-11184665D01*
X12553663Y-11181522D01*
X12550190Y-11178211D01*
X12546878Y-11174738D01*
X12543735Y-11171110D01*
X12540767Y-11167332D01*
X12537979Y-11163411D01*
X12535378Y-11159354D01*
X12532970Y-11155166D01*
X12530761Y-11150854D01*
X12528759Y-11146425D01*
X12526968Y-11141884D01*
X12525396Y-11137237D01*
X12524049Y-11132492D01*
X12522932Y-11127654D01*
X12522052Y-11122729D01*
X12521417Y-11117725D01*
X12521030Y-11112646D01*
X12520900Y-11107500D01*
X12520900Y-10831200D01*
X12520770Y-10826054D01*
X12520384Y-10820976D01*
X12519748Y-10815971D01*
X12518869Y-10811047D01*
X12517752Y-10806209D01*
X12516404Y-10801463D01*
X12514832Y-10796817D01*
X12513042Y-10792276D01*
X12511039Y-10787846D01*
X12508831Y-10783534D01*
X12506423Y-10779347D01*
X12503822Y-10775289D01*
X12501034Y-10771369D01*
X12498065Y-10767591D01*
X12494922Y-10763962D01*
X12491611Y-10760490D01*
X12488138Y-10757178D01*
X12484510Y-10754035D01*
X12480732Y-10751067D01*
X12476811Y-10748279D01*
X12472754Y-10745678D01*
X12468566Y-10743270D01*
X12464254Y-10741061D01*
X12459825Y-10739059D01*
X12455284Y-10737268D01*
X12450637Y-10735696D01*
X12445892Y-10734348D01*
X12441054Y-10733232D01*
X12436129Y-10732352D01*
X12431125Y-10731716D01*
X12426046Y-10731330D01*
X12420900Y-10731200D01*
X11210900Y-10731200D01*
X11205754Y-10731330D01*
X11200676Y-10731716D01*
X11195671Y-10732352D01*
X11190747Y-10733232D01*
X11185909Y-10734348D01*
X11181164Y-10735696D01*
X11176517Y-10737268D01*
X11171976Y-10739059D01*
X11167546Y-10741061D01*
X11163235Y-10743270D01*
X11159047Y-10745678D01*
X11154990Y-10748279D01*
X11151069Y-10751067D01*
X11147291Y-10754035D01*
X11143663Y-10757178D01*
X11140190Y-10760490D01*
X11136879Y-10763962D01*
X11133736Y-10767591D01*
X11130767Y-10771369D01*
X11127979Y-10775289D01*
X11125378Y-10779347D01*
X11122970Y-10783534D01*
X11120762Y-10787846D01*
X11118759Y-10792276D01*
X11116968Y-10796817D01*
X11115396Y-10801463D01*
X11114049Y-10806209D01*
X11112932Y-10811047D01*
X11112053Y-10815971D01*
X11111417Y-10820976D01*
X11111031Y-10826054D01*
X11110901Y-10831200D01*
X11110901Y-11107500D01*
X11110770Y-11112646D01*
X11110384Y-11117725D01*
X11109748Y-11122729D01*
X11108869Y-11127654D01*
X11107752Y-11132492D01*
X11106405Y-11137237D01*
X11104833Y-11141884D01*
X11103042Y-11146425D01*
X11101039Y-11150854D01*
X11098831Y-11155166D01*
X11096423Y-11159354D01*
X11093822Y-11163411D01*
X11091034Y-11167332D01*
X11088065Y-11171110D01*
X11084922Y-11174738D01*
X11081611Y-11178211D01*
X11078138Y-11181522D01*
X11074510Y-11184665D01*
X11070732Y-11187634D01*
X11066811Y-11190422D01*
X11062754Y-11193023D01*
X11058566Y-11195431D01*
X11054255Y-11197639D01*
X11049825Y-11199642D01*
X11045284Y-11201432D01*
X11040637Y-11203004D01*
X11035892Y-11204352D01*
X11031054Y-11205469D01*
X11026130Y-11206348D01*
X11021125Y-11206984D01*
X11016046Y-11207370D01*
X11010901Y-11207500D01*
X10684401Y-11207500D01*
X10678294Y-11207682D01*
X10672300Y-11208217D01*
X10666429Y-11209095D01*
X10660688Y-11210304D01*
X10655086Y-11211834D01*
X10649632Y-11213673D01*
X10644334Y-11215809D01*
X10639200Y-11218232D01*
X10634241Y-11220931D01*
X10629463Y-11223894D01*
X10624876Y-11227110D01*
X10620488Y-11230568D01*
X10616308Y-11234257D01*
X10612345Y-11238166D01*
X10608606Y-11242282D01*
X10605101Y-11246596D01*
X10601838Y-11251096D01*
X10598826Y-11255770D01*
X10596073Y-11260609D01*
X10593589Y-11265599D01*
X10591380Y-11270731D01*
X10589457Y-11275993D01*
X10587828Y-11281373D01*
X10586501Y-11286862D01*
X10585485Y-11292447D01*
X10584789Y-11298117D01*
X10584420Y-11303861D01*
X10584388Y-11309668D01*
X10584702Y-11315526D01*
X10585369Y-11321425D01*
X10586399Y-11327354D01*
X10587800Y-11333300D01*
X11112600Y-13292000D01*
X11113808Y-13297005D01*
X11114751Y-13302011D01*
X11115433Y-13307010D01*
X11115860Y-13311995D01*
X11116035Y-13316958D01*
X11115962Y-13321892D01*
X11115647Y-13326787D01*
X11115094Y-13331638D01*
X11114307Y-13336436D01*
X11113291Y-13341173D01*
X11112050Y-13345842D01*
X11110588Y-13350436D01*
X11108910Y-13354945D01*
X11107021Y-13359363D01*
X11104924Y-13363683D01*
X11102625Y-13367895D01*
X11100128Y-13371993D01*
X11097437Y-13375969D01*
X11094556Y-13379815D01*
X11091491Y-13383524D01*
X11088245Y-13387088D01*
X11084823Y-13390498D01*
X11081230Y-13393748D01*
X11077469Y-13396830D01*
X11073546Y-13399735D01*
X11069464Y-13402457D01*
X11065229Y-13404988D01*
X11060844Y-13407319D01*
X11056314Y-13409444D01*
X11051644Y-13411354D01*
X11046838Y-13413042D01*
X11041900Y-13414500D01*
X9303200Y-13880400D01*
X9297345Y-13882157D01*
X9291691Y-13884227D01*
X9286244Y-13886596D01*
X9281009Y-13889252D01*
X9275992Y-13892182D01*
X9271197Y-13895372D01*
X9266631Y-13898810D01*
X9262299Y-13902482D01*
X9258206Y-13906376D01*
X9254357Y-13910478D01*
X9250758Y-13914775D01*
X9247415Y-13919254D01*
X9244332Y-13923903D01*
X9241516Y-13928707D01*
X9238971Y-13933655D01*
X9236703Y-13938733D01*
X9234718Y-13943927D01*
X9233020Y-13949226D01*
X9231616Y-13954615D01*
X9230510Y-13960082D01*
X9229708Y-13965614D01*
X9229216Y-13971197D01*
X9229038Y-13976819D01*
X9229181Y-13982467D01*
X9229649Y-13988127D01*
X9230449Y-13993786D01*
X9231585Y-13999432D01*
X9233063Y-14005051D01*
X9234888Y-14010631D01*
X9237066Y-14016157D01*
X9239601Y-14021618D01*
X9242501Y-14027000D01*
X9388900Y-14280700D01*
X9391361Y-14285222D01*
X9393565Y-14289813D01*
X9395517Y-14294465D01*
X9397217Y-14299169D01*
X9398669Y-14303917D01*
X9399875Y-14308700D01*
X9400837Y-14313510D01*
X9401557Y-14318338D01*
X9402037Y-14323176D01*
X9402280Y-14328014D01*
X9402289Y-14332844D01*
X9402065Y-14337658D01*
X9401611Y-14342448D01*
X9400929Y-14347203D01*
X9400021Y-14351917D01*
X9398890Y-14356580D01*
X9397538Y-14361184D01*
X9395967Y-14365720D01*
X9394180Y-14370180D01*
X9392179Y-14374555D01*
X9389966Y-14378836D01*
X9387543Y-14383015D01*
X9384914Y-14387083D01*
X9382079Y-14391032D01*
X9379042Y-14394853D01*
X9375804Y-14398538D01*
X9372368Y-14402078D01*
X9368737Y-14405464D01*
X9364912Y-14408688D01*
X9360896Y-14411741D01*
X9356691Y-14414614D01*
X9352300Y-14417300D01*
X7360500Y-15567300D01*
X7357400Y-15561900D01*
X5887400Y-16795401D01*
X5883374Y-16798611D01*
X5879236Y-16801581D01*
X5874994Y-16804312D01*
X5870656Y-16806805D01*
X5866232Y-16809061D01*
X5861731Y-16811080D01*
X5857161Y-16812864D01*
X5852531Y-16814413D01*
X5847850Y-16815727D01*
X5843127Y-16816808D01*
X5838371Y-16817657D01*
X5833590Y-16818273D01*
X5828794Y-16818659D01*
X5823992Y-16818814D01*
X5819191Y-16818739D01*
X5814402Y-16818436D01*
X5809632Y-16817905D01*
X5804891Y-16817146D01*
X5800188Y-16816161D01*
X5795532Y-16814951D01*
X5790930Y-16813515D01*
X5786393Y-16811855D01*
X5781929Y-16809972D01*
X5777547Y-16807867D01*
X5773255Y-16805539D01*
X5769063Y-16802991D01*
X5764980Y-16800222D01*
X5761014Y-16797233D01*
X5757174Y-16794026D01*
X5753469Y-16790601D01*
X5749908Y-16786959D01*
X5746500Y-16783101D01*
X3720099Y-14368100D01*
X3716890Y-14364074D01*
X3713920Y-14359936D01*
X3711188Y-14355694D01*
X3708695Y-14351356D01*
X3706439Y-14346932D01*
X3704420Y-14342431D01*
X3702636Y-14337861D01*
X3701088Y-14333231D01*
X3699773Y-14328550D01*
X3698692Y-14323827D01*
X3697844Y-14319071D01*
X3697227Y-14314291D01*
X3696842Y-14309495D01*
X3696687Y-14304692D01*
X3696761Y-14299892D01*
X3697065Y-14295102D01*
X3697596Y-14290333D01*
X3698354Y-14285592D01*
X3699339Y-14280889D01*
X3700550Y-14276232D01*
X3701985Y-14271631D01*
X3703645Y-14267093D01*
X3705528Y-14262629D01*
X3707634Y-14258247D01*
X3709961Y-14253956D01*
X3712509Y-14249764D01*
X3715278Y-14245680D01*
X3718267Y-14241714D01*
X3721474Y-14237874D01*
X3724899Y-14234169D01*
X3728541Y-14230608D01*
X3732399Y-14227200D01*
X5417701Y-12813100D01*
X5421726Y-12809890D01*
X5425864Y-12806920D01*
X5430106Y-12804189D01*
X5434444Y-12801696D01*
X5438868Y-12799440D01*
X5443369Y-12797420D01*
X5447939Y-12795637D01*
X5452569Y-12794088D01*
X5457249Y-12792774D01*
X5461972Y-12791692D01*
X5466728Y-12790844D01*
X5471509Y-12790227D01*
X5476305Y-12789842D01*
X5481107Y-12789687D01*
X5485908Y-12789761D01*
X5490697Y-12790065D01*
X5495467Y-12790596D01*
X5500208Y-12791354D01*
X5504911Y-12792339D01*
X5509567Y-12793550D01*
X5514169Y-12794985D01*
X5518706Y-12796645D01*
X5523170Y-12798528D01*
X5527553Y-12800634D01*
X5531844Y-12802961D01*
X5536036Y-12805510D01*
X5540119Y-12808279D01*
X5544086Y-12811267D01*
X5547926Y-12814474D01*
X5551631Y-12817899D01*
X5555192Y-12821542D01*
X5558600Y-12825400D01*
X5734200Y-12750500D01*
X5731740Y-12745979D01*
X5729535Y-12741388D01*
X5727584Y-12736736D01*
X5725883Y-12732031D01*
X5724431Y-12727283D01*
X5723225Y-12722500D01*
X5722264Y-12717690D01*
X5721544Y-12712862D01*
X5721063Y-12708025D01*
X5720820Y-12703187D01*
X5720811Y-12698356D01*
X5721035Y-12693542D01*
X5721489Y-12688753D01*
X5722171Y-12683997D01*
X5723079Y-12679283D01*
X5724210Y-12674620D01*
X5725562Y-12670016D01*
X5727133Y-12665480D01*
X5728920Y-12661021D01*
X5730921Y-12656646D01*
X5733134Y-12652365D01*
X5735556Y-12648186D01*
X5738186Y-12644117D01*
X5741021Y-12640168D01*
X5744058Y-12636347D01*
X5747296Y-12632662D01*
X5750731Y-12629123D01*
X5754363Y-12625737D01*
X5758188Y-12622513D01*
X5762203Y-12619460D01*
X5766408Y-12616586D01*
X5770800Y-12613900D01*
X7058800Y-11870301D01*
X7066742Y-11865265D01*
X7073963Y-11859775D01*
X7080473Y-11853872D01*
X7086284Y-11847595D01*
X7091407Y-11840986D01*
X7095852Y-11834084D01*
X7099629Y-11826930D01*
X7102750Y-11819563D01*
X7105226Y-11812025D01*
X7107067Y-11804354D01*
X7108284Y-11796592D01*
X7108888Y-11788779D01*
X7108890Y-11780955D01*
X7108300Y-11773160D01*
X7107129Y-11765435D01*
X7105388Y-11757819D01*
X7103087Y-11750352D01*
X7100239Y-11743076D01*
X7096852Y-11736031D01*
X7092939Y-11729256D01*
X7088509Y-11722791D01*
X7083574Y-11716678D01*
X7078145Y-11710956D01*
X7072231Y-11705665D01*
X7065845Y-11700846D01*
X7058996Y-11696539D01*
X7051696Y-11692784D01*
X7043955Y-11689622D01*
X7035784Y-11687092D01*
X7027194Y-11685235D01*
X7018196Y-11684092D01*
X7008800Y-11683701D01*
X6905899Y-11683701D01*
X6900753Y-11683571D01*
X6895675Y-11683185D01*
X6890671Y-11682549D01*
X6885746Y-11681669D01*
X6880908Y-11680553D01*
X6876163Y-11679205D01*
X6871516Y-11677633D01*
X6866975Y-11675843D01*
X6862546Y-11673840D01*
X6858234Y-11671632D01*
X6854046Y-11669224D01*
X6849989Y-11666623D01*
X6846068Y-11663835D01*
X6842290Y-11660866D01*
X6838662Y-11657723D01*
X6835189Y-11654412D01*
X6831878Y-11650939D01*
X6828735Y-11647310D01*
X6825766Y-11643533D01*
X6822978Y-11639612D01*
X6820377Y-11635555D01*
X6817969Y-11631367D01*
X6815761Y-11627055D01*
X6813758Y-11622626D01*
X6811967Y-11618084D01*
X6810395Y-11613438D01*
X6809048Y-11608693D01*
X6807931Y-11603854D01*
X6807052Y-11598930D01*
X6806416Y-11593925D01*
X6806029Y-11588847D01*
X6805899Y-11583701D01*
X6805899Y-9778702D01*
X6805899Y-9283702D01*
X6805947Y-8616200D01*
X4331171Y-8616200D01*
X4331171Y-3568700D01*
X6905899Y-3568700D01*
X8610900Y-3568700D01*
X8616046Y-3568570D01*
X8621124Y-3568184D01*
X8626129Y-3567548D01*
X8631053Y-3566668D01*
X8635891Y-3565552D01*
X8640637Y-3564204D01*
X8645283Y-3562632D01*
X8649824Y-3560842D01*
X8654254Y-3558839D01*
X8658566Y-3556631D01*
X8662753Y-3554223D01*
X8666811Y-3551622D01*
X8670731Y-3548834D01*
X8674509Y-3545865D01*
X8678137Y-3542722D01*
X8681610Y-3539411D01*
X8684922Y-3535938D01*
X8688065Y-3532309D01*
X8691033Y-3528532D01*
X8693821Y-3524611D01*
X8696422Y-3520554D01*
X8698830Y-3516366D01*
X8701039Y-3512054D01*
X8703041Y-3507625D01*
X8704832Y-3503083D01*
X8706404Y-3498437D01*
X8707751Y-3493692D01*
X8708868Y-3488854D01*
X8709748Y-3483929D01*
X8710383Y-3478925D01*
X8710770Y-3473846D01*
X8710900Y-3468700D01*
X8710900Y-3192500D01*
X8711030Y-3187354D01*
X8711416Y-3182276D01*
X8712052Y-3177271D01*
X8712931Y-3172346D01*
X8714048Y-3167508D01*
X8715396Y-3162763D01*
X8716968Y-3158117D01*
X8718758Y-3153575D01*
X8720761Y-3149146D01*
X8722969Y-3144834D01*
X8725377Y-3140646D01*
X8727978Y-3136589D01*
X8730766Y-3132668D01*
X8733735Y-3128891D01*
X8736878Y-3125262D01*
X8740189Y-3121789D01*
X8743662Y-3118478D01*
X8747290Y-3115335D01*
X8751068Y-3112366D01*
X8754989Y-3109578D01*
X8759046Y-3106977D01*
X8763234Y-3104569D01*
X8767546Y-3102361D01*
X8771975Y-3100358D01*
X8776516Y-3098568D01*
X8781163Y-3096996D01*
X8785908Y-3095648D01*
X8790746Y-3094532D01*
X8795671Y-3093652D01*
X8800675Y-3093016D01*
X8805754Y-3092630D01*
X8810900Y-3092500D01*
X10515900Y-3092500D01*
X10521046Y-3092370D01*
X10526124Y-3091984D01*
X10531129Y-3091348D01*
X10536054Y-3090468D01*
X10540892Y-3089352D01*
X10545637Y-3088004D01*
X10550283Y-3086432D01*
X10554825Y-3084641D01*
X10559254Y-3082639D01*
X10563566Y-3080430D01*
X10567754Y-3078023D01*
X10571811Y-3075422D01*
X10575732Y-3072633D01*
X10579509Y-3069665D01*
X10583138Y-3066522D01*
X10586611Y-3063211D01*
X10589922Y-3059738D01*
X10593065Y-3056109D01*
X10596034Y-3052332D01*
X10598822Y-3048411D01*
X10601423Y-3044354D01*
X10603831Y-3040166D01*
X10606039Y-3035854D01*
X10608042Y-3031424D01*
X10609832Y-3026883D01*
X10611404Y-3022237D01*
X10612752Y-3017492D01*
X10613868Y-3012653D01*
X10614748Y-3007729D01*
X10615384Y-3002724D01*
X10615770Y-2997646D01*
X10615900Y-2992500D01*
X10615900Y-2716200D01*
X10616030Y-2711054D01*
X10616416Y-2705976D01*
X10617052Y-2700971D01*
X10617932Y-2696047D01*
X10619048Y-2691208D01*
X10620396Y-2686463D01*
X10621968Y-2681817D01*
X10623759Y-2677276D01*
X10625761Y-2672846D01*
X10627970Y-2668534D01*
X10630377Y-2664346D01*
X10632979Y-2660289D01*
X10635767Y-2656368D01*
X10638735Y-2652591D01*
X10641878Y-2648962D01*
X10645189Y-2645489D01*
X10648662Y-2642178D01*
X10652291Y-2639035D01*
X10656068Y-2636067D01*
X10659989Y-2633278D01*
X10664046Y-2630677D01*
X10668234Y-2628270D01*
X10672546Y-2626061D01*
X10676976Y-2624059D01*
X10681517Y-2622268D01*
X10686163Y-2620696D01*
X10690909Y-2619348D01*
X10695747Y-2618232D01*
X10700671Y-2617352D01*
X10705676Y-2616716D01*
X10710754Y-2616330D01*
X10715900Y-2616200D01*
X12915900Y-2616200D01*
X12921046Y-2616330D01*
D11*
D12*
X4700000Y-7995000D02*
X4850000Y-8145000D01*
X4850000Y-7995000D02*
X4700000Y-8145000D01*
X5400000Y-7995000D02*
X5550000Y-8145000D01*
X5550000Y-7995000D02*
X5400000Y-8145000D01*
D13*
X5739169Y-15431413D02*
G75*
G02*
X5579169Y-15431413I-80000J0D01*
G01*
X5579169Y-15431413D02*
G75*
G02*
X5739169Y-15431413I80000J0D01*
G01*
X7524673Y-14122838D02*
G75*
G02*
X7364673Y-14122838I-80000J0D01*
G01*
X7364673Y-14122838D02*
G75*
G02*
X7524673Y-14122838I80000J0D01*
G01*
X7644500Y-5194950D02*
G75*
G02*
X7484500Y-5194950I-80000J0D01*
G01*
X7484500Y-5194950D02*
G75*
G02*
X7644500Y-5194950I80000J0D01*
G01*
X7644500Y-7099950D02*
G75*
G02*
X7484500Y-7099950I-80000J0D01*
G01*
X7484500Y-7099950D02*
G75*
G02*
X7644500Y-7099950I80000J0D01*
G01*
X7644500Y-9004950D02*
G75*
G02*
X7484500Y-9004950I-80000J0D01*
G01*
X7484500Y-9004950D02*
G75*
G02*
X7644500Y-9004950I80000J0D01*
G01*
X7644500Y-10909950D02*
G75*
G02*
X7484500Y-10909950I-80000J0D01*
G01*
X7484500Y-10909950D02*
G75*
G02*
X7644500Y-10909950I80000J0D01*
G01*
X9457754Y-13078207D02*
G75*
G02*
X9297754Y-13078207I-80000J0D01*
G01*
X9297754Y-13078207D02*
G75*
G02*
X9457754Y-13078207I80000J0D01*
G01*
X9549500Y-4718700D02*
G75*
G02*
X9389500Y-4718700I-80000J0D01*
G01*
X9389500Y-4718700D02*
G75*
G02*
X9549500Y-4718700I80000J0D01*
G01*
X9549500Y-6623700D02*
G75*
G02*
X9389500Y-6623700I-80000J0D01*
G01*
X9389500Y-6623700D02*
G75*
G02*
X9549500Y-6623700I80000J0D01*
G01*
X9549500Y-8528700D02*
G75*
G02*
X9389500Y-8528700I-80000J0D01*
G01*
X9389500Y-8528700D02*
G75*
G02*
X9549500Y-8528700I80000J0D01*
G01*
X9549500Y-10433700D02*
G75*
G02*
X9389500Y-10433700I-80000J0D01*
G01*
X9389500Y-10433700D02*
G75*
G02*
X9549500Y-10433700I80000J0D01*
G01*
X11454500Y-4242450D02*
G75*
G02*
X11294500Y-4242450I-80000J0D01*
G01*
X11294500Y-4242450D02*
G75*
G02*
X11454500Y-4242450I80000J0D01*
G01*
X11454500Y-6147450D02*
G75*
G02*
X11294500Y-6147450I-80000J0D01*
G01*
X11294500Y-6147450D02*
G75*
G02*
X11454500Y-6147450I80000J0D01*
G01*
X11454500Y-8052450D02*
G75*
G02*
X11294500Y-8052450I-80000J0D01*
G01*
X11294500Y-8052450D02*
G75*
G02*
X11454500Y-8052450I80000J0D01*
G01*
X11454500Y-9957450D02*
G75*
G02*
X11294500Y-9957450I-80000J0D01*
G01*
X11294500Y-9957450D02*
G75*
G02*
X11454500Y-9957450I80000J0D01*
G01*
X13359500Y-4718700D02*
G75*
G02*
X13199500Y-4718700I-80000J0D01*
G01*
X13199500Y-4718700D02*
G75*
G02*
X13359500Y-4718700I80000J0D01*
G01*
X13359500Y-6623700D02*
G75*
G02*
X13199500Y-6623700I-80000J0D01*
G01*
X13199500Y-6623700D02*
G75*
G02*
X13359500Y-6623700I80000J0D01*
G01*
X13359500Y-8528700D02*
G75*
G02*
X13199500Y-8528700I-80000J0D01*
G01*
X13199500Y-8528700D02*
G75*
G02*
X13359500Y-8528700I80000J0D01*
G01*
X13359500Y-10433700D02*
G75*
G02*
X13199500Y-10433700I-80000J0D01*
G01*
X13199500Y-10433700D02*
G75*
G02*
X13359500Y-10433700I80000J0D01*
G01*
X15264500Y-5194950D02*
G75*
G02*
X15104500Y-5194950I-80000J0D01*
G01*
X15104500Y-5194950D02*
G75*
G02*
X15264500Y-5194950I80000J0D01*
G01*
X15264500Y-7099950D02*
G75*
G02*
X15104500Y-7099950I-80000J0D01*
G01*
X15104500Y-7099950D02*
G75*
G02*
X15264500Y-7099950I80000J0D01*
G01*
X15264500Y-9004950D02*
G75*
G02*
X15104500Y-9004950I-80000J0D01*
G01*
X15104500Y-9004950D02*
G75*
G02*
X15264500Y-9004950I80000J0D01*
G01*
X15264500Y-10909950D02*
G75*
G02*
X15104500Y-10909950I-80000J0D01*
G01*
X15104500Y-10909950D02*
G75*
G02*
X15264500Y-10909950I80000J0D01*
G01*
X17169500Y-5194950D02*
G75*
G02*
X17009500Y-5194950I-80000J0D01*
G01*
X17009500Y-5194950D02*
G75*
G02*
X17169500Y-5194950I80000J0D01*
G01*
X17169500Y-7099950D02*
G75*
G02*
X17009500Y-7099950I-80000J0D01*
G01*
X17009500Y-7099950D02*
G75*
G02*
X17169500Y-7099950I80000J0D01*
G01*
X17169500Y-9004950D02*
G75*
G02*
X17009500Y-9004950I-80000J0D01*
G01*
X17009500Y-9004950D02*
G75*
G02*
X17169500Y-9004950I80000J0D01*
G01*
X17169500Y-10909950D02*
G75*
G02*
X17009500Y-10909950I-80000J0D01*
G01*
X17009500Y-10909950D02*
G75*
G02*
X17169500Y-10909950I80000J0D01*
G01*
D14*
X6868800Y-3808700D02*
X6868800Y-4028700D01*
X6758800Y-3918700D02*
X6978800Y-3918700D01*
X7257400Y-15101900D02*
X7257400Y-15321900D01*
X7147400Y-15211900D02*
X7367400Y-15211900D01*
X18470600Y-11312100D02*
X18470600Y-11532100D01*
X18360600Y-11422100D02*
X18580600Y-11422100D01*
X18570600Y-3600600D02*
X18570600Y-3820600D01*
X18460600Y-3710600D02*
X18680600Y-3710600D01*
D15*
X5439746Y-14371375D02*
X5439746Y-14155705D01*
X5224076Y-14155705D01*
X5224076Y-14371375D01*
X5439746Y-14371375D01*
X5957753Y-14210850D02*
X5957753Y-13995181D01*
X5742084Y-13995181D01*
X5742084Y-14210850D01*
X5957753Y-14210850D01*
X7433020Y-13023715D02*
X7433020Y-12808046D01*
X7217351Y-12808046D01*
X7217351Y-13023715D01*
X7433020Y-13023715D01*
X7971033Y-12955580D02*
X7971033Y-12739911D01*
X7755363Y-12739911D01*
X7755363Y-12955580D01*
X7971033Y-12955580D01*
X8172335Y-4197785D02*
X8172335Y-3982115D01*
X7956665Y-3982115D01*
X7956665Y-4197785D01*
X8172335Y-4197785D01*
X8172335Y-6102785D02*
X8172335Y-5887115D01*
X7956665Y-5887115D01*
X7956665Y-6102785D01*
X8172335Y-6102785D01*
X8172335Y-8007785D02*
X8172335Y-7792115D01*
X7956665Y-7792115D01*
X7956665Y-8007785D01*
X8172335Y-8007785D01*
X8172335Y-9912785D02*
X8172335Y-9697115D01*
X7956665Y-9697115D01*
X7956665Y-9912785D01*
X8172335Y-9912785D01*
X8672335Y-4407785D02*
X8672335Y-4192115D01*
X8456665Y-4192115D01*
X8456665Y-4407785D01*
X8672335Y-4407785D01*
X8672335Y-6312785D02*
X8672335Y-6097115D01*
X8456665Y-6097115D01*
X8456665Y-6312785D01*
X8672335Y-6312785D01*
X8672335Y-8217785D02*
X8672335Y-8002115D01*
X8456665Y-8002115D01*
X8456665Y-8217785D01*
X8672335Y-8217785D01*
X8672335Y-10122785D02*
X8672335Y-9907115D01*
X8456665Y-9907115D01*
X8456665Y-10122785D01*
X8672335Y-10122785D01*
X9682556Y-11989284D02*
X9682556Y-11773614D01*
X9466887Y-11773614D01*
X9466887Y-11989284D01*
X9682556Y-11989284D01*
X10077335Y-3721535D02*
X10077335Y-3505865D01*
X9861665Y-3505865D01*
X9861665Y-3721535D01*
X10077335Y-3721535D01*
X10077335Y-5626535D02*
X10077335Y-5410865D01*
X9861665Y-5410865D01*
X9861665Y-5626535D01*
X10077335Y-5626535D01*
X10077335Y-7531535D02*
X10077335Y-7315865D01*
X9861665Y-7315865D01*
X9861665Y-7531535D01*
X10077335Y-7531535D01*
X10077335Y-9436535D02*
X10077335Y-9220865D01*
X9861665Y-9220865D01*
X9861665Y-9436535D01*
X10077335Y-9436535D01*
X10219871Y-12062719D02*
X10219871Y-11847049D01*
X10004202Y-11847049D01*
X10004202Y-12062719D01*
X10219871Y-12062719D01*
X10577335Y-3931535D02*
X10577335Y-3715865D01*
X10361665Y-3715865D01*
X10361665Y-3931535D01*
X10577335Y-3931535D01*
X10577335Y-5836535D02*
X10577335Y-5620865D01*
X10361665Y-5620865D01*
X10361665Y-5836535D01*
X10577335Y-5836535D01*
X10577335Y-7741535D02*
X10577335Y-7525865D01*
X10361665Y-7525865D01*
X10361665Y-7741535D01*
X10577335Y-7741535D01*
X10577335Y-9646535D02*
X10577335Y-9430865D01*
X10361665Y-9430865D01*
X10361665Y-9646535D01*
X10577335Y-9646535D01*
X11982335Y-3245285D02*
X11982335Y-3029615D01*
X11766665Y-3029615D01*
X11766665Y-3245285D01*
X11982335Y-3245285D01*
X11982335Y-5150285D02*
X11982335Y-4934615D01*
X11766665Y-4934615D01*
X11766665Y-5150285D01*
X11982335Y-5150285D01*
X11982335Y-7055285D02*
X11982335Y-6839615D01*
X11766665Y-6839615D01*
X11766665Y-7055285D01*
X11982335Y-7055285D01*
X11982335Y-8960285D02*
X11982335Y-8744615D01*
X11766665Y-8744615D01*
X11766665Y-8960285D01*
X11982335Y-8960285D01*
X12482335Y-3455285D02*
X12482335Y-3239615D01*
X12266665Y-3239615D01*
X12266665Y-3455285D01*
X12482335Y-3455285D01*
X12482335Y-5360285D02*
X12482335Y-5144615D01*
X12266665Y-5144615D01*
X12266665Y-5360285D01*
X12482335Y-5360285D01*
X12482335Y-7265285D02*
X12482335Y-7049615D01*
X12266665Y-7049615D01*
X12266665Y-7265285D01*
X12482335Y-7265285D01*
X12482335Y-9170285D02*
X12482335Y-8954615D01*
X12266665Y-8954615D01*
X12266665Y-9170285D01*
X12482335Y-9170285D01*
X13887335Y-3721535D02*
X13887335Y-3505865D01*
X13671665Y-3505865D01*
X13671665Y-3721535D01*
X13887335Y-3721535D01*
X13887335Y-5626535D02*
X13887335Y-5410865D01*
X13671665Y-5410865D01*
X13671665Y-5626535D01*
X13887335Y-5626535D01*
X13887335Y-7531535D02*
X13887335Y-7315865D01*
X13671665Y-7315865D01*
X13671665Y-7531535D01*
X13887335Y-7531535D01*
X13887335Y-9436535D02*
X13887335Y-9220865D01*
X13671665Y-9220865D01*
X13671665Y-9436535D01*
X13887335Y-9436535D01*
X14387335Y-3931535D02*
X14387335Y-3715865D01*
X14171665Y-3715865D01*
X14171665Y-3931535D01*
X14387335Y-3931535D01*
X14387335Y-5836535D02*
X14387335Y-5620865D01*
X14171665Y-5620865D01*
X14171665Y-5836535D01*
X14387335Y-5836535D01*
X14387335Y-7741535D02*
X14387335Y-7525865D01*
X14171665Y-7525865D01*
X14171665Y-7741535D01*
X14387335Y-7741535D01*
X14387335Y-9646535D02*
X14387335Y-9430865D01*
X14171665Y-9430865D01*
X14171665Y-9646535D01*
X14387335Y-9646535D01*
X15792335Y-4197785D02*
X15792335Y-3982115D01*
X15576665Y-3982115D01*
X15576665Y-4197785D01*
X15792335Y-4197785D01*
X15792335Y-6102785D02*
X15792335Y-5887115D01*
X15576665Y-5887115D01*
X15576665Y-6102785D01*
X15792335Y-6102785D01*
X15792335Y-8007785D02*
X15792335Y-7792115D01*
X15576665Y-7792115D01*
X15576665Y-8007785D01*
X15792335Y-8007785D01*
X15792335Y-9912785D02*
X15792335Y-9697115D01*
X15576665Y-9697115D01*
X15576665Y-9912785D01*
X15792335Y-9912785D01*
X16292335Y-4407785D02*
X16292335Y-4192115D01*
X16076665Y-4192115D01*
X16076665Y-4407785D01*
X16292335Y-4407785D01*
X16292335Y-6312785D02*
X16292335Y-6097115D01*
X16076665Y-6097115D01*
X16076665Y-6312785D01*
X16292335Y-6312785D01*
X16292335Y-8217785D02*
X16292335Y-8002115D01*
X16076665Y-8002115D01*
X16076665Y-8217785D01*
X16292335Y-8217785D01*
X16292335Y-10122785D02*
X16292335Y-9907115D01*
X16076665Y-9907115D01*
X16076665Y-10122785D01*
X16292335Y-10122785D01*
X17697335Y-4197785D02*
X17697335Y-3982115D01*
X17481665Y-3982115D01*
X17481665Y-4197785D01*
X17697335Y-4197785D01*
X17697335Y-6102785D02*
X17697335Y-5887115D01*
X17481665Y-5887115D01*
X17481665Y-6102785D01*
X17697335Y-6102785D01*
X17697335Y-8007785D02*
X17697335Y-7792115D01*
X17481665Y-7792115D01*
X17481665Y-8007785D01*
X17697335Y-8007785D01*
X17697335Y-9912785D02*
X17697335Y-9697115D01*
X17481665Y-9697115D01*
X17481665Y-9912785D01*
X17697335Y-9912785D01*
X18197335Y-4407785D02*
X18197335Y-4192115D01*
X17981665Y-4192115D01*
X17981665Y-4407785D01*
X18197335Y-4407785D01*
X18197335Y-6312785D02*
X18197335Y-6097115D01*
X17981665Y-6097115D01*
X17981665Y-6312785D01*
X18197335Y-6312785D01*
X18197335Y-8217785D02*
X18197335Y-8002115D01*
X17981665Y-8002115D01*
X17981665Y-8217785D01*
X18197335Y-8217785D01*
X18197335Y-10122785D02*
X18197335Y-9907115D01*
X17981665Y-9907115D01*
X17981665Y-10122785D01*
X18197335Y-10122785D01*
D16*
X5711156Y-14968006D02*
X5963656Y-14715506D01*
X5711156Y-14463006D01*
X5458656Y-14715506D01*
X5711156Y-14968006D01*
X7620186Y-13679335D02*
X7872686Y-13426835D01*
X7620186Y-13174335D01*
X7367686Y-13426835D01*
X7620186Y-13679335D01*
X8064500Y-4932450D02*
X8317000Y-4679950D01*
X8064500Y-4427450D01*
X7812000Y-4679950D01*
X8064500Y-4932450D01*
X8064500Y-6837450D02*
X8317000Y-6584950D01*
X8064500Y-6332450D01*
X7812000Y-6584950D01*
X8064500Y-6837450D01*
X8064500Y-8742450D02*
X8317000Y-8489950D01*
X8064500Y-8237450D01*
X7812000Y-8489950D01*
X8064500Y-8742450D01*
X8064500Y-10647450D02*
X8317000Y-10394950D01*
X8064500Y-10142450D01*
X7812000Y-10394950D01*
X8064500Y-10647450D01*
X9727425Y-12703845D02*
X9979925Y-12451345D01*
X9727425Y-12198845D01*
X9474925Y-12451345D01*
X9727425Y-12703845D01*
X9969500Y-4456200D02*
X10222000Y-4203700D01*
X9969500Y-3951200D01*
X9717000Y-4203700D01*
X9969500Y-4456200D01*
X9969500Y-6361200D02*
X10222000Y-6108700D01*
X9969500Y-5856200D01*
X9717000Y-6108700D01*
X9969500Y-6361200D01*
X9969500Y-8266200D02*
X10222000Y-8013700D01*
X9969500Y-7761200D01*
X9717000Y-8013700D01*
X9969500Y-8266200D01*
X9969500Y-10171200D02*
X10222000Y-9918700D01*
X9969500Y-9666200D01*
X9717000Y-9918700D01*
X9969500Y-10171200D01*
X11874500Y-3979950D02*
X12127000Y-3727450D01*
X11874500Y-3474950D01*
X11622000Y-3727450D01*
X11874500Y-3979950D01*
X11874500Y-5884950D02*
X12127000Y-5632450D01*
X11874500Y-5379950D01*
X11622000Y-5632450D01*
X11874500Y-5884950D01*
X11874500Y-7789950D02*
X12127000Y-7537450D01*
X11874500Y-7284950D01*
X11622000Y-7537450D01*
X11874500Y-7789950D01*
X11874500Y-9694950D02*
X12127000Y-9442450D01*
X11874500Y-9189950D01*
X11622000Y-9442450D01*
X11874500Y-9694950D01*
X13779500Y-4456200D02*
X14032000Y-4203700D01*
X13779500Y-3951200D01*
X13527000Y-4203700D01*
X13779500Y-4456200D01*
X13779500Y-6361200D02*
X14032000Y-6108700D01*
X13779500Y-5856200D01*
X13527000Y-6108700D01*
X13779500Y-6361200D01*
X13779500Y-8266200D02*
X14032000Y-8013700D01*
X13779500Y-7761200D01*
X13527000Y-8013700D01*
X13779500Y-8266200D01*
X13779500Y-10171200D02*
X14032000Y-9918700D01*
X13779500Y-9666200D01*
X13527000Y-9918700D01*
X13779500Y-10171200D01*
X15684500Y-4932450D02*
X15937000Y-4679950D01*
X15684500Y-4427450D01*
X15432000Y-4679950D01*
X15684500Y-4932450D01*
X15684500Y-6837450D02*
X15937000Y-6584950D01*
X15684500Y-6332450D01*
X15432000Y-6584950D01*
X15684500Y-6837450D01*
X15684500Y-8742450D02*
X15937000Y-8489950D01*
X15684500Y-8237450D01*
X15432000Y-8489950D01*
X15684500Y-8742450D01*
X15684500Y-10647450D02*
X15937000Y-10394950D01*
X15684500Y-10142450D01*
X15432000Y-10394950D01*
X15684500Y-10647450D01*
X17589500Y-4932450D02*
X17842000Y-4679950D01*
X17589500Y-4427450D01*
X17337000Y-4679950D01*
X17589500Y-4932450D01*
X17589500Y-6837450D02*
X17842000Y-6584950D01*
X17589500Y-6332450D01*
X17337000Y-6584950D01*
X17589500Y-6837450D01*
X17589500Y-8742450D02*
X17842000Y-8489950D01*
X17589500Y-8237450D01*
X17337000Y-8489950D01*
X17589500Y-8742450D01*
X17589500Y-10647450D02*
X17842000Y-10394950D01*
X17589500Y-10142450D01*
X17337000Y-10394950D01*
X17589500Y-10647450D01*
D11*
X3910220Y-17177542D02*
X3910220Y-16977542D01*
X3910220Y-16977542D02*
X3957839Y-16977542D01*
X3957839Y-16977542D02*
X3986410Y-16987065D01*
X3986410Y-16987065D02*
X4005458Y-17006113D01*
X4005458Y-17006113D02*
X4014982Y-17025161D01*
X4014982Y-17025161D02*
X4024505Y-17063256D01*
X4024505Y-17063256D02*
X4024505Y-17091827D01*
X4024505Y-17091827D02*
X4014982Y-17129922D01*
X4014982Y-17129922D02*
X4005458Y-17148970D01*
X4005458Y-17148970D02*
X3986410Y-17168018D01*
X3986410Y-17168018D02*
X3957839Y-17177542D01*
X3957839Y-17177542D02*
X3910220Y-17177542D01*
X4110220Y-17177542D02*
X4110220Y-17044208D01*
X4110220Y-17082303D02*
X4119743Y-17063256D01*
X4119743Y-17063256D02*
X4129267Y-17053732D01*
X4129267Y-17053732D02*
X4148315Y-17044208D01*
X4148315Y-17044208D02*
X4167363Y-17044208D01*
X4234029Y-17177542D02*
X4234029Y-17044208D01*
X4234029Y-16977542D02*
X4224505Y-16987065D01*
X4224505Y-16987065D02*
X4234029Y-16996589D01*
X4234029Y-16996589D02*
X4243553Y-16987065D01*
X4243553Y-16987065D02*
X4234029Y-16977542D01*
X4234029Y-16977542D02*
X4234029Y-16996589D01*
X4357839Y-17177542D02*
X4338791Y-17168018D01*
X4338791Y-17168018D02*
X4329267Y-17148970D01*
X4329267Y-17148970D02*
X4329267Y-16977542D01*
X4462601Y-17177542D02*
X4443553Y-17168018D01*
X4443553Y-17168018D02*
X4434029Y-17148970D01*
X4434029Y-17148970D02*
X4434029Y-16977542D01*
X4691172Y-17177542D02*
X4691172Y-16977542D01*
X4691172Y-16977542D02*
X4757839Y-17120399D01*
X4757839Y-17120399D02*
X4824505Y-16977542D01*
X4824505Y-16977542D02*
X4824505Y-17177542D01*
X5005458Y-17177542D02*
X5005458Y-17072780D01*
X5005458Y-17072780D02*
X4995934Y-17053732D01*
X4995934Y-17053732D02*
X4976886Y-17044208D01*
X4976886Y-17044208D02*
X4938791Y-17044208D01*
X4938791Y-17044208D02*
X4919744Y-17053732D01*
X5005458Y-17168018D02*
X4986410Y-17177542D01*
X4986410Y-17177542D02*
X4938791Y-17177542D01*
X4938791Y-17177542D02*
X4919744Y-17168018D01*
X4919744Y-17168018D02*
X4910220Y-17148970D01*
X4910220Y-17148970D02*
X4910220Y-17129922D01*
X4910220Y-17129922D02*
X4919744Y-17110875D01*
X4919744Y-17110875D02*
X4938791Y-17101351D01*
X4938791Y-17101351D02*
X4986410Y-17101351D01*
X4986410Y-17101351D02*
X5005458Y-17091827D01*
X5100696Y-17044208D02*
X5100696Y-17244208D01*
X5100696Y-17053732D02*
X5119744Y-17044208D01*
X5119744Y-17044208D02*
X5157839Y-17044208D01*
X5157839Y-17044208D02*
X5176886Y-17053732D01*
X5176886Y-17053732D02*
X5186410Y-17063256D01*
X5186410Y-17063256D02*
X5195934Y-17082303D01*
X5195934Y-17082303D02*
X5195934Y-17139446D01*
X5195934Y-17139446D02*
X5186410Y-17158494D01*
X5186410Y-17158494D02*
X5176886Y-17168018D01*
X5176886Y-17168018D02*
X5157839Y-17177542D01*
X5157839Y-17177542D02*
X5119744Y-17177542D01*
X5119744Y-17177542D02*
X5100696Y-17168018D01*
X5281648Y-17158494D02*
X5291172Y-17168018D01*
X5291172Y-17168018D02*
X5281648Y-17177542D01*
X5281648Y-17177542D02*
X5272125Y-17168018D01*
X5272125Y-17168018D02*
X5281648Y-17158494D01*
X5281648Y-17158494D02*
X5281648Y-17177542D01*
X5281648Y-17053732D02*
X5291172Y-17063256D01*
X5291172Y-17063256D02*
X5281648Y-17072780D01*
X5281648Y-17072780D02*
X5272125Y-17063256D01*
X5272125Y-17063256D02*
X5281648Y-17053732D01*
X5281648Y-17053732D02*
X5281648Y-17072780D01*
D12*
X3499443Y-17431058D02*
X3649443Y-17581058D01*
X3649443Y-17431058D02*
X3499443Y-17581058D01*
D11*
X4014982Y-17597542D02*
X3900696Y-17597542D01*
X3957839Y-17597542D02*
X3957839Y-17397542D01*
X3957839Y-17397542D02*
X3938791Y-17426113D01*
X3938791Y-17426113D02*
X3919743Y-17445161D01*
X3919743Y-17445161D02*
X3900696Y-17454684D01*
X4100696Y-17578494D02*
X4110220Y-17588018D01*
X4110220Y-17588018D02*
X4100696Y-17597542D01*
X4100696Y-17597542D02*
X4091172Y-17588018D01*
X4091172Y-17588018D02*
X4100696Y-17578494D01*
X4100696Y-17578494D02*
X4100696Y-17597542D01*
X4291172Y-17397542D02*
X4195934Y-17397542D01*
X4195934Y-17397542D02*
X4186410Y-17492780D01*
X4186410Y-17492780D02*
X4195934Y-17483256D01*
X4195934Y-17483256D02*
X4214982Y-17473732D01*
X4214982Y-17473732D02*
X4262601Y-17473732D01*
X4262601Y-17473732D02*
X4281648Y-17483256D01*
X4281648Y-17483256D02*
X4291172Y-17492780D01*
X4291172Y-17492780D02*
X4300696Y-17511827D01*
X4300696Y-17511827D02*
X4300696Y-17559446D01*
X4300696Y-17559446D02*
X4291172Y-17578494D01*
X4291172Y-17578494D02*
X4281648Y-17588018D01*
X4281648Y-17588018D02*
X4262601Y-17597542D01*
X4262601Y-17597542D02*
X4214982Y-17597542D01*
X4214982Y-17597542D02*
X4195934Y-17588018D01*
X4195934Y-17588018D02*
X4186410Y-17578494D01*
X4424505Y-17397542D02*
X4443553Y-17397542D01*
X4443553Y-17397542D02*
X4462601Y-17407065D01*
X4462601Y-17407065D02*
X4472125Y-17416589D01*
X4472125Y-17416589D02*
X4481648Y-17435637D01*
X4481648Y-17435637D02*
X4491172Y-17473732D01*
X4491172Y-17473732D02*
X4491172Y-17521351D01*
X4491172Y-17521351D02*
X4481648Y-17559446D01*
X4481648Y-17559446D02*
X4472125Y-17578494D01*
X4472125Y-17578494D02*
X4462601Y-17588018D01*
X4462601Y-17588018D02*
X4443553Y-17597542D01*
X4443553Y-17597542D02*
X4424505Y-17597542D01*
X4424505Y-17597542D02*
X4405458Y-17588018D01*
X4405458Y-17588018D02*
X4395934Y-17578494D01*
X4395934Y-17578494D02*
X4386410Y-17559446D01*
X4386410Y-17559446D02*
X4376886Y-17521351D01*
X4376886Y-17521351D02*
X4376886Y-17473732D01*
X4376886Y-17473732D02*
X4386410Y-17435637D01*
X4386410Y-17435637D02*
X4395934Y-17416589D01*
X4395934Y-17416589D02*
X4405458Y-17407065D01*
X4405458Y-17407065D02*
X4424505Y-17397542D01*
X4614982Y-17397542D02*
X4634029Y-17397542D01*
X4634029Y-17397542D02*
X4653077Y-17407065D01*
X4653077Y-17407065D02*
X4662601Y-17416589D01*
X4662601Y-17416589D02*
X4672125Y-17435637D01*
X4672125Y-17435637D02*
X4681648Y-17473732D01*
X4681648Y-17473732D02*
X4681648Y-17521351D01*
X4681648Y-17521351D02*
X4672125Y-17559446D01*
X4672125Y-17559446D02*
X4662601Y-17578494D01*
X4662601Y-17578494D02*
X4653077Y-17588018D01*
X4653077Y-17588018D02*
X4634029Y-17597542D01*
X4634029Y-17597542D02*
X4614982Y-17597542D01*
X4614982Y-17597542D02*
X4595934Y-17588018D01*
X4595934Y-17588018D02*
X4586410Y-17578494D01*
X4586410Y-17578494D02*
X4576886Y-17559446D01*
X4576886Y-17559446D02*
X4567363Y-17521351D01*
X4567363Y-17521351D02*
X4567363Y-17473732D01*
X4567363Y-17473732D02*
X4576886Y-17435637D01*
X4576886Y-17435637D02*
X4586410Y-17416589D01*
X4586410Y-17416589D02*
X4595934Y-17407065D01*
X4595934Y-17407065D02*
X4614982Y-17397542D01*
X4767363Y-17597542D02*
X4767363Y-17464208D01*
X4767363Y-17483256D02*
X4776886Y-17473732D01*
X4776886Y-17473732D02*
X4795934Y-17464208D01*
X4795934Y-17464208D02*
X4824506Y-17464208D01*
X4824506Y-17464208D02*
X4843553Y-17473732D01*
X4843553Y-17473732D02*
X4853077Y-17492780D01*
X4853077Y-17492780D02*
X4853077Y-17597542D01*
X4853077Y-17492780D02*
X4862601Y-17473732D01*
X4862601Y-17473732D02*
X4881648Y-17464208D01*
X4881648Y-17464208D02*
X4910220Y-17464208D01*
X4910220Y-17464208D02*
X4929267Y-17473732D01*
X4929267Y-17473732D02*
X4938791Y-17492780D01*
X4938791Y-17492780D02*
X4938791Y-17597542D01*
X5034029Y-17597542D02*
X5034029Y-17464208D01*
X5034029Y-17483256D02*
X5043553Y-17473732D01*
X5043553Y-17473732D02*
X5062601Y-17464208D01*
X5062601Y-17464208D02*
X5091172Y-17464208D01*
X5091172Y-17464208D02*
X5110220Y-17473732D01*
X5110220Y-17473732D02*
X5119744Y-17492780D01*
X5119744Y-17492780D02*
X5119744Y-17597542D01*
X5119744Y-17492780D02*
X5129267Y-17473732D01*
X5129267Y-17473732D02*
X5148315Y-17464208D01*
X5148315Y-17464208D02*
X5176886Y-17464208D01*
X5176886Y-17464208D02*
X5195934Y-17473732D01*
X5195934Y-17473732D02*
X5205458Y-17492780D01*
X5205458Y-17492780D02*
X5205458Y-17597542D01*
X5595934Y-17388018D02*
X5424506Y-17645161D01*
X5853077Y-17397542D02*
X5872125Y-17397542D01*
X5872125Y-17397542D02*
X5891172Y-17407065D01*
X5891172Y-17407065D02*
X5900696Y-17416589D01*
X5900696Y-17416589D02*
X5910220Y-17435637D01*
X5910220Y-17435637D02*
X5919744Y-17473732D01*
X5919744Y-17473732D02*
X5919744Y-17521351D01*
X5919744Y-17521351D02*
X5910220Y-17559446D01*
X5910220Y-17559446D02*
X5900696Y-17578494D01*
X5900696Y-17578494D02*
X5891172Y-17588018D01*
X5891172Y-17588018D02*
X5872125Y-17597542D01*
X5872125Y-17597542D02*
X5853077Y-17597542D01*
X5853077Y-17597542D02*
X5834029Y-17588018D01*
X5834029Y-17588018D02*
X5824506Y-17578494D01*
X5824506Y-17578494D02*
X5814982Y-17559446D01*
X5814982Y-17559446D02*
X5805458Y-17521351D01*
X5805458Y-17521351D02*
X5805458Y-17473732D01*
X5805458Y-17473732D02*
X5814982Y-17435637D01*
X5814982Y-17435637D02*
X5824506Y-17416589D01*
X5824506Y-17416589D02*
X5834029Y-17407065D01*
X5834029Y-17407065D02*
X5853077Y-17397542D01*
X6005458Y-17578494D02*
X6014982Y-17588018D01*
X6014982Y-17588018D02*
X6005458Y-17597542D01*
X6005458Y-17597542D02*
X5995934Y-17588018D01*
X5995934Y-17588018D02*
X6005458Y-17578494D01*
X6005458Y-17578494D02*
X6005458Y-17597542D01*
X6138791Y-17397542D02*
X6157839Y-17397542D01*
X6157839Y-17397542D02*
X6176887Y-17407065D01*
X6176887Y-17407065D02*
X6186410Y-17416589D01*
X6186410Y-17416589D02*
X6195934Y-17435637D01*
X6195934Y-17435637D02*
X6205458Y-17473732D01*
X6205458Y-17473732D02*
X6205458Y-17521351D01*
X6205458Y-17521351D02*
X6195934Y-17559446D01*
X6195934Y-17559446D02*
X6186410Y-17578494D01*
X6186410Y-17578494D02*
X6176887Y-17588018D01*
X6176887Y-17588018D02*
X6157839Y-17597542D01*
X6157839Y-17597542D02*
X6138791Y-17597542D01*
X6138791Y-17597542D02*
X6119744Y-17588018D01*
X6119744Y-17588018D02*
X6110220Y-17578494D01*
X6110220Y-17578494D02*
X6100696Y-17559446D01*
X6100696Y-17559446D02*
X6091172Y-17521351D01*
X6091172Y-17521351D02*
X6091172Y-17473732D01*
X6091172Y-17473732D02*
X6100696Y-17435637D01*
X6100696Y-17435637D02*
X6110220Y-17416589D01*
X6110220Y-17416589D02*
X6119744Y-17407065D01*
X6119744Y-17407065D02*
X6138791Y-17397542D01*
X6386410Y-17397542D02*
X6291172Y-17397542D01*
X6291172Y-17397542D02*
X6281648Y-17492780D01*
X6281648Y-17492780D02*
X6291172Y-17483256D01*
X6291172Y-17483256D02*
X6310220Y-17473732D01*
X6310220Y-17473732D02*
X6357839Y-17473732D01*
X6357839Y-17473732D02*
X6376887Y-17483256D01*
X6376887Y-17483256D02*
X6386410Y-17492780D01*
X6386410Y-17492780D02*
X6395934Y-17511827D01*
X6395934Y-17511827D02*
X6395934Y-17559446D01*
X6395934Y-17559446D02*
X6386410Y-17578494D01*
X6386410Y-17578494D02*
X6376887Y-17588018D01*
X6376887Y-17588018D02*
X6357839Y-17597542D01*
X6357839Y-17597542D02*
X6310220Y-17597542D01*
X6310220Y-17597542D02*
X6291172Y-17588018D01*
X6291172Y-17588018D02*
X6281648Y-17578494D01*
X6491172Y-17597542D02*
X6529267Y-17597542D01*
X6529267Y-17597542D02*
X6548315Y-17588018D01*
X6548315Y-17588018D02*
X6557839Y-17578494D01*
X6557839Y-17578494D02*
X6576887Y-17549922D01*
X6576887Y-17549922D02*
X6586410Y-17511827D01*
X6586410Y-17511827D02*
X6586410Y-17435637D01*
X6586410Y-17435637D02*
X6576887Y-17416589D01*
X6576887Y-17416589D02*
X6567363Y-17407065D01*
X6567363Y-17407065D02*
X6548315Y-17397542D01*
X6548315Y-17397542D02*
X6510220Y-17397542D01*
X6510220Y-17397542D02*
X6491172Y-17407065D01*
X6491172Y-17407065D02*
X6481648Y-17416589D01*
X6481648Y-17416589D02*
X6472125Y-17435637D01*
X6472125Y-17435637D02*
X6472125Y-17483256D01*
X6472125Y-17483256D02*
X6481648Y-17502303D01*
X6481648Y-17502303D02*
X6491172Y-17511827D01*
X6491172Y-17511827D02*
X6510220Y-17521351D01*
X6510220Y-17521351D02*
X6548315Y-17521351D01*
X6548315Y-17521351D02*
X6567363Y-17511827D01*
X6567363Y-17511827D02*
X6576887Y-17502303D01*
X6576887Y-17502303D02*
X6586410Y-17483256D01*
X6776887Y-17597542D02*
X6662601Y-17597542D01*
X6719744Y-17597542D02*
X6719744Y-17397542D01*
X6719744Y-17397542D02*
X6700696Y-17426113D01*
X6700696Y-17426113D02*
X6681648Y-17445161D01*
X6681648Y-17445161D02*
X6662601Y-17454684D01*
X6853077Y-17397542D02*
X6853077Y-17435637D01*
X6929268Y-17397542D02*
X6929268Y-17435637D01*
X7224506Y-17673732D02*
X7214982Y-17664208D01*
X7214982Y-17664208D02*
X7195934Y-17635637D01*
X7195934Y-17635637D02*
X7186410Y-17616589D01*
X7186410Y-17616589D02*
X7176887Y-17588018D01*
X7176887Y-17588018D02*
X7167363Y-17540399D01*
X7167363Y-17540399D02*
X7167363Y-17502303D01*
X7167363Y-17502303D02*
X7176887Y-17454684D01*
X7176887Y-17454684D02*
X7186410Y-17426113D01*
X7186410Y-17426113D02*
X7195934Y-17407065D01*
X7195934Y-17407065D02*
X7214982Y-17378494D01*
X7214982Y-17378494D02*
X7224506Y-17368970D01*
X7291172Y-17416589D02*
X7300696Y-17407065D01*
X7300696Y-17407065D02*
X7319744Y-17397542D01*
X7319744Y-17397542D02*
X7367363Y-17397542D01*
X7367363Y-17397542D02*
X7386410Y-17407065D01*
X7386410Y-17407065D02*
X7395934Y-17416589D01*
X7395934Y-17416589D02*
X7405458Y-17435637D01*
X7405458Y-17435637D02*
X7405458Y-17454684D01*
X7405458Y-17454684D02*
X7395934Y-17483256D01*
X7395934Y-17483256D02*
X7281649Y-17597542D01*
X7281649Y-17597542D02*
X7405458Y-17597542D01*
X7643553Y-17597542D02*
X7643553Y-17397542D01*
X7729268Y-17597542D02*
X7729268Y-17492780D01*
X7729268Y-17492780D02*
X7719744Y-17473732D01*
X7719744Y-17473732D02*
X7700696Y-17464208D01*
X7700696Y-17464208D02*
X7672125Y-17464208D01*
X7672125Y-17464208D02*
X7653077Y-17473732D01*
X7653077Y-17473732D02*
X7643553Y-17483256D01*
X7853077Y-17597542D02*
X7834030Y-17588018D01*
X7834030Y-17588018D02*
X7824506Y-17578494D01*
X7824506Y-17578494D02*
X7814982Y-17559446D01*
X7814982Y-17559446D02*
X7814982Y-17502303D01*
X7814982Y-17502303D02*
X7824506Y-17483256D01*
X7824506Y-17483256D02*
X7834030Y-17473732D01*
X7834030Y-17473732D02*
X7853077Y-17464208D01*
X7853077Y-17464208D02*
X7881649Y-17464208D01*
X7881649Y-17464208D02*
X7900696Y-17473732D01*
X7900696Y-17473732D02*
X7910220Y-17483256D01*
X7910220Y-17483256D02*
X7919744Y-17502303D01*
X7919744Y-17502303D02*
X7919744Y-17559446D01*
X7919744Y-17559446D02*
X7910220Y-17578494D01*
X7910220Y-17578494D02*
X7900696Y-17588018D01*
X7900696Y-17588018D02*
X7881649Y-17597542D01*
X7881649Y-17597542D02*
X7853077Y-17597542D01*
X8034030Y-17597542D02*
X8014982Y-17588018D01*
X8014982Y-17588018D02*
X8005458Y-17568970D01*
X8005458Y-17568970D02*
X8005458Y-17397542D01*
X8186411Y-17588018D02*
X8167363Y-17597542D01*
X8167363Y-17597542D02*
X8129268Y-17597542D01*
X8129268Y-17597542D02*
X8110220Y-17588018D01*
X8110220Y-17588018D02*
X8100696Y-17568970D01*
X8100696Y-17568970D02*
X8100696Y-17492780D01*
X8100696Y-17492780D02*
X8110220Y-17473732D01*
X8110220Y-17473732D02*
X8129268Y-17464208D01*
X8129268Y-17464208D02*
X8167363Y-17464208D01*
X8167363Y-17464208D02*
X8186411Y-17473732D01*
X8186411Y-17473732D02*
X8195934Y-17492780D01*
X8195934Y-17492780D02*
X8195934Y-17511827D01*
X8195934Y-17511827D02*
X8100696Y-17530875D01*
X8272125Y-17588018D02*
X8291172Y-17597542D01*
X8291172Y-17597542D02*
X8329268Y-17597542D01*
X8329268Y-17597542D02*
X8348315Y-17588018D01*
X8348315Y-17588018D02*
X8357839Y-17568970D01*
X8357839Y-17568970D02*
X8357839Y-17559446D01*
X8357839Y-17559446D02*
X8348315Y-17540399D01*
X8348315Y-17540399D02*
X8329268Y-17530875D01*
X8329268Y-17530875D02*
X8300696Y-17530875D01*
X8300696Y-17530875D02*
X8281649Y-17521351D01*
X8281649Y-17521351D02*
X8272125Y-17502303D01*
X8272125Y-17502303D02*
X8272125Y-17492780D01*
X8272125Y-17492780D02*
X8281649Y-17473732D01*
X8281649Y-17473732D02*
X8300696Y-17464208D01*
X8300696Y-17464208D02*
X8329268Y-17464208D01*
X8329268Y-17464208D02*
X8348315Y-17473732D01*
X8424506Y-17673732D02*
X8434030Y-17664208D01*
X8434030Y-17664208D02*
X8453077Y-17635637D01*
X8453077Y-17635637D02*
X8462601Y-17616589D01*
X8462601Y-17616589D02*
X8472125Y-17588018D01*
X8472125Y-17588018D02*
X8481649Y-17540399D01*
X8481649Y-17540399D02*
X8481649Y-17502303D01*
X8481649Y-17502303D02*
X8472125Y-17454684D01*
X8472125Y-17454684D02*
X8462601Y-17426113D01*
X8462601Y-17426113D02*
X8453077Y-17407065D01*
X8453077Y-17407065D02*
X8434030Y-17378494D01*
X8434030Y-17378494D02*
X8424506Y-17368970D01*
X8786411Y-17673732D02*
X8776887Y-17664208D01*
X8776887Y-17664208D02*
X8757839Y-17635637D01*
X8757839Y-17635637D02*
X8748315Y-17616589D01*
X8748315Y-17616589D02*
X8738792Y-17588018D01*
X8738792Y-17588018D02*
X8729268Y-17540399D01*
X8729268Y-17540399D02*
X8729268Y-17502303D01*
X8729268Y-17502303D02*
X8738792Y-17454684D01*
X8738792Y-17454684D02*
X8748315Y-17426113D01*
X8748315Y-17426113D02*
X8757839Y-17407065D01*
X8757839Y-17407065D02*
X8776887Y-17378494D01*
X8776887Y-17378494D02*
X8786411Y-17368970D01*
X8862601Y-17464208D02*
X8862601Y-17597542D01*
X8862601Y-17483256D02*
X8872125Y-17473732D01*
X8872125Y-17473732D02*
X8891173Y-17464208D01*
X8891173Y-17464208D02*
X8919744Y-17464208D01*
X8919744Y-17464208D02*
X8938792Y-17473732D01*
X8938792Y-17473732D02*
X8948315Y-17492780D01*
X8948315Y-17492780D02*
X8948315Y-17597542D01*
X9072125Y-17597542D02*
X9053077Y-17588018D01*
X9053077Y-17588018D02*
X9043554Y-17578494D01*
X9043554Y-17578494D02*
X9034030Y-17559446D01*
X9034030Y-17559446D02*
X9034030Y-17502303D01*
X9034030Y-17502303D02*
X9043554Y-17483256D01*
X9043554Y-17483256D02*
X9053077Y-17473732D01*
X9053077Y-17473732D02*
X9072125Y-17464208D01*
X9072125Y-17464208D02*
X9100696Y-17464208D01*
X9100696Y-17464208D02*
X9119744Y-17473732D01*
X9119744Y-17473732D02*
X9129268Y-17483256D01*
X9129268Y-17483256D02*
X9138792Y-17502303D01*
X9138792Y-17502303D02*
X9138792Y-17559446D01*
X9138792Y-17559446D02*
X9129268Y-17578494D01*
X9129268Y-17578494D02*
X9119744Y-17588018D01*
X9119744Y-17588018D02*
X9100696Y-17597542D01*
X9100696Y-17597542D02*
X9072125Y-17597542D01*
X9195935Y-17464208D02*
X9272125Y-17464208D01*
X9224506Y-17397542D02*
X9224506Y-17568970D01*
X9224506Y-17568970D02*
X9234030Y-17588018D01*
X9234030Y-17588018D02*
X9253077Y-17597542D01*
X9253077Y-17597542D02*
X9272125Y-17597542D01*
X9491173Y-17464208D02*
X9491173Y-17664208D01*
X9491173Y-17473732D02*
X9510220Y-17464208D01*
X9510220Y-17464208D02*
X9548316Y-17464208D01*
X9548316Y-17464208D02*
X9567363Y-17473732D01*
X9567363Y-17473732D02*
X9576887Y-17483256D01*
X9576887Y-17483256D02*
X9586411Y-17502303D01*
X9586411Y-17502303D02*
X9586411Y-17559446D01*
X9586411Y-17559446D02*
X9576887Y-17578494D01*
X9576887Y-17578494D02*
X9567363Y-17588018D01*
X9567363Y-17588018D02*
X9548316Y-17597542D01*
X9548316Y-17597542D02*
X9510220Y-17597542D01*
X9510220Y-17597542D02*
X9491173Y-17588018D01*
X9700696Y-17597542D02*
X9681649Y-17588018D01*
X9681649Y-17588018D02*
X9672125Y-17568970D01*
X9672125Y-17568970D02*
X9672125Y-17397542D01*
X9862601Y-17597542D02*
X9862601Y-17492780D01*
X9862601Y-17492780D02*
X9853077Y-17473732D01*
X9853077Y-17473732D02*
X9834030Y-17464208D01*
X9834030Y-17464208D02*
X9795935Y-17464208D01*
X9795935Y-17464208D02*
X9776887Y-17473732D01*
X9862601Y-17588018D02*
X9843554Y-17597542D01*
X9843554Y-17597542D02*
X9795935Y-17597542D01*
X9795935Y-17597542D02*
X9776887Y-17588018D01*
X9776887Y-17588018D02*
X9767363Y-17568970D01*
X9767363Y-17568970D02*
X9767363Y-17549922D01*
X9767363Y-17549922D02*
X9776887Y-17530875D01*
X9776887Y-17530875D02*
X9795935Y-17521351D01*
X9795935Y-17521351D02*
X9843554Y-17521351D01*
X9843554Y-17521351D02*
X9862601Y-17511827D01*
X9929268Y-17464208D02*
X10005458Y-17464208D01*
X9957839Y-17397542D02*
X9957839Y-17568970D01*
X9957839Y-17568970D02*
X9967363Y-17588018D01*
X9967363Y-17588018D02*
X9986411Y-17597542D01*
X9986411Y-17597542D02*
X10005458Y-17597542D01*
X10148316Y-17588018D02*
X10129268Y-17597542D01*
X10129268Y-17597542D02*
X10091173Y-17597542D01*
X10091173Y-17597542D02*
X10072125Y-17588018D01*
X10072125Y-17588018D02*
X10062601Y-17568970D01*
X10062601Y-17568970D02*
X10062601Y-17492780D01*
X10062601Y-17492780D02*
X10072125Y-17473732D01*
X10072125Y-17473732D02*
X10091173Y-17464208D01*
X10091173Y-17464208D02*
X10129268Y-17464208D01*
X10129268Y-17464208D02*
X10148316Y-17473732D01*
X10148316Y-17473732D02*
X10157839Y-17492780D01*
X10157839Y-17492780D02*
X10157839Y-17511827D01*
X10157839Y-17511827D02*
X10062601Y-17530875D01*
X10329268Y-17597542D02*
X10329268Y-17397542D01*
X10329268Y-17588018D02*
X10310220Y-17597542D01*
X10310220Y-17597542D02*
X10272125Y-17597542D01*
X10272125Y-17597542D02*
X10253077Y-17588018D01*
X10253077Y-17588018D02*
X10243554Y-17578494D01*
X10243554Y-17578494D02*
X10234030Y-17559446D01*
X10234030Y-17559446D02*
X10234030Y-17502303D01*
X10234030Y-17502303D02*
X10243554Y-17483256D01*
X10243554Y-17483256D02*
X10253077Y-17473732D01*
X10253077Y-17473732D02*
X10272125Y-17464208D01*
X10272125Y-17464208D02*
X10310220Y-17464208D01*
X10310220Y-17464208D02*
X10329268Y-17473732D01*
X10405458Y-17673732D02*
X10414982Y-17664208D01*
X10414982Y-17664208D02*
X10434030Y-17635637D01*
X10434030Y-17635637D02*
X10443554Y-17616589D01*
X10443554Y-17616589D02*
X10453077Y-17588018D01*
X10453077Y-17588018D02*
X10462601Y-17540399D01*
X10462601Y-17540399D02*
X10462601Y-17502303D01*
X10462601Y-17502303D02*
X10453077Y-17454684D01*
X10453077Y-17454684D02*
X10443554Y-17426113D01*
X10443554Y-17426113D02*
X10434030Y-17407065D01*
X10434030Y-17407065D02*
X10414982Y-17378494D01*
X10414982Y-17378494D02*
X10405458Y-17368970D01*
D13*
X3649443Y-17776058D02*
G75*
G02*
X3489443Y-17776058I-80000J0D01*
G01*
X3489443Y-17776058D02*
G75*
G02*
X3649443Y-17776058I80000J0D01*
G01*
D11*
X4014982Y-17867542D02*
X3900696Y-17867542D01*
X3957839Y-17867542D02*
X3957839Y-17667542D01*
X3957839Y-17667542D02*
X3938791Y-17696113D01*
X3938791Y-17696113D02*
X3919743Y-17715161D01*
X3919743Y-17715161D02*
X3900696Y-17724684D01*
X4100696Y-17848494D02*
X4110220Y-17858018D01*
X4110220Y-17858018D02*
X4100696Y-17867542D01*
X4100696Y-17867542D02*
X4091172Y-17858018D01*
X4091172Y-17858018D02*
X4100696Y-17848494D01*
X4100696Y-17848494D02*
X4100696Y-17867542D01*
X4281648Y-17667542D02*
X4243553Y-17667542D01*
X4243553Y-17667542D02*
X4224505Y-17677065D01*
X4224505Y-17677065D02*
X4214982Y-17686589D01*
X4214982Y-17686589D02*
X4195934Y-17715161D01*
X4195934Y-17715161D02*
X4186410Y-17753256D01*
X4186410Y-17753256D02*
X4186410Y-17829446D01*
X4186410Y-17829446D02*
X4195934Y-17848494D01*
X4195934Y-17848494D02*
X4205458Y-17858018D01*
X4205458Y-17858018D02*
X4224505Y-17867542D01*
X4224505Y-17867542D02*
X4262601Y-17867542D01*
X4262601Y-17867542D02*
X4281648Y-17858018D01*
X4281648Y-17858018D02*
X4291172Y-17848494D01*
X4291172Y-17848494D02*
X4300696Y-17829446D01*
X4300696Y-17829446D02*
X4300696Y-17781827D01*
X4300696Y-17781827D02*
X4291172Y-17762780D01*
X4291172Y-17762780D02*
X4281648Y-17753256D01*
X4281648Y-17753256D02*
X4262601Y-17743732D01*
X4262601Y-17743732D02*
X4224505Y-17743732D01*
X4224505Y-17743732D02*
X4205458Y-17753256D01*
X4205458Y-17753256D02*
X4195934Y-17762780D01*
X4195934Y-17762780D02*
X4186410Y-17781827D01*
X4424505Y-17667542D02*
X4443553Y-17667542D01*
X4443553Y-17667542D02*
X4462601Y-17677065D01*
X4462601Y-17677065D02*
X4472125Y-17686589D01*
X4472125Y-17686589D02*
X4481648Y-17705637D01*
X4481648Y-17705637D02*
X4491172Y-17743732D01*
X4491172Y-17743732D02*
X4491172Y-17791351D01*
X4491172Y-17791351D02*
X4481648Y-17829446D01*
X4481648Y-17829446D02*
X4472125Y-17848494D01*
X4472125Y-17848494D02*
X4462601Y-17858018D01*
X4462601Y-17858018D02*
X4443553Y-17867542D01*
X4443553Y-17867542D02*
X4424505Y-17867542D01*
X4424505Y-17867542D02*
X4405458Y-17858018D01*
X4405458Y-17858018D02*
X4395934Y-17848494D01*
X4395934Y-17848494D02*
X4386410Y-17829446D01*
X4386410Y-17829446D02*
X4376886Y-17791351D01*
X4376886Y-17791351D02*
X4376886Y-17743732D01*
X4376886Y-17743732D02*
X4386410Y-17705637D01*
X4386410Y-17705637D02*
X4395934Y-17686589D01*
X4395934Y-17686589D02*
X4405458Y-17677065D01*
X4405458Y-17677065D02*
X4424505Y-17667542D01*
X4614982Y-17667542D02*
X4634029Y-17667542D01*
X4634029Y-17667542D02*
X4653077Y-17677065D01*
X4653077Y-17677065D02*
X4662601Y-17686589D01*
X4662601Y-17686589D02*
X4672125Y-17705637D01*
X4672125Y-17705637D02*
X4681648Y-17743732D01*
X4681648Y-17743732D02*
X4681648Y-17791351D01*
X4681648Y-17791351D02*
X4672125Y-17829446D01*
X4672125Y-17829446D02*
X4662601Y-17848494D01*
X4662601Y-17848494D02*
X4653077Y-17858018D01*
X4653077Y-17858018D02*
X4634029Y-17867542D01*
X4634029Y-17867542D02*
X4614982Y-17867542D01*
X4614982Y-17867542D02*
X4595934Y-17858018D01*
X4595934Y-17858018D02*
X4586410Y-17848494D01*
X4586410Y-17848494D02*
X4576886Y-17829446D01*
X4576886Y-17829446D02*
X4567363Y-17791351D01*
X4567363Y-17791351D02*
X4567363Y-17743732D01*
X4567363Y-17743732D02*
X4576886Y-17705637D01*
X4576886Y-17705637D02*
X4586410Y-17686589D01*
X4586410Y-17686589D02*
X4595934Y-17677065D01*
X4595934Y-17677065D02*
X4614982Y-17667542D01*
X4767363Y-17867542D02*
X4767363Y-17734208D01*
X4767363Y-17753256D02*
X4776886Y-17743732D01*
X4776886Y-17743732D02*
X4795934Y-17734208D01*
X4795934Y-17734208D02*
X4824506Y-17734208D01*
X4824506Y-17734208D02*
X4843553Y-17743732D01*
X4843553Y-17743732D02*
X4853077Y-17762780D01*
X4853077Y-17762780D02*
X4853077Y-17867542D01*
X4853077Y-17762780D02*
X4862601Y-17743732D01*
X4862601Y-17743732D02*
X4881648Y-17734208D01*
X4881648Y-17734208D02*
X4910220Y-17734208D01*
X4910220Y-17734208D02*
X4929267Y-17743732D01*
X4929267Y-17743732D02*
X4938791Y-17762780D01*
X4938791Y-17762780D02*
X4938791Y-17867542D01*
X5034029Y-17867542D02*
X5034029Y-17734208D01*
X5034029Y-17753256D02*
X5043553Y-17743732D01*
X5043553Y-17743732D02*
X5062601Y-17734208D01*
X5062601Y-17734208D02*
X5091172Y-17734208D01*
X5091172Y-17734208D02*
X5110220Y-17743732D01*
X5110220Y-17743732D02*
X5119744Y-17762780D01*
X5119744Y-17762780D02*
X5119744Y-17867542D01*
X5119744Y-17762780D02*
X5129267Y-17743732D01*
X5129267Y-17743732D02*
X5148315Y-17734208D01*
X5148315Y-17734208D02*
X5176886Y-17734208D01*
X5176886Y-17734208D02*
X5195934Y-17743732D01*
X5195934Y-17743732D02*
X5205458Y-17762780D01*
X5205458Y-17762780D02*
X5205458Y-17867542D01*
X5595934Y-17658018D02*
X5424506Y-17915161D01*
X5853077Y-17667542D02*
X5872125Y-17667542D01*
X5872125Y-17667542D02*
X5891172Y-17677065D01*
X5891172Y-17677065D02*
X5900696Y-17686589D01*
X5900696Y-17686589D02*
X5910220Y-17705637D01*
X5910220Y-17705637D02*
X5919744Y-17743732D01*
X5919744Y-17743732D02*
X5919744Y-17791351D01*
X5919744Y-17791351D02*
X5910220Y-17829446D01*
X5910220Y-17829446D02*
X5900696Y-17848494D01*
X5900696Y-17848494D02*
X5891172Y-17858018D01*
X5891172Y-17858018D02*
X5872125Y-17867542D01*
X5872125Y-17867542D02*
X5853077Y-17867542D01*
X5853077Y-17867542D02*
X5834029Y-17858018D01*
X5834029Y-17858018D02*
X5824506Y-17848494D01*
X5824506Y-17848494D02*
X5814982Y-17829446D01*
X5814982Y-17829446D02*
X5805458Y-17791351D01*
X5805458Y-17791351D02*
X5805458Y-17743732D01*
X5805458Y-17743732D02*
X5814982Y-17705637D01*
X5814982Y-17705637D02*
X5824506Y-17686589D01*
X5824506Y-17686589D02*
X5834029Y-17677065D01*
X5834029Y-17677065D02*
X5853077Y-17667542D01*
X6005458Y-17848494D02*
X6014982Y-17858018D01*
X6014982Y-17858018D02*
X6005458Y-17867542D01*
X6005458Y-17867542D02*
X5995934Y-17858018D01*
X5995934Y-17858018D02*
X6005458Y-17848494D01*
X6005458Y-17848494D02*
X6005458Y-17867542D01*
X6138791Y-17667542D02*
X6157839Y-17667542D01*
X6157839Y-17667542D02*
X6176887Y-17677065D01*
X6176887Y-17677065D02*
X6186410Y-17686589D01*
X6186410Y-17686589D02*
X6195934Y-17705637D01*
X6195934Y-17705637D02*
X6205458Y-17743732D01*
X6205458Y-17743732D02*
X6205458Y-17791351D01*
X6205458Y-17791351D02*
X6195934Y-17829446D01*
X6195934Y-17829446D02*
X6186410Y-17848494D01*
X6186410Y-17848494D02*
X6176887Y-17858018D01*
X6176887Y-17858018D02*
X6157839Y-17867542D01*
X6157839Y-17867542D02*
X6138791Y-17867542D01*
X6138791Y-17867542D02*
X6119744Y-17858018D01*
X6119744Y-17858018D02*
X6110220Y-17848494D01*
X6110220Y-17848494D02*
X6100696Y-17829446D01*
X6100696Y-17829446D02*
X6091172Y-17791351D01*
X6091172Y-17791351D02*
X6091172Y-17743732D01*
X6091172Y-17743732D02*
X6100696Y-17705637D01*
X6100696Y-17705637D02*
X6110220Y-17686589D01*
X6110220Y-17686589D02*
X6119744Y-17677065D01*
X6119744Y-17677065D02*
X6138791Y-17667542D01*
X6376887Y-17667542D02*
X6338791Y-17667542D01*
X6338791Y-17667542D02*
X6319744Y-17677065D01*
X6319744Y-17677065D02*
X6310220Y-17686589D01*
X6310220Y-17686589D02*
X6291172Y-17715161D01*
X6291172Y-17715161D02*
X6281648Y-17753256D01*
X6281648Y-17753256D02*
X6281648Y-17829446D01*
X6281648Y-17829446D02*
X6291172Y-17848494D01*
X6291172Y-17848494D02*
X6300696Y-17858018D01*
X6300696Y-17858018D02*
X6319744Y-17867542D01*
X6319744Y-17867542D02*
X6357839Y-17867542D01*
X6357839Y-17867542D02*
X6376887Y-17858018D01*
X6376887Y-17858018D02*
X6386410Y-17848494D01*
X6386410Y-17848494D02*
X6395934Y-17829446D01*
X6395934Y-17829446D02*
X6395934Y-17781827D01*
X6395934Y-17781827D02*
X6386410Y-17762780D01*
X6386410Y-17762780D02*
X6376887Y-17753256D01*
X6376887Y-17753256D02*
X6357839Y-17743732D01*
X6357839Y-17743732D02*
X6319744Y-17743732D01*
X6319744Y-17743732D02*
X6300696Y-17753256D01*
X6300696Y-17753256D02*
X6291172Y-17762780D01*
X6291172Y-17762780D02*
X6281648Y-17781827D01*
X6462601Y-17667542D02*
X6586410Y-17667542D01*
X6586410Y-17667542D02*
X6519744Y-17743732D01*
X6519744Y-17743732D02*
X6548315Y-17743732D01*
X6548315Y-17743732D02*
X6567363Y-17753256D01*
X6567363Y-17753256D02*
X6576887Y-17762780D01*
X6576887Y-17762780D02*
X6586410Y-17781827D01*
X6586410Y-17781827D02*
X6586410Y-17829446D01*
X6586410Y-17829446D02*
X6576887Y-17848494D01*
X6576887Y-17848494D02*
X6567363Y-17858018D01*
X6567363Y-17858018D02*
X6548315Y-17867542D01*
X6548315Y-17867542D02*
X6491172Y-17867542D01*
X6491172Y-17867542D02*
X6472125Y-17858018D01*
X6472125Y-17858018D02*
X6462601Y-17848494D01*
X6710220Y-17667542D02*
X6729268Y-17667542D01*
X6729268Y-17667542D02*
X6748315Y-17677065D01*
X6748315Y-17677065D02*
X6757839Y-17686589D01*
X6757839Y-17686589D02*
X6767363Y-17705637D01*
X6767363Y-17705637D02*
X6776887Y-17743732D01*
X6776887Y-17743732D02*
X6776887Y-17791351D01*
X6776887Y-17791351D02*
X6767363Y-17829446D01*
X6767363Y-17829446D02*
X6757839Y-17848494D01*
X6757839Y-17848494D02*
X6748315Y-17858018D01*
X6748315Y-17858018D02*
X6729268Y-17867542D01*
X6729268Y-17867542D02*
X6710220Y-17867542D01*
X6710220Y-17867542D02*
X6691172Y-17858018D01*
X6691172Y-17858018D02*
X6681648Y-17848494D01*
X6681648Y-17848494D02*
X6672125Y-17829446D01*
X6672125Y-17829446D02*
X6662601Y-17791351D01*
X6662601Y-17791351D02*
X6662601Y-17743732D01*
X6662601Y-17743732D02*
X6672125Y-17705637D01*
X6672125Y-17705637D02*
X6681648Y-17686589D01*
X6681648Y-17686589D02*
X6691172Y-17677065D01*
X6691172Y-17677065D02*
X6710220Y-17667542D01*
X6853077Y-17667542D02*
X6853077Y-17705637D01*
X6929268Y-17667542D02*
X6929268Y-17705637D01*
X7224506Y-17943732D02*
X7214982Y-17934208D01*
X7214982Y-17934208D02*
X7195934Y-17905637D01*
X7195934Y-17905637D02*
X7186410Y-17886589D01*
X7186410Y-17886589D02*
X7176887Y-17858018D01*
X7176887Y-17858018D02*
X7167363Y-17810399D01*
X7167363Y-17810399D02*
X7167363Y-17772303D01*
X7167363Y-17772303D02*
X7176887Y-17724684D01*
X7176887Y-17724684D02*
X7186410Y-17696113D01*
X7186410Y-17696113D02*
X7195934Y-17677065D01*
X7195934Y-17677065D02*
X7214982Y-17648494D01*
X7214982Y-17648494D02*
X7224506Y-17638970D01*
X7291172Y-17686589D02*
X7300696Y-17677065D01*
X7300696Y-17677065D02*
X7319744Y-17667542D01*
X7319744Y-17667542D02*
X7367363Y-17667542D01*
X7367363Y-17667542D02*
X7386410Y-17677065D01*
X7386410Y-17677065D02*
X7395934Y-17686589D01*
X7395934Y-17686589D02*
X7405458Y-17705637D01*
X7405458Y-17705637D02*
X7405458Y-17724684D01*
X7405458Y-17724684D02*
X7395934Y-17753256D01*
X7395934Y-17753256D02*
X7281649Y-17867542D01*
X7281649Y-17867542D02*
X7405458Y-17867542D01*
X7472125Y-17667542D02*
X7605458Y-17667542D01*
X7605458Y-17667542D02*
X7519744Y-17867542D01*
X7834030Y-17867542D02*
X7834030Y-17667542D01*
X7919744Y-17867542D02*
X7919744Y-17762780D01*
X7919744Y-17762780D02*
X7910220Y-17743732D01*
X7910220Y-17743732D02*
X7891172Y-17734208D01*
X7891172Y-17734208D02*
X7862601Y-17734208D01*
X7862601Y-17734208D02*
X7843553Y-17743732D01*
X7843553Y-17743732D02*
X7834030Y-17753256D01*
X8043553Y-17867542D02*
X8024506Y-17858018D01*
X8024506Y-17858018D02*
X8014982Y-17848494D01*
X8014982Y-17848494D02*
X8005458Y-17829446D01*
X8005458Y-17829446D02*
X8005458Y-17772303D01*
X8005458Y-17772303D02*
X8014982Y-17753256D01*
X8014982Y-17753256D02*
X8024506Y-17743732D01*
X8024506Y-17743732D02*
X8043553Y-17734208D01*
X8043553Y-17734208D02*
X8072125Y-17734208D01*
X8072125Y-17734208D02*
X8091172Y-17743732D01*
X8091172Y-17743732D02*
X8100696Y-17753256D01*
X8100696Y-17753256D02*
X8110220Y-17772303D01*
X8110220Y-17772303D02*
X8110220Y-17829446D01*
X8110220Y-17829446D02*
X8100696Y-17848494D01*
X8100696Y-17848494D02*
X8091172Y-17858018D01*
X8091172Y-17858018D02*
X8072125Y-17867542D01*
X8072125Y-17867542D02*
X8043553Y-17867542D01*
X8224506Y-17867542D02*
X8205458Y-17858018D01*
X8205458Y-17858018D02*
X8195934Y-17838970D01*
X8195934Y-17838970D02*
X8195934Y-17667542D01*
X8376887Y-17858018D02*
X8357839Y-17867542D01*
X8357839Y-17867542D02*
X8319744Y-17867542D01*
X8319744Y-17867542D02*
X8300696Y-17858018D01*
X8300696Y-17858018D02*
X8291172Y-17838970D01*
X8291172Y-17838970D02*
X8291172Y-17762780D01*
X8291172Y-17762780D02*
X8300696Y-17743732D01*
X8300696Y-17743732D02*
X8319744Y-17734208D01*
X8319744Y-17734208D02*
X8357839Y-17734208D01*
X8357839Y-17734208D02*
X8376887Y-17743732D01*
X8376887Y-17743732D02*
X8386411Y-17762780D01*
X8386411Y-17762780D02*
X8386411Y-17781827D01*
X8386411Y-17781827D02*
X8291172Y-17800875D01*
X8462601Y-17858018D02*
X8481649Y-17867542D01*
X8481649Y-17867542D02*
X8519744Y-17867542D01*
X8519744Y-17867542D02*
X8538792Y-17858018D01*
X8538792Y-17858018D02*
X8548315Y-17838970D01*
X8548315Y-17838970D02*
X8548315Y-17829446D01*
X8548315Y-17829446D02*
X8538792Y-17810399D01*
X8538792Y-17810399D02*
X8519744Y-17800875D01*
X8519744Y-17800875D02*
X8491173Y-17800875D01*
X8491173Y-17800875D02*
X8472125Y-17791351D01*
X8472125Y-17791351D02*
X8462601Y-17772303D01*
X8462601Y-17772303D02*
X8462601Y-17762780D01*
X8462601Y-17762780D02*
X8472125Y-17743732D01*
X8472125Y-17743732D02*
X8491173Y-17734208D01*
X8491173Y-17734208D02*
X8519744Y-17734208D01*
X8519744Y-17734208D02*
X8538792Y-17743732D01*
X8614982Y-17943732D02*
X8624506Y-17934208D01*
X8624506Y-17934208D02*
X8643554Y-17905637D01*
X8643554Y-17905637D02*
X8653077Y-17886589D01*
X8653077Y-17886589D02*
X8662601Y-17858018D01*
X8662601Y-17858018D02*
X8672125Y-17810399D01*
X8672125Y-17810399D02*
X8672125Y-17772303D01*
X8672125Y-17772303D02*
X8662601Y-17724684D01*
X8662601Y-17724684D02*
X8653077Y-17696113D01*
X8653077Y-17696113D02*
X8643554Y-17677065D01*
X8643554Y-17677065D02*
X8624506Y-17648494D01*
X8624506Y-17648494D02*
X8614982Y-17638970D01*
X8976887Y-17943732D02*
X8967363Y-17934208D01*
X8967363Y-17934208D02*
X8948315Y-17905637D01*
X8948315Y-17905637D02*
X8938792Y-17886589D01*
X8938792Y-17886589D02*
X8929268Y-17858018D01*
X8929268Y-17858018D02*
X8919744Y-17810399D01*
X8919744Y-17810399D02*
X8919744Y-17772303D01*
X8919744Y-17772303D02*
X8929268Y-17724684D01*
X8929268Y-17724684D02*
X8938792Y-17696113D01*
X8938792Y-17696113D02*
X8948315Y-17677065D01*
X8948315Y-17677065D02*
X8967363Y-17648494D01*
X8967363Y-17648494D02*
X8976887Y-17638970D01*
X9053077Y-17734208D02*
X9053077Y-17867542D01*
X9053077Y-17753256D02*
X9062601Y-17743732D01*
X9062601Y-17743732D02*
X9081649Y-17734208D01*
X9081649Y-17734208D02*
X9110220Y-17734208D01*
X9110220Y-17734208D02*
X9129268Y-17743732D01*
X9129268Y-17743732D02*
X9138792Y-17762780D01*
X9138792Y-17762780D02*
X9138792Y-17867542D01*
X9262601Y-17867542D02*
X9243554Y-17858018D01*
X9243554Y-17858018D02*
X9234030Y-17848494D01*
X9234030Y-17848494D02*
X9224506Y-17829446D01*
X9224506Y-17829446D02*
X9224506Y-17772303D01*
X9224506Y-17772303D02*
X9234030Y-17753256D01*
X9234030Y-17753256D02*
X9243554Y-17743732D01*
X9243554Y-17743732D02*
X9262601Y-17734208D01*
X9262601Y-17734208D02*
X9291173Y-17734208D01*
X9291173Y-17734208D02*
X9310220Y-17743732D01*
X9310220Y-17743732D02*
X9319744Y-17753256D01*
X9319744Y-17753256D02*
X9329268Y-17772303D01*
X9329268Y-17772303D02*
X9329268Y-17829446D01*
X9329268Y-17829446D02*
X9319744Y-17848494D01*
X9319744Y-17848494D02*
X9310220Y-17858018D01*
X9310220Y-17858018D02*
X9291173Y-17867542D01*
X9291173Y-17867542D02*
X9262601Y-17867542D01*
X9386411Y-17734208D02*
X9462601Y-17734208D01*
X9414982Y-17667542D02*
X9414982Y-17838970D01*
X9414982Y-17838970D02*
X9424506Y-17858018D01*
X9424506Y-17858018D02*
X9443554Y-17867542D01*
X9443554Y-17867542D02*
X9462601Y-17867542D01*
X9681649Y-17734208D02*
X9681649Y-17934208D01*
X9681649Y-17743732D02*
X9700696Y-17734208D01*
X9700696Y-17734208D02*
X9738792Y-17734208D01*
X9738792Y-17734208D02*
X9757839Y-17743732D01*
X9757839Y-17743732D02*
X9767363Y-17753256D01*
X9767363Y-17753256D02*
X9776887Y-17772303D01*
X9776887Y-17772303D02*
X9776887Y-17829446D01*
X9776887Y-17829446D02*
X9767363Y-17848494D01*
X9767363Y-17848494D02*
X9757839Y-17858018D01*
X9757839Y-17858018D02*
X9738792Y-17867542D01*
X9738792Y-17867542D02*
X9700696Y-17867542D01*
X9700696Y-17867542D02*
X9681649Y-17858018D01*
X9891173Y-17867542D02*
X9872125Y-17858018D01*
X9872125Y-17858018D02*
X9862601Y-17838970D01*
X9862601Y-17838970D02*
X9862601Y-17667542D01*
X10053077Y-17867542D02*
X10053077Y-17762780D01*
X10053077Y-17762780D02*
X10043554Y-17743732D01*
X10043554Y-17743732D02*
X10024506Y-17734208D01*
X10024506Y-17734208D02*
X9986411Y-17734208D01*
X9986411Y-17734208D02*
X9967363Y-17743732D01*
X10053077Y-17858018D02*
X10034030Y-17867542D01*
X10034030Y-17867542D02*
X9986411Y-17867542D01*
X9986411Y-17867542D02*
X9967363Y-17858018D01*
X9967363Y-17858018D02*
X9957839Y-17838970D01*
X9957839Y-17838970D02*
X9957839Y-17819922D01*
X9957839Y-17819922D02*
X9967363Y-17800875D01*
X9967363Y-17800875D02*
X9986411Y-17791351D01*
X9986411Y-17791351D02*
X10034030Y-17791351D01*
X10034030Y-17791351D02*
X10053077Y-17781827D01*
X10119744Y-17734208D02*
X10195935Y-17734208D01*
X10148316Y-17667542D02*
X10148316Y-17838970D01*
X10148316Y-17838970D02*
X10157839Y-17858018D01*
X10157839Y-17858018D02*
X10176887Y-17867542D01*
X10176887Y-17867542D02*
X10195935Y-17867542D01*
X10338792Y-17858018D02*
X10319744Y-17867542D01*
X10319744Y-17867542D02*
X10281649Y-17867542D01*
X10281649Y-17867542D02*
X10262601Y-17858018D01*
X10262601Y-17858018D02*
X10253077Y-17838970D01*
X10253077Y-17838970D02*
X10253077Y-17762780D01*
X10253077Y-17762780D02*
X10262601Y-17743732D01*
X10262601Y-17743732D02*
X10281649Y-17734208D01*
X10281649Y-17734208D02*
X10319744Y-17734208D01*
X10319744Y-17734208D02*
X10338792Y-17743732D01*
X10338792Y-17743732D02*
X10348316Y-17762780D01*
X10348316Y-17762780D02*
X10348316Y-17781827D01*
X10348316Y-17781827D02*
X10253077Y-17800875D01*
X10519744Y-17867542D02*
X10519744Y-17667542D01*
X10519744Y-17858018D02*
X10500697Y-17867542D01*
X10500697Y-17867542D02*
X10462601Y-17867542D01*
X10462601Y-17867542D02*
X10443554Y-17858018D01*
X10443554Y-17858018D02*
X10434030Y-17848494D01*
X10434030Y-17848494D02*
X10424506Y-17829446D01*
X10424506Y-17829446D02*
X10424506Y-17772303D01*
X10424506Y-17772303D02*
X10434030Y-17753256D01*
X10434030Y-17753256D02*
X10443554Y-17743732D01*
X10443554Y-17743732D02*
X10462601Y-17734208D01*
X10462601Y-17734208D02*
X10500697Y-17734208D01*
X10500697Y-17734208D02*
X10519744Y-17743732D01*
X10595935Y-17943732D02*
X10605458Y-17934208D01*
X10605458Y-17934208D02*
X10624506Y-17905637D01*
X10624506Y-17905637D02*
X10634030Y-17886589D01*
X10634030Y-17886589D02*
X10643554Y-17858018D01*
X10643554Y-17858018D02*
X10653077Y-17810399D01*
X10653077Y-17810399D02*
X10653077Y-17772303D01*
X10653077Y-17772303D02*
X10643554Y-17724684D01*
X10643554Y-17724684D02*
X10634030Y-17696113D01*
X10634030Y-17696113D02*
X10624506Y-17677065D01*
X10624506Y-17677065D02*
X10605458Y-17648494D01*
X10605458Y-17648494D02*
X10595935Y-17638970D01*
X3549443Y-17956058D02*
X3549443Y-18156058D01*
X3449443Y-18056058D02*
X3649443Y-18056058D01*
X3900696Y-17966589D02*
X3910220Y-17957065D01*
X3910220Y-17957065D02*
X3929267Y-17947542D01*
X3929267Y-17947542D02*
X3976886Y-17947542D01*
X3976886Y-17947542D02*
X3995934Y-17957065D01*
X3995934Y-17957065D02*
X4005458Y-17966589D01*
X4005458Y-17966589D02*
X4014982Y-17985637D01*
X4014982Y-17985637D02*
X4014982Y-18004684D01*
X4014982Y-18004684D02*
X4005458Y-18033256D01*
X4005458Y-18033256D02*
X3891172Y-18147542D01*
X3891172Y-18147542D02*
X4014982Y-18147542D01*
X4100696Y-18128494D02*
X4110220Y-18138018D01*
X4110220Y-18138018D02*
X4100696Y-18147542D01*
X4100696Y-18147542D02*
X4091172Y-18138018D01*
X4091172Y-18138018D02*
X4100696Y-18128494D01*
X4100696Y-18128494D02*
X4100696Y-18147542D01*
X4186410Y-17966589D02*
X4195934Y-17957065D01*
X4195934Y-17957065D02*
X4214982Y-17947542D01*
X4214982Y-17947542D02*
X4262601Y-17947542D01*
X4262601Y-17947542D02*
X4281648Y-17957065D01*
X4281648Y-17957065D02*
X4291172Y-17966589D01*
X4291172Y-17966589D02*
X4300696Y-17985637D01*
X4300696Y-17985637D02*
X4300696Y-18004684D01*
X4300696Y-18004684D02*
X4291172Y-18033256D01*
X4291172Y-18033256D02*
X4176886Y-18147542D01*
X4176886Y-18147542D02*
X4300696Y-18147542D01*
X4424505Y-17947542D02*
X4443553Y-17947542D01*
X4443553Y-17947542D02*
X4462601Y-17957065D01*
X4462601Y-17957065D02*
X4472125Y-17966589D01*
X4472125Y-17966589D02*
X4481648Y-17985637D01*
X4481648Y-17985637D02*
X4491172Y-18023732D01*
X4491172Y-18023732D02*
X4491172Y-18071351D01*
X4491172Y-18071351D02*
X4481648Y-18109446D01*
X4481648Y-18109446D02*
X4472125Y-18128494D01*
X4472125Y-18128494D02*
X4462601Y-18138018D01*
X4462601Y-18138018D02*
X4443553Y-18147542D01*
X4443553Y-18147542D02*
X4424505Y-18147542D01*
X4424505Y-18147542D02*
X4405458Y-18138018D01*
X4405458Y-18138018D02*
X4395934Y-18128494D01*
X4395934Y-18128494D02*
X4386410Y-18109446D01*
X4386410Y-18109446D02*
X4376886Y-18071351D01*
X4376886Y-18071351D02*
X4376886Y-18023732D01*
X4376886Y-18023732D02*
X4386410Y-17985637D01*
X4386410Y-17985637D02*
X4395934Y-17966589D01*
X4395934Y-17966589D02*
X4405458Y-17957065D01*
X4405458Y-17957065D02*
X4424505Y-17947542D01*
X4614982Y-17947542D02*
X4634029Y-17947542D01*
X4634029Y-17947542D02*
X4653077Y-17957065D01*
X4653077Y-17957065D02*
X4662601Y-17966589D01*
X4662601Y-17966589D02*
X4672125Y-17985637D01*
X4672125Y-17985637D02*
X4681648Y-18023732D01*
X4681648Y-18023732D02*
X4681648Y-18071351D01*
X4681648Y-18071351D02*
X4672125Y-18109446D01*
X4672125Y-18109446D02*
X4662601Y-18128494D01*
X4662601Y-18128494D02*
X4653077Y-18138018D01*
X4653077Y-18138018D02*
X4634029Y-18147542D01*
X4634029Y-18147542D02*
X4614982Y-18147542D01*
X4614982Y-18147542D02*
X4595934Y-18138018D01*
X4595934Y-18138018D02*
X4586410Y-18128494D01*
X4586410Y-18128494D02*
X4576886Y-18109446D01*
X4576886Y-18109446D02*
X4567363Y-18071351D01*
X4567363Y-18071351D02*
X4567363Y-18023732D01*
X4567363Y-18023732D02*
X4576886Y-17985637D01*
X4576886Y-17985637D02*
X4586410Y-17966589D01*
X4586410Y-17966589D02*
X4595934Y-17957065D01*
X4595934Y-17957065D02*
X4614982Y-17947542D01*
X4767363Y-18147542D02*
X4767363Y-18014208D01*
X4767363Y-18033256D02*
X4776886Y-18023732D01*
X4776886Y-18023732D02*
X4795934Y-18014208D01*
X4795934Y-18014208D02*
X4824506Y-18014208D01*
X4824506Y-18014208D02*
X4843553Y-18023732D01*
X4843553Y-18023732D02*
X4853077Y-18042780D01*
X4853077Y-18042780D02*
X4853077Y-18147542D01*
X4853077Y-18042780D02*
X4862601Y-18023732D01*
X4862601Y-18023732D02*
X4881648Y-18014208D01*
X4881648Y-18014208D02*
X4910220Y-18014208D01*
X4910220Y-18014208D02*
X4929267Y-18023732D01*
X4929267Y-18023732D02*
X4938791Y-18042780D01*
X4938791Y-18042780D02*
X4938791Y-18147542D01*
X5034029Y-18147542D02*
X5034029Y-18014208D01*
X5034029Y-18033256D02*
X5043553Y-18023732D01*
X5043553Y-18023732D02*
X5062601Y-18014208D01*
X5062601Y-18014208D02*
X5091172Y-18014208D01*
X5091172Y-18014208D02*
X5110220Y-18023732D01*
X5110220Y-18023732D02*
X5119744Y-18042780D01*
X5119744Y-18042780D02*
X5119744Y-18147542D01*
X5119744Y-18042780D02*
X5129267Y-18023732D01*
X5129267Y-18023732D02*
X5148315Y-18014208D01*
X5148315Y-18014208D02*
X5176886Y-18014208D01*
X5176886Y-18014208D02*
X5195934Y-18023732D01*
X5195934Y-18023732D02*
X5205458Y-18042780D01*
X5205458Y-18042780D02*
X5205458Y-18147542D01*
X5595934Y-17938018D02*
X5424506Y-18195161D01*
X5853077Y-17947542D02*
X5872125Y-17947542D01*
X5872125Y-17947542D02*
X5891172Y-17957065D01*
X5891172Y-17957065D02*
X5900696Y-17966589D01*
X5900696Y-17966589D02*
X5910220Y-17985637D01*
X5910220Y-17985637D02*
X5919744Y-18023732D01*
X5919744Y-18023732D02*
X5919744Y-18071351D01*
X5919744Y-18071351D02*
X5910220Y-18109446D01*
X5910220Y-18109446D02*
X5900696Y-18128494D01*
X5900696Y-18128494D02*
X5891172Y-18138018D01*
X5891172Y-18138018D02*
X5872125Y-18147542D01*
X5872125Y-18147542D02*
X5853077Y-18147542D01*
X5853077Y-18147542D02*
X5834029Y-18138018D01*
X5834029Y-18138018D02*
X5824506Y-18128494D01*
X5824506Y-18128494D02*
X5814982Y-18109446D01*
X5814982Y-18109446D02*
X5805458Y-18071351D01*
X5805458Y-18071351D02*
X5805458Y-18023732D01*
X5805458Y-18023732D02*
X5814982Y-17985637D01*
X5814982Y-17985637D02*
X5824506Y-17966589D01*
X5824506Y-17966589D02*
X5834029Y-17957065D01*
X5834029Y-17957065D02*
X5853077Y-17947542D01*
X6005458Y-18128494D02*
X6014982Y-18138018D01*
X6014982Y-18138018D02*
X6005458Y-18147542D01*
X6005458Y-18147542D02*
X5995934Y-18138018D01*
X5995934Y-18138018D02*
X6005458Y-18128494D01*
X6005458Y-18128494D02*
X6005458Y-18147542D01*
X6138791Y-17947542D02*
X6157839Y-17947542D01*
X6157839Y-17947542D02*
X6176887Y-17957065D01*
X6176887Y-17957065D02*
X6186410Y-17966589D01*
X6186410Y-17966589D02*
X6195934Y-17985637D01*
X6195934Y-17985637D02*
X6205458Y-18023732D01*
X6205458Y-18023732D02*
X6205458Y-18071351D01*
X6205458Y-18071351D02*
X6195934Y-18109446D01*
X6195934Y-18109446D02*
X6186410Y-18128494D01*
X6186410Y-18128494D02*
X6176887Y-18138018D01*
X6176887Y-18138018D02*
X6157839Y-18147542D01*
X6157839Y-18147542D02*
X6138791Y-18147542D01*
X6138791Y-18147542D02*
X6119744Y-18138018D01*
X6119744Y-18138018D02*
X6110220Y-18128494D01*
X6110220Y-18128494D02*
X6100696Y-18109446D01*
X6100696Y-18109446D02*
X6091172Y-18071351D01*
X6091172Y-18071351D02*
X6091172Y-18023732D01*
X6091172Y-18023732D02*
X6100696Y-17985637D01*
X6100696Y-17985637D02*
X6110220Y-17966589D01*
X6110220Y-17966589D02*
X6119744Y-17957065D01*
X6119744Y-17957065D02*
X6138791Y-17947542D01*
X6319744Y-18033256D02*
X6300696Y-18023732D01*
X6300696Y-18023732D02*
X6291172Y-18014208D01*
X6291172Y-18014208D02*
X6281648Y-17995161D01*
X6281648Y-17995161D02*
X6281648Y-17985637D01*
X6281648Y-17985637D02*
X6291172Y-17966589D01*
X6291172Y-17966589D02*
X6300696Y-17957065D01*
X6300696Y-17957065D02*
X6319744Y-17947542D01*
X6319744Y-17947542D02*
X6357839Y-17947542D01*
X6357839Y-17947542D02*
X6376887Y-17957065D01*
X6376887Y-17957065D02*
X6386410Y-17966589D01*
X6386410Y-17966589D02*
X6395934Y-17985637D01*
X6395934Y-17985637D02*
X6395934Y-17995161D01*
X6395934Y-17995161D02*
X6386410Y-18014208D01*
X6386410Y-18014208D02*
X6376887Y-18023732D01*
X6376887Y-18023732D02*
X6357839Y-18033256D01*
X6357839Y-18033256D02*
X6319744Y-18033256D01*
X6319744Y-18033256D02*
X6300696Y-18042780D01*
X6300696Y-18042780D02*
X6291172Y-18052303D01*
X6291172Y-18052303D02*
X6281648Y-18071351D01*
X6281648Y-18071351D02*
X6281648Y-18109446D01*
X6281648Y-18109446D02*
X6291172Y-18128494D01*
X6291172Y-18128494D02*
X6300696Y-18138018D01*
X6300696Y-18138018D02*
X6319744Y-18147542D01*
X6319744Y-18147542D02*
X6357839Y-18147542D01*
X6357839Y-18147542D02*
X6376887Y-18138018D01*
X6376887Y-18138018D02*
X6386410Y-18128494D01*
X6386410Y-18128494D02*
X6395934Y-18109446D01*
X6395934Y-18109446D02*
X6395934Y-18071351D01*
X6395934Y-18071351D02*
X6386410Y-18052303D01*
X6386410Y-18052303D02*
X6376887Y-18042780D01*
X6376887Y-18042780D02*
X6357839Y-18033256D01*
X6567363Y-17947542D02*
X6529267Y-17947542D01*
X6529267Y-17947542D02*
X6510220Y-17957065D01*
X6510220Y-17957065D02*
X6500696Y-17966589D01*
X6500696Y-17966589D02*
X6481648Y-17995161D01*
X6481648Y-17995161D02*
X6472125Y-18033256D01*
X6472125Y-18033256D02*
X6472125Y-18109446D01*
X6472125Y-18109446D02*
X6481648Y-18128494D01*
X6481648Y-18128494D02*
X6491172Y-18138018D01*
X6491172Y-18138018D02*
X6510220Y-18147542D01*
X6510220Y-18147542D02*
X6548315Y-18147542D01*
X6548315Y-18147542D02*
X6567363Y-18138018D01*
X6567363Y-18138018D02*
X6576887Y-18128494D01*
X6576887Y-18128494D02*
X6586410Y-18109446D01*
X6586410Y-18109446D02*
X6586410Y-18061827D01*
X6586410Y-18061827D02*
X6576887Y-18042780D01*
X6576887Y-18042780D02*
X6567363Y-18033256D01*
X6567363Y-18033256D02*
X6548315Y-18023732D01*
X6548315Y-18023732D02*
X6510220Y-18023732D01*
X6510220Y-18023732D02*
X6491172Y-18033256D01*
X6491172Y-18033256D02*
X6481648Y-18042780D01*
X6481648Y-18042780D02*
X6472125Y-18061827D01*
X6757839Y-17947542D02*
X6719744Y-17947542D01*
X6719744Y-17947542D02*
X6700696Y-17957065D01*
X6700696Y-17957065D02*
X6691172Y-17966589D01*
X6691172Y-17966589D02*
X6672125Y-17995161D01*
X6672125Y-17995161D02*
X6662601Y-18033256D01*
X6662601Y-18033256D02*
X6662601Y-18109446D01*
X6662601Y-18109446D02*
X6672125Y-18128494D01*
X6672125Y-18128494D02*
X6681648Y-18138018D01*
X6681648Y-18138018D02*
X6700696Y-18147542D01*
X6700696Y-18147542D02*
X6738791Y-18147542D01*
X6738791Y-18147542D02*
X6757839Y-18138018D01*
X6757839Y-18138018D02*
X6767363Y-18128494D01*
X6767363Y-18128494D02*
X6776887Y-18109446D01*
X6776887Y-18109446D02*
X6776887Y-18061827D01*
X6776887Y-18061827D02*
X6767363Y-18042780D01*
X6767363Y-18042780D02*
X6757839Y-18033256D01*
X6757839Y-18033256D02*
X6738791Y-18023732D01*
X6738791Y-18023732D02*
X6700696Y-18023732D01*
X6700696Y-18023732D02*
X6681648Y-18033256D01*
X6681648Y-18033256D02*
X6672125Y-18042780D01*
X6672125Y-18042780D02*
X6662601Y-18061827D01*
X6853077Y-17947542D02*
X6853077Y-17985637D01*
X6929268Y-17947542D02*
X6929268Y-17985637D01*
X7224506Y-18223732D02*
X7214982Y-18214208D01*
X7214982Y-18214208D02*
X7195934Y-18185637D01*
X7195934Y-18185637D02*
X7186410Y-18166589D01*
X7186410Y-18166589D02*
X7176887Y-18138018D01*
X7176887Y-18138018D02*
X7167363Y-18090399D01*
X7167363Y-18090399D02*
X7167363Y-18052303D01*
X7167363Y-18052303D02*
X7176887Y-18004684D01*
X7176887Y-18004684D02*
X7186410Y-17976113D01*
X7186410Y-17976113D02*
X7195934Y-17957065D01*
X7195934Y-17957065D02*
X7214982Y-17928494D01*
X7214982Y-17928494D02*
X7224506Y-17918970D01*
X7386410Y-18014208D02*
X7386410Y-18147542D01*
X7338791Y-17938018D02*
X7291172Y-18080875D01*
X7291172Y-18080875D02*
X7414982Y-18080875D01*
X7643553Y-18147542D02*
X7643553Y-17947542D01*
X7729268Y-18147542D02*
X7729268Y-18042780D01*
X7729268Y-18042780D02*
X7719744Y-18023732D01*
X7719744Y-18023732D02*
X7700696Y-18014208D01*
X7700696Y-18014208D02*
X7672125Y-18014208D01*
X7672125Y-18014208D02*
X7653077Y-18023732D01*
X7653077Y-18023732D02*
X7643553Y-18033256D01*
X7853077Y-18147542D02*
X7834030Y-18138018D01*
X7834030Y-18138018D02*
X7824506Y-18128494D01*
X7824506Y-18128494D02*
X7814982Y-18109446D01*
X7814982Y-18109446D02*
X7814982Y-18052303D01*
X7814982Y-18052303D02*
X7824506Y-18033256D01*
X7824506Y-18033256D02*
X7834030Y-18023732D01*
X7834030Y-18023732D02*
X7853077Y-18014208D01*
X7853077Y-18014208D02*
X7881649Y-18014208D01*
X7881649Y-18014208D02*
X7900696Y-18023732D01*
X7900696Y-18023732D02*
X7910220Y-18033256D01*
X7910220Y-18033256D02*
X7919744Y-18052303D01*
X7919744Y-18052303D02*
X7919744Y-18109446D01*
X7919744Y-18109446D02*
X7910220Y-18128494D01*
X7910220Y-18128494D02*
X7900696Y-18138018D01*
X7900696Y-18138018D02*
X7881649Y-18147542D01*
X7881649Y-18147542D02*
X7853077Y-18147542D01*
X8034030Y-18147542D02*
X8014982Y-18138018D01*
X8014982Y-18138018D02*
X8005458Y-18118970D01*
X8005458Y-18118970D02*
X8005458Y-17947542D01*
X8186411Y-18138018D02*
X8167363Y-18147542D01*
X8167363Y-18147542D02*
X8129268Y-18147542D01*
X8129268Y-18147542D02*
X8110220Y-18138018D01*
X8110220Y-18138018D02*
X8100696Y-18118970D01*
X8100696Y-18118970D02*
X8100696Y-18042780D01*
X8100696Y-18042780D02*
X8110220Y-18023732D01*
X8110220Y-18023732D02*
X8129268Y-18014208D01*
X8129268Y-18014208D02*
X8167363Y-18014208D01*
X8167363Y-18014208D02*
X8186411Y-18023732D01*
X8186411Y-18023732D02*
X8195934Y-18042780D01*
X8195934Y-18042780D02*
X8195934Y-18061827D01*
X8195934Y-18061827D02*
X8100696Y-18080875D01*
X8272125Y-18138018D02*
X8291172Y-18147542D01*
X8291172Y-18147542D02*
X8329268Y-18147542D01*
X8329268Y-18147542D02*
X8348315Y-18138018D01*
X8348315Y-18138018D02*
X8357839Y-18118970D01*
X8357839Y-18118970D02*
X8357839Y-18109446D01*
X8357839Y-18109446D02*
X8348315Y-18090399D01*
X8348315Y-18090399D02*
X8329268Y-18080875D01*
X8329268Y-18080875D02*
X8300696Y-18080875D01*
X8300696Y-18080875D02*
X8281649Y-18071351D01*
X8281649Y-18071351D02*
X8272125Y-18052303D01*
X8272125Y-18052303D02*
X8272125Y-18042780D01*
X8272125Y-18042780D02*
X8281649Y-18023732D01*
X8281649Y-18023732D02*
X8300696Y-18014208D01*
X8300696Y-18014208D02*
X8329268Y-18014208D01*
X8329268Y-18014208D02*
X8348315Y-18023732D01*
X8424506Y-18223732D02*
X8434030Y-18214208D01*
X8434030Y-18214208D02*
X8453077Y-18185637D01*
X8453077Y-18185637D02*
X8462601Y-18166589D01*
X8462601Y-18166589D02*
X8472125Y-18138018D01*
X8472125Y-18138018D02*
X8481649Y-18090399D01*
X8481649Y-18090399D02*
X8481649Y-18052303D01*
X8481649Y-18052303D02*
X8472125Y-18004684D01*
X8472125Y-18004684D02*
X8462601Y-17976113D01*
X8462601Y-17976113D02*
X8453077Y-17957065D01*
X8453077Y-17957065D02*
X8434030Y-17928494D01*
X8434030Y-17928494D02*
X8424506Y-17918970D01*
X8786411Y-18223732D02*
X8776887Y-18214208D01*
X8776887Y-18214208D02*
X8757839Y-18185637D01*
X8757839Y-18185637D02*
X8748315Y-18166589D01*
X8748315Y-18166589D02*
X8738792Y-18138018D01*
X8738792Y-18138018D02*
X8729268Y-18090399D01*
X8729268Y-18090399D02*
X8729268Y-18052303D01*
X8729268Y-18052303D02*
X8738792Y-18004684D01*
X8738792Y-18004684D02*
X8748315Y-17976113D01*
X8748315Y-17976113D02*
X8757839Y-17957065D01*
X8757839Y-17957065D02*
X8776887Y-17928494D01*
X8776887Y-17928494D02*
X8786411Y-17918970D01*
X8862601Y-18014208D02*
X8862601Y-18147542D01*
X8862601Y-18033256D02*
X8872125Y-18023732D01*
X8872125Y-18023732D02*
X8891173Y-18014208D01*
X8891173Y-18014208D02*
X8919744Y-18014208D01*
X8919744Y-18014208D02*
X8938792Y-18023732D01*
X8938792Y-18023732D02*
X8948315Y-18042780D01*
X8948315Y-18042780D02*
X8948315Y-18147542D01*
X9072125Y-18147542D02*
X9053077Y-18138018D01*
X9053077Y-18138018D02*
X9043554Y-18128494D01*
X9043554Y-18128494D02*
X9034030Y-18109446D01*
X9034030Y-18109446D02*
X9034030Y-18052303D01*
X9034030Y-18052303D02*
X9043554Y-18033256D01*
X9043554Y-18033256D02*
X9053077Y-18023732D01*
X9053077Y-18023732D02*
X9072125Y-18014208D01*
X9072125Y-18014208D02*
X9100696Y-18014208D01*
X9100696Y-18014208D02*
X9119744Y-18023732D01*
X9119744Y-18023732D02*
X9129268Y-18033256D01*
X9129268Y-18033256D02*
X9138792Y-18052303D01*
X9138792Y-18052303D02*
X9138792Y-18109446D01*
X9138792Y-18109446D02*
X9129268Y-18128494D01*
X9129268Y-18128494D02*
X9119744Y-18138018D01*
X9119744Y-18138018D02*
X9100696Y-18147542D01*
X9100696Y-18147542D02*
X9072125Y-18147542D01*
X9195935Y-18014208D02*
X9272125Y-18014208D01*
X9224506Y-17947542D02*
X9224506Y-18118970D01*
X9224506Y-18118970D02*
X9234030Y-18138018D01*
X9234030Y-18138018D02*
X9253077Y-18147542D01*
X9253077Y-18147542D02*
X9272125Y-18147542D01*
X9491173Y-18014208D02*
X9491173Y-18214208D01*
X9491173Y-18023732D02*
X9510220Y-18014208D01*
X9510220Y-18014208D02*
X9548316Y-18014208D01*
X9548316Y-18014208D02*
X9567363Y-18023732D01*
X9567363Y-18023732D02*
X9576887Y-18033256D01*
X9576887Y-18033256D02*
X9586411Y-18052303D01*
X9586411Y-18052303D02*
X9586411Y-18109446D01*
X9586411Y-18109446D02*
X9576887Y-18128494D01*
X9576887Y-18128494D02*
X9567363Y-18138018D01*
X9567363Y-18138018D02*
X9548316Y-18147542D01*
X9548316Y-18147542D02*
X9510220Y-18147542D01*
X9510220Y-18147542D02*
X9491173Y-18138018D01*
X9700696Y-18147542D02*
X9681649Y-18138018D01*
X9681649Y-18138018D02*
X9672125Y-18118970D01*
X9672125Y-18118970D02*
X9672125Y-17947542D01*
X9862601Y-18147542D02*
X9862601Y-18042780D01*
X9862601Y-18042780D02*
X9853077Y-18023732D01*
X9853077Y-18023732D02*
X9834030Y-18014208D01*
X9834030Y-18014208D02*
X9795935Y-18014208D01*
X9795935Y-18014208D02*
X9776887Y-18023732D01*
X9862601Y-18138018D02*
X9843554Y-18147542D01*
X9843554Y-18147542D02*
X9795935Y-18147542D01*
X9795935Y-18147542D02*
X9776887Y-18138018D01*
X9776887Y-18138018D02*
X9767363Y-18118970D01*
X9767363Y-18118970D02*
X9767363Y-18099922D01*
X9767363Y-18099922D02*
X9776887Y-18080875D01*
X9776887Y-18080875D02*
X9795935Y-18071351D01*
X9795935Y-18071351D02*
X9843554Y-18071351D01*
X9843554Y-18071351D02*
X9862601Y-18061827D01*
X9929268Y-18014208D02*
X10005458Y-18014208D01*
X9957839Y-17947542D02*
X9957839Y-18118970D01*
X9957839Y-18118970D02*
X9967363Y-18138018D01*
X9967363Y-18138018D02*
X9986411Y-18147542D01*
X9986411Y-18147542D02*
X10005458Y-18147542D01*
X10148316Y-18138018D02*
X10129268Y-18147542D01*
X10129268Y-18147542D02*
X10091173Y-18147542D01*
X10091173Y-18147542D02*
X10072125Y-18138018D01*
X10072125Y-18138018D02*
X10062601Y-18118970D01*
X10062601Y-18118970D02*
X10062601Y-18042780D01*
X10062601Y-18042780D02*
X10072125Y-18023732D01*
X10072125Y-18023732D02*
X10091173Y-18014208D01*
X10091173Y-18014208D02*
X10129268Y-18014208D01*
X10129268Y-18014208D02*
X10148316Y-18023732D01*
X10148316Y-18023732D02*
X10157839Y-18042780D01*
X10157839Y-18042780D02*
X10157839Y-18061827D01*
X10157839Y-18061827D02*
X10062601Y-18080875D01*
X10329268Y-18147542D02*
X10329268Y-17947542D01*
X10329268Y-18138018D02*
X10310220Y-18147542D01*
X10310220Y-18147542D02*
X10272125Y-18147542D01*
X10272125Y-18147542D02*
X10253077Y-18138018D01*
X10253077Y-18138018D02*
X10243554Y-18128494D01*
X10243554Y-18128494D02*
X10234030Y-18109446D01*
X10234030Y-18109446D02*
X10234030Y-18052303D01*
X10234030Y-18052303D02*
X10243554Y-18033256D01*
X10243554Y-18033256D02*
X10253077Y-18023732D01*
X10253077Y-18023732D02*
X10272125Y-18014208D01*
X10272125Y-18014208D02*
X10310220Y-18014208D01*
X10310220Y-18014208D02*
X10329268Y-18023732D01*
X10405458Y-18223732D02*
X10414982Y-18214208D01*
X10414982Y-18214208D02*
X10434030Y-18185637D01*
X10434030Y-18185637D02*
X10443554Y-18166589D01*
X10443554Y-18166589D02*
X10453077Y-18138018D01*
X10453077Y-18138018D02*
X10462601Y-18090399D01*
X10462601Y-18090399D02*
X10462601Y-18052303D01*
X10462601Y-18052303D02*
X10453077Y-18004684D01*
X10453077Y-18004684D02*
X10443554Y-17976113D01*
X10443554Y-17976113D02*
X10434030Y-17957065D01*
X10434030Y-17957065D02*
X10414982Y-17928494D01*
X10414982Y-17928494D02*
X10405458Y-17918970D01*
X3620154Y-18446769D02*
X3620154Y-18305346D01*
X3478731Y-18305346D01*
X3478731Y-18446769D01*
X3620154Y-18446769D01*
X3891172Y-18267542D02*
X4014982Y-18267542D01*
X4014982Y-18267542D02*
X3948315Y-18343732D01*
X3948315Y-18343732D02*
X3976886Y-18343732D01*
X3976886Y-18343732D02*
X3995934Y-18353256D01*
X3995934Y-18353256D02*
X4005458Y-18362780D01*
X4005458Y-18362780D02*
X4014982Y-18381827D01*
X4014982Y-18381827D02*
X4014982Y-18429446D01*
X4014982Y-18429446D02*
X4005458Y-18448494D01*
X4005458Y-18448494D02*
X3995934Y-18458018D01*
X3995934Y-18458018D02*
X3976886Y-18467542D01*
X3976886Y-18467542D02*
X3919743Y-18467542D01*
X3919743Y-18467542D02*
X3900696Y-18458018D01*
X3900696Y-18458018D02*
X3891172Y-18448494D01*
X4100696Y-18448494D02*
X4110220Y-18458018D01*
X4110220Y-18458018D02*
X4100696Y-18467542D01*
X4100696Y-18467542D02*
X4091172Y-18458018D01*
X4091172Y-18458018D02*
X4100696Y-18448494D01*
X4100696Y-18448494D02*
X4100696Y-18467542D01*
X4234029Y-18267542D02*
X4253077Y-18267542D01*
X4253077Y-18267542D02*
X4272125Y-18277065D01*
X4272125Y-18277065D02*
X4281648Y-18286589D01*
X4281648Y-18286589D02*
X4291172Y-18305637D01*
X4291172Y-18305637D02*
X4300696Y-18343732D01*
X4300696Y-18343732D02*
X4300696Y-18391351D01*
X4300696Y-18391351D02*
X4291172Y-18429446D01*
X4291172Y-18429446D02*
X4281648Y-18448494D01*
X4281648Y-18448494D02*
X4272125Y-18458018D01*
X4272125Y-18458018D02*
X4253077Y-18467542D01*
X4253077Y-18467542D02*
X4234029Y-18467542D01*
X4234029Y-18467542D02*
X4214982Y-18458018D01*
X4214982Y-18458018D02*
X4205458Y-18448494D01*
X4205458Y-18448494D02*
X4195934Y-18429446D01*
X4195934Y-18429446D02*
X4186410Y-18391351D01*
X4186410Y-18391351D02*
X4186410Y-18343732D01*
X4186410Y-18343732D02*
X4195934Y-18305637D01*
X4195934Y-18305637D02*
X4205458Y-18286589D01*
X4205458Y-18286589D02*
X4214982Y-18277065D01*
X4214982Y-18277065D02*
X4234029Y-18267542D01*
X4481648Y-18267542D02*
X4386410Y-18267542D01*
X4386410Y-18267542D02*
X4376886Y-18362780D01*
X4376886Y-18362780D02*
X4386410Y-18353256D01*
X4386410Y-18353256D02*
X4405458Y-18343732D01*
X4405458Y-18343732D02*
X4453077Y-18343732D01*
X4453077Y-18343732D02*
X4472125Y-18353256D01*
X4472125Y-18353256D02*
X4481648Y-18362780D01*
X4481648Y-18362780D02*
X4491172Y-18381827D01*
X4491172Y-18381827D02*
X4491172Y-18429446D01*
X4491172Y-18429446D02*
X4481648Y-18448494D01*
X4481648Y-18448494D02*
X4472125Y-18458018D01*
X4472125Y-18458018D02*
X4453077Y-18467542D01*
X4453077Y-18467542D02*
X4405458Y-18467542D01*
X4405458Y-18467542D02*
X4386410Y-18458018D01*
X4386410Y-18458018D02*
X4376886Y-18448494D01*
X4614982Y-18267542D02*
X4634029Y-18267542D01*
X4634029Y-18267542D02*
X4653077Y-18277065D01*
X4653077Y-18277065D02*
X4662601Y-18286589D01*
X4662601Y-18286589D02*
X4672125Y-18305637D01*
X4672125Y-18305637D02*
X4681648Y-18343732D01*
X4681648Y-18343732D02*
X4681648Y-18391351D01*
X4681648Y-18391351D02*
X4672125Y-18429446D01*
X4672125Y-18429446D02*
X4662601Y-18448494D01*
X4662601Y-18448494D02*
X4653077Y-18458018D01*
X4653077Y-18458018D02*
X4634029Y-18467542D01*
X4634029Y-18467542D02*
X4614982Y-18467542D01*
X4614982Y-18467542D02*
X4595934Y-18458018D01*
X4595934Y-18458018D02*
X4586410Y-18448494D01*
X4586410Y-18448494D02*
X4576886Y-18429446D01*
X4576886Y-18429446D02*
X4567363Y-18391351D01*
X4567363Y-18391351D02*
X4567363Y-18343732D01*
X4567363Y-18343732D02*
X4576886Y-18305637D01*
X4576886Y-18305637D02*
X4586410Y-18286589D01*
X4586410Y-18286589D02*
X4595934Y-18277065D01*
X4595934Y-18277065D02*
X4614982Y-18267542D01*
X4767363Y-18467542D02*
X4767363Y-18334208D01*
X4767363Y-18353256D02*
X4776886Y-18343732D01*
X4776886Y-18343732D02*
X4795934Y-18334208D01*
X4795934Y-18334208D02*
X4824506Y-18334208D01*
X4824506Y-18334208D02*
X4843553Y-18343732D01*
X4843553Y-18343732D02*
X4853077Y-18362780D01*
X4853077Y-18362780D02*
X4853077Y-18467542D01*
X4853077Y-18362780D02*
X4862601Y-18343732D01*
X4862601Y-18343732D02*
X4881648Y-18334208D01*
X4881648Y-18334208D02*
X4910220Y-18334208D01*
X4910220Y-18334208D02*
X4929267Y-18343732D01*
X4929267Y-18343732D02*
X4938791Y-18362780D01*
X4938791Y-18362780D02*
X4938791Y-18467542D01*
X5034029Y-18467542D02*
X5034029Y-18334208D01*
X5034029Y-18353256D02*
X5043553Y-18343732D01*
X5043553Y-18343732D02*
X5062601Y-18334208D01*
X5062601Y-18334208D02*
X5091172Y-18334208D01*
X5091172Y-18334208D02*
X5110220Y-18343732D01*
X5110220Y-18343732D02*
X5119744Y-18362780D01*
X5119744Y-18362780D02*
X5119744Y-18467542D01*
X5119744Y-18362780D02*
X5129267Y-18343732D01*
X5129267Y-18343732D02*
X5148315Y-18334208D01*
X5148315Y-18334208D02*
X5176886Y-18334208D01*
X5176886Y-18334208D02*
X5195934Y-18343732D01*
X5195934Y-18343732D02*
X5205458Y-18362780D01*
X5205458Y-18362780D02*
X5205458Y-18467542D01*
X5595934Y-18258018D02*
X5424506Y-18515161D01*
X5853077Y-18267542D02*
X5872125Y-18267542D01*
X5872125Y-18267542D02*
X5891172Y-18277065D01*
X5891172Y-18277065D02*
X5900696Y-18286589D01*
X5900696Y-18286589D02*
X5910220Y-18305637D01*
X5910220Y-18305637D02*
X5919744Y-18343732D01*
X5919744Y-18343732D02*
X5919744Y-18391351D01*
X5919744Y-18391351D02*
X5910220Y-18429446D01*
X5910220Y-18429446D02*
X5900696Y-18448494D01*
X5900696Y-18448494D02*
X5891172Y-18458018D01*
X5891172Y-18458018D02*
X5872125Y-18467542D01*
X5872125Y-18467542D02*
X5853077Y-18467542D01*
X5853077Y-18467542D02*
X5834029Y-18458018D01*
X5834029Y-18458018D02*
X5824506Y-18448494D01*
X5824506Y-18448494D02*
X5814982Y-18429446D01*
X5814982Y-18429446D02*
X5805458Y-18391351D01*
X5805458Y-18391351D02*
X5805458Y-18343732D01*
X5805458Y-18343732D02*
X5814982Y-18305637D01*
X5814982Y-18305637D02*
X5824506Y-18286589D01*
X5824506Y-18286589D02*
X5834029Y-18277065D01*
X5834029Y-18277065D02*
X5853077Y-18267542D01*
X6005458Y-18448494D02*
X6014982Y-18458018D01*
X6014982Y-18458018D02*
X6005458Y-18467542D01*
X6005458Y-18467542D02*
X5995934Y-18458018D01*
X5995934Y-18458018D02*
X6005458Y-18448494D01*
X6005458Y-18448494D02*
X6005458Y-18467542D01*
X6205458Y-18467542D02*
X6091172Y-18467542D01*
X6148315Y-18467542D02*
X6148315Y-18267542D01*
X6148315Y-18267542D02*
X6129267Y-18296113D01*
X6129267Y-18296113D02*
X6110220Y-18315161D01*
X6110220Y-18315161D02*
X6091172Y-18324684D01*
X6281648Y-18286589D02*
X6291172Y-18277065D01*
X6291172Y-18277065D02*
X6310220Y-18267542D01*
X6310220Y-18267542D02*
X6357839Y-18267542D01*
X6357839Y-18267542D02*
X6376887Y-18277065D01*
X6376887Y-18277065D02*
X6386410Y-18286589D01*
X6386410Y-18286589D02*
X6395934Y-18305637D01*
X6395934Y-18305637D02*
X6395934Y-18324684D01*
X6395934Y-18324684D02*
X6386410Y-18353256D01*
X6386410Y-18353256D02*
X6272125Y-18467542D01*
X6272125Y-18467542D02*
X6395934Y-18467542D01*
X6519744Y-18267542D02*
X6538791Y-18267542D01*
X6538791Y-18267542D02*
X6557839Y-18277065D01*
X6557839Y-18277065D02*
X6567363Y-18286589D01*
X6567363Y-18286589D02*
X6576887Y-18305637D01*
X6576887Y-18305637D02*
X6586410Y-18343732D01*
X6586410Y-18343732D02*
X6586410Y-18391351D01*
X6586410Y-18391351D02*
X6576887Y-18429446D01*
X6576887Y-18429446D02*
X6567363Y-18448494D01*
X6567363Y-18448494D02*
X6557839Y-18458018D01*
X6557839Y-18458018D02*
X6538791Y-18467542D01*
X6538791Y-18467542D02*
X6519744Y-18467542D01*
X6519744Y-18467542D02*
X6500696Y-18458018D01*
X6500696Y-18458018D02*
X6491172Y-18448494D01*
X6491172Y-18448494D02*
X6481648Y-18429446D01*
X6481648Y-18429446D02*
X6472125Y-18391351D01*
X6472125Y-18391351D02*
X6472125Y-18343732D01*
X6472125Y-18343732D02*
X6481648Y-18305637D01*
X6481648Y-18305637D02*
X6491172Y-18286589D01*
X6491172Y-18286589D02*
X6500696Y-18277065D01*
X6500696Y-18277065D02*
X6519744Y-18267542D01*
X6776887Y-18467542D02*
X6662601Y-18467542D01*
X6719744Y-18467542D02*
X6719744Y-18267542D01*
X6719744Y-18267542D02*
X6700696Y-18296113D01*
X6700696Y-18296113D02*
X6681648Y-18315161D01*
X6681648Y-18315161D02*
X6662601Y-18324684D01*
X6853077Y-18267542D02*
X6853077Y-18305637D01*
X6929268Y-18267542D02*
X6929268Y-18305637D01*
X7224506Y-18543732D02*
X7214982Y-18534208D01*
X7214982Y-18534208D02*
X7195934Y-18505637D01*
X7195934Y-18505637D02*
X7186410Y-18486589D01*
X7186410Y-18486589D02*
X7176887Y-18458018D01*
X7176887Y-18458018D02*
X7167363Y-18410399D01*
X7167363Y-18410399D02*
X7167363Y-18372303D01*
X7167363Y-18372303D02*
X7176887Y-18324684D01*
X7176887Y-18324684D02*
X7186410Y-18296113D01*
X7186410Y-18296113D02*
X7195934Y-18277065D01*
X7195934Y-18277065D02*
X7214982Y-18248494D01*
X7214982Y-18248494D02*
X7224506Y-18238970D01*
X7395934Y-18267542D02*
X7300696Y-18267542D01*
X7300696Y-18267542D02*
X7291172Y-18362780D01*
X7291172Y-18362780D02*
X7300696Y-18353256D01*
X7300696Y-18353256D02*
X7319744Y-18343732D01*
X7319744Y-18343732D02*
X7367363Y-18343732D01*
X7367363Y-18343732D02*
X7386410Y-18353256D01*
X7386410Y-18353256D02*
X7395934Y-18362780D01*
X7395934Y-18362780D02*
X7405458Y-18381827D01*
X7405458Y-18381827D02*
X7405458Y-18429446D01*
X7405458Y-18429446D02*
X7395934Y-18448494D01*
X7395934Y-18448494D02*
X7386410Y-18458018D01*
X7386410Y-18458018D02*
X7367363Y-18467542D01*
X7367363Y-18467542D02*
X7319744Y-18467542D01*
X7319744Y-18467542D02*
X7300696Y-18458018D01*
X7300696Y-18458018D02*
X7291172Y-18448494D01*
X7576887Y-18334208D02*
X7576887Y-18467542D01*
X7529268Y-18258018D02*
X7481649Y-18400875D01*
X7481649Y-18400875D02*
X7605458Y-18400875D01*
X7834030Y-18467542D02*
X7834030Y-18267542D01*
X7919744Y-18467542D02*
X7919744Y-18362780D01*
X7919744Y-18362780D02*
X7910220Y-18343732D01*
X7910220Y-18343732D02*
X7891172Y-18334208D01*
X7891172Y-18334208D02*
X7862601Y-18334208D01*
X7862601Y-18334208D02*
X7843553Y-18343732D01*
X7843553Y-18343732D02*
X7834030Y-18353256D01*
X8043553Y-18467542D02*
X8024506Y-18458018D01*
X8024506Y-18458018D02*
X8014982Y-18448494D01*
X8014982Y-18448494D02*
X8005458Y-18429446D01*
X8005458Y-18429446D02*
X8005458Y-18372303D01*
X8005458Y-18372303D02*
X8014982Y-18353256D01*
X8014982Y-18353256D02*
X8024506Y-18343732D01*
X8024506Y-18343732D02*
X8043553Y-18334208D01*
X8043553Y-18334208D02*
X8072125Y-18334208D01*
X8072125Y-18334208D02*
X8091172Y-18343732D01*
X8091172Y-18343732D02*
X8100696Y-18353256D01*
X8100696Y-18353256D02*
X8110220Y-18372303D01*
X8110220Y-18372303D02*
X8110220Y-18429446D01*
X8110220Y-18429446D02*
X8100696Y-18448494D01*
X8100696Y-18448494D02*
X8091172Y-18458018D01*
X8091172Y-18458018D02*
X8072125Y-18467542D01*
X8072125Y-18467542D02*
X8043553Y-18467542D01*
X8224506Y-18467542D02*
X8205458Y-18458018D01*
X8205458Y-18458018D02*
X8195934Y-18438970D01*
X8195934Y-18438970D02*
X8195934Y-18267542D01*
X8376887Y-18458018D02*
X8357839Y-18467542D01*
X8357839Y-18467542D02*
X8319744Y-18467542D01*
X8319744Y-18467542D02*
X8300696Y-18458018D01*
X8300696Y-18458018D02*
X8291172Y-18438970D01*
X8291172Y-18438970D02*
X8291172Y-18362780D01*
X8291172Y-18362780D02*
X8300696Y-18343732D01*
X8300696Y-18343732D02*
X8319744Y-18334208D01*
X8319744Y-18334208D02*
X8357839Y-18334208D01*
X8357839Y-18334208D02*
X8376887Y-18343732D01*
X8376887Y-18343732D02*
X8386411Y-18362780D01*
X8386411Y-18362780D02*
X8386411Y-18381827D01*
X8386411Y-18381827D02*
X8291172Y-18400875D01*
X8462601Y-18458018D02*
X8481649Y-18467542D01*
X8481649Y-18467542D02*
X8519744Y-18467542D01*
X8519744Y-18467542D02*
X8538792Y-18458018D01*
X8538792Y-18458018D02*
X8548315Y-18438970D01*
X8548315Y-18438970D02*
X8548315Y-18429446D01*
X8548315Y-18429446D02*
X8538792Y-18410399D01*
X8538792Y-18410399D02*
X8519744Y-18400875D01*
X8519744Y-18400875D02*
X8491173Y-18400875D01*
X8491173Y-18400875D02*
X8472125Y-18391351D01*
X8472125Y-18391351D02*
X8462601Y-18372303D01*
X8462601Y-18372303D02*
X8462601Y-18362780D01*
X8462601Y-18362780D02*
X8472125Y-18343732D01*
X8472125Y-18343732D02*
X8491173Y-18334208D01*
X8491173Y-18334208D02*
X8519744Y-18334208D01*
X8519744Y-18334208D02*
X8538792Y-18343732D01*
X8614982Y-18543732D02*
X8624506Y-18534208D01*
X8624506Y-18534208D02*
X8643554Y-18505637D01*
X8643554Y-18505637D02*
X8653077Y-18486589D01*
X8653077Y-18486589D02*
X8662601Y-18458018D01*
X8662601Y-18458018D02*
X8672125Y-18410399D01*
X8672125Y-18410399D02*
X8672125Y-18372303D01*
X8672125Y-18372303D02*
X8662601Y-18324684D01*
X8662601Y-18324684D02*
X8653077Y-18296113D01*
X8653077Y-18296113D02*
X8643554Y-18277065D01*
X8643554Y-18277065D02*
X8624506Y-18248494D01*
X8624506Y-18248494D02*
X8614982Y-18238970D01*
X8976887Y-18543732D02*
X8967363Y-18534208D01*
X8967363Y-18534208D02*
X8948315Y-18505637D01*
X8948315Y-18505637D02*
X8938792Y-18486589D01*
X8938792Y-18486589D02*
X8929268Y-18458018D01*
X8929268Y-18458018D02*
X8919744Y-18410399D01*
X8919744Y-18410399D02*
X8919744Y-18372303D01*
X8919744Y-18372303D02*
X8929268Y-18324684D01*
X8929268Y-18324684D02*
X8938792Y-18296113D01*
X8938792Y-18296113D02*
X8948315Y-18277065D01*
X8948315Y-18277065D02*
X8967363Y-18248494D01*
X8967363Y-18248494D02*
X8976887Y-18238970D01*
X9053077Y-18334208D02*
X9053077Y-18467542D01*
X9053077Y-18353256D02*
X9062601Y-18343732D01*
X9062601Y-18343732D02*
X9081649Y-18334208D01*
X9081649Y-18334208D02*
X9110220Y-18334208D01*
X9110220Y-18334208D02*
X9129268Y-18343732D01*
X9129268Y-18343732D02*
X9138792Y-18362780D01*
X9138792Y-18362780D02*
X9138792Y-18467542D01*
X9262601Y-18467542D02*
X9243554Y-18458018D01*
X9243554Y-18458018D02*
X9234030Y-18448494D01*
X9234030Y-18448494D02*
X9224506Y-18429446D01*
X9224506Y-18429446D02*
X9224506Y-18372303D01*
X9224506Y-18372303D02*
X9234030Y-18353256D01*
X9234030Y-18353256D02*
X9243554Y-18343732D01*
X9243554Y-18343732D02*
X9262601Y-18334208D01*
X9262601Y-18334208D02*
X9291173Y-18334208D01*
X9291173Y-18334208D02*
X9310220Y-18343732D01*
X9310220Y-18343732D02*
X9319744Y-18353256D01*
X9319744Y-18353256D02*
X9329268Y-18372303D01*
X9329268Y-18372303D02*
X9329268Y-18429446D01*
X9329268Y-18429446D02*
X9319744Y-18448494D01*
X9319744Y-18448494D02*
X9310220Y-18458018D01*
X9310220Y-18458018D02*
X9291173Y-18467542D01*
X9291173Y-18467542D02*
X9262601Y-18467542D01*
X9386411Y-18334208D02*
X9462601Y-18334208D01*
X9414982Y-18267542D02*
X9414982Y-18438970D01*
X9414982Y-18438970D02*
X9424506Y-18458018D01*
X9424506Y-18458018D02*
X9443554Y-18467542D01*
X9443554Y-18467542D02*
X9462601Y-18467542D01*
X9681649Y-18334208D02*
X9681649Y-18534208D01*
X9681649Y-18343732D02*
X9700696Y-18334208D01*
X9700696Y-18334208D02*
X9738792Y-18334208D01*
X9738792Y-18334208D02*
X9757839Y-18343732D01*
X9757839Y-18343732D02*
X9767363Y-18353256D01*
X9767363Y-18353256D02*
X9776887Y-18372303D01*
X9776887Y-18372303D02*
X9776887Y-18429446D01*
X9776887Y-18429446D02*
X9767363Y-18448494D01*
X9767363Y-18448494D02*
X9757839Y-18458018D01*
X9757839Y-18458018D02*
X9738792Y-18467542D01*
X9738792Y-18467542D02*
X9700696Y-18467542D01*
X9700696Y-18467542D02*
X9681649Y-18458018D01*
X9891173Y-18467542D02*
X9872125Y-18458018D01*
X9872125Y-18458018D02*
X9862601Y-18438970D01*
X9862601Y-18438970D02*
X9862601Y-18267542D01*
X10053077Y-18467542D02*
X10053077Y-18362780D01*
X10053077Y-18362780D02*
X10043554Y-18343732D01*
X10043554Y-18343732D02*
X10024506Y-18334208D01*
X10024506Y-18334208D02*
X9986411Y-18334208D01*
X9986411Y-18334208D02*
X9967363Y-18343732D01*
X10053077Y-18458018D02*
X10034030Y-18467542D01*
X10034030Y-18467542D02*
X9986411Y-18467542D01*
X9986411Y-18467542D02*
X9967363Y-18458018D01*
X9967363Y-18458018D02*
X9957839Y-18438970D01*
X9957839Y-18438970D02*
X9957839Y-18419922D01*
X9957839Y-18419922D02*
X9967363Y-18400875D01*
X9967363Y-18400875D02*
X9986411Y-18391351D01*
X9986411Y-18391351D02*
X10034030Y-18391351D01*
X10034030Y-18391351D02*
X10053077Y-18381827D01*
X10119744Y-18334208D02*
X10195935Y-18334208D01*
X10148316Y-18267542D02*
X10148316Y-18438970D01*
X10148316Y-18438970D02*
X10157839Y-18458018D01*
X10157839Y-18458018D02*
X10176887Y-18467542D01*
X10176887Y-18467542D02*
X10195935Y-18467542D01*
X10338792Y-18458018D02*
X10319744Y-18467542D01*
X10319744Y-18467542D02*
X10281649Y-18467542D01*
X10281649Y-18467542D02*
X10262601Y-18458018D01*
X10262601Y-18458018D02*
X10253077Y-18438970D01*
X10253077Y-18438970D02*
X10253077Y-18362780D01*
X10253077Y-18362780D02*
X10262601Y-18343732D01*
X10262601Y-18343732D02*
X10281649Y-18334208D01*
X10281649Y-18334208D02*
X10319744Y-18334208D01*
X10319744Y-18334208D02*
X10338792Y-18343732D01*
X10338792Y-18343732D02*
X10348316Y-18362780D01*
X10348316Y-18362780D02*
X10348316Y-18381827D01*
X10348316Y-18381827D02*
X10253077Y-18400875D01*
X10519744Y-18467542D02*
X10519744Y-18267542D01*
X10519744Y-18458018D02*
X10500697Y-18467542D01*
X10500697Y-18467542D02*
X10462601Y-18467542D01*
X10462601Y-18467542D02*
X10443554Y-18458018D01*
X10443554Y-18458018D02*
X10434030Y-18448494D01*
X10434030Y-18448494D02*
X10424506Y-18429446D01*
X10424506Y-18429446D02*
X10424506Y-18372303D01*
X10424506Y-18372303D02*
X10434030Y-18353256D01*
X10434030Y-18353256D02*
X10443554Y-18343732D01*
X10443554Y-18343732D02*
X10462601Y-18334208D01*
X10462601Y-18334208D02*
X10500697Y-18334208D01*
X10500697Y-18334208D02*
X10519744Y-18343732D01*
X10595935Y-18543732D02*
X10605458Y-18534208D01*
X10605458Y-18534208D02*
X10624506Y-18505637D01*
X10624506Y-18505637D02*
X10634030Y-18486589D01*
X10634030Y-18486589D02*
X10643554Y-18458018D01*
X10643554Y-18458018D02*
X10653077Y-18410399D01*
X10653077Y-18410399D02*
X10653077Y-18372303D01*
X10653077Y-18372303D02*
X10643554Y-18324684D01*
X10643554Y-18324684D02*
X10634030Y-18296113D01*
X10634030Y-18296113D02*
X10624506Y-18277065D01*
X10624506Y-18277065D02*
X10605458Y-18248494D01*
X10605458Y-18248494D02*
X10595935Y-18238970D01*
X3549443Y-18796058D02*
X3649443Y-18696058D01*
X3549443Y-18596058D01*
X3449443Y-18696058D01*
X3549443Y-18796058D01*
X4005458Y-18587542D02*
X3910220Y-18587542D01*
X3910220Y-18587542D02*
X3900696Y-18682780D01*
X3900696Y-18682780D02*
X3910220Y-18673256D01*
X3910220Y-18673256D02*
X3929267Y-18663732D01*
X3929267Y-18663732D02*
X3976886Y-18663732D01*
X3976886Y-18663732D02*
X3995934Y-18673256D01*
X3995934Y-18673256D02*
X4005458Y-18682780D01*
X4005458Y-18682780D02*
X4014982Y-18701827D01*
X4014982Y-18701827D02*
X4014982Y-18749446D01*
X4014982Y-18749446D02*
X4005458Y-18768494D01*
X4005458Y-18768494D02*
X3995934Y-18778018D01*
X3995934Y-18778018D02*
X3976886Y-18787542D01*
X3976886Y-18787542D02*
X3929267Y-18787542D01*
X3929267Y-18787542D02*
X3910220Y-18778018D01*
X3910220Y-18778018D02*
X3900696Y-18768494D01*
X4100696Y-18768494D02*
X4110220Y-18778018D01*
X4110220Y-18778018D02*
X4100696Y-18787542D01*
X4100696Y-18787542D02*
X4091172Y-18778018D01*
X4091172Y-18778018D02*
X4100696Y-18768494D01*
X4100696Y-18768494D02*
X4100696Y-18787542D01*
X4234029Y-18587542D02*
X4253077Y-18587542D01*
X4253077Y-18587542D02*
X4272125Y-18597065D01*
X4272125Y-18597065D02*
X4281648Y-18606589D01*
X4281648Y-18606589D02*
X4291172Y-18625637D01*
X4291172Y-18625637D02*
X4300696Y-18663732D01*
X4300696Y-18663732D02*
X4300696Y-18711351D01*
X4300696Y-18711351D02*
X4291172Y-18749446D01*
X4291172Y-18749446D02*
X4281648Y-18768494D01*
X4281648Y-18768494D02*
X4272125Y-18778018D01*
X4272125Y-18778018D02*
X4253077Y-18787542D01*
X4253077Y-18787542D02*
X4234029Y-18787542D01*
X4234029Y-18787542D02*
X4214982Y-18778018D01*
X4214982Y-18778018D02*
X4205458Y-18768494D01*
X4205458Y-18768494D02*
X4195934Y-18749446D01*
X4195934Y-18749446D02*
X4186410Y-18711351D01*
X4186410Y-18711351D02*
X4186410Y-18663732D01*
X4186410Y-18663732D02*
X4195934Y-18625637D01*
X4195934Y-18625637D02*
X4205458Y-18606589D01*
X4205458Y-18606589D02*
X4214982Y-18597065D01*
X4214982Y-18597065D02*
X4234029Y-18587542D01*
X4481648Y-18587542D02*
X4386410Y-18587542D01*
X4386410Y-18587542D02*
X4376886Y-18682780D01*
X4376886Y-18682780D02*
X4386410Y-18673256D01*
X4386410Y-18673256D02*
X4405458Y-18663732D01*
X4405458Y-18663732D02*
X4453077Y-18663732D01*
X4453077Y-18663732D02*
X4472125Y-18673256D01*
X4472125Y-18673256D02*
X4481648Y-18682780D01*
X4481648Y-18682780D02*
X4491172Y-18701827D01*
X4491172Y-18701827D02*
X4491172Y-18749446D01*
X4491172Y-18749446D02*
X4481648Y-18768494D01*
X4481648Y-18768494D02*
X4472125Y-18778018D01*
X4472125Y-18778018D02*
X4453077Y-18787542D01*
X4453077Y-18787542D02*
X4405458Y-18787542D01*
X4405458Y-18787542D02*
X4386410Y-18778018D01*
X4386410Y-18778018D02*
X4376886Y-18768494D01*
X4614982Y-18587542D02*
X4634029Y-18587542D01*
X4634029Y-18587542D02*
X4653077Y-18597065D01*
X4653077Y-18597065D02*
X4662601Y-18606589D01*
X4662601Y-18606589D02*
X4672125Y-18625637D01*
X4672125Y-18625637D02*
X4681648Y-18663732D01*
X4681648Y-18663732D02*
X4681648Y-18711351D01*
X4681648Y-18711351D02*
X4672125Y-18749446D01*
X4672125Y-18749446D02*
X4662601Y-18768494D01*
X4662601Y-18768494D02*
X4653077Y-18778018D01*
X4653077Y-18778018D02*
X4634029Y-18787542D01*
X4634029Y-18787542D02*
X4614982Y-18787542D01*
X4614982Y-18787542D02*
X4595934Y-18778018D01*
X4595934Y-18778018D02*
X4586410Y-18768494D01*
X4586410Y-18768494D02*
X4576886Y-18749446D01*
X4576886Y-18749446D02*
X4567363Y-18711351D01*
X4567363Y-18711351D02*
X4567363Y-18663732D01*
X4567363Y-18663732D02*
X4576886Y-18625637D01*
X4576886Y-18625637D02*
X4586410Y-18606589D01*
X4586410Y-18606589D02*
X4595934Y-18597065D01*
X4595934Y-18597065D02*
X4614982Y-18587542D01*
X4767363Y-18787542D02*
X4767363Y-18654208D01*
X4767363Y-18673256D02*
X4776886Y-18663732D01*
X4776886Y-18663732D02*
X4795934Y-18654208D01*
X4795934Y-18654208D02*
X4824506Y-18654208D01*
X4824506Y-18654208D02*
X4843553Y-18663732D01*
X4843553Y-18663732D02*
X4853077Y-18682780D01*
X4853077Y-18682780D02*
X4853077Y-18787542D01*
X4853077Y-18682780D02*
X4862601Y-18663732D01*
X4862601Y-18663732D02*
X4881648Y-18654208D01*
X4881648Y-18654208D02*
X4910220Y-18654208D01*
X4910220Y-18654208D02*
X4929267Y-18663732D01*
X4929267Y-18663732D02*
X4938791Y-18682780D01*
X4938791Y-18682780D02*
X4938791Y-18787542D01*
X5034029Y-18787542D02*
X5034029Y-18654208D01*
X5034029Y-18673256D02*
X5043553Y-18663732D01*
X5043553Y-18663732D02*
X5062601Y-18654208D01*
X5062601Y-18654208D02*
X5091172Y-18654208D01*
X5091172Y-18654208D02*
X5110220Y-18663732D01*
X5110220Y-18663732D02*
X5119744Y-18682780D01*
X5119744Y-18682780D02*
X5119744Y-18787542D01*
X5119744Y-18682780D02*
X5129267Y-18663732D01*
X5129267Y-18663732D02*
X5148315Y-18654208D01*
X5148315Y-18654208D02*
X5176886Y-18654208D01*
X5176886Y-18654208D02*
X5195934Y-18663732D01*
X5195934Y-18663732D02*
X5205458Y-18682780D01*
X5205458Y-18682780D02*
X5205458Y-18787542D01*
X5595934Y-18578018D02*
X5424506Y-18835161D01*
X5853077Y-18587542D02*
X5872125Y-18587542D01*
X5872125Y-18587542D02*
X5891172Y-18597065D01*
X5891172Y-18597065D02*
X5900696Y-18606589D01*
X5900696Y-18606589D02*
X5910220Y-18625637D01*
X5910220Y-18625637D02*
X5919744Y-18663732D01*
X5919744Y-18663732D02*
X5919744Y-18711351D01*
X5919744Y-18711351D02*
X5910220Y-18749446D01*
X5910220Y-18749446D02*
X5900696Y-18768494D01*
X5900696Y-18768494D02*
X5891172Y-18778018D01*
X5891172Y-18778018D02*
X5872125Y-18787542D01*
X5872125Y-18787542D02*
X5853077Y-18787542D01*
X5853077Y-18787542D02*
X5834029Y-18778018D01*
X5834029Y-18778018D02*
X5824506Y-18768494D01*
X5824506Y-18768494D02*
X5814982Y-18749446D01*
X5814982Y-18749446D02*
X5805458Y-18711351D01*
X5805458Y-18711351D02*
X5805458Y-18663732D01*
X5805458Y-18663732D02*
X5814982Y-18625637D01*
X5814982Y-18625637D02*
X5824506Y-18606589D01*
X5824506Y-18606589D02*
X5834029Y-18597065D01*
X5834029Y-18597065D02*
X5853077Y-18587542D01*
X6005458Y-18768494D02*
X6014982Y-18778018D01*
X6014982Y-18778018D02*
X6005458Y-18787542D01*
X6005458Y-18787542D02*
X5995934Y-18778018D01*
X5995934Y-18778018D02*
X6005458Y-18768494D01*
X6005458Y-18768494D02*
X6005458Y-18787542D01*
X6205458Y-18787542D02*
X6091172Y-18787542D01*
X6148315Y-18787542D02*
X6148315Y-18587542D01*
X6148315Y-18587542D02*
X6129267Y-18616113D01*
X6129267Y-18616113D02*
X6110220Y-18635161D01*
X6110220Y-18635161D02*
X6091172Y-18644684D01*
X6300696Y-18787542D02*
X6338791Y-18787542D01*
X6338791Y-18787542D02*
X6357839Y-18778018D01*
X6357839Y-18778018D02*
X6367363Y-18768494D01*
X6367363Y-18768494D02*
X6386410Y-18739922D01*
X6386410Y-18739922D02*
X6395934Y-18701827D01*
X6395934Y-18701827D02*
X6395934Y-18625637D01*
X6395934Y-18625637D02*
X6386410Y-18606589D01*
X6386410Y-18606589D02*
X6376887Y-18597065D01*
X6376887Y-18597065D02*
X6357839Y-18587542D01*
X6357839Y-18587542D02*
X6319744Y-18587542D01*
X6319744Y-18587542D02*
X6300696Y-18597065D01*
X6300696Y-18597065D02*
X6291172Y-18606589D01*
X6291172Y-18606589D02*
X6281648Y-18625637D01*
X6281648Y-18625637D02*
X6281648Y-18673256D01*
X6281648Y-18673256D02*
X6291172Y-18692303D01*
X6291172Y-18692303D02*
X6300696Y-18701827D01*
X6300696Y-18701827D02*
X6319744Y-18711351D01*
X6319744Y-18711351D02*
X6357839Y-18711351D01*
X6357839Y-18711351D02*
X6376887Y-18701827D01*
X6376887Y-18701827D02*
X6386410Y-18692303D01*
X6386410Y-18692303D02*
X6395934Y-18673256D01*
X6510220Y-18673256D02*
X6491172Y-18663732D01*
X6491172Y-18663732D02*
X6481648Y-18654208D01*
X6481648Y-18654208D02*
X6472125Y-18635161D01*
X6472125Y-18635161D02*
X6472125Y-18625637D01*
X6472125Y-18625637D02*
X6481648Y-18606589D01*
X6481648Y-18606589D02*
X6491172Y-18597065D01*
X6491172Y-18597065D02*
X6510220Y-18587542D01*
X6510220Y-18587542D02*
X6548315Y-18587542D01*
X6548315Y-18587542D02*
X6567363Y-18597065D01*
X6567363Y-18597065D02*
X6576887Y-18606589D01*
X6576887Y-18606589D02*
X6586410Y-18625637D01*
X6586410Y-18625637D02*
X6586410Y-18635161D01*
X6586410Y-18635161D02*
X6576887Y-18654208D01*
X6576887Y-18654208D02*
X6567363Y-18663732D01*
X6567363Y-18663732D02*
X6548315Y-18673256D01*
X6548315Y-18673256D02*
X6510220Y-18673256D01*
X6510220Y-18673256D02*
X6491172Y-18682780D01*
X6491172Y-18682780D02*
X6481648Y-18692303D01*
X6481648Y-18692303D02*
X6472125Y-18711351D01*
X6472125Y-18711351D02*
X6472125Y-18749446D01*
X6472125Y-18749446D02*
X6481648Y-18768494D01*
X6481648Y-18768494D02*
X6491172Y-18778018D01*
X6491172Y-18778018D02*
X6510220Y-18787542D01*
X6510220Y-18787542D02*
X6548315Y-18787542D01*
X6548315Y-18787542D02*
X6567363Y-18778018D01*
X6567363Y-18778018D02*
X6576887Y-18768494D01*
X6576887Y-18768494D02*
X6586410Y-18749446D01*
X6586410Y-18749446D02*
X6586410Y-18711351D01*
X6586410Y-18711351D02*
X6576887Y-18692303D01*
X6576887Y-18692303D02*
X6567363Y-18682780D01*
X6567363Y-18682780D02*
X6548315Y-18673256D01*
X6700696Y-18673256D02*
X6681648Y-18663732D01*
X6681648Y-18663732D02*
X6672125Y-18654208D01*
X6672125Y-18654208D02*
X6662601Y-18635161D01*
X6662601Y-18635161D02*
X6662601Y-18625637D01*
X6662601Y-18625637D02*
X6672125Y-18606589D01*
X6672125Y-18606589D02*
X6681648Y-18597065D01*
X6681648Y-18597065D02*
X6700696Y-18587542D01*
X6700696Y-18587542D02*
X6738791Y-18587542D01*
X6738791Y-18587542D02*
X6757839Y-18597065D01*
X6757839Y-18597065D02*
X6767363Y-18606589D01*
X6767363Y-18606589D02*
X6776887Y-18625637D01*
X6776887Y-18625637D02*
X6776887Y-18635161D01*
X6776887Y-18635161D02*
X6767363Y-18654208D01*
X6767363Y-18654208D02*
X6757839Y-18663732D01*
X6757839Y-18663732D02*
X6738791Y-18673256D01*
X6738791Y-18673256D02*
X6700696Y-18673256D01*
X6700696Y-18673256D02*
X6681648Y-18682780D01*
X6681648Y-18682780D02*
X6672125Y-18692303D01*
X6672125Y-18692303D02*
X6662601Y-18711351D01*
X6662601Y-18711351D02*
X6662601Y-18749446D01*
X6662601Y-18749446D02*
X6672125Y-18768494D01*
X6672125Y-18768494D02*
X6681648Y-18778018D01*
X6681648Y-18778018D02*
X6700696Y-18787542D01*
X6700696Y-18787542D02*
X6738791Y-18787542D01*
X6738791Y-18787542D02*
X6757839Y-18778018D01*
X6757839Y-18778018D02*
X6767363Y-18768494D01*
X6767363Y-18768494D02*
X6776887Y-18749446D01*
X6776887Y-18749446D02*
X6776887Y-18711351D01*
X6776887Y-18711351D02*
X6767363Y-18692303D01*
X6767363Y-18692303D02*
X6757839Y-18682780D01*
X6757839Y-18682780D02*
X6738791Y-18673256D01*
X6853077Y-18587542D02*
X6853077Y-18625637D01*
X6929268Y-18587542D02*
X6929268Y-18625637D01*
X7224506Y-18863732D02*
X7214982Y-18854208D01*
X7214982Y-18854208D02*
X7195934Y-18825637D01*
X7195934Y-18825637D02*
X7186410Y-18806589D01*
X7186410Y-18806589D02*
X7176887Y-18778018D01*
X7176887Y-18778018D02*
X7167363Y-18730399D01*
X7167363Y-18730399D02*
X7167363Y-18692303D01*
X7167363Y-18692303D02*
X7176887Y-18644684D01*
X7176887Y-18644684D02*
X7186410Y-18616113D01*
X7186410Y-18616113D02*
X7195934Y-18597065D01*
X7195934Y-18597065D02*
X7214982Y-18568494D01*
X7214982Y-18568494D02*
X7224506Y-18558970D01*
X7291172Y-18606589D02*
X7300696Y-18597065D01*
X7300696Y-18597065D02*
X7319744Y-18587542D01*
X7319744Y-18587542D02*
X7367363Y-18587542D01*
X7367363Y-18587542D02*
X7386410Y-18597065D01*
X7386410Y-18597065D02*
X7395934Y-18606589D01*
X7395934Y-18606589D02*
X7405458Y-18625637D01*
X7405458Y-18625637D02*
X7405458Y-18644684D01*
X7405458Y-18644684D02*
X7395934Y-18673256D01*
X7395934Y-18673256D02*
X7281649Y-18787542D01*
X7281649Y-18787542D02*
X7405458Y-18787542D01*
X7472125Y-18587542D02*
X7605458Y-18587542D01*
X7605458Y-18587542D02*
X7519744Y-18787542D01*
X7834030Y-18787542D02*
X7834030Y-18587542D01*
X7919744Y-18787542D02*
X7919744Y-18682780D01*
X7919744Y-18682780D02*
X7910220Y-18663732D01*
X7910220Y-18663732D02*
X7891172Y-18654208D01*
X7891172Y-18654208D02*
X7862601Y-18654208D01*
X7862601Y-18654208D02*
X7843553Y-18663732D01*
X7843553Y-18663732D02*
X7834030Y-18673256D01*
X8043553Y-18787542D02*
X8024506Y-18778018D01*
X8024506Y-18778018D02*
X8014982Y-18768494D01*
X8014982Y-18768494D02*
X8005458Y-18749446D01*
X8005458Y-18749446D02*
X8005458Y-18692303D01*
X8005458Y-18692303D02*
X8014982Y-18673256D01*
X8014982Y-18673256D02*
X8024506Y-18663732D01*
X8024506Y-18663732D02*
X8043553Y-18654208D01*
X8043553Y-18654208D02*
X8072125Y-18654208D01*
X8072125Y-18654208D02*
X8091172Y-18663732D01*
X8091172Y-18663732D02*
X8100696Y-18673256D01*
X8100696Y-18673256D02*
X8110220Y-18692303D01*
X8110220Y-18692303D02*
X8110220Y-18749446D01*
X8110220Y-18749446D02*
X8100696Y-18768494D01*
X8100696Y-18768494D02*
X8091172Y-18778018D01*
X8091172Y-18778018D02*
X8072125Y-18787542D01*
X8072125Y-18787542D02*
X8043553Y-18787542D01*
X8224506Y-18787542D02*
X8205458Y-18778018D01*
X8205458Y-18778018D02*
X8195934Y-18758970D01*
X8195934Y-18758970D02*
X8195934Y-18587542D01*
X8376887Y-18778018D02*
X8357839Y-18787542D01*
X8357839Y-18787542D02*
X8319744Y-18787542D01*
X8319744Y-18787542D02*
X8300696Y-18778018D01*
X8300696Y-18778018D02*
X8291172Y-18758970D01*
X8291172Y-18758970D02*
X8291172Y-18682780D01*
X8291172Y-18682780D02*
X8300696Y-18663732D01*
X8300696Y-18663732D02*
X8319744Y-18654208D01*
X8319744Y-18654208D02*
X8357839Y-18654208D01*
X8357839Y-18654208D02*
X8376887Y-18663732D01*
X8376887Y-18663732D02*
X8386411Y-18682780D01*
X8386411Y-18682780D02*
X8386411Y-18701827D01*
X8386411Y-18701827D02*
X8291172Y-18720875D01*
X8462601Y-18778018D02*
X8481649Y-18787542D01*
X8481649Y-18787542D02*
X8519744Y-18787542D01*
X8519744Y-18787542D02*
X8538792Y-18778018D01*
X8538792Y-18778018D02*
X8548315Y-18758970D01*
X8548315Y-18758970D02*
X8548315Y-18749446D01*
X8548315Y-18749446D02*
X8538792Y-18730399D01*
X8538792Y-18730399D02*
X8519744Y-18720875D01*
X8519744Y-18720875D02*
X8491173Y-18720875D01*
X8491173Y-18720875D02*
X8472125Y-18711351D01*
X8472125Y-18711351D02*
X8462601Y-18692303D01*
X8462601Y-18692303D02*
X8462601Y-18682780D01*
X8462601Y-18682780D02*
X8472125Y-18663732D01*
X8472125Y-18663732D02*
X8491173Y-18654208D01*
X8491173Y-18654208D02*
X8519744Y-18654208D01*
X8519744Y-18654208D02*
X8538792Y-18663732D01*
X8614982Y-18863732D02*
X8624506Y-18854208D01*
X8624506Y-18854208D02*
X8643554Y-18825637D01*
X8643554Y-18825637D02*
X8653077Y-18806589D01*
X8653077Y-18806589D02*
X8662601Y-18778018D01*
X8662601Y-18778018D02*
X8672125Y-18730399D01*
X8672125Y-18730399D02*
X8672125Y-18692303D01*
X8672125Y-18692303D02*
X8662601Y-18644684D01*
X8662601Y-18644684D02*
X8653077Y-18616113D01*
X8653077Y-18616113D02*
X8643554Y-18597065D01*
X8643554Y-18597065D02*
X8624506Y-18568494D01*
X8624506Y-18568494D02*
X8614982Y-18558970D01*
X8976887Y-18863732D02*
X8967363Y-18854208D01*
X8967363Y-18854208D02*
X8948315Y-18825637D01*
X8948315Y-18825637D02*
X8938792Y-18806589D01*
X8938792Y-18806589D02*
X8929268Y-18778018D01*
X8929268Y-18778018D02*
X8919744Y-18730399D01*
X8919744Y-18730399D02*
X8919744Y-18692303D01*
X8919744Y-18692303D02*
X8929268Y-18644684D01*
X8929268Y-18644684D02*
X8938792Y-18616113D01*
X8938792Y-18616113D02*
X8948315Y-18597065D01*
X8948315Y-18597065D02*
X8967363Y-18568494D01*
X8967363Y-18568494D02*
X8976887Y-18558970D01*
X9053077Y-18654208D02*
X9053077Y-18787542D01*
X9053077Y-18673256D02*
X9062601Y-18663732D01*
X9062601Y-18663732D02*
X9081649Y-18654208D01*
X9081649Y-18654208D02*
X9110220Y-18654208D01*
X9110220Y-18654208D02*
X9129268Y-18663732D01*
X9129268Y-18663732D02*
X9138792Y-18682780D01*
X9138792Y-18682780D02*
X9138792Y-18787542D01*
X9262601Y-18787542D02*
X9243554Y-18778018D01*
X9243554Y-18778018D02*
X9234030Y-18768494D01*
X9234030Y-18768494D02*
X9224506Y-18749446D01*
X9224506Y-18749446D02*
X9224506Y-18692303D01*
X9224506Y-18692303D02*
X9234030Y-18673256D01*
X9234030Y-18673256D02*
X9243554Y-18663732D01*
X9243554Y-18663732D02*
X9262601Y-18654208D01*
X9262601Y-18654208D02*
X9291173Y-18654208D01*
X9291173Y-18654208D02*
X9310220Y-18663732D01*
X9310220Y-18663732D02*
X9319744Y-18673256D01*
X9319744Y-18673256D02*
X9329268Y-18692303D01*
X9329268Y-18692303D02*
X9329268Y-18749446D01*
X9329268Y-18749446D02*
X9319744Y-18768494D01*
X9319744Y-18768494D02*
X9310220Y-18778018D01*
X9310220Y-18778018D02*
X9291173Y-18787542D01*
X9291173Y-18787542D02*
X9262601Y-18787542D01*
X9386411Y-18654208D02*
X9462601Y-18654208D01*
X9414982Y-18587542D02*
X9414982Y-18758970D01*
X9414982Y-18758970D02*
X9424506Y-18778018D01*
X9424506Y-18778018D02*
X9443554Y-18787542D01*
X9443554Y-18787542D02*
X9462601Y-18787542D01*
X9681649Y-18654208D02*
X9681649Y-18854208D01*
X9681649Y-18663732D02*
X9700696Y-18654208D01*
X9700696Y-18654208D02*
X9738792Y-18654208D01*
X9738792Y-18654208D02*
X9757839Y-18663732D01*
X9757839Y-18663732D02*
X9767363Y-18673256D01*
X9767363Y-18673256D02*
X9776887Y-18692303D01*
X9776887Y-18692303D02*
X9776887Y-18749446D01*
X9776887Y-18749446D02*
X9767363Y-18768494D01*
X9767363Y-18768494D02*
X9757839Y-18778018D01*
X9757839Y-18778018D02*
X9738792Y-18787542D01*
X9738792Y-18787542D02*
X9700696Y-18787542D01*
X9700696Y-18787542D02*
X9681649Y-18778018D01*
X9891173Y-18787542D02*
X9872125Y-18778018D01*
X9872125Y-18778018D02*
X9862601Y-18758970D01*
X9862601Y-18758970D02*
X9862601Y-18587542D01*
X10053077Y-18787542D02*
X10053077Y-18682780D01*
X10053077Y-18682780D02*
X10043554Y-18663732D01*
X10043554Y-18663732D02*
X10024506Y-18654208D01*
X10024506Y-18654208D02*
X9986411Y-18654208D01*
X9986411Y-18654208D02*
X9967363Y-18663732D01*
X10053077Y-18778018D02*
X10034030Y-18787542D01*
X10034030Y-18787542D02*
X9986411Y-18787542D01*
X9986411Y-18787542D02*
X9967363Y-18778018D01*
X9967363Y-18778018D02*
X9957839Y-18758970D01*
X9957839Y-18758970D02*
X9957839Y-18739922D01*
X9957839Y-18739922D02*
X9967363Y-18720875D01*
X9967363Y-18720875D02*
X9986411Y-18711351D01*
X9986411Y-18711351D02*
X10034030Y-18711351D01*
X10034030Y-18711351D02*
X10053077Y-18701827D01*
X10119744Y-18654208D02*
X10195935Y-18654208D01*
X10148316Y-18587542D02*
X10148316Y-18758970D01*
X10148316Y-18758970D02*
X10157839Y-18778018D01*
X10157839Y-18778018D02*
X10176887Y-18787542D01*
X10176887Y-18787542D02*
X10195935Y-18787542D01*
X10338792Y-18778018D02*
X10319744Y-18787542D01*
X10319744Y-18787542D02*
X10281649Y-18787542D01*
X10281649Y-18787542D02*
X10262601Y-18778018D01*
X10262601Y-18778018D02*
X10253077Y-18758970D01*
X10253077Y-18758970D02*
X10253077Y-18682780D01*
X10253077Y-18682780D02*
X10262601Y-18663732D01*
X10262601Y-18663732D02*
X10281649Y-18654208D01*
X10281649Y-18654208D02*
X10319744Y-18654208D01*
X10319744Y-18654208D02*
X10338792Y-18663732D01*
X10338792Y-18663732D02*
X10348316Y-18682780D01*
X10348316Y-18682780D02*
X10348316Y-18701827D01*
X10348316Y-18701827D02*
X10253077Y-18720875D01*
X10519744Y-18787542D02*
X10519744Y-18587542D01*
X10519744Y-18778018D02*
X10500697Y-18787542D01*
X10500697Y-18787542D02*
X10462601Y-18787542D01*
X10462601Y-18787542D02*
X10443554Y-18778018D01*
X10443554Y-18778018D02*
X10434030Y-18768494D01*
X10434030Y-18768494D02*
X10424506Y-18749446D01*
X10424506Y-18749446D02*
X10424506Y-18692303D01*
X10424506Y-18692303D02*
X10434030Y-18673256D01*
X10434030Y-18673256D02*
X10443554Y-18663732D01*
X10443554Y-18663732D02*
X10462601Y-18654208D01*
X10462601Y-18654208D02*
X10500697Y-18654208D01*
X10500697Y-18654208D02*
X10519744Y-18663732D01*
X10595935Y-18863732D02*
X10605458Y-18854208D01*
X10605458Y-18854208D02*
X10624506Y-18825637D01*
X10624506Y-18825637D02*
X10634030Y-18806589D01*
X10634030Y-18806589D02*
X10643554Y-18778018D01*
X10643554Y-18778018D02*
X10653077Y-18730399D01*
X10653077Y-18730399D02*
X10653077Y-18692303D01*
X10653077Y-18692303D02*
X10643554Y-18644684D01*
X10643554Y-18644684D02*
X10634030Y-18616113D01*
X10634030Y-18616113D02*
X10624506Y-18597065D01*
X10624506Y-18597065D02*
X10605458Y-18568494D01*
X10605458Y-18568494D02*
X10595935Y-18558970D01*
M02*
