%TF.GenerationSoftware,KiCad,Pcbnew,10.0.1*%
%TF.CreationDate,2026-06-06T19:10:49+12:00*%
%TF.ProjectId,keyboard,6b657962-6f61-4726-942e-6b696361645f,rev?*%
%TF.SameCoordinates,Original*%
%TF.FileFunction,Copper,L2,Bot*%
%TF.FilePolarity,Positive*%
%FSLAX46Y46*%
G04 Gerber Fmt 4.6, Leading zero omitted, Abs format (unit mm)*
G04 Created by KiCad (PCBNEW 10.0.1) date 2026-06-06 19:10:49*
%MOMM*%
%LPD*%
G01*
G04 APERTURE LIST*
G04 Aperture macros list*
%AMRoundRect*
0 Rectangle with rounded corners*
0 $1 Rounding radius*
0 $2 $3 $4 $5 $6 $7 $8 $9 X,Y pos of 4 corners*
0 Add a 4 corners polygon primitive as box body*
4,1,4,$2,$3,$4,$5,$6,$7,$8,$9,$2,$3,0*
0 Add four circle primitives for the rounded corners*
1,1,$1+$1,$2,$3*
1,1,$1+$1,$4,$5*
1,1,$1+$1,$6,$7*
1,1,$1+$1,$8,$9*
0 Add four rect primitives between the rounded corners*
20,1,$1+$1,$2,$3,$4,$5,0*
20,1,$1+$1,$4,$5,$6,$7,0*
20,1,$1+$1,$6,$7,$8,$9,0*
20,1,$1+$1,$8,$9,$2,$3,0*%
G04 Aperture macros list end*
%TA.AperFunction,SMDPad,CuDef*%
%ADD10RoundRect,0.250000X-1.025000X-1.000000X1.025000X-1.000000X1.025000X1.000000X-1.025000X1.000000X0*%
%TD*%
%TA.AperFunction,SMDPad,CuDef*%
%ADD11RoundRect,0.250000X-0.142408X-1.424902X1.427983X-0.107187X0.142408X1.424902X-1.427983X0.107187X0*%
%TD*%
%TA.AperFunction,SMDPad,CuDef*%
%ADD12RoundRect,0.250000X-0.731255X-1.231215X1.248893X-0.700636X0.731255X1.231215X-1.248893X0.700636X0*%
%TD*%
%TA.AperFunction,ComponentPad*%
%ADD13O,2.500000X1.500000*%
%TD*%
%TA.AperFunction,ComponentPad*%
%ADD14O,1.500000X2.500000*%
%TD*%
%TA.AperFunction,SMDPad,CuDef*%
%ADD15RoundRect,0.250000X-0.387676X-1.378525X1.387676X-0.353525X0.387676X1.378525X-1.387676X0.353525X0*%
%TD*%
%TA.AperFunction,SMDPad,CuDef*%
%ADD16RoundRect,0.250000X0.300000X-0.300000X0.300000X0.300000X-0.300000X0.300000X-0.300000X-0.300000X0*%
%TD*%
%TA.AperFunction,SMDPad,CuDef*%
%ADD17RoundRect,0.250000X0.367423X-0.212132X0.212132X0.367423X-0.367423X0.212132X-0.212132X-0.367423X0*%
%TD*%
%TA.AperFunction,SMDPad,CuDef*%
%ADD18RoundRect,0.250000X0.409808X-0.109808X0.109808X0.409808X-0.409808X0.109808X-0.109808X-0.409808X0*%
%TD*%
%TA.AperFunction,SMDPad,CuDef*%
%ADD19RoundRect,0.250000X0.422650X-0.036977X0.036977X0.422650X-0.422650X0.036977X-0.036977X-0.422650X0*%
%TD*%
%TA.AperFunction,ViaPad*%
%ADD20C,0.600000*%
%TD*%
%TA.AperFunction,Conductor*%
%ADD21C,0.200000*%
%TD*%
%TA.AperFunction,Profile*%
%ADD22C,0.944881*%
%TD*%
G04 APERTURE END LIST*
D10*
%TO.P,SW10,1,1*%
%TO.N,COL4*%
X115245000Y-50324500D03*
%TO.P,SW10,2,2*%
%TO.N,Net-(D10-A)*%
X127245000Y-52524500D03*
%TD*%
%TO.P,SW21,1,1*%
%TO.N,COL3*%
X134295000Y-93187000D03*
%TO.P,SW21,2,2*%
%TO.N,Net-(D21-A)*%
X146295000Y-95387000D03*
%TD*%
%TO.P,SW2,1,1*%
%TO.N,COL2*%
X153345000Y-40799500D03*
%TO.P,SW2,2,2*%
%TO.N,Net-(D2-A)*%
X165345000Y-42999500D03*
%TD*%
%TO.P,SW24,1,1*%
%TO.N,COL6*%
X77145000Y-97949500D03*
%TO.P,SW24,2,2*%
%TO.N,Net-(D24-A)*%
X89145000Y-100149500D03*
%TD*%
D11*
%TO.P,SW27,1,1*%
%TO.N,COL5*%
X50573676Y-144808551D03*
%TO.P,SW27,2,2*%
%TO.N,Net-(D27-A)*%
X61180342Y-138780397D03*
%TD*%
D10*
%TO.P,SW3,1,1*%
%TO.N,COL3*%
X134295000Y-36037000D03*
%TO.P,SW3,2,2*%
%TO.N,Net-(D3-A)*%
X146295000Y-38237000D03*
%TD*%
D12*
%TO.P,SW25,1,1*%
%TO.N,COL3*%
X92340593Y-119623766D03*
%TO.P,SW25,2,2*%
%TO.N,Net-(D25-A)*%
X104501105Y-118642974D03*
%TD*%
D10*
%TO.P,SW7,1,1*%
%TO.N,COL1*%
X172395000Y-59849500D03*
%TO.P,SW7,2,2*%
%TO.N,Net-(D7-A)*%
X184395000Y-62049500D03*
%TD*%
%TO.P,SW17,1,1*%
%TO.N,COL5*%
X96195000Y-74137000D03*
%TO.P,SW17,2,2*%
%TO.N,Net-(D17-A)*%
X108195000Y-76337000D03*
%TD*%
%TO.P,SW16,1,1*%
%TO.N,COL4*%
X115245000Y-69374500D03*
%TO.P,SW16,2,2*%
%TO.N,Net-(D16-A)*%
X127245000Y-71574500D03*
%TD*%
%TO.P,SW8,1,1*%
%TO.N,COL2*%
X153345000Y-59849500D03*
%TO.P,SW8,2,2*%
%TO.N,Net-(D8-A)*%
X165345000Y-62049500D03*
%TD*%
%TO.P,SW14,1,1*%
%TO.N,COL2*%
X153345000Y-78899500D03*
%TO.P,SW14,2,2*%
%TO.N,Net-(D14-A)*%
X165345000Y-81099500D03*
%TD*%
%TO.P,SW23,1,1*%
%TO.N,COL5*%
X96195000Y-93187000D03*
%TO.P,SW23,2,2*%
%TO.N,Net-(D23-A)*%
X108195000Y-95387000D03*
%TD*%
%TO.P,SW18,1,1*%
%TO.N,COL6*%
X77145000Y-78899500D03*
%TO.P,SW18,2,2*%
%TO.N,Net-(D18-A)*%
X89145000Y-81099500D03*
%TD*%
D13*
%TO.P,U2,1,0_1*%
%TO.N,TX*%
X63284540Y-38228301D03*
%TO.P,U2,2,1_2*%
%TO.N,RX*%
X63284540Y-40768301D03*
%TO.P,U2,3,2_3*%
%TO.N,ROW0*%
X63284540Y-43308301D03*
%TO.P,U2,4,3_4*%
%TO.N,ROW1*%
X63284540Y-45848301D03*
%TO.P,U2,5,4_5*%
%TO.N,ROW2*%
X63284540Y-48388301D03*
%TO.P,U2,6,5_6*%
%TO.N,ROW3*%
X63284540Y-50928301D03*
%TO.P,U2,7,6_7*%
%TO.N,ROW4*%
X63284540Y-53468301D03*
%TO.P,U2,8,7_8*%
%TO.N,COL0*%
X63284540Y-56008301D03*
%TO.P,U2,9,8_9*%
%TO.N,COL1*%
X63284540Y-58548301D03*
D14*
%TO.P,U2,10,9_10*%
%TO.N,COL2*%
X60244540Y-59048301D03*
%TO.P,U2,11,10_11*%
%TO.N,COL3*%
X57704540Y-59048301D03*
%TO.P,U2,12,11_12*%
%TO.N,COL4*%
X55164540Y-59048301D03*
%TO.P,U2,13,12_13*%
%TO.N,COL5*%
X52624540Y-59048301D03*
%TO.P,U2,14,13_14*%
%TO.N,COL6*%
X50084540Y-59048301D03*
D13*
%TO.P,U2,15,14_15*%
%TO.N,unconnected-(U2-14-Pad15)*%
X47044540Y-58548301D03*
%TO.P,U2,16,15_16*%
%TO.N,unconnected-(U2-15-Pad16)*%
X47044540Y-56008301D03*
%TO.P,U2,17,26_17*%
%TO.N,unconnected-(U2-26-Pad17)*%
X47044540Y-53468301D03*
%TO.P,U2,18,27_18*%
%TO.N,unconnected-(U2-27-Pad18)*%
X47044540Y-50928301D03*
%TO.P,U2,19,28_19*%
%TO.N,unconnected-(U2-28-Pad19)*%
X47044540Y-48388301D03*
%TO.P,U2,20,29_20*%
%TO.N,unconnected-(U2-29-Pad20)*%
X47044540Y-45848301D03*
%TO.P,U2,21,3V3_21*%
%TO.N,VCC*%
X47044540Y-43308301D03*
%TO.P,U2,22,GND_22*%
%TO.N,GND*%
X47044540Y-40768301D03*
%TO.P,U2,23,5V_23*%
%TO.N,unconnected-(U2-5V-Pad23)*%
X47044540Y-38228301D03*
%TD*%
D10*
%TO.P,SW4,1,1*%
%TO.N,COL4*%
X115245000Y-31274500D03*
%TO.P,SW4,2,2*%
%TO.N,Net-(D4-A)*%
X127245000Y-33474500D03*
%TD*%
D15*
%TO.P,SW26,1,1*%
%TO.N,COL4*%
X70170767Y-130822202D03*
%TO.P,SW26,2,2*%
%TO.N,Net-(D26-A)*%
X81663072Y-126727457D03*
%TD*%
D10*
%TO.P,SW11,1,1*%
%TO.N,COL5*%
X96195000Y-55087000D03*
%TO.P,SW11,2,2*%
%TO.N,Net-(D11-A)*%
X108195000Y-57287000D03*
%TD*%
%TO.P,SW5,1,1*%
%TO.N,COL5*%
X96195000Y-36037000D03*
%TO.P,SW5,2,2*%
%TO.N,Net-(D5-A)*%
X108195000Y-38237000D03*
%TD*%
%TO.P,SW13,1,1*%
%TO.N,COL1*%
X172395000Y-78899500D03*
%TO.P,SW13,2,2*%
%TO.N,Net-(D13-A)*%
X184395000Y-81099500D03*
%TD*%
%TO.P,SW22,1,1*%
%TO.N,COL4*%
X115245000Y-88424500D03*
%TO.P,SW22,2,2*%
%TO.N,Net-(D22-A)*%
X127245000Y-90624500D03*
%TD*%
%TO.P,SW12,1,1*%
%TO.N,COL6*%
X77145000Y-59849500D03*
%TO.P,SW12,2,2*%
%TO.N,Net-(D12-A)*%
X89145000Y-62049500D03*
%TD*%
%TO.P,SW6,1,1*%
%TO.N,COL6*%
X77145000Y-40799500D03*
%TO.P,SW6,2,2*%
%TO.N,Net-(D6-A)*%
X89145000Y-42999500D03*
%TD*%
%TO.P,SW19,1,1*%
%TO.N,COL1*%
X172395000Y-97949500D03*
%TO.P,SW19,2,2*%
%TO.N,Net-(D19-A)*%
X184395000Y-100149500D03*
%TD*%
%TO.P,SW15,1,1*%
%TO.N,COL3*%
X134295000Y-74137000D03*
%TO.P,SW15,2,2*%
%TO.N,Net-(D15-A)*%
X146295000Y-76337000D03*
%TD*%
%TO.P,SW20,1,1*%
%TO.N,COL2*%
X153345000Y-97949500D03*
%TO.P,SW20,2,2*%
%TO.N,Net-(D20-A)*%
X165345000Y-100149500D03*
%TD*%
%TO.P,SW1,1,1*%
%TO.N,COL1*%
X172395000Y-40799500D03*
%TO.P,SW1,2,2*%
%TO.N,Net-(D1-A)*%
X184395000Y-42999500D03*
%TD*%
%TO.P,SW9,1,1*%
%TO.N,COL3*%
X134295000Y-55087000D03*
%TO.P,SW9,2,2*%
%TO.N,Net-(D9-A)*%
X146295000Y-57287000D03*
%TD*%
D16*
%TO.P,D21,1,K*%
%TO.N,ROW3*%
X142875000Y-104587000D03*
%TO.P,D21,2,A*%
%TO.N,Net-(D21-A)*%
X142875000Y-101787000D03*
%TD*%
%TO.P,D15,1,K*%
%TO.N,ROW2*%
X142875000Y-85537000D03*
%TO.P,D15,2,A*%
%TO.N,Net-(D15-A)*%
X142875000Y-82737000D03*
%TD*%
%TO.P,D24,1,K*%
%TO.N,ROW3*%
X85725000Y-109349500D03*
%TO.P,D24,2,A*%
%TO.N,Net-(D24-A)*%
X85725000Y-106549500D03*
%TD*%
%TO.P,D16,1,K*%
%TO.N,ROW2*%
X123825000Y-80774500D03*
%TO.P,D16,2,A*%
%TO.N,Net-(D16-A)*%
X123825000Y-77974500D03*
%TD*%
%TO.P,D1,1,K*%
%TO.N,ROW0*%
X180975000Y-52199500D03*
%TO.P,D1,2,A*%
%TO.N,Net-(D1-A)*%
X180975000Y-49399500D03*
%TD*%
%TO.P,D11,1,K*%
%TO.N,ROW1*%
X104775000Y-66487000D03*
%TO.P,D11,2,A*%
%TO.N,Net-(D11-A)*%
X104775000Y-63687000D03*
%TD*%
%TO.P,D23,1,K*%
%TO.N,ROW3*%
X104775000Y-104587000D03*
%TO.P,D23,2,A*%
%TO.N,Net-(D23-A)*%
X104775000Y-101787000D03*
%TD*%
%TO.P,D12,1,K*%
%TO.N,ROW1*%
X85725000Y-71249500D03*
%TO.P,D12,2,A*%
%TO.N,Net-(D12-A)*%
X85725000Y-68449500D03*
%TD*%
%TO.P,D4,1,K*%
%TO.N,ROW0*%
X123825000Y-42674500D03*
%TO.P,D4,2,A*%
%TO.N,Net-(D4-A)*%
X123825000Y-39874500D03*
%TD*%
%TO.P,D20,1,K*%
%TO.N,ROW3*%
X161925000Y-109349500D03*
%TO.P,D20,2,A*%
%TO.N,Net-(D20-A)*%
X161925000Y-106549500D03*
%TD*%
%TO.P,D5,1,K*%
%TO.N,ROW0*%
X104775000Y-47437000D03*
%TO.P,D5,2,A*%
%TO.N,Net-(D5-A)*%
X104775000Y-44637000D03*
%TD*%
%TO.P,D8,1,K*%
%TO.N,ROW1*%
X161925000Y-71249500D03*
%TO.P,D8,2,A*%
%TO.N,Net-(D8-A)*%
X161925000Y-68449500D03*
%TD*%
%TO.P,D19,1,K*%
%TO.N,ROW3*%
X180975000Y-109349500D03*
%TO.P,D19,2,A*%
%TO.N,Net-(D19-A)*%
X180975000Y-106549500D03*
%TD*%
%TO.P,D18,1,K*%
%TO.N,ROW2*%
X85725000Y-90299500D03*
%TO.P,D18,2,A*%
%TO.N,Net-(D18-A)*%
X85725000Y-87499500D03*
%TD*%
%TO.P,D2,1,K*%
%TO.N,ROW0*%
X161925000Y-52199500D03*
%TO.P,D2,2,A*%
%TO.N,Net-(D2-A)*%
X161925000Y-49399500D03*
%TD*%
%TO.P,D6,1,K*%
%TO.N,ROW0*%
X85725000Y-52199500D03*
%TO.P,D6,2,A*%
%TO.N,Net-(D6-A)*%
X85725000Y-49399500D03*
%TD*%
%TO.P,D10,1,K*%
%TO.N,ROW1*%
X123825000Y-61724500D03*
%TO.P,D10,2,A*%
%TO.N,Net-(D10-A)*%
X123825000Y-58924500D03*
%TD*%
%TO.P,D14,1,K*%
%TO.N,ROW2*%
X161925000Y-90299500D03*
%TO.P,D14,2,A*%
%TO.N,Net-(D14-A)*%
X161925000Y-87499500D03*
%TD*%
D17*
%TO.P,D25,1,K*%
%TO.N,ROW4*%
X103578774Y-128414652D03*
%TO.P,D25,2,A*%
%TO.N,Net-(D25-A)*%
X102854080Y-125710060D03*
%TD*%
D16*
%TO.P,D3,1,K*%
%TO.N,ROW0*%
X142875000Y-47437000D03*
%TO.P,D3,2,A*%
%TO.N,Net-(D3-A)*%
X142875000Y-44637000D03*
%TD*%
D18*
%TO.P,D26,1,K*%
%TO.N,ROW4*%
X83301265Y-136404891D03*
%TO.P,D26,2,A*%
%TO.N,Net-(D26-A)*%
X81901265Y-133980019D03*
%TD*%
D19*
%TO.P,D27,1,K*%
%TO.N,ROW4*%
X64474116Y-148026340D03*
%TO.P,D27,2,A*%
%TO.N,Net-(D27-A)*%
X62674310Y-145881416D03*
%TD*%
D16*
%TO.P,D7,1,K*%
%TO.N,ROW1*%
X180975000Y-71249500D03*
%TO.P,D7,2,A*%
%TO.N,Net-(D7-A)*%
X180975000Y-68449500D03*
%TD*%
%TO.P,D9,1,K*%
%TO.N,ROW1*%
X142875000Y-66487000D03*
%TO.P,D9,2,A*%
%TO.N,Net-(D9-A)*%
X142875000Y-63687000D03*
%TD*%
%TO.P,D17,1,K*%
%TO.N,ROW2*%
X104775000Y-85537000D03*
%TO.P,D17,2,A*%
%TO.N,Net-(D17-A)*%
X104775000Y-82737000D03*
%TD*%
%TO.P,D13,1,K*%
%TO.N,ROW2*%
X180975000Y-90299500D03*
%TO.P,D13,2,A*%
%TO.N,Net-(D13-A)*%
X180975000Y-87499500D03*
%TD*%
%TO.P,D22,1,K*%
%TO.N,ROW3*%
X123825000Y-99824500D03*
%TO.P,D22,2,A*%
%TO.N,Net-(D22-A)*%
X123825000Y-97024500D03*
%TD*%
D20*
%TO.N,COL4*%
X76835000Y-117856000D03*
X90297000Y-108585000D03*
X89662000Y-110236000D03*
X76835000Y-113284000D03*
%TO.N,COL3*%
X73533000Y-74803000D03*
X116459000Y-79502000D03*
X78105000Y-74930000D03*
X76454000Y-74803000D03*
X71120000Y-74803000D03*
X114645000Y-74676000D03*
X81755235Y-74962765D03*
X84074000Y-74803000D03*
%TO.N,COL2*%
X77851000Y-56515000D03*
X74295000Y-56734000D03*
X82931000Y-56388000D03*
X70358000Y-56769000D03*
X80518000Y-56515000D03*
%TO.N,COL6*%
X55626000Y-63246000D03*
X60833000Y-63119000D03*
X68707000Y-62992000D03*
X70993000Y-62484000D03*
X66548000Y-63246000D03*
X75692000Y-62738000D03*
%TO.N,COL5*%
X96266000Y-89154000D03*
X93472000Y-91059000D03*
X81026000Y-72517000D03*
X96266000Y-77851000D03*
X94107000Y-75184000D03*
X76454000Y-72517000D03*
X62357000Y-64389000D03*
X58039000Y-64262000D03*
X73533000Y-72517000D03*
X70485000Y-72517000D03*
%TO.N,COL1*%
X115845000Y-46609000D03*
X95123000Y-52197000D03*
X77745000Y-67056000D03*
X135001000Y-51181000D03*
X154051000Y-56134000D03*
X152019000Y-56134000D03*
X133604000Y-51308000D03*
X97028000Y-52070000D03*
X71155000Y-65913000D03*
X74168000Y-66929000D03*
X114300000Y-46609000D03*
X73660000Y-65913000D03*
%TO.N,ROW0*%
X66802000Y-43053000D03*
X114645000Y-44577000D03*
X89662000Y-50673000D03*
X77851000Y-43688000D03*
X133223000Y-44831000D03*
X76073000Y-43434000D03*
X154178000Y-49911000D03*
X152654000Y-49784000D03*
X87249000Y-50419000D03*
X173101000Y-52197000D03*
X134895000Y-45085000D03*
X96795000Y-48895000D03*
X171099307Y-53283951D03*
X94996000Y-49022000D03*
X116205000Y-43942000D03*
%TO.N,ROW1*%
X76200000Y-55372000D03*
X135128000Y-64770000D03*
X133604000Y-64262000D03*
X152654000Y-68072000D03*
X116332000Y-62738000D03*
X114645000Y-63119000D03*
X90120000Y-66548000D03*
X171704000Y-69723000D03*
X96901000Y-67183000D03*
X154178000Y-68326000D03*
X77978000Y-55499000D03*
X173355000Y-69723000D03*
X95377000Y-67564000D03*
X91694000Y-66421000D03*
%TO.N,ROW2*%
X133350000Y-83058000D03*
X126969235Y-80614235D03*
X134895000Y-83693000D03*
X152654000Y-87757000D03*
X127635000Y-81788000D03*
X76454000Y-69215000D03*
X118280265Y-80474735D03*
X77745000Y-70104000D03*
X154178000Y-88265000D03*
X173101000Y-91186000D03*
X114554000Y-81661000D03*
X170815000Y-91567000D03*
%TO.N,ROW3*%
X83312000Y-107950000D03*
X84074000Y-110490000D03*
X126746000Y-99314000D03*
X127889000Y-100711000D03*
%TO.N,ROW4*%
X83244561Y-117153561D03*
X79883000Y-113665000D03*
X82169000Y-115951000D03*
X78994000Y-111760000D03*
%TD*%
%TO.N,COL4*%
D21*
X70485000Y-106934000D02*
X76835000Y-113284000D01*
X90297000Y-108585000D02*
X96592256Y-108585000D01*
X70485000Y-75438000D02*
X70485000Y-106934000D01*
X76835000Y-117856000D02*
X70170767Y-124520233D01*
X96592256Y-108585000D02*
X106570000Y-98607256D01*
X70170767Y-124520233D02*
X70170767Y-130822202D01*
X70170767Y-129378826D02*
X89313593Y-110236000D01*
X89313593Y-110236000D02*
X89662000Y-110236000D01*
X115245000Y-50324500D02*
X115245000Y-31274500D01*
X115245000Y-69374500D02*
X115245000Y-50324500D01*
X115245000Y-88424500D02*
X115245000Y-69374500D01*
X112347756Y-88424500D02*
X115245000Y-88424500D01*
X55164540Y-60117540D02*
X70485000Y-75438000D01*
X55164540Y-58548301D02*
X55164540Y-60117540D01*
X70170767Y-130822202D02*
X70170767Y-129378826D01*
X106570000Y-98607256D02*
X106570000Y-94202256D01*
X106570000Y-94202256D02*
X112347756Y-88424500D01*
%TO.N,Net-(D10-A)*%
X127245000Y-52524500D02*
X127245000Y-55504500D01*
X127245000Y-55504500D02*
X123825000Y-58924500D01*
%TO.N,COL3*%
X78105000Y-74930000D02*
X81722470Y-74930000D01*
X119634000Y-84074000D02*
X124358000Y-84074000D01*
X57704540Y-61387540D02*
X71120000Y-74803000D01*
X134295000Y-74137000D02*
X134295000Y-55087000D01*
X100053264Y-110617000D02*
X108458000Y-110617000D01*
X81722470Y-74930000D02*
X81755235Y-74962765D01*
X92340593Y-119623766D02*
X92340593Y-118329671D01*
X134295000Y-55087000D02*
X134295000Y-36037000D01*
X84074000Y-74803000D02*
X85383000Y-76112000D01*
X102268350Y-76112000D02*
X103918350Y-74462000D01*
X121818000Y-105664000D02*
X134295000Y-93187000D01*
X114431000Y-74462000D02*
X114645000Y-74676000D01*
X57704540Y-58548301D02*
X57704540Y-61387540D01*
X108458000Y-109700265D02*
X112494265Y-105664000D01*
X134295000Y-93187000D02*
X134295000Y-74137000D01*
X103918350Y-74462000D02*
X114431000Y-74462000D01*
X85383000Y-76112000D02*
X102268350Y-76112000D01*
X112494265Y-105664000D02*
X121818000Y-105664000D01*
X124358000Y-84074000D02*
X134295000Y-74137000D01*
X73533000Y-74803000D02*
X76454000Y-74803000D01*
X119634000Y-82677000D02*
X119634000Y-84074000D01*
X116459000Y-79502000D02*
X119634000Y-82677000D01*
X108458000Y-110617000D02*
X108458000Y-109700265D01*
X92340593Y-118329671D02*
X100053264Y-110617000D01*
%TO.N,Net-(D21-A)*%
X146295000Y-95387000D02*
X146295000Y-98367000D01*
X146295000Y-98367000D02*
X142875000Y-101787000D01*
%TO.N,COL2*%
X90720000Y-38702256D02*
X90720000Y-48599000D01*
X90720000Y-48599000D02*
X82931000Y-56388000D01*
X153345000Y-59849500D02*
X153345000Y-78899500D01*
X74260000Y-56769000D02*
X70358000Y-56769000D01*
X80518000Y-56515000D02*
X77851000Y-56515000D01*
X144091878Y-31546378D02*
X121568528Y-31546378D01*
X119521650Y-29499500D02*
X114210256Y-29499500D01*
X153345000Y-40799500D02*
X153345000Y-59849500D01*
X153345000Y-78899500D02*
X153345000Y-97949500D01*
X153345000Y-40799500D02*
X144091878Y-31546378D01*
X121568528Y-31546378D02*
X119521650Y-29499500D01*
X114210256Y-29499500D02*
X111200512Y-32509244D01*
X74295000Y-56734000D02*
X74260000Y-56769000D01*
X111200512Y-32509244D02*
X96913012Y-32509244D01*
X96913012Y-32509244D02*
X90720000Y-38702256D01*
%TO.N,Net-(D2-A)*%
X165345000Y-45979500D02*
X161925000Y-49399500D01*
X165345000Y-42999500D02*
X165345000Y-45979500D01*
%TO.N,COL6*%
X77145000Y-40799500D02*
X77145000Y-59849500D01*
X77145000Y-61285000D02*
X77145000Y-59849500D01*
X60833000Y-63119000D02*
X66421000Y-63119000D01*
X54782239Y-63246000D02*
X55626000Y-63246000D01*
X50084540Y-58548301D02*
X54782239Y-63246000D01*
X68707000Y-62992000D02*
X70485000Y-62992000D01*
X77145000Y-78899500D02*
X77145000Y-97949500D01*
X70485000Y-62992000D02*
X70993000Y-62484000D01*
X66421000Y-63119000D02*
X66548000Y-63246000D01*
X75692000Y-62738000D02*
X77145000Y-61285000D01*
X77145000Y-59849500D02*
X77145000Y-78899500D01*
%TO.N,Net-(D24-A)*%
X89145000Y-100149500D02*
X89145000Y-103129500D01*
X89145000Y-103129500D02*
X85725000Y-106549500D01*
%TO.N,COL5*%
X95148000Y-75184000D02*
X96195000Y-74137000D01*
X85190256Y-107399500D02*
X86259744Y-107399500D01*
X83154000Y-74137000D02*
X96195000Y-74137000D01*
X73533000Y-72517000D02*
X76454000Y-72517000D01*
X95600000Y-93187000D02*
X93472000Y-91059000D01*
X96195000Y-74137000D02*
X96195000Y-55087000D01*
X96266000Y-89154000D02*
X96266000Y-77851000D01*
X86259744Y-107399500D02*
X96195000Y-97464244D01*
X50573676Y-144808551D02*
X50573676Y-142016080D01*
X94107000Y-75184000D02*
X95148000Y-75184000D01*
X96195000Y-93187000D02*
X95600000Y-93187000D01*
X96195000Y-55087000D02*
X96195000Y-36037000D01*
X50573676Y-142016080D02*
X85190256Y-107399500D01*
X62357000Y-64389000D02*
X70485000Y-72517000D01*
X81026000Y-72517000D02*
X81534000Y-72517000D01*
X52624540Y-58548301D02*
X52624540Y-58847540D01*
X81534000Y-72517000D02*
X83154000Y-74137000D01*
X96195000Y-97464244D02*
X96195000Y-93187000D01*
X52624540Y-58847540D02*
X58039000Y-64262000D01*
%TO.N,Net-(D27-A)*%
X63095849Y-141063208D02*
X62674310Y-145881416D01*
X61180342Y-138780397D02*
X63095849Y-141063208D01*
%TO.N,Net-(D3-A)*%
X146295000Y-38237000D02*
X146295000Y-41217000D01*
X146295000Y-41217000D02*
X142875000Y-44637000D01*
%TO.N,Net-(D25-A)*%
X105272387Y-121521430D02*
X102854080Y-125710060D01*
X104501105Y-118642974D02*
X105272387Y-121521430D01*
%TO.N,COL1*%
X74168000Y-66929000D02*
X74168000Y-66421000D01*
X108712000Y-52197000D02*
X97155000Y-52197000D01*
X90720000Y-56600000D02*
X90720000Y-67639244D01*
X172395000Y-59849500D02*
X172395000Y-78899500D01*
X95123000Y-52197000D02*
X90720000Y-56600000D01*
X97155000Y-52197000D02*
X97028000Y-52070000D01*
X74168000Y-66421000D02*
X73660000Y-65913000D01*
X172395000Y-59849500D02*
X168679500Y-56134000D01*
X71155000Y-65913000D02*
X70149239Y-65913000D01*
X114300000Y-46609000D02*
X108712000Y-52197000D01*
X90720000Y-67639244D02*
X86259744Y-72099500D01*
X82788500Y-72099500D02*
X77745000Y-67056000D01*
X133604000Y-51308000D02*
X128905000Y-46609000D01*
X172395000Y-40799500D02*
X172395000Y-59849500D01*
X70149239Y-65913000D02*
X62784540Y-58548301D01*
X168679500Y-56134000D02*
X154051000Y-56134000D01*
X86259744Y-72099500D02*
X82788500Y-72099500D01*
X152019000Y-56134000D02*
X147066000Y-51181000D01*
X172395000Y-78899500D02*
X172395000Y-97949500D01*
X128905000Y-46609000D02*
X115845000Y-46609000D01*
X147066000Y-51181000D02*
X135001000Y-51181000D01*
%TO.N,Net-(D7-A)*%
X184395000Y-65029500D02*
X180975000Y-68449500D01*
X184395000Y-62049500D02*
X184395000Y-65029500D01*
%TO.N,Net-(D17-A)*%
X108195000Y-76337000D02*
X108195000Y-79317000D01*
X108195000Y-79317000D02*
X104775000Y-82737000D01*
%TO.N,Net-(D16-A)*%
X127245000Y-74554500D02*
X123825000Y-77974500D01*
X127245000Y-71574500D02*
X127245000Y-74554500D01*
%TO.N,Net-(D8-A)*%
X165345000Y-62049500D02*
X165345000Y-65029500D01*
X165345000Y-65029500D02*
X161925000Y-68449500D01*
%TO.N,Net-(D14-A)*%
X165345000Y-84079500D02*
X161925000Y-87499500D01*
X165345000Y-81099500D02*
X165345000Y-84079500D01*
%TO.N,Net-(D23-A)*%
X108195000Y-98367000D02*
X104775000Y-101787000D01*
X108195000Y-95387000D02*
X108195000Y-98367000D01*
%TO.N,Net-(D18-A)*%
X89145000Y-84079500D02*
X85725000Y-87499500D01*
X89145000Y-81099500D02*
X89145000Y-84079500D01*
%TO.N,ROW0*%
X91313000Y-49022000D02*
X89662000Y-50673000D01*
X152654000Y-49784000D02*
X150307000Y-47437000D01*
X131066500Y-42674500D02*
X123825000Y-42674500D01*
X180975000Y-52199500D02*
X173103500Y-52199500D01*
X150307000Y-47437000D02*
X142875000Y-47437000D01*
X87249000Y-50675500D02*
X85725000Y-52199500D01*
X171099307Y-53283951D02*
X163009451Y-53283951D01*
X80994364Y-43083000D02*
X84875000Y-46963636D01*
X142875000Y-47437000D02*
X137247000Y-47437000D01*
X87249000Y-50419000D02*
X87249000Y-50675500D01*
X75120500Y-42481500D02*
X76073000Y-43434000D01*
X84875000Y-51349500D02*
X85725000Y-52199500D01*
X114645000Y-44577000D02*
X111785000Y-47437000D01*
X111785000Y-47437000D02*
X104775000Y-47437000D01*
X78770000Y-43083000D02*
X80994364Y-43083000D01*
X77851000Y-43688000D02*
X78456000Y-43083000D01*
X84875000Y-46963636D02*
X84875000Y-51349500D01*
X123825000Y-42674500D02*
X117472500Y-42674500D01*
X117472500Y-42674500D02*
X116205000Y-43942000D01*
X66802000Y-43053000D02*
X67373500Y-42481500D01*
X94996000Y-49022000D02*
X91313000Y-49022000D01*
X173103500Y-52199500D02*
X173101000Y-52197000D01*
X161925000Y-52199500D02*
X156466500Y-52199500D01*
X78456000Y-43083000D02*
X78770000Y-43083000D01*
X163009451Y-53283951D02*
X161925000Y-52199500D01*
X67373500Y-42481500D02*
X75120500Y-42481500D01*
X133223000Y-44831000D02*
X131066500Y-42674500D01*
X156466500Y-52199500D02*
X154178000Y-49911000D01*
X137247000Y-47437000D02*
X134895000Y-45085000D01*
X98253000Y-47437000D02*
X96795000Y-48895000D01*
X104775000Y-47437000D02*
X98253000Y-47437000D01*
%TO.N,ROW1*%
X72308239Y-55372000D02*
X76200000Y-55372000D01*
X116332000Y-62738000D02*
X117345500Y-61724500D01*
X97597000Y-66487000D02*
X104775000Y-66487000D01*
X135128000Y-64770000D02*
X136845000Y-66487000D01*
X104775000Y-66487000D02*
X111277000Y-66487000D01*
X92837000Y-67564000D02*
X95377000Y-67564000D01*
X131066500Y-61724500D02*
X133604000Y-64262000D01*
X136845000Y-66487000D02*
X142875000Y-66487000D01*
X90120000Y-66854500D02*
X90120000Y-66548000D01*
X157101500Y-71249500D02*
X161925000Y-71249500D01*
X83770000Y-69294500D02*
X85725000Y-71249500D01*
X161925000Y-71249500D02*
X163451500Y-69723000D01*
X91694000Y-66421000D02*
X92837000Y-67564000D01*
X111277000Y-66487000D02*
X114645000Y-63119000D01*
X154178000Y-68326000D02*
X157101500Y-71249500D01*
X163451500Y-69723000D02*
X171704000Y-69723000D01*
X83770000Y-58370000D02*
X83770000Y-69294500D01*
X123825000Y-61724500D02*
X131066500Y-61724500D01*
X96901000Y-67183000D02*
X97597000Y-66487000D01*
X174881500Y-71249500D02*
X180975000Y-71249500D01*
X142875000Y-66487000D02*
X151069000Y-66487000D01*
X173355000Y-69723000D02*
X174881500Y-71249500D01*
X77978000Y-55499000D02*
X80899000Y-55499000D01*
X151069000Y-66487000D02*
X152654000Y-68072000D01*
X117345500Y-61724500D02*
X123825000Y-61724500D01*
X62784540Y-45848301D02*
X72308239Y-55372000D01*
X80899000Y-55499000D02*
X83770000Y-58370000D01*
X85725000Y-71249500D02*
X90120000Y-66854500D01*
%TO.N,ROW2*%
X85725000Y-90299500D02*
X100012500Y-90299500D01*
X118580030Y-80774500D02*
X118280265Y-80474735D01*
X150434000Y-85537000D02*
X142875000Y-85537000D01*
X128905000Y-83058000D02*
X127635000Y-81788000D01*
X114554000Y-81661000D02*
X110678000Y-85537000D01*
X110678000Y-85537000D02*
X104775000Y-85537000D01*
X173987500Y-90299500D02*
X173101000Y-91186000D01*
X70231000Y-54356000D02*
X68752239Y-54356000D01*
X166243000Y-91567000D02*
X164975500Y-90299500D01*
X152654000Y-87757000D02*
X150434000Y-85537000D01*
X74930000Y-56134000D02*
X70475163Y-56134000D01*
X70475163Y-56134000D02*
X70231000Y-55889837D01*
X123825000Y-80774500D02*
X118580030Y-80774500D01*
X76454000Y-69215000D02*
X74930000Y-67691000D01*
X83770000Y-88344500D02*
X83770000Y-76129000D01*
X142875000Y-85537000D02*
X136739000Y-85537000D01*
X164975500Y-90299500D02*
X161925000Y-90299500D01*
X85725000Y-90299500D02*
X83770000Y-88344500D01*
X126808970Y-80774500D02*
X123825000Y-80774500D01*
X161925000Y-90299500D02*
X156212500Y-90299500D01*
X70231000Y-55889837D02*
X70231000Y-54356000D01*
X170815000Y-91567000D02*
X166243000Y-91567000D01*
X133350000Y-83058000D02*
X128905000Y-83058000D01*
X68752239Y-54356000D02*
X62784540Y-48388301D01*
X156212500Y-90299500D02*
X154178000Y-88265000D01*
X83770000Y-76129000D02*
X77745000Y-70104000D01*
X74930000Y-67691000D02*
X74930000Y-56134000D01*
X100012500Y-90299500D02*
X104775000Y-85537000D01*
X126969235Y-80614235D02*
X126808970Y-80774500D01*
X136739000Y-85537000D02*
X134895000Y-83693000D01*
X180975000Y-90299500D02*
X173987500Y-90299500D01*
%TO.N,ROW3*%
X84074000Y-110490000D02*
X84584500Y-110490000D01*
X72771000Y-100141364D02*
X80579636Y-107950000D01*
X69641239Y-57785000D02*
X72771000Y-57785000D01*
X126235500Y-99824500D02*
X123825000Y-99824500D01*
X180975000Y-109349500D02*
X180075000Y-110249500D01*
X141475000Y-103187000D02*
X130365000Y-103187000D01*
X72771000Y-57785000D02*
X72771000Y-100141364D01*
X104775000Y-104587000D02*
X119062500Y-104587000D01*
X119062500Y-104587000D02*
X123825000Y-99824500D01*
X180075000Y-110249500D02*
X162825000Y-110249500D01*
X126746000Y-99314000D02*
X126235500Y-99824500D01*
X84584500Y-110490000D02*
X85725000Y-109349500D01*
X100012500Y-109349500D02*
X104775000Y-104587000D01*
X146237500Y-107949500D02*
X142875000Y-104587000D01*
X162825000Y-110249500D02*
X161925000Y-109349500D01*
X85725000Y-109349500D02*
X100012500Y-109349500D01*
X142875000Y-104587000D02*
X141475000Y-103187000D01*
X62784540Y-50928301D02*
X69641239Y-57785000D01*
X161925000Y-109349500D02*
X160525000Y-107949500D01*
X130365000Y-103187000D02*
X127889000Y-100711000D01*
X160525000Y-107949500D02*
X146237500Y-107949500D01*
X80579636Y-107950000D02*
X83312000Y-107950000D01*
%TO.N,ROW4*%
X79883000Y-113665000D02*
X82169000Y-115951000D01*
X83603465Y-117512465D02*
X83603465Y-136102691D01*
X64474116Y-148026340D02*
X71679816Y-148026340D01*
X103578774Y-128414652D02*
X103578774Y-129974226D01*
X83603465Y-136102691D02*
X83301265Y-136404891D01*
X97148109Y-136404891D02*
X83301265Y-136404891D01*
X71755000Y-60579000D02*
X71755000Y-103583154D01*
X64644301Y-53468301D02*
X71755000Y-60579000D01*
X62784540Y-53468301D02*
X64644301Y-53468301D01*
X71755000Y-103583154D02*
X78994000Y-110822154D01*
X71679816Y-148026340D02*
X83301265Y-136404891D01*
X83244561Y-117153561D02*
X83603465Y-117512465D01*
X103578774Y-129974226D02*
X97148109Y-136404891D01*
X78994000Y-110822154D02*
X78994000Y-111760000D01*
%TO.N,Net-(D4-A)*%
X127245000Y-33474500D02*
X127245000Y-36454500D01*
X127245000Y-36454500D02*
X123825000Y-39874500D01*
%TO.N,Net-(D26-A)*%
X83153072Y-129308212D02*
X81901265Y-133980019D01*
X81663072Y-126727457D02*
X83153072Y-129308212D01*
%TO.N,Net-(D11-A)*%
X108195000Y-60267000D02*
X104775000Y-63687000D01*
X108195000Y-57287000D02*
X108195000Y-60267000D01*
%TO.N,Net-(D5-A)*%
X108195000Y-38237000D02*
X108195000Y-41217000D01*
X108195000Y-41217000D02*
X104775000Y-44637000D01*
%TO.N,Net-(D13-A)*%
X184395000Y-84079500D02*
X180975000Y-87499500D01*
X184395000Y-81099500D02*
X184395000Y-84079500D01*
%TO.N,Net-(D22-A)*%
X127245000Y-90624500D02*
X127245000Y-93604500D01*
X127245000Y-93604500D02*
X123825000Y-97024500D01*
%TO.N,Net-(D12-A)*%
X89145000Y-65029500D02*
X85725000Y-68449500D01*
X89145000Y-62049500D02*
X89145000Y-65029500D01*
%TO.N,Net-(D6-A)*%
X89145000Y-42999500D02*
X89145000Y-45979500D01*
X89145000Y-45979500D02*
X85725000Y-49399500D01*
%TO.N,Net-(D19-A)*%
X184395000Y-103129500D02*
X180975000Y-106549500D01*
X184395000Y-100149500D02*
X184395000Y-103129500D01*
%TO.N,Net-(D15-A)*%
X146295000Y-79317000D02*
X142875000Y-82737000D01*
X146295000Y-76337000D02*
X146295000Y-79317000D01*
%TO.N,Net-(D20-A)*%
X165345000Y-103129500D02*
X161925000Y-106549500D01*
X165345000Y-100149500D02*
X165345000Y-103129500D01*
%TO.N,Net-(D1-A)*%
X184395000Y-42999500D02*
X184395000Y-45979500D01*
X184395000Y-45979500D02*
X180975000Y-49399500D01*
%TO.N,Net-(D9-A)*%
X146295000Y-60267000D02*
X142875000Y-63687000D01*
X146295000Y-57287000D02*
X146295000Y-60267000D01*
%TD*%
D22*
X129210460Y-26163301D02*
X129261244Y-26167163D01*
X129311290Y-26173522D01*
X129360535Y-26182316D01*
X129408915Y-26193483D01*
X129456369Y-26206958D01*
X129502833Y-26222680D01*
X129548245Y-26240585D01*
X129592541Y-26260611D01*
X129635659Y-26282695D01*
X129677536Y-26306773D01*
X129718109Y-26332784D01*
X129757316Y-26360665D01*
X129795093Y-26390351D01*
X129831377Y-26421782D01*
X129866107Y-26454893D01*
X129899218Y-26489623D01*
X129930648Y-26525907D01*
X129960335Y-26563684D01*
X129988216Y-26602891D01*
X130014227Y-26643464D01*
X130038305Y-26685341D01*
X130060389Y-26728459D01*
X130080415Y-26772755D01*
X130098320Y-26818166D01*
X130114042Y-26864631D01*
X130127517Y-26912084D01*
X130138684Y-26960465D01*
X130147478Y-27009710D01*
X130153837Y-27059756D01*
X130157699Y-27110540D01*
X130159000Y-27162000D01*
X130159000Y-29925000D01*
X130160301Y-29976460D01*
X130164163Y-30027244D01*
X130170522Y-30077290D01*
X130179317Y-30126535D01*
X130190483Y-30174916D01*
X130203958Y-30222369D01*
X130219680Y-30268834D01*
X130237585Y-30314245D01*
X130257611Y-30358541D01*
X130279695Y-30401659D01*
X130303774Y-30443536D01*
X130329784Y-30484110D01*
X130357665Y-30523316D01*
X130387352Y-30561093D01*
X130418782Y-30597377D01*
X130451893Y-30632107D01*
X130486623Y-30665218D01*
X130522907Y-30696649D01*
X130560684Y-30726335D01*
X130599891Y-30754216D01*
X130640464Y-30780227D01*
X130682341Y-30804305D01*
X130725459Y-30826389D01*
X130769755Y-30846415D01*
X130815167Y-30864320D01*
X130861631Y-30880042D01*
X130909085Y-30893517D01*
X130957465Y-30904684D01*
X131006710Y-30913478D01*
X131056756Y-30919837D01*
X131107540Y-30923699D01*
X131159000Y-30925000D01*
X148209003Y-30925000D01*
X148260462Y-30926301D01*
X148311246Y-30930163D01*
X148361291Y-30936522D01*
X148410536Y-30945317D01*
X148458916Y-30956483D01*
X148506369Y-30969958D01*
X148552833Y-30985680D01*
X148598245Y-31003585D01*
X148642541Y-31023611D01*
X148685659Y-31045695D01*
X148727536Y-31069773D01*
X148768109Y-31095784D01*
X148807316Y-31123665D01*
X148845093Y-31153351D01*
X148881377Y-31184782D01*
X148916107Y-31217893D01*
X148949218Y-31252623D01*
X148980649Y-31288907D01*
X149010336Y-31326684D01*
X149038217Y-31365891D01*
X149064228Y-31406464D01*
X149088307Y-31448341D01*
X149110391Y-31491459D01*
X149130417Y-31535755D01*
X149148322Y-31581166D01*
X149164044Y-31627631D01*
X149177520Y-31675084D01*
X149188686Y-31723465D01*
X149197481Y-31772710D01*
X149203840Y-31822756D01*
X149207702Y-31873540D01*
X149209003Y-31925000D01*
X149209003Y-34687000D01*
X149210304Y-34738459D01*
X149214166Y-34789244D01*
X149220526Y-34839290D01*
X149229320Y-34888534D01*
X149240486Y-34936915D01*
X149253962Y-34984369D01*
X149269684Y-35030833D01*
X149287589Y-35076244D01*
X149307615Y-35120541D01*
X149329699Y-35163659D01*
X149353778Y-35205536D01*
X149379790Y-35246109D01*
X149407670Y-35285315D01*
X149437357Y-35323092D01*
X149468788Y-35359377D01*
X149501899Y-35394106D01*
X149536629Y-35427218D01*
X149572914Y-35458648D01*
X149610691Y-35488335D01*
X149649897Y-35516215D01*
X149690470Y-35542226D01*
X149732347Y-35566305D01*
X149775465Y-35588389D01*
X149819761Y-35608415D01*
X149865173Y-35626320D01*
X149911637Y-35642042D01*
X149959090Y-35655517D01*
X150007471Y-35666683D01*
X150056715Y-35675477D01*
X150106760Y-35681837D01*
X150157544Y-35685698D01*
X150209003Y-35687000D01*
X163309002Y-35687000D01*
X168259006Y-35687000D01*
X186309009Y-35687000D01*
X186360468Y-35688301D01*
X186411252Y-35692163D01*
X186461298Y-35698522D01*
X186510542Y-35707316D01*
X186558922Y-35718482D01*
X186606376Y-35731958D01*
X186652839Y-35747679D01*
X186698251Y-35765585D01*
X186742547Y-35785611D01*
X186785665Y-35807694D01*
X186827542Y-35831773D01*
X186868115Y-35857784D01*
X186907322Y-35885664D01*
X186945099Y-35915351D01*
X186981383Y-35946782D01*
X187016113Y-35979893D01*
X187049224Y-36014622D01*
X187080655Y-36050907D01*
X187110342Y-36088684D01*
X187138223Y-36127890D01*
X187164234Y-36168463D01*
X187188313Y-36210341D01*
X187210397Y-36253458D01*
X187230423Y-36297755D01*
X187248329Y-36343166D01*
X187264050Y-36389630D01*
X187277526Y-36437084D01*
X187288692Y-36485465D01*
X187297487Y-36534710D01*
X187303846Y-36584756D01*
X187307708Y-36635540D01*
X187309009Y-36687000D01*
X187309009Y-54736999D01*
X187309009Y-59686998D01*
X187309009Y-73787000D01*
X187309009Y-78737001D01*
X187309009Y-92837003D01*
X187309009Y-97787000D01*
X187309009Y-115837003D01*
X187307708Y-115888463D01*
X187303846Y-115939247D01*
X187297487Y-115989293D01*
X187288692Y-116038538D01*
X187277526Y-116086918D01*
X187264050Y-116134372D01*
X187248329Y-116180836D01*
X187230423Y-116226248D01*
X187210397Y-116270544D01*
X187188313Y-116313662D01*
X187164234Y-116355539D01*
X187138223Y-116396112D01*
X187110342Y-116435319D01*
X187080655Y-116473096D01*
X187049224Y-116509380D01*
X187016113Y-116544110D01*
X186981383Y-116577221D01*
X186945099Y-116608652D01*
X186907322Y-116638338D01*
X186868115Y-116666219D01*
X186827542Y-116692230D01*
X186785665Y-116716308D01*
X186742547Y-116738392D01*
X186698251Y-116758418D01*
X186652839Y-116776323D01*
X186606376Y-116792045D01*
X186558922Y-116805520D01*
X186510542Y-116816687D01*
X186461298Y-116825481D01*
X186411252Y-116831840D01*
X186360468Y-116835702D01*
X186309009Y-116837003D01*
X168259006Y-116837003D01*
X163309009Y-116837003D01*
X145259006Y-116837003D01*
X145207547Y-116835702D01*
X145156763Y-116831840D01*
X145106718Y-116825481D01*
X145057474Y-116816687D01*
X145009093Y-116805520D01*
X144961640Y-116792045D01*
X144915176Y-116776323D01*
X144869764Y-116758418D01*
X144825468Y-116738392D01*
X144782350Y-116716308D01*
X144740473Y-116692230D01*
X144699900Y-116666219D01*
X144660694Y-116638338D01*
X144622917Y-116608652D01*
X144586632Y-116577221D01*
X144551902Y-116544110D01*
X144518791Y-116509380D01*
X144487360Y-116473096D01*
X144457673Y-116435319D01*
X144429793Y-116396112D01*
X144403781Y-116355539D01*
X144379702Y-116313662D01*
X144357618Y-116270544D01*
X144337592Y-116226248D01*
X144319687Y-116180836D01*
X144303965Y-116134372D01*
X144290489Y-116086918D01*
X144279323Y-116038538D01*
X144270529Y-115989293D01*
X144264169Y-115939247D01*
X144260307Y-115888463D01*
X144259006Y-115837003D01*
X144259006Y-113075002D01*
X144257705Y-113023542D01*
X144253843Y-112972758D01*
X144247484Y-112922712D01*
X144238689Y-112873467D01*
X144227523Y-112825087D01*
X144214047Y-112777633D01*
X144198325Y-112731169D01*
X144180420Y-112685757D01*
X144160394Y-112641461D01*
X144138310Y-112598343D01*
X144114231Y-112556466D01*
X144088220Y-112515893D01*
X144060339Y-112476686D01*
X144030652Y-112438909D01*
X143999221Y-112402625D01*
X143966110Y-112367895D01*
X143931380Y-112334784D01*
X143895096Y-112303354D01*
X143857319Y-112273667D01*
X143818112Y-112245786D01*
X143777539Y-112219776D01*
X143735662Y-112195697D01*
X143692544Y-112173613D01*
X143648248Y-112153587D01*
X143602836Y-112135682D01*
X143556372Y-112119960D01*
X143508919Y-112106485D01*
X143460539Y-112095318D01*
X143411294Y-112086524D01*
X143361249Y-112080165D01*
X143310465Y-112076303D01*
X143259006Y-112075002D01*
X126209003Y-112075002D01*
X126157543Y-112073701D01*
X126106759Y-112069839D01*
X126056713Y-112063480D01*
X126007468Y-112054686D01*
X125959088Y-112043519D01*
X125911634Y-112030044D01*
X125865170Y-112014322D01*
X125819758Y-111996417D01*
X125775462Y-111976391D01*
X125732344Y-111954307D01*
X125690467Y-111930229D01*
X125649894Y-111904218D01*
X125610687Y-111876337D01*
X125572910Y-111846650D01*
X125536626Y-111815220D01*
X125501897Y-111782109D01*
X125468785Y-111747379D01*
X125437355Y-111711095D01*
X125407668Y-111673318D01*
X125379787Y-111634111D01*
X125353777Y-111593538D01*
X125329698Y-111551661D01*
X125307614Y-111508543D01*
X125287588Y-111464247D01*
X125269683Y-111418835D01*
X125253961Y-111372371D01*
X125240486Y-111324917D01*
X125229319Y-111276537D01*
X125220525Y-111227292D01*
X125214166Y-111177246D01*
X125210304Y-111126462D01*
X125209003Y-111075002D01*
X125209003Y-108312002D01*
X125207702Y-108260542D01*
X125203840Y-108209757D01*
X125197481Y-108159711D01*
X125188687Y-108110467D01*
X125177520Y-108062086D01*
X125164045Y-108014632D01*
X125148323Y-107968168D01*
X125130418Y-107922757D01*
X125110392Y-107878460D01*
X125088308Y-107835342D01*
X125064230Y-107793465D01*
X125038219Y-107752892D01*
X125010338Y-107713686D01*
X124980651Y-107675909D01*
X124949221Y-107639624D01*
X124916110Y-107604895D01*
X124881380Y-107571784D01*
X124845096Y-107540353D01*
X124807319Y-107510666D01*
X124768112Y-107482786D01*
X124727539Y-107456775D01*
X124685662Y-107432696D01*
X124642544Y-107410613D01*
X124598248Y-107390586D01*
X124552836Y-107372681D01*
X124506372Y-107356960D01*
X124458919Y-107343484D01*
X124410538Y-107332318D01*
X124361293Y-107323524D01*
X124311247Y-107317164D01*
X124260463Y-107313303D01*
X124209003Y-107312001D01*
X112109005Y-107312001D01*
X112057545Y-107313303D01*
X112006761Y-107317164D01*
X111956715Y-107323524D01*
X111907470Y-107332318D01*
X111859089Y-107343484D01*
X111811635Y-107356960D01*
X111765171Y-107372681D01*
X111719760Y-107390586D01*
X111675463Y-107410613D01*
X111632346Y-107432696D01*
X111590468Y-107456775D01*
X111549895Y-107482786D01*
X111510689Y-107510666D01*
X111472912Y-107540353D01*
X111436627Y-107571784D01*
X111401898Y-107604895D01*
X111368787Y-107639624D01*
X111337356Y-107675909D01*
X111307669Y-107713686D01*
X111279789Y-107752892D01*
X111253778Y-107793465D01*
X111229699Y-107835342D01*
X111207616Y-107878460D01*
X111187590Y-107922757D01*
X111169684Y-107968168D01*
X111153963Y-108014632D01*
X111140487Y-108062086D01*
X111129321Y-108110467D01*
X111120527Y-108159711D01*
X111114168Y-108209757D01*
X111110306Y-108260542D01*
X111109005Y-108312002D01*
X111109005Y-111075002D01*
X111107703Y-111126462D01*
X111103842Y-111177246D01*
X111097482Y-111227292D01*
X111088688Y-111276537D01*
X111077522Y-111324917D01*
X111064047Y-111372371D01*
X111048325Y-111418835D01*
X111030420Y-111464247D01*
X111010394Y-111508543D01*
X110988310Y-111551661D01*
X110964231Y-111593538D01*
X110938220Y-111634111D01*
X110910340Y-111673318D01*
X110880653Y-111711095D01*
X110849223Y-111747379D01*
X110816111Y-111782109D01*
X110781382Y-111815220D01*
X110745097Y-111846650D01*
X110707320Y-111876337D01*
X110668114Y-111904218D01*
X110627541Y-111930229D01*
X110585664Y-111954307D01*
X110542546Y-111976391D01*
X110498249Y-111996417D01*
X110452838Y-112014322D01*
X110406374Y-112030044D01*
X110358920Y-112043519D01*
X110310539Y-112054686D01*
X110261295Y-112063480D01*
X110211249Y-112069839D01*
X110160464Y-112073701D01*
X110109005Y-112075002D01*
X106844005Y-112075002D01*
X106782938Y-112076817D01*
X106723004Y-112082170D01*
X106664289Y-112090950D01*
X106606878Y-112103043D01*
X106550859Y-112118340D01*
X106496316Y-112136727D01*
X106443336Y-112158092D01*
X106392004Y-112182325D01*
X106342407Y-112209312D01*
X106294630Y-112238942D01*
X106248760Y-112271104D01*
X106204881Y-112305684D01*
X106163081Y-112342572D01*
X106123445Y-112381656D01*
X106086059Y-112422822D01*
X106051009Y-112465961D01*
X106018380Y-112510959D01*
X105988260Y-112557705D01*
X105960733Y-112606087D01*
X105935886Y-112655993D01*
X105913804Y-112707311D01*
X105894574Y-112759929D01*
X105878280Y-112813735D01*
X105865011Y-112868618D01*
X105854850Y-112924466D01*
X105847885Y-112981166D01*
X105844200Y-113038607D01*
X105843883Y-113096676D01*
X105847019Y-113155263D01*
X105853693Y-113214255D01*
X105863992Y-113273539D01*
X105878002Y-113333005D01*
X111126003Y-132920003D01*
X111138080Y-132970052D01*
X111147509Y-133020112D01*
X111154333Y-133070105D01*
X111158597Y-133119955D01*
X111160345Y-133169584D01*
X111159622Y-133218917D01*
X111156472Y-133267875D01*
X111150941Y-133316382D01*
X111143071Y-133364360D01*
X111132907Y-133411733D01*
X111120495Y-133458425D01*
X111105878Y-133504357D01*
X111089101Y-133549452D01*
X111070208Y-133593635D01*
X111049244Y-133636827D01*
X111026252Y-133678952D01*
X111001279Y-133719934D01*
X110974367Y-133759694D01*
X110945562Y-133798155D01*
X110914908Y-133835242D01*
X110882449Y-133870877D01*
X110848230Y-133904983D01*
X110812296Y-133937482D01*
X110774689Y-133968299D01*
X110735456Y-133997355D01*
X110694640Y-134024574D01*
X110652287Y-134049880D01*
X110608439Y-134073194D01*
X110563143Y-134094440D01*
X110516441Y-134113542D01*
X110468380Y-134130421D01*
X110419002Y-134145002D01*
X93032001Y-138803998D01*
X92973450Y-138821569D01*
X92916913Y-138842267D01*
X92862442Y-138865962D01*
X92810093Y-138892523D01*
X92759918Y-138921821D01*
X92711973Y-138953724D01*
X92666312Y-138988102D01*
X92622988Y-139024824D01*
X92582055Y-139063759D01*
X92543568Y-139104779D01*
X92507581Y-139147750D01*
X92474147Y-139192544D01*
X92443321Y-139239029D01*
X92415157Y-139287075D01*
X92389709Y-139336552D01*
X92367031Y-139387328D01*
X92347176Y-139439274D01*
X92330200Y-139492259D01*
X92316156Y-139546151D01*
X92305098Y-139600822D01*
X92297081Y-139656139D01*
X92292157Y-139711973D01*
X92290383Y-139768193D01*
X92291810Y-139824669D01*
X92296494Y-139881269D01*
X92304489Y-139937864D01*
X92315848Y-139994322D01*
X92330626Y-140050514D01*
X92348877Y-140106308D01*
X92370655Y-140161575D01*
X92396013Y-140216183D01*
X92425007Y-140270002D01*
X93889003Y-142807004D01*
X93913605Y-142852219D01*
X93935652Y-142898129D01*
X93955167Y-142944649D01*
X93972173Y-142991692D01*
X93986693Y-143039172D01*
X93998749Y-143087005D01*
X94008365Y-143135103D01*
X94015565Y-143183382D01*
X94020370Y-143231756D01*
X94022804Y-143280137D01*
X94022890Y-143328442D01*
X94020650Y-143376584D01*
X94016109Y-143424476D01*
X94009288Y-143472034D01*
X94000212Y-143519172D01*
X93988902Y-143565803D01*
X93975382Y-143611842D01*
X93959674Y-143657203D01*
X93941803Y-143701800D01*
X93921790Y-143745547D01*
X93899660Y-143788359D01*
X93875434Y-143830150D01*
X93849136Y-143870833D01*
X93820788Y-143910323D01*
X93790415Y-143948535D01*
X93758038Y-143985382D01*
X93723681Y-144020779D01*
X93687367Y-144054639D01*
X93649119Y-144086878D01*
X93608959Y-144117408D01*
X93566911Y-144146145D01*
X93522998Y-144173002D01*
X73604999Y-155673002D01*
X73574001Y-155619001D01*
X58873996Y-167954007D01*
X58833743Y-167986105D01*
X58792360Y-168015806D01*
X58749936Y-168043119D01*
X58706560Y-168068051D01*
X58662321Y-168090610D01*
X58617307Y-168110804D01*
X58571606Y-168128641D01*
X58525307Y-168144127D01*
X58478499Y-168157272D01*
X58431270Y-168168083D01*
X58383709Y-168176567D01*
X58335904Y-168182732D01*
X58287944Y-168186586D01*
X58239917Y-168188137D01*
X58191912Y-168187392D01*
X58144018Y-168184360D01*
X58096323Y-168179047D01*
X58048915Y-168171462D01*
X58001884Y-168161613D01*
X57955317Y-168149506D01*
X57909304Y-168135150D01*
X57863932Y-168118553D01*
X57819291Y-168099723D01*
X57775469Y-168078666D01*
X57732554Y-168055391D01*
X57690635Y-168029905D01*
X57649801Y-168002217D01*
X57610140Y-167972334D01*
X57571741Y-167940264D01*
X57534692Y-167906014D01*
X57499082Y-167869592D01*
X57465000Y-167831006D01*
X37200992Y-143680997D01*
X37168896Y-143640744D01*
X37139196Y-143599362D01*
X37111884Y-143556939D01*
X37086953Y-143513563D01*
X37064395Y-143469325D01*
X37044201Y-143424310D01*
X37026365Y-143378610D01*
X37010879Y-143332311D01*
X36997734Y-143285503D01*
X36986924Y-143238274D01*
X36978440Y-143190713D01*
X36972274Y-143142908D01*
X36968420Y-143094948D01*
X36966869Y-143046921D01*
X36967613Y-142998916D01*
X36970646Y-142951021D01*
X36975958Y-142903326D01*
X36983542Y-142855918D01*
X36993392Y-142808887D01*
X37005498Y-142762320D01*
X37019853Y-142716306D01*
X37036450Y-142670934D01*
X37055280Y-142626293D01*
X37076336Y-142582471D01*
X37099611Y-142539556D01*
X37125095Y-142497637D01*
X37152783Y-142456803D01*
X37182666Y-142417142D01*
X37214736Y-142378742D01*
X37248986Y-142341693D01*
X37285408Y-142306083D01*
X37323993Y-142272001D01*
X54177005Y-128131002D01*
X54217258Y-128098904D01*
X54258639Y-128069203D01*
X54301062Y-128041890D01*
X54344436Y-128016958D01*
X54388675Y-127994399D01*
X54433688Y-127974204D01*
X54479388Y-127956368D01*
X54525686Y-127940881D01*
X54572494Y-127927736D01*
X54619722Y-127916925D01*
X54667283Y-127908441D01*
X54715087Y-127902275D01*
X54763047Y-127898421D01*
X54811074Y-127896870D01*
X54859078Y-127897614D01*
X54906973Y-127900646D01*
X54954668Y-127905959D01*
X55002075Y-127913544D01*
X55049107Y-127923393D01*
X55095674Y-127935500D01*
X55141688Y-127949855D01*
X55187060Y-127966453D01*
X55231702Y-127985283D01*
X55275525Y-128006340D01*
X55318440Y-128029615D01*
X55360359Y-128055101D01*
X55401194Y-128082789D01*
X55440856Y-128112673D01*
X55479257Y-128144744D01*
X55516307Y-128178994D01*
X55551918Y-128215416D01*
X55586002Y-128254003D01*
X57341999Y-127505002D01*
X57317397Y-127459788D01*
X57295351Y-127413877D01*
X57275836Y-127367358D01*
X57258831Y-127320315D01*
X57244312Y-127272834D01*
X57232255Y-127225002D01*
X57222639Y-127176903D01*
X57215439Y-127128624D01*
X57210634Y-127080251D01*
X57208200Y-127031869D01*
X57208114Y-126983564D01*
X57210353Y-126935423D01*
X57214894Y-126887530D01*
X57221714Y-126839972D01*
X57230790Y-126792835D01*
X57242099Y-126746204D01*
X57255619Y-126700165D01*
X57271326Y-126654804D01*
X57289196Y-126610207D01*
X57309208Y-126566459D01*
X57331339Y-126523648D01*
X57355564Y-126481857D01*
X57381862Y-126441174D01*
X57410208Y-126401683D01*
X57440581Y-126363471D01*
X57472958Y-126326624D01*
X57507314Y-126291228D01*
X57543628Y-126257367D01*
X57581876Y-126225129D01*
X57622035Y-126194599D01*
X57664083Y-126165862D01*
X57707996Y-126139005D01*
X70588001Y-118703008D01*
X70667418Y-118652646D01*
X70739626Y-118597748D01*
X70804732Y-118538716D01*
X70862844Y-118475953D01*
X70914069Y-118409860D01*
X70958516Y-118340841D01*
X70996292Y-118269298D01*
X71027505Y-118195632D01*
X71052262Y-118120247D01*
X71070673Y-118043544D01*
X71082844Y-117965925D01*
X71088883Y-117887794D01*
X71088898Y-117809552D01*
X71082997Y-117731602D01*
X71071288Y-117654346D01*
X71053877Y-117578186D01*
X71030875Y-117503525D01*
X71002387Y-117430765D01*
X70968522Y-117360308D01*
X70929388Y-117292556D01*
X70885091Y-117227913D01*
X70835742Y-117166779D01*
X70781446Y-117109558D01*
X70722312Y-117056652D01*
X70658448Y-117008463D01*
X70589961Y-116965393D01*
X70516959Y-116927845D01*
X70439550Y-116896221D01*
X70357842Y-116870923D01*
X70271943Y-116852354D01*
X70181960Y-116840916D01*
X70088001Y-116837011D01*
X69058994Y-116837011D01*
X69007535Y-116835710D01*
X68956751Y-116831848D01*
X68906706Y-116825488D01*
X68857461Y-116816694D01*
X68809081Y-116805528D01*
X68761628Y-116792053D01*
X68715164Y-116776331D01*
X68669752Y-116758426D01*
X68625456Y-116738400D01*
X68582338Y-116716316D01*
X68540461Y-116692237D01*
X68499888Y-116666226D01*
X68460681Y-116638346D01*
X68422904Y-116608659D01*
X68386620Y-116577229D01*
X68351890Y-116544117D01*
X68318779Y-116509388D01*
X68287348Y-116473103D01*
X68257661Y-116435326D01*
X68229780Y-116396120D01*
X68203769Y-116355547D01*
X68179690Y-116313670D01*
X68157606Y-116270552D01*
X68137580Y-116226256D01*
X68119675Y-116180844D01*
X68103953Y-116134380D01*
X68090477Y-116086926D01*
X68079311Y-116038545D01*
X68070516Y-115989301D01*
X68064157Y-115939255D01*
X68060295Y-115888470D01*
X68058994Y-115837011D01*
X68058994Y-97787015D01*
X68058994Y-92837018D01*
X68059467Y-86162000D01*
X43311710Y-86162000D01*
X43311710Y-35687001D01*
X69058994Y-35687001D01*
X86108997Y-35687001D01*
X86160457Y-35685700D01*
X86211241Y-35681839D01*
X86261287Y-35675479D01*
X86310532Y-35666685D01*
X86358912Y-35655519D01*
X86406366Y-35642043D01*
X86452830Y-35626322D01*
X86498242Y-35608416D01*
X86542538Y-35588391D01*
X86585656Y-35566307D01*
X86627533Y-35542228D01*
X86668106Y-35516217D01*
X86707313Y-35488337D01*
X86745090Y-35458650D01*
X86781374Y-35427219D01*
X86816104Y-35394108D01*
X86849215Y-35359379D01*
X86880645Y-35323094D01*
X86910332Y-35285317D01*
X86938213Y-35246111D01*
X86964224Y-35205538D01*
X86988302Y-35163661D01*
X87010386Y-35120543D01*
X87030412Y-35076246D01*
X87048317Y-35030835D01*
X87064039Y-34984371D01*
X87077514Y-34936917D01*
X87088681Y-34888536D01*
X87097475Y-34839292D01*
X87103834Y-34789246D01*
X87107696Y-34738461D01*
X87108997Y-34687001D01*
X87108997Y-31925000D01*
X87110298Y-31873540D01*
X87114160Y-31822756D01*
X87120519Y-31772710D01*
X87129313Y-31723465D01*
X87140480Y-31675084D01*
X87153955Y-31627631D01*
X87169677Y-31581166D01*
X87187582Y-31535755D01*
X87207608Y-31491459D01*
X87229692Y-31448341D01*
X87253770Y-31406464D01*
X87279781Y-31365891D01*
X87307662Y-31326684D01*
X87337349Y-31288907D01*
X87368779Y-31252623D01*
X87401890Y-31217893D01*
X87436620Y-31184782D01*
X87472904Y-31153351D01*
X87510681Y-31123665D01*
X87549888Y-31095784D01*
X87590461Y-31069773D01*
X87632338Y-31045695D01*
X87675456Y-31023611D01*
X87719752Y-31003585D01*
X87765164Y-30985680D01*
X87811628Y-30969958D01*
X87859082Y-30956483D01*
X87907462Y-30945317D01*
X87956707Y-30936522D01*
X88006753Y-30930163D01*
X88057537Y-30926301D01*
X88108997Y-30925000D01*
X105159000Y-30925000D01*
X105210460Y-30923699D01*
X105261244Y-30919837D01*
X105311290Y-30913478D01*
X105360535Y-30904684D01*
X105408915Y-30893517D01*
X105456369Y-30880042D01*
X105502833Y-30864320D01*
X105548245Y-30846415D01*
X105592541Y-30826389D01*
X105635659Y-30804305D01*
X105677536Y-30780227D01*
X105718109Y-30754216D01*
X105757316Y-30726335D01*
X105795093Y-30696649D01*
X105831377Y-30665218D01*
X105866107Y-30632107D01*
X105899218Y-30597377D01*
X105930649Y-30561093D01*
X105960335Y-30523316D01*
X105988216Y-30484110D01*
X106014227Y-30443536D01*
X106038305Y-30401659D01*
X106060389Y-30358541D01*
X106080415Y-30314245D01*
X106098320Y-30268834D01*
X106114042Y-30222369D01*
X106127517Y-30174916D01*
X106138684Y-30126535D01*
X106147478Y-30077290D01*
X106153837Y-30027244D01*
X106157699Y-29976460D01*
X106159000Y-29925000D01*
X106159000Y-27162000D01*
X106160301Y-27110540D01*
X106164163Y-27059756D01*
X106170522Y-27009710D01*
X106179317Y-26960465D01*
X106190483Y-26912084D01*
X106203958Y-26864631D01*
X106219680Y-26818166D01*
X106237585Y-26772755D01*
X106257611Y-26728459D01*
X106279695Y-26685341D01*
X106303774Y-26643464D01*
X106329785Y-26602891D01*
X106357665Y-26563684D01*
X106387352Y-26525907D01*
X106418782Y-26489623D01*
X106451893Y-26454893D01*
X106486623Y-26421782D01*
X106522907Y-26390351D01*
X106560684Y-26360665D01*
X106599891Y-26332784D01*
X106640464Y-26306773D01*
X106682341Y-26282695D01*
X106725459Y-26260611D01*
X106769755Y-26240585D01*
X106815167Y-26222680D01*
X106861631Y-26206958D01*
X106909085Y-26193483D01*
X106957465Y-26182316D01*
X107006710Y-26173522D01*
X107056756Y-26167163D01*
X107107540Y-26163301D01*
X107159000Y-26162000D01*
X129159000Y-26162000D01*
X129210460Y-26163301D01*
M02*
