%TF.GenerationSoftware,KiCad,Pcbnew,10.0.1*%
%TF.CreationDate,2026-06-06T19:10:49+12:00*%
%TF.ProjectId,keyboard,6b657962-6f61-4726-942e-6b696361645f,rev?*%
%TF.SameCoordinates,Original*%
%TF.FileFunction,Legend,Top*%
%TF.FilePolarity,Positive*%
%FSLAX46Y46*%
G04 Gerber Fmt 4.6, Leading zero omitted, Abs format (unit mm)*
G04 Created by KiCad (PCBNEW 10.0.1) date 2026-06-06 19:10:49*
%MOMM*%
%LPD*%
G01*
G04 APERTURE LIST*
%ADD10C,0.300000*%
%ADD11C,0.150000*%
%ADD12C,0.200000*%
%ADD13C,0.120000*%
%TA.AperFunction,Profile*%
%ADD14C,0.944881*%
%TD*%
G04 APERTURE END LIST*
D10*
X52304510Y-75800828D02*
X52304510Y-74800828D01*
X52304510Y-75086542D02*
X52375939Y-74943685D01*
X52375939Y-74943685D02*
X52447368Y-74872257D01*
X52447368Y-74872257D02*
X52590225Y-74800828D01*
X52590225Y-74800828D02*
X52733082Y-74800828D01*
X53018796Y-74800828D02*
X53590224Y-74800828D01*
X53233081Y-74300828D02*
X53233081Y-75586542D01*
X53233081Y-75586542D02*
X53304510Y-75729400D01*
X53304510Y-75729400D02*
X53447367Y-75800828D01*
X53447367Y-75800828D02*
X53590224Y-75800828D01*
X53947367Y-74800828D02*
X54304510Y-75800828D01*
X54661653Y-74800828D02*
X54304510Y-75800828D01*
X54304510Y-75800828D02*
X54161653Y-76157971D01*
X54161653Y-76157971D02*
X54090224Y-76229400D01*
X54090224Y-76229400D02*
X53947367Y-76300828D01*
X55875939Y-74800828D02*
X55875939Y-75800828D01*
X55233081Y-74800828D02*
X55233081Y-75586542D01*
X55233081Y-75586542D02*
X55304510Y-75729400D01*
X55304510Y-75729400D02*
X55447367Y-75800828D01*
X55447367Y-75800828D02*
X55661653Y-75800828D01*
X55661653Y-75800828D02*
X55804510Y-75729400D01*
X55804510Y-75729400D02*
X55875939Y-75657971D01*
X57733081Y-75800828D02*
X57733081Y-74800828D01*
X57733081Y-75086542D02*
X57804510Y-74943685D01*
X57804510Y-74943685D02*
X57875939Y-74872257D01*
X57875939Y-74872257D02*
X58018796Y-74800828D01*
X58018796Y-74800828D02*
X58161653Y-74800828D01*
X58661652Y-75800828D02*
X58661652Y-74800828D01*
X58661652Y-74300828D02*
X58590224Y-74372257D01*
X58590224Y-74372257D02*
X58661652Y-74443685D01*
X58661652Y-74443685D02*
X58733081Y-74372257D01*
X58733081Y-74372257D02*
X58661652Y-74300828D01*
X58661652Y-74300828D02*
X58661652Y-74443685D01*
X60018796Y-74800828D02*
X60018796Y-76015114D01*
X60018796Y-76015114D02*
X59947367Y-76157971D01*
X59947367Y-76157971D02*
X59875938Y-76229400D01*
X59875938Y-76229400D02*
X59733081Y-76300828D01*
X59733081Y-76300828D02*
X59518796Y-76300828D01*
X59518796Y-76300828D02*
X59375938Y-76229400D01*
X60018796Y-75729400D02*
X59875938Y-75800828D01*
X59875938Y-75800828D02*
X59590224Y-75800828D01*
X59590224Y-75800828D02*
X59447367Y-75729400D01*
X59447367Y-75729400D02*
X59375938Y-75657971D01*
X59375938Y-75657971D02*
X59304510Y-75515114D01*
X59304510Y-75515114D02*
X59304510Y-75086542D01*
X59304510Y-75086542D02*
X59375938Y-74943685D01*
X59375938Y-74943685D02*
X59447367Y-74872257D01*
X59447367Y-74872257D02*
X59590224Y-74800828D01*
X59590224Y-74800828D02*
X59875938Y-74800828D01*
X59875938Y-74800828D02*
X60018796Y-74872257D01*
X60733081Y-75800828D02*
X60733081Y-74300828D01*
X61375939Y-75800828D02*
X61375939Y-75015114D01*
X61375939Y-75015114D02*
X61304510Y-74872257D01*
X61304510Y-74872257D02*
X61161653Y-74800828D01*
X61161653Y-74800828D02*
X60947367Y-74800828D01*
X60947367Y-74800828D02*
X60804510Y-74872257D01*
X60804510Y-74872257D02*
X60733081Y-74943685D01*
X61875939Y-74800828D02*
X62447367Y-74800828D01*
X62090224Y-74300828D02*
X62090224Y-75586542D01*
X62090224Y-75586542D02*
X62161653Y-75729400D01*
X62161653Y-75729400D02*
X62304510Y-75800828D01*
X62304510Y-75800828D02*
X62447367Y-75800828D01*
X64018796Y-75729400D02*
X64161653Y-75800828D01*
X64161653Y-75800828D02*
X64447367Y-75800828D01*
X64447367Y-75800828D02*
X64590224Y-75729400D01*
X64590224Y-75729400D02*
X64661653Y-75586542D01*
X64661653Y-75586542D02*
X64661653Y-75515114D01*
X64661653Y-75515114D02*
X64590224Y-75372257D01*
X64590224Y-75372257D02*
X64447367Y-75300828D01*
X64447367Y-75300828D02*
X64233082Y-75300828D01*
X64233082Y-75300828D02*
X64090224Y-75229400D01*
X64090224Y-75229400D02*
X64018796Y-75086542D01*
X64018796Y-75086542D02*
X64018796Y-75015114D01*
X64018796Y-75015114D02*
X64090224Y-74872257D01*
X64090224Y-74872257D02*
X64233082Y-74800828D01*
X64233082Y-74800828D02*
X64447367Y-74800828D01*
X64447367Y-74800828D02*
X64590224Y-74872257D01*
X65304510Y-75800828D02*
X65304510Y-74800828D01*
X65304510Y-74300828D02*
X65233082Y-74372257D01*
X65233082Y-74372257D02*
X65304510Y-74443685D01*
X65304510Y-74443685D02*
X65375939Y-74372257D01*
X65375939Y-74372257D02*
X65304510Y-74300828D01*
X65304510Y-74300828D02*
X65304510Y-74443685D01*
X66661654Y-75800828D02*
X66661654Y-74300828D01*
X66661654Y-75729400D02*
X66518796Y-75800828D01*
X66518796Y-75800828D02*
X66233082Y-75800828D01*
X66233082Y-75800828D02*
X66090225Y-75729400D01*
X66090225Y-75729400D02*
X66018796Y-75657971D01*
X66018796Y-75657971D02*
X65947368Y-75515114D01*
X65947368Y-75515114D02*
X65947368Y-75086542D01*
X65947368Y-75086542D02*
X66018796Y-74943685D01*
X66018796Y-74943685D02*
X66090225Y-74872257D01*
X66090225Y-74872257D02*
X66233082Y-74800828D01*
X66233082Y-74800828D02*
X66518796Y-74800828D01*
X66518796Y-74800828D02*
X66661654Y-74872257D01*
X67947368Y-75729400D02*
X67804511Y-75800828D01*
X67804511Y-75800828D02*
X67518797Y-75800828D01*
X67518797Y-75800828D02*
X67375939Y-75729400D01*
X67375939Y-75729400D02*
X67304511Y-75586542D01*
X67304511Y-75586542D02*
X67304511Y-75015114D01*
X67304511Y-75015114D02*
X67375939Y-74872257D01*
X67375939Y-74872257D02*
X67518797Y-74800828D01*
X67518797Y-74800828D02*
X67804511Y-74800828D01*
X67804511Y-74800828D02*
X67947368Y-74872257D01*
X67947368Y-74872257D02*
X68018797Y-75015114D01*
X68018797Y-75015114D02*
X68018797Y-75157971D01*
X68018797Y-75157971D02*
X67304511Y-75300828D01*
D11*
X116935476Y-47731700D02*
X117078333Y-47779319D01*
X117078333Y-47779319D02*
X117316428Y-47779319D01*
X117316428Y-47779319D02*
X117411666Y-47731700D01*
X117411666Y-47731700D02*
X117459285Y-47684080D01*
X117459285Y-47684080D02*
X117506904Y-47588842D01*
X117506904Y-47588842D02*
X117506904Y-47493604D01*
X117506904Y-47493604D02*
X117459285Y-47398366D01*
X117459285Y-47398366D02*
X117411666Y-47350747D01*
X117411666Y-47350747D02*
X117316428Y-47303128D01*
X117316428Y-47303128D02*
X117125952Y-47255509D01*
X117125952Y-47255509D02*
X117030714Y-47207890D01*
X117030714Y-47207890D02*
X116983095Y-47160271D01*
X116983095Y-47160271D02*
X116935476Y-47065033D01*
X116935476Y-47065033D02*
X116935476Y-46969795D01*
X116935476Y-46969795D02*
X116983095Y-46874557D01*
X116983095Y-46874557D02*
X117030714Y-46826938D01*
X117030714Y-46826938D02*
X117125952Y-46779319D01*
X117125952Y-46779319D02*
X117364047Y-46779319D01*
X117364047Y-46779319D02*
X117506904Y-46826938D01*
X117840238Y-46779319D02*
X118078333Y-47779319D01*
X118078333Y-47779319D02*
X118268809Y-47065033D01*
X118268809Y-47065033D02*
X118459285Y-47779319D01*
X118459285Y-47779319D02*
X118697381Y-46779319D01*
X119602142Y-47779319D02*
X119030714Y-47779319D01*
X119316428Y-47779319D02*
X119316428Y-46779319D01*
X119316428Y-46779319D02*
X119221190Y-46922176D01*
X119221190Y-46922176D02*
X119125952Y-47017414D01*
X119125952Y-47017414D02*
X119030714Y-47065033D01*
X120221190Y-46779319D02*
X120316428Y-46779319D01*
X120316428Y-46779319D02*
X120411666Y-46826938D01*
X120411666Y-46826938D02*
X120459285Y-46874557D01*
X120459285Y-46874557D02*
X120506904Y-46969795D01*
X120506904Y-46969795D02*
X120554523Y-47160271D01*
X120554523Y-47160271D02*
X120554523Y-47398366D01*
X120554523Y-47398366D02*
X120506904Y-47588842D01*
X120506904Y-47588842D02*
X120459285Y-47684080D01*
X120459285Y-47684080D02*
X120411666Y-47731700D01*
X120411666Y-47731700D02*
X120316428Y-47779319D01*
X120316428Y-47779319D02*
X120221190Y-47779319D01*
X120221190Y-47779319D02*
X120125952Y-47731700D01*
X120125952Y-47731700D02*
X120078333Y-47684080D01*
X120078333Y-47684080D02*
X120030714Y-47588842D01*
X120030714Y-47588842D02*
X119983095Y-47398366D01*
X119983095Y-47398366D02*
X119983095Y-47160271D01*
X119983095Y-47160271D02*
X120030714Y-46969795D01*
X120030714Y-46969795D02*
X120078333Y-46874557D01*
X120078333Y-46874557D02*
X120125952Y-46826938D01*
X120125952Y-46826938D02*
X120221190Y-46779319D01*
X135985476Y-90594200D02*
X136128333Y-90641819D01*
X136128333Y-90641819D02*
X136366428Y-90641819D01*
X136366428Y-90641819D02*
X136461666Y-90594200D01*
X136461666Y-90594200D02*
X136509285Y-90546580D01*
X136509285Y-90546580D02*
X136556904Y-90451342D01*
X136556904Y-90451342D02*
X136556904Y-90356104D01*
X136556904Y-90356104D02*
X136509285Y-90260866D01*
X136509285Y-90260866D02*
X136461666Y-90213247D01*
X136461666Y-90213247D02*
X136366428Y-90165628D01*
X136366428Y-90165628D02*
X136175952Y-90118009D01*
X136175952Y-90118009D02*
X136080714Y-90070390D01*
X136080714Y-90070390D02*
X136033095Y-90022771D01*
X136033095Y-90022771D02*
X135985476Y-89927533D01*
X135985476Y-89927533D02*
X135985476Y-89832295D01*
X135985476Y-89832295D02*
X136033095Y-89737057D01*
X136033095Y-89737057D02*
X136080714Y-89689438D01*
X136080714Y-89689438D02*
X136175952Y-89641819D01*
X136175952Y-89641819D02*
X136414047Y-89641819D01*
X136414047Y-89641819D02*
X136556904Y-89689438D01*
X136890238Y-89641819D02*
X137128333Y-90641819D01*
X137128333Y-90641819D02*
X137318809Y-89927533D01*
X137318809Y-89927533D02*
X137509285Y-90641819D01*
X137509285Y-90641819D02*
X137747381Y-89641819D01*
X138080714Y-89737057D02*
X138128333Y-89689438D01*
X138128333Y-89689438D02*
X138223571Y-89641819D01*
X138223571Y-89641819D02*
X138461666Y-89641819D01*
X138461666Y-89641819D02*
X138556904Y-89689438D01*
X138556904Y-89689438D02*
X138604523Y-89737057D01*
X138604523Y-89737057D02*
X138652142Y-89832295D01*
X138652142Y-89832295D02*
X138652142Y-89927533D01*
X138652142Y-89927533D02*
X138604523Y-90070390D01*
X138604523Y-90070390D02*
X138033095Y-90641819D01*
X138033095Y-90641819D02*
X138652142Y-90641819D01*
X139604523Y-90641819D02*
X139033095Y-90641819D01*
X139318809Y-90641819D02*
X139318809Y-89641819D01*
X139318809Y-89641819D02*
X139223571Y-89784676D01*
X139223571Y-89784676D02*
X139128333Y-89879914D01*
X139128333Y-89879914D02*
X139033095Y-89927533D01*
X155511667Y-38206700D02*
X155654524Y-38254319D01*
X155654524Y-38254319D02*
X155892619Y-38254319D01*
X155892619Y-38254319D02*
X155987857Y-38206700D01*
X155987857Y-38206700D02*
X156035476Y-38159080D01*
X156035476Y-38159080D02*
X156083095Y-38063842D01*
X156083095Y-38063842D02*
X156083095Y-37968604D01*
X156083095Y-37968604D02*
X156035476Y-37873366D01*
X156035476Y-37873366D02*
X155987857Y-37825747D01*
X155987857Y-37825747D02*
X155892619Y-37778128D01*
X155892619Y-37778128D02*
X155702143Y-37730509D01*
X155702143Y-37730509D02*
X155606905Y-37682890D01*
X155606905Y-37682890D02*
X155559286Y-37635271D01*
X155559286Y-37635271D02*
X155511667Y-37540033D01*
X155511667Y-37540033D02*
X155511667Y-37444795D01*
X155511667Y-37444795D02*
X155559286Y-37349557D01*
X155559286Y-37349557D02*
X155606905Y-37301938D01*
X155606905Y-37301938D02*
X155702143Y-37254319D01*
X155702143Y-37254319D02*
X155940238Y-37254319D01*
X155940238Y-37254319D02*
X156083095Y-37301938D01*
X156416429Y-37254319D02*
X156654524Y-38254319D01*
X156654524Y-38254319D02*
X156845000Y-37540033D01*
X156845000Y-37540033D02*
X157035476Y-38254319D01*
X157035476Y-38254319D02*
X157273572Y-37254319D01*
X157606905Y-37349557D02*
X157654524Y-37301938D01*
X157654524Y-37301938D02*
X157749762Y-37254319D01*
X157749762Y-37254319D02*
X157987857Y-37254319D01*
X157987857Y-37254319D02*
X158083095Y-37301938D01*
X158083095Y-37301938D02*
X158130714Y-37349557D01*
X158130714Y-37349557D02*
X158178333Y-37444795D01*
X158178333Y-37444795D02*
X158178333Y-37540033D01*
X158178333Y-37540033D02*
X158130714Y-37682890D01*
X158130714Y-37682890D02*
X157559286Y-38254319D01*
X157559286Y-38254319D02*
X158178333Y-38254319D01*
X78835476Y-95356700D02*
X78978333Y-95404319D01*
X78978333Y-95404319D02*
X79216428Y-95404319D01*
X79216428Y-95404319D02*
X79311666Y-95356700D01*
X79311666Y-95356700D02*
X79359285Y-95309080D01*
X79359285Y-95309080D02*
X79406904Y-95213842D01*
X79406904Y-95213842D02*
X79406904Y-95118604D01*
X79406904Y-95118604D02*
X79359285Y-95023366D01*
X79359285Y-95023366D02*
X79311666Y-94975747D01*
X79311666Y-94975747D02*
X79216428Y-94928128D01*
X79216428Y-94928128D02*
X79025952Y-94880509D01*
X79025952Y-94880509D02*
X78930714Y-94832890D01*
X78930714Y-94832890D02*
X78883095Y-94785271D01*
X78883095Y-94785271D02*
X78835476Y-94690033D01*
X78835476Y-94690033D02*
X78835476Y-94594795D01*
X78835476Y-94594795D02*
X78883095Y-94499557D01*
X78883095Y-94499557D02*
X78930714Y-94451938D01*
X78930714Y-94451938D02*
X79025952Y-94404319D01*
X79025952Y-94404319D02*
X79264047Y-94404319D01*
X79264047Y-94404319D02*
X79406904Y-94451938D01*
X79740238Y-94404319D02*
X79978333Y-95404319D01*
X79978333Y-95404319D02*
X80168809Y-94690033D01*
X80168809Y-94690033D02*
X80359285Y-95404319D01*
X80359285Y-95404319D02*
X80597381Y-94404319D01*
X80930714Y-94499557D02*
X80978333Y-94451938D01*
X80978333Y-94451938D02*
X81073571Y-94404319D01*
X81073571Y-94404319D02*
X81311666Y-94404319D01*
X81311666Y-94404319D02*
X81406904Y-94451938D01*
X81406904Y-94451938D02*
X81454523Y-94499557D01*
X81454523Y-94499557D02*
X81502142Y-94594795D01*
X81502142Y-94594795D02*
X81502142Y-94690033D01*
X81502142Y-94690033D02*
X81454523Y-94832890D01*
X81454523Y-94832890D02*
X80883095Y-95404319D01*
X80883095Y-95404319D02*
X81502142Y-95404319D01*
X82359285Y-94737652D02*
X82359285Y-95404319D01*
X82121190Y-94356700D02*
X81883095Y-95070985D01*
X81883095Y-95070985D02*
X82502142Y-95070985D01*
X50202036Y-141735733D02*
X50342080Y-141680385D01*
X50342080Y-141680385D02*
X50524471Y-141527340D01*
X50524471Y-141527340D02*
X50566819Y-141429644D01*
X50566819Y-141429644D02*
X50572688Y-141362557D01*
X50572688Y-141362557D02*
X50547949Y-141258991D01*
X50547949Y-141258991D02*
X50486731Y-141186035D01*
X50486731Y-141186035D02*
X50389035Y-141143687D01*
X50389035Y-141143687D02*
X50321948Y-141137817D01*
X50321948Y-141137817D02*
X50218382Y-141162557D01*
X50218382Y-141162557D02*
X50041860Y-141248514D01*
X50041860Y-141248514D02*
X49938294Y-141273254D01*
X49938294Y-141273254D02*
X49871207Y-141267385D01*
X49871207Y-141267385D02*
X49773511Y-141225037D01*
X49773511Y-141225037D02*
X49712293Y-141152080D01*
X49712293Y-141152080D02*
X49687553Y-141048515D01*
X49687553Y-141048515D02*
X49693423Y-140981428D01*
X49693423Y-140981428D02*
X49735771Y-140883731D01*
X49735771Y-140883731D02*
X49918162Y-140730687D01*
X49918162Y-140730687D02*
X50058206Y-140675338D01*
X50282945Y-140424597D02*
X51108124Y-141037597D01*
X51108124Y-141037597D02*
X50794904Y-140367987D01*
X50794904Y-140367987D02*
X51399951Y-140792726D01*
X51399951Y-140792726D02*
X50939555Y-139873637D01*
X51256121Y-139732331D02*
X51261990Y-139665243D01*
X51261990Y-139665243D02*
X51304338Y-139567547D01*
X51304338Y-139567547D02*
X51486729Y-139414503D01*
X51486729Y-139414503D02*
X51590295Y-139389763D01*
X51590295Y-139389763D02*
X51657382Y-139395632D01*
X51657382Y-139395632D02*
X51755078Y-139437980D01*
X51755078Y-139437980D02*
X51816296Y-139510937D01*
X51816296Y-139510937D02*
X51871644Y-139650981D01*
X51871644Y-139650981D02*
X51801212Y-140456027D01*
X51801212Y-140456027D02*
X52275430Y-140058111D01*
X51887991Y-139077804D02*
X52398687Y-138649279D01*
X52398687Y-138649279D02*
X52713170Y-139690804D01*
X136461667Y-33444200D02*
X136604524Y-33491819D01*
X136604524Y-33491819D02*
X136842619Y-33491819D01*
X136842619Y-33491819D02*
X136937857Y-33444200D01*
X136937857Y-33444200D02*
X136985476Y-33396580D01*
X136985476Y-33396580D02*
X137033095Y-33301342D01*
X137033095Y-33301342D02*
X137033095Y-33206104D01*
X137033095Y-33206104D02*
X136985476Y-33110866D01*
X136985476Y-33110866D02*
X136937857Y-33063247D01*
X136937857Y-33063247D02*
X136842619Y-33015628D01*
X136842619Y-33015628D02*
X136652143Y-32968009D01*
X136652143Y-32968009D02*
X136556905Y-32920390D01*
X136556905Y-32920390D02*
X136509286Y-32872771D01*
X136509286Y-32872771D02*
X136461667Y-32777533D01*
X136461667Y-32777533D02*
X136461667Y-32682295D01*
X136461667Y-32682295D02*
X136509286Y-32587057D01*
X136509286Y-32587057D02*
X136556905Y-32539438D01*
X136556905Y-32539438D02*
X136652143Y-32491819D01*
X136652143Y-32491819D02*
X136890238Y-32491819D01*
X136890238Y-32491819D02*
X137033095Y-32539438D01*
X137366429Y-32491819D02*
X137604524Y-33491819D01*
X137604524Y-33491819D02*
X137795000Y-32777533D01*
X137795000Y-32777533D02*
X137985476Y-33491819D01*
X137985476Y-33491819D02*
X138223572Y-32491819D01*
X138509286Y-32491819D02*
X139128333Y-32491819D01*
X139128333Y-32491819D02*
X138795000Y-32872771D01*
X138795000Y-32872771D02*
X138937857Y-32872771D01*
X138937857Y-32872771D02*
X139033095Y-32920390D01*
X139033095Y-32920390D02*
X139080714Y-32968009D01*
X139080714Y-32968009D02*
X139128333Y-33063247D01*
X139128333Y-33063247D02*
X139128333Y-33301342D01*
X139128333Y-33301342D02*
X139080714Y-33396580D01*
X139080714Y-33396580D02*
X139033095Y-33444200D01*
X139033095Y-33444200D02*
X138937857Y-33491819D01*
X138937857Y-33491819D02*
X138652143Y-33491819D01*
X138652143Y-33491819D02*
X138556905Y-33444200D01*
X138556905Y-33444200D02*
X138509286Y-33396580D01*
X178800666Y-115691819D02*
X178467333Y-115215628D01*
X178229238Y-115691819D02*
X178229238Y-114691819D01*
X178229238Y-114691819D02*
X178610190Y-114691819D01*
X178610190Y-114691819D02*
X178705428Y-114739438D01*
X178705428Y-114739438D02*
X178753047Y-114787057D01*
X178753047Y-114787057D02*
X178800666Y-114882295D01*
X178800666Y-114882295D02*
X178800666Y-115025152D01*
X178800666Y-115025152D02*
X178753047Y-115120390D01*
X178753047Y-115120390D02*
X178705428Y-115168009D01*
X178705428Y-115168009D02*
X178610190Y-115215628D01*
X178610190Y-115215628D02*
X178229238Y-115215628D01*
X179229238Y-115168009D02*
X179562571Y-115168009D01*
X179705428Y-115691819D02*
X179229238Y-115691819D01*
X179229238Y-115691819D02*
X179229238Y-114691819D01*
X179229238Y-114691819D02*
X179705428Y-114691819D01*
X180467333Y-115168009D02*
X180134000Y-115168009D01*
X180134000Y-115691819D02*
X180134000Y-114691819D01*
X180134000Y-114691819D02*
X180610190Y-114691819D01*
X181134000Y-114691819D02*
X181134000Y-114929914D01*
X180895905Y-114834676D02*
X181134000Y-114929914D01*
X181134000Y-114929914D02*
X181372095Y-114834676D01*
X180991143Y-115120390D02*
X181134000Y-114929914D01*
X181134000Y-114929914D02*
X181276857Y-115120390D01*
X181895905Y-114691819D02*
X181895905Y-114929914D01*
X181657810Y-114834676D02*
X181895905Y-114929914D01*
X181895905Y-114929914D02*
X182134000Y-114834676D01*
X181753048Y-115120390D02*
X181895905Y-114929914D01*
X181895905Y-114929914D02*
X182038762Y-115120390D01*
X71240667Y-149423820D02*
X70907334Y-148947629D01*
X70669239Y-149423820D02*
X70669239Y-148423820D01*
X70669239Y-148423820D02*
X71050191Y-148423820D01*
X71050191Y-148423820D02*
X71145429Y-148471439D01*
X71145429Y-148471439D02*
X71193048Y-148519058D01*
X71193048Y-148519058D02*
X71240667Y-148614296D01*
X71240667Y-148614296D02*
X71240667Y-148757153D01*
X71240667Y-148757153D02*
X71193048Y-148852391D01*
X71193048Y-148852391D02*
X71145429Y-148900010D01*
X71145429Y-148900010D02*
X71050191Y-148947629D01*
X71050191Y-148947629D02*
X70669239Y-148947629D01*
X71669239Y-148900010D02*
X72002572Y-148900010D01*
X72145429Y-149423820D02*
X71669239Y-149423820D01*
X71669239Y-149423820D02*
X71669239Y-148423820D01*
X71669239Y-148423820D02*
X72145429Y-148423820D01*
X72907334Y-148900010D02*
X72574001Y-148900010D01*
X72574001Y-149423820D02*
X72574001Y-148423820D01*
X72574001Y-148423820D02*
X73050191Y-148423820D01*
X73574001Y-148423820D02*
X73574001Y-148661915D01*
X73335906Y-148566677D02*
X73574001Y-148661915D01*
X73574001Y-148661915D02*
X73812096Y-148566677D01*
X73431144Y-148852391D02*
X73574001Y-148661915D01*
X73574001Y-148661915D02*
X73716858Y-148852391D01*
X74335906Y-148423820D02*
X74335906Y-148661915D01*
X74097811Y-148566677D02*
X74335906Y-148661915D01*
X74335906Y-148661915D02*
X74574001Y-148566677D01*
X74193049Y-148852391D02*
X74335906Y-148661915D01*
X74335906Y-148661915D02*
X74478763Y-148852391D01*
X93302402Y-116681787D02*
X93452716Y-116690809D01*
X93452716Y-116690809D02*
X93682698Y-116629185D01*
X93682698Y-116629185D02*
X93762367Y-116558540D01*
X93762367Y-116558540D02*
X93796038Y-116500218D01*
X93796038Y-116500218D02*
X93817385Y-116395901D01*
X93817385Y-116395901D02*
X93792736Y-116303908D01*
X93792736Y-116303908D02*
X93722090Y-116224240D01*
X93722090Y-116224240D02*
X93663769Y-116190568D01*
X93663769Y-116190568D02*
X93559451Y-116169221D01*
X93559451Y-116169221D02*
X93363141Y-116172523D01*
X93363141Y-116172523D02*
X93258823Y-116151176D01*
X93258823Y-116151176D02*
X93200502Y-116117504D01*
X93200502Y-116117504D02*
X93129856Y-116037836D01*
X93129856Y-116037836D02*
X93105206Y-115945843D01*
X93105206Y-115945843D02*
X93126553Y-115841526D01*
X93126553Y-115841526D02*
X93160225Y-115783204D01*
X93160225Y-115783204D02*
X93239893Y-115712558D01*
X93239893Y-115712558D02*
X93469876Y-115650935D01*
X93469876Y-115650935D02*
X93620190Y-115659957D01*
X93929840Y-115527688D02*
X94418642Y-116431990D01*
X94418642Y-116431990D02*
X94417757Y-115692744D01*
X94417757Y-115692744D02*
X94786614Y-116333392D01*
X94786614Y-116333392D02*
X94757777Y-115305843D01*
X95104401Y-115311563D02*
X95138073Y-115253242D01*
X95138073Y-115253242D02*
X95217741Y-115182596D01*
X95217741Y-115182596D02*
X95447724Y-115120972D01*
X95447724Y-115120972D02*
X95552041Y-115142319D01*
X95552041Y-115142319D02*
X95610363Y-115175991D01*
X95610363Y-115175991D02*
X95681008Y-115255659D01*
X95681008Y-115255659D02*
X95705658Y-115347652D01*
X95705658Y-115347652D02*
X95696636Y-115497966D01*
X95696636Y-115497966D02*
X95292575Y-116197820D01*
X95292575Y-116197820D02*
X95890529Y-116037599D01*
X96505643Y-114837504D02*
X96045678Y-114960751D01*
X96045678Y-114960751D02*
X96122929Y-115433040D01*
X96122929Y-115433040D02*
X96156600Y-115374719D01*
X96156600Y-115374719D02*
X96236269Y-115304073D01*
X96236269Y-115304073D02*
X96466251Y-115242450D01*
X96466251Y-115242450D02*
X96570569Y-115263797D01*
X96570569Y-115263797D02*
X96628890Y-115297468D01*
X96628890Y-115297468D02*
X96699536Y-115377137D01*
X96699536Y-115377137D02*
X96761159Y-115607119D01*
X96761159Y-115607119D02*
X96739812Y-115711437D01*
X96739812Y-115711437D02*
X96706140Y-115769758D01*
X96706140Y-115769758D02*
X96626472Y-115840404D01*
X96626472Y-115840404D02*
X96396490Y-115902027D01*
X96396490Y-115902027D02*
X96292172Y-115880680D01*
X96292172Y-115880680D02*
X96233851Y-115847008D01*
X174561667Y-57256700D02*
X174704524Y-57304319D01*
X174704524Y-57304319D02*
X174942619Y-57304319D01*
X174942619Y-57304319D02*
X175037857Y-57256700D01*
X175037857Y-57256700D02*
X175085476Y-57209080D01*
X175085476Y-57209080D02*
X175133095Y-57113842D01*
X175133095Y-57113842D02*
X175133095Y-57018604D01*
X175133095Y-57018604D02*
X175085476Y-56923366D01*
X175085476Y-56923366D02*
X175037857Y-56875747D01*
X175037857Y-56875747D02*
X174942619Y-56828128D01*
X174942619Y-56828128D02*
X174752143Y-56780509D01*
X174752143Y-56780509D02*
X174656905Y-56732890D01*
X174656905Y-56732890D02*
X174609286Y-56685271D01*
X174609286Y-56685271D02*
X174561667Y-56590033D01*
X174561667Y-56590033D02*
X174561667Y-56494795D01*
X174561667Y-56494795D02*
X174609286Y-56399557D01*
X174609286Y-56399557D02*
X174656905Y-56351938D01*
X174656905Y-56351938D02*
X174752143Y-56304319D01*
X174752143Y-56304319D02*
X174990238Y-56304319D01*
X174990238Y-56304319D02*
X175133095Y-56351938D01*
X175466429Y-56304319D02*
X175704524Y-57304319D01*
X175704524Y-57304319D02*
X175895000Y-56590033D01*
X175895000Y-56590033D02*
X176085476Y-57304319D01*
X176085476Y-57304319D02*
X176323572Y-56304319D01*
X176609286Y-56304319D02*
X177275952Y-56304319D01*
X177275952Y-56304319D02*
X176847381Y-57304319D01*
X97885476Y-71544200D02*
X98028333Y-71591819D01*
X98028333Y-71591819D02*
X98266428Y-71591819D01*
X98266428Y-71591819D02*
X98361666Y-71544200D01*
X98361666Y-71544200D02*
X98409285Y-71496580D01*
X98409285Y-71496580D02*
X98456904Y-71401342D01*
X98456904Y-71401342D02*
X98456904Y-71306104D01*
X98456904Y-71306104D02*
X98409285Y-71210866D01*
X98409285Y-71210866D02*
X98361666Y-71163247D01*
X98361666Y-71163247D02*
X98266428Y-71115628D01*
X98266428Y-71115628D02*
X98075952Y-71068009D01*
X98075952Y-71068009D02*
X97980714Y-71020390D01*
X97980714Y-71020390D02*
X97933095Y-70972771D01*
X97933095Y-70972771D02*
X97885476Y-70877533D01*
X97885476Y-70877533D02*
X97885476Y-70782295D01*
X97885476Y-70782295D02*
X97933095Y-70687057D01*
X97933095Y-70687057D02*
X97980714Y-70639438D01*
X97980714Y-70639438D02*
X98075952Y-70591819D01*
X98075952Y-70591819D02*
X98314047Y-70591819D01*
X98314047Y-70591819D02*
X98456904Y-70639438D01*
X98790238Y-70591819D02*
X99028333Y-71591819D01*
X99028333Y-71591819D02*
X99218809Y-70877533D01*
X99218809Y-70877533D02*
X99409285Y-71591819D01*
X99409285Y-71591819D02*
X99647381Y-70591819D01*
X100552142Y-71591819D02*
X99980714Y-71591819D01*
X100266428Y-71591819D02*
X100266428Y-70591819D01*
X100266428Y-70591819D02*
X100171190Y-70734676D01*
X100171190Y-70734676D02*
X100075952Y-70829914D01*
X100075952Y-70829914D02*
X99980714Y-70877533D01*
X100885476Y-70591819D02*
X101552142Y-70591819D01*
X101552142Y-70591819D02*
X101123571Y-71591819D01*
X116935476Y-66781700D02*
X117078333Y-66829319D01*
X117078333Y-66829319D02*
X117316428Y-66829319D01*
X117316428Y-66829319D02*
X117411666Y-66781700D01*
X117411666Y-66781700D02*
X117459285Y-66734080D01*
X117459285Y-66734080D02*
X117506904Y-66638842D01*
X117506904Y-66638842D02*
X117506904Y-66543604D01*
X117506904Y-66543604D02*
X117459285Y-66448366D01*
X117459285Y-66448366D02*
X117411666Y-66400747D01*
X117411666Y-66400747D02*
X117316428Y-66353128D01*
X117316428Y-66353128D02*
X117125952Y-66305509D01*
X117125952Y-66305509D02*
X117030714Y-66257890D01*
X117030714Y-66257890D02*
X116983095Y-66210271D01*
X116983095Y-66210271D02*
X116935476Y-66115033D01*
X116935476Y-66115033D02*
X116935476Y-66019795D01*
X116935476Y-66019795D02*
X116983095Y-65924557D01*
X116983095Y-65924557D02*
X117030714Y-65876938D01*
X117030714Y-65876938D02*
X117125952Y-65829319D01*
X117125952Y-65829319D02*
X117364047Y-65829319D01*
X117364047Y-65829319D02*
X117506904Y-65876938D01*
X117840238Y-65829319D02*
X118078333Y-66829319D01*
X118078333Y-66829319D02*
X118268809Y-66115033D01*
X118268809Y-66115033D02*
X118459285Y-66829319D01*
X118459285Y-66829319D02*
X118697381Y-65829319D01*
X119602142Y-66829319D02*
X119030714Y-66829319D01*
X119316428Y-66829319D02*
X119316428Y-65829319D01*
X119316428Y-65829319D02*
X119221190Y-65972176D01*
X119221190Y-65972176D02*
X119125952Y-66067414D01*
X119125952Y-66067414D02*
X119030714Y-66115033D01*
X120459285Y-65829319D02*
X120268809Y-65829319D01*
X120268809Y-65829319D02*
X120173571Y-65876938D01*
X120173571Y-65876938D02*
X120125952Y-65924557D01*
X120125952Y-65924557D02*
X120030714Y-66067414D01*
X120030714Y-66067414D02*
X119983095Y-66257890D01*
X119983095Y-66257890D02*
X119983095Y-66638842D01*
X119983095Y-66638842D02*
X120030714Y-66734080D01*
X120030714Y-66734080D02*
X120078333Y-66781700D01*
X120078333Y-66781700D02*
X120173571Y-66829319D01*
X120173571Y-66829319D02*
X120364047Y-66829319D01*
X120364047Y-66829319D02*
X120459285Y-66781700D01*
X120459285Y-66781700D02*
X120506904Y-66734080D01*
X120506904Y-66734080D02*
X120554523Y-66638842D01*
X120554523Y-66638842D02*
X120554523Y-66400747D01*
X120554523Y-66400747D02*
X120506904Y-66305509D01*
X120506904Y-66305509D02*
X120459285Y-66257890D01*
X120459285Y-66257890D02*
X120364047Y-66210271D01*
X120364047Y-66210271D02*
X120173571Y-66210271D01*
X120173571Y-66210271D02*
X120078333Y-66257890D01*
X120078333Y-66257890D02*
X120030714Y-66305509D01*
X120030714Y-66305509D02*
X119983095Y-66400747D01*
X155511667Y-57256700D02*
X155654524Y-57304319D01*
X155654524Y-57304319D02*
X155892619Y-57304319D01*
X155892619Y-57304319D02*
X155987857Y-57256700D01*
X155987857Y-57256700D02*
X156035476Y-57209080D01*
X156035476Y-57209080D02*
X156083095Y-57113842D01*
X156083095Y-57113842D02*
X156083095Y-57018604D01*
X156083095Y-57018604D02*
X156035476Y-56923366D01*
X156035476Y-56923366D02*
X155987857Y-56875747D01*
X155987857Y-56875747D02*
X155892619Y-56828128D01*
X155892619Y-56828128D02*
X155702143Y-56780509D01*
X155702143Y-56780509D02*
X155606905Y-56732890D01*
X155606905Y-56732890D02*
X155559286Y-56685271D01*
X155559286Y-56685271D02*
X155511667Y-56590033D01*
X155511667Y-56590033D02*
X155511667Y-56494795D01*
X155511667Y-56494795D02*
X155559286Y-56399557D01*
X155559286Y-56399557D02*
X155606905Y-56351938D01*
X155606905Y-56351938D02*
X155702143Y-56304319D01*
X155702143Y-56304319D02*
X155940238Y-56304319D01*
X155940238Y-56304319D02*
X156083095Y-56351938D01*
X156416429Y-56304319D02*
X156654524Y-57304319D01*
X156654524Y-57304319D02*
X156845000Y-56590033D01*
X156845000Y-56590033D02*
X157035476Y-57304319D01*
X157035476Y-57304319D02*
X157273572Y-56304319D01*
X157797381Y-56732890D02*
X157702143Y-56685271D01*
X157702143Y-56685271D02*
X157654524Y-56637652D01*
X157654524Y-56637652D02*
X157606905Y-56542414D01*
X157606905Y-56542414D02*
X157606905Y-56494795D01*
X157606905Y-56494795D02*
X157654524Y-56399557D01*
X157654524Y-56399557D02*
X157702143Y-56351938D01*
X157702143Y-56351938D02*
X157797381Y-56304319D01*
X157797381Y-56304319D02*
X157987857Y-56304319D01*
X157987857Y-56304319D02*
X158083095Y-56351938D01*
X158083095Y-56351938D02*
X158130714Y-56399557D01*
X158130714Y-56399557D02*
X158178333Y-56494795D01*
X158178333Y-56494795D02*
X158178333Y-56542414D01*
X158178333Y-56542414D02*
X158130714Y-56637652D01*
X158130714Y-56637652D02*
X158083095Y-56685271D01*
X158083095Y-56685271D02*
X157987857Y-56732890D01*
X157987857Y-56732890D02*
X157797381Y-56732890D01*
X157797381Y-56732890D02*
X157702143Y-56780509D01*
X157702143Y-56780509D02*
X157654524Y-56828128D01*
X157654524Y-56828128D02*
X157606905Y-56923366D01*
X157606905Y-56923366D02*
X157606905Y-57113842D01*
X157606905Y-57113842D02*
X157654524Y-57209080D01*
X157654524Y-57209080D02*
X157702143Y-57256700D01*
X157702143Y-57256700D02*
X157797381Y-57304319D01*
X157797381Y-57304319D02*
X157987857Y-57304319D01*
X157987857Y-57304319D02*
X158083095Y-57256700D01*
X158083095Y-57256700D02*
X158130714Y-57209080D01*
X158130714Y-57209080D02*
X158178333Y-57113842D01*
X158178333Y-57113842D02*
X158178333Y-56923366D01*
X158178333Y-56923366D02*
X158130714Y-56828128D01*
X158130714Y-56828128D02*
X158083095Y-56780509D01*
X158083095Y-56780509D02*
X157987857Y-56732890D01*
X155035476Y-76306700D02*
X155178333Y-76354319D01*
X155178333Y-76354319D02*
X155416428Y-76354319D01*
X155416428Y-76354319D02*
X155511666Y-76306700D01*
X155511666Y-76306700D02*
X155559285Y-76259080D01*
X155559285Y-76259080D02*
X155606904Y-76163842D01*
X155606904Y-76163842D02*
X155606904Y-76068604D01*
X155606904Y-76068604D02*
X155559285Y-75973366D01*
X155559285Y-75973366D02*
X155511666Y-75925747D01*
X155511666Y-75925747D02*
X155416428Y-75878128D01*
X155416428Y-75878128D02*
X155225952Y-75830509D01*
X155225952Y-75830509D02*
X155130714Y-75782890D01*
X155130714Y-75782890D02*
X155083095Y-75735271D01*
X155083095Y-75735271D02*
X155035476Y-75640033D01*
X155035476Y-75640033D02*
X155035476Y-75544795D01*
X155035476Y-75544795D02*
X155083095Y-75449557D01*
X155083095Y-75449557D02*
X155130714Y-75401938D01*
X155130714Y-75401938D02*
X155225952Y-75354319D01*
X155225952Y-75354319D02*
X155464047Y-75354319D01*
X155464047Y-75354319D02*
X155606904Y-75401938D01*
X155940238Y-75354319D02*
X156178333Y-76354319D01*
X156178333Y-76354319D02*
X156368809Y-75640033D01*
X156368809Y-75640033D02*
X156559285Y-76354319D01*
X156559285Y-76354319D02*
X156797381Y-75354319D01*
X157702142Y-76354319D02*
X157130714Y-76354319D01*
X157416428Y-76354319D02*
X157416428Y-75354319D01*
X157416428Y-75354319D02*
X157321190Y-75497176D01*
X157321190Y-75497176D02*
X157225952Y-75592414D01*
X157225952Y-75592414D02*
X157130714Y-75640033D01*
X158559285Y-75687652D02*
X158559285Y-76354319D01*
X158321190Y-75306700D02*
X158083095Y-76020985D01*
X158083095Y-76020985D02*
X158702142Y-76020985D01*
X97885476Y-90594200D02*
X98028333Y-90641819D01*
X98028333Y-90641819D02*
X98266428Y-90641819D01*
X98266428Y-90641819D02*
X98361666Y-90594200D01*
X98361666Y-90594200D02*
X98409285Y-90546580D01*
X98409285Y-90546580D02*
X98456904Y-90451342D01*
X98456904Y-90451342D02*
X98456904Y-90356104D01*
X98456904Y-90356104D02*
X98409285Y-90260866D01*
X98409285Y-90260866D02*
X98361666Y-90213247D01*
X98361666Y-90213247D02*
X98266428Y-90165628D01*
X98266428Y-90165628D02*
X98075952Y-90118009D01*
X98075952Y-90118009D02*
X97980714Y-90070390D01*
X97980714Y-90070390D02*
X97933095Y-90022771D01*
X97933095Y-90022771D02*
X97885476Y-89927533D01*
X97885476Y-89927533D02*
X97885476Y-89832295D01*
X97885476Y-89832295D02*
X97933095Y-89737057D01*
X97933095Y-89737057D02*
X97980714Y-89689438D01*
X97980714Y-89689438D02*
X98075952Y-89641819D01*
X98075952Y-89641819D02*
X98314047Y-89641819D01*
X98314047Y-89641819D02*
X98456904Y-89689438D01*
X98790238Y-89641819D02*
X99028333Y-90641819D01*
X99028333Y-90641819D02*
X99218809Y-89927533D01*
X99218809Y-89927533D02*
X99409285Y-90641819D01*
X99409285Y-90641819D02*
X99647381Y-89641819D01*
X99980714Y-89737057D02*
X100028333Y-89689438D01*
X100028333Y-89689438D02*
X100123571Y-89641819D01*
X100123571Y-89641819D02*
X100361666Y-89641819D01*
X100361666Y-89641819D02*
X100456904Y-89689438D01*
X100456904Y-89689438D02*
X100504523Y-89737057D01*
X100504523Y-89737057D02*
X100552142Y-89832295D01*
X100552142Y-89832295D02*
X100552142Y-89927533D01*
X100552142Y-89927533D02*
X100504523Y-90070390D01*
X100504523Y-90070390D02*
X99933095Y-90641819D01*
X99933095Y-90641819D02*
X100552142Y-90641819D01*
X100885476Y-89641819D02*
X101504523Y-89641819D01*
X101504523Y-89641819D02*
X101171190Y-90022771D01*
X101171190Y-90022771D02*
X101314047Y-90022771D01*
X101314047Y-90022771D02*
X101409285Y-90070390D01*
X101409285Y-90070390D02*
X101456904Y-90118009D01*
X101456904Y-90118009D02*
X101504523Y-90213247D01*
X101504523Y-90213247D02*
X101504523Y-90451342D01*
X101504523Y-90451342D02*
X101456904Y-90546580D01*
X101456904Y-90546580D02*
X101409285Y-90594200D01*
X101409285Y-90594200D02*
X101314047Y-90641819D01*
X101314047Y-90641819D02*
X101028333Y-90641819D01*
X101028333Y-90641819D02*
X100933095Y-90594200D01*
X100933095Y-90594200D02*
X100885476Y-90546580D01*
X78835476Y-76306700D02*
X78978333Y-76354319D01*
X78978333Y-76354319D02*
X79216428Y-76354319D01*
X79216428Y-76354319D02*
X79311666Y-76306700D01*
X79311666Y-76306700D02*
X79359285Y-76259080D01*
X79359285Y-76259080D02*
X79406904Y-76163842D01*
X79406904Y-76163842D02*
X79406904Y-76068604D01*
X79406904Y-76068604D02*
X79359285Y-75973366D01*
X79359285Y-75973366D02*
X79311666Y-75925747D01*
X79311666Y-75925747D02*
X79216428Y-75878128D01*
X79216428Y-75878128D02*
X79025952Y-75830509D01*
X79025952Y-75830509D02*
X78930714Y-75782890D01*
X78930714Y-75782890D02*
X78883095Y-75735271D01*
X78883095Y-75735271D02*
X78835476Y-75640033D01*
X78835476Y-75640033D02*
X78835476Y-75544795D01*
X78835476Y-75544795D02*
X78883095Y-75449557D01*
X78883095Y-75449557D02*
X78930714Y-75401938D01*
X78930714Y-75401938D02*
X79025952Y-75354319D01*
X79025952Y-75354319D02*
X79264047Y-75354319D01*
X79264047Y-75354319D02*
X79406904Y-75401938D01*
X79740238Y-75354319D02*
X79978333Y-76354319D01*
X79978333Y-76354319D02*
X80168809Y-75640033D01*
X80168809Y-75640033D02*
X80359285Y-76354319D01*
X80359285Y-76354319D02*
X80597381Y-75354319D01*
X81502142Y-76354319D02*
X80930714Y-76354319D01*
X81216428Y-76354319D02*
X81216428Y-75354319D01*
X81216428Y-75354319D02*
X81121190Y-75497176D01*
X81121190Y-75497176D02*
X81025952Y-75592414D01*
X81025952Y-75592414D02*
X80930714Y-75640033D01*
X82073571Y-75782890D02*
X81978333Y-75735271D01*
X81978333Y-75735271D02*
X81930714Y-75687652D01*
X81930714Y-75687652D02*
X81883095Y-75592414D01*
X81883095Y-75592414D02*
X81883095Y-75544795D01*
X81883095Y-75544795D02*
X81930714Y-75449557D01*
X81930714Y-75449557D02*
X81978333Y-75401938D01*
X81978333Y-75401938D02*
X82073571Y-75354319D01*
X82073571Y-75354319D02*
X82264047Y-75354319D01*
X82264047Y-75354319D02*
X82359285Y-75401938D01*
X82359285Y-75401938D02*
X82406904Y-75449557D01*
X82406904Y-75449557D02*
X82454523Y-75544795D01*
X82454523Y-75544795D02*
X82454523Y-75592414D01*
X82454523Y-75592414D02*
X82406904Y-75687652D01*
X82406904Y-75687652D02*
X82359285Y-75735271D01*
X82359285Y-75735271D02*
X82264047Y-75782890D01*
X82264047Y-75782890D02*
X82073571Y-75782890D01*
X82073571Y-75782890D02*
X81978333Y-75830509D01*
X81978333Y-75830509D02*
X81930714Y-75878128D01*
X81930714Y-75878128D02*
X81883095Y-75973366D01*
X81883095Y-75973366D02*
X81883095Y-76163842D01*
X81883095Y-76163842D02*
X81930714Y-76259080D01*
X81930714Y-76259080D02*
X81978333Y-76306700D01*
X81978333Y-76306700D02*
X82073571Y-76354319D01*
X82073571Y-76354319D02*
X82264047Y-76354319D01*
X82264047Y-76354319D02*
X82359285Y-76306700D01*
X82359285Y-76306700D02*
X82406904Y-76259080D01*
X82406904Y-76259080D02*
X82454523Y-76163842D01*
X82454523Y-76163842D02*
X82454523Y-75973366D01*
X82454523Y-75973366D02*
X82406904Y-75878128D01*
X82406904Y-75878128D02*
X82359285Y-75830509D01*
X82359285Y-75830509D02*
X82264047Y-75782890D01*
D12*
X46604564Y-61666219D02*
X46033136Y-61666219D01*
X46318850Y-61666219D02*
X46318850Y-60666219D01*
X46318850Y-60666219D02*
X46223612Y-60809076D01*
X46223612Y-60809076D02*
X46128374Y-60904314D01*
X46128374Y-60904314D02*
X46033136Y-60951933D01*
X47461707Y-60999552D02*
X47461707Y-61666219D01*
X47223612Y-60618600D02*
X46985517Y-61332885D01*
X46985517Y-61332885D02*
X47604564Y-61332885D01*
X49894063Y-61835520D02*
X49322635Y-61835520D01*
X49608349Y-61835520D02*
X49608349Y-60835520D01*
X49608349Y-60835520D02*
X49513111Y-60978377D01*
X49513111Y-60978377D02*
X49417873Y-61073615D01*
X49417873Y-61073615D02*
X49322635Y-61121234D01*
X50227397Y-60835520D02*
X50846444Y-60835520D01*
X50846444Y-60835520D02*
X50513111Y-61216472D01*
X50513111Y-61216472D02*
X50655968Y-61216472D01*
X50655968Y-61216472D02*
X50751206Y-61264091D01*
X50751206Y-61264091D02*
X50798825Y-61311710D01*
X50798825Y-61311710D02*
X50846444Y-61406948D01*
X50846444Y-61406948D02*
X50846444Y-61645043D01*
X50846444Y-61645043D02*
X50798825Y-61740281D01*
X50798825Y-61740281D02*
X50751206Y-61787901D01*
X50751206Y-61787901D02*
X50655968Y-61835520D01*
X50655968Y-61835520D02*
X50370254Y-61835520D01*
X50370254Y-61835520D02*
X50275016Y-61787901D01*
X50275016Y-61787901D02*
X50227397Y-61740281D01*
X49144564Y-56459219D02*
X48573136Y-56459219D01*
X48858850Y-56459219D02*
X48858850Y-55459219D01*
X48858850Y-55459219D02*
X48763612Y-55602076D01*
X48763612Y-55602076D02*
X48668374Y-55697314D01*
X48668374Y-55697314D02*
X48573136Y-55744933D01*
X50049326Y-55459219D02*
X49573136Y-55459219D01*
X49573136Y-55459219D02*
X49525517Y-55935409D01*
X49525517Y-55935409D02*
X49573136Y-55887790D01*
X49573136Y-55887790D02*
X49668374Y-55840171D01*
X49668374Y-55840171D02*
X49906469Y-55840171D01*
X49906469Y-55840171D02*
X50001707Y-55887790D01*
X50001707Y-55887790D02*
X50049326Y-55935409D01*
X50049326Y-55935409D02*
X50096945Y-56030647D01*
X50096945Y-56030647D02*
X50096945Y-56268742D01*
X50096945Y-56268742D02*
X50049326Y-56363980D01*
X50049326Y-56363980D02*
X50001707Y-56411600D01*
X50001707Y-56411600D02*
X49906469Y-56459219D01*
X49906469Y-56459219D02*
X49668374Y-56459219D01*
X49668374Y-56459219D02*
X49573136Y-56411600D01*
X49573136Y-56411600D02*
X49525517Y-56363980D01*
X48700136Y-47935758D02*
X48747755Y-47888139D01*
X48747755Y-47888139D02*
X48842993Y-47840520D01*
X48842993Y-47840520D02*
X49081088Y-47840520D01*
X49081088Y-47840520D02*
X49176326Y-47888139D01*
X49176326Y-47888139D02*
X49223945Y-47935758D01*
X49223945Y-47935758D02*
X49271564Y-48030996D01*
X49271564Y-48030996D02*
X49271564Y-48126234D01*
X49271564Y-48126234D02*
X49223945Y-48269091D01*
X49223945Y-48269091D02*
X48652517Y-48840520D01*
X48652517Y-48840520D02*
X49271564Y-48840520D01*
X49842993Y-48269091D02*
X49747755Y-48221472D01*
X49747755Y-48221472D02*
X49700136Y-48173853D01*
X49700136Y-48173853D02*
X49652517Y-48078615D01*
X49652517Y-48078615D02*
X49652517Y-48030996D01*
X49652517Y-48030996D02*
X49700136Y-47935758D01*
X49700136Y-47935758D02*
X49747755Y-47888139D01*
X49747755Y-47888139D02*
X49842993Y-47840520D01*
X49842993Y-47840520D02*
X50033469Y-47840520D01*
X50033469Y-47840520D02*
X50128707Y-47888139D01*
X50128707Y-47888139D02*
X50176326Y-47935758D01*
X50176326Y-47935758D02*
X50223945Y-48030996D01*
X50223945Y-48030996D02*
X50223945Y-48078615D01*
X50223945Y-48078615D02*
X50176326Y-48173853D01*
X50176326Y-48173853D02*
X50128707Y-48221472D01*
X50128707Y-48221472D02*
X50033469Y-48269091D01*
X50033469Y-48269091D02*
X49842993Y-48269091D01*
X49842993Y-48269091D02*
X49747755Y-48316710D01*
X49747755Y-48316710D02*
X49700136Y-48364329D01*
X49700136Y-48364329D02*
X49652517Y-48459567D01*
X49652517Y-48459567D02*
X49652517Y-48650043D01*
X49652517Y-48650043D02*
X49700136Y-48745281D01*
X49700136Y-48745281D02*
X49747755Y-48792901D01*
X49747755Y-48792901D02*
X49842993Y-48840520D01*
X49842993Y-48840520D02*
X50033469Y-48840520D01*
X50033469Y-48840520D02*
X50128707Y-48792901D01*
X50128707Y-48792901D02*
X50176326Y-48745281D01*
X50176326Y-48745281D02*
X50223945Y-48650043D01*
X50223945Y-48650043D02*
X50223945Y-48459567D01*
X50223945Y-48459567D02*
X50176326Y-48364329D01*
X50176326Y-48364329D02*
X50128707Y-48316710D01*
X50128707Y-48316710D02*
X50033469Y-48269091D01*
X48700136Y-53014457D02*
X48747755Y-52966838D01*
X48747755Y-52966838D02*
X48842993Y-52919219D01*
X48842993Y-52919219D02*
X49081088Y-52919219D01*
X49081088Y-52919219D02*
X49176326Y-52966838D01*
X49176326Y-52966838D02*
X49223945Y-53014457D01*
X49223945Y-53014457D02*
X49271564Y-53109695D01*
X49271564Y-53109695D02*
X49271564Y-53204933D01*
X49271564Y-53204933D02*
X49223945Y-53347790D01*
X49223945Y-53347790D02*
X48652517Y-53919219D01*
X48652517Y-53919219D02*
X49271564Y-53919219D01*
X50128707Y-52919219D02*
X49938231Y-52919219D01*
X49938231Y-52919219D02*
X49842993Y-52966838D01*
X49842993Y-52966838D02*
X49795374Y-53014457D01*
X49795374Y-53014457D02*
X49700136Y-53157314D01*
X49700136Y-53157314D02*
X49652517Y-53347790D01*
X49652517Y-53347790D02*
X49652517Y-53728742D01*
X49652517Y-53728742D02*
X49700136Y-53823980D01*
X49700136Y-53823980D02*
X49747755Y-53871600D01*
X49747755Y-53871600D02*
X49842993Y-53919219D01*
X49842993Y-53919219D02*
X50033469Y-53919219D01*
X50033469Y-53919219D02*
X50128707Y-53871600D01*
X50128707Y-53871600D02*
X50176326Y-53823980D01*
X50176326Y-53823980D02*
X50223945Y-53728742D01*
X50223945Y-53728742D02*
X50223945Y-53490647D01*
X50223945Y-53490647D02*
X50176326Y-53395409D01*
X50176326Y-53395409D02*
X50128707Y-53347790D01*
X50128707Y-53347790D02*
X50033469Y-53300171D01*
X50033469Y-53300171D02*
X49842993Y-53300171D01*
X49842993Y-53300171D02*
X49747755Y-53347790D01*
X49747755Y-53347790D02*
X49700136Y-53395409D01*
X49700136Y-53395409D02*
X49652517Y-53490647D01*
X48709234Y-45394457D02*
X48756853Y-45346838D01*
X48756853Y-45346838D02*
X48852091Y-45299219D01*
X48852091Y-45299219D02*
X49090186Y-45299219D01*
X49090186Y-45299219D02*
X49185424Y-45346838D01*
X49185424Y-45346838D02*
X49233043Y-45394457D01*
X49233043Y-45394457D02*
X49280662Y-45489695D01*
X49280662Y-45489695D02*
X49280662Y-45584933D01*
X49280662Y-45584933D02*
X49233043Y-45727790D01*
X49233043Y-45727790D02*
X48661615Y-46299219D01*
X48661615Y-46299219D02*
X49280662Y-46299219D01*
X49756853Y-46299219D02*
X49947329Y-46299219D01*
X49947329Y-46299219D02*
X50042567Y-46251600D01*
X50042567Y-46251600D02*
X50090186Y-46203980D01*
X50090186Y-46203980D02*
X50185424Y-46061123D01*
X50185424Y-46061123D02*
X50233043Y-45870647D01*
X50233043Y-45870647D02*
X50233043Y-45489695D01*
X50233043Y-45489695D02*
X50185424Y-45394457D01*
X50185424Y-45394457D02*
X50137805Y-45346838D01*
X50137805Y-45346838D02*
X50042567Y-45299219D01*
X50042567Y-45299219D02*
X49852091Y-45299219D01*
X49852091Y-45299219D02*
X49756853Y-45346838D01*
X49756853Y-45346838D02*
X49709234Y-45394457D01*
X49709234Y-45394457D02*
X49661615Y-45489695D01*
X49661615Y-45489695D02*
X49661615Y-45727790D01*
X49661615Y-45727790D02*
X49709234Y-45823028D01*
X49709234Y-45823028D02*
X49756853Y-45870647D01*
X49756853Y-45870647D02*
X49852091Y-45918266D01*
X49852091Y-45918266D02*
X50042567Y-45918266D01*
X50042567Y-45918266D02*
X50137805Y-45870647D01*
X50137805Y-45870647D02*
X50185424Y-45823028D01*
X50185424Y-45823028D02*
X50233043Y-45727790D01*
X48827136Y-50601457D02*
X48874755Y-50553838D01*
X48874755Y-50553838D02*
X48969993Y-50506219D01*
X48969993Y-50506219D02*
X49208088Y-50506219D01*
X49208088Y-50506219D02*
X49303326Y-50553838D01*
X49303326Y-50553838D02*
X49350945Y-50601457D01*
X49350945Y-50601457D02*
X49398564Y-50696695D01*
X49398564Y-50696695D02*
X49398564Y-50791933D01*
X49398564Y-50791933D02*
X49350945Y-50934790D01*
X49350945Y-50934790D02*
X48779517Y-51506219D01*
X48779517Y-51506219D02*
X49398564Y-51506219D01*
X49731898Y-50506219D02*
X50398564Y-50506219D01*
X50398564Y-50506219D02*
X49969993Y-51506219D01*
X49709281Y-37846219D02*
X49233091Y-37846219D01*
X49233091Y-37846219D02*
X49185472Y-38322409D01*
X49185472Y-38322409D02*
X49233091Y-38274790D01*
X49233091Y-38274790D02*
X49328329Y-38227171D01*
X49328329Y-38227171D02*
X49566424Y-38227171D01*
X49566424Y-38227171D02*
X49661662Y-38274790D01*
X49661662Y-38274790D02*
X49709281Y-38322409D01*
X49709281Y-38322409D02*
X49756900Y-38417647D01*
X49756900Y-38417647D02*
X49756900Y-38655742D01*
X49756900Y-38655742D02*
X49709281Y-38750980D01*
X49709281Y-38750980D02*
X49661662Y-38798600D01*
X49661662Y-38798600D02*
X49566424Y-38846219D01*
X49566424Y-38846219D02*
X49328329Y-38846219D01*
X49328329Y-38846219D02*
X49233091Y-38798600D01*
X49233091Y-38798600D02*
X49185472Y-38750980D01*
X50042615Y-37846219D02*
X50375948Y-38846219D01*
X50375948Y-38846219D02*
X50709281Y-37846219D01*
X48820472Y-42886219D02*
X49439519Y-42886219D01*
X49439519Y-42886219D02*
X49106186Y-43267171D01*
X49106186Y-43267171D02*
X49249043Y-43267171D01*
X49249043Y-43267171D02*
X49344281Y-43314790D01*
X49344281Y-43314790D02*
X49391900Y-43362409D01*
X49391900Y-43362409D02*
X49439519Y-43457647D01*
X49439519Y-43457647D02*
X49439519Y-43695742D01*
X49439519Y-43695742D02*
X49391900Y-43790980D01*
X49391900Y-43790980D02*
X49344281Y-43838600D01*
X49344281Y-43838600D02*
X49249043Y-43886219D01*
X49249043Y-43886219D02*
X48963329Y-43886219D01*
X48963329Y-43886219D02*
X48868091Y-43838600D01*
X48868091Y-43838600D02*
X48820472Y-43790980D01*
X49725234Y-42886219D02*
X50058567Y-43886219D01*
X50058567Y-43886219D02*
X50391900Y-42886219D01*
X50629996Y-42886219D02*
X51249043Y-42886219D01*
X51249043Y-42886219D02*
X50915710Y-43267171D01*
X50915710Y-43267171D02*
X51058567Y-43267171D01*
X51058567Y-43267171D02*
X51153805Y-43314790D01*
X51153805Y-43314790D02*
X51201424Y-43362409D01*
X51201424Y-43362409D02*
X51249043Y-43457647D01*
X51249043Y-43457647D02*
X51249043Y-43695742D01*
X51249043Y-43695742D02*
X51201424Y-43790980D01*
X51201424Y-43790980D02*
X51153805Y-43838600D01*
X51153805Y-43838600D02*
X51058567Y-43886219D01*
X51058567Y-43886219D02*
X50772853Y-43886219D01*
X50772853Y-43886219D02*
X50677615Y-43838600D01*
X50677615Y-43838600D02*
X50629996Y-43790980D01*
X49407805Y-40393838D02*
X49312567Y-40346219D01*
X49312567Y-40346219D02*
X49169710Y-40346219D01*
X49169710Y-40346219D02*
X49026853Y-40393838D01*
X49026853Y-40393838D02*
X48931615Y-40489076D01*
X48931615Y-40489076D02*
X48883996Y-40584314D01*
X48883996Y-40584314D02*
X48836377Y-40774790D01*
X48836377Y-40774790D02*
X48836377Y-40917647D01*
X48836377Y-40917647D02*
X48883996Y-41108123D01*
X48883996Y-41108123D02*
X48931615Y-41203361D01*
X48931615Y-41203361D02*
X49026853Y-41298600D01*
X49026853Y-41298600D02*
X49169710Y-41346219D01*
X49169710Y-41346219D02*
X49264948Y-41346219D01*
X49264948Y-41346219D02*
X49407805Y-41298600D01*
X49407805Y-41298600D02*
X49455424Y-41250980D01*
X49455424Y-41250980D02*
X49455424Y-40917647D01*
X49455424Y-40917647D02*
X49264948Y-40917647D01*
X49883996Y-41346219D02*
X49883996Y-40346219D01*
X49883996Y-40346219D02*
X50455424Y-41346219D01*
X50455424Y-41346219D02*
X50455424Y-40346219D01*
X50931615Y-41346219D02*
X50931615Y-40346219D01*
X50931615Y-40346219D02*
X51169710Y-40346219D01*
X51169710Y-40346219D02*
X51312567Y-40393838D01*
X51312567Y-40393838D02*
X51407805Y-40489076D01*
X51407805Y-40489076D02*
X51455424Y-40584314D01*
X51455424Y-40584314D02*
X51503043Y-40774790D01*
X51503043Y-40774790D02*
X51503043Y-40917647D01*
X51503043Y-40917647D02*
X51455424Y-41108123D01*
X51455424Y-41108123D02*
X51407805Y-41203361D01*
X51407805Y-41203361D02*
X51312567Y-41298600D01*
X51312567Y-41298600D02*
X51169710Y-41346219D01*
X51169710Y-41346219D02*
X50931615Y-41346219D01*
X52474063Y-61835520D02*
X51902635Y-61835520D01*
X52188349Y-61835520D02*
X52188349Y-60835520D01*
X52188349Y-60835520D02*
X52093111Y-60978377D01*
X52093111Y-60978377D02*
X51997873Y-61073615D01*
X51997873Y-61073615D02*
X51902635Y-61121234D01*
X52855016Y-60930758D02*
X52902635Y-60883139D01*
X52902635Y-60883139D02*
X52997873Y-60835520D01*
X52997873Y-60835520D02*
X53235968Y-60835520D01*
X53235968Y-60835520D02*
X53331206Y-60883139D01*
X53331206Y-60883139D02*
X53378825Y-60930758D01*
X53378825Y-60930758D02*
X53426444Y-61025996D01*
X53426444Y-61025996D02*
X53426444Y-61121234D01*
X53426444Y-61121234D02*
X53378825Y-61264091D01*
X53378825Y-61264091D02*
X52807397Y-61835520D01*
X52807397Y-61835520D02*
X53426444Y-61835520D01*
X54974063Y-61835520D02*
X54402635Y-61835520D01*
X54688349Y-61835520D02*
X54688349Y-60835520D01*
X54688349Y-60835520D02*
X54593111Y-60978377D01*
X54593111Y-60978377D02*
X54497873Y-61073615D01*
X54497873Y-61073615D02*
X54402635Y-61121234D01*
X55926444Y-61835520D02*
X55355016Y-61835520D01*
X55640730Y-61835520D02*
X55640730Y-60835520D01*
X55640730Y-60835520D02*
X55545492Y-60978377D01*
X55545492Y-60978377D02*
X55450254Y-61073615D01*
X55450254Y-61073615D02*
X55355016Y-61121234D01*
X57514063Y-61835520D02*
X56942635Y-61835520D01*
X57228349Y-61835520D02*
X57228349Y-60835520D01*
X57228349Y-60835520D02*
X57133111Y-60978377D01*
X57133111Y-60978377D02*
X57037873Y-61073615D01*
X57037873Y-61073615D02*
X56942635Y-61121234D01*
X58133111Y-60835520D02*
X58228349Y-60835520D01*
X58228349Y-60835520D02*
X58323587Y-60883139D01*
X58323587Y-60883139D02*
X58371206Y-60930758D01*
X58371206Y-60930758D02*
X58418825Y-61025996D01*
X58418825Y-61025996D02*
X58466444Y-61216472D01*
X58466444Y-61216472D02*
X58466444Y-61454567D01*
X58466444Y-61454567D02*
X58418825Y-61645043D01*
X58418825Y-61645043D02*
X58371206Y-61740281D01*
X58371206Y-61740281D02*
X58323587Y-61787901D01*
X58323587Y-61787901D02*
X58228349Y-61835520D01*
X58228349Y-61835520D02*
X58133111Y-61835520D01*
X58133111Y-61835520D02*
X58037873Y-61787901D01*
X58037873Y-61787901D02*
X57990254Y-61740281D01*
X57990254Y-61740281D02*
X57942635Y-61645043D01*
X57942635Y-61645043D02*
X57895016Y-61454567D01*
X57895016Y-61454567D02*
X57895016Y-61216472D01*
X57895016Y-61216472D02*
X57942635Y-61025996D01*
X57942635Y-61025996D02*
X57990254Y-60930758D01*
X57990254Y-60930758D02*
X58037873Y-60883139D01*
X58037873Y-60883139D02*
X58133111Y-60835520D01*
X60054064Y-61835520D02*
X60244540Y-61835520D01*
X60244540Y-61835520D02*
X60339778Y-61787901D01*
X60339778Y-61787901D02*
X60387397Y-61740281D01*
X60387397Y-61740281D02*
X60482635Y-61597424D01*
X60482635Y-61597424D02*
X60530254Y-61406948D01*
X60530254Y-61406948D02*
X60530254Y-61025996D01*
X60530254Y-61025996D02*
X60482635Y-60930758D01*
X60482635Y-60930758D02*
X60435016Y-60883139D01*
X60435016Y-60883139D02*
X60339778Y-60835520D01*
X60339778Y-60835520D02*
X60149302Y-60835520D01*
X60149302Y-60835520D02*
X60054064Y-60883139D01*
X60054064Y-60883139D02*
X60006445Y-60930758D01*
X60006445Y-60930758D02*
X59958826Y-61025996D01*
X59958826Y-61025996D02*
X59958826Y-61264091D01*
X59958826Y-61264091D02*
X60006445Y-61359329D01*
X60006445Y-61359329D02*
X60054064Y-61406948D01*
X60054064Y-61406948D02*
X60149302Y-61454567D01*
X60149302Y-61454567D02*
X60339778Y-61454567D01*
X60339778Y-61454567D02*
X60435016Y-61406948D01*
X60435016Y-61406948D02*
X60482635Y-61359329D01*
X60482635Y-61359329D02*
X60530254Y-61264091D01*
X65594689Y-37680520D02*
X65689927Y-37680520D01*
X65689927Y-37680520D02*
X65785165Y-37728139D01*
X65785165Y-37728139D02*
X65832784Y-37775758D01*
X65832784Y-37775758D02*
X65880403Y-37870996D01*
X65880403Y-37870996D02*
X65928022Y-38061472D01*
X65928022Y-38061472D02*
X65928022Y-38299567D01*
X65928022Y-38299567D02*
X65880403Y-38490043D01*
X65880403Y-38490043D02*
X65832784Y-38585281D01*
X65832784Y-38585281D02*
X65785165Y-38632901D01*
X65785165Y-38632901D02*
X65689927Y-38680520D01*
X65689927Y-38680520D02*
X65594689Y-38680520D01*
X65594689Y-38680520D02*
X65499451Y-38632901D01*
X65499451Y-38632901D02*
X65451832Y-38585281D01*
X65451832Y-38585281D02*
X65404213Y-38490043D01*
X65404213Y-38490043D02*
X65356594Y-38299567D01*
X65356594Y-38299567D02*
X65356594Y-38061472D01*
X65356594Y-38061472D02*
X65404213Y-37870996D01*
X65404213Y-37870996D02*
X65451832Y-37775758D01*
X65451832Y-37775758D02*
X65499451Y-37728139D01*
X65499451Y-37728139D02*
X65594689Y-37680520D01*
X65928022Y-41220520D02*
X65356594Y-41220520D01*
X65642308Y-41220520D02*
X65642308Y-40220520D01*
X65642308Y-40220520D02*
X65547070Y-40363377D01*
X65547070Y-40363377D02*
X65451832Y-40458615D01*
X65451832Y-40458615D02*
X65356594Y-40506234D01*
X65356594Y-42855758D02*
X65404213Y-42808139D01*
X65404213Y-42808139D02*
X65499451Y-42760520D01*
X65499451Y-42760520D02*
X65737546Y-42760520D01*
X65737546Y-42760520D02*
X65832784Y-42808139D01*
X65832784Y-42808139D02*
X65880403Y-42855758D01*
X65880403Y-42855758D02*
X65928022Y-42950996D01*
X65928022Y-42950996D02*
X65928022Y-43046234D01*
X65928022Y-43046234D02*
X65880403Y-43189091D01*
X65880403Y-43189091D02*
X65308975Y-43760520D01*
X65308975Y-43760520D02*
X65928022Y-43760520D01*
X65308975Y-45300520D02*
X65928022Y-45300520D01*
X65928022Y-45300520D02*
X65594689Y-45681472D01*
X65594689Y-45681472D02*
X65737546Y-45681472D01*
X65737546Y-45681472D02*
X65832784Y-45729091D01*
X65832784Y-45729091D02*
X65880403Y-45776710D01*
X65880403Y-45776710D02*
X65928022Y-45871948D01*
X65928022Y-45871948D02*
X65928022Y-46110043D01*
X65928022Y-46110043D02*
X65880403Y-46205281D01*
X65880403Y-46205281D02*
X65832784Y-46252901D01*
X65832784Y-46252901D02*
X65737546Y-46300520D01*
X65737546Y-46300520D02*
X65451832Y-46300520D01*
X65451832Y-46300520D02*
X65356594Y-46252901D01*
X65356594Y-46252901D02*
X65308975Y-46205281D01*
X65832784Y-48173853D02*
X65832784Y-48840520D01*
X65594689Y-47792901D02*
X65356594Y-48507186D01*
X65356594Y-48507186D02*
X65975641Y-48507186D01*
X65880403Y-50380520D02*
X65404213Y-50380520D01*
X65404213Y-50380520D02*
X65356594Y-50856710D01*
X65356594Y-50856710D02*
X65404213Y-50809091D01*
X65404213Y-50809091D02*
X65499451Y-50761472D01*
X65499451Y-50761472D02*
X65737546Y-50761472D01*
X65737546Y-50761472D02*
X65832784Y-50809091D01*
X65832784Y-50809091D02*
X65880403Y-50856710D01*
X65880403Y-50856710D02*
X65928022Y-50951948D01*
X65928022Y-50951948D02*
X65928022Y-51190043D01*
X65928022Y-51190043D02*
X65880403Y-51285281D01*
X65880403Y-51285281D02*
X65832784Y-51332901D01*
X65832784Y-51332901D02*
X65737546Y-51380520D01*
X65737546Y-51380520D02*
X65499451Y-51380520D01*
X65499451Y-51380520D02*
X65404213Y-51332901D01*
X65404213Y-51332901D02*
X65356594Y-51285281D01*
X65832784Y-52920520D02*
X65642308Y-52920520D01*
X65642308Y-52920520D02*
X65547070Y-52968139D01*
X65547070Y-52968139D02*
X65499451Y-53015758D01*
X65499451Y-53015758D02*
X65404213Y-53158615D01*
X65404213Y-53158615D02*
X65356594Y-53349091D01*
X65356594Y-53349091D02*
X65356594Y-53730043D01*
X65356594Y-53730043D02*
X65404213Y-53825281D01*
X65404213Y-53825281D02*
X65451832Y-53872901D01*
X65451832Y-53872901D02*
X65547070Y-53920520D01*
X65547070Y-53920520D02*
X65737546Y-53920520D01*
X65737546Y-53920520D02*
X65832784Y-53872901D01*
X65832784Y-53872901D02*
X65880403Y-53825281D01*
X65880403Y-53825281D02*
X65928022Y-53730043D01*
X65928022Y-53730043D02*
X65928022Y-53491948D01*
X65928022Y-53491948D02*
X65880403Y-53396710D01*
X65880403Y-53396710D02*
X65832784Y-53349091D01*
X65832784Y-53349091D02*
X65737546Y-53301472D01*
X65737546Y-53301472D02*
X65547070Y-53301472D01*
X65547070Y-53301472D02*
X65451832Y-53349091D01*
X65451832Y-53349091D02*
X65404213Y-53396710D01*
X65404213Y-53396710D02*
X65356594Y-53491948D01*
X65308975Y-55460520D02*
X65975641Y-55460520D01*
X65975641Y-55460520D02*
X65547070Y-56460520D01*
X65547070Y-58429091D02*
X65451832Y-58381472D01*
X65451832Y-58381472D02*
X65404213Y-58333853D01*
X65404213Y-58333853D02*
X65356594Y-58238615D01*
X65356594Y-58238615D02*
X65356594Y-58190996D01*
X65356594Y-58190996D02*
X65404213Y-58095758D01*
X65404213Y-58095758D02*
X65451832Y-58048139D01*
X65451832Y-58048139D02*
X65547070Y-58000520D01*
X65547070Y-58000520D02*
X65737546Y-58000520D01*
X65737546Y-58000520D02*
X65832784Y-58048139D01*
X65832784Y-58048139D02*
X65880403Y-58095758D01*
X65880403Y-58095758D02*
X65928022Y-58190996D01*
X65928022Y-58190996D02*
X65928022Y-58238615D01*
X65928022Y-58238615D02*
X65880403Y-58333853D01*
X65880403Y-58333853D02*
X65832784Y-58381472D01*
X65832784Y-58381472D02*
X65737546Y-58429091D01*
X65737546Y-58429091D02*
X65547070Y-58429091D01*
X65547070Y-58429091D02*
X65451832Y-58476710D01*
X65451832Y-58476710D02*
X65404213Y-58524329D01*
X65404213Y-58524329D02*
X65356594Y-58619567D01*
X65356594Y-58619567D02*
X65356594Y-58810043D01*
X65356594Y-58810043D02*
X65404213Y-58905281D01*
X65404213Y-58905281D02*
X65451832Y-58952901D01*
X65451832Y-58952901D02*
X65547070Y-59000520D01*
X65547070Y-59000520D02*
X65737546Y-59000520D01*
X65737546Y-59000520D02*
X65832784Y-58952901D01*
X65832784Y-58952901D02*
X65880403Y-58905281D01*
X65880403Y-58905281D02*
X65928022Y-58810043D01*
X65928022Y-58810043D02*
X65928022Y-58619567D01*
X65928022Y-58619567D02*
X65880403Y-58524329D01*
X65880403Y-58524329D02*
X65832784Y-58476710D01*
X65832784Y-58476710D02*
X65737546Y-58429091D01*
D11*
X117411667Y-28681700D02*
X117554524Y-28729319D01*
X117554524Y-28729319D02*
X117792619Y-28729319D01*
X117792619Y-28729319D02*
X117887857Y-28681700D01*
X117887857Y-28681700D02*
X117935476Y-28634080D01*
X117935476Y-28634080D02*
X117983095Y-28538842D01*
X117983095Y-28538842D02*
X117983095Y-28443604D01*
X117983095Y-28443604D02*
X117935476Y-28348366D01*
X117935476Y-28348366D02*
X117887857Y-28300747D01*
X117887857Y-28300747D02*
X117792619Y-28253128D01*
X117792619Y-28253128D02*
X117602143Y-28205509D01*
X117602143Y-28205509D02*
X117506905Y-28157890D01*
X117506905Y-28157890D02*
X117459286Y-28110271D01*
X117459286Y-28110271D02*
X117411667Y-28015033D01*
X117411667Y-28015033D02*
X117411667Y-27919795D01*
X117411667Y-27919795D02*
X117459286Y-27824557D01*
X117459286Y-27824557D02*
X117506905Y-27776938D01*
X117506905Y-27776938D02*
X117602143Y-27729319D01*
X117602143Y-27729319D02*
X117840238Y-27729319D01*
X117840238Y-27729319D02*
X117983095Y-27776938D01*
X118316429Y-27729319D02*
X118554524Y-28729319D01*
X118554524Y-28729319D02*
X118745000Y-28015033D01*
X118745000Y-28015033D02*
X118935476Y-28729319D01*
X118935476Y-28729319D02*
X119173572Y-27729319D01*
X119983095Y-28062652D02*
X119983095Y-28729319D01*
X119745000Y-27681700D02*
X119506905Y-28395985D01*
X119506905Y-28395985D02*
X120125952Y-28395985D01*
X70338362Y-127731532D02*
X70485889Y-127701343D01*
X70485889Y-127701343D02*
X70692086Y-127582295D01*
X70692086Y-127582295D02*
X70750755Y-127493437D01*
X70750755Y-127493437D02*
X70768185Y-127428388D01*
X70768185Y-127428388D02*
X70761805Y-127322100D01*
X70761805Y-127322100D02*
X70714186Y-127239621D01*
X70714186Y-127239621D02*
X70625328Y-127180952D01*
X70625328Y-127180952D02*
X70560279Y-127163522D01*
X70560279Y-127163522D02*
X70453991Y-127169902D01*
X70453991Y-127169902D02*
X70265224Y-127223901D01*
X70265224Y-127223901D02*
X70158936Y-127230281D01*
X70158936Y-127230281D02*
X70093887Y-127212851D01*
X70093887Y-127212851D02*
X70005029Y-127154182D01*
X70005029Y-127154182D02*
X69957410Y-127071703D01*
X69957410Y-127071703D02*
X69951030Y-126965415D01*
X69951030Y-126965415D02*
X69968460Y-126900366D01*
X69968460Y-126900366D02*
X70027129Y-126811508D01*
X70027129Y-126811508D02*
X70233325Y-126692460D01*
X70233325Y-126692460D02*
X70380853Y-126662271D01*
X70645718Y-126454365D02*
X71351915Y-127201343D01*
X71351915Y-127201343D02*
X71159729Y-126487515D01*
X71159729Y-126487515D02*
X71681829Y-127010866D01*
X71681829Y-127010866D02*
X71388026Y-126025793D01*
X71724320Y-125941605D02*
X71741750Y-125876557D01*
X71741750Y-125876557D02*
X71800419Y-125787698D01*
X71800419Y-125787698D02*
X72006615Y-125668651D01*
X72006615Y-125668651D02*
X72112903Y-125662271D01*
X72112903Y-125662271D02*
X72177952Y-125679701D01*
X72177952Y-125679701D02*
X72266811Y-125738370D01*
X72266811Y-125738370D02*
X72314430Y-125820848D01*
X72314430Y-125820848D02*
X72344619Y-125968376D01*
X72344619Y-125968376D02*
X72135461Y-126748962D01*
X72135461Y-126748962D02*
X72671572Y-126439438D01*
X72913880Y-125144841D02*
X72748923Y-125240079D01*
X72748923Y-125240079D02*
X72690254Y-125328938D01*
X72690254Y-125328938D02*
X72672824Y-125393986D01*
X72672824Y-125393986D02*
X72661774Y-125565323D01*
X72661774Y-125565323D02*
X72715773Y-125754090D01*
X72715773Y-125754090D02*
X72906249Y-126084005D01*
X72906249Y-126084005D02*
X72995107Y-126142674D01*
X72995107Y-126142674D02*
X73060156Y-126160103D01*
X73060156Y-126160103D02*
X73166444Y-126153724D01*
X73166444Y-126153724D02*
X73331401Y-126058486D01*
X73331401Y-126058486D02*
X73390070Y-125969627D01*
X73390070Y-125969627D02*
X73407500Y-125904578D01*
X73407500Y-125904578D02*
X73401120Y-125798290D01*
X73401120Y-125798290D02*
X73282073Y-125592094D01*
X73282073Y-125592094D02*
X73193215Y-125533425D01*
X73193215Y-125533425D02*
X73128166Y-125515995D01*
X73128166Y-125515995D02*
X73021878Y-125522375D01*
X73021878Y-125522375D02*
X72856920Y-125617613D01*
X72856920Y-125617613D02*
X72798251Y-125706471D01*
X72798251Y-125706471D02*
X72780821Y-125771520D01*
X72780821Y-125771520D02*
X72787201Y-125877808D01*
X179546666Y-37433819D02*
X179213333Y-36957628D01*
X178975238Y-37433819D02*
X178975238Y-36433819D01*
X178975238Y-36433819D02*
X179356190Y-36433819D01*
X179356190Y-36433819D02*
X179451428Y-36481438D01*
X179451428Y-36481438D02*
X179499047Y-36529057D01*
X179499047Y-36529057D02*
X179546666Y-36624295D01*
X179546666Y-36624295D02*
X179546666Y-36767152D01*
X179546666Y-36767152D02*
X179499047Y-36862390D01*
X179499047Y-36862390D02*
X179451428Y-36910009D01*
X179451428Y-36910009D02*
X179356190Y-36957628D01*
X179356190Y-36957628D02*
X178975238Y-36957628D01*
X179975238Y-36910009D02*
X180308571Y-36910009D01*
X180451428Y-37433819D02*
X179975238Y-37433819D01*
X179975238Y-37433819D02*
X179975238Y-36433819D01*
X179975238Y-36433819D02*
X180451428Y-36433819D01*
X181213333Y-36910009D02*
X180880000Y-36910009D01*
X180880000Y-37433819D02*
X180880000Y-36433819D01*
X180880000Y-36433819D02*
X181356190Y-36433819D01*
X181880000Y-36433819D02*
X181880000Y-36671914D01*
X181641905Y-36576676D02*
X181880000Y-36671914D01*
X181880000Y-36671914D02*
X182118095Y-36576676D01*
X181737143Y-36862390D02*
X181880000Y-36671914D01*
X181880000Y-36671914D02*
X182022857Y-36862390D01*
X182641905Y-36433819D02*
X182641905Y-36671914D01*
X182403810Y-36576676D02*
X182641905Y-36671914D01*
X182641905Y-36671914D02*
X182880000Y-36576676D01*
X182499048Y-36862390D02*
X182641905Y-36671914D01*
X182641905Y-36671914D02*
X182784762Y-36862390D01*
X97885476Y-52494200D02*
X98028333Y-52541819D01*
X98028333Y-52541819D02*
X98266428Y-52541819D01*
X98266428Y-52541819D02*
X98361666Y-52494200D01*
X98361666Y-52494200D02*
X98409285Y-52446580D01*
X98409285Y-52446580D02*
X98456904Y-52351342D01*
X98456904Y-52351342D02*
X98456904Y-52256104D01*
X98456904Y-52256104D02*
X98409285Y-52160866D01*
X98409285Y-52160866D02*
X98361666Y-52113247D01*
X98361666Y-52113247D02*
X98266428Y-52065628D01*
X98266428Y-52065628D02*
X98075952Y-52018009D01*
X98075952Y-52018009D02*
X97980714Y-51970390D01*
X97980714Y-51970390D02*
X97933095Y-51922771D01*
X97933095Y-51922771D02*
X97885476Y-51827533D01*
X97885476Y-51827533D02*
X97885476Y-51732295D01*
X97885476Y-51732295D02*
X97933095Y-51637057D01*
X97933095Y-51637057D02*
X97980714Y-51589438D01*
X97980714Y-51589438D02*
X98075952Y-51541819D01*
X98075952Y-51541819D02*
X98314047Y-51541819D01*
X98314047Y-51541819D02*
X98456904Y-51589438D01*
X98790238Y-51541819D02*
X99028333Y-52541819D01*
X99028333Y-52541819D02*
X99218809Y-51827533D01*
X99218809Y-51827533D02*
X99409285Y-52541819D01*
X99409285Y-52541819D02*
X99647381Y-51541819D01*
X100552142Y-52541819D02*
X99980714Y-52541819D01*
X100266428Y-52541819D02*
X100266428Y-51541819D01*
X100266428Y-51541819D02*
X100171190Y-51684676D01*
X100171190Y-51684676D02*
X100075952Y-51779914D01*
X100075952Y-51779914D02*
X99980714Y-51827533D01*
X101504523Y-52541819D02*
X100933095Y-52541819D01*
X101218809Y-52541819D02*
X101218809Y-51541819D01*
X101218809Y-51541819D02*
X101123571Y-51684676D01*
X101123571Y-51684676D02*
X101028333Y-51779914D01*
X101028333Y-51779914D02*
X100933095Y-51827533D01*
X98361667Y-33444200D02*
X98504524Y-33491819D01*
X98504524Y-33491819D02*
X98742619Y-33491819D01*
X98742619Y-33491819D02*
X98837857Y-33444200D01*
X98837857Y-33444200D02*
X98885476Y-33396580D01*
X98885476Y-33396580D02*
X98933095Y-33301342D01*
X98933095Y-33301342D02*
X98933095Y-33206104D01*
X98933095Y-33206104D02*
X98885476Y-33110866D01*
X98885476Y-33110866D02*
X98837857Y-33063247D01*
X98837857Y-33063247D02*
X98742619Y-33015628D01*
X98742619Y-33015628D02*
X98552143Y-32968009D01*
X98552143Y-32968009D02*
X98456905Y-32920390D01*
X98456905Y-32920390D02*
X98409286Y-32872771D01*
X98409286Y-32872771D02*
X98361667Y-32777533D01*
X98361667Y-32777533D02*
X98361667Y-32682295D01*
X98361667Y-32682295D02*
X98409286Y-32587057D01*
X98409286Y-32587057D02*
X98456905Y-32539438D01*
X98456905Y-32539438D02*
X98552143Y-32491819D01*
X98552143Y-32491819D02*
X98790238Y-32491819D01*
X98790238Y-32491819D02*
X98933095Y-32539438D01*
X99266429Y-32491819D02*
X99504524Y-33491819D01*
X99504524Y-33491819D02*
X99695000Y-32777533D01*
X99695000Y-32777533D02*
X99885476Y-33491819D01*
X99885476Y-33491819D02*
X100123572Y-32491819D01*
X100980714Y-32491819D02*
X100504524Y-32491819D01*
X100504524Y-32491819D02*
X100456905Y-32968009D01*
X100456905Y-32968009D02*
X100504524Y-32920390D01*
X100504524Y-32920390D02*
X100599762Y-32872771D01*
X100599762Y-32872771D02*
X100837857Y-32872771D01*
X100837857Y-32872771D02*
X100933095Y-32920390D01*
X100933095Y-32920390D02*
X100980714Y-32968009D01*
X100980714Y-32968009D02*
X101028333Y-33063247D01*
X101028333Y-33063247D02*
X101028333Y-33301342D01*
X101028333Y-33301342D02*
X100980714Y-33396580D01*
X100980714Y-33396580D02*
X100933095Y-33444200D01*
X100933095Y-33444200D02*
X100837857Y-33491819D01*
X100837857Y-33491819D02*
X100599762Y-33491819D01*
X100599762Y-33491819D02*
X100504524Y-33444200D01*
X100504524Y-33444200D02*
X100456905Y-33396580D01*
X174085476Y-76306700D02*
X174228333Y-76354319D01*
X174228333Y-76354319D02*
X174466428Y-76354319D01*
X174466428Y-76354319D02*
X174561666Y-76306700D01*
X174561666Y-76306700D02*
X174609285Y-76259080D01*
X174609285Y-76259080D02*
X174656904Y-76163842D01*
X174656904Y-76163842D02*
X174656904Y-76068604D01*
X174656904Y-76068604D02*
X174609285Y-75973366D01*
X174609285Y-75973366D02*
X174561666Y-75925747D01*
X174561666Y-75925747D02*
X174466428Y-75878128D01*
X174466428Y-75878128D02*
X174275952Y-75830509D01*
X174275952Y-75830509D02*
X174180714Y-75782890D01*
X174180714Y-75782890D02*
X174133095Y-75735271D01*
X174133095Y-75735271D02*
X174085476Y-75640033D01*
X174085476Y-75640033D02*
X174085476Y-75544795D01*
X174085476Y-75544795D02*
X174133095Y-75449557D01*
X174133095Y-75449557D02*
X174180714Y-75401938D01*
X174180714Y-75401938D02*
X174275952Y-75354319D01*
X174275952Y-75354319D02*
X174514047Y-75354319D01*
X174514047Y-75354319D02*
X174656904Y-75401938D01*
X174990238Y-75354319D02*
X175228333Y-76354319D01*
X175228333Y-76354319D02*
X175418809Y-75640033D01*
X175418809Y-75640033D02*
X175609285Y-76354319D01*
X175609285Y-76354319D02*
X175847381Y-75354319D01*
X176752142Y-76354319D02*
X176180714Y-76354319D01*
X176466428Y-76354319D02*
X176466428Y-75354319D01*
X176466428Y-75354319D02*
X176371190Y-75497176D01*
X176371190Y-75497176D02*
X176275952Y-75592414D01*
X176275952Y-75592414D02*
X176180714Y-75640033D01*
X177085476Y-75354319D02*
X177704523Y-75354319D01*
X177704523Y-75354319D02*
X177371190Y-75735271D01*
X177371190Y-75735271D02*
X177514047Y-75735271D01*
X177514047Y-75735271D02*
X177609285Y-75782890D01*
X177609285Y-75782890D02*
X177656904Y-75830509D01*
X177656904Y-75830509D02*
X177704523Y-75925747D01*
X177704523Y-75925747D02*
X177704523Y-76163842D01*
X177704523Y-76163842D02*
X177656904Y-76259080D01*
X177656904Y-76259080D02*
X177609285Y-76306700D01*
X177609285Y-76306700D02*
X177514047Y-76354319D01*
X177514047Y-76354319D02*
X177228333Y-76354319D01*
X177228333Y-76354319D02*
X177133095Y-76306700D01*
X177133095Y-76306700D02*
X177085476Y-76259080D01*
X116935476Y-85831700D02*
X117078333Y-85879319D01*
X117078333Y-85879319D02*
X117316428Y-85879319D01*
X117316428Y-85879319D02*
X117411666Y-85831700D01*
X117411666Y-85831700D02*
X117459285Y-85784080D01*
X117459285Y-85784080D02*
X117506904Y-85688842D01*
X117506904Y-85688842D02*
X117506904Y-85593604D01*
X117506904Y-85593604D02*
X117459285Y-85498366D01*
X117459285Y-85498366D02*
X117411666Y-85450747D01*
X117411666Y-85450747D02*
X117316428Y-85403128D01*
X117316428Y-85403128D02*
X117125952Y-85355509D01*
X117125952Y-85355509D02*
X117030714Y-85307890D01*
X117030714Y-85307890D02*
X116983095Y-85260271D01*
X116983095Y-85260271D02*
X116935476Y-85165033D01*
X116935476Y-85165033D02*
X116935476Y-85069795D01*
X116935476Y-85069795D02*
X116983095Y-84974557D01*
X116983095Y-84974557D02*
X117030714Y-84926938D01*
X117030714Y-84926938D02*
X117125952Y-84879319D01*
X117125952Y-84879319D02*
X117364047Y-84879319D01*
X117364047Y-84879319D02*
X117506904Y-84926938D01*
X117840238Y-84879319D02*
X118078333Y-85879319D01*
X118078333Y-85879319D02*
X118268809Y-85165033D01*
X118268809Y-85165033D02*
X118459285Y-85879319D01*
X118459285Y-85879319D02*
X118697381Y-84879319D01*
X119030714Y-84974557D02*
X119078333Y-84926938D01*
X119078333Y-84926938D02*
X119173571Y-84879319D01*
X119173571Y-84879319D02*
X119411666Y-84879319D01*
X119411666Y-84879319D02*
X119506904Y-84926938D01*
X119506904Y-84926938D02*
X119554523Y-84974557D01*
X119554523Y-84974557D02*
X119602142Y-85069795D01*
X119602142Y-85069795D02*
X119602142Y-85165033D01*
X119602142Y-85165033D02*
X119554523Y-85307890D01*
X119554523Y-85307890D02*
X118983095Y-85879319D01*
X118983095Y-85879319D02*
X119602142Y-85879319D01*
X119983095Y-84974557D02*
X120030714Y-84926938D01*
X120030714Y-84926938D02*
X120125952Y-84879319D01*
X120125952Y-84879319D02*
X120364047Y-84879319D01*
X120364047Y-84879319D02*
X120459285Y-84926938D01*
X120459285Y-84926938D02*
X120506904Y-84974557D01*
X120506904Y-84974557D02*
X120554523Y-85069795D01*
X120554523Y-85069795D02*
X120554523Y-85165033D01*
X120554523Y-85165033D02*
X120506904Y-85307890D01*
X120506904Y-85307890D02*
X119935476Y-85879319D01*
X119935476Y-85879319D02*
X120554523Y-85879319D01*
X78835476Y-57256700D02*
X78978333Y-57304319D01*
X78978333Y-57304319D02*
X79216428Y-57304319D01*
X79216428Y-57304319D02*
X79311666Y-57256700D01*
X79311666Y-57256700D02*
X79359285Y-57209080D01*
X79359285Y-57209080D02*
X79406904Y-57113842D01*
X79406904Y-57113842D02*
X79406904Y-57018604D01*
X79406904Y-57018604D02*
X79359285Y-56923366D01*
X79359285Y-56923366D02*
X79311666Y-56875747D01*
X79311666Y-56875747D02*
X79216428Y-56828128D01*
X79216428Y-56828128D02*
X79025952Y-56780509D01*
X79025952Y-56780509D02*
X78930714Y-56732890D01*
X78930714Y-56732890D02*
X78883095Y-56685271D01*
X78883095Y-56685271D02*
X78835476Y-56590033D01*
X78835476Y-56590033D02*
X78835476Y-56494795D01*
X78835476Y-56494795D02*
X78883095Y-56399557D01*
X78883095Y-56399557D02*
X78930714Y-56351938D01*
X78930714Y-56351938D02*
X79025952Y-56304319D01*
X79025952Y-56304319D02*
X79264047Y-56304319D01*
X79264047Y-56304319D02*
X79406904Y-56351938D01*
X79740238Y-56304319D02*
X79978333Y-57304319D01*
X79978333Y-57304319D02*
X80168809Y-56590033D01*
X80168809Y-56590033D02*
X80359285Y-57304319D01*
X80359285Y-57304319D02*
X80597381Y-56304319D01*
X81502142Y-57304319D02*
X80930714Y-57304319D01*
X81216428Y-57304319D02*
X81216428Y-56304319D01*
X81216428Y-56304319D02*
X81121190Y-56447176D01*
X81121190Y-56447176D02*
X81025952Y-56542414D01*
X81025952Y-56542414D02*
X80930714Y-56590033D01*
X81883095Y-56399557D02*
X81930714Y-56351938D01*
X81930714Y-56351938D02*
X82025952Y-56304319D01*
X82025952Y-56304319D02*
X82264047Y-56304319D01*
X82264047Y-56304319D02*
X82359285Y-56351938D01*
X82359285Y-56351938D02*
X82406904Y-56399557D01*
X82406904Y-56399557D02*
X82454523Y-56494795D01*
X82454523Y-56494795D02*
X82454523Y-56590033D01*
X82454523Y-56590033D02*
X82406904Y-56732890D01*
X82406904Y-56732890D02*
X81835476Y-57304319D01*
X81835476Y-57304319D02*
X82454523Y-57304319D01*
X79311667Y-38206700D02*
X79454524Y-38254319D01*
X79454524Y-38254319D02*
X79692619Y-38254319D01*
X79692619Y-38254319D02*
X79787857Y-38206700D01*
X79787857Y-38206700D02*
X79835476Y-38159080D01*
X79835476Y-38159080D02*
X79883095Y-38063842D01*
X79883095Y-38063842D02*
X79883095Y-37968604D01*
X79883095Y-37968604D02*
X79835476Y-37873366D01*
X79835476Y-37873366D02*
X79787857Y-37825747D01*
X79787857Y-37825747D02*
X79692619Y-37778128D01*
X79692619Y-37778128D02*
X79502143Y-37730509D01*
X79502143Y-37730509D02*
X79406905Y-37682890D01*
X79406905Y-37682890D02*
X79359286Y-37635271D01*
X79359286Y-37635271D02*
X79311667Y-37540033D01*
X79311667Y-37540033D02*
X79311667Y-37444795D01*
X79311667Y-37444795D02*
X79359286Y-37349557D01*
X79359286Y-37349557D02*
X79406905Y-37301938D01*
X79406905Y-37301938D02*
X79502143Y-37254319D01*
X79502143Y-37254319D02*
X79740238Y-37254319D01*
X79740238Y-37254319D02*
X79883095Y-37301938D01*
X80216429Y-37254319D02*
X80454524Y-38254319D01*
X80454524Y-38254319D02*
X80645000Y-37540033D01*
X80645000Y-37540033D02*
X80835476Y-38254319D01*
X80835476Y-38254319D02*
X81073572Y-37254319D01*
X81883095Y-37254319D02*
X81692619Y-37254319D01*
X81692619Y-37254319D02*
X81597381Y-37301938D01*
X81597381Y-37301938D02*
X81549762Y-37349557D01*
X81549762Y-37349557D02*
X81454524Y-37492414D01*
X81454524Y-37492414D02*
X81406905Y-37682890D01*
X81406905Y-37682890D02*
X81406905Y-38063842D01*
X81406905Y-38063842D02*
X81454524Y-38159080D01*
X81454524Y-38159080D02*
X81502143Y-38206700D01*
X81502143Y-38206700D02*
X81597381Y-38254319D01*
X81597381Y-38254319D02*
X81787857Y-38254319D01*
X81787857Y-38254319D02*
X81883095Y-38206700D01*
X81883095Y-38206700D02*
X81930714Y-38159080D01*
X81930714Y-38159080D02*
X81978333Y-38063842D01*
X81978333Y-38063842D02*
X81978333Y-37825747D01*
X81978333Y-37825747D02*
X81930714Y-37730509D01*
X81930714Y-37730509D02*
X81883095Y-37682890D01*
X81883095Y-37682890D02*
X81787857Y-37635271D01*
X81787857Y-37635271D02*
X81597381Y-37635271D01*
X81597381Y-37635271D02*
X81502143Y-37682890D01*
X81502143Y-37682890D02*
X81454524Y-37730509D01*
X81454524Y-37730509D02*
X81406905Y-37825747D01*
X174085476Y-95356700D02*
X174228333Y-95404319D01*
X174228333Y-95404319D02*
X174466428Y-95404319D01*
X174466428Y-95404319D02*
X174561666Y-95356700D01*
X174561666Y-95356700D02*
X174609285Y-95309080D01*
X174609285Y-95309080D02*
X174656904Y-95213842D01*
X174656904Y-95213842D02*
X174656904Y-95118604D01*
X174656904Y-95118604D02*
X174609285Y-95023366D01*
X174609285Y-95023366D02*
X174561666Y-94975747D01*
X174561666Y-94975747D02*
X174466428Y-94928128D01*
X174466428Y-94928128D02*
X174275952Y-94880509D01*
X174275952Y-94880509D02*
X174180714Y-94832890D01*
X174180714Y-94832890D02*
X174133095Y-94785271D01*
X174133095Y-94785271D02*
X174085476Y-94690033D01*
X174085476Y-94690033D02*
X174085476Y-94594795D01*
X174085476Y-94594795D02*
X174133095Y-94499557D01*
X174133095Y-94499557D02*
X174180714Y-94451938D01*
X174180714Y-94451938D02*
X174275952Y-94404319D01*
X174275952Y-94404319D02*
X174514047Y-94404319D01*
X174514047Y-94404319D02*
X174656904Y-94451938D01*
X174990238Y-94404319D02*
X175228333Y-95404319D01*
X175228333Y-95404319D02*
X175418809Y-94690033D01*
X175418809Y-94690033D02*
X175609285Y-95404319D01*
X175609285Y-95404319D02*
X175847381Y-94404319D01*
X176752142Y-95404319D02*
X176180714Y-95404319D01*
X176466428Y-95404319D02*
X176466428Y-94404319D01*
X176466428Y-94404319D02*
X176371190Y-94547176D01*
X176371190Y-94547176D02*
X176275952Y-94642414D01*
X176275952Y-94642414D02*
X176180714Y-94690033D01*
X177228333Y-95404319D02*
X177418809Y-95404319D01*
X177418809Y-95404319D02*
X177514047Y-95356700D01*
X177514047Y-95356700D02*
X177561666Y-95309080D01*
X177561666Y-95309080D02*
X177656904Y-95166223D01*
X177656904Y-95166223D02*
X177704523Y-94975747D01*
X177704523Y-94975747D02*
X177704523Y-94594795D01*
X177704523Y-94594795D02*
X177656904Y-94499557D01*
X177656904Y-94499557D02*
X177609285Y-94451938D01*
X177609285Y-94451938D02*
X177514047Y-94404319D01*
X177514047Y-94404319D02*
X177323571Y-94404319D01*
X177323571Y-94404319D02*
X177228333Y-94451938D01*
X177228333Y-94451938D02*
X177180714Y-94499557D01*
X177180714Y-94499557D02*
X177133095Y-94594795D01*
X177133095Y-94594795D02*
X177133095Y-94832890D01*
X177133095Y-94832890D02*
X177180714Y-94928128D01*
X177180714Y-94928128D02*
X177228333Y-94975747D01*
X177228333Y-94975747D02*
X177323571Y-95023366D01*
X177323571Y-95023366D02*
X177514047Y-95023366D01*
X177514047Y-95023366D02*
X177609285Y-94975747D01*
X177609285Y-94975747D02*
X177656904Y-94928128D01*
X177656904Y-94928128D02*
X177704523Y-94832890D01*
X135985476Y-71544200D02*
X136128333Y-71591819D01*
X136128333Y-71591819D02*
X136366428Y-71591819D01*
X136366428Y-71591819D02*
X136461666Y-71544200D01*
X136461666Y-71544200D02*
X136509285Y-71496580D01*
X136509285Y-71496580D02*
X136556904Y-71401342D01*
X136556904Y-71401342D02*
X136556904Y-71306104D01*
X136556904Y-71306104D02*
X136509285Y-71210866D01*
X136509285Y-71210866D02*
X136461666Y-71163247D01*
X136461666Y-71163247D02*
X136366428Y-71115628D01*
X136366428Y-71115628D02*
X136175952Y-71068009D01*
X136175952Y-71068009D02*
X136080714Y-71020390D01*
X136080714Y-71020390D02*
X136033095Y-70972771D01*
X136033095Y-70972771D02*
X135985476Y-70877533D01*
X135985476Y-70877533D02*
X135985476Y-70782295D01*
X135985476Y-70782295D02*
X136033095Y-70687057D01*
X136033095Y-70687057D02*
X136080714Y-70639438D01*
X136080714Y-70639438D02*
X136175952Y-70591819D01*
X136175952Y-70591819D02*
X136414047Y-70591819D01*
X136414047Y-70591819D02*
X136556904Y-70639438D01*
X136890238Y-70591819D02*
X137128333Y-71591819D01*
X137128333Y-71591819D02*
X137318809Y-70877533D01*
X137318809Y-70877533D02*
X137509285Y-71591819D01*
X137509285Y-71591819D02*
X137747381Y-70591819D01*
X138652142Y-71591819D02*
X138080714Y-71591819D01*
X138366428Y-71591819D02*
X138366428Y-70591819D01*
X138366428Y-70591819D02*
X138271190Y-70734676D01*
X138271190Y-70734676D02*
X138175952Y-70829914D01*
X138175952Y-70829914D02*
X138080714Y-70877533D01*
X139556904Y-70591819D02*
X139080714Y-70591819D01*
X139080714Y-70591819D02*
X139033095Y-71068009D01*
X139033095Y-71068009D02*
X139080714Y-71020390D01*
X139080714Y-71020390D02*
X139175952Y-70972771D01*
X139175952Y-70972771D02*
X139414047Y-70972771D01*
X139414047Y-70972771D02*
X139509285Y-71020390D01*
X139509285Y-71020390D02*
X139556904Y-71068009D01*
X139556904Y-71068009D02*
X139604523Y-71163247D01*
X139604523Y-71163247D02*
X139604523Y-71401342D01*
X139604523Y-71401342D02*
X139556904Y-71496580D01*
X139556904Y-71496580D02*
X139509285Y-71544200D01*
X139509285Y-71544200D02*
X139414047Y-71591819D01*
X139414047Y-71591819D02*
X139175952Y-71591819D01*
X139175952Y-71591819D02*
X139080714Y-71544200D01*
X139080714Y-71544200D02*
X139033095Y-71496580D01*
X155035476Y-95356700D02*
X155178333Y-95404319D01*
X155178333Y-95404319D02*
X155416428Y-95404319D01*
X155416428Y-95404319D02*
X155511666Y-95356700D01*
X155511666Y-95356700D02*
X155559285Y-95309080D01*
X155559285Y-95309080D02*
X155606904Y-95213842D01*
X155606904Y-95213842D02*
X155606904Y-95118604D01*
X155606904Y-95118604D02*
X155559285Y-95023366D01*
X155559285Y-95023366D02*
X155511666Y-94975747D01*
X155511666Y-94975747D02*
X155416428Y-94928128D01*
X155416428Y-94928128D02*
X155225952Y-94880509D01*
X155225952Y-94880509D02*
X155130714Y-94832890D01*
X155130714Y-94832890D02*
X155083095Y-94785271D01*
X155083095Y-94785271D02*
X155035476Y-94690033D01*
X155035476Y-94690033D02*
X155035476Y-94594795D01*
X155035476Y-94594795D02*
X155083095Y-94499557D01*
X155083095Y-94499557D02*
X155130714Y-94451938D01*
X155130714Y-94451938D02*
X155225952Y-94404319D01*
X155225952Y-94404319D02*
X155464047Y-94404319D01*
X155464047Y-94404319D02*
X155606904Y-94451938D01*
X155940238Y-94404319D02*
X156178333Y-95404319D01*
X156178333Y-95404319D02*
X156368809Y-94690033D01*
X156368809Y-94690033D02*
X156559285Y-95404319D01*
X156559285Y-95404319D02*
X156797381Y-94404319D01*
X157130714Y-94499557D02*
X157178333Y-94451938D01*
X157178333Y-94451938D02*
X157273571Y-94404319D01*
X157273571Y-94404319D02*
X157511666Y-94404319D01*
X157511666Y-94404319D02*
X157606904Y-94451938D01*
X157606904Y-94451938D02*
X157654523Y-94499557D01*
X157654523Y-94499557D02*
X157702142Y-94594795D01*
X157702142Y-94594795D02*
X157702142Y-94690033D01*
X157702142Y-94690033D02*
X157654523Y-94832890D01*
X157654523Y-94832890D02*
X157083095Y-95404319D01*
X157083095Y-95404319D02*
X157702142Y-95404319D01*
X158321190Y-94404319D02*
X158416428Y-94404319D01*
X158416428Y-94404319D02*
X158511666Y-94451938D01*
X158511666Y-94451938D02*
X158559285Y-94499557D01*
X158559285Y-94499557D02*
X158606904Y-94594795D01*
X158606904Y-94594795D02*
X158654523Y-94785271D01*
X158654523Y-94785271D02*
X158654523Y-95023366D01*
X158654523Y-95023366D02*
X158606904Y-95213842D01*
X158606904Y-95213842D02*
X158559285Y-95309080D01*
X158559285Y-95309080D02*
X158511666Y-95356700D01*
X158511666Y-95356700D02*
X158416428Y-95404319D01*
X158416428Y-95404319D02*
X158321190Y-95404319D01*
X158321190Y-95404319D02*
X158225952Y-95356700D01*
X158225952Y-95356700D02*
X158178333Y-95309080D01*
X158178333Y-95309080D02*
X158130714Y-95213842D01*
X158130714Y-95213842D02*
X158083095Y-95023366D01*
X158083095Y-95023366D02*
X158083095Y-94785271D01*
X158083095Y-94785271D02*
X158130714Y-94594795D01*
X158130714Y-94594795D02*
X158178333Y-94499557D01*
X158178333Y-94499557D02*
X158225952Y-94451938D01*
X158225952Y-94451938D02*
X158321190Y-94404319D01*
X174561667Y-38206700D02*
X174704524Y-38254319D01*
X174704524Y-38254319D02*
X174942619Y-38254319D01*
X174942619Y-38254319D02*
X175037857Y-38206700D01*
X175037857Y-38206700D02*
X175085476Y-38159080D01*
X175085476Y-38159080D02*
X175133095Y-38063842D01*
X175133095Y-38063842D02*
X175133095Y-37968604D01*
X175133095Y-37968604D02*
X175085476Y-37873366D01*
X175085476Y-37873366D02*
X175037857Y-37825747D01*
X175037857Y-37825747D02*
X174942619Y-37778128D01*
X174942619Y-37778128D02*
X174752143Y-37730509D01*
X174752143Y-37730509D02*
X174656905Y-37682890D01*
X174656905Y-37682890D02*
X174609286Y-37635271D01*
X174609286Y-37635271D02*
X174561667Y-37540033D01*
X174561667Y-37540033D02*
X174561667Y-37444795D01*
X174561667Y-37444795D02*
X174609286Y-37349557D01*
X174609286Y-37349557D02*
X174656905Y-37301938D01*
X174656905Y-37301938D02*
X174752143Y-37254319D01*
X174752143Y-37254319D02*
X174990238Y-37254319D01*
X174990238Y-37254319D02*
X175133095Y-37301938D01*
X175466429Y-37254319D02*
X175704524Y-38254319D01*
X175704524Y-38254319D02*
X175895000Y-37540033D01*
X175895000Y-37540033D02*
X176085476Y-38254319D01*
X176085476Y-38254319D02*
X176323572Y-37254319D01*
X177228333Y-38254319D02*
X176656905Y-38254319D01*
X176942619Y-38254319D02*
X176942619Y-37254319D01*
X176942619Y-37254319D02*
X176847381Y-37397176D01*
X176847381Y-37397176D02*
X176752143Y-37492414D01*
X176752143Y-37492414D02*
X176656905Y-37540033D01*
X136461667Y-52494200D02*
X136604524Y-52541819D01*
X136604524Y-52541819D02*
X136842619Y-52541819D01*
X136842619Y-52541819D02*
X136937857Y-52494200D01*
X136937857Y-52494200D02*
X136985476Y-52446580D01*
X136985476Y-52446580D02*
X137033095Y-52351342D01*
X137033095Y-52351342D02*
X137033095Y-52256104D01*
X137033095Y-52256104D02*
X136985476Y-52160866D01*
X136985476Y-52160866D02*
X136937857Y-52113247D01*
X136937857Y-52113247D02*
X136842619Y-52065628D01*
X136842619Y-52065628D02*
X136652143Y-52018009D01*
X136652143Y-52018009D02*
X136556905Y-51970390D01*
X136556905Y-51970390D02*
X136509286Y-51922771D01*
X136509286Y-51922771D02*
X136461667Y-51827533D01*
X136461667Y-51827533D02*
X136461667Y-51732295D01*
X136461667Y-51732295D02*
X136509286Y-51637057D01*
X136509286Y-51637057D02*
X136556905Y-51589438D01*
X136556905Y-51589438D02*
X136652143Y-51541819D01*
X136652143Y-51541819D02*
X136890238Y-51541819D01*
X136890238Y-51541819D02*
X137033095Y-51589438D01*
X137366429Y-51541819D02*
X137604524Y-52541819D01*
X137604524Y-52541819D02*
X137795000Y-51827533D01*
X137795000Y-51827533D02*
X137985476Y-52541819D01*
X137985476Y-52541819D02*
X138223572Y-51541819D01*
X138652143Y-52541819D02*
X138842619Y-52541819D01*
X138842619Y-52541819D02*
X138937857Y-52494200D01*
X138937857Y-52494200D02*
X138985476Y-52446580D01*
X138985476Y-52446580D02*
X139080714Y-52303723D01*
X139080714Y-52303723D02*
X139128333Y-52113247D01*
X139128333Y-52113247D02*
X139128333Y-51732295D01*
X139128333Y-51732295D02*
X139080714Y-51637057D01*
X139080714Y-51637057D02*
X139033095Y-51589438D01*
X139033095Y-51589438D02*
X138937857Y-51541819D01*
X138937857Y-51541819D02*
X138747381Y-51541819D01*
X138747381Y-51541819D02*
X138652143Y-51589438D01*
X138652143Y-51589438D02*
X138604524Y-51637057D01*
X138604524Y-51637057D02*
X138556905Y-51732295D01*
X138556905Y-51732295D02*
X138556905Y-51970390D01*
X138556905Y-51970390D02*
X138604524Y-52065628D01*
X138604524Y-52065628D02*
X138652143Y-52113247D01*
X138652143Y-52113247D02*
X138747381Y-52160866D01*
X138747381Y-52160866D02*
X138937857Y-52160866D01*
X138937857Y-52160866D02*
X139033095Y-52113247D01*
X139033095Y-52113247D02*
X139080714Y-52065628D01*
X139080714Y-52065628D02*
X139128333Y-51970390D01*
%TO.C,SW10*%
D13*
X111145000Y-48724500D02*
X111145000Y-63924500D01*
X111145000Y-63924500D02*
X126345000Y-63924500D01*
X126345000Y-48724500D02*
X111145000Y-48724500D01*
X126345000Y-63924500D02*
X126345000Y-48724500D01*
%TO.C,SW21*%
X130195000Y-91587000D02*
X130195000Y-106787000D01*
X130195000Y-106787000D02*
X145395000Y-106787000D01*
X145395000Y-91587000D02*
X130195000Y-91587000D01*
X145395000Y-106787000D02*
X145395000Y-91587000D01*
%TO.C,SW2*%
X149245000Y-39199500D02*
X149245000Y-54399500D01*
X149245000Y-54399500D02*
X164445000Y-54399500D01*
X164445000Y-39199500D02*
X149245000Y-39199500D01*
X164445000Y-54399500D02*
X164445000Y-39199500D01*
%TO.C,SW24*%
X73045000Y-96349500D02*
X73045000Y-111549500D01*
X73045000Y-111549500D02*
X88245000Y-111549500D01*
X88245000Y-96349500D02*
X73045000Y-96349500D01*
X88245000Y-111549500D02*
X88245000Y-96349500D01*
%TO.C,SW27*%
X46404433Y-146218309D02*
X56174805Y-157862185D01*
X56174805Y-157862185D02*
X67818681Y-148091813D01*
X58048309Y-136447937D02*
X46404433Y-146218309D01*
X67818681Y-148091813D02*
X58048309Y-136447937D01*
%TO.C,SW3*%
X130195000Y-34437000D02*
X130195000Y-49637000D01*
X130195000Y-49637000D02*
X145395000Y-49637000D01*
X145395000Y-34437000D02*
X130195000Y-34437000D01*
X145395000Y-49637000D02*
X145395000Y-34437000D01*
%TO.C,SW25*%
X87966187Y-119139442D02*
X91900236Y-133821515D01*
X91900236Y-133821515D02*
X106582309Y-129887466D01*
X102648260Y-115205393D02*
X87966187Y-119139442D01*
X106582309Y-129887466D02*
X102648260Y-115205393D01*
%TO.C,SW7*%
X168295000Y-58249500D02*
X168295000Y-73449500D01*
X168295000Y-73449500D02*
X183495000Y-73449500D01*
X183495000Y-58249500D02*
X168295000Y-58249500D01*
X183495000Y-73449500D02*
X183495000Y-58249500D01*
%TO.C,SW17*%
X92095000Y-72537000D02*
X92095000Y-87737000D01*
X92095000Y-87737000D02*
X107295000Y-87737000D01*
X107295000Y-72537000D02*
X92095000Y-72537000D01*
X107295000Y-87737000D02*
X107295000Y-72537000D01*
%TO.C,SW16*%
X111145000Y-67774500D02*
X111145000Y-82974500D01*
X111145000Y-82974500D02*
X126345000Y-82974500D01*
X126345000Y-67774500D02*
X111145000Y-67774500D01*
X126345000Y-82974500D02*
X126345000Y-67774500D01*
%TO.C,J2*%
X44150000Y-78200000D02*
X44150000Y-83200000D01*
X46150000Y-77600000D02*
X46150000Y-78200000D01*
X46150000Y-77600000D02*
X48525000Y-77600000D01*
X46150000Y-78200000D02*
X44150000Y-78200000D01*
X46150000Y-83200000D02*
X44150000Y-83200000D01*
X46150000Y-83200000D02*
X46150000Y-83800000D01*
X50175000Y-77600000D02*
X51525000Y-77600000D01*
X53175000Y-77600000D02*
X55575000Y-77600000D01*
X55575000Y-77600000D02*
X55575000Y-76200000D01*
X56675000Y-83800000D02*
X46150000Y-83800000D01*
X57125000Y-77600000D02*
X57125000Y-76200000D01*
X57125000Y-77600000D02*
X58250000Y-77600000D01*
X58250000Y-83800000D02*
X58250000Y-77600000D01*
%TO.C,SW8*%
X149245000Y-58249500D02*
X149245000Y-73449500D01*
X149245000Y-73449500D02*
X164445000Y-73449500D01*
X164445000Y-58249500D02*
X149245000Y-58249500D01*
X164445000Y-73449500D02*
X164445000Y-58249500D01*
%TO.C,SW14*%
X149245000Y-77299500D02*
X149245000Y-92499500D01*
X149245000Y-92499500D02*
X164445000Y-92499500D01*
X164445000Y-77299500D02*
X149245000Y-77299500D01*
X164445000Y-92499500D02*
X164445000Y-77299500D01*
%TO.C,SW23*%
X92095000Y-91587000D02*
X92095000Y-106787000D01*
X92095000Y-106787000D02*
X107295000Y-106787000D01*
X107295000Y-91587000D02*
X92095000Y-91587000D01*
X107295000Y-106787000D02*
X107295000Y-91587000D01*
%TO.C,SW18*%
X73045000Y-77299500D02*
X73045000Y-92499500D01*
X73045000Y-92499500D02*
X88245000Y-92499500D01*
X88245000Y-77299500D02*
X73045000Y-77299500D01*
X88245000Y-92499500D02*
X88245000Y-77299500D01*
%TO.C,SW4*%
X111145000Y-29674500D02*
X111145000Y-44874500D01*
X111145000Y-44874500D02*
X126345000Y-44874500D01*
X126345000Y-29674500D02*
X111145000Y-29674500D01*
X126345000Y-44874500D02*
X126345000Y-29674500D01*
%TO.C,SW26*%
X65820063Y-131486561D02*
X73420063Y-144650147D01*
X73420063Y-144650147D02*
X86583649Y-137050147D01*
X78983649Y-123886561D02*
X65820063Y-131486561D01*
X86583649Y-137050147D02*
X78983649Y-123886561D01*
%TO.C,SW11*%
X92095000Y-53487000D02*
X92095000Y-68687000D01*
X92095000Y-68687000D02*
X107295000Y-68687000D01*
X107295000Y-53487000D02*
X92095000Y-53487000D01*
X107295000Y-68687000D02*
X107295000Y-53487000D01*
%TO.C,SW5*%
X92095000Y-34437000D02*
X92095000Y-49637000D01*
X92095000Y-49637000D02*
X107295000Y-49637000D01*
X107295000Y-34437000D02*
X92095000Y-34437000D01*
X107295000Y-49637000D02*
X107295000Y-34437000D01*
%TO.C,SW13*%
X168295000Y-77299500D02*
X168295000Y-92499500D01*
X168295000Y-92499500D02*
X183495000Y-92499500D01*
X183495000Y-77299500D02*
X168295000Y-77299500D01*
X183495000Y-92499500D02*
X183495000Y-77299500D01*
%TO.C,SW22*%
X111145000Y-86824500D02*
X111145000Y-102024500D01*
X111145000Y-102024500D02*
X126345000Y-102024500D01*
X126345000Y-86824500D02*
X111145000Y-86824500D01*
X126345000Y-102024500D02*
X126345000Y-86824500D01*
%TO.C,SW12*%
X73045000Y-58249500D02*
X73045000Y-73449500D01*
X73045000Y-73449500D02*
X88245000Y-73449500D01*
X88245000Y-58249500D02*
X73045000Y-58249500D01*
X88245000Y-73449500D02*
X88245000Y-58249500D01*
%TO.C,SW6*%
X73045000Y-39199500D02*
X73045000Y-54399500D01*
X73045000Y-54399500D02*
X88245000Y-54399500D01*
X88245000Y-39199500D02*
X73045000Y-39199500D01*
X88245000Y-54399500D02*
X88245000Y-39199500D01*
%TO.C,SW19*%
X168295000Y-96349500D02*
X168295000Y-111549500D01*
X168295000Y-111549500D02*
X183495000Y-111549500D01*
X183495000Y-96349500D02*
X168295000Y-96349500D01*
X183495000Y-111549500D02*
X183495000Y-96349500D01*
%TO.C,SW15*%
X130195000Y-72537000D02*
X130195000Y-87737000D01*
X130195000Y-87737000D02*
X145395000Y-87737000D01*
X145395000Y-72537000D02*
X130195000Y-72537000D01*
X145395000Y-87737000D02*
X145395000Y-72537000D01*
%TO.C,SW20*%
X149245000Y-96349500D02*
X149245000Y-111549500D01*
X149245000Y-111549500D02*
X164445000Y-111549500D01*
X164445000Y-96349500D02*
X149245000Y-96349500D01*
X164445000Y-111549500D02*
X164445000Y-96349500D01*
%TO.C,SW1*%
X168295000Y-39199500D02*
X168295000Y-54399500D01*
X168295000Y-54399500D02*
X183495000Y-54399500D01*
X183495000Y-39199500D02*
X168295000Y-39199500D01*
X183495000Y-54399500D02*
X183495000Y-39199500D01*
%TO.C,SW9*%
X130195000Y-53487000D02*
X130195000Y-68687000D01*
X130195000Y-68687000D02*
X145395000Y-68687000D01*
X145395000Y-53487000D02*
X130195000Y-53487000D01*
X145395000Y-68687000D02*
X145395000Y-53487000D01*
%TD*%
D14*
X129210460Y-26163301D02*
X129261244Y-26167163D01*
X129311290Y-26173522D01*
X129360535Y-26182316D01*
X129408915Y-26193483D01*
X129456369Y-26206958D01*
X129502833Y-26222680D01*
X129548245Y-26240585D01*
X129592541Y-26260611D01*
X129635659Y-26282695D01*
X129677536Y-26306773D01*
X129718109Y-26332784D01*
X129757316Y-26360665D01*
X129795093Y-26390351D01*
X129831377Y-26421782D01*
X129866107Y-26454893D01*
X129899218Y-26489623D01*
X129930648Y-26525907D01*
X129960335Y-26563684D01*
X129988216Y-26602891D01*
X130014227Y-26643464D01*
X130038305Y-26685341D01*
X130060389Y-26728459D01*
X130080415Y-26772755D01*
X130098320Y-26818166D01*
X130114042Y-26864631D01*
X130127517Y-26912084D01*
X130138684Y-26960465D01*
X130147478Y-27009710D01*
X130153837Y-27059756D01*
X130157699Y-27110540D01*
X130159000Y-27162000D01*
X130159000Y-29925000D01*
X130160301Y-29976460D01*
X130164163Y-30027244D01*
X130170522Y-30077290D01*
X130179317Y-30126535D01*
X130190483Y-30174916D01*
X130203958Y-30222369D01*
X130219680Y-30268834D01*
X130237585Y-30314245D01*
X130257611Y-30358541D01*
X130279695Y-30401659D01*
X130303774Y-30443536D01*
X130329784Y-30484110D01*
X130357665Y-30523316D01*
X130387352Y-30561093D01*
X130418782Y-30597377D01*
X130451893Y-30632107D01*
X130486623Y-30665218D01*
X130522907Y-30696649D01*
X130560684Y-30726335D01*
X130599891Y-30754216D01*
X130640464Y-30780227D01*
X130682341Y-30804305D01*
X130725459Y-30826389D01*
X130769755Y-30846415D01*
X130815167Y-30864320D01*
X130861631Y-30880042D01*
X130909085Y-30893517D01*
X130957465Y-30904684D01*
X131006710Y-30913478D01*
X131056756Y-30919837D01*
X131107540Y-30923699D01*
X131159000Y-30925000D01*
X148209003Y-30925000D01*
X148260462Y-30926301D01*
X148311246Y-30930163D01*
X148361291Y-30936522D01*
X148410536Y-30945317D01*
X148458916Y-30956483D01*
X148506369Y-30969958D01*
X148552833Y-30985680D01*
X148598245Y-31003585D01*
X148642541Y-31023611D01*
X148685659Y-31045695D01*
X148727536Y-31069773D01*
X148768109Y-31095784D01*
X148807316Y-31123665D01*
X148845093Y-31153351D01*
X148881377Y-31184782D01*
X148916107Y-31217893D01*
X148949218Y-31252623D01*
X148980649Y-31288907D01*
X149010336Y-31326684D01*
X149038217Y-31365891D01*
X149064228Y-31406464D01*
X149088307Y-31448341D01*
X149110391Y-31491459D01*
X149130417Y-31535755D01*
X149148322Y-31581166D01*
X149164044Y-31627631D01*
X149177520Y-31675084D01*
X149188686Y-31723465D01*
X149197481Y-31772710D01*
X149203840Y-31822756D01*
X149207702Y-31873540D01*
X149209003Y-31925000D01*
X149209003Y-34687000D01*
X149210304Y-34738459D01*
X149214166Y-34789244D01*
X149220526Y-34839290D01*
X149229320Y-34888534D01*
X149240486Y-34936915D01*
X149253962Y-34984369D01*
X149269684Y-35030833D01*
X149287589Y-35076244D01*
X149307615Y-35120541D01*
X149329699Y-35163659D01*
X149353778Y-35205536D01*
X149379790Y-35246109D01*
X149407670Y-35285315D01*
X149437357Y-35323092D01*
X149468788Y-35359377D01*
X149501899Y-35394106D01*
X149536629Y-35427218D01*
X149572914Y-35458648D01*
X149610691Y-35488335D01*
X149649897Y-35516215D01*
X149690470Y-35542226D01*
X149732347Y-35566305D01*
X149775465Y-35588389D01*
X149819761Y-35608415D01*
X149865173Y-35626320D01*
X149911637Y-35642042D01*
X149959090Y-35655517D01*
X150007471Y-35666683D01*
X150056715Y-35675477D01*
X150106760Y-35681837D01*
X150157544Y-35685698D01*
X150209003Y-35687000D01*
X163309002Y-35687000D01*
X168259006Y-35687000D01*
X186309009Y-35687000D01*
X186360468Y-35688301D01*
X186411252Y-35692163D01*
X186461298Y-35698522D01*
X186510542Y-35707316D01*
X186558922Y-35718482D01*
X186606376Y-35731958D01*
X186652839Y-35747679D01*
X186698251Y-35765585D01*
X186742547Y-35785611D01*
X186785665Y-35807694D01*
X186827542Y-35831773D01*
X186868115Y-35857784D01*
X186907322Y-35885664D01*
X186945099Y-35915351D01*
X186981383Y-35946782D01*
X187016113Y-35979893D01*
X187049224Y-36014622D01*
X187080655Y-36050907D01*
X187110342Y-36088684D01*
X187138223Y-36127890D01*
X187164234Y-36168463D01*
X187188313Y-36210341D01*
X187210397Y-36253458D01*
X187230423Y-36297755D01*
X187248329Y-36343166D01*
X187264050Y-36389630D01*
X187277526Y-36437084D01*
X187288692Y-36485465D01*
X187297487Y-36534710D01*
X187303846Y-36584756D01*
X187307708Y-36635540D01*
X187309009Y-36687000D01*
X187309009Y-54736999D01*
X187309009Y-59686998D01*
X187309009Y-73787000D01*
X187309009Y-78737001D01*
X187309009Y-92837003D01*
X187309009Y-97787000D01*
X187309009Y-115837003D01*
X187307708Y-115888463D01*
X187303846Y-115939247D01*
X187297487Y-115989293D01*
X187288692Y-116038538D01*
X187277526Y-116086918D01*
X187264050Y-116134372D01*
X187248329Y-116180836D01*
X187230423Y-116226248D01*
X187210397Y-116270544D01*
X187188313Y-116313662D01*
X187164234Y-116355539D01*
X187138223Y-116396112D01*
X187110342Y-116435319D01*
X187080655Y-116473096D01*
X187049224Y-116509380D01*
X187016113Y-116544110D01*
X186981383Y-116577221D01*
X186945099Y-116608652D01*
X186907322Y-116638338D01*
X186868115Y-116666219D01*
X186827542Y-116692230D01*
X186785665Y-116716308D01*
X186742547Y-116738392D01*
X186698251Y-116758418D01*
X186652839Y-116776323D01*
X186606376Y-116792045D01*
X186558922Y-116805520D01*
X186510542Y-116816687D01*
X186461298Y-116825481D01*
X186411252Y-116831840D01*
X186360468Y-116835702D01*
X186309009Y-116837003D01*
X168259006Y-116837003D01*
X163309009Y-116837003D01*
X145259006Y-116837003D01*
X145207547Y-116835702D01*
X145156763Y-116831840D01*
X145106718Y-116825481D01*
X145057474Y-116816687D01*
X145009093Y-116805520D01*
X144961640Y-116792045D01*
X144915176Y-116776323D01*
X144869764Y-116758418D01*
X144825468Y-116738392D01*
X144782350Y-116716308D01*
X144740473Y-116692230D01*
X144699900Y-116666219D01*
X144660694Y-116638338D01*
X144622917Y-116608652D01*
X144586632Y-116577221D01*
X144551902Y-116544110D01*
X144518791Y-116509380D01*
X144487360Y-116473096D01*
X144457673Y-116435319D01*
X144429793Y-116396112D01*
X144403781Y-116355539D01*
X144379702Y-116313662D01*
X144357618Y-116270544D01*
X144337592Y-116226248D01*
X144319687Y-116180836D01*
X144303965Y-116134372D01*
X144290489Y-116086918D01*
X144279323Y-116038538D01*
X144270529Y-115989293D01*
X144264169Y-115939247D01*
X144260307Y-115888463D01*
X144259006Y-115837003D01*
X144259006Y-113075002D01*
X144257705Y-113023542D01*
X144253843Y-112972758D01*
X144247484Y-112922712D01*
X144238689Y-112873467D01*
X144227523Y-112825087D01*
X144214047Y-112777633D01*
X144198325Y-112731169D01*
X144180420Y-112685757D01*
X144160394Y-112641461D01*
X144138310Y-112598343D01*
X144114231Y-112556466D01*
X144088220Y-112515893D01*
X144060339Y-112476686D01*
X144030652Y-112438909D01*
X143999221Y-112402625D01*
X143966110Y-112367895D01*
X143931380Y-112334784D01*
X143895096Y-112303354D01*
X143857319Y-112273667D01*
X143818112Y-112245786D01*
X143777539Y-112219776D01*
X143735662Y-112195697D01*
X143692544Y-112173613D01*
X143648248Y-112153587D01*
X143602836Y-112135682D01*
X143556372Y-112119960D01*
X143508919Y-112106485D01*
X143460539Y-112095318D01*
X143411294Y-112086524D01*
X143361249Y-112080165D01*
X143310465Y-112076303D01*
X143259006Y-112075002D01*
X126209003Y-112075002D01*
X126157543Y-112073701D01*
X126106759Y-112069839D01*
X126056713Y-112063480D01*
X126007468Y-112054686D01*
X125959088Y-112043519D01*
X125911634Y-112030044D01*
X125865170Y-112014322D01*
X125819758Y-111996417D01*
X125775462Y-111976391D01*
X125732344Y-111954307D01*
X125690467Y-111930229D01*
X125649894Y-111904218D01*
X125610687Y-111876337D01*
X125572910Y-111846650D01*
X125536626Y-111815220D01*
X125501897Y-111782109D01*
X125468785Y-111747379D01*
X125437355Y-111711095D01*
X125407668Y-111673318D01*
X125379787Y-111634111D01*
X125353777Y-111593538D01*
X125329698Y-111551661D01*
X125307614Y-111508543D01*
X125287588Y-111464247D01*
X125269683Y-111418835D01*
X125253961Y-111372371D01*
X125240486Y-111324917D01*
X125229319Y-111276537D01*
X125220525Y-111227292D01*
X125214166Y-111177246D01*
X125210304Y-111126462D01*
X125209003Y-111075002D01*
X125209003Y-108312002D01*
X125207702Y-108260542D01*
X125203840Y-108209757D01*
X125197481Y-108159711D01*
X125188687Y-108110467D01*
X125177520Y-108062086D01*
X125164045Y-108014632D01*
X125148323Y-107968168D01*
X125130418Y-107922757D01*
X125110392Y-107878460D01*
X125088308Y-107835342D01*
X125064230Y-107793465D01*
X125038219Y-107752892D01*
X125010338Y-107713686D01*
X124980651Y-107675909D01*
X124949221Y-107639624D01*
X124916110Y-107604895D01*
X124881380Y-107571784D01*
X124845096Y-107540353D01*
X124807319Y-107510666D01*
X124768112Y-107482786D01*
X124727539Y-107456775D01*
X124685662Y-107432696D01*
X124642544Y-107410613D01*
X124598248Y-107390586D01*
X124552836Y-107372681D01*
X124506372Y-107356960D01*
X124458919Y-107343484D01*
X124410538Y-107332318D01*
X124361293Y-107323524D01*
X124311247Y-107317164D01*
X124260463Y-107313303D01*
X124209003Y-107312001D01*
X112109005Y-107312001D01*
X112057545Y-107313303D01*
X112006761Y-107317164D01*
X111956715Y-107323524D01*
X111907470Y-107332318D01*
X111859089Y-107343484D01*
X111811635Y-107356960D01*
X111765171Y-107372681D01*
X111719760Y-107390586D01*
X111675463Y-107410613D01*
X111632346Y-107432696D01*
X111590468Y-107456775D01*
X111549895Y-107482786D01*
X111510689Y-107510666D01*
X111472912Y-107540353D01*
X111436627Y-107571784D01*
X111401898Y-107604895D01*
X111368787Y-107639624D01*
X111337356Y-107675909D01*
X111307669Y-107713686D01*
X111279789Y-107752892D01*
X111253778Y-107793465D01*
X111229699Y-107835342D01*
X111207616Y-107878460D01*
X111187590Y-107922757D01*
X111169684Y-107968168D01*
X111153963Y-108014632D01*
X111140487Y-108062086D01*
X111129321Y-108110467D01*
X111120527Y-108159711D01*
X111114168Y-108209757D01*
X111110306Y-108260542D01*
X111109005Y-108312002D01*
X111109005Y-111075002D01*
X111107703Y-111126462D01*
X111103842Y-111177246D01*
X111097482Y-111227292D01*
X111088688Y-111276537D01*
X111077522Y-111324917D01*
X111064047Y-111372371D01*
X111048325Y-111418835D01*
X111030420Y-111464247D01*
X111010394Y-111508543D01*
X110988310Y-111551661D01*
X110964231Y-111593538D01*
X110938220Y-111634111D01*
X110910340Y-111673318D01*
X110880653Y-111711095D01*
X110849223Y-111747379D01*
X110816111Y-111782109D01*
X110781382Y-111815220D01*
X110745097Y-111846650D01*
X110707320Y-111876337D01*
X110668114Y-111904218D01*
X110627541Y-111930229D01*
X110585664Y-111954307D01*
X110542546Y-111976391D01*
X110498249Y-111996417D01*
X110452838Y-112014322D01*
X110406374Y-112030044D01*
X110358920Y-112043519D01*
X110310539Y-112054686D01*
X110261295Y-112063480D01*
X110211249Y-112069839D01*
X110160464Y-112073701D01*
X110109005Y-112075002D01*
X106844005Y-112075002D01*
X106782938Y-112076817D01*
X106723004Y-112082170D01*
X106664289Y-112090950D01*
X106606878Y-112103043D01*
X106550859Y-112118340D01*
X106496316Y-112136727D01*
X106443336Y-112158092D01*
X106392004Y-112182325D01*
X106342407Y-112209312D01*
X106294630Y-112238942D01*
X106248760Y-112271104D01*
X106204881Y-112305684D01*
X106163081Y-112342572D01*
X106123445Y-112381656D01*
X106086059Y-112422822D01*
X106051009Y-112465961D01*
X106018380Y-112510959D01*
X105988260Y-112557705D01*
X105960733Y-112606087D01*
X105935886Y-112655993D01*
X105913804Y-112707311D01*
X105894574Y-112759929D01*
X105878280Y-112813735D01*
X105865011Y-112868618D01*
X105854850Y-112924466D01*
X105847885Y-112981166D01*
X105844200Y-113038607D01*
X105843883Y-113096676D01*
X105847019Y-113155263D01*
X105853693Y-113214255D01*
X105863992Y-113273539D01*
X105878002Y-113333005D01*
X111126003Y-132920003D01*
X111138080Y-132970052D01*
X111147509Y-133020112D01*
X111154333Y-133070105D01*
X111158597Y-133119955D01*
X111160345Y-133169584D01*
X111159622Y-133218917D01*
X111156472Y-133267875D01*
X111150941Y-133316382D01*
X111143071Y-133364360D01*
X111132907Y-133411733D01*
X111120495Y-133458425D01*
X111105878Y-133504357D01*
X111089101Y-133549452D01*
X111070208Y-133593635D01*
X111049244Y-133636827D01*
X111026252Y-133678952D01*
X111001279Y-133719934D01*
X110974367Y-133759694D01*
X110945562Y-133798155D01*
X110914908Y-133835242D01*
X110882449Y-133870877D01*
X110848230Y-133904983D01*
X110812296Y-133937482D01*
X110774689Y-133968299D01*
X110735456Y-133997355D01*
X110694640Y-134024574D01*
X110652287Y-134049880D01*
X110608439Y-134073194D01*
X110563143Y-134094440D01*
X110516441Y-134113542D01*
X110468380Y-134130421D01*
X110419002Y-134145002D01*
X93032001Y-138803998D01*
X92973450Y-138821569D01*
X92916913Y-138842267D01*
X92862442Y-138865962D01*
X92810093Y-138892523D01*
X92759918Y-138921821D01*
X92711973Y-138953724D01*
X92666312Y-138988102D01*
X92622988Y-139024824D01*
X92582055Y-139063759D01*
X92543568Y-139104779D01*
X92507581Y-139147750D01*
X92474147Y-139192544D01*
X92443321Y-139239029D01*
X92415157Y-139287075D01*
X92389709Y-139336552D01*
X92367031Y-139387328D01*
X92347176Y-139439274D01*
X92330200Y-139492259D01*
X92316156Y-139546151D01*
X92305098Y-139600822D01*
X92297081Y-139656139D01*
X92292157Y-139711973D01*
X92290383Y-139768193D01*
X92291810Y-139824669D01*
X92296494Y-139881269D01*
X92304489Y-139937864D01*
X92315848Y-139994322D01*
X92330626Y-140050514D01*
X92348877Y-140106308D01*
X92370655Y-140161575D01*
X92396013Y-140216183D01*
X92425007Y-140270002D01*
X93889003Y-142807004D01*
X93913605Y-142852219D01*
X93935652Y-142898129D01*
X93955167Y-142944649D01*
X93972173Y-142991692D01*
X93986693Y-143039172D01*
X93998749Y-143087005D01*
X94008365Y-143135103D01*
X94015565Y-143183382D01*
X94020370Y-143231756D01*
X94022804Y-143280137D01*
X94022890Y-143328442D01*
X94020650Y-143376584D01*
X94016109Y-143424476D01*
X94009288Y-143472034D01*
X94000212Y-143519172D01*
X93988902Y-143565803D01*
X93975382Y-143611842D01*
X93959674Y-143657203D01*
X93941803Y-143701800D01*
X93921790Y-143745547D01*
X93899660Y-143788359D01*
X93875434Y-143830150D01*
X93849136Y-143870833D01*
X93820788Y-143910323D01*
X93790415Y-143948535D01*
X93758038Y-143985382D01*
X93723681Y-144020779D01*
X93687367Y-144054639D01*
X93649119Y-144086878D01*
X93608959Y-144117408D01*
X93566911Y-144146145D01*
X93522998Y-144173002D01*
X73604999Y-155673002D01*
X73574001Y-155619001D01*
X58873996Y-167954007D01*
X58833743Y-167986105D01*
X58792360Y-168015806D01*
X58749936Y-168043119D01*
X58706560Y-168068051D01*
X58662321Y-168090610D01*
X58617307Y-168110804D01*
X58571606Y-168128641D01*
X58525307Y-168144127D01*
X58478499Y-168157272D01*
X58431270Y-168168083D01*
X58383709Y-168176567D01*
X58335904Y-168182732D01*
X58287944Y-168186586D01*
X58239917Y-168188137D01*
X58191912Y-168187392D01*
X58144018Y-168184360D01*
X58096323Y-168179047D01*
X58048915Y-168171462D01*
X58001884Y-168161613D01*
X57955317Y-168149506D01*
X57909304Y-168135150D01*
X57863932Y-168118553D01*
X57819291Y-168099723D01*
X57775469Y-168078666D01*
X57732554Y-168055391D01*
X57690635Y-168029905D01*
X57649801Y-168002217D01*
X57610140Y-167972334D01*
X57571741Y-167940264D01*
X57534692Y-167906014D01*
X57499082Y-167869592D01*
X57465000Y-167831006D01*
X37200992Y-143680997D01*
X37168896Y-143640744D01*
X37139196Y-143599362D01*
X37111884Y-143556939D01*
X37086953Y-143513563D01*
X37064395Y-143469325D01*
X37044201Y-143424310D01*
X37026365Y-143378610D01*
X37010879Y-143332311D01*
X36997734Y-143285503D01*
X36986924Y-143238274D01*
X36978440Y-143190713D01*
X36972274Y-143142908D01*
X36968420Y-143094948D01*
X36966869Y-143046921D01*
X36967613Y-142998916D01*
X36970646Y-142951021D01*
X36975958Y-142903326D01*
X36983542Y-142855918D01*
X36993392Y-142808887D01*
X37005498Y-142762320D01*
X37019853Y-142716306D01*
X37036450Y-142670934D01*
X37055280Y-142626293D01*
X37076336Y-142582471D01*
X37099611Y-142539556D01*
X37125095Y-142497637D01*
X37152783Y-142456803D01*
X37182666Y-142417142D01*
X37214736Y-142378742D01*
X37248986Y-142341693D01*
X37285408Y-142306083D01*
X37323993Y-142272001D01*
X54177005Y-128131002D01*
X54217258Y-128098904D01*
X54258639Y-128069203D01*
X54301062Y-128041890D01*
X54344436Y-128016958D01*
X54388675Y-127994399D01*
X54433688Y-127974204D01*
X54479388Y-127956368D01*
X54525686Y-127940881D01*
X54572494Y-127927736D01*
X54619722Y-127916925D01*
X54667283Y-127908441D01*
X54715087Y-127902275D01*
X54763047Y-127898421D01*
X54811074Y-127896870D01*
X54859078Y-127897614D01*
X54906973Y-127900646D01*
X54954668Y-127905959D01*
X55002075Y-127913544D01*
X55049107Y-127923393D01*
X55095674Y-127935500D01*
X55141688Y-127949855D01*
X55187060Y-127966453D01*
X55231702Y-127985283D01*
X55275525Y-128006340D01*
X55318440Y-128029615D01*
X55360359Y-128055101D01*
X55401194Y-128082789D01*
X55440856Y-128112673D01*
X55479257Y-128144744D01*
X55516307Y-128178994D01*
X55551918Y-128215416D01*
X55586002Y-128254003D01*
X57341999Y-127505002D01*
X57317397Y-127459788D01*
X57295351Y-127413877D01*
X57275836Y-127367358D01*
X57258831Y-127320315D01*
X57244312Y-127272834D01*
X57232255Y-127225002D01*
X57222639Y-127176903D01*
X57215439Y-127128624D01*
X57210634Y-127080251D01*
X57208200Y-127031869D01*
X57208114Y-126983564D01*
X57210353Y-126935423D01*
X57214894Y-126887530D01*
X57221714Y-126839972D01*
X57230790Y-126792835D01*
X57242099Y-126746204D01*
X57255619Y-126700165D01*
X57271326Y-126654804D01*
X57289196Y-126610207D01*
X57309208Y-126566459D01*
X57331339Y-126523648D01*
X57355564Y-126481857D01*
X57381862Y-126441174D01*
X57410208Y-126401683D01*
X57440581Y-126363471D01*
X57472958Y-126326624D01*
X57507314Y-126291228D01*
X57543628Y-126257367D01*
X57581876Y-126225129D01*
X57622035Y-126194599D01*
X57664083Y-126165862D01*
X57707996Y-126139005D01*
X70588001Y-118703008D01*
X70667418Y-118652646D01*
X70739626Y-118597748D01*
X70804732Y-118538716D01*
X70862844Y-118475953D01*
X70914069Y-118409860D01*
X70958516Y-118340841D01*
X70996292Y-118269298D01*
X71027505Y-118195632D01*
X71052262Y-118120247D01*
X71070673Y-118043544D01*
X71082844Y-117965925D01*
X71088883Y-117887794D01*
X71088898Y-117809552D01*
X71082997Y-117731602D01*
X71071288Y-117654346D01*
X71053877Y-117578186D01*
X71030875Y-117503525D01*
X71002387Y-117430765D01*
X70968522Y-117360308D01*
X70929388Y-117292556D01*
X70885091Y-117227913D01*
X70835742Y-117166779D01*
X70781446Y-117109558D01*
X70722312Y-117056652D01*
X70658448Y-117008463D01*
X70589961Y-116965393D01*
X70516959Y-116927845D01*
X70439550Y-116896221D01*
X70357842Y-116870923D01*
X70271943Y-116852354D01*
X70181960Y-116840916D01*
X70088001Y-116837011D01*
X69058994Y-116837011D01*
X69007535Y-116835710D01*
X68956751Y-116831848D01*
X68906706Y-116825488D01*
X68857461Y-116816694D01*
X68809081Y-116805528D01*
X68761628Y-116792053D01*
X68715164Y-116776331D01*
X68669752Y-116758426D01*
X68625456Y-116738400D01*
X68582338Y-116716316D01*
X68540461Y-116692237D01*
X68499888Y-116666226D01*
X68460681Y-116638346D01*
X68422904Y-116608659D01*
X68386620Y-116577229D01*
X68351890Y-116544117D01*
X68318779Y-116509388D01*
X68287348Y-116473103D01*
X68257661Y-116435326D01*
X68229780Y-116396120D01*
X68203769Y-116355547D01*
X68179690Y-116313670D01*
X68157606Y-116270552D01*
X68137580Y-116226256D01*
X68119675Y-116180844D01*
X68103953Y-116134380D01*
X68090477Y-116086926D01*
X68079311Y-116038545D01*
X68070516Y-115989301D01*
X68064157Y-115939255D01*
X68060295Y-115888470D01*
X68058994Y-115837011D01*
X68058994Y-97787015D01*
X68058994Y-92837018D01*
X68059467Y-86162000D01*
X43311710Y-86162000D01*
X43311710Y-35687001D01*
X69058994Y-35687001D01*
X86108997Y-35687001D01*
X86160457Y-35685700D01*
X86211241Y-35681839D01*
X86261287Y-35675479D01*
X86310532Y-35666685D01*
X86358912Y-35655519D01*
X86406366Y-35642043D01*
X86452830Y-35626322D01*
X86498242Y-35608416D01*
X86542538Y-35588391D01*
X86585656Y-35566307D01*
X86627533Y-35542228D01*
X86668106Y-35516217D01*
X86707313Y-35488337D01*
X86745090Y-35458650D01*
X86781374Y-35427219D01*
X86816104Y-35394108D01*
X86849215Y-35359379D01*
X86880645Y-35323094D01*
X86910332Y-35285317D01*
X86938213Y-35246111D01*
X86964224Y-35205538D01*
X86988302Y-35163661D01*
X87010386Y-35120543D01*
X87030412Y-35076246D01*
X87048317Y-35030835D01*
X87064039Y-34984371D01*
X87077514Y-34936917D01*
X87088681Y-34888536D01*
X87097475Y-34839292D01*
X87103834Y-34789246D01*
X87107696Y-34738461D01*
X87108997Y-34687001D01*
X87108997Y-31925000D01*
X87110298Y-31873540D01*
X87114160Y-31822756D01*
X87120519Y-31772710D01*
X87129313Y-31723465D01*
X87140480Y-31675084D01*
X87153955Y-31627631D01*
X87169677Y-31581166D01*
X87187582Y-31535755D01*
X87207608Y-31491459D01*
X87229692Y-31448341D01*
X87253770Y-31406464D01*
X87279781Y-31365891D01*
X87307662Y-31326684D01*
X87337349Y-31288907D01*
X87368779Y-31252623D01*
X87401890Y-31217893D01*
X87436620Y-31184782D01*
X87472904Y-31153351D01*
X87510681Y-31123665D01*
X87549888Y-31095784D01*
X87590461Y-31069773D01*
X87632338Y-31045695D01*
X87675456Y-31023611D01*
X87719752Y-31003585D01*
X87765164Y-30985680D01*
X87811628Y-30969958D01*
X87859082Y-30956483D01*
X87907462Y-30945317D01*
X87956707Y-30936522D01*
X88006753Y-30930163D01*
X88057537Y-30926301D01*
X88108997Y-30925000D01*
X105159000Y-30925000D01*
X105210460Y-30923699D01*
X105261244Y-30919837D01*
X105311290Y-30913478D01*
X105360535Y-30904684D01*
X105408915Y-30893517D01*
X105456369Y-30880042D01*
X105502833Y-30864320D01*
X105548245Y-30846415D01*
X105592541Y-30826389D01*
X105635659Y-30804305D01*
X105677536Y-30780227D01*
X105718109Y-30754216D01*
X105757316Y-30726335D01*
X105795093Y-30696649D01*
X105831377Y-30665218D01*
X105866107Y-30632107D01*
X105899218Y-30597377D01*
X105930649Y-30561093D01*
X105960335Y-30523316D01*
X105988216Y-30484110D01*
X106014227Y-30443536D01*
X106038305Y-30401659D01*
X106060389Y-30358541D01*
X106080415Y-30314245D01*
X106098320Y-30268834D01*
X106114042Y-30222369D01*
X106127517Y-30174916D01*
X106138684Y-30126535D01*
X106147478Y-30077290D01*
X106153837Y-30027244D01*
X106157699Y-29976460D01*
X106159000Y-29925000D01*
X106159000Y-27162000D01*
X106160301Y-27110540D01*
X106164163Y-27059756D01*
X106170522Y-27009710D01*
X106179317Y-26960465D01*
X106190483Y-26912084D01*
X106203958Y-26864631D01*
X106219680Y-26818166D01*
X106237585Y-26772755D01*
X106257611Y-26728459D01*
X106279695Y-26685341D01*
X106303774Y-26643464D01*
X106329785Y-26602891D01*
X106357665Y-26563684D01*
X106387352Y-26525907D01*
X106418782Y-26489623D01*
X106451893Y-26454893D01*
X106486623Y-26421782D01*
X106522907Y-26390351D01*
X106560684Y-26360665D01*
X106599891Y-26332784D01*
X106640464Y-26306773D01*
X106682341Y-26282695D01*
X106725459Y-26260611D01*
X106769755Y-26240585D01*
X106815167Y-26222680D01*
X106861631Y-26206958D01*
X106909085Y-26193483D01*
X106957465Y-26182316D01*
X107006710Y-26173522D01*
X107056756Y-26167163D01*
X107107540Y-26163301D01*
X107159000Y-26162000D01*
X129159000Y-26162000D01*
X129210460Y-26163301D01*
M02*
