%TF.GenerationSoftware,KiCad,Pcbnew,10.0.1*%
%TF.CreationDate,2026-06-06T19:10:49+12:00*%
%TF.ProjectId,keyboard,6b657962-6f61-4726-942e-6b696361645f,rev?*%
%TF.SameCoordinates,Original*%
%TF.FileFunction,Legend,Bot*%
%TF.FilePolarity,Positive*%
%FSLAX46Y46*%
G04 Gerber Fmt 4.6, Leading zero omitted, Abs format (unit mm)*
G04 Created by KiCad (PCBNEW 10.0.1) date 2026-06-06 19:10:49*
%MOMM*%
%LPD*%
G01*
G04 APERTURE LIST*
%ADD10C,0.300000*%
%ADD11C,0.200000*%
%ADD12C,0.150000*%
%ADD13C,0.120000*%
%TA.AperFunction,Profile*%
%ADD14C,0.944881*%
%TD*%
G04 APERTURE END LIST*
D10*
X67695489Y-75800828D02*
X67695489Y-74800828D01*
X67695489Y-75086542D02*
X67624060Y-74943685D01*
X67624060Y-74943685D02*
X67552632Y-74872257D01*
X67552632Y-74872257D02*
X67409774Y-74800828D01*
X67409774Y-74800828D02*
X67266917Y-74800828D01*
X66981203Y-74800828D02*
X66409775Y-74800828D01*
X66766918Y-74300828D02*
X66766918Y-75586542D01*
X66766918Y-75586542D02*
X66695489Y-75729400D01*
X66695489Y-75729400D02*
X66552632Y-75800828D01*
X66552632Y-75800828D02*
X66409775Y-75800828D01*
X66052632Y-74800828D02*
X65695489Y-75800828D01*
X65338346Y-74800828D02*
X65695489Y-75800828D01*
X65695489Y-75800828D02*
X65838346Y-76157971D01*
X65838346Y-76157971D02*
X65909775Y-76229400D01*
X65909775Y-76229400D02*
X66052632Y-76300828D01*
X64124061Y-74800828D02*
X64124061Y-75800828D01*
X64766918Y-74800828D02*
X64766918Y-75586542D01*
X64766918Y-75586542D02*
X64695489Y-75729400D01*
X64695489Y-75729400D02*
X64552632Y-75800828D01*
X64552632Y-75800828D02*
X64338346Y-75800828D01*
X64338346Y-75800828D02*
X64195489Y-75729400D01*
X64195489Y-75729400D02*
X64124061Y-75657971D01*
X62266918Y-75800828D02*
X62266918Y-74800828D01*
X62266918Y-75086542D02*
X62195489Y-74943685D01*
X62195489Y-74943685D02*
X62124061Y-74872257D01*
X62124061Y-74872257D02*
X61981203Y-74800828D01*
X61981203Y-74800828D02*
X61838346Y-74800828D01*
X61338347Y-75800828D02*
X61338347Y-74800828D01*
X61338347Y-74300828D02*
X61409775Y-74372257D01*
X61409775Y-74372257D02*
X61338347Y-74443685D01*
X61338347Y-74443685D02*
X61266918Y-74372257D01*
X61266918Y-74372257D02*
X61338347Y-74300828D01*
X61338347Y-74300828D02*
X61338347Y-74443685D01*
X59981204Y-74800828D02*
X59981204Y-76015114D01*
X59981204Y-76015114D02*
X60052632Y-76157971D01*
X60052632Y-76157971D02*
X60124061Y-76229400D01*
X60124061Y-76229400D02*
X60266918Y-76300828D01*
X60266918Y-76300828D02*
X60481204Y-76300828D01*
X60481204Y-76300828D02*
X60624061Y-76229400D01*
X59981204Y-75729400D02*
X60124061Y-75800828D01*
X60124061Y-75800828D02*
X60409775Y-75800828D01*
X60409775Y-75800828D02*
X60552632Y-75729400D01*
X60552632Y-75729400D02*
X60624061Y-75657971D01*
X60624061Y-75657971D02*
X60695489Y-75515114D01*
X60695489Y-75515114D02*
X60695489Y-75086542D01*
X60695489Y-75086542D02*
X60624061Y-74943685D01*
X60624061Y-74943685D02*
X60552632Y-74872257D01*
X60552632Y-74872257D02*
X60409775Y-74800828D01*
X60409775Y-74800828D02*
X60124061Y-74800828D01*
X60124061Y-74800828D02*
X59981204Y-74872257D01*
X59266918Y-75800828D02*
X59266918Y-74300828D01*
X58624061Y-75800828D02*
X58624061Y-75015114D01*
X58624061Y-75015114D02*
X58695489Y-74872257D01*
X58695489Y-74872257D02*
X58838346Y-74800828D01*
X58838346Y-74800828D02*
X59052632Y-74800828D01*
X59052632Y-74800828D02*
X59195489Y-74872257D01*
X59195489Y-74872257D02*
X59266918Y-74943685D01*
X58124060Y-74800828D02*
X57552632Y-74800828D01*
X57909775Y-74300828D02*
X57909775Y-75586542D01*
X57909775Y-75586542D02*
X57838346Y-75729400D01*
X57838346Y-75729400D02*
X57695489Y-75800828D01*
X57695489Y-75800828D02*
X57552632Y-75800828D01*
X55981203Y-75729400D02*
X55838346Y-75800828D01*
X55838346Y-75800828D02*
X55552632Y-75800828D01*
X55552632Y-75800828D02*
X55409775Y-75729400D01*
X55409775Y-75729400D02*
X55338346Y-75586542D01*
X55338346Y-75586542D02*
X55338346Y-75515114D01*
X55338346Y-75515114D02*
X55409775Y-75372257D01*
X55409775Y-75372257D02*
X55552632Y-75300828D01*
X55552632Y-75300828D02*
X55766918Y-75300828D01*
X55766918Y-75300828D02*
X55909775Y-75229400D01*
X55909775Y-75229400D02*
X55981203Y-75086542D01*
X55981203Y-75086542D02*
X55981203Y-75015114D01*
X55981203Y-75015114D02*
X55909775Y-74872257D01*
X55909775Y-74872257D02*
X55766918Y-74800828D01*
X55766918Y-74800828D02*
X55552632Y-74800828D01*
X55552632Y-74800828D02*
X55409775Y-74872257D01*
X54695489Y-75800828D02*
X54695489Y-74800828D01*
X54695489Y-74300828D02*
X54766917Y-74372257D01*
X54766917Y-74372257D02*
X54695489Y-74443685D01*
X54695489Y-74443685D02*
X54624060Y-74372257D01*
X54624060Y-74372257D02*
X54695489Y-74300828D01*
X54695489Y-74300828D02*
X54695489Y-74443685D01*
X53338346Y-75800828D02*
X53338346Y-74300828D01*
X53338346Y-75729400D02*
X53481203Y-75800828D01*
X53481203Y-75800828D02*
X53766917Y-75800828D01*
X53766917Y-75800828D02*
X53909774Y-75729400D01*
X53909774Y-75729400D02*
X53981203Y-75657971D01*
X53981203Y-75657971D02*
X54052631Y-75515114D01*
X54052631Y-75515114D02*
X54052631Y-75086542D01*
X54052631Y-75086542D02*
X53981203Y-74943685D01*
X53981203Y-74943685D02*
X53909774Y-74872257D01*
X53909774Y-74872257D02*
X53766917Y-74800828D01*
X53766917Y-74800828D02*
X53481203Y-74800828D01*
X53481203Y-74800828D02*
X53338346Y-74872257D01*
X52052631Y-75729400D02*
X52195488Y-75800828D01*
X52195488Y-75800828D02*
X52481203Y-75800828D01*
X52481203Y-75800828D02*
X52624060Y-75729400D01*
X52624060Y-75729400D02*
X52695488Y-75586542D01*
X52695488Y-75586542D02*
X52695488Y-75015114D01*
X52695488Y-75015114D02*
X52624060Y-74872257D01*
X52624060Y-74872257D02*
X52481203Y-74800828D01*
X52481203Y-74800828D02*
X52195488Y-74800828D01*
X52195488Y-74800828D02*
X52052631Y-74872257D01*
X52052631Y-74872257D02*
X51981203Y-75015114D01*
X51981203Y-75015114D02*
X51981203Y-75157971D01*
X51981203Y-75157971D02*
X52695488Y-75300828D01*
D11*
X47112517Y-61793219D02*
X47683945Y-61793219D01*
X47398231Y-61793219D02*
X47398231Y-60793219D01*
X47398231Y-60793219D02*
X47493469Y-60936076D01*
X47493469Y-60936076D02*
X47588707Y-61031314D01*
X47588707Y-61031314D02*
X47683945Y-61078933D01*
X46255374Y-61126552D02*
X46255374Y-61793219D01*
X46493469Y-60745600D02*
X46731564Y-61459885D01*
X46731564Y-61459885D02*
X46112517Y-61459885D01*
X50315016Y-61835520D02*
X50886444Y-61835520D01*
X50600730Y-61835520D02*
X50600730Y-60835520D01*
X50600730Y-60835520D02*
X50695968Y-60978377D01*
X50695968Y-60978377D02*
X50791206Y-61073615D01*
X50791206Y-61073615D02*
X50886444Y-61121234D01*
X49981682Y-60835520D02*
X49362635Y-60835520D01*
X49362635Y-60835520D02*
X49695968Y-61216472D01*
X49695968Y-61216472D02*
X49553111Y-61216472D01*
X49553111Y-61216472D02*
X49457873Y-61264091D01*
X49457873Y-61264091D02*
X49410254Y-61311710D01*
X49410254Y-61311710D02*
X49362635Y-61406948D01*
X49362635Y-61406948D02*
X49362635Y-61645043D01*
X49362635Y-61645043D02*
X49410254Y-61740281D01*
X49410254Y-61740281D02*
X49457873Y-61787901D01*
X49457873Y-61787901D02*
X49553111Y-61835520D01*
X49553111Y-61835520D02*
X49838825Y-61835520D01*
X49838825Y-61835520D02*
X49934063Y-61787901D01*
X49934063Y-61787901D02*
X49981682Y-61740281D01*
X50096945Y-47934457D02*
X50049326Y-47886838D01*
X50049326Y-47886838D02*
X49954088Y-47839219D01*
X49954088Y-47839219D02*
X49715993Y-47839219D01*
X49715993Y-47839219D02*
X49620755Y-47886838D01*
X49620755Y-47886838D02*
X49573136Y-47934457D01*
X49573136Y-47934457D02*
X49525517Y-48029695D01*
X49525517Y-48029695D02*
X49525517Y-48124933D01*
X49525517Y-48124933D02*
X49573136Y-48267790D01*
X49573136Y-48267790D02*
X50144564Y-48839219D01*
X50144564Y-48839219D02*
X49525517Y-48839219D01*
X48954088Y-48267790D02*
X49049326Y-48220171D01*
X49049326Y-48220171D02*
X49096945Y-48172552D01*
X49096945Y-48172552D02*
X49144564Y-48077314D01*
X49144564Y-48077314D02*
X49144564Y-48029695D01*
X49144564Y-48029695D02*
X49096945Y-47934457D01*
X49096945Y-47934457D02*
X49049326Y-47886838D01*
X49049326Y-47886838D02*
X48954088Y-47839219D01*
X48954088Y-47839219D02*
X48763612Y-47839219D01*
X48763612Y-47839219D02*
X48668374Y-47886838D01*
X48668374Y-47886838D02*
X48620755Y-47934457D01*
X48620755Y-47934457D02*
X48573136Y-48029695D01*
X48573136Y-48029695D02*
X48573136Y-48077314D01*
X48573136Y-48077314D02*
X48620755Y-48172552D01*
X48620755Y-48172552D02*
X48668374Y-48220171D01*
X48668374Y-48220171D02*
X48763612Y-48267790D01*
X48763612Y-48267790D02*
X48954088Y-48267790D01*
X48954088Y-48267790D02*
X49049326Y-48315409D01*
X49049326Y-48315409D02*
X49096945Y-48363028D01*
X49096945Y-48363028D02*
X49144564Y-48458266D01*
X49144564Y-48458266D02*
X49144564Y-48648742D01*
X49144564Y-48648742D02*
X49096945Y-48743980D01*
X49096945Y-48743980D02*
X49049326Y-48791600D01*
X49049326Y-48791600D02*
X48954088Y-48839219D01*
X48954088Y-48839219D02*
X48763612Y-48839219D01*
X48763612Y-48839219D02*
X48668374Y-48791600D01*
X48668374Y-48791600D02*
X48620755Y-48743980D01*
X48620755Y-48743980D02*
X48573136Y-48648742D01*
X48573136Y-48648742D02*
X48573136Y-48458266D01*
X48573136Y-48458266D02*
X48620755Y-48363028D01*
X48620755Y-48363028D02*
X48668374Y-48315409D01*
X48668374Y-48315409D02*
X48763612Y-48267790D01*
X50096945Y-53014457D02*
X50049326Y-52966838D01*
X50049326Y-52966838D02*
X49954088Y-52919219D01*
X49954088Y-52919219D02*
X49715993Y-52919219D01*
X49715993Y-52919219D02*
X49620755Y-52966838D01*
X49620755Y-52966838D02*
X49573136Y-53014457D01*
X49573136Y-53014457D02*
X49525517Y-53109695D01*
X49525517Y-53109695D02*
X49525517Y-53204933D01*
X49525517Y-53204933D02*
X49573136Y-53347790D01*
X49573136Y-53347790D02*
X50144564Y-53919219D01*
X50144564Y-53919219D02*
X49525517Y-53919219D01*
X48668374Y-52919219D02*
X48858850Y-52919219D01*
X48858850Y-52919219D02*
X48954088Y-52966838D01*
X48954088Y-52966838D02*
X49001707Y-53014457D01*
X49001707Y-53014457D02*
X49096945Y-53157314D01*
X49096945Y-53157314D02*
X49144564Y-53347790D01*
X49144564Y-53347790D02*
X49144564Y-53728742D01*
X49144564Y-53728742D02*
X49096945Y-53823980D01*
X49096945Y-53823980D02*
X49049326Y-53871600D01*
X49049326Y-53871600D02*
X48954088Y-53919219D01*
X48954088Y-53919219D02*
X48763612Y-53919219D01*
X48763612Y-53919219D02*
X48668374Y-53871600D01*
X48668374Y-53871600D02*
X48620755Y-53823980D01*
X48620755Y-53823980D02*
X48573136Y-53728742D01*
X48573136Y-53728742D02*
X48573136Y-53490647D01*
X48573136Y-53490647D02*
X48620755Y-53395409D01*
X48620755Y-53395409D02*
X48668374Y-53347790D01*
X48668374Y-53347790D02*
X48763612Y-53300171D01*
X48763612Y-53300171D02*
X48954088Y-53300171D01*
X48954088Y-53300171D02*
X49049326Y-53347790D01*
X49049326Y-53347790D02*
X49096945Y-53395409D01*
X49096945Y-53395409D02*
X49144564Y-53490647D01*
X49525517Y-56459219D02*
X50096945Y-56459219D01*
X49811231Y-56459219D02*
X49811231Y-55459219D01*
X49811231Y-55459219D02*
X49906469Y-55602076D01*
X49906469Y-55602076D02*
X50001707Y-55697314D01*
X50001707Y-55697314D02*
X50096945Y-55744933D01*
X48620755Y-55459219D02*
X49096945Y-55459219D01*
X49096945Y-55459219D02*
X49144564Y-55935409D01*
X49144564Y-55935409D02*
X49096945Y-55887790D01*
X49096945Y-55887790D02*
X49001707Y-55840171D01*
X49001707Y-55840171D02*
X48763612Y-55840171D01*
X48763612Y-55840171D02*
X48668374Y-55887790D01*
X48668374Y-55887790D02*
X48620755Y-55935409D01*
X48620755Y-55935409D02*
X48573136Y-56030647D01*
X48573136Y-56030647D02*
X48573136Y-56268742D01*
X48573136Y-56268742D02*
X48620755Y-56363980D01*
X48620755Y-56363980D02*
X48668374Y-56411600D01*
X48668374Y-56411600D02*
X48763612Y-56459219D01*
X48763612Y-56459219D02*
X49001707Y-56459219D01*
X49001707Y-56459219D02*
X49096945Y-56411600D01*
X49096945Y-56411600D02*
X49144564Y-56363980D01*
X50223945Y-45394457D02*
X50176326Y-45346838D01*
X50176326Y-45346838D02*
X50081088Y-45299219D01*
X50081088Y-45299219D02*
X49842993Y-45299219D01*
X49842993Y-45299219D02*
X49747755Y-45346838D01*
X49747755Y-45346838D02*
X49700136Y-45394457D01*
X49700136Y-45394457D02*
X49652517Y-45489695D01*
X49652517Y-45489695D02*
X49652517Y-45584933D01*
X49652517Y-45584933D02*
X49700136Y-45727790D01*
X49700136Y-45727790D02*
X50271564Y-46299219D01*
X50271564Y-46299219D02*
X49652517Y-46299219D01*
X49176326Y-46299219D02*
X48985850Y-46299219D01*
X48985850Y-46299219D02*
X48890612Y-46251600D01*
X48890612Y-46251600D02*
X48842993Y-46203980D01*
X48842993Y-46203980D02*
X48747755Y-46061123D01*
X48747755Y-46061123D02*
X48700136Y-45870647D01*
X48700136Y-45870647D02*
X48700136Y-45489695D01*
X48700136Y-45489695D02*
X48747755Y-45394457D01*
X48747755Y-45394457D02*
X48795374Y-45346838D01*
X48795374Y-45346838D02*
X48890612Y-45299219D01*
X48890612Y-45299219D02*
X49081088Y-45299219D01*
X49081088Y-45299219D02*
X49176326Y-45346838D01*
X49176326Y-45346838D02*
X49223945Y-45394457D01*
X49223945Y-45394457D02*
X49271564Y-45489695D01*
X49271564Y-45489695D02*
X49271564Y-45727790D01*
X49271564Y-45727790D02*
X49223945Y-45823028D01*
X49223945Y-45823028D02*
X49176326Y-45870647D01*
X49176326Y-45870647D02*
X49081088Y-45918266D01*
X49081088Y-45918266D02*
X48890612Y-45918266D01*
X48890612Y-45918266D02*
X48795374Y-45870647D01*
X48795374Y-45870647D02*
X48747755Y-45823028D01*
X48747755Y-45823028D02*
X48700136Y-45727790D01*
X50477945Y-50601457D02*
X50430326Y-50553838D01*
X50430326Y-50553838D02*
X50335088Y-50506219D01*
X50335088Y-50506219D02*
X50096993Y-50506219D01*
X50096993Y-50506219D02*
X50001755Y-50553838D01*
X50001755Y-50553838D02*
X49954136Y-50601457D01*
X49954136Y-50601457D02*
X49906517Y-50696695D01*
X49906517Y-50696695D02*
X49906517Y-50791933D01*
X49906517Y-50791933D02*
X49954136Y-50934790D01*
X49954136Y-50934790D02*
X50525564Y-51506219D01*
X50525564Y-51506219D02*
X49906517Y-51506219D01*
X49573183Y-50506219D02*
X48906517Y-50506219D01*
X48906517Y-50506219D02*
X49335088Y-51506219D01*
X50081136Y-37806219D02*
X50557326Y-37806219D01*
X50557326Y-37806219D02*
X50604945Y-38282409D01*
X50604945Y-38282409D02*
X50557326Y-38234790D01*
X50557326Y-38234790D02*
X50462088Y-38187171D01*
X50462088Y-38187171D02*
X50223993Y-38187171D01*
X50223993Y-38187171D02*
X50128755Y-38234790D01*
X50128755Y-38234790D02*
X50081136Y-38282409D01*
X50081136Y-38282409D02*
X50033517Y-38377647D01*
X50033517Y-38377647D02*
X50033517Y-38615742D01*
X50033517Y-38615742D02*
X50081136Y-38710980D01*
X50081136Y-38710980D02*
X50128755Y-38758600D01*
X50128755Y-38758600D02*
X50223993Y-38806219D01*
X50223993Y-38806219D02*
X50462088Y-38806219D01*
X50462088Y-38806219D02*
X50557326Y-38758600D01*
X50557326Y-38758600D02*
X50604945Y-38710980D01*
X49747802Y-37806219D02*
X49414469Y-38806219D01*
X49414469Y-38806219D02*
X49081136Y-37806219D01*
X51287564Y-42886219D02*
X50668517Y-42886219D01*
X50668517Y-42886219D02*
X51001850Y-43267171D01*
X51001850Y-43267171D02*
X50858993Y-43267171D01*
X50858993Y-43267171D02*
X50763755Y-43314790D01*
X50763755Y-43314790D02*
X50716136Y-43362409D01*
X50716136Y-43362409D02*
X50668517Y-43457647D01*
X50668517Y-43457647D02*
X50668517Y-43695742D01*
X50668517Y-43695742D02*
X50716136Y-43790980D01*
X50716136Y-43790980D02*
X50763755Y-43838600D01*
X50763755Y-43838600D02*
X50858993Y-43886219D01*
X50858993Y-43886219D02*
X51144707Y-43886219D01*
X51144707Y-43886219D02*
X51239945Y-43838600D01*
X51239945Y-43838600D02*
X51287564Y-43790980D01*
X50382802Y-42886219D02*
X50049469Y-43886219D01*
X50049469Y-43886219D02*
X49716136Y-42886219D01*
X49478040Y-42886219D02*
X48858993Y-42886219D01*
X48858993Y-42886219D02*
X49192326Y-43267171D01*
X49192326Y-43267171D02*
X49049469Y-43267171D01*
X49049469Y-43267171D02*
X48954231Y-43314790D01*
X48954231Y-43314790D02*
X48906612Y-43362409D01*
X48906612Y-43362409D02*
X48858993Y-43457647D01*
X48858993Y-43457647D02*
X48858993Y-43695742D01*
X48858993Y-43695742D02*
X48906612Y-43790980D01*
X48906612Y-43790980D02*
X48954231Y-43838600D01*
X48954231Y-43838600D02*
X49049469Y-43886219D01*
X49049469Y-43886219D02*
X49335183Y-43886219D01*
X49335183Y-43886219D02*
X49430421Y-43838600D01*
X49430421Y-43838600D02*
X49478040Y-43790980D01*
X50922517Y-40393838D02*
X51017755Y-40346219D01*
X51017755Y-40346219D02*
X51160612Y-40346219D01*
X51160612Y-40346219D02*
X51303469Y-40393838D01*
X51303469Y-40393838D02*
X51398707Y-40489076D01*
X51398707Y-40489076D02*
X51446326Y-40584314D01*
X51446326Y-40584314D02*
X51493945Y-40774790D01*
X51493945Y-40774790D02*
X51493945Y-40917647D01*
X51493945Y-40917647D02*
X51446326Y-41108123D01*
X51446326Y-41108123D02*
X51398707Y-41203361D01*
X51398707Y-41203361D02*
X51303469Y-41298600D01*
X51303469Y-41298600D02*
X51160612Y-41346219D01*
X51160612Y-41346219D02*
X51065374Y-41346219D01*
X51065374Y-41346219D02*
X50922517Y-41298600D01*
X50922517Y-41298600D02*
X50874898Y-41250980D01*
X50874898Y-41250980D02*
X50874898Y-40917647D01*
X50874898Y-40917647D02*
X51065374Y-40917647D01*
X50446326Y-41346219D02*
X50446326Y-40346219D01*
X50446326Y-40346219D02*
X49874898Y-41346219D01*
X49874898Y-41346219D02*
X49874898Y-40346219D01*
X49398707Y-41346219D02*
X49398707Y-40346219D01*
X49398707Y-40346219D02*
X49160612Y-40346219D01*
X49160612Y-40346219D02*
X49017755Y-40393838D01*
X49017755Y-40393838D02*
X48922517Y-40489076D01*
X48922517Y-40489076D02*
X48874898Y-40584314D01*
X48874898Y-40584314D02*
X48827279Y-40774790D01*
X48827279Y-40774790D02*
X48827279Y-40917647D01*
X48827279Y-40917647D02*
X48874898Y-41108123D01*
X48874898Y-41108123D02*
X48922517Y-41203361D01*
X48922517Y-41203361D02*
X49017755Y-41298600D01*
X49017755Y-41298600D02*
X49160612Y-41346219D01*
X49160612Y-41346219D02*
X49398707Y-41346219D01*
X52815016Y-61835520D02*
X53386444Y-61835520D01*
X53100730Y-61835520D02*
X53100730Y-60835520D01*
X53100730Y-60835520D02*
X53195968Y-60978377D01*
X53195968Y-60978377D02*
X53291206Y-61073615D01*
X53291206Y-61073615D02*
X53386444Y-61121234D01*
X52434063Y-60930758D02*
X52386444Y-60883139D01*
X52386444Y-60883139D02*
X52291206Y-60835520D01*
X52291206Y-60835520D02*
X52053111Y-60835520D01*
X52053111Y-60835520D02*
X51957873Y-60883139D01*
X51957873Y-60883139D02*
X51910254Y-60930758D01*
X51910254Y-60930758D02*
X51862635Y-61025996D01*
X51862635Y-61025996D02*
X51862635Y-61121234D01*
X51862635Y-61121234D02*
X51910254Y-61264091D01*
X51910254Y-61264091D02*
X52481682Y-61835520D01*
X52481682Y-61835520D02*
X51862635Y-61835520D01*
X55355016Y-61835520D02*
X55926444Y-61835520D01*
X55640730Y-61835520D02*
X55640730Y-60835520D01*
X55640730Y-60835520D02*
X55735968Y-60978377D01*
X55735968Y-60978377D02*
X55831206Y-61073615D01*
X55831206Y-61073615D02*
X55926444Y-61121234D01*
X54402635Y-61835520D02*
X54974063Y-61835520D01*
X54688349Y-61835520D02*
X54688349Y-60835520D01*
X54688349Y-60835520D02*
X54783587Y-60978377D01*
X54783587Y-60978377D02*
X54878825Y-61073615D01*
X54878825Y-61073615D02*
X54974063Y-61121234D01*
X57895016Y-61835520D02*
X58466444Y-61835520D01*
X58180730Y-61835520D02*
X58180730Y-60835520D01*
X58180730Y-60835520D02*
X58275968Y-60978377D01*
X58275968Y-60978377D02*
X58371206Y-61073615D01*
X58371206Y-61073615D02*
X58466444Y-61121234D01*
X57275968Y-60835520D02*
X57180730Y-60835520D01*
X57180730Y-60835520D02*
X57085492Y-60883139D01*
X57085492Y-60883139D02*
X57037873Y-60930758D01*
X57037873Y-60930758D02*
X56990254Y-61025996D01*
X56990254Y-61025996D02*
X56942635Y-61216472D01*
X56942635Y-61216472D02*
X56942635Y-61454567D01*
X56942635Y-61454567D02*
X56990254Y-61645043D01*
X56990254Y-61645043D02*
X57037873Y-61740281D01*
X57037873Y-61740281D02*
X57085492Y-61787901D01*
X57085492Y-61787901D02*
X57180730Y-61835520D01*
X57180730Y-61835520D02*
X57275968Y-61835520D01*
X57275968Y-61835520D02*
X57371206Y-61787901D01*
X57371206Y-61787901D02*
X57418825Y-61740281D01*
X57418825Y-61740281D02*
X57466444Y-61645043D01*
X57466444Y-61645043D02*
X57514063Y-61454567D01*
X57514063Y-61454567D02*
X57514063Y-61216472D01*
X57514063Y-61216472D02*
X57466444Y-61025996D01*
X57466444Y-61025996D02*
X57418825Y-60930758D01*
X57418825Y-60930758D02*
X57371206Y-60883139D01*
X57371206Y-60883139D02*
X57275968Y-60835520D01*
X60435015Y-61835520D02*
X60244539Y-61835520D01*
X60244539Y-61835520D02*
X60149301Y-61787901D01*
X60149301Y-61787901D02*
X60101682Y-61740281D01*
X60101682Y-61740281D02*
X60006444Y-61597424D01*
X60006444Y-61597424D02*
X59958825Y-61406948D01*
X59958825Y-61406948D02*
X59958825Y-61025996D01*
X59958825Y-61025996D02*
X60006444Y-60930758D01*
X60006444Y-60930758D02*
X60054063Y-60883139D01*
X60054063Y-60883139D02*
X60149301Y-60835520D01*
X60149301Y-60835520D02*
X60339777Y-60835520D01*
X60339777Y-60835520D02*
X60435015Y-60883139D01*
X60435015Y-60883139D02*
X60482634Y-60930758D01*
X60482634Y-60930758D02*
X60530253Y-61025996D01*
X60530253Y-61025996D02*
X60530253Y-61264091D01*
X60530253Y-61264091D02*
X60482634Y-61359329D01*
X60482634Y-61359329D02*
X60435015Y-61406948D01*
X60435015Y-61406948D02*
X60339777Y-61454567D01*
X60339777Y-61454567D02*
X60149301Y-61454567D01*
X60149301Y-61454567D02*
X60054063Y-61406948D01*
X60054063Y-61406948D02*
X60006444Y-61359329D01*
X60006444Y-61359329D02*
X59958825Y-61264091D01*
X65689927Y-37680520D02*
X65594689Y-37680520D01*
X65594689Y-37680520D02*
X65499451Y-37728139D01*
X65499451Y-37728139D02*
X65451832Y-37775758D01*
X65451832Y-37775758D02*
X65404213Y-37870996D01*
X65404213Y-37870996D02*
X65356594Y-38061472D01*
X65356594Y-38061472D02*
X65356594Y-38299567D01*
X65356594Y-38299567D02*
X65404213Y-38490043D01*
X65404213Y-38490043D02*
X65451832Y-38585281D01*
X65451832Y-38585281D02*
X65499451Y-38632901D01*
X65499451Y-38632901D02*
X65594689Y-38680520D01*
X65594689Y-38680520D02*
X65689927Y-38680520D01*
X65689927Y-38680520D02*
X65785165Y-38632901D01*
X65785165Y-38632901D02*
X65832784Y-38585281D01*
X65832784Y-38585281D02*
X65880403Y-38490043D01*
X65880403Y-38490043D02*
X65928022Y-38299567D01*
X65928022Y-38299567D02*
X65928022Y-38061472D01*
X65928022Y-38061472D02*
X65880403Y-37870996D01*
X65880403Y-37870996D02*
X65832784Y-37775758D01*
X65832784Y-37775758D02*
X65785165Y-37728139D01*
X65785165Y-37728139D02*
X65689927Y-37680520D01*
X65356594Y-41220520D02*
X65928022Y-41220520D01*
X65642308Y-41220520D02*
X65642308Y-40220520D01*
X65642308Y-40220520D02*
X65737546Y-40363377D01*
X65737546Y-40363377D02*
X65832784Y-40458615D01*
X65832784Y-40458615D02*
X65928022Y-40506234D01*
X65928022Y-42855758D02*
X65880403Y-42808139D01*
X65880403Y-42808139D02*
X65785165Y-42760520D01*
X65785165Y-42760520D02*
X65547070Y-42760520D01*
X65547070Y-42760520D02*
X65451832Y-42808139D01*
X65451832Y-42808139D02*
X65404213Y-42855758D01*
X65404213Y-42855758D02*
X65356594Y-42950996D01*
X65356594Y-42950996D02*
X65356594Y-43046234D01*
X65356594Y-43046234D02*
X65404213Y-43189091D01*
X65404213Y-43189091D02*
X65975641Y-43760520D01*
X65975641Y-43760520D02*
X65356594Y-43760520D01*
X65975641Y-45300520D02*
X65356594Y-45300520D01*
X65356594Y-45300520D02*
X65689927Y-45681472D01*
X65689927Y-45681472D02*
X65547070Y-45681472D01*
X65547070Y-45681472D02*
X65451832Y-45729091D01*
X65451832Y-45729091D02*
X65404213Y-45776710D01*
X65404213Y-45776710D02*
X65356594Y-45871948D01*
X65356594Y-45871948D02*
X65356594Y-46110043D01*
X65356594Y-46110043D02*
X65404213Y-46205281D01*
X65404213Y-46205281D02*
X65451832Y-46252901D01*
X65451832Y-46252901D02*
X65547070Y-46300520D01*
X65547070Y-46300520D02*
X65832784Y-46300520D01*
X65832784Y-46300520D02*
X65928022Y-46252901D01*
X65928022Y-46252901D02*
X65975641Y-46205281D01*
X65451832Y-48173853D02*
X65451832Y-48840520D01*
X65689927Y-47792901D02*
X65928022Y-48507186D01*
X65928022Y-48507186D02*
X65308975Y-48507186D01*
X65404213Y-50380520D02*
X65880403Y-50380520D01*
X65880403Y-50380520D02*
X65928022Y-50856710D01*
X65928022Y-50856710D02*
X65880403Y-50809091D01*
X65880403Y-50809091D02*
X65785165Y-50761472D01*
X65785165Y-50761472D02*
X65547070Y-50761472D01*
X65547070Y-50761472D02*
X65451832Y-50809091D01*
X65451832Y-50809091D02*
X65404213Y-50856710D01*
X65404213Y-50856710D02*
X65356594Y-50951948D01*
X65356594Y-50951948D02*
X65356594Y-51190043D01*
X65356594Y-51190043D02*
X65404213Y-51285281D01*
X65404213Y-51285281D02*
X65451832Y-51332901D01*
X65451832Y-51332901D02*
X65547070Y-51380520D01*
X65547070Y-51380520D02*
X65785165Y-51380520D01*
X65785165Y-51380520D02*
X65880403Y-51332901D01*
X65880403Y-51332901D02*
X65928022Y-51285281D01*
X65451832Y-52920520D02*
X65642308Y-52920520D01*
X65642308Y-52920520D02*
X65737546Y-52968139D01*
X65737546Y-52968139D02*
X65785165Y-53015758D01*
X65785165Y-53015758D02*
X65880403Y-53158615D01*
X65880403Y-53158615D02*
X65928022Y-53349091D01*
X65928022Y-53349091D02*
X65928022Y-53730043D01*
X65928022Y-53730043D02*
X65880403Y-53825281D01*
X65880403Y-53825281D02*
X65832784Y-53872901D01*
X65832784Y-53872901D02*
X65737546Y-53920520D01*
X65737546Y-53920520D02*
X65547070Y-53920520D01*
X65547070Y-53920520D02*
X65451832Y-53872901D01*
X65451832Y-53872901D02*
X65404213Y-53825281D01*
X65404213Y-53825281D02*
X65356594Y-53730043D01*
X65356594Y-53730043D02*
X65356594Y-53491948D01*
X65356594Y-53491948D02*
X65404213Y-53396710D01*
X65404213Y-53396710D02*
X65451832Y-53349091D01*
X65451832Y-53349091D02*
X65547070Y-53301472D01*
X65547070Y-53301472D02*
X65737546Y-53301472D01*
X65737546Y-53301472D02*
X65832784Y-53349091D01*
X65832784Y-53349091D02*
X65880403Y-53396710D01*
X65880403Y-53396710D02*
X65928022Y-53491948D01*
X65975641Y-55460520D02*
X65308975Y-55460520D01*
X65308975Y-55460520D02*
X65737546Y-56460520D01*
X65737546Y-58429091D02*
X65832784Y-58381472D01*
X65832784Y-58381472D02*
X65880403Y-58333853D01*
X65880403Y-58333853D02*
X65928022Y-58238615D01*
X65928022Y-58238615D02*
X65928022Y-58190996D01*
X65928022Y-58190996D02*
X65880403Y-58095758D01*
X65880403Y-58095758D02*
X65832784Y-58048139D01*
X65832784Y-58048139D02*
X65737546Y-58000520D01*
X65737546Y-58000520D02*
X65547070Y-58000520D01*
X65547070Y-58000520D02*
X65451832Y-58048139D01*
X65451832Y-58048139D02*
X65404213Y-58095758D01*
X65404213Y-58095758D02*
X65356594Y-58190996D01*
X65356594Y-58190996D02*
X65356594Y-58238615D01*
X65356594Y-58238615D02*
X65404213Y-58333853D01*
X65404213Y-58333853D02*
X65451832Y-58381472D01*
X65451832Y-58381472D02*
X65547070Y-58429091D01*
X65547070Y-58429091D02*
X65737546Y-58429091D01*
X65737546Y-58429091D02*
X65832784Y-58476710D01*
X65832784Y-58476710D02*
X65880403Y-58524329D01*
X65880403Y-58524329D02*
X65928022Y-58619567D01*
X65928022Y-58619567D02*
X65928022Y-58810043D01*
X65928022Y-58810043D02*
X65880403Y-58905281D01*
X65880403Y-58905281D02*
X65832784Y-58952901D01*
X65832784Y-58952901D02*
X65737546Y-59000520D01*
X65737546Y-59000520D02*
X65547070Y-59000520D01*
X65547070Y-59000520D02*
X65451832Y-58952901D01*
X65451832Y-58952901D02*
X65404213Y-58905281D01*
X65404213Y-58905281D02*
X65356594Y-58810043D01*
X65356594Y-58810043D02*
X65356594Y-58619567D01*
X65356594Y-58619567D02*
X65404213Y-58524329D01*
X65404213Y-58524329D02*
X65451832Y-58476710D01*
X65451832Y-58476710D02*
X65547070Y-58429091D01*
D12*
X145234819Y-102099714D02*
X144234819Y-102099714D01*
X144234819Y-102099714D02*
X144234819Y-102337809D01*
X144234819Y-102337809D02*
X144282438Y-102480666D01*
X144282438Y-102480666D02*
X144377676Y-102575904D01*
X144377676Y-102575904D02*
X144472914Y-102623523D01*
X144472914Y-102623523D02*
X144663390Y-102671142D01*
X144663390Y-102671142D02*
X144806247Y-102671142D01*
X144806247Y-102671142D02*
X144996723Y-102623523D01*
X144996723Y-102623523D02*
X145091961Y-102575904D01*
X145091961Y-102575904D02*
X145187200Y-102480666D01*
X145187200Y-102480666D02*
X145234819Y-102337809D01*
X145234819Y-102337809D02*
X145234819Y-102099714D01*
X144330057Y-103052095D02*
X144282438Y-103099714D01*
X144282438Y-103099714D02*
X144234819Y-103194952D01*
X144234819Y-103194952D02*
X144234819Y-103433047D01*
X144234819Y-103433047D02*
X144282438Y-103528285D01*
X144282438Y-103528285D02*
X144330057Y-103575904D01*
X144330057Y-103575904D02*
X144425295Y-103623523D01*
X144425295Y-103623523D02*
X144520533Y-103623523D01*
X144520533Y-103623523D02*
X144663390Y-103575904D01*
X144663390Y-103575904D02*
X145234819Y-103004476D01*
X145234819Y-103004476D02*
X145234819Y-103623523D01*
X145234819Y-104575904D02*
X145234819Y-104004476D01*
X145234819Y-104290190D02*
X144234819Y-104290190D01*
X144234819Y-104290190D02*
X144377676Y-104194952D01*
X144377676Y-104194952D02*
X144472914Y-104099714D01*
X144472914Y-104099714D02*
X144520533Y-104004476D01*
X145234819Y-83049714D02*
X144234819Y-83049714D01*
X144234819Y-83049714D02*
X144234819Y-83287809D01*
X144234819Y-83287809D02*
X144282438Y-83430666D01*
X144282438Y-83430666D02*
X144377676Y-83525904D01*
X144377676Y-83525904D02*
X144472914Y-83573523D01*
X144472914Y-83573523D02*
X144663390Y-83621142D01*
X144663390Y-83621142D02*
X144806247Y-83621142D01*
X144806247Y-83621142D02*
X144996723Y-83573523D01*
X144996723Y-83573523D02*
X145091961Y-83525904D01*
X145091961Y-83525904D02*
X145187200Y-83430666D01*
X145187200Y-83430666D02*
X145234819Y-83287809D01*
X145234819Y-83287809D02*
X145234819Y-83049714D01*
X145234819Y-84573523D02*
X145234819Y-84002095D01*
X145234819Y-84287809D02*
X144234819Y-84287809D01*
X144234819Y-84287809D02*
X144377676Y-84192571D01*
X144377676Y-84192571D02*
X144472914Y-84097333D01*
X144472914Y-84097333D02*
X144520533Y-84002095D01*
X144234819Y-85478285D02*
X144234819Y-85002095D01*
X144234819Y-85002095D02*
X144711009Y-84954476D01*
X144711009Y-84954476D02*
X144663390Y-85002095D01*
X144663390Y-85002095D02*
X144615771Y-85097333D01*
X144615771Y-85097333D02*
X144615771Y-85335428D01*
X144615771Y-85335428D02*
X144663390Y-85430666D01*
X144663390Y-85430666D02*
X144711009Y-85478285D01*
X144711009Y-85478285D02*
X144806247Y-85525904D01*
X144806247Y-85525904D02*
X145044342Y-85525904D01*
X145044342Y-85525904D02*
X145139580Y-85478285D01*
X145139580Y-85478285D02*
X145187200Y-85430666D01*
X145187200Y-85430666D02*
X145234819Y-85335428D01*
X145234819Y-85335428D02*
X145234819Y-85097333D01*
X145234819Y-85097333D02*
X145187200Y-85002095D01*
X145187200Y-85002095D02*
X145139580Y-84954476D01*
X88084819Y-106862214D02*
X87084819Y-106862214D01*
X87084819Y-106862214D02*
X87084819Y-107100309D01*
X87084819Y-107100309D02*
X87132438Y-107243166D01*
X87132438Y-107243166D02*
X87227676Y-107338404D01*
X87227676Y-107338404D02*
X87322914Y-107386023D01*
X87322914Y-107386023D02*
X87513390Y-107433642D01*
X87513390Y-107433642D02*
X87656247Y-107433642D01*
X87656247Y-107433642D02*
X87846723Y-107386023D01*
X87846723Y-107386023D02*
X87941961Y-107338404D01*
X87941961Y-107338404D02*
X88037200Y-107243166D01*
X88037200Y-107243166D02*
X88084819Y-107100309D01*
X88084819Y-107100309D02*
X88084819Y-106862214D01*
X87180057Y-107814595D02*
X87132438Y-107862214D01*
X87132438Y-107862214D02*
X87084819Y-107957452D01*
X87084819Y-107957452D02*
X87084819Y-108195547D01*
X87084819Y-108195547D02*
X87132438Y-108290785D01*
X87132438Y-108290785D02*
X87180057Y-108338404D01*
X87180057Y-108338404D02*
X87275295Y-108386023D01*
X87275295Y-108386023D02*
X87370533Y-108386023D01*
X87370533Y-108386023D02*
X87513390Y-108338404D01*
X87513390Y-108338404D02*
X88084819Y-107766976D01*
X88084819Y-107766976D02*
X88084819Y-108386023D01*
X87418152Y-109243166D02*
X88084819Y-109243166D01*
X87037200Y-109005071D02*
X87751485Y-108766976D01*
X87751485Y-108766976D02*
X87751485Y-109386023D01*
X126184819Y-78287214D02*
X125184819Y-78287214D01*
X125184819Y-78287214D02*
X125184819Y-78525309D01*
X125184819Y-78525309D02*
X125232438Y-78668166D01*
X125232438Y-78668166D02*
X125327676Y-78763404D01*
X125327676Y-78763404D02*
X125422914Y-78811023D01*
X125422914Y-78811023D02*
X125613390Y-78858642D01*
X125613390Y-78858642D02*
X125756247Y-78858642D01*
X125756247Y-78858642D02*
X125946723Y-78811023D01*
X125946723Y-78811023D02*
X126041961Y-78763404D01*
X126041961Y-78763404D02*
X126137200Y-78668166D01*
X126137200Y-78668166D02*
X126184819Y-78525309D01*
X126184819Y-78525309D02*
X126184819Y-78287214D01*
X126184819Y-79811023D02*
X126184819Y-79239595D01*
X126184819Y-79525309D02*
X125184819Y-79525309D01*
X125184819Y-79525309D02*
X125327676Y-79430071D01*
X125327676Y-79430071D02*
X125422914Y-79334833D01*
X125422914Y-79334833D02*
X125470533Y-79239595D01*
X125184819Y-80668166D02*
X125184819Y-80477690D01*
X125184819Y-80477690D02*
X125232438Y-80382452D01*
X125232438Y-80382452D02*
X125280057Y-80334833D01*
X125280057Y-80334833D02*
X125422914Y-80239595D01*
X125422914Y-80239595D02*
X125613390Y-80191976D01*
X125613390Y-80191976D02*
X125994342Y-80191976D01*
X125994342Y-80191976D02*
X126089580Y-80239595D01*
X126089580Y-80239595D02*
X126137200Y-80287214D01*
X126137200Y-80287214D02*
X126184819Y-80382452D01*
X126184819Y-80382452D02*
X126184819Y-80572928D01*
X126184819Y-80572928D02*
X126137200Y-80668166D01*
X126137200Y-80668166D02*
X126089580Y-80715785D01*
X126089580Y-80715785D02*
X125994342Y-80763404D01*
X125994342Y-80763404D02*
X125756247Y-80763404D01*
X125756247Y-80763404D02*
X125661009Y-80715785D01*
X125661009Y-80715785D02*
X125613390Y-80668166D01*
X125613390Y-80668166D02*
X125565771Y-80572928D01*
X125565771Y-80572928D02*
X125565771Y-80382452D01*
X125565771Y-80382452D02*
X125613390Y-80287214D01*
X125613390Y-80287214D02*
X125661009Y-80239595D01*
X125661009Y-80239595D02*
X125756247Y-80191976D01*
X183334819Y-50188405D02*
X182334819Y-50188405D01*
X182334819Y-50188405D02*
X182334819Y-50426500D01*
X182334819Y-50426500D02*
X182382438Y-50569357D01*
X182382438Y-50569357D02*
X182477676Y-50664595D01*
X182477676Y-50664595D02*
X182572914Y-50712214D01*
X182572914Y-50712214D02*
X182763390Y-50759833D01*
X182763390Y-50759833D02*
X182906247Y-50759833D01*
X182906247Y-50759833D02*
X183096723Y-50712214D01*
X183096723Y-50712214D02*
X183191961Y-50664595D01*
X183191961Y-50664595D02*
X183287200Y-50569357D01*
X183287200Y-50569357D02*
X183334819Y-50426500D01*
X183334819Y-50426500D02*
X183334819Y-50188405D01*
X183334819Y-51712214D02*
X183334819Y-51140786D01*
X183334819Y-51426500D02*
X182334819Y-51426500D01*
X182334819Y-51426500D02*
X182477676Y-51331262D01*
X182477676Y-51331262D02*
X182572914Y-51236024D01*
X182572914Y-51236024D02*
X182620533Y-51140786D01*
X107134819Y-63999714D02*
X106134819Y-63999714D01*
X106134819Y-63999714D02*
X106134819Y-64237809D01*
X106134819Y-64237809D02*
X106182438Y-64380666D01*
X106182438Y-64380666D02*
X106277676Y-64475904D01*
X106277676Y-64475904D02*
X106372914Y-64523523D01*
X106372914Y-64523523D02*
X106563390Y-64571142D01*
X106563390Y-64571142D02*
X106706247Y-64571142D01*
X106706247Y-64571142D02*
X106896723Y-64523523D01*
X106896723Y-64523523D02*
X106991961Y-64475904D01*
X106991961Y-64475904D02*
X107087200Y-64380666D01*
X107087200Y-64380666D02*
X107134819Y-64237809D01*
X107134819Y-64237809D02*
X107134819Y-63999714D01*
X107134819Y-65523523D02*
X107134819Y-64952095D01*
X107134819Y-65237809D02*
X106134819Y-65237809D01*
X106134819Y-65237809D02*
X106277676Y-65142571D01*
X106277676Y-65142571D02*
X106372914Y-65047333D01*
X106372914Y-65047333D02*
X106420533Y-64952095D01*
X107134819Y-66475904D02*
X107134819Y-65904476D01*
X107134819Y-66190190D02*
X106134819Y-66190190D01*
X106134819Y-66190190D02*
X106277676Y-66094952D01*
X106277676Y-66094952D02*
X106372914Y-65999714D01*
X106372914Y-65999714D02*
X106420533Y-65904476D01*
X107134819Y-102099714D02*
X106134819Y-102099714D01*
X106134819Y-102099714D02*
X106134819Y-102337809D01*
X106134819Y-102337809D02*
X106182438Y-102480666D01*
X106182438Y-102480666D02*
X106277676Y-102575904D01*
X106277676Y-102575904D02*
X106372914Y-102623523D01*
X106372914Y-102623523D02*
X106563390Y-102671142D01*
X106563390Y-102671142D02*
X106706247Y-102671142D01*
X106706247Y-102671142D02*
X106896723Y-102623523D01*
X106896723Y-102623523D02*
X106991961Y-102575904D01*
X106991961Y-102575904D02*
X107087200Y-102480666D01*
X107087200Y-102480666D02*
X107134819Y-102337809D01*
X107134819Y-102337809D02*
X107134819Y-102099714D01*
X106230057Y-103052095D02*
X106182438Y-103099714D01*
X106182438Y-103099714D02*
X106134819Y-103194952D01*
X106134819Y-103194952D02*
X106134819Y-103433047D01*
X106134819Y-103433047D02*
X106182438Y-103528285D01*
X106182438Y-103528285D02*
X106230057Y-103575904D01*
X106230057Y-103575904D02*
X106325295Y-103623523D01*
X106325295Y-103623523D02*
X106420533Y-103623523D01*
X106420533Y-103623523D02*
X106563390Y-103575904D01*
X106563390Y-103575904D02*
X107134819Y-103004476D01*
X107134819Y-103004476D02*
X107134819Y-103623523D01*
X106134819Y-103956857D02*
X106134819Y-104575904D01*
X106134819Y-104575904D02*
X106515771Y-104242571D01*
X106515771Y-104242571D02*
X106515771Y-104385428D01*
X106515771Y-104385428D02*
X106563390Y-104480666D01*
X106563390Y-104480666D02*
X106611009Y-104528285D01*
X106611009Y-104528285D02*
X106706247Y-104575904D01*
X106706247Y-104575904D02*
X106944342Y-104575904D01*
X106944342Y-104575904D02*
X107039580Y-104528285D01*
X107039580Y-104528285D02*
X107087200Y-104480666D01*
X107087200Y-104480666D02*
X107134819Y-104385428D01*
X107134819Y-104385428D02*
X107134819Y-104099714D01*
X107134819Y-104099714D02*
X107087200Y-104004476D01*
X107087200Y-104004476D02*
X107039580Y-103956857D01*
X88084819Y-68762214D02*
X87084819Y-68762214D01*
X87084819Y-68762214D02*
X87084819Y-69000309D01*
X87084819Y-69000309D02*
X87132438Y-69143166D01*
X87132438Y-69143166D02*
X87227676Y-69238404D01*
X87227676Y-69238404D02*
X87322914Y-69286023D01*
X87322914Y-69286023D02*
X87513390Y-69333642D01*
X87513390Y-69333642D02*
X87656247Y-69333642D01*
X87656247Y-69333642D02*
X87846723Y-69286023D01*
X87846723Y-69286023D02*
X87941961Y-69238404D01*
X87941961Y-69238404D02*
X88037200Y-69143166D01*
X88037200Y-69143166D02*
X88084819Y-69000309D01*
X88084819Y-69000309D02*
X88084819Y-68762214D01*
X88084819Y-70286023D02*
X88084819Y-69714595D01*
X88084819Y-70000309D02*
X87084819Y-70000309D01*
X87084819Y-70000309D02*
X87227676Y-69905071D01*
X87227676Y-69905071D02*
X87322914Y-69809833D01*
X87322914Y-69809833D02*
X87370533Y-69714595D01*
X87180057Y-70666976D02*
X87132438Y-70714595D01*
X87132438Y-70714595D02*
X87084819Y-70809833D01*
X87084819Y-70809833D02*
X87084819Y-71047928D01*
X87084819Y-71047928D02*
X87132438Y-71143166D01*
X87132438Y-71143166D02*
X87180057Y-71190785D01*
X87180057Y-71190785D02*
X87275295Y-71238404D01*
X87275295Y-71238404D02*
X87370533Y-71238404D01*
X87370533Y-71238404D02*
X87513390Y-71190785D01*
X87513390Y-71190785D02*
X88084819Y-70619357D01*
X88084819Y-70619357D02*
X88084819Y-71238404D01*
X126184819Y-40663405D02*
X125184819Y-40663405D01*
X125184819Y-40663405D02*
X125184819Y-40901500D01*
X125184819Y-40901500D02*
X125232438Y-41044357D01*
X125232438Y-41044357D02*
X125327676Y-41139595D01*
X125327676Y-41139595D02*
X125422914Y-41187214D01*
X125422914Y-41187214D02*
X125613390Y-41234833D01*
X125613390Y-41234833D02*
X125756247Y-41234833D01*
X125756247Y-41234833D02*
X125946723Y-41187214D01*
X125946723Y-41187214D02*
X126041961Y-41139595D01*
X126041961Y-41139595D02*
X126137200Y-41044357D01*
X126137200Y-41044357D02*
X126184819Y-40901500D01*
X126184819Y-40901500D02*
X126184819Y-40663405D01*
X125518152Y-42091976D02*
X126184819Y-42091976D01*
X125137200Y-41853881D02*
X125851485Y-41615786D01*
X125851485Y-41615786D02*
X125851485Y-42234833D01*
X164284819Y-106862214D02*
X163284819Y-106862214D01*
X163284819Y-106862214D02*
X163284819Y-107100309D01*
X163284819Y-107100309D02*
X163332438Y-107243166D01*
X163332438Y-107243166D02*
X163427676Y-107338404D01*
X163427676Y-107338404D02*
X163522914Y-107386023D01*
X163522914Y-107386023D02*
X163713390Y-107433642D01*
X163713390Y-107433642D02*
X163856247Y-107433642D01*
X163856247Y-107433642D02*
X164046723Y-107386023D01*
X164046723Y-107386023D02*
X164141961Y-107338404D01*
X164141961Y-107338404D02*
X164237200Y-107243166D01*
X164237200Y-107243166D02*
X164284819Y-107100309D01*
X164284819Y-107100309D02*
X164284819Y-106862214D01*
X163380057Y-107814595D02*
X163332438Y-107862214D01*
X163332438Y-107862214D02*
X163284819Y-107957452D01*
X163284819Y-107957452D02*
X163284819Y-108195547D01*
X163284819Y-108195547D02*
X163332438Y-108290785D01*
X163332438Y-108290785D02*
X163380057Y-108338404D01*
X163380057Y-108338404D02*
X163475295Y-108386023D01*
X163475295Y-108386023D02*
X163570533Y-108386023D01*
X163570533Y-108386023D02*
X163713390Y-108338404D01*
X163713390Y-108338404D02*
X164284819Y-107766976D01*
X164284819Y-107766976D02*
X164284819Y-108386023D01*
X163284819Y-109005071D02*
X163284819Y-109100309D01*
X163284819Y-109100309D02*
X163332438Y-109195547D01*
X163332438Y-109195547D02*
X163380057Y-109243166D01*
X163380057Y-109243166D02*
X163475295Y-109290785D01*
X163475295Y-109290785D02*
X163665771Y-109338404D01*
X163665771Y-109338404D02*
X163903866Y-109338404D01*
X163903866Y-109338404D02*
X164094342Y-109290785D01*
X164094342Y-109290785D02*
X164189580Y-109243166D01*
X164189580Y-109243166D02*
X164237200Y-109195547D01*
X164237200Y-109195547D02*
X164284819Y-109100309D01*
X164284819Y-109100309D02*
X164284819Y-109005071D01*
X164284819Y-109005071D02*
X164237200Y-108909833D01*
X164237200Y-108909833D02*
X164189580Y-108862214D01*
X164189580Y-108862214D02*
X164094342Y-108814595D01*
X164094342Y-108814595D02*
X163903866Y-108766976D01*
X163903866Y-108766976D02*
X163665771Y-108766976D01*
X163665771Y-108766976D02*
X163475295Y-108814595D01*
X163475295Y-108814595D02*
X163380057Y-108862214D01*
X163380057Y-108862214D02*
X163332438Y-108909833D01*
X163332438Y-108909833D02*
X163284819Y-109005071D01*
X107134819Y-45425905D02*
X106134819Y-45425905D01*
X106134819Y-45425905D02*
X106134819Y-45664000D01*
X106134819Y-45664000D02*
X106182438Y-45806857D01*
X106182438Y-45806857D02*
X106277676Y-45902095D01*
X106277676Y-45902095D02*
X106372914Y-45949714D01*
X106372914Y-45949714D02*
X106563390Y-45997333D01*
X106563390Y-45997333D02*
X106706247Y-45997333D01*
X106706247Y-45997333D02*
X106896723Y-45949714D01*
X106896723Y-45949714D02*
X106991961Y-45902095D01*
X106991961Y-45902095D02*
X107087200Y-45806857D01*
X107087200Y-45806857D02*
X107134819Y-45664000D01*
X107134819Y-45664000D02*
X107134819Y-45425905D01*
X106134819Y-46902095D02*
X106134819Y-46425905D01*
X106134819Y-46425905D02*
X106611009Y-46378286D01*
X106611009Y-46378286D02*
X106563390Y-46425905D01*
X106563390Y-46425905D02*
X106515771Y-46521143D01*
X106515771Y-46521143D02*
X106515771Y-46759238D01*
X106515771Y-46759238D02*
X106563390Y-46854476D01*
X106563390Y-46854476D02*
X106611009Y-46902095D01*
X106611009Y-46902095D02*
X106706247Y-46949714D01*
X106706247Y-46949714D02*
X106944342Y-46949714D01*
X106944342Y-46949714D02*
X107039580Y-46902095D01*
X107039580Y-46902095D02*
X107087200Y-46854476D01*
X107087200Y-46854476D02*
X107134819Y-46759238D01*
X107134819Y-46759238D02*
X107134819Y-46521143D01*
X107134819Y-46521143D02*
X107087200Y-46425905D01*
X107087200Y-46425905D02*
X107039580Y-46378286D01*
X164284819Y-69238405D02*
X163284819Y-69238405D01*
X163284819Y-69238405D02*
X163284819Y-69476500D01*
X163284819Y-69476500D02*
X163332438Y-69619357D01*
X163332438Y-69619357D02*
X163427676Y-69714595D01*
X163427676Y-69714595D02*
X163522914Y-69762214D01*
X163522914Y-69762214D02*
X163713390Y-69809833D01*
X163713390Y-69809833D02*
X163856247Y-69809833D01*
X163856247Y-69809833D02*
X164046723Y-69762214D01*
X164046723Y-69762214D02*
X164141961Y-69714595D01*
X164141961Y-69714595D02*
X164237200Y-69619357D01*
X164237200Y-69619357D02*
X164284819Y-69476500D01*
X164284819Y-69476500D02*
X164284819Y-69238405D01*
X163713390Y-70381262D02*
X163665771Y-70286024D01*
X163665771Y-70286024D02*
X163618152Y-70238405D01*
X163618152Y-70238405D02*
X163522914Y-70190786D01*
X163522914Y-70190786D02*
X163475295Y-70190786D01*
X163475295Y-70190786D02*
X163380057Y-70238405D01*
X163380057Y-70238405D02*
X163332438Y-70286024D01*
X163332438Y-70286024D02*
X163284819Y-70381262D01*
X163284819Y-70381262D02*
X163284819Y-70571738D01*
X163284819Y-70571738D02*
X163332438Y-70666976D01*
X163332438Y-70666976D02*
X163380057Y-70714595D01*
X163380057Y-70714595D02*
X163475295Y-70762214D01*
X163475295Y-70762214D02*
X163522914Y-70762214D01*
X163522914Y-70762214D02*
X163618152Y-70714595D01*
X163618152Y-70714595D02*
X163665771Y-70666976D01*
X163665771Y-70666976D02*
X163713390Y-70571738D01*
X163713390Y-70571738D02*
X163713390Y-70381262D01*
X163713390Y-70381262D02*
X163761009Y-70286024D01*
X163761009Y-70286024D02*
X163808628Y-70238405D01*
X163808628Y-70238405D02*
X163903866Y-70190786D01*
X163903866Y-70190786D02*
X164094342Y-70190786D01*
X164094342Y-70190786D02*
X164189580Y-70238405D01*
X164189580Y-70238405D02*
X164237200Y-70286024D01*
X164237200Y-70286024D02*
X164284819Y-70381262D01*
X164284819Y-70381262D02*
X164284819Y-70571738D01*
X164284819Y-70571738D02*
X164237200Y-70666976D01*
X164237200Y-70666976D02*
X164189580Y-70714595D01*
X164189580Y-70714595D02*
X164094342Y-70762214D01*
X164094342Y-70762214D02*
X163903866Y-70762214D01*
X163903866Y-70762214D02*
X163808628Y-70714595D01*
X163808628Y-70714595D02*
X163761009Y-70666976D01*
X163761009Y-70666976D02*
X163713390Y-70571738D01*
X183334819Y-106862214D02*
X182334819Y-106862214D01*
X182334819Y-106862214D02*
X182334819Y-107100309D01*
X182334819Y-107100309D02*
X182382438Y-107243166D01*
X182382438Y-107243166D02*
X182477676Y-107338404D01*
X182477676Y-107338404D02*
X182572914Y-107386023D01*
X182572914Y-107386023D02*
X182763390Y-107433642D01*
X182763390Y-107433642D02*
X182906247Y-107433642D01*
X182906247Y-107433642D02*
X183096723Y-107386023D01*
X183096723Y-107386023D02*
X183191961Y-107338404D01*
X183191961Y-107338404D02*
X183287200Y-107243166D01*
X183287200Y-107243166D02*
X183334819Y-107100309D01*
X183334819Y-107100309D02*
X183334819Y-106862214D01*
X183334819Y-108386023D02*
X183334819Y-107814595D01*
X183334819Y-108100309D02*
X182334819Y-108100309D01*
X182334819Y-108100309D02*
X182477676Y-108005071D01*
X182477676Y-108005071D02*
X182572914Y-107909833D01*
X182572914Y-107909833D02*
X182620533Y-107814595D01*
X183334819Y-108862214D02*
X183334819Y-109052690D01*
X183334819Y-109052690D02*
X183287200Y-109147928D01*
X183287200Y-109147928D02*
X183239580Y-109195547D01*
X183239580Y-109195547D02*
X183096723Y-109290785D01*
X183096723Y-109290785D02*
X182906247Y-109338404D01*
X182906247Y-109338404D02*
X182525295Y-109338404D01*
X182525295Y-109338404D02*
X182430057Y-109290785D01*
X182430057Y-109290785D02*
X182382438Y-109243166D01*
X182382438Y-109243166D02*
X182334819Y-109147928D01*
X182334819Y-109147928D02*
X182334819Y-108957452D01*
X182334819Y-108957452D02*
X182382438Y-108862214D01*
X182382438Y-108862214D02*
X182430057Y-108814595D01*
X182430057Y-108814595D02*
X182525295Y-108766976D01*
X182525295Y-108766976D02*
X182763390Y-108766976D01*
X182763390Y-108766976D02*
X182858628Y-108814595D01*
X182858628Y-108814595D02*
X182906247Y-108862214D01*
X182906247Y-108862214D02*
X182953866Y-108957452D01*
X182953866Y-108957452D02*
X182953866Y-109147928D01*
X182953866Y-109147928D02*
X182906247Y-109243166D01*
X182906247Y-109243166D02*
X182858628Y-109290785D01*
X182858628Y-109290785D02*
X182763390Y-109338404D01*
X88084819Y-87812214D02*
X87084819Y-87812214D01*
X87084819Y-87812214D02*
X87084819Y-88050309D01*
X87084819Y-88050309D02*
X87132438Y-88193166D01*
X87132438Y-88193166D02*
X87227676Y-88288404D01*
X87227676Y-88288404D02*
X87322914Y-88336023D01*
X87322914Y-88336023D02*
X87513390Y-88383642D01*
X87513390Y-88383642D02*
X87656247Y-88383642D01*
X87656247Y-88383642D02*
X87846723Y-88336023D01*
X87846723Y-88336023D02*
X87941961Y-88288404D01*
X87941961Y-88288404D02*
X88037200Y-88193166D01*
X88037200Y-88193166D02*
X88084819Y-88050309D01*
X88084819Y-88050309D02*
X88084819Y-87812214D01*
X88084819Y-89336023D02*
X88084819Y-88764595D01*
X88084819Y-89050309D02*
X87084819Y-89050309D01*
X87084819Y-89050309D02*
X87227676Y-88955071D01*
X87227676Y-88955071D02*
X87322914Y-88859833D01*
X87322914Y-88859833D02*
X87370533Y-88764595D01*
X87513390Y-89907452D02*
X87465771Y-89812214D01*
X87465771Y-89812214D02*
X87418152Y-89764595D01*
X87418152Y-89764595D02*
X87322914Y-89716976D01*
X87322914Y-89716976D02*
X87275295Y-89716976D01*
X87275295Y-89716976D02*
X87180057Y-89764595D01*
X87180057Y-89764595D02*
X87132438Y-89812214D01*
X87132438Y-89812214D02*
X87084819Y-89907452D01*
X87084819Y-89907452D02*
X87084819Y-90097928D01*
X87084819Y-90097928D02*
X87132438Y-90193166D01*
X87132438Y-90193166D02*
X87180057Y-90240785D01*
X87180057Y-90240785D02*
X87275295Y-90288404D01*
X87275295Y-90288404D02*
X87322914Y-90288404D01*
X87322914Y-90288404D02*
X87418152Y-90240785D01*
X87418152Y-90240785D02*
X87465771Y-90193166D01*
X87465771Y-90193166D02*
X87513390Y-90097928D01*
X87513390Y-90097928D02*
X87513390Y-89907452D01*
X87513390Y-89907452D02*
X87561009Y-89812214D01*
X87561009Y-89812214D02*
X87608628Y-89764595D01*
X87608628Y-89764595D02*
X87703866Y-89716976D01*
X87703866Y-89716976D02*
X87894342Y-89716976D01*
X87894342Y-89716976D02*
X87989580Y-89764595D01*
X87989580Y-89764595D02*
X88037200Y-89812214D01*
X88037200Y-89812214D02*
X88084819Y-89907452D01*
X88084819Y-89907452D02*
X88084819Y-90097928D01*
X88084819Y-90097928D02*
X88037200Y-90193166D01*
X88037200Y-90193166D02*
X87989580Y-90240785D01*
X87989580Y-90240785D02*
X87894342Y-90288404D01*
X87894342Y-90288404D02*
X87703866Y-90288404D01*
X87703866Y-90288404D02*
X87608628Y-90240785D01*
X87608628Y-90240785D02*
X87561009Y-90193166D01*
X87561009Y-90193166D02*
X87513390Y-90097928D01*
X164284819Y-50188405D02*
X163284819Y-50188405D01*
X163284819Y-50188405D02*
X163284819Y-50426500D01*
X163284819Y-50426500D02*
X163332438Y-50569357D01*
X163332438Y-50569357D02*
X163427676Y-50664595D01*
X163427676Y-50664595D02*
X163522914Y-50712214D01*
X163522914Y-50712214D02*
X163713390Y-50759833D01*
X163713390Y-50759833D02*
X163856247Y-50759833D01*
X163856247Y-50759833D02*
X164046723Y-50712214D01*
X164046723Y-50712214D02*
X164141961Y-50664595D01*
X164141961Y-50664595D02*
X164237200Y-50569357D01*
X164237200Y-50569357D02*
X164284819Y-50426500D01*
X164284819Y-50426500D02*
X164284819Y-50188405D01*
X163380057Y-51140786D02*
X163332438Y-51188405D01*
X163332438Y-51188405D02*
X163284819Y-51283643D01*
X163284819Y-51283643D02*
X163284819Y-51521738D01*
X163284819Y-51521738D02*
X163332438Y-51616976D01*
X163332438Y-51616976D02*
X163380057Y-51664595D01*
X163380057Y-51664595D02*
X163475295Y-51712214D01*
X163475295Y-51712214D02*
X163570533Y-51712214D01*
X163570533Y-51712214D02*
X163713390Y-51664595D01*
X163713390Y-51664595D02*
X164284819Y-51093167D01*
X164284819Y-51093167D02*
X164284819Y-51712214D01*
X88084819Y-50188405D02*
X87084819Y-50188405D01*
X87084819Y-50188405D02*
X87084819Y-50426500D01*
X87084819Y-50426500D02*
X87132438Y-50569357D01*
X87132438Y-50569357D02*
X87227676Y-50664595D01*
X87227676Y-50664595D02*
X87322914Y-50712214D01*
X87322914Y-50712214D02*
X87513390Y-50759833D01*
X87513390Y-50759833D02*
X87656247Y-50759833D01*
X87656247Y-50759833D02*
X87846723Y-50712214D01*
X87846723Y-50712214D02*
X87941961Y-50664595D01*
X87941961Y-50664595D02*
X88037200Y-50569357D01*
X88037200Y-50569357D02*
X88084819Y-50426500D01*
X88084819Y-50426500D02*
X88084819Y-50188405D01*
X87084819Y-51616976D02*
X87084819Y-51426500D01*
X87084819Y-51426500D02*
X87132438Y-51331262D01*
X87132438Y-51331262D02*
X87180057Y-51283643D01*
X87180057Y-51283643D02*
X87322914Y-51188405D01*
X87322914Y-51188405D02*
X87513390Y-51140786D01*
X87513390Y-51140786D02*
X87894342Y-51140786D01*
X87894342Y-51140786D02*
X87989580Y-51188405D01*
X87989580Y-51188405D02*
X88037200Y-51236024D01*
X88037200Y-51236024D02*
X88084819Y-51331262D01*
X88084819Y-51331262D02*
X88084819Y-51521738D01*
X88084819Y-51521738D02*
X88037200Y-51616976D01*
X88037200Y-51616976D02*
X87989580Y-51664595D01*
X87989580Y-51664595D02*
X87894342Y-51712214D01*
X87894342Y-51712214D02*
X87656247Y-51712214D01*
X87656247Y-51712214D02*
X87561009Y-51664595D01*
X87561009Y-51664595D02*
X87513390Y-51616976D01*
X87513390Y-51616976D02*
X87465771Y-51521738D01*
X87465771Y-51521738D02*
X87465771Y-51331262D01*
X87465771Y-51331262D02*
X87513390Y-51236024D01*
X87513390Y-51236024D02*
X87561009Y-51188405D01*
X87561009Y-51188405D02*
X87656247Y-51140786D01*
X126184819Y-59237214D02*
X125184819Y-59237214D01*
X125184819Y-59237214D02*
X125184819Y-59475309D01*
X125184819Y-59475309D02*
X125232438Y-59618166D01*
X125232438Y-59618166D02*
X125327676Y-59713404D01*
X125327676Y-59713404D02*
X125422914Y-59761023D01*
X125422914Y-59761023D02*
X125613390Y-59808642D01*
X125613390Y-59808642D02*
X125756247Y-59808642D01*
X125756247Y-59808642D02*
X125946723Y-59761023D01*
X125946723Y-59761023D02*
X126041961Y-59713404D01*
X126041961Y-59713404D02*
X126137200Y-59618166D01*
X126137200Y-59618166D02*
X126184819Y-59475309D01*
X126184819Y-59475309D02*
X126184819Y-59237214D01*
X126184819Y-60761023D02*
X126184819Y-60189595D01*
X126184819Y-60475309D02*
X125184819Y-60475309D01*
X125184819Y-60475309D02*
X125327676Y-60380071D01*
X125327676Y-60380071D02*
X125422914Y-60284833D01*
X125422914Y-60284833D02*
X125470533Y-60189595D01*
X125184819Y-61380071D02*
X125184819Y-61475309D01*
X125184819Y-61475309D02*
X125232438Y-61570547D01*
X125232438Y-61570547D02*
X125280057Y-61618166D01*
X125280057Y-61618166D02*
X125375295Y-61665785D01*
X125375295Y-61665785D02*
X125565771Y-61713404D01*
X125565771Y-61713404D02*
X125803866Y-61713404D01*
X125803866Y-61713404D02*
X125994342Y-61665785D01*
X125994342Y-61665785D02*
X126089580Y-61618166D01*
X126089580Y-61618166D02*
X126137200Y-61570547D01*
X126137200Y-61570547D02*
X126184819Y-61475309D01*
X126184819Y-61475309D02*
X126184819Y-61380071D01*
X126184819Y-61380071D02*
X126137200Y-61284833D01*
X126137200Y-61284833D02*
X126089580Y-61237214D01*
X126089580Y-61237214D02*
X125994342Y-61189595D01*
X125994342Y-61189595D02*
X125803866Y-61141976D01*
X125803866Y-61141976D02*
X125565771Y-61141976D01*
X125565771Y-61141976D02*
X125375295Y-61189595D01*
X125375295Y-61189595D02*
X125280057Y-61237214D01*
X125280057Y-61237214D02*
X125232438Y-61284833D01*
X125232438Y-61284833D02*
X125184819Y-61380071D01*
X164284819Y-87812214D02*
X163284819Y-87812214D01*
X163284819Y-87812214D02*
X163284819Y-88050309D01*
X163284819Y-88050309D02*
X163332438Y-88193166D01*
X163332438Y-88193166D02*
X163427676Y-88288404D01*
X163427676Y-88288404D02*
X163522914Y-88336023D01*
X163522914Y-88336023D02*
X163713390Y-88383642D01*
X163713390Y-88383642D02*
X163856247Y-88383642D01*
X163856247Y-88383642D02*
X164046723Y-88336023D01*
X164046723Y-88336023D02*
X164141961Y-88288404D01*
X164141961Y-88288404D02*
X164237200Y-88193166D01*
X164237200Y-88193166D02*
X164284819Y-88050309D01*
X164284819Y-88050309D02*
X164284819Y-87812214D01*
X164284819Y-89336023D02*
X164284819Y-88764595D01*
X164284819Y-89050309D02*
X163284819Y-89050309D01*
X163284819Y-89050309D02*
X163427676Y-88955071D01*
X163427676Y-88955071D02*
X163522914Y-88859833D01*
X163522914Y-88859833D02*
X163570533Y-88764595D01*
X163618152Y-90193166D02*
X164284819Y-90193166D01*
X163237200Y-89955071D02*
X163951485Y-89716976D01*
X163951485Y-89716976D02*
X163951485Y-90336023D01*
X104964344Y-127982603D02*
X105930270Y-127723784D01*
X105930270Y-127723784D02*
X105868647Y-127493802D01*
X105868647Y-127493802D02*
X105785676Y-127368137D01*
X105785676Y-127368137D02*
X105669034Y-127300794D01*
X105669034Y-127300794D02*
X105564716Y-127279447D01*
X105564716Y-127279447D02*
X105368405Y-127282749D01*
X105368405Y-127282749D02*
X105230416Y-127319723D01*
X105230416Y-127319723D02*
X105058755Y-127415019D01*
X105058755Y-127415019D02*
X104979087Y-127485664D01*
X104979087Y-127485664D02*
X104911743Y-127602307D01*
X104911743Y-127602307D02*
X104902721Y-127752621D01*
X104902721Y-127752621D02*
X104964344Y-127982603D01*
X105591783Y-126828504D02*
X105625455Y-126770183D01*
X105625455Y-126770183D02*
X105646802Y-126665866D01*
X105646802Y-126665866D02*
X105585178Y-126435883D01*
X105585178Y-126435883D02*
X105514532Y-126356215D01*
X105514532Y-126356215D02*
X105456211Y-126322543D01*
X105456211Y-126322543D02*
X105351893Y-126301196D01*
X105351893Y-126301196D02*
X105259900Y-126325846D01*
X105259900Y-126325846D02*
X105134236Y-126408816D01*
X105134236Y-126408816D02*
X104730175Y-127108670D01*
X104730175Y-127108670D02*
X104569953Y-126510716D01*
X105301710Y-125377964D02*
X105424957Y-125837929D01*
X105424957Y-125837929D02*
X104977317Y-126007173D01*
X104977317Y-126007173D02*
X105010989Y-125948851D01*
X105010989Y-125948851D02*
X105032336Y-125844534D01*
X105032336Y-125844534D02*
X104970712Y-125614551D01*
X104970712Y-125614551D02*
X104900066Y-125534883D01*
X104900066Y-125534883D02*
X104841745Y-125501212D01*
X104841745Y-125501212D02*
X104737427Y-125479864D01*
X104737427Y-125479864D02*
X104507445Y-125541488D01*
X104507445Y-125541488D02*
X104427777Y-125612134D01*
X104427777Y-125612134D02*
X104394105Y-125670455D01*
X104394105Y-125670455D02*
X104372758Y-125774773D01*
X104372758Y-125774773D02*
X104434381Y-126004755D01*
X104434381Y-126004755D02*
X104505027Y-126084423D01*
X104505027Y-126084423D02*
X104563349Y-126118095D01*
X145234819Y-45425905D02*
X144234819Y-45425905D01*
X144234819Y-45425905D02*
X144234819Y-45664000D01*
X144234819Y-45664000D02*
X144282438Y-45806857D01*
X144282438Y-45806857D02*
X144377676Y-45902095D01*
X144377676Y-45902095D02*
X144472914Y-45949714D01*
X144472914Y-45949714D02*
X144663390Y-45997333D01*
X144663390Y-45997333D02*
X144806247Y-45997333D01*
X144806247Y-45997333D02*
X144996723Y-45949714D01*
X144996723Y-45949714D02*
X145091961Y-45902095D01*
X145091961Y-45902095D02*
X145187200Y-45806857D01*
X145187200Y-45806857D02*
X145234819Y-45664000D01*
X145234819Y-45664000D02*
X145234819Y-45425905D01*
X144234819Y-46330667D02*
X144234819Y-46949714D01*
X144234819Y-46949714D02*
X144615771Y-46616381D01*
X144615771Y-46616381D02*
X144615771Y-46759238D01*
X144615771Y-46759238D02*
X144663390Y-46854476D01*
X144663390Y-46854476D02*
X144711009Y-46902095D01*
X144711009Y-46902095D02*
X144806247Y-46949714D01*
X144806247Y-46949714D02*
X145044342Y-46949714D01*
X145044342Y-46949714D02*
X145139580Y-46902095D01*
X145139580Y-46902095D02*
X145187200Y-46854476D01*
X145187200Y-46854476D02*
X145234819Y-46759238D01*
X145234819Y-46759238D02*
X145234819Y-46473524D01*
X145234819Y-46473524D02*
X145187200Y-46378286D01*
X145187200Y-46378286D02*
X145139580Y-46330667D01*
X84527801Y-135628951D02*
X85393826Y-135128951D01*
X85393826Y-135128951D02*
X85274778Y-134922755D01*
X85274778Y-134922755D02*
X85162110Y-134822846D01*
X85162110Y-134822846D02*
X85032013Y-134787987D01*
X85032013Y-134787987D02*
X84925725Y-134794367D01*
X84925725Y-134794367D02*
X84736958Y-134848365D01*
X84736958Y-134848365D02*
X84613240Y-134919794D01*
X84613240Y-134919794D02*
X84472092Y-135056271D01*
X84472092Y-135056271D02*
X84413423Y-135145130D01*
X84413423Y-135145130D02*
X84378564Y-135275227D01*
X84378564Y-135275227D02*
X84408753Y-135422755D01*
X84408753Y-135422755D02*
X84527801Y-135628951D01*
X84835157Y-134351784D02*
X84852587Y-134286735D01*
X84852587Y-134286735D02*
X84846207Y-134180447D01*
X84846207Y-134180447D02*
X84727159Y-133974251D01*
X84727159Y-133974251D02*
X84638301Y-133915582D01*
X84638301Y-133915582D02*
X84573252Y-133898152D01*
X84573252Y-133898152D02*
X84466964Y-133904532D01*
X84466964Y-133904532D02*
X84384485Y-133952151D01*
X84384485Y-133952151D02*
X84284577Y-134064819D01*
X84284577Y-134064819D02*
X84075420Y-134845405D01*
X84075420Y-134845405D02*
X83765896Y-134309294D01*
X84203350Y-133066986D02*
X84298588Y-133231943D01*
X84298588Y-133231943D02*
X84304968Y-133338231D01*
X84304968Y-133338231D02*
X84287538Y-133403280D01*
X84287538Y-133403280D02*
X84211439Y-133557187D01*
X84211439Y-133557187D02*
X84070291Y-133693665D01*
X84070291Y-133693665D02*
X83740377Y-133884141D01*
X83740377Y-133884141D02*
X83634089Y-133890521D01*
X83634089Y-133890521D02*
X83569040Y-133873091D01*
X83569040Y-133873091D02*
X83480181Y-133814422D01*
X83480181Y-133814422D02*
X83384943Y-133649465D01*
X83384943Y-133649465D02*
X83378564Y-133543177D01*
X83378564Y-133543177D02*
X83395993Y-133478128D01*
X83395993Y-133478128D02*
X83454662Y-133389269D01*
X83454662Y-133389269D02*
X83660859Y-133270222D01*
X83660859Y-133270222D02*
X83767147Y-133263842D01*
X83767147Y-133263842D02*
X83832196Y-133281272D01*
X83832196Y-133281272D02*
X83921054Y-133339941D01*
X83921054Y-133339941D02*
X84016292Y-133504898D01*
X84016292Y-133504898D02*
X84022672Y-133611186D01*
X84022672Y-133611186D02*
X84005242Y-133676235D01*
X84005242Y-133676235D02*
X83946573Y-133765093D01*
X65547278Y-147049203D02*
X66313322Y-146406416D01*
X66313322Y-146406416D02*
X66160278Y-146224024D01*
X66160278Y-146224024D02*
X66031972Y-146145198D01*
X66031972Y-146145198D02*
X65897798Y-146133460D01*
X65897798Y-146133460D02*
X65794232Y-146158199D01*
X65794232Y-146158199D02*
X65617710Y-146244157D01*
X65617710Y-146244157D02*
X65508275Y-146335983D01*
X65508275Y-146335983D02*
X65392971Y-146494897D01*
X65392971Y-146494897D02*
X65350623Y-146592594D01*
X65350623Y-146592594D02*
X65338885Y-146726768D01*
X65338885Y-146726768D02*
X65394233Y-146866812D01*
X65394233Y-146866812D02*
X65547278Y-147049203D01*
X65628187Y-145738068D02*
X65634056Y-145670980D01*
X65634056Y-145670980D02*
X65609317Y-145567415D01*
X65609317Y-145567415D02*
X65456272Y-145385023D01*
X65456272Y-145385023D02*
X65358576Y-145342676D01*
X65358576Y-145342676D02*
X65291489Y-145336806D01*
X65291489Y-145336806D02*
X65187923Y-145361546D01*
X65187923Y-145361546D02*
X65114966Y-145422764D01*
X65114966Y-145422764D02*
X65036140Y-145551069D01*
X65036140Y-145551069D02*
X64965708Y-146356116D01*
X64965708Y-146356116D02*
X64567792Y-145881898D01*
X65119574Y-144983762D02*
X64691049Y-144473066D01*
X64691049Y-144473066D02*
X64200485Y-145444158D01*
X183334819Y-69238405D02*
X182334819Y-69238405D01*
X182334819Y-69238405D02*
X182334819Y-69476500D01*
X182334819Y-69476500D02*
X182382438Y-69619357D01*
X182382438Y-69619357D02*
X182477676Y-69714595D01*
X182477676Y-69714595D02*
X182572914Y-69762214D01*
X182572914Y-69762214D02*
X182763390Y-69809833D01*
X182763390Y-69809833D02*
X182906247Y-69809833D01*
X182906247Y-69809833D02*
X183096723Y-69762214D01*
X183096723Y-69762214D02*
X183191961Y-69714595D01*
X183191961Y-69714595D02*
X183287200Y-69619357D01*
X183287200Y-69619357D02*
X183334819Y-69476500D01*
X183334819Y-69476500D02*
X183334819Y-69238405D01*
X182334819Y-70143167D02*
X182334819Y-70809833D01*
X182334819Y-70809833D02*
X183334819Y-70381262D01*
X145234819Y-64475905D02*
X144234819Y-64475905D01*
X144234819Y-64475905D02*
X144234819Y-64714000D01*
X144234819Y-64714000D02*
X144282438Y-64856857D01*
X144282438Y-64856857D02*
X144377676Y-64952095D01*
X144377676Y-64952095D02*
X144472914Y-64999714D01*
X144472914Y-64999714D02*
X144663390Y-65047333D01*
X144663390Y-65047333D02*
X144806247Y-65047333D01*
X144806247Y-65047333D02*
X144996723Y-64999714D01*
X144996723Y-64999714D02*
X145091961Y-64952095D01*
X145091961Y-64952095D02*
X145187200Y-64856857D01*
X145187200Y-64856857D02*
X145234819Y-64714000D01*
X145234819Y-64714000D02*
X145234819Y-64475905D01*
X145234819Y-65523524D02*
X145234819Y-65714000D01*
X145234819Y-65714000D02*
X145187200Y-65809238D01*
X145187200Y-65809238D02*
X145139580Y-65856857D01*
X145139580Y-65856857D02*
X144996723Y-65952095D01*
X144996723Y-65952095D02*
X144806247Y-65999714D01*
X144806247Y-65999714D02*
X144425295Y-65999714D01*
X144425295Y-65999714D02*
X144330057Y-65952095D01*
X144330057Y-65952095D02*
X144282438Y-65904476D01*
X144282438Y-65904476D02*
X144234819Y-65809238D01*
X144234819Y-65809238D02*
X144234819Y-65618762D01*
X144234819Y-65618762D02*
X144282438Y-65523524D01*
X144282438Y-65523524D02*
X144330057Y-65475905D01*
X144330057Y-65475905D02*
X144425295Y-65428286D01*
X144425295Y-65428286D02*
X144663390Y-65428286D01*
X144663390Y-65428286D02*
X144758628Y-65475905D01*
X144758628Y-65475905D02*
X144806247Y-65523524D01*
X144806247Y-65523524D02*
X144853866Y-65618762D01*
X144853866Y-65618762D02*
X144853866Y-65809238D01*
X144853866Y-65809238D02*
X144806247Y-65904476D01*
X144806247Y-65904476D02*
X144758628Y-65952095D01*
X144758628Y-65952095D02*
X144663390Y-65999714D01*
X107134819Y-83049714D02*
X106134819Y-83049714D01*
X106134819Y-83049714D02*
X106134819Y-83287809D01*
X106134819Y-83287809D02*
X106182438Y-83430666D01*
X106182438Y-83430666D02*
X106277676Y-83525904D01*
X106277676Y-83525904D02*
X106372914Y-83573523D01*
X106372914Y-83573523D02*
X106563390Y-83621142D01*
X106563390Y-83621142D02*
X106706247Y-83621142D01*
X106706247Y-83621142D02*
X106896723Y-83573523D01*
X106896723Y-83573523D02*
X106991961Y-83525904D01*
X106991961Y-83525904D02*
X107087200Y-83430666D01*
X107087200Y-83430666D02*
X107134819Y-83287809D01*
X107134819Y-83287809D02*
X107134819Y-83049714D01*
X107134819Y-84573523D02*
X107134819Y-84002095D01*
X107134819Y-84287809D02*
X106134819Y-84287809D01*
X106134819Y-84287809D02*
X106277676Y-84192571D01*
X106277676Y-84192571D02*
X106372914Y-84097333D01*
X106372914Y-84097333D02*
X106420533Y-84002095D01*
X106134819Y-84906857D02*
X106134819Y-85573523D01*
X106134819Y-85573523D02*
X107134819Y-85144952D01*
X183334819Y-87812214D02*
X182334819Y-87812214D01*
X182334819Y-87812214D02*
X182334819Y-88050309D01*
X182334819Y-88050309D02*
X182382438Y-88193166D01*
X182382438Y-88193166D02*
X182477676Y-88288404D01*
X182477676Y-88288404D02*
X182572914Y-88336023D01*
X182572914Y-88336023D02*
X182763390Y-88383642D01*
X182763390Y-88383642D02*
X182906247Y-88383642D01*
X182906247Y-88383642D02*
X183096723Y-88336023D01*
X183096723Y-88336023D02*
X183191961Y-88288404D01*
X183191961Y-88288404D02*
X183287200Y-88193166D01*
X183287200Y-88193166D02*
X183334819Y-88050309D01*
X183334819Y-88050309D02*
X183334819Y-87812214D01*
X183334819Y-89336023D02*
X183334819Y-88764595D01*
X183334819Y-89050309D02*
X182334819Y-89050309D01*
X182334819Y-89050309D02*
X182477676Y-88955071D01*
X182477676Y-88955071D02*
X182572914Y-88859833D01*
X182572914Y-88859833D02*
X182620533Y-88764595D01*
X182334819Y-89669357D02*
X182334819Y-90288404D01*
X182334819Y-90288404D02*
X182715771Y-89955071D01*
X182715771Y-89955071D02*
X182715771Y-90097928D01*
X182715771Y-90097928D02*
X182763390Y-90193166D01*
X182763390Y-90193166D02*
X182811009Y-90240785D01*
X182811009Y-90240785D02*
X182906247Y-90288404D01*
X182906247Y-90288404D02*
X183144342Y-90288404D01*
X183144342Y-90288404D02*
X183239580Y-90240785D01*
X183239580Y-90240785D02*
X183287200Y-90193166D01*
X183287200Y-90193166D02*
X183334819Y-90097928D01*
X183334819Y-90097928D02*
X183334819Y-89812214D01*
X183334819Y-89812214D02*
X183287200Y-89716976D01*
X183287200Y-89716976D02*
X183239580Y-89669357D01*
X126184819Y-97337214D02*
X125184819Y-97337214D01*
X125184819Y-97337214D02*
X125184819Y-97575309D01*
X125184819Y-97575309D02*
X125232438Y-97718166D01*
X125232438Y-97718166D02*
X125327676Y-97813404D01*
X125327676Y-97813404D02*
X125422914Y-97861023D01*
X125422914Y-97861023D02*
X125613390Y-97908642D01*
X125613390Y-97908642D02*
X125756247Y-97908642D01*
X125756247Y-97908642D02*
X125946723Y-97861023D01*
X125946723Y-97861023D02*
X126041961Y-97813404D01*
X126041961Y-97813404D02*
X126137200Y-97718166D01*
X126137200Y-97718166D02*
X126184819Y-97575309D01*
X126184819Y-97575309D02*
X126184819Y-97337214D01*
X125280057Y-98289595D02*
X125232438Y-98337214D01*
X125232438Y-98337214D02*
X125184819Y-98432452D01*
X125184819Y-98432452D02*
X125184819Y-98670547D01*
X125184819Y-98670547D02*
X125232438Y-98765785D01*
X125232438Y-98765785D02*
X125280057Y-98813404D01*
X125280057Y-98813404D02*
X125375295Y-98861023D01*
X125375295Y-98861023D02*
X125470533Y-98861023D01*
X125470533Y-98861023D02*
X125613390Y-98813404D01*
X125613390Y-98813404D02*
X126184819Y-98241976D01*
X126184819Y-98241976D02*
X126184819Y-98861023D01*
X125280057Y-99241976D02*
X125232438Y-99289595D01*
X125232438Y-99289595D02*
X125184819Y-99384833D01*
X125184819Y-99384833D02*
X125184819Y-99622928D01*
X125184819Y-99622928D02*
X125232438Y-99718166D01*
X125232438Y-99718166D02*
X125280057Y-99765785D01*
X125280057Y-99765785D02*
X125375295Y-99813404D01*
X125375295Y-99813404D02*
X125470533Y-99813404D01*
X125470533Y-99813404D02*
X125613390Y-99765785D01*
X125613390Y-99765785D02*
X126184819Y-99194357D01*
X126184819Y-99194357D02*
X126184819Y-99813404D01*
%TO.C,SW10*%
D13*
X116329000Y-48915500D02*
X117266000Y-47978500D01*
X117266000Y-47978500D02*
X120013000Y-47978500D01*
X117266000Y-52770500D02*
X116245000Y-51749500D01*
X119913000Y-52770500D02*
X117266000Y-52770500D01*
X120013000Y-47978500D02*
X120416000Y-48058500D01*
X120416000Y-48058500D02*
X120758000Y-48287500D01*
X120475000Y-52875500D02*
X119913000Y-52770500D01*
X120758000Y-48287500D02*
X121291000Y-48820500D01*
X120954000Y-53174500D02*
X120475000Y-52875500D01*
X121291000Y-48820500D02*
X121291000Y-49042500D01*
X121291000Y-49042500D02*
X121378000Y-49480500D01*
X121292000Y-53627500D02*
X120954000Y-53174500D01*
X121378000Y-49480500D02*
X121622000Y-49847500D01*
X121446000Y-54185500D02*
X121292000Y-53627500D01*
X121528000Y-54483500D02*
X121446000Y-54185500D01*
X121622000Y-49847500D02*
X121989000Y-50091500D01*
X121721000Y-54741500D02*
X121528000Y-54483500D01*
X121989000Y-50091500D02*
X122427000Y-50178500D01*
X121995000Y-54911500D02*
X121721000Y-54741500D01*
X122305000Y-54970500D02*
X121995000Y-54911500D01*
X122427000Y-50178500D02*
X125227000Y-50178500D01*
X125227000Y-50178500D02*
X125554000Y-50243500D01*
X125554000Y-50243500D02*
X125837000Y-50432500D01*
X125837000Y-50432500D02*
X126026000Y-50715500D01*
X126026000Y-50715500D02*
X126111000Y-51142500D01*
X126028000Y-54028500D02*
X126391000Y-54028500D01*
X126391000Y-54028500D02*
X126391000Y-54970500D01*
X126391000Y-54970500D02*
X122305000Y-54970500D01*
%TO.C,SW21*%
X135379000Y-91778000D02*
X136316000Y-90841000D01*
X136316000Y-90841000D02*
X139063000Y-90841000D01*
X136316000Y-95633000D02*
X135295000Y-94612000D01*
X138963000Y-95633000D02*
X136316000Y-95633000D01*
X139063000Y-90841000D02*
X139466000Y-90921000D01*
X139466000Y-90921000D02*
X139808000Y-91150000D01*
X139525000Y-95738000D02*
X138963000Y-95633000D01*
X139808000Y-91150000D02*
X140341000Y-91683000D01*
X140004000Y-96037000D02*
X139525000Y-95738000D01*
X140341000Y-91683000D02*
X140341000Y-91905000D01*
X140341000Y-91905000D02*
X140428000Y-92343000D01*
X140342000Y-96490000D02*
X140004000Y-96037000D01*
X140428000Y-92343000D02*
X140672000Y-92710000D01*
X140496000Y-97048000D02*
X140342000Y-96490000D01*
X140578000Y-97346000D02*
X140496000Y-97048000D01*
X140672000Y-92710000D02*
X141039000Y-92954000D01*
X140771000Y-97604000D02*
X140578000Y-97346000D01*
X141039000Y-92954000D02*
X141477000Y-93041000D01*
X141045000Y-97774000D02*
X140771000Y-97604000D01*
X141355000Y-97833000D02*
X141045000Y-97774000D01*
X141477000Y-93041000D02*
X144277000Y-93041000D01*
X144277000Y-93041000D02*
X144604000Y-93106000D01*
X144604000Y-93106000D02*
X144887000Y-93295000D01*
X144887000Y-93295000D02*
X145076000Y-93578000D01*
X145076000Y-93578000D02*
X145161000Y-94005000D01*
X145078000Y-96891000D02*
X145441000Y-96891000D01*
X145441000Y-96891000D02*
X145441000Y-97833000D01*
X145441000Y-97833000D02*
X141355000Y-97833000D01*
%TO.C,SW2*%
X154429000Y-39390500D02*
X155366000Y-38453500D01*
X155366000Y-38453500D02*
X158113000Y-38453500D01*
X155366000Y-43245500D02*
X154345000Y-42224500D01*
X158013000Y-43245500D02*
X155366000Y-43245500D01*
X158113000Y-38453500D02*
X158516000Y-38533500D01*
X158516000Y-38533500D02*
X158858000Y-38762500D01*
X158575000Y-43350500D02*
X158013000Y-43245500D01*
X158858000Y-38762500D02*
X159391000Y-39295500D01*
X159054000Y-43649500D02*
X158575000Y-43350500D01*
X159391000Y-39295500D02*
X159391000Y-39517500D01*
X159391000Y-39517500D02*
X159478000Y-39955500D01*
X159392000Y-44102500D02*
X159054000Y-43649500D01*
X159478000Y-39955500D02*
X159722000Y-40322500D01*
X159546000Y-44660500D02*
X159392000Y-44102500D01*
X159628000Y-44958500D02*
X159546000Y-44660500D01*
X159722000Y-40322500D02*
X160089000Y-40566500D01*
X159821000Y-45216500D02*
X159628000Y-44958500D01*
X160089000Y-40566500D02*
X160527000Y-40653500D01*
X160095000Y-45386500D02*
X159821000Y-45216500D01*
X160405000Y-45445500D02*
X160095000Y-45386500D01*
X160527000Y-40653500D02*
X163327000Y-40653500D01*
X163327000Y-40653500D02*
X163654000Y-40718500D01*
X163654000Y-40718500D02*
X163937000Y-40907500D01*
X163937000Y-40907500D02*
X164126000Y-41190500D01*
X164126000Y-41190500D02*
X164211000Y-41617500D01*
X164128000Y-44503500D02*
X164491000Y-44503500D01*
X164491000Y-44503500D02*
X164491000Y-45445500D01*
X164491000Y-45445500D02*
X160405000Y-45445500D01*
%TO.C,SW24*%
X78229000Y-96540500D02*
X79166000Y-95603500D01*
X79166000Y-95603500D02*
X81913000Y-95603500D01*
X79166000Y-100395500D02*
X78145000Y-99374500D01*
X81813000Y-100395500D02*
X79166000Y-100395500D01*
X81913000Y-95603500D02*
X82316000Y-95683500D01*
X82316000Y-95683500D02*
X82658000Y-95912500D01*
X82375000Y-100500500D02*
X81813000Y-100395500D01*
X82658000Y-95912500D02*
X83191000Y-96445500D01*
X82854000Y-100799500D02*
X82375000Y-100500500D01*
X83191000Y-96445500D02*
X83191000Y-96667500D01*
X83191000Y-96667500D02*
X83278000Y-97105500D01*
X83192000Y-101252500D02*
X82854000Y-100799500D01*
X83278000Y-97105500D02*
X83522000Y-97472500D01*
X83346000Y-101810500D02*
X83192000Y-101252500D01*
X83428000Y-102108500D02*
X83346000Y-101810500D01*
X83522000Y-97472500D02*
X83889000Y-97716500D01*
X83621000Y-102366500D02*
X83428000Y-102108500D01*
X83889000Y-97716500D02*
X84327000Y-97803500D01*
X83895000Y-102536500D02*
X83621000Y-102366500D01*
X84205000Y-102595500D02*
X83895000Y-102536500D01*
X84327000Y-97803500D02*
X87127000Y-97803500D01*
X87127000Y-97803500D02*
X87454000Y-97868500D01*
X87454000Y-97868500D02*
X87737000Y-98057500D01*
X87737000Y-98057500D02*
X87926000Y-98340500D01*
X87926000Y-98340500D02*
X88011000Y-98767500D01*
X87928000Y-101653500D02*
X88291000Y-101653500D01*
X88291000Y-101653500D02*
X88291000Y-102595500D01*
X88291000Y-102595500D02*
X84205000Y-102595500D01*
%TO.C,SW27*%
X50498380Y-143032413D02*
X50613872Y-141712337D01*
X50613872Y-141712337D02*
X52718196Y-139946599D01*
X52718196Y-139946599D02*
X53078335Y-139748840D01*
X53078335Y-139748840D02*
X53487520Y-139704430D01*
X53487520Y-139704430D02*
X54238428Y-139770126D01*
X53694110Y-145383222D02*
X52255693Y-145257377D01*
X54238428Y-139770126D02*
X54381127Y-139940188D01*
X54381127Y-139940188D02*
X54729314Y-140219793D01*
X54729314Y-140219793D02*
X55152132Y-140344091D01*
X55152132Y-140344091D02*
X55590110Y-140295103D01*
X55590110Y-140295103D02*
X55981560Y-140080208D01*
X55721830Y-143681763D02*
X53694110Y-145383222D01*
X55981560Y-140080208D02*
X58126484Y-138280403D01*
X56219839Y-143400951D02*
X55721830Y-143681763D01*
X56778968Y-143322103D02*
X56219839Y-143400951D01*
X57329074Y-143451859D02*
X56778968Y-143322103D01*
X57805720Y-143780323D02*
X57329074Y-143451859D01*
X58060087Y-143955895D02*
X57805720Y-143780323D01*
X58126484Y-138280403D02*
X58418762Y-138120004D01*
X58373772Y-144029477D02*
X58060087Y-143955895D01*
X58418762Y-138120004D02*
X58757040Y-138082877D01*
X58692943Y-143983580D02*
X58373772Y-144029477D01*
X58757040Y-138082877D02*
X59083731Y-138178181D01*
X58968341Y-143829513D02*
X58692943Y-143983580D01*
X59083731Y-138178181D02*
X59423315Y-138450645D01*
X61214818Y-140714801D02*
X61492892Y-140481469D01*
X61492892Y-140481469D02*
X62098398Y-141203083D01*
X62098398Y-141203083D02*
X58968341Y-143829513D01*
%TO.C,SW3*%
X135379000Y-34628000D02*
X136316000Y-33691000D01*
X136316000Y-33691000D02*
X139063000Y-33691000D01*
X136316000Y-38483000D02*
X135295000Y-37462000D01*
X138963000Y-38483000D02*
X136316000Y-38483000D01*
X139063000Y-33691000D02*
X139466000Y-33771000D01*
X139466000Y-33771000D02*
X139808000Y-34000000D01*
X139525000Y-38588000D02*
X138963000Y-38483000D01*
X139808000Y-34000000D02*
X140341000Y-34533000D01*
X140004000Y-38887000D02*
X139525000Y-38588000D01*
X140341000Y-34533000D02*
X140341000Y-34755000D01*
X140341000Y-34755000D02*
X140428000Y-35193000D01*
X140342000Y-39340000D02*
X140004000Y-38887000D01*
X140428000Y-35193000D02*
X140672000Y-35560000D01*
X140496000Y-39898000D02*
X140342000Y-39340000D01*
X140578000Y-40196000D02*
X140496000Y-39898000D01*
X140672000Y-35560000D02*
X141039000Y-35804000D01*
X140771000Y-40454000D02*
X140578000Y-40196000D01*
X141039000Y-35804000D02*
X141477000Y-35891000D01*
X141045000Y-40624000D02*
X140771000Y-40454000D01*
X141355000Y-40683000D02*
X141045000Y-40624000D01*
X141477000Y-35891000D02*
X144277000Y-35891000D01*
X144277000Y-35891000D02*
X144604000Y-35956000D01*
X144604000Y-35956000D02*
X144887000Y-36145000D01*
X144887000Y-36145000D02*
X145076000Y-36428000D01*
X145076000Y-36428000D02*
X145161000Y-36855000D01*
X145078000Y-39741000D02*
X145441000Y-39741000D01*
X145441000Y-39741000D02*
X145441000Y-40683000D01*
X145441000Y-40683000D02*
X141355000Y-40683000D01*
%TO.C,SW25*%
X93022981Y-117982216D02*
X93685540Y-116834630D01*
X93685540Y-116834630D02*
X96338938Y-116123655D01*
X94925801Y-121463347D02*
X93675336Y-120741391D01*
X96338938Y-116123655D02*
X96748912Y-116096624D01*
X96748912Y-116096624D02*
X97138528Y-116229305D01*
X97138528Y-116229305D02*
X97791317Y-116606193D01*
X97482606Y-120778253D02*
X94925801Y-121463347D01*
X97791317Y-116606193D02*
X97848775Y-116820629D01*
X97848775Y-116820629D02*
X98046173Y-117221187D01*
X98046173Y-117221187D02*
X98376846Y-117512530D01*
X98052633Y-120734219D02*
X97482606Y-120778253D01*
X98376846Y-117512530D02*
X98794492Y-117653229D01*
X98592698Y-120899056D02*
X98052633Y-120734219D01*
X98794492Y-117653229D02*
X99240085Y-117623902D01*
X99036426Y-121249140D02*
X98592698Y-120899056D01*
X99240085Y-117623902D02*
X101944677Y-116899209D01*
X99329600Y-121748268D02*
X99036426Y-121249140D01*
X99485934Y-122014891D02*
X99329600Y-121748268D01*
X99739133Y-122214148D02*
X99485934Y-122014891D01*
X100047796Y-122307439D02*
X99739133Y-122214148D01*
X100362503Y-122284195D02*
X100047796Y-122307439D01*
X101944677Y-116899209D02*
X102277358Y-116877360D01*
X102277358Y-116877360D02*
X102599632Y-116986674D01*
X102599632Y-116986674D02*
X102855438Y-117211115D01*
X102855438Y-117211115D02*
X103048057Y-117601565D01*
X103714837Y-120410709D02*
X104065468Y-120316758D01*
X104065468Y-120316758D02*
X104309276Y-121226660D01*
X104309276Y-121226660D02*
X100362503Y-122284195D01*
%TO.C,SW7*%
X173479000Y-58440500D02*
X174416000Y-57503500D01*
X174416000Y-57503500D02*
X177163000Y-57503500D01*
X174416000Y-62295500D02*
X173395000Y-61274500D01*
X177063000Y-62295500D02*
X174416000Y-62295500D01*
X177163000Y-57503500D02*
X177566000Y-57583500D01*
X177566000Y-57583500D02*
X177908000Y-57812500D01*
X177625000Y-62400500D02*
X177063000Y-62295500D01*
X177908000Y-57812500D02*
X178441000Y-58345500D01*
X178104000Y-62699500D02*
X177625000Y-62400500D01*
X178441000Y-58345500D02*
X178441000Y-58567500D01*
X178441000Y-58567500D02*
X178528000Y-59005500D01*
X178442000Y-63152500D02*
X178104000Y-62699500D01*
X178528000Y-59005500D02*
X178772000Y-59372500D01*
X178596000Y-63710500D02*
X178442000Y-63152500D01*
X178678000Y-64008500D02*
X178596000Y-63710500D01*
X178772000Y-59372500D02*
X179139000Y-59616500D01*
X178871000Y-64266500D02*
X178678000Y-64008500D01*
X179139000Y-59616500D02*
X179577000Y-59703500D01*
X179145000Y-64436500D02*
X178871000Y-64266500D01*
X179455000Y-64495500D02*
X179145000Y-64436500D01*
X179577000Y-59703500D02*
X182377000Y-59703500D01*
X182377000Y-59703500D02*
X182704000Y-59768500D01*
X182704000Y-59768500D02*
X182987000Y-59957500D01*
X182987000Y-59957500D02*
X183176000Y-60240500D01*
X183176000Y-60240500D02*
X183261000Y-60667500D01*
X183178000Y-63553500D02*
X183541000Y-63553500D01*
X183541000Y-63553500D02*
X183541000Y-64495500D01*
X183541000Y-64495500D02*
X179455000Y-64495500D01*
%TO.C,SW17*%
X97279000Y-72728000D02*
X98216000Y-71791000D01*
X98216000Y-71791000D02*
X100963000Y-71791000D01*
X98216000Y-76583000D02*
X97195000Y-75562000D01*
X100863000Y-76583000D02*
X98216000Y-76583000D01*
X100963000Y-71791000D02*
X101366000Y-71871000D01*
X101366000Y-71871000D02*
X101708000Y-72100000D01*
X101425000Y-76688000D02*
X100863000Y-76583000D01*
X101708000Y-72100000D02*
X102241000Y-72633000D01*
X101904000Y-76987000D02*
X101425000Y-76688000D01*
X102241000Y-72633000D02*
X102241000Y-72855000D01*
X102241000Y-72855000D02*
X102328000Y-73293000D01*
X102242000Y-77440000D02*
X101904000Y-76987000D01*
X102328000Y-73293000D02*
X102572000Y-73660000D01*
X102396000Y-77998000D02*
X102242000Y-77440000D01*
X102478000Y-78296000D02*
X102396000Y-77998000D01*
X102572000Y-73660000D02*
X102939000Y-73904000D01*
X102671000Y-78554000D02*
X102478000Y-78296000D01*
X102939000Y-73904000D02*
X103377000Y-73991000D01*
X102945000Y-78724000D02*
X102671000Y-78554000D01*
X103255000Y-78783000D02*
X102945000Y-78724000D01*
X103377000Y-73991000D02*
X106177000Y-73991000D01*
X106177000Y-73991000D02*
X106504000Y-74056000D01*
X106504000Y-74056000D02*
X106787000Y-74245000D01*
X106787000Y-74245000D02*
X106976000Y-74528000D01*
X106976000Y-74528000D02*
X107061000Y-74955000D01*
X106978000Y-77841000D02*
X107341000Y-77841000D01*
X107341000Y-77841000D02*
X107341000Y-78783000D01*
X107341000Y-78783000D02*
X103255000Y-78783000D01*
%TO.C,SW16*%
X116329000Y-67965500D02*
X117266000Y-67028500D01*
X117266000Y-67028500D02*
X120013000Y-67028500D01*
X117266000Y-71820500D02*
X116245000Y-70799500D01*
X119913000Y-71820500D02*
X117266000Y-71820500D01*
X120013000Y-67028500D02*
X120416000Y-67108500D01*
X120416000Y-67108500D02*
X120758000Y-67337500D01*
X120475000Y-71925500D02*
X119913000Y-71820500D01*
X120758000Y-67337500D02*
X121291000Y-67870500D01*
X120954000Y-72224500D02*
X120475000Y-71925500D01*
X121291000Y-67870500D02*
X121291000Y-68092500D01*
X121291000Y-68092500D02*
X121378000Y-68530500D01*
X121292000Y-72677500D02*
X120954000Y-72224500D01*
X121378000Y-68530500D02*
X121622000Y-68897500D01*
X121446000Y-73235500D02*
X121292000Y-72677500D01*
X121528000Y-73533500D02*
X121446000Y-73235500D01*
X121622000Y-68897500D02*
X121989000Y-69141500D01*
X121721000Y-73791500D02*
X121528000Y-73533500D01*
X121989000Y-69141500D02*
X122427000Y-69228500D01*
X121995000Y-73961500D02*
X121721000Y-73791500D01*
X122305000Y-74020500D02*
X121995000Y-73961500D01*
X122427000Y-69228500D02*
X125227000Y-69228500D01*
X125227000Y-69228500D02*
X125554000Y-69293500D01*
X125554000Y-69293500D02*
X125837000Y-69482500D01*
X125837000Y-69482500D02*
X126026000Y-69765500D01*
X126026000Y-69765500D02*
X126111000Y-70192500D01*
X126028000Y-73078500D02*
X126391000Y-73078500D01*
X126391000Y-73078500D02*
X126391000Y-74020500D01*
X126391000Y-74020500D02*
X122305000Y-74020500D01*
%TO.C,SW8*%
X154429000Y-58440500D02*
X155366000Y-57503500D01*
X155366000Y-57503500D02*
X158113000Y-57503500D01*
X155366000Y-62295500D02*
X154345000Y-61274500D01*
X158013000Y-62295500D02*
X155366000Y-62295500D01*
X158113000Y-57503500D02*
X158516000Y-57583500D01*
X158516000Y-57583500D02*
X158858000Y-57812500D01*
X158575000Y-62400500D02*
X158013000Y-62295500D01*
X158858000Y-57812500D02*
X159391000Y-58345500D01*
X159054000Y-62699500D02*
X158575000Y-62400500D01*
X159391000Y-58345500D02*
X159391000Y-58567500D01*
X159391000Y-58567500D02*
X159478000Y-59005500D01*
X159392000Y-63152500D02*
X159054000Y-62699500D01*
X159478000Y-59005500D02*
X159722000Y-59372500D01*
X159546000Y-63710500D02*
X159392000Y-63152500D01*
X159628000Y-64008500D02*
X159546000Y-63710500D01*
X159722000Y-59372500D02*
X160089000Y-59616500D01*
X159821000Y-64266500D02*
X159628000Y-64008500D01*
X160089000Y-59616500D02*
X160527000Y-59703500D01*
X160095000Y-64436500D02*
X159821000Y-64266500D01*
X160405000Y-64495500D02*
X160095000Y-64436500D01*
X160527000Y-59703500D02*
X163327000Y-59703500D01*
X163327000Y-59703500D02*
X163654000Y-59768500D01*
X163654000Y-59768500D02*
X163937000Y-59957500D01*
X163937000Y-59957500D02*
X164126000Y-60240500D01*
X164126000Y-60240500D02*
X164211000Y-60667500D01*
X164128000Y-63553500D02*
X164491000Y-63553500D01*
X164491000Y-63553500D02*
X164491000Y-64495500D01*
X164491000Y-64495500D02*
X160405000Y-64495500D01*
%TO.C,SW14*%
X154429000Y-77490500D02*
X155366000Y-76553500D01*
X155366000Y-76553500D02*
X158113000Y-76553500D01*
X155366000Y-81345500D02*
X154345000Y-80324500D01*
X158013000Y-81345500D02*
X155366000Y-81345500D01*
X158113000Y-76553500D02*
X158516000Y-76633500D01*
X158516000Y-76633500D02*
X158858000Y-76862500D01*
X158575000Y-81450500D02*
X158013000Y-81345500D01*
X158858000Y-76862500D02*
X159391000Y-77395500D01*
X159054000Y-81749500D02*
X158575000Y-81450500D01*
X159391000Y-77395500D02*
X159391000Y-77617500D01*
X159391000Y-77617500D02*
X159478000Y-78055500D01*
X159392000Y-82202500D02*
X159054000Y-81749500D01*
X159478000Y-78055500D02*
X159722000Y-78422500D01*
X159546000Y-82760500D02*
X159392000Y-82202500D01*
X159628000Y-83058500D02*
X159546000Y-82760500D01*
X159722000Y-78422500D02*
X160089000Y-78666500D01*
X159821000Y-83316500D02*
X159628000Y-83058500D01*
X160089000Y-78666500D02*
X160527000Y-78753500D01*
X160095000Y-83486500D02*
X159821000Y-83316500D01*
X160405000Y-83545500D02*
X160095000Y-83486500D01*
X160527000Y-78753500D02*
X163327000Y-78753500D01*
X163327000Y-78753500D02*
X163654000Y-78818500D01*
X163654000Y-78818500D02*
X163937000Y-79007500D01*
X163937000Y-79007500D02*
X164126000Y-79290500D01*
X164126000Y-79290500D02*
X164211000Y-79717500D01*
X164128000Y-82603500D02*
X164491000Y-82603500D01*
X164491000Y-82603500D02*
X164491000Y-83545500D01*
X164491000Y-83545500D02*
X160405000Y-83545500D01*
%TO.C,SW23*%
X97279000Y-91778000D02*
X98216000Y-90841000D01*
X98216000Y-90841000D02*
X100963000Y-90841000D01*
X98216000Y-95633000D02*
X97195000Y-94612000D01*
X100863000Y-95633000D02*
X98216000Y-95633000D01*
X100963000Y-90841000D02*
X101366000Y-90921000D01*
X101366000Y-90921000D02*
X101708000Y-91150000D01*
X101425000Y-95738000D02*
X100863000Y-95633000D01*
X101708000Y-91150000D02*
X102241000Y-91683000D01*
X101904000Y-96037000D02*
X101425000Y-95738000D01*
X102241000Y-91683000D02*
X102241000Y-91905000D01*
X102241000Y-91905000D02*
X102328000Y-92343000D01*
X102242000Y-96490000D02*
X101904000Y-96037000D01*
X102328000Y-92343000D02*
X102572000Y-92710000D01*
X102396000Y-97048000D02*
X102242000Y-96490000D01*
X102478000Y-97346000D02*
X102396000Y-97048000D01*
X102572000Y-92710000D02*
X102939000Y-92954000D01*
X102671000Y-97604000D02*
X102478000Y-97346000D01*
X102939000Y-92954000D02*
X103377000Y-93041000D01*
X102945000Y-97774000D02*
X102671000Y-97604000D01*
X103255000Y-97833000D02*
X102945000Y-97774000D01*
X103377000Y-93041000D02*
X106177000Y-93041000D01*
X106177000Y-93041000D02*
X106504000Y-93106000D01*
X106504000Y-93106000D02*
X106787000Y-93295000D01*
X106787000Y-93295000D02*
X106976000Y-93578000D01*
X106976000Y-93578000D02*
X107061000Y-94005000D01*
X106978000Y-96891000D02*
X107341000Y-96891000D01*
X107341000Y-96891000D02*
X107341000Y-97833000D01*
X107341000Y-97833000D02*
X103255000Y-97833000D01*
%TO.C,SW18*%
X78229000Y-77490500D02*
X79166000Y-76553500D01*
X79166000Y-76553500D02*
X81913000Y-76553500D01*
X79166000Y-81345500D02*
X78145000Y-80324500D01*
X81813000Y-81345500D02*
X79166000Y-81345500D01*
X81913000Y-76553500D02*
X82316000Y-76633500D01*
X82316000Y-76633500D02*
X82658000Y-76862500D01*
X82375000Y-81450500D02*
X81813000Y-81345500D01*
X82658000Y-76862500D02*
X83191000Y-77395500D01*
X82854000Y-81749500D02*
X82375000Y-81450500D01*
X83191000Y-77395500D02*
X83191000Y-77617500D01*
X83191000Y-77617500D02*
X83278000Y-78055500D01*
X83192000Y-82202500D02*
X82854000Y-81749500D01*
X83278000Y-78055500D02*
X83522000Y-78422500D01*
X83346000Y-82760500D02*
X83192000Y-82202500D01*
X83428000Y-83058500D02*
X83346000Y-82760500D01*
X83522000Y-78422500D02*
X83889000Y-78666500D01*
X83621000Y-83316500D02*
X83428000Y-83058500D01*
X83889000Y-78666500D02*
X84327000Y-78753500D01*
X83895000Y-83486500D02*
X83621000Y-83316500D01*
X84205000Y-83545500D02*
X83895000Y-83486500D01*
X84327000Y-78753500D02*
X87127000Y-78753500D01*
X87127000Y-78753500D02*
X87454000Y-78818500D01*
X87454000Y-78818500D02*
X87737000Y-79007500D01*
X87737000Y-79007500D02*
X87926000Y-79290500D01*
X87926000Y-79290500D02*
X88011000Y-79717500D01*
X87928000Y-82603500D02*
X88291000Y-82603500D01*
X88291000Y-82603500D02*
X88291000Y-83545500D01*
X88291000Y-83545500D02*
X84205000Y-83545500D01*
%TO.C,SW4*%
X116329000Y-29865500D02*
X117266000Y-28928500D01*
X117266000Y-28928500D02*
X120013000Y-28928500D01*
X117266000Y-33720500D02*
X116245000Y-32699500D01*
X119913000Y-33720500D02*
X117266000Y-33720500D01*
X120013000Y-28928500D02*
X120416000Y-29008500D01*
X120416000Y-29008500D02*
X120758000Y-29237500D01*
X120475000Y-33825500D02*
X119913000Y-33720500D01*
X120758000Y-29237500D02*
X121291000Y-29770500D01*
X120954000Y-34124500D02*
X120475000Y-33825500D01*
X121291000Y-29770500D02*
X121291000Y-29992500D01*
X121291000Y-29992500D02*
X121378000Y-30430500D01*
X121292000Y-34577500D02*
X120954000Y-34124500D01*
X121378000Y-30430500D02*
X121622000Y-30797500D01*
X121446000Y-35135500D02*
X121292000Y-34577500D01*
X121528000Y-35433500D02*
X121446000Y-35135500D01*
X121622000Y-30797500D02*
X121989000Y-31041500D01*
X121721000Y-35691500D02*
X121528000Y-35433500D01*
X121989000Y-31041500D02*
X122427000Y-31128500D01*
X121995000Y-35861500D02*
X121721000Y-35691500D01*
X122305000Y-35920500D02*
X121995000Y-35861500D01*
X122427000Y-31128500D02*
X125227000Y-31128500D01*
X125227000Y-31128500D02*
X125554000Y-31193500D01*
X125554000Y-31193500D02*
X125837000Y-31382500D01*
X125837000Y-31382500D02*
X126026000Y-31665500D01*
X126026000Y-31665500D02*
X126111000Y-32092500D01*
X126028000Y-34978500D02*
X126391000Y-34978500D01*
X126391000Y-34978500D02*
X126391000Y-35920500D01*
X126391000Y-35920500D02*
X122305000Y-35920500D01*
%TO.C,SW26*%
X70405039Y-129059972D02*
X70748004Y-127780006D01*
X70748004Y-127780006D02*
X73126976Y-126406506D01*
X73126976Y-126406506D02*
X73515984Y-126274288D01*
X73144004Y-131930000D02*
X71749292Y-131556288D01*
X73515984Y-126274288D02*
X73926665Y-126301608D01*
X73926665Y-126301608D02*
X74654757Y-126496699D01*
X74654757Y-126496699D02*
X74765757Y-126688957D01*
X74765757Y-126688957D02*
X75060101Y-127024776D01*
X75060101Y-127024776D02*
X75454911Y-127220607D01*
X75436374Y-130606500D02*
X73144004Y-131930000D01*
X75454911Y-127220607D02*
X75894742Y-127248418D01*
X75894742Y-127248418D02*
X76317562Y-127104762D01*
X75975580Y-130416432D02*
X75436374Y-130606500D01*
X76317562Y-127104762D02*
X78742433Y-125704762D01*
X76539906Y-130435874D02*
X75975580Y-130416432D01*
X77059123Y-130659183D02*
X76539906Y-130435874D01*
X77471491Y-131065426D02*
X77059123Y-130659183D01*
X77691505Y-131282501D02*
X77471491Y-131065426D01*
X77987648Y-131409436D02*
X77691505Y-131282501D01*
X78309939Y-131419660D02*
X77987648Y-131409436D01*
X78607906Y-131315756D02*
X78309939Y-131419660D01*
X78742433Y-125704762D02*
X79058123Y-125597554D01*
X79058123Y-125597554D02*
X79397708Y-125619732D01*
X79397708Y-125619732D02*
X79702887Y-125770318D01*
X79702887Y-125770318D02*
X79989999Y-126097610D01*
X81361119Y-128638460D02*
X81675486Y-128456960D01*
X81675486Y-128456960D02*
X82146486Y-129272756D01*
X82146486Y-129272756D02*
X78607906Y-131315756D01*
%TO.C,SW11*%
X97279000Y-53678000D02*
X98216000Y-52741000D01*
X98216000Y-52741000D02*
X100963000Y-52741000D01*
X98216000Y-57533000D02*
X97195000Y-56512000D01*
X100863000Y-57533000D02*
X98216000Y-57533000D01*
X100963000Y-52741000D02*
X101366000Y-52821000D01*
X101366000Y-52821000D02*
X101708000Y-53050000D01*
X101425000Y-57638000D02*
X100863000Y-57533000D01*
X101708000Y-53050000D02*
X102241000Y-53583000D01*
X101904000Y-57937000D02*
X101425000Y-57638000D01*
X102241000Y-53583000D02*
X102241000Y-53805000D01*
X102241000Y-53805000D02*
X102328000Y-54243000D01*
X102242000Y-58390000D02*
X101904000Y-57937000D01*
X102328000Y-54243000D02*
X102572000Y-54610000D01*
X102396000Y-58948000D02*
X102242000Y-58390000D01*
X102478000Y-59246000D02*
X102396000Y-58948000D01*
X102572000Y-54610000D02*
X102939000Y-54854000D01*
X102671000Y-59504000D02*
X102478000Y-59246000D01*
X102939000Y-54854000D02*
X103377000Y-54941000D01*
X102945000Y-59674000D02*
X102671000Y-59504000D01*
X103255000Y-59733000D02*
X102945000Y-59674000D01*
X103377000Y-54941000D02*
X106177000Y-54941000D01*
X106177000Y-54941000D02*
X106504000Y-55006000D01*
X106504000Y-55006000D02*
X106787000Y-55195000D01*
X106787000Y-55195000D02*
X106976000Y-55478000D01*
X106976000Y-55478000D02*
X107061000Y-55905000D01*
X106978000Y-58791000D02*
X107341000Y-58791000D01*
X107341000Y-58791000D02*
X107341000Y-59733000D01*
X107341000Y-59733000D02*
X103255000Y-59733000D01*
%TO.C,SW5*%
X97279000Y-34628000D02*
X98216000Y-33691000D01*
X98216000Y-33691000D02*
X100963000Y-33691000D01*
X98216000Y-38483000D02*
X97195000Y-37462000D01*
X100863000Y-38483000D02*
X98216000Y-38483000D01*
X100963000Y-33691000D02*
X101366000Y-33771000D01*
X101366000Y-33771000D02*
X101708000Y-34000000D01*
X101425000Y-38588000D02*
X100863000Y-38483000D01*
X101708000Y-34000000D02*
X102241000Y-34533000D01*
X101904000Y-38887000D02*
X101425000Y-38588000D01*
X102241000Y-34533000D02*
X102241000Y-34755000D01*
X102241000Y-34755000D02*
X102328000Y-35193000D01*
X102242000Y-39340000D02*
X101904000Y-38887000D01*
X102328000Y-35193000D02*
X102572000Y-35560000D01*
X102396000Y-39898000D02*
X102242000Y-39340000D01*
X102478000Y-40196000D02*
X102396000Y-39898000D01*
X102572000Y-35560000D02*
X102939000Y-35804000D01*
X102671000Y-40454000D02*
X102478000Y-40196000D01*
X102939000Y-35804000D02*
X103377000Y-35891000D01*
X102945000Y-40624000D02*
X102671000Y-40454000D01*
X103255000Y-40683000D02*
X102945000Y-40624000D01*
X103377000Y-35891000D02*
X106177000Y-35891000D01*
X106177000Y-35891000D02*
X106504000Y-35956000D01*
X106504000Y-35956000D02*
X106787000Y-36145000D01*
X106787000Y-36145000D02*
X106976000Y-36428000D01*
X106976000Y-36428000D02*
X107061000Y-36855000D01*
X106978000Y-39741000D02*
X107341000Y-39741000D01*
X107341000Y-39741000D02*
X107341000Y-40683000D01*
X107341000Y-40683000D02*
X103255000Y-40683000D01*
%TO.C,SW13*%
X173479000Y-77490500D02*
X174416000Y-76553500D01*
X174416000Y-76553500D02*
X177163000Y-76553500D01*
X174416000Y-81345500D02*
X173395000Y-80324500D01*
X177063000Y-81345500D02*
X174416000Y-81345500D01*
X177163000Y-76553500D02*
X177566000Y-76633500D01*
X177566000Y-76633500D02*
X177908000Y-76862500D01*
X177625000Y-81450500D02*
X177063000Y-81345500D01*
X177908000Y-76862500D02*
X178441000Y-77395500D01*
X178104000Y-81749500D02*
X177625000Y-81450500D01*
X178441000Y-77395500D02*
X178441000Y-77617500D01*
X178441000Y-77617500D02*
X178528000Y-78055500D01*
X178442000Y-82202500D02*
X178104000Y-81749500D01*
X178528000Y-78055500D02*
X178772000Y-78422500D01*
X178596000Y-82760500D02*
X178442000Y-82202500D01*
X178678000Y-83058500D02*
X178596000Y-82760500D01*
X178772000Y-78422500D02*
X179139000Y-78666500D01*
X178871000Y-83316500D02*
X178678000Y-83058500D01*
X179139000Y-78666500D02*
X179577000Y-78753500D01*
X179145000Y-83486500D02*
X178871000Y-83316500D01*
X179455000Y-83545500D02*
X179145000Y-83486500D01*
X179577000Y-78753500D02*
X182377000Y-78753500D01*
X182377000Y-78753500D02*
X182704000Y-78818500D01*
X182704000Y-78818500D02*
X182987000Y-79007500D01*
X182987000Y-79007500D02*
X183176000Y-79290500D01*
X183176000Y-79290500D02*
X183261000Y-79717500D01*
X183178000Y-82603500D02*
X183541000Y-82603500D01*
X183541000Y-82603500D02*
X183541000Y-83545500D01*
X183541000Y-83545500D02*
X179455000Y-83545500D01*
%TO.C,SW22*%
X116329000Y-87015500D02*
X117266000Y-86078500D01*
X117266000Y-86078500D02*
X120013000Y-86078500D01*
X117266000Y-90870500D02*
X116245000Y-89849500D01*
X119913000Y-90870500D02*
X117266000Y-90870500D01*
X120013000Y-86078500D02*
X120416000Y-86158500D01*
X120416000Y-86158500D02*
X120758000Y-86387500D01*
X120475000Y-90975500D02*
X119913000Y-90870500D01*
X120758000Y-86387500D02*
X121291000Y-86920500D01*
X120954000Y-91274500D02*
X120475000Y-90975500D01*
X121291000Y-86920500D02*
X121291000Y-87142500D01*
X121291000Y-87142500D02*
X121378000Y-87580500D01*
X121292000Y-91727500D02*
X120954000Y-91274500D01*
X121378000Y-87580500D02*
X121622000Y-87947500D01*
X121446000Y-92285500D02*
X121292000Y-91727500D01*
X121528000Y-92583500D02*
X121446000Y-92285500D01*
X121622000Y-87947500D02*
X121989000Y-88191500D01*
X121721000Y-92841500D02*
X121528000Y-92583500D01*
X121989000Y-88191500D02*
X122427000Y-88278500D01*
X121995000Y-93011500D02*
X121721000Y-92841500D01*
X122305000Y-93070500D02*
X121995000Y-93011500D01*
X122427000Y-88278500D02*
X125227000Y-88278500D01*
X125227000Y-88278500D02*
X125554000Y-88343500D01*
X125554000Y-88343500D02*
X125837000Y-88532500D01*
X125837000Y-88532500D02*
X126026000Y-88815500D01*
X126026000Y-88815500D02*
X126111000Y-89242500D01*
X126028000Y-92128500D02*
X126391000Y-92128500D01*
X126391000Y-92128500D02*
X126391000Y-93070500D01*
X126391000Y-93070500D02*
X122305000Y-93070500D01*
%TO.C,SW12*%
X78229000Y-58440500D02*
X79166000Y-57503500D01*
X79166000Y-57503500D02*
X81913000Y-57503500D01*
X79166000Y-62295500D02*
X78145000Y-61274500D01*
X81813000Y-62295500D02*
X79166000Y-62295500D01*
X81913000Y-57503500D02*
X82316000Y-57583500D01*
X82316000Y-57583500D02*
X82658000Y-57812500D01*
X82375000Y-62400500D02*
X81813000Y-62295500D01*
X82658000Y-57812500D02*
X83191000Y-58345500D01*
X82854000Y-62699500D02*
X82375000Y-62400500D01*
X83191000Y-58345500D02*
X83191000Y-58567500D01*
X83191000Y-58567500D02*
X83278000Y-59005500D01*
X83192000Y-63152500D02*
X82854000Y-62699500D01*
X83278000Y-59005500D02*
X83522000Y-59372500D01*
X83346000Y-63710500D02*
X83192000Y-63152500D01*
X83428000Y-64008500D02*
X83346000Y-63710500D01*
X83522000Y-59372500D02*
X83889000Y-59616500D01*
X83621000Y-64266500D02*
X83428000Y-64008500D01*
X83889000Y-59616500D02*
X84327000Y-59703500D01*
X83895000Y-64436500D02*
X83621000Y-64266500D01*
X84205000Y-64495500D02*
X83895000Y-64436500D01*
X84327000Y-59703500D02*
X87127000Y-59703500D01*
X87127000Y-59703500D02*
X87454000Y-59768500D01*
X87454000Y-59768500D02*
X87737000Y-59957500D01*
X87737000Y-59957500D02*
X87926000Y-60240500D01*
X87926000Y-60240500D02*
X88011000Y-60667500D01*
X87928000Y-63553500D02*
X88291000Y-63553500D01*
X88291000Y-63553500D02*
X88291000Y-64495500D01*
X88291000Y-64495500D02*
X84205000Y-64495500D01*
%TO.C,SW6*%
X78229000Y-39390500D02*
X79166000Y-38453500D01*
X79166000Y-38453500D02*
X81913000Y-38453500D01*
X79166000Y-43245500D02*
X78145000Y-42224500D01*
X81813000Y-43245500D02*
X79166000Y-43245500D01*
X81913000Y-38453500D02*
X82316000Y-38533500D01*
X82316000Y-38533500D02*
X82658000Y-38762500D01*
X82375000Y-43350500D02*
X81813000Y-43245500D01*
X82658000Y-38762500D02*
X83191000Y-39295500D01*
X82854000Y-43649500D02*
X82375000Y-43350500D01*
X83191000Y-39295500D02*
X83191000Y-39517500D01*
X83191000Y-39517500D02*
X83278000Y-39955500D01*
X83192000Y-44102500D02*
X82854000Y-43649500D01*
X83278000Y-39955500D02*
X83522000Y-40322500D01*
X83346000Y-44660500D02*
X83192000Y-44102500D01*
X83428000Y-44958500D02*
X83346000Y-44660500D01*
X83522000Y-40322500D02*
X83889000Y-40566500D01*
X83621000Y-45216500D02*
X83428000Y-44958500D01*
X83889000Y-40566500D02*
X84327000Y-40653500D01*
X83895000Y-45386500D02*
X83621000Y-45216500D01*
X84205000Y-45445500D02*
X83895000Y-45386500D01*
X84327000Y-40653500D02*
X87127000Y-40653500D01*
X87127000Y-40653500D02*
X87454000Y-40718500D01*
X87454000Y-40718500D02*
X87737000Y-40907500D01*
X87737000Y-40907500D02*
X87926000Y-41190500D01*
X87926000Y-41190500D02*
X88011000Y-41617500D01*
X87928000Y-44503500D02*
X88291000Y-44503500D01*
X88291000Y-44503500D02*
X88291000Y-45445500D01*
X88291000Y-45445500D02*
X84205000Y-45445500D01*
%TO.C,SW19*%
X173479000Y-96540500D02*
X174416000Y-95603500D01*
X174416000Y-95603500D02*
X177163000Y-95603500D01*
X174416000Y-100395500D02*
X173395000Y-99374500D01*
X177063000Y-100395500D02*
X174416000Y-100395500D01*
X177163000Y-95603500D02*
X177566000Y-95683500D01*
X177566000Y-95683500D02*
X177908000Y-95912500D01*
X177625000Y-100500500D02*
X177063000Y-100395500D01*
X177908000Y-95912500D02*
X178441000Y-96445500D01*
X178104000Y-100799500D02*
X177625000Y-100500500D01*
X178441000Y-96445500D02*
X178441000Y-96667500D01*
X178441000Y-96667500D02*
X178528000Y-97105500D01*
X178442000Y-101252500D02*
X178104000Y-100799500D01*
X178528000Y-97105500D02*
X178772000Y-97472500D01*
X178596000Y-101810500D02*
X178442000Y-101252500D01*
X178678000Y-102108500D02*
X178596000Y-101810500D01*
X178772000Y-97472500D02*
X179139000Y-97716500D01*
X178871000Y-102366500D02*
X178678000Y-102108500D01*
X179139000Y-97716500D02*
X179577000Y-97803500D01*
X179145000Y-102536500D02*
X178871000Y-102366500D01*
X179455000Y-102595500D02*
X179145000Y-102536500D01*
X179577000Y-97803500D02*
X182377000Y-97803500D01*
X182377000Y-97803500D02*
X182704000Y-97868500D01*
X182704000Y-97868500D02*
X182987000Y-98057500D01*
X182987000Y-98057500D02*
X183176000Y-98340500D01*
X183176000Y-98340500D02*
X183261000Y-98767500D01*
X183178000Y-101653500D02*
X183541000Y-101653500D01*
X183541000Y-101653500D02*
X183541000Y-102595500D01*
X183541000Y-102595500D02*
X179455000Y-102595500D01*
%TO.C,SW15*%
X135379000Y-72728000D02*
X136316000Y-71791000D01*
X136316000Y-71791000D02*
X139063000Y-71791000D01*
X136316000Y-76583000D02*
X135295000Y-75562000D01*
X138963000Y-76583000D02*
X136316000Y-76583000D01*
X139063000Y-71791000D02*
X139466000Y-71871000D01*
X139466000Y-71871000D02*
X139808000Y-72100000D01*
X139525000Y-76688000D02*
X138963000Y-76583000D01*
X139808000Y-72100000D02*
X140341000Y-72633000D01*
X140004000Y-76987000D02*
X139525000Y-76688000D01*
X140341000Y-72633000D02*
X140341000Y-72855000D01*
X140341000Y-72855000D02*
X140428000Y-73293000D01*
X140342000Y-77440000D02*
X140004000Y-76987000D01*
X140428000Y-73293000D02*
X140672000Y-73660000D01*
X140496000Y-77998000D02*
X140342000Y-77440000D01*
X140578000Y-78296000D02*
X140496000Y-77998000D01*
X140672000Y-73660000D02*
X141039000Y-73904000D01*
X140771000Y-78554000D02*
X140578000Y-78296000D01*
X141039000Y-73904000D02*
X141477000Y-73991000D01*
X141045000Y-78724000D02*
X140771000Y-78554000D01*
X141355000Y-78783000D02*
X141045000Y-78724000D01*
X141477000Y-73991000D02*
X144277000Y-73991000D01*
X144277000Y-73991000D02*
X144604000Y-74056000D01*
X144604000Y-74056000D02*
X144887000Y-74245000D01*
X144887000Y-74245000D02*
X145076000Y-74528000D01*
X145076000Y-74528000D02*
X145161000Y-74955000D01*
X145078000Y-77841000D02*
X145441000Y-77841000D01*
X145441000Y-77841000D02*
X145441000Y-78783000D01*
X145441000Y-78783000D02*
X141355000Y-78783000D01*
%TO.C,SW20*%
X154429000Y-96540500D02*
X155366000Y-95603500D01*
X155366000Y-95603500D02*
X158113000Y-95603500D01*
X155366000Y-100395500D02*
X154345000Y-99374500D01*
X158013000Y-100395500D02*
X155366000Y-100395500D01*
X158113000Y-95603500D02*
X158516000Y-95683500D01*
X158516000Y-95683500D02*
X158858000Y-95912500D01*
X158575000Y-100500500D02*
X158013000Y-100395500D01*
X158858000Y-95912500D02*
X159391000Y-96445500D01*
X159054000Y-100799500D02*
X158575000Y-100500500D01*
X159391000Y-96445500D02*
X159391000Y-96667500D01*
X159391000Y-96667500D02*
X159478000Y-97105500D01*
X159392000Y-101252500D02*
X159054000Y-100799500D01*
X159478000Y-97105500D02*
X159722000Y-97472500D01*
X159546000Y-101810500D02*
X159392000Y-101252500D01*
X159628000Y-102108500D02*
X159546000Y-101810500D01*
X159722000Y-97472500D02*
X160089000Y-97716500D01*
X159821000Y-102366500D02*
X159628000Y-102108500D01*
X160089000Y-97716500D02*
X160527000Y-97803500D01*
X160095000Y-102536500D02*
X159821000Y-102366500D01*
X160405000Y-102595500D02*
X160095000Y-102536500D01*
X160527000Y-97803500D02*
X163327000Y-97803500D01*
X163327000Y-97803500D02*
X163654000Y-97868500D01*
X163654000Y-97868500D02*
X163937000Y-98057500D01*
X163937000Y-98057500D02*
X164126000Y-98340500D01*
X164126000Y-98340500D02*
X164211000Y-98767500D01*
X164128000Y-101653500D02*
X164491000Y-101653500D01*
X164491000Y-101653500D02*
X164491000Y-102595500D01*
X164491000Y-102595500D02*
X160405000Y-102595500D01*
%TO.C,SW1*%
X173479000Y-39390500D02*
X174416000Y-38453500D01*
X174416000Y-38453500D02*
X177163000Y-38453500D01*
X174416000Y-43245500D02*
X173395000Y-42224500D01*
X177063000Y-43245500D02*
X174416000Y-43245500D01*
X177163000Y-38453500D02*
X177566000Y-38533500D01*
X177566000Y-38533500D02*
X177908000Y-38762500D01*
X177625000Y-43350500D02*
X177063000Y-43245500D01*
X177908000Y-38762500D02*
X178441000Y-39295500D01*
X178104000Y-43649500D02*
X177625000Y-43350500D01*
X178441000Y-39295500D02*
X178441000Y-39517500D01*
X178441000Y-39517500D02*
X178528000Y-39955500D01*
X178442000Y-44102500D02*
X178104000Y-43649500D01*
X178528000Y-39955500D02*
X178772000Y-40322500D01*
X178596000Y-44660500D02*
X178442000Y-44102500D01*
X178678000Y-44958500D02*
X178596000Y-44660500D01*
X178772000Y-40322500D02*
X179139000Y-40566500D01*
X178871000Y-45216500D02*
X178678000Y-44958500D01*
X179139000Y-40566500D02*
X179577000Y-40653500D01*
X179145000Y-45386500D02*
X178871000Y-45216500D01*
X179455000Y-45445500D02*
X179145000Y-45386500D01*
X179577000Y-40653500D02*
X182377000Y-40653500D01*
X182377000Y-40653500D02*
X182704000Y-40718500D01*
X182704000Y-40718500D02*
X182987000Y-40907500D01*
X182987000Y-40907500D02*
X183176000Y-41190500D01*
X183176000Y-41190500D02*
X183261000Y-41617500D01*
X183178000Y-44503500D02*
X183541000Y-44503500D01*
X183541000Y-44503500D02*
X183541000Y-45445500D01*
X183541000Y-45445500D02*
X179455000Y-45445500D01*
%TO.C,SW9*%
X135379000Y-53678000D02*
X136316000Y-52741000D01*
X136316000Y-52741000D02*
X139063000Y-52741000D01*
X136316000Y-57533000D02*
X135295000Y-56512000D01*
X138963000Y-57533000D02*
X136316000Y-57533000D01*
X139063000Y-52741000D02*
X139466000Y-52821000D01*
X139466000Y-52821000D02*
X139808000Y-53050000D01*
X139525000Y-57638000D02*
X138963000Y-57533000D01*
X139808000Y-53050000D02*
X140341000Y-53583000D01*
X140004000Y-57937000D02*
X139525000Y-57638000D01*
X140341000Y-53583000D02*
X140341000Y-53805000D01*
X140341000Y-53805000D02*
X140428000Y-54243000D01*
X140342000Y-58390000D02*
X140004000Y-57937000D01*
X140428000Y-54243000D02*
X140672000Y-54610000D01*
X140496000Y-58948000D02*
X140342000Y-58390000D01*
X140578000Y-59246000D02*
X140496000Y-58948000D01*
X140672000Y-54610000D02*
X141039000Y-54854000D01*
X140771000Y-59504000D02*
X140578000Y-59246000D01*
X141039000Y-54854000D02*
X141477000Y-54941000D01*
X141045000Y-59674000D02*
X140771000Y-59504000D01*
X141355000Y-59733000D02*
X141045000Y-59674000D01*
X141477000Y-54941000D02*
X144277000Y-54941000D01*
X144277000Y-54941000D02*
X144604000Y-55006000D01*
X144604000Y-55006000D02*
X144887000Y-55195000D01*
X144887000Y-55195000D02*
X145076000Y-55478000D01*
X145076000Y-55478000D02*
X145161000Y-55905000D01*
X145078000Y-58791000D02*
X145441000Y-58791000D01*
X145441000Y-58791000D02*
X145441000Y-59733000D01*
X145441000Y-59733000D02*
X141355000Y-59733000D01*
%TO.C,D21*%
X141875000Y-105397000D02*
X141875000Y-101537000D01*
X143875000Y-105397000D02*
X141875000Y-105397000D01*
X143875000Y-105397000D02*
X143875000Y-101537000D01*
%TO.C,D15*%
X141875000Y-86347000D02*
X141875000Y-82487000D01*
X143875000Y-86347000D02*
X141875000Y-86347000D01*
X143875000Y-86347000D02*
X143875000Y-82487000D01*
%TO.C,D24*%
X84725000Y-110159500D02*
X84725000Y-106299500D01*
X86725000Y-110159500D02*
X84725000Y-110159500D01*
X86725000Y-110159500D02*
X86725000Y-106299500D01*
%TO.C,D16*%
X122825000Y-81584500D02*
X122825000Y-77724500D01*
X124825000Y-81584500D02*
X122825000Y-81584500D01*
X124825000Y-81584500D02*
X124825000Y-77724500D01*
%TO.C,D1*%
X179975000Y-53009500D02*
X179975000Y-49149500D01*
X181975000Y-53009500D02*
X179975000Y-53009500D01*
X181975000Y-53009500D02*
X181975000Y-49149500D01*
%TO.C,D11*%
X103775000Y-67297000D02*
X103775000Y-63437000D01*
X105775000Y-67297000D02*
X103775000Y-67297000D01*
X105775000Y-67297000D02*
X105775000Y-63437000D01*
%TO.C,D23*%
X103775000Y-105397000D02*
X103775000Y-101537000D01*
X105775000Y-105397000D02*
X103775000Y-105397000D01*
X105775000Y-105397000D02*
X105775000Y-101537000D01*
%TO.C,D12*%
X84725000Y-72059500D02*
X84725000Y-68199500D01*
X86725000Y-72059500D02*
X84725000Y-72059500D01*
X86725000Y-72059500D02*
X86725000Y-68199500D01*
%TO.C,D4*%
X122825000Y-43484500D02*
X122825000Y-39624500D01*
X124825000Y-43484500D02*
X122825000Y-43484500D01*
X124825000Y-43484500D02*
X124825000Y-39624500D01*
%TO.C,D20*%
X160925000Y-110159500D02*
X160925000Y-106299500D01*
X162925000Y-110159500D02*
X160925000Y-110159500D01*
X162925000Y-110159500D02*
X162925000Y-106299500D01*
%TO.C,D5*%
X103775000Y-48247000D02*
X103775000Y-44387000D01*
X105775000Y-48247000D02*
X103775000Y-48247000D01*
X105775000Y-48247000D02*
X105775000Y-44387000D01*
%TO.C,D8*%
X160925000Y-72059500D02*
X160925000Y-68199500D01*
X162925000Y-72059500D02*
X160925000Y-72059500D01*
X162925000Y-72059500D02*
X162925000Y-68199500D01*
%TO.C,D19*%
X179975000Y-110159500D02*
X179975000Y-106299500D01*
X181975000Y-110159500D02*
X179975000Y-110159500D01*
X181975000Y-110159500D02*
X181975000Y-106299500D01*
%TO.C,D18*%
X84725000Y-91109500D02*
X84725000Y-87249500D01*
X86725000Y-91109500D02*
X84725000Y-91109500D01*
X86725000Y-91109500D02*
X86725000Y-87249500D01*
%TO.C,D2*%
X160925000Y-53009500D02*
X160925000Y-49149500D01*
X162925000Y-53009500D02*
X160925000Y-53009500D01*
X162925000Y-53009500D02*
X162925000Y-49149500D01*
%TO.C,D6*%
X84725000Y-53009500D02*
X84725000Y-49149500D01*
X86725000Y-53009500D02*
X84725000Y-53009500D01*
X86725000Y-53009500D02*
X86725000Y-49149500D01*
%TO.C,D10*%
X122825000Y-62534500D02*
X122825000Y-58674500D01*
X124825000Y-62534500D02*
X122825000Y-62534500D01*
X124825000Y-62534500D02*
X124825000Y-58674500D01*
%TO.C,D14*%
X160925000Y-91109500D02*
X160925000Y-87249500D01*
X162925000Y-91109500D02*
X160925000Y-91109500D01*
X162925000Y-91109500D02*
X162925000Y-87249500D01*
%TO.C,D25*%
X102822491Y-129455871D02*
X101823450Y-125727397D01*
X104754343Y-128938233D02*
X102822491Y-129455871D01*
X104754343Y-128938233D02*
X103755301Y-125209759D01*
%TO.C,D3*%
X141875000Y-48247000D02*
X141875000Y-44387000D01*
X143875000Y-48247000D02*
X141875000Y-48247000D01*
X143875000Y-48247000D02*
X143875000Y-44387000D01*
%TO.C,D26*%
X82840240Y-137606371D02*
X80910240Y-134263513D01*
X84572290Y-136606371D02*
X82642290Y-133263513D01*
X84572290Y-136606371D02*
X82840240Y-137606371D01*
%TO.C,D27*%
X64228729Y-149289624D02*
X61747569Y-146332692D01*
X65760818Y-148004049D02*
X63279658Y-145047117D01*
X65760818Y-148004049D02*
X64228729Y-149289624D01*
%TO.C,D7*%
X179975000Y-72059500D02*
X179975000Y-68199500D01*
X181975000Y-72059500D02*
X179975000Y-72059500D01*
X181975000Y-72059500D02*
X181975000Y-68199500D01*
%TO.C,D9*%
X141875000Y-67297000D02*
X141875000Y-63437000D01*
X143875000Y-67297000D02*
X141875000Y-67297000D01*
X143875000Y-67297000D02*
X143875000Y-63437000D01*
%TO.C,D17*%
X103775000Y-86347000D02*
X103775000Y-82487000D01*
X105775000Y-86347000D02*
X103775000Y-86347000D01*
X105775000Y-86347000D02*
X105775000Y-82487000D01*
%TO.C,D13*%
X179975000Y-91109500D02*
X179975000Y-87249500D01*
X181975000Y-91109500D02*
X179975000Y-91109500D01*
X181975000Y-91109500D02*
X181975000Y-87249500D01*
%TO.C,D22*%
X122825000Y-100634500D02*
X122825000Y-96774500D01*
X124825000Y-100634500D02*
X122825000Y-100634500D01*
X124825000Y-100634500D02*
X124825000Y-96774500D01*
%TD*%
D14*
X129210460Y-26163301D02*
X129261244Y-26167163D01*
X129311290Y-26173522D01*
X129360535Y-26182316D01*
X129408915Y-26193483D01*
X129456369Y-26206958D01*
X129502833Y-26222680D01*
X129548245Y-26240585D01*
X129592541Y-26260611D01*
X129635659Y-26282695D01*
X129677536Y-26306773D01*
X129718109Y-26332784D01*
X129757316Y-26360665D01*
X129795093Y-26390351D01*
X129831377Y-26421782D01*
X129866107Y-26454893D01*
X129899218Y-26489623D01*
X129930648Y-26525907D01*
X129960335Y-26563684D01*
X129988216Y-26602891D01*
X130014227Y-26643464D01*
X130038305Y-26685341D01*
X130060389Y-26728459D01*
X130080415Y-26772755D01*
X130098320Y-26818166D01*
X130114042Y-26864631D01*
X130127517Y-26912084D01*
X130138684Y-26960465D01*
X130147478Y-27009710D01*
X130153837Y-27059756D01*
X130157699Y-27110540D01*
X130159000Y-27162000D01*
X130159000Y-29925000D01*
X130160301Y-29976460D01*
X130164163Y-30027244D01*
X130170522Y-30077290D01*
X130179317Y-30126535D01*
X130190483Y-30174916D01*
X130203958Y-30222369D01*
X130219680Y-30268834D01*
X130237585Y-30314245D01*
X130257611Y-30358541D01*
X130279695Y-30401659D01*
X130303774Y-30443536D01*
X130329784Y-30484110D01*
X130357665Y-30523316D01*
X130387352Y-30561093D01*
X130418782Y-30597377D01*
X130451893Y-30632107D01*
X130486623Y-30665218D01*
X130522907Y-30696649D01*
X130560684Y-30726335D01*
X130599891Y-30754216D01*
X130640464Y-30780227D01*
X130682341Y-30804305D01*
X130725459Y-30826389D01*
X130769755Y-30846415D01*
X130815167Y-30864320D01*
X130861631Y-30880042D01*
X130909085Y-30893517D01*
X130957465Y-30904684D01*
X131006710Y-30913478D01*
X131056756Y-30919837D01*
X131107540Y-30923699D01*
X131159000Y-30925000D01*
X148209003Y-30925000D01*
X148260462Y-30926301D01*
X148311246Y-30930163D01*
X148361291Y-30936522D01*
X148410536Y-30945317D01*
X148458916Y-30956483D01*
X148506369Y-30969958D01*
X148552833Y-30985680D01*
X148598245Y-31003585D01*
X148642541Y-31023611D01*
X148685659Y-31045695D01*
X148727536Y-31069773D01*
X148768109Y-31095784D01*
X148807316Y-31123665D01*
X148845093Y-31153351D01*
X148881377Y-31184782D01*
X148916107Y-31217893D01*
X148949218Y-31252623D01*
X148980649Y-31288907D01*
X149010336Y-31326684D01*
X149038217Y-31365891D01*
X149064228Y-31406464D01*
X149088307Y-31448341D01*
X149110391Y-31491459D01*
X149130417Y-31535755D01*
X149148322Y-31581166D01*
X149164044Y-31627631D01*
X149177520Y-31675084D01*
X149188686Y-31723465D01*
X149197481Y-31772710D01*
X149203840Y-31822756D01*
X149207702Y-31873540D01*
X149209003Y-31925000D01*
X149209003Y-34687000D01*
X149210304Y-34738459D01*
X149214166Y-34789244D01*
X149220526Y-34839290D01*
X149229320Y-34888534D01*
X149240486Y-34936915D01*
X149253962Y-34984369D01*
X149269684Y-35030833D01*
X149287589Y-35076244D01*
X149307615Y-35120541D01*
X149329699Y-35163659D01*
X149353778Y-35205536D01*
X149379790Y-35246109D01*
X149407670Y-35285315D01*
X149437357Y-35323092D01*
X149468788Y-35359377D01*
X149501899Y-35394106D01*
X149536629Y-35427218D01*
X149572914Y-35458648D01*
X149610691Y-35488335D01*
X149649897Y-35516215D01*
X149690470Y-35542226D01*
X149732347Y-35566305D01*
X149775465Y-35588389D01*
X149819761Y-35608415D01*
X149865173Y-35626320D01*
X149911637Y-35642042D01*
X149959090Y-35655517D01*
X150007471Y-35666683D01*
X150056715Y-35675477D01*
X150106760Y-35681837D01*
X150157544Y-35685698D01*
X150209003Y-35687000D01*
X163309002Y-35687000D01*
X168259006Y-35687000D01*
X186309009Y-35687000D01*
X186360468Y-35688301D01*
X186411252Y-35692163D01*
X186461298Y-35698522D01*
X186510542Y-35707316D01*
X186558922Y-35718482D01*
X186606376Y-35731958D01*
X186652839Y-35747679D01*
X186698251Y-35765585D01*
X186742547Y-35785611D01*
X186785665Y-35807694D01*
X186827542Y-35831773D01*
X186868115Y-35857784D01*
X186907322Y-35885664D01*
X186945099Y-35915351D01*
X186981383Y-35946782D01*
X187016113Y-35979893D01*
X187049224Y-36014622D01*
X187080655Y-36050907D01*
X187110342Y-36088684D01*
X187138223Y-36127890D01*
X187164234Y-36168463D01*
X187188313Y-36210341D01*
X187210397Y-36253458D01*
X187230423Y-36297755D01*
X187248329Y-36343166D01*
X187264050Y-36389630D01*
X187277526Y-36437084D01*
X187288692Y-36485465D01*
X187297487Y-36534710D01*
X187303846Y-36584756D01*
X187307708Y-36635540D01*
X187309009Y-36687000D01*
X187309009Y-54736999D01*
X187309009Y-59686998D01*
X187309009Y-73787000D01*
X187309009Y-78737001D01*
X187309009Y-92837003D01*
X187309009Y-97787000D01*
X187309009Y-115837003D01*
X187307708Y-115888463D01*
X187303846Y-115939247D01*
X187297487Y-115989293D01*
X187288692Y-116038538D01*
X187277526Y-116086918D01*
X187264050Y-116134372D01*
X187248329Y-116180836D01*
X187230423Y-116226248D01*
X187210397Y-116270544D01*
X187188313Y-116313662D01*
X187164234Y-116355539D01*
X187138223Y-116396112D01*
X187110342Y-116435319D01*
X187080655Y-116473096D01*
X187049224Y-116509380D01*
X187016113Y-116544110D01*
X186981383Y-116577221D01*
X186945099Y-116608652D01*
X186907322Y-116638338D01*
X186868115Y-116666219D01*
X186827542Y-116692230D01*
X186785665Y-116716308D01*
X186742547Y-116738392D01*
X186698251Y-116758418D01*
X186652839Y-116776323D01*
X186606376Y-116792045D01*
X186558922Y-116805520D01*
X186510542Y-116816687D01*
X186461298Y-116825481D01*
X186411252Y-116831840D01*
X186360468Y-116835702D01*
X186309009Y-116837003D01*
X168259006Y-116837003D01*
X163309009Y-116837003D01*
X145259006Y-116837003D01*
X145207547Y-116835702D01*
X145156763Y-116831840D01*
X145106718Y-116825481D01*
X145057474Y-116816687D01*
X145009093Y-116805520D01*
X144961640Y-116792045D01*
X144915176Y-116776323D01*
X144869764Y-116758418D01*
X144825468Y-116738392D01*
X144782350Y-116716308D01*
X144740473Y-116692230D01*
X144699900Y-116666219D01*
X144660694Y-116638338D01*
X144622917Y-116608652D01*
X144586632Y-116577221D01*
X144551902Y-116544110D01*
X144518791Y-116509380D01*
X144487360Y-116473096D01*
X144457673Y-116435319D01*
X144429793Y-116396112D01*
X144403781Y-116355539D01*
X144379702Y-116313662D01*
X144357618Y-116270544D01*
X144337592Y-116226248D01*
X144319687Y-116180836D01*
X144303965Y-116134372D01*
X144290489Y-116086918D01*
X144279323Y-116038538D01*
X144270529Y-115989293D01*
X144264169Y-115939247D01*
X144260307Y-115888463D01*
X144259006Y-115837003D01*
X144259006Y-113075002D01*
X144257705Y-113023542D01*
X144253843Y-112972758D01*
X144247484Y-112922712D01*
X144238689Y-112873467D01*
X144227523Y-112825087D01*
X144214047Y-112777633D01*
X144198325Y-112731169D01*
X144180420Y-112685757D01*
X144160394Y-112641461D01*
X144138310Y-112598343D01*
X144114231Y-112556466D01*
X144088220Y-112515893D01*
X144060339Y-112476686D01*
X144030652Y-112438909D01*
X143999221Y-112402625D01*
X143966110Y-112367895D01*
X143931380Y-112334784D01*
X143895096Y-112303354D01*
X143857319Y-112273667D01*
X143818112Y-112245786D01*
X143777539Y-112219776D01*
X143735662Y-112195697D01*
X143692544Y-112173613D01*
X143648248Y-112153587D01*
X143602836Y-112135682D01*
X143556372Y-112119960D01*
X143508919Y-112106485D01*
X143460539Y-112095318D01*
X143411294Y-112086524D01*
X143361249Y-112080165D01*
X143310465Y-112076303D01*
X143259006Y-112075002D01*
X126209003Y-112075002D01*
X126157543Y-112073701D01*
X126106759Y-112069839D01*
X126056713Y-112063480D01*
X126007468Y-112054686D01*
X125959088Y-112043519D01*
X125911634Y-112030044D01*
X125865170Y-112014322D01*
X125819758Y-111996417D01*
X125775462Y-111976391D01*
X125732344Y-111954307D01*
X125690467Y-111930229D01*
X125649894Y-111904218D01*
X125610687Y-111876337D01*
X125572910Y-111846650D01*
X125536626Y-111815220D01*
X125501897Y-111782109D01*
X125468785Y-111747379D01*
X125437355Y-111711095D01*
X125407668Y-111673318D01*
X125379787Y-111634111D01*
X125353777Y-111593538D01*
X125329698Y-111551661D01*
X125307614Y-111508543D01*
X125287588Y-111464247D01*
X125269683Y-111418835D01*
X125253961Y-111372371D01*
X125240486Y-111324917D01*
X125229319Y-111276537D01*
X125220525Y-111227292D01*
X125214166Y-111177246D01*
X125210304Y-111126462D01*
X125209003Y-111075002D01*
X125209003Y-108312002D01*
X125207702Y-108260542D01*
X125203840Y-108209757D01*
X125197481Y-108159711D01*
X125188687Y-108110467D01*
X125177520Y-108062086D01*
X125164045Y-108014632D01*
X125148323Y-107968168D01*
X125130418Y-107922757D01*
X125110392Y-107878460D01*
X125088308Y-107835342D01*
X125064230Y-107793465D01*
X125038219Y-107752892D01*
X125010338Y-107713686D01*
X124980651Y-107675909D01*
X124949221Y-107639624D01*
X124916110Y-107604895D01*
X124881380Y-107571784D01*
X124845096Y-107540353D01*
X124807319Y-107510666D01*
X124768112Y-107482786D01*
X124727539Y-107456775D01*
X124685662Y-107432696D01*
X124642544Y-107410613D01*
X124598248Y-107390586D01*
X124552836Y-107372681D01*
X124506372Y-107356960D01*
X124458919Y-107343484D01*
X124410538Y-107332318D01*
X124361293Y-107323524D01*
X124311247Y-107317164D01*
X124260463Y-107313303D01*
X124209003Y-107312001D01*
X112109005Y-107312001D01*
X112057545Y-107313303D01*
X112006761Y-107317164D01*
X111956715Y-107323524D01*
X111907470Y-107332318D01*
X111859089Y-107343484D01*
X111811635Y-107356960D01*
X111765171Y-107372681D01*
X111719760Y-107390586D01*
X111675463Y-107410613D01*
X111632346Y-107432696D01*
X111590468Y-107456775D01*
X111549895Y-107482786D01*
X111510689Y-107510666D01*
X111472912Y-107540353D01*
X111436627Y-107571784D01*
X111401898Y-107604895D01*
X111368787Y-107639624D01*
X111337356Y-107675909D01*
X111307669Y-107713686D01*
X111279789Y-107752892D01*
X111253778Y-107793465D01*
X111229699Y-107835342D01*
X111207616Y-107878460D01*
X111187590Y-107922757D01*
X111169684Y-107968168D01*
X111153963Y-108014632D01*
X111140487Y-108062086D01*
X111129321Y-108110467D01*
X111120527Y-108159711D01*
X111114168Y-108209757D01*
X111110306Y-108260542D01*
X111109005Y-108312002D01*
X111109005Y-111075002D01*
X111107703Y-111126462D01*
X111103842Y-111177246D01*
X111097482Y-111227292D01*
X111088688Y-111276537D01*
X111077522Y-111324917D01*
X111064047Y-111372371D01*
X111048325Y-111418835D01*
X111030420Y-111464247D01*
X111010394Y-111508543D01*
X110988310Y-111551661D01*
X110964231Y-111593538D01*
X110938220Y-111634111D01*
X110910340Y-111673318D01*
X110880653Y-111711095D01*
X110849223Y-111747379D01*
X110816111Y-111782109D01*
X110781382Y-111815220D01*
X110745097Y-111846650D01*
X110707320Y-111876337D01*
X110668114Y-111904218D01*
X110627541Y-111930229D01*
X110585664Y-111954307D01*
X110542546Y-111976391D01*
X110498249Y-111996417D01*
X110452838Y-112014322D01*
X110406374Y-112030044D01*
X110358920Y-112043519D01*
X110310539Y-112054686D01*
X110261295Y-112063480D01*
X110211249Y-112069839D01*
X110160464Y-112073701D01*
X110109005Y-112075002D01*
X106844005Y-112075002D01*
X106782938Y-112076817D01*
X106723004Y-112082170D01*
X106664289Y-112090950D01*
X106606878Y-112103043D01*
X106550859Y-112118340D01*
X106496316Y-112136727D01*
X106443336Y-112158092D01*
X106392004Y-112182325D01*
X106342407Y-112209312D01*
X106294630Y-112238942D01*
X106248760Y-112271104D01*
X106204881Y-112305684D01*
X106163081Y-112342572D01*
X106123445Y-112381656D01*
X106086059Y-112422822D01*
X106051009Y-112465961D01*
X106018380Y-112510959D01*
X105988260Y-112557705D01*
X105960733Y-112606087D01*
X105935886Y-112655993D01*
X105913804Y-112707311D01*
X105894574Y-112759929D01*
X105878280Y-112813735D01*
X105865011Y-112868618D01*
X105854850Y-112924466D01*
X105847885Y-112981166D01*
X105844200Y-113038607D01*
X105843883Y-113096676D01*
X105847019Y-113155263D01*
X105853693Y-113214255D01*
X105863992Y-113273539D01*
X105878002Y-113333005D01*
X111126003Y-132920003D01*
X111138080Y-132970052D01*
X111147509Y-133020112D01*
X111154333Y-133070105D01*
X111158597Y-133119955D01*
X111160345Y-133169584D01*
X111159622Y-133218917D01*
X111156472Y-133267875D01*
X111150941Y-133316382D01*
X111143071Y-133364360D01*
X111132907Y-133411733D01*
X111120495Y-133458425D01*
X111105878Y-133504357D01*
X111089101Y-133549452D01*
X111070208Y-133593635D01*
X111049244Y-133636827D01*
X111026252Y-133678952D01*
X111001279Y-133719934D01*
X110974367Y-133759694D01*
X110945562Y-133798155D01*
X110914908Y-133835242D01*
X110882449Y-133870877D01*
X110848230Y-133904983D01*
X110812296Y-133937482D01*
X110774689Y-133968299D01*
X110735456Y-133997355D01*
X110694640Y-134024574D01*
X110652287Y-134049880D01*
X110608439Y-134073194D01*
X110563143Y-134094440D01*
X110516441Y-134113542D01*
X110468380Y-134130421D01*
X110419002Y-134145002D01*
X93032001Y-138803998D01*
X92973450Y-138821569D01*
X92916913Y-138842267D01*
X92862442Y-138865962D01*
X92810093Y-138892523D01*
X92759918Y-138921821D01*
X92711973Y-138953724D01*
X92666312Y-138988102D01*
X92622988Y-139024824D01*
X92582055Y-139063759D01*
X92543568Y-139104779D01*
X92507581Y-139147750D01*
X92474147Y-139192544D01*
X92443321Y-139239029D01*
X92415157Y-139287075D01*
X92389709Y-139336552D01*
X92367031Y-139387328D01*
X92347176Y-139439274D01*
X92330200Y-139492259D01*
X92316156Y-139546151D01*
X92305098Y-139600822D01*
X92297081Y-139656139D01*
X92292157Y-139711973D01*
X92290383Y-139768193D01*
X92291810Y-139824669D01*
X92296494Y-139881269D01*
X92304489Y-139937864D01*
X92315848Y-139994322D01*
X92330626Y-140050514D01*
X92348877Y-140106308D01*
X92370655Y-140161575D01*
X92396013Y-140216183D01*
X92425007Y-140270002D01*
X93889003Y-142807004D01*
X93913605Y-142852219D01*
X93935652Y-142898129D01*
X93955167Y-142944649D01*
X93972173Y-142991692D01*
X93986693Y-143039172D01*
X93998749Y-143087005D01*
X94008365Y-143135103D01*
X94015565Y-143183382D01*
X94020370Y-143231756D01*
X94022804Y-143280137D01*
X94022890Y-143328442D01*
X94020650Y-143376584D01*
X94016109Y-143424476D01*
X94009288Y-143472034D01*
X94000212Y-143519172D01*
X93988902Y-143565803D01*
X93975382Y-143611842D01*
X93959674Y-143657203D01*
X93941803Y-143701800D01*
X93921790Y-143745547D01*
X93899660Y-143788359D01*
X93875434Y-143830150D01*
X93849136Y-143870833D01*
X93820788Y-143910323D01*
X93790415Y-143948535D01*
X93758038Y-143985382D01*
X93723681Y-144020779D01*
X93687367Y-144054639D01*
X93649119Y-144086878D01*
X93608959Y-144117408D01*
X93566911Y-144146145D01*
X93522998Y-144173002D01*
X73604999Y-155673002D01*
X73574001Y-155619001D01*
X58873996Y-167954007D01*
X58833743Y-167986105D01*
X58792360Y-168015806D01*
X58749936Y-168043119D01*
X58706560Y-168068051D01*
X58662321Y-168090610D01*
X58617307Y-168110804D01*
X58571606Y-168128641D01*
X58525307Y-168144127D01*
X58478499Y-168157272D01*
X58431270Y-168168083D01*
X58383709Y-168176567D01*
X58335904Y-168182732D01*
X58287944Y-168186586D01*
X58239917Y-168188137D01*
X58191912Y-168187392D01*
X58144018Y-168184360D01*
X58096323Y-168179047D01*
X58048915Y-168171462D01*
X58001884Y-168161613D01*
X57955317Y-168149506D01*
X57909304Y-168135150D01*
X57863932Y-168118553D01*
X57819291Y-168099723D01*
X57775469Y-168078666D01*
X57732554Y-168055391D01*
X57690635Y-168029905D01*
X57649801Y-168002217D01*
X57610140Y-167972334D01*
X57571741Y-167940264D01*
X57534692Y-167906014D01*
X57499082Y-167869592D01*
X57465000Y-167831006D01*
X37200992Y-143680997D01*
X37168896Y-143640744D01*
X37139196Y-143599362D01*
X37111884Y-143556939D01*
X37086953Y-143513563D01*
X37064395Y-143469325D01*
X37044201Y-143424310D01*
X37026365Y-143378610D01*
X37010879Y-143332311D01*
X36997734Y-143285503D01*
X36986924Y-143238274D01*
X36978440Y-143190713D01*
X36972274Y-143142908D01*
X36968420Y-143094948D01*
X36966869Y-143046921D01*
X36967613Y-142998916D01*
X36970646Y-142951021D01*
X36975958Y-142903326D01*
X36983542Y-142855918D01*
X36993392Y-142808887D01*
X37005498Y-142762320D01*
X37019853Y-142716306D01*
X37036450Y-142670934D01*
X37055280Y-142626293D01*
X37076336Y-142582471D01*
X37099611Y-142539556D01*
X37125095Y-142497637D01*
X37152783Y-142456803D01*
X37182666Y-142417142D01*
X37214736Y-142378742D01*
X37248986Y-142341693D01*
X37285408Y-142306083D01*
X37323993Y-142272001D01*
X54177005Y-128131002D01*
X54217258Y-128098904D01*
X54258639Y-128069203D01*
X54301062Y-128041890D01*
X54344436Y-128016958D01*
X54388675Y-127994399D01*
X54433688Y-127974204D01*
X54479388Y-127956368D01*
X54525686Y-127940881D01*
X54572494Y-127927736D01*
X54619722Y-127916925D01*
X54667283Y-127908441D01*
X54715087Y-127902275D01*
X54763047Y-127898421D01*
X54811074Y-127896870D01*
X54859078Y-127897614D01*
X54906973Y-127900646D01*
X54954668Y-127905959D01*
X55002075Y-127913544D01*
X55049107Y-127923393D01*
X55095674Y-127935500D01*
X55141688Y-127949855D01*
X55187060Y-127966453D01*
X55231702Y-127985283D01*
X55275525Y-128006340D01*
X55318440Y-128029615D01*
X55360359Y-128055101D01*
X55401194Y-128082789D01*
X55440856Y-128112673D01*
X55479257Y-128144744D01*
X55516307Y-128178994D01*
X55551918Y-128215416D01*
X55586002Y-128254003D01*
X57341999Y-127505002D01*
X57317397Y-127459788D01*
X57295351Y-127413877D01*
X57275836Y-127367358D01*
X57258831Y-127320315D01*
X57244312Y-127272834D01*
X57232255Y-127225002D01*
X57222639Y-127176903D01*
X57215439Y-127128624D01*
X57210634Y-127080251D01*
X57208200Y-127031869D01*
X57208114Y-126983564D01*
X57210353Y-126935423D01*
X57214894Y-126887530D01*
X57221714Y-126839972D01*
X57230790Y-126792835D01*
X57242099Y-126746204D01*
X57255619Y-126700165D01*
X57271326Y-126654804D01*
X57289196Y-126610207D01*
X57309208Y-126566459D01*
X57331339Y-126523648D01*
X57355564Y-126481857D01*
X57381862Y-126441174D01*
X57410208Y-126401683D01*
X57440581Y-126363471D01*
X57472958Y-126326624D01*
X57507314Y-126291228D01*
X57543628Y-126257367D01*
X57581876Y-126225129D01*
X57622035Y-126194599D01*
X57664083Y-126165862D01*
X57707996Y-126139005D01*
X70588001Y-118703008D01*
X70667418Y-118652646D01*
X70739626Y-118597748D01*
X70804732Y-118538716D01*
X70862844Y-118475953D01*
X70914069Y-118409860D01*
X70958516Y-118340841D01*
X70996292Y-118269298D01*
X71027505Y-118195632D01*
X71052262Y-118120247D01*
X71070673Y-118043544D01*
X71082844Y-117965925D01*
X71088883Y-117887794D01*
X71088898Y-117809552D01*
X71082997Y-117731602D01*
X71071288Y-117654346D01*
X71053877Y-117578186D01*
X71030875Y-117503525D01*
X71002387Y-117430765D01*
X70968522Y-117360308D01*
X70929388Y-117292556D01*
X70885091Y-117227913D01*
X70835742Y-117166779D01*
X70781446Y-117109558D01*
X70722312Y-117056652D01*
X70658448Y-117008463D01*
X70589961Y-116965393D01*
X70516959Y-116927845D01*
X70439550Y-116896221D01*
X70357842Y-116870923D01*
X70271943Y-116852354D01*
X70181960Y-116840916D01*
X70088001Y-116837011D01*
X69058994Y-116837011D01*
X69007535Y-116835710D01*
X68956751Y-116831848D01*
X68906706Y-116825488D01*
X68857461Y-116816694D01*
X68809081Y-116805528D01*
X68761628Y-116792053D01*
X68715164Y-116776331D01*
X68669752Y-116758426D01*
X68625456Y-116738400D01*
X68582338Y-116716316D01*
X68540461Y-116692237D01*
X68499888Y-116666226D01*
X68460681Y-116638346D01*
X68422904Y-116608659D01*
X68386620Y-116577229D01*
X68351890Y-116544117D01*
X68318779Y-116509388D01*
X68287348Y-116473103D01*
X68257661Y-116435326D01*
X68229780Y-116396120D01*
X68203769Y-116355547D01*
X68179690Y-116313670D01*
X68157606Y-116270552D01*
X68137580Y-116226256D01*
X68119675Y-116180844D01*
X68103953Y-116134380D01*
X68090477Y-116086926D01*
X68079311Y-116038545D01*
X68070516Y-115989301D01*
X68064157Y-115939255D01*
X68060295Y-115888470D01*
X68058994Y-115837011D01*
X68058994Y-97787015D01*
X68058994Y-92837018D01*
X68059467Y-86162000D01*
X43311710Y-86162000D01*
X43311710Y-35687001D01*
X69058994Y-35687001D01*
X86108997Y-35687001D01*
X86160457Y-35685700D01*
X86211241Y-35681839D01*
X86261287Y-35675479D01*
X86310532Y-35666685D01*
X86358912Y-35655519D01*
X86406366Y-35642043D01*
X86452830Y-35626322D01*
X86498242Y-35608416D01*
X86542538Y-35588391D01*
X86585656Y-35566307D01*
X86627533Y-35542228D01*
X86668106Y-35516217D01*
X86707313Y-35488337D01*
X86745090Y-35458650D01*
X86781374Y-35427219D01*
X86816104Y-35394108D01*
X86849215Y-35359379D01*
X86880645Y-35323094D01*
X86910332Y-35285317D01*
X86938213Y-35246111D01*
X86964224Y-35205538D01*
X86988302Y-35163661D01*
X87010386Y-35120543D01*
X87030412Y-35076246D01*
X87048317Y-35030835D01*
X87064039Y-34984371D01*
X87077514Y-34936917D01*
X87088681Y-34888536D01*
X87097475Y-34839292D01*
X87103834Y-34789246D01*
X87107696Y-34738461D01*
X87108997Y-34687001D01*
X87108997Y-31925000D01*
X87110298Y-31873540D01*
X87114160Y-31822756D01*
X87120519Y-31772710D01*
X87129313Y-31723465D01*
X87140480Y-31675084D01*
X87153955Y-31627631D01*
X87169677Y-31581166D01*
X87187582Y-31535755D01*
X87207608Y-31491459D01*
X87229692Y-31448341D01*
X87253770Y-31406464D01*
X87279781Y-31365891D01*
X87307662Y-31326684D01*
X87337349Y-31288907D01*
X87368779Y-31252623D01*
X87401890Y-31217893D01*
X87436620Y-31184782D01*
X87472904Y-31153351D01*
X87510681Y-31123665D01*
X87549888Y-31095784D01*
X87590461Y-31069773D01*
X87632338Y-31045695D01*
X87675456Y-31023611D01*
X87719752Y-31003585D01*
X87765164Y-30985680D01*
X87811628Y-30969958D01*
X87859082Y-30956483D01*
X87907462Y-30945317D01*
X87956707Y-30936522D01*
X88006753Y-30930163D01*
X88057537Y-30926301D01*
X88108997Y-30925000D01*
X105159000Y-30925000D01*
X105210460Y-30923699D01*
X105261244Y-30919837D01*
X105311290Y-30913478D01*
X105360535Y-30904684D01*
X105408915Y-30893517D01*
X105456369Y-30880042D01*
X105502833Y-30864320D01*
X105548245Y-30846415D01*
X105592541Y-30826389D01*
X105635659Y-30804305D01*
X105677536Y-30780227D01*
X105718109Y-30754216D01*
X105757316Y-30726335D01*
X105795093Y-30696649D01*
X105831377Y-30665218D01*
X105866107Y-30632107D01*
X105899218Y-30597377D01*
X105930649Y-30561093D01*
X105960335Y-30523316D01*
X105988216Y-30484110D01*
X106014227Y-30443536D01*
X106038305Y-30401659D01*
X106060389Y-30358541D01*
X106080415Y-30314245D01*
X106098320Y-30268834D01*
X106114042Y-30222369D01*
X106127517Y-30174916D01*
X106138684Y-30126535D01*
X106147478Y-30077290D01*
X106153837Y-30027244D01*
X106157699Y-29976460D01*
X106159000Y-29925000D01*
X106159000Y-27162000D01*
X106160301Y-27110540D01*
X106164163Y-27059756D01*
X106170522Y-27009710D01*
X106179317Y-26960465D01*
X106190483Y-26912084D01*
X106203958Y-26864631D01*
X106219680Y-26818166D01*
X106237585Y-26772755D01*
X106257611Y-26728459D01*
X106279695Y-26685341D01*
X106303774Y-26643464D01*
X106329785Y-26602891D01*
X106357665Y-26563684D01*
X106387352Y-26525907D01*
X106418782Y-26489623D01*
X106451893Y-26454893D01*
X106486623Y-26421782D01*
X106522907Y-26390351D01*
X106560684Y-26360665D01*
X106599891Y-26332784D01*
X106640464Y-26306773D01*
X106682341Y-26282695D01*
X106725459Y-26260611D01*
X106769755Y-26240585D01*
X106815167Y-26222680D01*
X106861631Y-26206958D01*
X106909085Y-26193483D01*
X106957465Y-26182316D01*
X107006710Y-26173522D01*
X107056756Y-26167163D01*
X107107540Y-26163301D01*
X107159000Y-26162000D01*
X129159000Y-26162000D01*
X129210460Y-26163301D01*
M02*
