%TF.GenerationSoftware,KiCad,Pcbnew,10.0.1*%
%TF.CreationDate,2026-06-06T17:58:52+12:00*%
%TF.ProjectId,keyboard,6b657962-6f61-4726-942e-6b696361645f,rev?*%
%TF.SameCoordinates,Original*%
%TF.FileFunction,Copper,L1,Top*%
%TF.FilePolarity,Positive*%
%FSLAX46Y46*%
G04 Gerber Fmt 4.6, Leading zero omitted, Abs format (unit mm)*
G04 Created by KiCad (PCBNEW 10.0.1) date 2026-06-06 17:58:52*
%MOMM*%
%LPD*%
G01*
G04 APERTURE LIST*
%TA.AperFunction,SMDPad,CuDef*%
%ADD10R,1.200000X2.500000*%
%TD*%
%TA.AperFunction,ComponentPad*%
%ADD11O,2.500000X1.500000*%
%TD*%
%TA.AperFunction,ComponentPad*%
%ADD12O,1.500000X2.500000*%
%TD*%
%TA.AperFunction,ViaPad*%
%ADD13C,0.600000*%
%TD*%
%TA.AperFunction,Conductor*%
%ADD14C,0.200000*%
%TD*%
G04 APERTURE END LIST*
D10*
%TO.P,J2,R1*%
%TO.N,TX*%
X184400000Y-76000000D03*
%TO.P,J2,R2*%
%TO.N,VCC*%
X187400000Y-76000000D03*
%TO.P,J2,S*%
%TO.N,GND*%
X179300000Y-69500000D03*
%TO.P,J2,T*%
%TO.N,RX*%
X180400000Y-76000000D03*
%TD*%
D11*
%TO.P,U2,1,0_1*%
%TO.N,TX*%
X189585800Y-30291300D03*
%TO.P,U2,2,1_2*%
%TO.N,RX*%
X189585800Y-32831300D03*
%TO.P,U2,3,2_3*%
%TO.N,ROW0*%
X189585800Y-35371300D03*
%TO.P,U2,4,3_4*%
%TO.N,ROW1*%
X189585800Y-37911300D03*
%TO.P,U2,5,4_5*%
%TO.N,ROW2*%
X189585800Y-40451300D03*
%TO.P,U2,6,5_6*%
%TO.N,ROW3*%
X189585800Y-42991300D03*
%TO.P,U2,7,6_7*%
%TO.N,ROW4*%
X189585800Y-45531300D03*
%TO.P,U2,8,7_8*%
%TO.N,COL0*%
X189585800Y-48071300D03*
%TO.P,U2,9,8_9*%
%TO.N,COL1*%
X189585800Y-50611300D03*
D12*
%TO.P,U2,10,9_10*%
%TO.N,COL2*%
X186545800Y-51111300D03*
%TO.P,U2,11,10_11*%
%TO.N,COL3*%
X184005800Y-51111300D03*
%TO.P,U2,12,11_12*%
%TO.N,COL4*%
X181465800Y-51111300D03*
%TO.P,U2,13,12_13*%
%TO.N,COL5*%
X178925800Y-51111300D03*
%TO.P,U2,14,13_14*%
%TO.N,COL6*%
X176385800Y-51111300D03*
D11*
%TO.P,U2,15,14_15*%
%TO.N,unconnected-(U2-14-Pad15)*%
X173345800Y-50611300D03*
%TO.P,U2,16,15_16*%
%TO.N,unconnected-(U2-15-Pad16)*%
X173345800Y-48071300D03*
%TO.P,U2,17,26_17*%
%TO.N,unconnected-(U2-26-Pad17)*%
X173345800Y-45531300D03*
%TO.P,U2,18,27_18*%
%TO.N,unconnected-(U2-27-Pad18)*%
X173345800Y-42991300D03*
%TO.P,U2,19,28_19*%
%TO.N,unconnected-(U2-28-Pad19)*%
X173345800Y-40451300D03*
%TO.P,U2,20,29_20*%
%TO.N,unconnected-(U2-29-Pad20)*%
X173345800Y-37911300D03*
%TO.P,U2,21,3V3_21*%
%TO.N,VCC*%
X173345800Y-35371300D03*
%TO.P,U2,22,GND_22*%
%TO.N,GND*%
X173345800Y-32831300D03*
%TO.P,U2,23,5V_23*%
%TO.N,unconnected-(U2-5V-Pad23)*%
X173345800Y-30291300D03*
%TD*%
D13*
%TO.N,COL6*%
X167500000Y-52500000D03*
X170100000Y-52500000D03*
%TO.N,COL5*%
X177000000Y-45981300D03*
X150565000Y-48000000D03*
X131500000Y-94500000D03*
X149365000Y-47500000D03*
X131500000Y-96500000D03*
%TO.N,COL4*%
X112500000Y-95000000D03*
X112000000Y-39162500D03*
X111500000Y-58500000D03*
X132000000Y-81500000D03*
X130000000Y-81500000D03*
X112000000Y-37500000D03*
X149000000Y-82500000D03*
X112000000Y-57000000D03*
X112500000Y-96500000D03*
X150565000Y-82500000D03*
%TO.N,COL3*%
X175500000Y-58000000D03*
X146500000Y-100000000D03*
X94500000Y-99500000D03*
X147500000Y-80900000D03*
X170500000Y-63000000D03*
X95000000Y-102000000D03*
X134500000Y-104000000D03*
X168500000Y-63000000D03*
X147500000Y-76500000D03*
X151000000Y-69500000D03*
X147500000Y-82100000D03*
X134500000Y-100900000D03*
X147500000Y-79000000D03*
X174000000Y-60000000D03*
X147500000Y-98500000D03*
X149000000Y-70000000D03*
%TO.N,COL1*%
X170500000Y-59000000D03*
X111000000Y-68500000D03*
X149365000Y-67000000D03*
X72500000Y-67000000D03*
X112500000Y-68500000D03*
X168500000Y-59000000D03*
X94000000Y-63000000D03*
X130000000Y-71000000D03*
X143500000Y-69500000D03*
X145500000Y-70000000D03*
X92000000Y-63000000D03*
X151000000Y-67500000D03*
X133000000Y-73000000D03*
X75000000Y-67000000D03*
%TO.N,COL2*%
X183500000Y-47000000D03*
X181500000Y-42500000D03*
%TO.N,VCC*%
X185100000Y-72500000D03*
X183750000Y-72500000D03*
X186750000Y-72500000D03*
X187500000Y-73750000D03*
%TO.N,RX*%
X185100000Y-74000000D03*
X183750000Y-74000000D03*
%TO.N,ROW0*%
X180000000Y-40000000D03*
X74500000Y-43000000D03*
X149000000Y-38500000D03*
X92000000Y-41500000D03*
X132000000Y-35500000D03*
X151000000Y-39500000D03*
X178500000Y-41000000D03*
X93500000Y-41500000D03*
X130000000Y-35500000D03*
X73000000Y-43000000D03*
%TO.N,ROW1*%
X73000000Y-62500000D03*
X151000000Y-59500000D03*
X131515000Y-54500000D03*
X93500000Y-59000000D03*
X130000000Y-54000000D03*
X149000000Y-59000000D03*
X92215000Y-59000000D03*
X74500000Y-62500000D03*
%TO.N,ROW2*%
X74500000Y-81500000D03*
X131515000Y-74000000D03*
X93500000Y-77500000D03*
X151000000Y-78000000D03*
X73000000Y-81000000D03*
X111000000Y-73000000D03*
X92000000Y-78500000D03*
X130315000Y-73500000D03*
X149000000Y-78000000D03*
X112500000Y-73000000D03*
%TO.N,ROW3*%
X185000000Y-47500000D03*
X181000000Y-60000000D03*
X184000000Y-49000000D03*
X181500000Y-58000000D03*
%TO.N,ROW4*%
X182500000Y-58000000D03*
X151500000Y-114000000D03*
X182100000Y-59600000D03*
X166000000Y-75500000D03*
X156325735Y-109174265D03*
X157500000Y-108500000D03*
X168500000Y-69500000D03*
X152508805Y-112991195D03*
X172000000Y-69500000D03*
X166000000Y-80500000D03*
%TD*%
%TO.N,COL6*%
D14*
X167500000Y-52500000D02*
X170100000Y-52500000D01*
%TO.N,COL5*%
X177000000Y-45981300D02*
X177000000Y-48685500D01*
X177000000Y-48685500D02*
X178925800Y-50611300D01*
X131500000Y-96500000D02*
X131500000Y-94500000D01*
X149365000Y-47500000D02*
X150065000Y-47500000D01*
X150065000Y-47500000D02*
X150565000Y-48000000D01*
%TO.N,COL4*%
X150565000Y-82500000D02*
X149000000Y-82500000D01*
X112000000Y-37500000D02*
X112000000Y-39162500D01*
X112000000Y-57000000D02*
X112000000Y-58000000D01*
X112000000Y-58000000D02*
X111500000Y-58500000D01*
X132000000Y-81500000D02*
X130000000Y-81500000D01*
X112500000Y-96500000D02*
X112500000Y-95000000D01*
%TO.N,COL3*%
X147500000Y-76500000D02*
X147500000Y-79000000D01*
X147500000Y-80900000D02*
X147500000Y-82100000D01*
X175500000Y-58500000D02*
X174000000Y-60000000D01*
X170500000Y-63000000D02*
X168500000Y-63000000D01*
X151000000Y-69500000D02*
X150500000Y-70000000D01*
X147500000Y-99000000D02*
X146500000Y-100000000D01*
X134500000Y-100900000D02*
X134500000Y-104000000D01*
X95000000Y-100000000D02*
X94500000Y-99500000D01*
X95000000Y-102000000D02*
X95000000Y-100000000D01*
X150500000Y-70000000D02*
X149000000Y-70000000D01*
X147500000Y-98500000D02*
X147500000Y-99000000D01*
X175500000Y-58000000D02*
X175500000Y-58500000D01*
%TO.N,COL1*%
X72500000Y-67000000D02*
X75000000Y-67000000D01*
X130000000Y-71000000D02*
X131000000Y-71000000D01*
X92000000Y-63000000D02*
X94000000Y-63000000D01*
X150500000Y-67000000D02*
X151000000Y-67500000D01*
X168500000Y-59000000D02*
X170500000Y-59000000D01*
X145000000Y-69500000D02*
X145500000Y-70000000D01*
X111000000Y-68500000D02*
X112500000Y-68500000D01*
X131000000Y-71000000D02*
X133000000Y-73000000D01*
X143500000Y-69500000D02*
X145000000Y-69500000D01*
X149365000Y-67000000D02*
X150500000Y-67000000D01*
%TO.N,COL2*%
X181500000Y-42500000D02*
X181500000Y-45000000D01*
X181500000Y-45000000D02*
X183500000Y-47000000D01*
%TO.N,TX*%
X187595800Y-68996300D02*
X184500000Y-72092100D01*
X187595800Y-31781300D02*
X187595800Y-68996300D01*
X184500000Y-76042300D02*
X184925000Y-76467300D01*
X184500000Y-72092100D02*
X184500000Y-76042300D01*
X189085800Y-30291300D02*
X187595800Y-31781300D01*
%TO.N,VCC*%
X185100000Y-72500000D02*
X186750000Y-72500000D01*
X183750000Y-72500000D02*
X183750000Y-72000000D01*
X177435800Y-70028100D02*
X177435800Y-49686986D01*
X187867300Y-76467300D02*
X187925000Y-76467300D01*
X177435800Y-49686986D02*
X174895800Y-47146986D01*
X183750000Y-72000000D02*
X183000000Y-71250000D01*
X174895800Y-36421300D02*
X173845800Y-35371300D01*
X187400000Y-73850000D02*
X187400000Y-76000000D01*
X183000000Y-71250000D02*
X178657700Y-71250000D01*
X174895800Y-47146986D02*
X174895800Y-36421300D01*
X187500000Y-73750000D02*
X187400000Y-73850000D01*
X178657700Y-71250000D02*
X177435800Y-70028100D01*
X187400000Y-76000000D02*
X187867300Y-76467300D01*
%TO.N,GND*%
X179975800Y-52046224D02*
X179975800Y-48605629D01*
X184500000Y-71250000D02*
X184500000Y-56570424D01*
X184500000Y-56570424D02*
X179975800Y-52046224D01*
X179975800Y-48605629D02*
X177600000Y-46229829D01*
X184500000Y-71250000D02*
X183217300Y-69967300D01*
X177600000Y-36585500D02*
X173845800Y-32831300D01*
X177600000Y-46229829D02*
X177600000Y-36585500D01*
X183217300Y-69967300D02*
X179825000Y-69967300D01*
%TO.N,RX*%
X185100000Y-74000000D02*
X186098528Y-74000000D01*
X183500000Y-74000000D02*
X181032700Y-76467300D01*
X191135800Y-68962729D02*
X191135800Y-34881300D01*
X191135800Y-34881300D02*
X189085800Y-32831300D01*
X183750000Y-74000000D02*
X183500000Y-74000000D01*
X181032700Y-76467300D02*
X180925000Y-76467300D01*
X186098528Y-74000000D02*
X191135800Y-68962729D01*
%TO.N,ROW0*%
X93500000Y-41500000D02*
X92000000Y-41500000D01*
X178500000Y-41000000D02*
X179000000Y-41000000D01*
X150000000Y-39500000D02*
X151000000Y-39500000D01*
X179000000Y-41000000D02*
X180000000Y-40000000D01*
X74500000Y-43000000D02*
X73000000Y-43000000D01*
X130000000Y-35500000D02*
X132000000Y-35500000D01*
X149000000Y-38500000D02*
X150000000Y-39500000D01*
%TO.N,ROW1*%
X149000000Y-59000000D02*
X150500000Y-59000000D01*
X92215000Y-59000000D02*
X93500000Y-59000000D01*
X73000000Y-62500000D02*
X74500000Y-62500000D01*
X130000000Y-54000000D02*
X131015000Y-54000000D01*
X131015000Y-54000000D02*
X131515000Y-54500000D01*
X150500000Y-59000000D02*
X151000000Y-59500000D01*
%TO.N,ROW2*%
X130315000Y-73500000D02*
X131015000Y-73500000D01*
X92500000Y-78500000D02*
X93500000Y-77500000D01*
X151000000Y-78000000D02*
X149000000Y-78000000D01*
X92000000Y-78500000D02*
X92500000Y-78500000D01*
X131015000Y-73500000D02*
X131515000Y-74000000D01*
X74000000Y-81000000D02*
X74500000Y-81500000D01*
X111000000Y-73000000D02*
X112500000Y-73000000D01*
X73000000Y-81000000D02*
X74000000Y-81000000D01*
%TO.N,ROW3*%
X181500000Y-59500000D02*
X181500000Y-58000000D01*
X181000000Y-60000000D02*
X181500000Y-59500000D01*
X184000000Y-48500000D02*
X185000000Y-47500000D01*
X184000000Y-49000000D02*
X184000000Y-48500000D01*
%TO.N,ROW4*%
X166000000Y-80500000D02*
X166000000Y-75500000D01*
X156825735Y-109174265D02*
X157500000Y-108500000D01*
X182100000Y-59600000D02*
X182100000Y-58400000D01*
X156325735Y-109174265D02*
X156825735Y-109174265D01*
X151500000Y-114000000D02*
X152508805Y-112991195D01*
X182100000Y-58400000D02*
X182500000Y-58000000D01*
X168500000Y-69500000D02*
X172000000Y-69500000D01*
%TD*%
M02*
