%TF.GenerationSoftware,KiCad,Pcbnew,10.0.1*%
%TF.CreationDate,2026-06-06T17:58:52+12:00*%
%TF.ProjectId,keyboard,6b657962-6f61-4726-942e-6b696361645f,rev?*%
%TF.SameCoordinates,Original*%
%TF.FileFunction,Soldermask,Top*%
%TF.FilePolarity,Negative*%
%FSLAX46Y46*%
G04 Gerber Fmt 4.6, Leading zero omitted, Abs format (unit mm)*
G04 Created by KiCad (PCBNEW 10.0.1) date 2026-06-06 17:58:52*
%MOMM*%
%LPD*%
G01*
G04 APERTURE LIST*
%ADD10C,2.200000*%
%ADD11C,1.750000*%
%ADD12C,3.050000*%
%ADD13C,4.000000*%
%ADD14C,1.500000*%
%ADD15R,1.200000X2.500000*%
%ADD16O,2.500000X1.500000*%
%ADD17O,1.500000X2.500000*%
G04 APERTURE END LIST*
D10*
%TO.C,REF\u002A\u002A*%
X52139800Y-106184300D03*
%TD*%
D11*
%TO.C,SW12*%
X151970000Y-56725000D03*
D12*
X153240000Y-54185000D03*
D13*
X157050000Y-56725000D03*
D12*
X159590000Y-51645000D03*
D11*
X162130000Y-56725000D03*
%TD*%
%TO.C,SW27*%
X176691937Y-134765200D03*
D12*
X179297494Y-133635787D03*
D13*
X180583443Y-138030561D03*
D12*
X185794557Y-135771736D03*
D11*
X184474949Y-141295922D03*
%TD*%
%TO.C,SW17*%
X132920000Y-71012500D03*
D12*
X134190000Y-68472500D03*
D13*
X138000000Y-71012500D03*
D12*
X140540000Y-65932500D03*
D11*
X143080000Y-71012500D03*
%TD*%
%TO.C,SW10*%
X113870000Y-47200000D03*
D12*
X115140000Y-44660000D03*
D13*
X118950000Y-47200000D03*
D12*
X121490000Y-42120000D03*
D11*
X124030000Y-47200000D03*
%TD*%
%TO.C,SW6*%
X151970000Y-37675000D03*
D12*
X153240000Y-35135000D03*
D13*
X157050000Y-37675000D03*
D12*
X159590000Y-32595000D03*
D11*
X162130000Y-37675000D03*
%TD*%
%TO.C,SW4*%
X113870000Y-28150000D03*
D12*
X115140000Y-25610000D03*
D13*
X118950000Y-28150000D03*
D12*
X121490000Y-23070000D03*
D11*
X124030000Y-28150000D03*
%TD*%
%TO.C,SW25*%
X135513849Y-114074153D03*
D12*
X137397975Y-111949402D03*
D13*
X140420752Y-115388954D03*
D12*
X144189004Y-111139451D03*
D11*
X145327655Y-116703755D03*
%TD*%
%TO.C,SW22*%
X113870000Y-85300000D03*
D12*
X115140000Y-82760000D03*
D13*
X118950000Y-85300000D03*
D12*
X121490000Y-80220000D03*
D11*
X124030000Y-85300000D03*
%TD*%
%TO.C,SW13*%
X56720000Y-75775000D03*
D12*
X57990000Y-73235000D03*
D13*
X61800000Y-75775000D03*
D12*
X64340000Y-70695000D03*
D11*
X66880000Y-75775000D03*
%TD*%
%TO.C,SW20*%
X75770000Y-94825000D03*
D12*
X77040000Y-92285000D03*
D13*
X80850000Y-94825000D03*
D12*
X83390000Y-89745000D03*
D11*
X85930000Y-94825000D03*
%TD*%
%TO.C,SW18*%
X151970000Y-75775000D03*
D12*
X153240000Y-73235000D03*
D13*
X157050000Y-75775000D03*
D12*
X159590000Y-70695000D03*
D11*
X162130000Y-75775000D03*
%TD*%
%TO.C,SW5*%
X132920000Y-32912500D03*
D12*
X134190000Y-30372500D03*
D13*
X138000000Y-32912500D03*
D12*
X140540000Y-27832500D03*
D11*
X143080000Y-32912500D03*
%TD*%
%TO.C,SW16*%
X113870000Y-66250000D03*
D12*
X115140000Y-63710000D03*
D13*
X118950000Y-66250000D03*
D12*
X121490000Y-61170000D03*
D11*
X124030000Y-66250000D03*
%TD*%
%TO.C,SW19*%
X56720000Y-94825000D03*
D12*
X57990000Y-92285000D03*
D13*
X61800000Y-94825000D03*
D12*
X64340000Y-89745000D03*
D11*
X66880000Y-94825000D03*
%TD*%
D10*
%TO.C,REF\u002A\u002A*%
X165723261Y-142686600D03*
%TD*%
D11*
%TO.C,SW21*%
X94820000Y-90062500D03*
D12*
X96090000Y-87522500D03*
D13*
X99900000Y-90062500D03*
D12*
X102440000Y-84982500D03*
D11*
X104980000Y-90062500D03*
%TD*%
%TO.C,SW7*%
X56720000Y-56725000D03*
D12*
X57990000Y-54185000D03*
D13*
X61800000Y-56725000D03*
D12*
X64340000Y-51645000D03*
D11*
X66880000Y-56725000D03*
%TD*%
%TO.C,SW11*%
X132920000Y-51962500D03*
D12*
X134190000Y-49422500D03*
D13*
X138000000Y-51962500D03*
D12*
X140540000Y-46882500D03*
D11*
X143080000Y-51962500D03*
%TD*%
%TO.C,SW14*%
X75770000Y-75775000D03*
D12*
X77040000Y-73235000D03*
D13*
X80850000Y-75775000D03*
D12*
X83390000Y-70695000D03*
D11*
X85930000Y-75775000D03*
%TD*%
%TO.C,SW9*%
X94820000Y-51962500D03*
D12*
X96090000Y-49422500D03*
D13*
X99900000Y-51962500D03*
D12*
X102440000Y-46882500D03*
D11*
X104980000Y-51962500D03*
%TD*%
D10*
%TO.C,REF\u002A\u002A*%
X168139800Y-31434300D03*
%TD*%
D11*
%TO.C,SW23*%
X132920000Y-90062500D03*
D12*
X134190000Y-87522500D03*
D13*
X138000000Y-90062500D03*
D12*
X140540000Y-84982500D03*
D11*
X143080000Y-90062500D03*
%TD*%
%TO.C,SW3*%
X94820000Y-32912500D03*
D12*
X96090000Y-30372500D03*
D13*
X99900000Y-32912500D03*
D12*
X102440000Y-27832500D03*
D11*
X104980000Y-32912500D03*
%TD*%
%TO.C,SW2*%
X75770000Y-37675000D03*
D12*
X77040000Y-35135000D03*
D13*
X80850000Y-37675000D03*
D12*
X83390000Y-32595000D03*
D11*
X85930000Y-37675000D03*
%TD*%
D14*
%TO.C,J2*%
X189000000Y-72750000D03*
X182000000Y-72750000D03*
D15*
X184400000Y-76000000D03*
X187400000Y-76000000D03*
X179300000Y-69500000D03*
X180400000Y-76000000D03*
%TD*%
D11*
%TO.C,SW8*%
X75770000Y-56725000D03*
D12*
X77040000Y-54185000D03*
D13*
X80850000Y-56725000D03*
D12*
X83390000Y-51645000D03*
D11*
X85930000Y-56725000D03*
%TD*%
%TO.C,SW26*%
X157093735Y-122603854D03*
D12*
X159463587Y-121039149D03*
D13*
X161493144Y-125143854D03*
D12*
X166232849Y-122014445D03*
D11*
X165892553Y-127683854D03*
%TD*%
%TO.C,SW15*%
X94820000Y-71012500D03*
D12*
X96090000Y-68472500D03*
D13*
X99900000Y-71012500D03*
D12*
X102440000Y-65932500D03*
D11*
X104980000Y-71012500D03*
%TD*%
%TO.C,SW1*%
X56720000Y-37675000D03*
D12*
X57990000Y-35135000D03*
D13*
X61800000Y-37675000D03*
D12*
X64340000Y-32595000D03*
D11*
X66880000Y-37675000D03*
%TD*%
D10*
%TO.C,REF\u002A\u002A*%
X51639800Y-29934300D03*
%TD*%
D11*
%TO.C,SW24*%
X151970000Y-94825000D03*
D12*
X153240000Y-92285000D03*
D13*
X157050000Y-94825000D03*
D12*
X159590000Y-89745000D03*
D11*
X162130000Y-94825000D03*
%TD*%
D16*
%TO.C,U2*%
X189585800Y-30291300D03*
X189585800Y-32831300D03*
X189585800Y-35371300D03*
X189585800Y-37911300D03*
X189585800Y-40451300D03*
X189585800Y-42991300D03*
X189585800Y-45531300D03*
X189585800Y-48071300D03*
X189585800Y-50611300D03*
D17*
X186545800Y-51111300D03*
X184005800Y-51111300D03*
X181465800Y-51111300D03*
X178925800Y-51111300D03*
X176385800Y-51111300D03*
D16*
X173345800Y-50611300D03*
X173345800Y-48071300D03*
X173345800Y-45531300D03*
X173345800Y-42991300D03*
X173345800Y-40451300D03*
X173345800Y-37911300D03*
X173345800Y-35371300D03*
X173345800Y-32831300D03*
X173345800Y-30291300D03*
%TD*%
M02*
