M48
; DRILL file KiCad 10.0.1 date 2026-06-18T15:21:02
; FORMAT={-:-/ absolute / metric / decimal}
; #@! TF.CreationDate,2026-06-18T15:21:02+12:00
; #@! TF.GenerationSoftware,Kicad,Pcbnew,10.0.1
; #@! TF.FileFunction,Plated,1,2,PTH
FMAT,2
METRIC
; #@! TA.AperFunction,Plated,PTH,ViaDrill
T1C0.300
; #@! TA.AperFunction,Plated,PTH,ComponentDrill
T2C1.000
%
G90
G05
T1
X72.5Y-67.0
X73.0Y-43.0
X73.0Y-62.5
X73.0Y-81.0
X74.5Y-43.0
X74.5Y-62.5
X74.5Y-81.5
X75.0Y-67.0
X92.0Y-41.5
X92.0Y-63.0
X92.0Y-78.5
X92.215Y-59.0
X93.5Y-41.5
X93.5Y-59.0
X93.5Y-77.5
X94.0Y-63.0
X94.5Y-99.5
X95.0Y-102.0
X111.0Y-68.5
X111.0Y-73.0
X111.5Y-58.5
X112.0Y-37.5
X112.0Y-39.163
X112.0Y-57.0
X112.5Y-68.5
X112.5Y-73.0
X112.5Y-95.0
X112.5Y-96.5
X130.0Y-35.5
X130.0Y-54.0
X130.0Y-71.0
X130.0Y-81.5
X130.315Y-73.5
X131.5Y-94.5
X131.5Y-96.5
X131.515Y-54.5
X131.515Y-74.0
X132.0Y-35.5
X132.0Y-81.5
X133.0Y-73.0
X134.5Y-100.9
X134.5Y-104.0
X143.5Y-69.5
X145.5Y-70.0
X146.5Y-100.0
X147.5Y-76.5
X147.5Y-79.0
X147.5Y-80.9
X147.5Y-82.1
X147.5Y-98.5
X149.0Y-38.5
X149.0Y-59.0
X149.0Y-70.0
X149.0Y-78.0
X149.0Y-82.5
X149.365Y-47.5
X149.365Y-67.0
X150.565Y-48.0
X150.565Y-82.5
X151.0Y-39.5
X151.0Y-59.5
X151.0Y-67.5
X151.0Y-69.5
X151.0Y-78.0
X151.5Y-114.0
X152.509Y-112.991
X156.326Y-109.174
X157.5Y-108.5
X166.0Y-75.5
X166.0Y-80.5
X167.5Y-52.5
X168.5Y-59.0
X168.5Y-63.0
X168.5Y-69.5
X170.1Y-52.5
X170.5Y-59.0
X170.5Y-63.0
X172.0Y-69.5
X174.0Y-60.0
X175.5Y-58.0
X177.0Y-45.981
X178.5Y-41.0
X180.0Y-40.0
X181.0Y-60.0
X181.5Y-42.5
X181.5Y-58.0
X182.1Y-59.6
X182.5Y-58.0
X183.5Y-47.0
X183.75Y-72.5
X183.75Y-74.0
X184.0Y-49.0
X185.0Y-47.5
X185.1Y-72.5
X185.1Y-74.0
X186.75Y-72.5
X187.5Y-73.75
T2
X173.846Y-30.291
X173.846Y-32.831
X173.846Y-35.371
X173.846Y-37.911
X173.846Y-40.451
X173.846Y-42.991
X173.846Y-45.531
X173.846Y-48.071
X173.846Y-50.611
X176.386Y-50.611
X178.926Y-50.611
X181.466Y-50.611
X184.006Y-50.611
X186.546Y-50.611
X189.086Y-30.291
X189.086Y-32.831
X189.086Y-35.371
X189.086Y-37.911
X189.086Y-40.451
X189.086Y-42.991
X189.086Y-45.531
X189.086Y-48.071
X189.086Y-50.611
M30
