%TF.GenerationSoftware,KiCad,Pcbnew,10.0.1*%
%TF.CreationDate,2026-06-06T17:58:52+12:00*%
%TF.ProjectId,keyboard,6b657962-6f61-4726-942e-6b696361645f,rev?*%
%TF.SameCoordinates,Original*%
%TF.FileFunction,Paste,Bot*%
%TF.FilePolarity,Positive*%
%FSLAX46Y46*%
G04 Gerber Fmt 4.6, Leading zero omitted, Abs format (unit mm)*
G04 Created by KiCad (PCBNEW 10.0.1) date 2026-06-06 17:58:52*
%MOMM*%
%LPD*%
G01*
G04 APERTURE LIST*
G04 Aperture macros list*
%AMRoundRect*
0 Rectangle with rounded corners*
0 $1 Rounding radius*
0 $2 $3 $4 $5 $6 $7 $8 $9 X,Y pos of 4 corners*
0 Add a 4 corners polygon primitive as box body*
4,1,4,$2,$3,$4,$5,$6,$7,$8,$9,$2,$3,0*
0 Add four circle primitives for the rounded corners*
1,1,$1+$1,$2,$3*
1,1,$1+$1,$4,$5*
1,1,$1+$1,$6,$7*
1,1,$1+$1,$8,$9*
0 Add four rect primitives between the rounded corners*
20,1,$1+$1,$2,$3,$4,$5,0*
20,1,$1+$1,$4,$5,$6,$7,0*
20,1,$1+$1,$6,$7,$8,$9,0*
20,1,$1+$1,$8,$9,$2,$3,0*%
G04 Aperture macros list end*
%ADD10RoundRect,0.250000X-1.025000X-1.000000X1.025000X-1.000000X1.025000X1.000000X-1.025000X1.000000X0*%
%ADD11RoundRect,0.250000X-1.427983X-0.107187X0.142408X-1.424902X1.427983X0.107187X-0.142408X1.424902X0*%
%ADD12RoundRect,0.250000X-1.248893X-0.700636X0.731255X-1.231215X1.248893X0.700636X-0.731255X1.231215X0*%
%ADD13RoundRect,0.250000X-1.387676X-0.353525X0.387676X-1.378525X1.387676X0.353525X-0.387676X1.378525X0*%
%ADD14RoundRect,0.225000X0.375000X-0.225000X0.375000X0.225000X-0.375000X0.225000X-0.375000X-0.225000X0*%
%ADD15RoundRect,0.225000X0.212260X-0.382356X0.437260X0.007356X-0.212260X0.382356X-0.437260X-0.007356X0*%
%ADD16RoundRect,0.225000X0.303988X-0.314390X0.420456X0.120276X-0.303988X0.314390X-0.420456X-0.120276X0*%
%ADD17RoundRect,0.225000X0.142639X-0.413405X0.431894X-0.068685X-0.142639X0.413405X-0.431894X0.068685X0*%
G04 APERTURE END LIST*
D10*
%TO.C,SW12*%
X149965000Y-54185000D03*
X162892000Y-51645000D03*
%TD*%
D11*
%TO.C,SW27*%
X176788699Y-131530658D03*
X188324036Y-137894220D03*
%TD*%
D10*
%TO.C,SW17*%
X130915000Y-68472500D03*
X143842000Y-65932500D03*
%TD*%
%TO.C,SW10*%
X111865000Y-44660000D03*
X124792000Y-42120000D03*
%TD*%
%TO.C,SW6*%
X149965000Y-35135000D03*
X162892000Y-32595000D03*
%TD*%
%TO.C,SW4*%
X111865000Y-25610000D03*
X124792000Y-23070000D03*
%TD*%
D12*
%TO.C,SW25*%
X134234568Y-111101769D03*
X147378491Y-111994072D03*
%TD*%
D10*
%TO.C,SW22*%
X111865000Y-82760000D03*
X124792000Y-80220000D03*
%TD*%
%TO.C,SW13*%
X54715000Y-73235000D03*
X67642000Y-70695000D03*
%TD*%
%TO.C,SW20*%
X73765000Y-92285000D03*
X86692000Y-89745000D03*
%TD*%
%TO.C,SW18*%
X149965000Y-73235000D03*
X162892000Y-70695000D03*
%TD*%
%TO.C,SW5*%
X130915000Y-30372500D03*
X143842000Y-27832500D03*
%TD*%
%TO.C,SW16*%
X111865000Y-63710000D03*
X124792000Y-61170000D03*
%TD*%
%TO.C,SW19*%
X54715000Y-92285000D03*
X67642000Y-89745000D03*
%TD*%
%TO.C,SW21*%
X92815000Y-87522500D03*
X105742000Y-84982500D03*
%TD*%
%TO.C,SW7*%
X54715000Y-54185000D03*
X67642000Y-51645000D03*
%TD*%
%TO.C,SW11*%
X130915000Y-49422500D03*
X143842000Y-46882500D03*
%TD*%
%TO.C,SW14*%
X73765000Y-73235000D03*
X86692000Y-70695000D03*
%TD*%
%TO.C,SW9*%
X92815000Y-49422500D03*
X105742000Y-46882500D03*
%TD*%
%TO.C,SW23*%
X130915000Y-87522500D03*
X143842000Y-84982500D03*
%TD*%
%TO.C,SW3*%
X92815000Y-30372500D03*
X105742000Y-27832500D03*
%TD*%
%TO.C,SW2*%
X73765000Y-35135000D03*
X86692000Y-32595000D03*
%TD*%
%TO.C,SW8*%
X73765000Y-54185000D03*
X86692000Y-51645000D03*
%TD*%
D13*
%TO.C,SW26*%
X156627354Y-119401649D03*
X169092464Y-123665445D03*
%TD*%
D10*
%TO.C,SW15*%
X92815000Y-68472500D03*
X105742000Y-65932500D03*
%TD*%
%TO.C,SW1*%
X54715000Y-35135000D03*
X67642000Y-32595000D03*
%TD*%
%TO.C,SW24*%
X149965000Y-92285000D03*
X162892000Y-89745000D03*
%TD*%
D14*
%TO.C,D18*%
X162130000Y-81425000D03*
X162130000Y-78125000D03*
%TD*%
%TO.C,D12*%
X162130000Y-62375000D03*
X162130000Y-59075000D03*
%TD*%
%TO.C,D17*%
X143080000Y-76662500D03*
X143080000Y-73362500D03*
%TD*%
D15*
%TO.C,D26*%
X163067553Y-132576897D03*
X164717553Y-129719013D03*
%TD*%
D14*
%TO.C,D24*%
X162130000Y-100475000D03*
X162130000Y-97175000D03*
%TD*%
%TO.C,D2*%
X85930000Y-43325000D03*
X85930000Y-40025000D03*
%TD*%
%TO.C,D15*%
X104980000Y-76662500D03*
X104980000Y-73362500D03*
%TD*%
%TO.C,D7*%
X66880000Y-62375000D03*
X66880000Y-59075000D03*
%TD*%
%TO.C,D14*%
X85930000Y-81425000D03*
X85930000Y-78125000D03*
%TD*%
%TO.C,D5*%
X143080000Y-38562500D03*
X143080000Y-35262500D03*
%TD*%
%TO.C,D22*%
X124030000Y-90950000D03*
X124030000Y-87650000D03*
%TD*%
%TO.C,D3*%
X104980000Y-38562500D03*
X104980000Y-35262500D03*
%TD*%
%TO.C,D13*%
X66880000Y-81425000D03*
X66880000Y-78125000D03*
%TD*%
%TO.C,D23*%
X143080000Y-95712500D03*
X143080000Y-92412500D03*
%TD*%
%TO.C,D1*%
X66880000Y-43325000D03*
X66880000Y-40025000D03*
%TD*%
D16*
%TO.C,D25*%
X143865329Y-122161236D03*
X144719429Y-118973680D03*
%TD*%
D14*
%TO.C,D19*%
X66880000Y-100475000D03*
X66880000Y-97175000D03*
%TD*%
%TO.C,D16*%
X124030000Y-71900000D03*
X124030000Y-68600000D03*
%TD*%
%TO.C,D4*%
X124030000Y-33800000D03*
X124030000Y-30500000D03*
%TD*%
%TO.C,D10*%
X124030000Y-52850000D03*
X124030000Y-49550000D03*
%TD*%
%TO.C,D6*%
X162130000Y-43325000D03*
X162130000Y-40025000D03*
%TD*%
%TO.C,D20*%
X85930000Y-100475000D03*
X85930000Y-97175000D03*
%TD*%
%TO.C,D8*%
X85930000Y-62375000D03*
X85930000Y-59075000D03*
%TD*%
D17*
%TO.C,D27*%
X180843198Y-145624072D03*
X182964398Y-143096126D03*
%TD*%
D14*
%TO.C,D11*%
X143080000Y-57612500D03*
X143080000Y-54312500D03*
%TD*%
%TO.C,D21*%
X104980000Y-95712500D03*
X104980000Y-92412500D03*
%TD*%
%TO.C,D9*%
X104980000Y-57612500D03*
X104980000Y-54312500D03*
%TD*%
M02*
