M48
; DRILL file KiCad 10.0.1 date 2026-06-18T15:21:02
; FORMAT={-:-/ absolute / metric / decimal}
; #@! TF.CreationDate,2026-06-18T15:21:02+12:00
; #@! TF.GenerationSoftware,Kicad,Pcbnew,10.0.1
; #@! TF.FileFunction,NonPlated,1,2,NPTH
FMAT,2
METRIC
; #@! TA.AperFunction,NonPlated,NPTH,ComponentDrill
T1C1.500
; #@! TA.AperFunction,NonPlated,NPTH,ComponentDrill
T2C1.750
; #@! TA.AperFunction,NonPlated,NPTH,ComponentDrill
T3C2.200
; #@! TA.AperFunction,NonPlated,NPTH,ComponentDrill
T4C3.050
; #@! TA.AperFunction,NonPlated,NPTH,ComponentDrill
T5C4.000
%
G90
G05
T1
X182.0Y-72.75
X189.0Y-72.75
T2
X56.72Y-37.675
X56.72Y-56.725
X56.72Y-75.775
X56.72Y-94.825
X66.88Y-37.675
X66.88Y-56.725
X66.88Y-75.775
X66.88Y-94.825
X75.77Y-37.675
X75.77Y-56.725
X75.77Y-75.775
X75.77Y-94.825
X85.93Y-37.675
X85.93Y-56.725
X85.93Y-75.775
X85.93Y-94.825
X94.82Y-32.913
X94.82Y-51.962
X94.82Y-71.013
X94.82Y-90.062
X104.98Y-32.913
X104.98Y-51.962
X104.98Y-71.013
X104.98Y-90.062
X113.87Y-28.15
X113.87Y-47.2
X113.87Y-66.25
X113.87Y-85.3
X124.03Y-28.15
X124.03Y-47.2
X124.03Y-66.25
X124.03Y-85.3
X132.92Y-32.913
X132.92Y-51.962
X132.92Y-71.013
X132.92Y-90.062
X135.514Y-114.074
X143.08Y-32.913
X143.08Y-51.962
X143.08Y-71.013
X143.08Y-90.062
X145.328Y-116.704
X151.97Y-37.675
X151.97Y-56.725
X151.97Y-75.775
X151.97Y-94.825
X157.094Y-122.604
X162.13Y-37.675
X162.13Y-56.725
X162.13Y-75.775
X162.13Y-94.825
X165.893Y-127.684
X176.692Y-134.765
X184.475Y-141.296
T3
X51.64Y-29.934
X52.14Y-106.184
X165.723Y-142.687
X168.14Y-31.434
T4
X57.99Y-35.135
X57.99Y-54.185
X57.99Y-73.235
X57.99Y-92.285
X64.34Y-32.595
X64.34Y-51.645
X64.34Y-70.695
X64.34Y-89.745
X77.04Y-35.135
X77.04Y-54.185
X77.04Y-73.235
X77.04Y-92.285
X83.39Y-32.595
X83.39Y-51.645
X83.39Y-70.695
X83.39Y-89.745
X96.09Y-30.372
X96.09Y-49.422
X96.09Y-68.472
X96.09Y-87.522
X102.44Y-27.832
X102.44Y-46.883
X102.44Y-65.932
X102.44Y-84.983
X115.14Y-25.61
X115.14Y-44.66
X115.14Y-63.71
X115.14Y-82.76
X121.49Y-23.07
X121.49Y-42.12
X121.49Y-61.17
X121.49Y-80.22
X134.19Y-30.372
X134.19Y-49.422
X134.19Y-68.472
X134.19Y-87.522
X137.398Y-111.949
X140.54Y-27.832
X140.54Y-46.883
X140.54Y-65.932
X140.54Y-84.983
X144.189Y-111.139
X153.24Y-35.135
X153.24Y-54.185
X153.24Y-73.235
X153.24Y-92.285
X159.464Y-121.039
X159.59Y-32.595
X159.59Y-51.645
X159.59Y-70.695
X159.59Y-89.745
X166.233Y-122.014
X179.297Y-133.636
X185.795Y-135.772
T5
X61.8Y-37.675
X61.8Y-56.725
X61.8Y-75.775
X61.8Y-94.825
X80.85Y-37.675
X80.85Y-56.725
X80.85Y-75.775
X80.85Y-94.825
X99.9Y-32.913
X99.9Y-51.962
X99.9Y-71.013
X99.9Y-90.062
X118.95Y-28.15
X118.95Y-47.2
X118.95Y-66.25
X118.95Y-85.3
X138.0Y-32.913
X138.0Y-51.962
X138.0Y-71.013
X138.0Y-90.062
X140.421Y-115.389
X157.05Y-37.675
X157.05Y-56.725
X157.05Y-75.775
X157.05Y-94.825
X161.493Y-125.144
X180.583Y-138.031
M30
