%TF.GenerationSoftware,KiCad,Pcbnew,10.0.1*%
%TF.CreationDate,2026-06-06T17:58:52+12:00*%
%TF.ProjectId,keyboard,6b657962-6f61-4726-942e-6b696361645f,rev?*%
%TF.SameCoordinates,Original*%
%TF.FileFunction,Legend,Bot*%
%TF.FilePolarity,Positive*%
%FSLAX46Y46*%
G04 Gerber Fmt 4.6, Leading zero omitted, Abs format (unit mm)*
G04 Created by KiCad (PCBNEW 10.0.1) date 2026-06-06 17:58:52*
%MOMM*%
%LPD*%
G01*
G04 APERTURE LIST*
%ADD10C,0.300000*%
%ADD11C,0.200000*%
%ADD12C,0.150000*%
%ADD13C,0.120000*%
G04 APERTURE END LIST*
D10*
X175614087Y-75445489D02*
X176614087Y-75445489D01*
X176328373Y-75445489D02*
X176471230Y-75374060D01*
X176471230Y-75374060D02*
X176542658Y-75302632D01*
X176542658Y-75302632D02*
X176614087Y-75159774D01*
X176614087Y-75159774D02*
X176614087Y-75016917D01*
X176614087Y-74731203D02*
X176614087Y-74159775D01*
X177114087Y-74516918D02*
X175828373Y-74516918D01*
X175828373Y-74516918D02*
X175685516Y-74445489D01*
X175685516Y-74445489D02*
X175614087Y-74302632D01*
X175614087Y-74302632D02*
X175614087Y-74159775D01*
X176614087Y-73802632D02*
X175614087Y-73445489D01*
X176614087Y-73088346D02*
X175614087Y-73445489D01*
X175614087Y-73445489D02*
X175256944Y-73588346D01*
X175256944Y-73588346D02*
X175185516Y-73659775D01*
X175185516Y-73659775D02*
X175114087Y-73802632D01*
X176614087Y-71874061D02*
X175614087Y-71874061D01*
X176614087Y-72516918D02*
X175828373Y-72516918D01*
X175828373Y-72516918D02*
X175685516Y-72445489D01*
X175685516Y-72445489D02*
X175614087Y-72302632D01*
X175614087Y-72302632D02*
X175614087Y-72088346D01*
X175614087Y-72088346D02*
X175685516Y-71945489D01*
X175685516Y-71945489D02*
X175756944Y-71874061D01*
X175614087Y-70016918D02*
X176614087Y-70016918D01*
X176471230Y-70016918D02*
X176542658Y-69945489D01*
X176542658Y-69945489D02*
X176614087Y-69802632D01*
X176614087Y-69802632D02*
X176614087Y-69588346D01*
X176614087Y-69588346D02*
X176542658Y-69445489D01*
X176542658Y-69445489D02*
X176399801Y-69374061D01*
X176399801Y-69374061D02*
X175614087Y-69374061D01*
X176399801Y-69374061D02*
X176542658Y-69302632D01*
X176542658Y-69302632D02*
X176614087Y-69159775D01*
X176614087Y-69159775D02*
X176614087Y-68945489D01*
X176614087Y-68945489D02*
X176542658Y-68802632D01*
X176542658Y-68802632D02*
X176399801Y-68731203D01*
X176399801Y-68731203D02*
X175614087Y-68731203D01*
X175614087Y-68159775D02*
X176614087Y-67374061D01*
X176614087Y-68159775D02*
X175614087Y-67374061D01*
X173199171Y-75231203D02*
X173270600Y-75374060D01*
X173270600Y-75374060D02*
X173413457Y-75445489D01*
X173413457Y-75445489D02*
X174699171Y-75445489D01*
X173270600Y-74088346D02*
X173199171Y-74231203D01*
X173199171Y-74231203D02*
X173199171Y-74516918D01*
X173199171Y-74516918D02*
X173270600Y-74659775D01*
X173270600Y-74659775D02*
X173413457Y-74731203D01*
X173413457Y-74731203D02*
X173984885Y-74731203D01*
X173984885Y-74731203D02*
X174127742Y-74659775D01*
X174127742Y-74659775D02*
X174199171Y-74516918D01*
X174199171Y-74516918D02*
X174199171Y-74231203D01*
X174199171Y-74231203D02*
X174127742Y-74088346D01*
X174127742Y-74088346D02*
X173984885Y-74016918D01*
X173984885Y-74016918D02*
X173842028Y-74016918D01*
X173842028Y-74016918D02*
X173699171Y-74731203D01*
X174199171Y-73588346D02*
X174199171Y-73016918D01*
X173199171Y-73374061D02*
X174484885Y-73374061D01*
X174484885Y-73374061D02*
X174627742Y-73302632D01*
X174627742Y-73302632D02*
X174699171Y-73159775D01*
X174699171Y-73159775D02*
X174699171Y-73016918D01*
X174199171Y-72731203D02*
X174199171Y-72159775D01*
X174699171Y-72516918D02*
X173413457Y-72516918D01*
X173413457Y-72516918D02*
X173270600Y-72445489D01*
X173270600Y-72445489D02*
X173199171Y-72302632D01*
X173199171Y-72302632D02*
X173199171Y-72159775D01*
X173270600Y-70588346D02*
X173199171Y-70445489D01*
X173199171Y-70445489D02*
X173199171Y-70159775D01*
X173199171Y-70159775D02*
X173270600Y-70016918D01*
X173270600Y-70016918D02*
X173413457Y-69945489D01*
X173413457Y-69945489D02*
X173484885Y-69945489D01*
X173484885Y-69945489D02*
X173627742Y-70016918D01*
X173627742Y-70016918D02*
X173699171Y-70159775D01*
X173699171Y-70159775D02*
X173699171Y-70374061D01*
X173699171Y-70374061D02*
X173770600Y-70516918D01*
X173770600Y-70516918D02*
X173913457Y-70588346D01*
X173913457Y-70588346D02*
X173984885Y-70588346D01*
X173984885Y-70588346D02*
X174127742Y-70516918D01*
X174127742Y-70516918D02*
X174199171Y-70374061D01*
X174199171Y-70374061D02*
X174199171Y-70159775D01*
X174199171Y-70159775D02*
X174127742Y-70016918D01*
X173199171Y-69302632D02*
X174199171Y-69302632D01*
X174699171Y-69302632D02*
X174627742Y-69374060D01*
X174627742Y-69374060D02*
X174556314Y-69302632D01*
X174556314Y-69302632D02*
X174627742Y-69231203D01*
X174627742Y-69231203D02*
X174699171Y-69302632D01*
X174699171Y-69302632D02*
X174556314Y-69302632D01*
X173199171Y-67945489D02*
X174699171Y-67945489D01*
X173270600Y-67945489D02*
X173199171Y-68088346D01*
X173199171Y-68088346D02*
X173199171Y-68374060D01*
X173199171Y-68374060D02*
X173270600Y-68516917D01*
X173270600Y-68516917D02*
X173342028Y-68588346D01*
X173342028Y-68588346D02*
X173484885Y-68659774D01*
X173484885Y-68659774D02*
X173913457Y-68659774D01*
X173913457Y-68659774D02*
X174056314Y-68588346D01*
X174056314Y-68588346D02*
X174127742Y-68516917D01*
X174127742Y-68516917D02*
X174199171Y-68374060D01*
X174199171Y-68374060D02*
X174199171Y-68088346D01*
X174199171Y-68088346D02*
X174127742Y-67945489D01*
X173270600Y-66659774D02*
X173199171Y-66802631D01*
X173199171Y-66802631D02*
X173199171Y-67088346D01*
X173199171Y-67088346D02*
X173270600Y-67231203D01*
X173270600Y-67231203D02*
X173413457Y-67302631D01*
X173413457Y-67302631D02*
X173984885Y-67302631D01*
X173984885Y-67302631D02*
X174127742Y-67231203D01*
X174127742Y-67231203D02*
X174199171Y-67088346D01*
X174199171Y-67088346D02*
X174199171Y-66802631D01*
X174199171Y-66802631D02*
X174127742Y-66659774D01*
X174127742Y-66659774D02*
X173984885Y-66588346D01*
X173984885Y-66588346D02*
X173842028Y-66588346D01*
X173842028Y-66588346D02*
X173699171Y-67302631D01*
D11*
X171312266Y-34823519D02*
X170693219Y-34823519D01*
X170693219Y-34823519D02*
X171026552Y-35204471D01*
X171026552Y-35204471D02*
X170883695Y-35204471D01*
X170883695Y-35204471D02*
X170788457Y-35252090D01*
X170788457Y-35252090D02*
X170740838Y-35299709D01*
X170740838Y-35299709D02*
X170693219Y-35394947D01*
X170693219Y-35394947D02*
X170693219Y-35633042D01*
X170693219Y-35633042D02*
X170740838Y-35728280D01*
X170740838Y-35728280D02*
X170788457Y-35775900D01*
X170788457Y-35775900D02*
X170883695Y-35823519D01*
X170883695Y-35823519D02*
X171169409Y-35823519D01*
X171169409Y-35823519D02*
X171264647Y-35775900D01*
X171264647Y-35775900D02*
X171312266Y-35728280D01*
X170407504Y-34823519D02*
X170074171Y-35823519D01*
X170074171Y-35823519D02*
X169740838Y-34823519D01*
X169502742Y-34823519D02*
X168883695Y-34823519D01*
X168883695Y-34823519D02*
X169217028Y-35204471D01*
X169217028Y-35204471D02*
X169074171Y-35204471D01*
X169074171Y-35204471D02*
X168978933Y-35252090D01*
X168978933Y-35252090D02*
X168931314Y-35299709D01*
X168931314Y-35299709D02*
X168883695Y-35394947D01*
X168883695Y-35394947D02*
X168883695Y-35633042D01*
X168883695Y-35633042D02*
X168931314Y-35728280D01*
X168931314Y-35728280D02*
X168978933Y-35775900D01*
X168978933Y-35775900D02*
X169074171Y-35823519D01*
X169074171Y-35823519D02*
X169359885Y-35823519D01*
X169359885Y-35823519D02*
X169455123Y-35775900D01*
X169455123Y-35775900D02*
X169502742Y-35728280D01*
X171264647Y-37458757D02*
X171217028Y-37411138D01*
X171217028Y-37411138D02*
X171121790Y-37363519D01*
X171121790Y-37363519D02*
X170883695Y-37363519D01*
X170883695Y-37363519D02*
X170788457Y-37411138D01*
X170788457Y-37411138D02*
X170740838Y-37458757D01*
X170740838Y-37458757D02*
X170693219Y-37553995D01*
X170693219Y-37553995D02*
X170693219Y-37649233D01*
X170693219Y-37649233D02*
X170740838Y-37792090D01*
X170740838Y-37792090D02*
X171312266Y-38363519D01*
X171312266Y-38363519D02*
X170693219Y-38363519D01*
X170217028Y-38363519D02*
X170026552Y-38363519D01*
X170026552Y-38363519D02*
X169931314Y-38315900D01*
X169931314Y-38315900D02*
X169883695Y-38268280D01*
X169883695Y-38268280D02*
X169788457Y-38125423D01*
X169788457Y-38125423D02*
X169740838Y-37934947D01*
X169740838Y-37934947D02*
X169740838Y-37553995D01*
X169740838Y-37553995D02*
X169788457Y-37458757D01*
X169788457Y-37458757D02*
X169836076Y-37411138D01*
X169836076Y-37411138D02*
X169931314Y-37363519D01*
X169931314Y-37363519D02*
X170121790Y-37363519D01*
X170121790Y-37363519D02*
X170217028Y-37411138D01*
X170217028Y-37411138D02*
X170264647Y-37458757D01*
X170264647Y-37458757D02*
X170312266Y-37553995D01*
X170312266Y-37553995D02*
X170312266Y-37792090D01*
X170312266Y-37792090D02*
X170264647Y-37887328D01*
X170264647Y-37887328D02*
X170217028Y-37934947D01*
X170217028Y-37934947D02*
X170121790Y-37982566D01*
X170121790Y-37982566D02*
X169931314Y-37982566D01*
X169931314Y-37982566D02*
X169836076Y-37934947D01*
X169836076Y-37934947D02*
X169788457Y-37887328D01*
X169788457Y-37887328D02*
X169740838Y-37792090D01*
X171264647Y-39998757D02*
X171217028Y-39951138D01*
X171217028Y-39951138D02*
X171121790Y-39903519D01*
X171121790Y-39903519D02*
X170883695Y-39903519D01*
X170883695Y-39903519D02*
X170788457Y-39951138D01*
X170788457Y-39951138D02*
X170740838Y-39998757D01*
X170740838Y-39998757D02*
X170693219Y-40093995D01*
X170693219Y-40093995D02*
X170693219Y-40189233D01*
X170693219Y-40189233D02*
X170740838Y-40332090D01*
X170740838Y-40332090D02*
X171312266Y-40903519D01*
X171312266Y-40903519D02*
X170693219Y-40903519D01*
X170121790Y-40332090D02*
X170217028Y-40284471D01*
X170217028Y-40284471D02*
X170264647Y-40236852D01*
X170264647Y-40236852D02*
X170312266Y-40141614D01*
X170312266Y-40141614D02*
X170312266Y-40093995D01*
X170312266Y-40093995D02*
X170264647Y-39998757D01*
X170264647Y-39998757D02*
X170217028Y-39951138D01*
X170217028Y-39951138D02*
X170121790Y-39903519D01*
X170121790Y-39903519D02*
X169931314Y-39903519D01*
X169931314Y-39903519D02*
X169836076Y-39951138D01*
X169836076Y-39951138D02*
X169788457Y-39998757D01*
X169788457Y-39998757D02*
X169740838Y-40093995D01*
X169740838Y-40093995D02*
X169740838Y-40141614D01*
X169740838Y-40141614D02*
X169788457Y-40236852D01*
X169788457Y-40236852D02*
X169836076Y-40284471D01*
X169836076Y-40284471D02*
X169931314Y-40332090D01*
X169931314Y-40332090D02*
X170121790Y-40332090D01*
X170121790Y-40332090D02*
X170217028Y-40379709D01*
X170217028Y-40379709D02*
X170264647Y-40427328D01*
X170264647Y-40427328D02*
X170312266Y-40522566D01*
X170312266Y-40522566D02*
X170312266Y-40713042D01*
X170312266Y-40713042D02*
X170264647Y-40808280D01*
X170264647Y-40808280D02*
X170217028Y-40855900D01*
X170217028Y-40855900D02*
X170121790Y-40903519D01*
X170121790Y-40903519D02*
X169931314Y-40903519D01*
X169931314Y-40903519D02*
X169836076Y-40855900D01*
X169836076Y-40855900D02*
X169788457Y-40808280D01*
X169788457Y-40808280D02*
X169740838Y-40713042D01*
X169740838Y-40713042D02*
X169740838Y-40522566D01*
X169740838Y-40522566D02*
X169788457Y-40427328D01*
X169788457Y-40427328D02*
X169836076Y-40379709D01*
X169836076Y-40379709D02*
X169931314Y-40332090D01*
X171264647Y-42538757D02*
X171217028Y-42491138D01*
X171217028Y-42491138D02*
X171121790Y-42443519D01*
X171121790Y-42443519D02*
X170883695Y-42443519D01*
X170883695Y-42443519D02*
X170788457Y-42491138D01*
X170788457Y-42491138D02*
X170740838Y-42538757D01*
X170740838Y-42538757D02*
X170693219Y-42633995D01*
X170693219Y-42633995D02*
X170693219Y-42729233D01*
X170693219Y-42729233D02*
X170740838Y-42872090D01*
X170740838Y-42872090D02*
X171312266Y-43443519D01*
X171312266Y-43443519D02*
X170693219Y-43443519D01*
X170359885Y-42443519D02*
X169693219Y-42443519D01*
X169693219Y-42443519D02*
X170121790Y-43443519D01*
X170693219Y-48523519D02*
X171264647Y-48523519D01*
X170978933Y-48523519D02*
X170978933Y-47523519D01*
X170978933Y-47523519D02*
X171074171Y-47666376D01*
X171074171Y-47666376D02*
X171169409Y-47761614D01*
X171169409Y-47761614D02*
X171264647Y-47809233D01*
X169788457Y-47523519D02*
X170264647Y-47523519D01*
X170264647Y-47523519D02*
X170312266Y-47999709D01*
X170312266Y-47999709D02*
X170264647Y-47952090D01*
X170264647Y-47952090D02*
X170169409Y-47904471D01*
X170169409Y-47904471D02*
X169931314Y-47904471D01*
X169931314Y-47904471D02*
X169836076Y-47952090D01*
X169836076Y-47952090D02*
X169788457Y-47999709D01*
X169788457Y-47999709D02*
X169740838Y-48094947D01*
X169740838Y-48094947D02*
X169740838Y-48333042D01*
X169740838Y-48333042D02*
X169788457Y-48428280D01*
X169788457Y-48428280D02*
X169836076Y-48475900D01*
X169836076Y-48475900D02*
X169931314Y-48523519D01*
X169931314Y-48523519D02*
X170169409Y-48523519D01*
X170169409Y-48523519D02*
X170264647Y-48475900D01*
X170264647Y-48475900D02*
X170312266Y-48428280D01*
X170693219Y-51063519D02*
X171264647Y-51063519D01*
X170978933Y-51063519D02*
X170978933Y-50063519D01*
X170978933Y-50063519D02*
X171074171Y-50206376D01*
X171074171Y-50206376D02*
X171169409Y-50301614D01*
X171169409Y-50301614D02*
X171264647Y-50349233D01*
X169836076Y-50396852D02*
X169836076Y-51063519D01*
X170074171Y-50015900D02*
X170312266Y-50730185D01*
X170312266Y-50730185D02*
X169693219Y-50730185D01*
X171273745Y-45079749D02*
X171226126Y-45032130D01*
X171226126Y-45032130D02*
X171130888Y-44984511D01*
X171130888Y-44984511D02*
X170892793Y-44984511D01*
X170892793Y-44984511D02*
X170797555Y-45032130D01*
X170797555Y-45032130D02*
X170749936Y-45079749D01*
X170749936Y-45079749D02*
X170702317Y-45174987D01*
X170702317Y-45174987D02*
X170702317Y-45270225D01*
X170702317Y-45270225D02*
X170749936Y-45413082D01*
X170749936Y-45413082D02*
X171321364Y-45984511D01*
X171321364Y-45984511D02*
X170702317Y-45984511D01*
X169845174Y-44984511D02*
X170035650Y-44984511D01*
X170035650Y-44984511D02*
X170130888Y-45032130D01*
X170130888Y-45032130D02*
X170178507Y-45079749D01*
X170178507Y-45079749D02*
X170273745Y-45222606D01*
X170273745Y-45222606D02*
X170321364Y-45413082D01*
X170321364Y-45413082D02*
X170321364Y-45794034D01*
X170321364Y-45794034D02*
X170273745Y-45889272D01*
X170273745Y-45889272D02*
X170226126Y-45936892D01*
X170226126Y-45936892D02*
X170130888Y-45984511D01*
X170130888Y-45984511D02*
X169940412Y-45984511D01*
X169940412Y-45984511D02*
X169845174Y-45936892D01*
X169845174Y-45936892D02*
X169797555Y-45889272D01*
X169797555Y-45889272D02*
X169749936Y-45794034D01*
X169749936Y-45794034D02*
X169749936Y-45555939D01*
X169749936Y-45555939D02*
X169797555Y-45460701D01*
X169797555Y-45460701D02*
X169845174Y-45413082D01*
X169845174Y-45413082D02*
X169940412Y-45365463D01*
X169940412Y-45365463D02*
X170130888Y-45365463D01*
X170130888Y-45365463D02*
X170226126Y-45413082D01*
X170226126Y-45413082D02*
X170273745Y-45460701D01*
X170273745Y-45460701D02*
X170321364Y-45555939D01*
X176616276Y-53898519D02*
X177187704Y-53898519D01*
X176901990Y-53898519D02*
X176901990Y-52898519D01*
X176901990Y-52898519D02*
X176997228Y-53041376D01*
X176997228Y-53041376D02*
X177092466Y-53136614D01*
X177092466Y-53136614D02*
X177187704Y-53184233D01*
X176282942Y-52898519D02*
X175663895Y-52898519D01*
X175663895Y-52898519D02*
X175997228Y-53279471D01*
X175997228Y-53279471D02*
X175854371Y-53279471D01*
X175854371Y-53279471D02*
X175759133Y-53327090D01*
X175759133Y-53327090D02*
X175711514Y-53374709D01*
X175711514Y-53374709D02*
X175663895Y-53469947D01*
X175663895Y-53469947D02*
X175663895Y-53708042D01*
X175663895Y-53708042D02*
X175711514Y-53803280D01*
X175711514Y-53803280D02*
X175759133Y-53850900D01*
X175759133Y-53850900D02*
X175854371Y-53898519D01*
X175854371Y-53898519D02*
X176140085Y-53898519D01*
X176140085Y-53898519D02*
X176235323Y-53850900D01*
X176235323Y-53850900D02*
X176282942Y-53803280D01*
X176043936Y-29743519D02*
X176520126Y-29743519D01*
X176520126Y-29743519D02*
X176567745Y-30219709D01*
X176567745Y-30219709D02*
X176520126Y-30172090D01*
X176520126Y-30172090D02*
X176424888Y-30124471D01*
X176424888Y-30124471D02*
X176186793Y-30124471D01*
X176186793Y-30124471D02*
X176091555Y-30172090D01*
X176091555Y-30172090D02*
X176043936Y-30219709D01*
X176043936Y-30219709D02*
X175996317Y-30314947D01*
X175996317Y-30314947D02*
X175996317Y-30553042D01*
X175996317Y-30553042D02*
X176043936Y-30648280D01*
X176043936Y-30648280D02*
X176091555Y-30695900D01*
X176091555Y-30695900D02*
X176186793Y-30743519D01*
X176186793Y-30743519D02*
X176424888Y-30743519D01*
X176424888Y-30743519D02*
X176520126Y-30695900D01*
X176520126Y-30695900D02*
X176567745Y-30648280D01*
X175710602Y-29743519D02*
X175377269Y-30743519D01*
X175377269Y-30743519D02*
X175043936Y-29743519D01*
X176996317Y-32434138D02*
X177091555Y-32386519D01*
X177091555Y-32386519D02*
X177234412Y-32386519D01*
X177234412Y-32386519D02*
X177377269Y-32434138D01*
X177377269Y-32434138D02*
X177472507Y-32529376D01*
X177472507Y-32529376D02*
X177520126Y-32624614D01*
X177520126Y-32624614D02*
X177567745Y-32815090D01*
X177567745Y-32815090D02*
X177567745Y-32957947D01*
X177567745Y-32957947D02*
X177520126Y-33148423D01*
X177520126Y-33148423D02*
X177472507Y-33243661D01*
X177472507Y-33243661D02*
X177377269Y-33338900D01*
X177377269Y-33338900D02*
X177234412Y-33386519D01*
X177234412Y-33386519D02*
X177139174Y-33386519D01*
X177139174Y-33386519D02*
X176996317Y-33338900D01*
X176996317Y-33338900D02*
X176948698Y-33291280D01*
X176948698Y-33291280D02*
X176948698Y-32957947D01*
X176948698Y-32957947D02*
X177139174Y-32957947D01*
X176520126Y-33386519D02*
X176520126Y-32386519D01*
X176520126Y-32386519D02*
X175948698Y-33386519D01*
X175948698Y-33386519D02*
X175948698Y-32386519D01*
X175472507Y-33386519D02*
X175472507Y-32386519D01*
X175472507Y-32386519D02*
X175234412Y-32386519D01*
X175234412Y-32386519D02*
X175091555Y-32434138D01*
X175091555Y-32434138D02*
X174996317Y-32529376D01*
X174996317Y-32529376D02*
X174948698Y-32624614D01*
X174948698Y-32624614D02*
X174901079Y-32815090D01*
X174901079Y-32815090D02*
X174901079Y-32957947D01*
X174901079Y-32957947D02*
X174948698Y-33148423D01*
X174948698Y-33148423D02*
X174996317Y-33243661D01*
X174996317Y-33243661D02*
X175091555Y-33338900D01*
X175091555Y-33338900D02*
X175234412Y-33386519D01*
X175234412Y-33386519D02*
X175472507Y-33386519D01*
X179116276Y-53898519D02*
X179687704Y-53898519D01*
X179401990Y-53898519D02*
X179401990Y-52898519D01*
X179401990Y-52898519D02*
X179497228Y-53041376D01*
X179497228Y-53041376D02*
X179592466Y-53136614D01*
X179592466Y-53136614D02*
X179687704Y-53184233D01*
X178735323Y-52993757D02*
X178687704Y-52946138D01*
X178687704Y-52946138D02*
X178592466Y-52898519D01*
X178592466Y-52898519D02*
X178354371Y-52898519D01*
X178354371Y-52898519D02*
X178259133Y-52946138D01*
X178259133Y-52946138D02*
X178211514Y-52993757D01*
X178211514Y-52993757D02*
X178163895Y-53088995D01*
X178163895Y-53088995D02*
X178163895Y-53184233D01*
X178163895Y-53184233D02*
X178211514Y-53327090D01*
X178211514Y-53327090D02*
X178782942Y-53898519D01*
X178782942Y-53898519D02*
X178163895Y-53898519D01*
X181656276Y-53898519D02*
X182227704Y-53898519D01*
X181941990Y-53898519D02*
X181941990Y-52898519D01*
X181941990Y-52898519D02*
X182037228Y-53041376D01*
X182037228Y-53041376D02*
X182132466Y-53136614D01*
X182132466Y-53136614D02*
X182227704Y-53184233D01*
X180703895Y-53898519D02*
X181275323Y-53898519D01*
X180989609Y-53898519D02*
X180989609Y-52898519D01*
X180989609Y-52898519D02*
X181084847Y-53041376D01*
X181084847Y-53041376D02*
X181180085Y-53136614D01*
X181180085Y-53136614D02*
X181275323Y-53184233D01*
X184196276Y-53898519D02*
X184767704Y-53898519D01*
X184481990Y-53898519D02*
X184481990Y-52898519D01*
X184481990Y-52898519D02*
X184577228Y-53041376D01*
X184577228Y-53041376D02*
X184672466Y-53136614D01*
X184672466Y-53136614D02*
X184767704Y-53184233D01*
X183577228Y-52898519D02*
X183481990Y-52898519D01*
X183481990Y-52898519D02*
X183386752Y-52946138D01*
X183386752Y-52946138D02*
X183339133Y-52993757D01*
X183339133Y-52993757D02*
X183291514Y-53088995D01*
X183291514Y-53088995D02*
X183243895Y-53279471D01*
X183243895Y-53279471D02*
X183243895Y-53517566D01*
X183243895Y-53517566D02*
X183291514Y-53708042D01*
X183291514Y-53708042D02*
X183339133Y-53803280D01*
X183339133Y-53803280D02*
X183386752Y-53850900D01*
X183386752Y-53850900D02*
X183481990Y-53898519D01*
X183481990Y-53898519D02*
X183577228Y-53898519D01*
X183577228Y-53898519D02*
X183672466Y-53850900D01*
X183672466Y-53850900D02*
X183720085Y-53803280D01*
X183720085Y-53803280D02*
X183767704Y-53708042D01*
X183767704Y-53708042D02*
X183815323Y-53517566D01*
X183815323Y-53517566D02*
X183815323Y-53279471D01*
X183815323Y-53279471D02*
X183767704Y-53088995D01*
X183767704Y-53088995D02*
X183720085Y-52993757D01*
X183720085Y-52993757D02*
X183672466Y-52946138D01*
X183672466Y-52946138D02*
X183577228Y-52898519D01*
X186736275Y-53898519D02*
X186545799Y-53898519D01*
X186545799Y-53898519D02*
X186450561Y-53850900D01*
X186450561Y-53850900D02*
X186402942Y-53803280D01*
X186402942Y-53803280D02*
X186307704Y-53660423D01*
X186307704Y-53660423D02*
X186260085Y-53469947D01*
X186260085Y-53469947D02*
X186260085Y-53088995D01*
X186260085Y-53088995D02*
X186307704Y-52993757D01*
X186307704Y-52993757D02*
X186355323Y-52946138D01*
X186355323Y-52946138D02*
X186450561Y-52898519D01*
X186450561Y-52898519D02*
X186641037Y-52898519D01*
X186641037Y-52898519D02*
X186736275Y-52946138D01*
X186736275Y-52946138D02*
X186783894Y-52993757D01*
X186783894Y-52993757D02*
X186831513Y-53088995D01*
X186831513Y-53088995D02*
X186831513Y-53327090D01*
X186831513Y-53327090D02*
X186783894Y-53422328D01*
X186783894Y-53422328D02*
X186736275Y-53469947D01*
X186736275Y-53469947D02*
X186641037Y-53517566D01*
X186641037Y-53517566D02*
X186450561Y-53517566D01*
X186450561Y-53517566D02*
X186355323Y-53469947D01*
X186355323Y-53469947D02*
X186307704Y-53422328D01*
X186307704Y-53422328D02*
X186260085Y-53327090D01*
X191991187Y-29743519D02*
X191895949Y-29743519D01*
X191895949Y-29743519D02*
X191800711Y-29791138D01*
X191800711Y-29791138D02*
X191753092Y-29838757D01*
X191753092Y-29838757D02*
X191705473Y-29933995D01*
X191705473Y-29933995D02*
X191657854Y-30124471D01*
X191657854Y-30124471D02*
X191657854Y-30362566D01*
X191657854Y-30362566D02*
X191705473Y-30553042D01*
X191705473Y-30553042D02*
X191753092Y-30648280D01*
X191753092Y-30648280D02*
X191800711Y-30695900D01*
X191800711Y-30695900D02*
X191895949Y-30743519D01*
X191895949Y-30743519D02*
X191991187Y-30743519D01*
X191991187Y-30743519D02*
X192086425Y-30695900D01*
X192086425Y-30695900D02*
X192134044Y-30648280D01*
X192134044Y-30648280D02*
X192181663Y-30553042D01*
X192181663Y-30553042D02*
X192229282Y-30362566D01*
X192229282Y-30362566D02*
X192229282Y-30124471D01*
X192229282Y-30124471D02*
X192181663Y-29933995D01*
X192181663Y-29933995D02*
X192134044Y-29838757D01*
X192134044Y-29838757D02*
X192086425Y-29791138D01*
X192086425Y-29791138D02*
X191991187Y-29743519D01*
X191657854Y-33283519D02*
X192229282Y-33283519D01*
X191943568Y-33283519D02*
X191943568Y-32283519D01*
X191943568Y-32283519D02*
X192038806Y-32426376D01*
X192038806Y-32426376D02*
X192134044Y-32521614D01*
X192134044Y-32521614D02*
X192229282Y-32569233D01*
X192229282Y-34918757D02*
X192181663Y-34871138D01*
X192181663Y-34871138D02*
X192086425Y-34823519D01*
X192086425Y-34823519D02*
X191848330Y-34823519D01*
X191848330Y-34823519D02*
X191753092Y-34871138D01*
X191753092Y-34871138D02*
X191705473Y-34918757D01*
X191705473Y-34918757D02*
X191657854Y-35013995D01*
X191657854Y-35013995D02*
X191657854Y-35109233D01*
X191657854Y-35109233D02*
X191705473Y-35252090D01*
X191705473Y-35252090D02*
X192276901Y-35823519D01*
X192276901Y-35823519D02*
X191657854Y-35823519D01*
X192276901Y-37363519D02*
X191657854Y-37363519D01*
X191657854Y-37363519D02*
X191991187Y-37744471D01*
X191991187Y-37744471D02*
X191848330Y-37744471D01*
X191848330Y-37744471D02*
X191753092Y-37792090D01*
X191753092Y-37792090D02*
X191705473Y-37839709D01*
X191705473Y-37839709D02*
X191657854Y-37934947D01*
X191657854Y-37934947D02*
X191657854Y-38173042D01*
X191657854Y-38173042D02*
X191705473Y-38268280D01*
X191705473Y-38268280D02*
X191753092Y-38315900D01*
X191753092Y-38315900D02*
X191848330Y-38363519D01*
X191848330Y-38363519D02*
X192134044Y-38363519D01*
X192134044Y-38363519D02*
X192229282Y-38315900D01*
X192229282Y-38315900D02*
X192276901Y-38268280D01*
X191753092Y-40236852D02*
X191753092Y-40903519D01*
X191991187Y-39855900D02*
X192229282Y-40570185D01*
X192229282Y-40570185D02*
X191610235Y-40570185D01*
X191705473Y-42443519D02*
X192181663Y-42443519D01*
X192181663Y-42443519D02*
X192229282Y-42919709D01*
X192229282Y-42919709D02*
X192181663Y-42872090D01*
X192181663Y-42872090D02*
X192086425Y-42824471D01*
X192086425Y-42824471D02*
X191848330Y-42824471D01*
X191848330Y-42824471D02*
X191753092Y-42872090D01*
X191753092Y-42872090D02*
X191705473Y-42919709D01*
X191705473Y-42919709D02*
X191657854Y-43014947D01*
X191657854Y-43014947D02*
X191657854Y-43253042D01*
X191657854Y-43253042D02*
X191705473Y-43348280D01*
X191705473Y-43348280D02*
X191753092Y-43395900D01*
X191753092Y-43395900D02*
X191848330Y-43443519D01*
X191848330Y-43443519D02*
X192086425Y-43443519D01*
X192086425Y-43443519D02*
X192181663Y-43395900D01*
X192181663Y-43395900D02*
X192229282Y-43348280D01*
X191753092Y-44983519D02*
X191943568Y-44983519D01*
X191943568Y-44983519D02*
X192038806Y-45031138D01*
X192038806Y-45031138D02*
X192086425Y-45078757D01*
X192086425Y-45078757D02*
X192181663Y-45221614D01*
X192181663Y-45221614D02*
X192229282Y-45412090D01*
X192229282Y-45412090D02*
X192229282Y-45793042D01*
X192229282Y-45793042D02*
X192181663Y-45888280D01*
X192181663Y-45888280D02*
X192134044Y-45935900D01*
X192134044Y-45935900D02*
X192038806Y-45983519D01*
X192038806Y-45983519D02*
X191848330Y-45983519D01*
X191848330Y-45983519D02*
X191753092Y-45935900D01*
X191753092Y-45935900D02*
X191705473Y-45888280D01*
X191705473Y-45888280D02*
X191657854Y-45793042D01*
X191657854Y-45793042D02*
X191657854Y-45554947D01*
X191657854Y-45554947D02*
X191705473Y-45459709D01*
X191705473Y-45459709D02*
X191753092Y-45412090D01*
X191753092Y-45412090D02*
X191848330Y-45364471D01*
X191848330Y-45364471D02*
X192038806Y-45364471D01*
X192038806Y-45364471D02*
X192134044Y-45412090D01*
X192134044Y-45412090D02*
X192181663Y-45459709D01*
X192181663Y-45459709D02*
X192229282Y-45554947D01*
X192276901Y-47523519D02*
X191610235Y-47523519D01*
X191610235Y-47523519D02*
X192038806Y-48523519D01*
X192038806Y-50492090D02*
X192134044Y-50444471D01*
X192134044Y-50444471D02*
X192181663Y-50396852D01*
X192181663Y-50396852D02*
X192229282Y-50301614D01*
X192229282Y-50301614D02*
X192229282Y-50253995D01*
X192229282Y-50253995D02*
X192181663Y-50158757D01*
X192181663Y-50158757D02*
X192134044Y-50111138D01*
X192134044Y-50111138D02*
X192038806Y-50063519D01*
X192038806Y-50063519D02*
X191848330Y-50063519D01*
X191848330Y-50063519D02*
X191753092Y-50111138D01*
X191753092Y-50111138D02*
X191705473Y-50158757D01*
X191705473Y-50158757D02*
X191657854Y-50253995D01*
X191657854Y-50253995D02*
X191657854Y-50301614D01*
X191657854Y-50301614D02*
X191705473Y-50396852D01*
X191705473Y-50396852D02*
X191753092Y-50444471D01*
X191753092Y-50444471D02*
X191848330Y-50492090D01*
X191848330Y-50492090D02*
X192038806Y-50492090D01*
X192038806Y-50492090D02*
X192134044Y-50539709D01*
X192134044Y-50539709D02*
X192181663Y-50587328D01*
X192181663Y-50587328D02*
X192229282Y-50682566D01*
X192229282Y-50682566D02*
X192229282Y-50873042D01*
X192229282Y-50873042D02*
X192181663Y-50968280D01*
X192181663Y-50968280D02*
X192134044Y-51015900D01*
X192134044Y-51015900D02*
X192038806Y-51063519D01*
X192038806Y-51063519D02*
X191848330Y-51063519D01*
X191848330Y-51063519D02*
X191753092Y-51015900D01*
X191753092Y-51015900D02*
X191705473Y-50968280D01*
X191705473Y-50968280D02*
X191657854Y-50873042D01*
X191657854Y-50873042D02*
X191657854Y-50682566D01*
X191657854Y-50682566D02*
X191705473Y-50587328D01*
X191705473Y-50587328D02*
X191753092Y-50539709D01*
X191753092Y-50539709D02*
X191848330Y-50492090D01*
D12*
X164584819Y-78560714D02*
X163584819Y-78560714D01*
X163584819Y-78560714D02*
X163584819Y-78798809D01*
X163584819Y-78798809D02*
X163632438Y-78941666D01*
X163632438Y-78941666D02*
X163727676Y-79036904D01*
X163727676Y-79036904D02*
X163822914Y-79084523D01*
X163822914Y-79084523D02*
X164013390Y-79132142D01*
X164013390Y-79132142D02*
X164156247Y-79132142D01*
X164156247Y-79132142D02*
X164346723Y-79084523D01*
X164346723Y-79084523D02*
X164441961Y-79036904D01*
X164441961Y-79036904D02*
X164537200Y-78941666D01*
X164537200Y-78941666D02*
X164584819Y-78798809D01*
X164584819Y-78798809D02*
X164584819Y-78560714D01*
X164584819Y-80084523D02*
X164584819Y-79513095D01*
X164584819Y-79798809D02*
X163584819Y-79798809D01*
X163584819Y-79798809D02*
X163727676Y-79703571D01*
X163727676Y-79703571D02*
X163822914Y-79608333D01*
X163822914Y-79608333D02*
X163870533Y-79513095D01*
X164013390Y-80655952D02*
X163965771Y-80560714D01*
X163965771Y-80560714D02*
X163918152Y-80513095D01*
X163918152Y-80513095D02*
X163822914Y-80465476D01*
X163822914Y-80465476D02*
X163775295Y-80465476D01*
X163775295Y-80465476D02*
X163680057Y-80513095D01*
X163680057Y-80513095D02*
X163632438Y-80560714D01*
X163632438Y-80560714D02*
X163584819Y-80655952D01*
X163584819Y-80655952D02*
X163584819Y-80846428D01*
X163584819Y-80846428D02*
X163632438Y-80941666D01*
X163632438Y-80941666D02*
X163680057Y-80989285D01*
X163680057Y-80989285D02*
X163775295Y-81036904D01*
X163775295Y-81036904D02*
X163822914Y-81036904D01*
X163822914Y-81036904D02*
X163918152Y-80989285D01*
X163918152Y-80989285D02*
X163965771Y-80941666D01*
X163965771Y-80941666D02*
X164013390Y-80846428D01*
X164013390Y-80846428D02*
X164013390Y-80655952D01*
X164013390Y-80655952D02*
X164061009Y-80560714D01*
X164061009Y-80560714D02*
X164108628Y-80513095D01*
X164108628Y-80513095D02*
X164203866Y-80465476D01*
X164203866Y-80465476D02*
X164394342Y-80465476D01*
X164394342Y-80465476D02*
X164489580Y-80513095D01*
X164489580Y-80513095D02*
X164537200Y-80560714D01*
X164537200Y-80560714D02*
X164584819Y-80655952D01*
X164584819Y-80655952D02*
X164584819Y-80846428D01*
X164584819Y-80846428D02*
X164537200Y-80941666D01*
X164537200Y-80941666D02*
X164489580Y-80989285D01*
X164489580Y-80989285D02*
X164394342Y-81036904D01*
X164394342Y-81036904D02*
X164203866Y-81036904D01*
X164203866Y-81036904D02*
X164108628Y-80989285D01*
X164108628Y-80989285D02*
X164061009Y-80941666D01*
X164061009Y-80941666D02*
X164013390Y-80846428D01*
X164584819Y-59510714D02*
X163584819Y-59510714D01*
X163584819Y-59510714D02*
X163584819Y-59748809D01*
X163584819Y-59748809D02*
X163632438Y-59891666D01*
X163632438Y-59891666D02*
X163727676Y-59986904D01*
X163727676Y-59986904D02*
X163822914Y-60034523D01*
X163822914Y-60034523D02*
X164013390Y-60082142D01*
X164013390Y-60082142D02*
X164156247Y-60082142D01*
X164156247Y-60082142D02*
X164346723Y-60034523D01*
X164346723Y-60034523D02*
X164441961Y-59986904D01*
X164441961Y-59986904D02*
X164537200Y-59891666D01*
X164537200Y-59891666D02*
X164584819Y-59748809D01*
X164584819Y-59748809D02*
X164584819Y-59510714D01*
X164584819Y-61034523D02*
X164584819Y-60463095D01*
X164584819Y-60748809D02*
X163584819Y-60748809D01*
X163584819Y-60748809D02*
X163727676Y-60653571D01*
X163727676Y-60653571D02*
X163822914Y-60558333D01*
X163822914Y-60558333D02*
X163870533Y-60463095D01*
X163680057Y-61415476D02*
X163632438Y-61463095D01*
X163632438Y-61463095D02*
X163584819Y-61558333D01*
X163584819Y-61558333D02*
X163584819Y-61796428D01*
X163584819Y-61796428D02*
X163632438Y-61891666D01*
X163632438Y-61891666D02*
X163680057Y-61939285D01*
X163680057Y-61939285D02*
X163775295Y-61986904D01*
X163775295Y-61986904D02*
X163870533Y-61986904D01*
X163870533Y-61986904D02*
X164013390Y-61939285D01*
X164013390Y-61939285D02*
X164584819Y-61367857D01*
X164584819Y-61367857D02*
X164584819Y-61986904D01*
X145534819Y-73798214D02*
X144534819Y-73798214D01*
X144534819Y-73798214D02*
X144534819Y-74036309D01*
X144534819Y-74036309D02*
X144582438Y-74179166D01*
X144582438Y-74179166D02*
X144677676Y-74274404D01*
X144677676Y-74274404D02*
X144772914Y-74322023D01*
X144772914Y-74322023D02*
X144963390Y-74369642D01*
X144963390Y-74369642D02*
X145106247Y-74369642D01*
X145106247Y-74369642D02*
X145296723Y-74322023D01*
X145296723Y-74322023D02*
X145391961Y-74274404D01*
X145391961Y-74274404D02*
X145487200Y-74179166D01*
X145487200Y-74179166D02*
X145534819Y-74036309D01*
X145534819Y-74036309D02*
X145534819Y-73798214D01*
X145534819Y-75322023D02*
X145534819Y-74750595D01*
X145534819Y-75036309D02*
X144534819Y-75036309D01*
X144534819Y-75036309D02*
X144677676Y-74941071D01*
X144677676Y-74941071D02*
X144772914Y-74845833D01*
X144772914Y-74845833D02*
X144820533Y-74750595D01*
X144534819Y-75655357D02*
X144534819Y-76322023D01*
X144534819Y-76322023D02*
X145534819Y-75893452D01*
X166625631Y-131323762D02*
X165759606Y-130823762D01*
X165759606Y-130823762D02*
X165640558Y-131029958D01*
X165640558Y-131029958D02*
X165610369Y-131177486D01*
X165610369Y-131177486D02*
X165645229Y-131307583D01*
X165645229Y-131307583D02*
X165703898Y-131396442D01*
X165703898Y-131396442D02*
X165845045Y-131532919D01*
X165845045Y-131532919D02*
X165968763Y-131604348D01*
X165968763Y-131604348D02*
X166157530Y-131658346D01*
X166157530Y-131658346D02*
X166263818Y-131664726D01*
X166263818Y-131664726D02*
X166393916Y-131629867D01*
X166393916Y-131629867D02*
X166506584Y-131529958D01*
X166506584Y-131529958D02*
X166625631Y-131323762D01*
X165365894Y-131696167D02*
X165300845Y-131713597D01*
X165300845Y-131713597D02*
X165211987Y-131772266D01*
X165211987Y-131772266D02*
X165092939Y-131978462D01*
X165092939Y-131978462D02*
X165086559Y-132084750D01*
X165086559Y-132084750D02*
X165103989Y-132149799D01*
X165103989Y-132149799D02*
X165162658Y-132238658D01*
X165162658Y-132238658D02*
X165245137Y-132286277D01*
X165245137Y-132286277D02*
X165392664Y-132316466D01*
X165392664Y-132316466D02*
X166173250Y-132107309D01*
X166173250Y-132107309D02*
X165863726Y-132643419D01*
X164569130Y-132885727D02*
X164664368Y-132720770D01*
X164664368Y-132720770D02*
X164753226Y-132662101D01*
X164753226Y-132662101D02*
X164818275Y-132644671D01*
X164818275Y-132644671D02*
X164989612Y-132633621D01*
X164989612Y-132633621D02*
X165178379Y-132687620D01*
X165178379Y-132687620D02*
X165508293Y-132878096D01*
X165508293Y-132878096D02*
X165566962Y-132966954D01*
X165566962Y-132966954D02*
X165584392Y-133032003D01*
X165584392Y-133032003D02*
X165578012Y-133138291D01*
X165578012Y-133138291D02*
X165482774Y-133303248D01*
X165482774Y-133303248D02*
X165393916Y-133361917D01*
X165393916Y-133361917D02*
X165328867Y-133379347D01*
X165328867Y-133379347D02*
X165222579Y-133372968D01*
X165222579Y-133372968D02*
X165016382Y-133253920D01*
X165016382Y-133253920D02*
X164957713Y-133165062D01*
X164957713Y-133165062D02*
X164940283Y-133100013D01*
X164940283Y-133100013D02*
X164946663Y-132993725D01*
X164946663Y-132993725D02*
X165041901Y-132828767D01*
X165041901Y-132828767D02*
X165130760Y-132770098D01*
X165130760Y-132770098D02*
X165195808Y-132752668D01*
X165195808Y-132752668D02*
X165302097Y-132759048D01*
X164584819Y-97610714D02*
X163584819Y-97610714D01*
X163584819Y-97610714D02*
X163584819Y-97848809D01*
X163584819Y-97848809D02*
X163632438Y-97991666D01*
X163632438Y-97991666D02*
X163727676Y-98086904D01*
X163727676Y-98086904D02*
X163822914Y-98134523D01*
X163822914Y-98134523D02*
X164013390Y-98182142D01*
X164013390Y-98182142D02*
X164156247Y-98182142D01*
X164156247Y-98182142D02*
X164346723Y-98134523D01*
X164346723Y-98134523D02*
X164441961Y-98086904D01*
X164441961Y-98086904D02*
X164537200Y-97991666D01*
X164537200Y-97991666D02*
X164584819Y-97848809D01*
X164584819Y-97848809D02*
X164584819Y-97610714D01*
X163680057Y-98563095D02*
X163632438Y-98610714D01*
X163632438Y-98610714D02*
X163584819Y-98705952D01*
X163584819Y-98705952D02*
X163584819Y-98944047D01*
X163584819Y-98944047D02*
X163632438Y-99039285D01*
X163632438Y-99039285D02*
X163680057Y-99086904D01*
X163680057Y-99086904D02*
X163775295Y-99134523D01*
X163775295Y-99134523D02*
X163870533Y-99134523D01*
X163870533Y-99134523D02*
X164013390Y-99086904D01*
X164013390Y-99086904D02*
X164584819Y-98515476D01*
X164584819Y-98515476D02*
X164584819Y-99134523D01*
X163918152Y-99991666D02*
X164584819Y-99991666D01*
X163537200Y-99753571D02*
X164251485Y-99515476D01*
X164251485Y-99515476D02*
X164251485Y-100134523D01*
X88384819Y-40936905D02*
X87384819Y-40936905D01*
X87384819Y-40936905D02*
X87384819Y-41175000D01*
X87384819Y-41175000D02*
X87432438Y-41317857D01*
X87432438Y-41317857D02*
X87527676Y-41413095D01*
X87527676Y-41413095D02*
X87622914Y-41460714D01*
X87622914Y-41460714D02*
X87813390Y-41508333D01*
X87813390Y-41508333D02*
X87956247Y-41508333D01*
X87956247Y-41508333D02*
X88146723Y-41460714D01*
X88146723Y-41460714D02*
X88241961Y-41413095D01*
X88241961Y-41413095D02*
X88337200Y-41317857D01*
X88337200Y-41317857D02*
X88384819Y-41175000D01*
X88384819Y-41175000D02*
X88384819Y-40936905D01*
X87480057Y-41889286D02*
X87432438Y-41936905D01*
X87432438Y-41936905D02*
X87384819Y-42032143D01*
X87384819Y-42032143D02*
X87384819Y-42270238D01*
X87384819Y-42270238D02*
X87432438Y-42365476D01*
X87432438Y-42365476D02*
X87480057Y-42413095D01*
X87480057Y-42413095D02*
X87575295Y-42460714D01*
X87575295Y-42460714D02*
X87670533Y-42460714D01*
X87670533Y-42460714D02*
X87813390Y-42413095D01*
X87813390Y-42413095D02*
X88384819Y-41841667D01*
X88384819Y-41841667D02*
X88384819Y-42460714D01*
X107434819Y-73798214D02*
X106434819Y-73798214D01*
X106434819Y-73798214D02*
X106434819Y-74036309D01*
X106434819Y-74036309D02*
X106482438Y-74179166D01*
X106482438Y-74179166D02*
X106577676Y-74274404D01*
X106577676Y-74274404D02*
X106672914Y-74322023D01*
X106672914Y-74322023D02*
X106863390Y-74369642D01*
X106863390Y-74369642D02*
X107006247Y-74369642D01*
X107006247Y-74369642D02*
X107196723Y-74322023D01*
X107196723Y-74322023D02*
X107291961Y-74274404D01*
X107291961Y-74274404D02*
X107387200Y-74179166D01*
X107387200Y-74179166D02*
X107434819Y-74036309D01*
X107434819Y-74036309D02*
X107434819Y-73798214D01*
X107434819Y-75322023D02*
X107434819Y-74750595D01*
X107434819Y-75036309D02*
X106434819Y-75036309D01*
X106434819Y-75036309D02*
X106577676Y-74941071D01*
X106577676Y-74941071D02*
X106672914Y-74845833D01*
X106672914Y-74845833D02*
X106720533Y-74750595D01*
X106434819Y-76226785D02*
X106434819Y-75750595D01*
X106434819Y-75750595D02*
X106911009Y-75702976D01*
X106911009Y-75702976D02*
X106863390Y-75750595D01*
X106863390Y-75750595D02*
X106815771Y-75845833D01*
X106815771Y-75845833D02*
X106815771Y-76083928D01*
X106815771Y-76083928D02*
X106863390Y-76179166D01*
X106863390Y-76179166D02*
X106911009Y-76226785D01*
X106911009Y-76226785D02*
X107006247Y-76274404D01*
X107006247Y-76274404D02*
X107244342Y-76274404D01*
X107244342Y-76274404D02*
X107339580Y-76226785D01*
X107339580Y-76226785D02*
X107387200Y-76179166D01*
X107387200Y-76179166D02*
X107434819Y-76083928D01*
X107434819Y-76083928D02*
X107434819Y-75845833D01*
X107434819Y-75845833D02*
X107387200Y-75750595D01*
X107387200Y-75750595D02*
X107339580Y-75702976D01*
X69334819Y-59986905D02*
X68334819Y-59986905D01*
X68334819Y-59986905D02*
X68334819Y-60225000D01*
X68334819Y-60225000D02*
X68382438Y-60367857D01*
X68382438Y-60367857D02*
X68477676Y-60463095D01*
X68477676Y-60463095D02*
X68572914Y-60510714D01*
X68572914Y-60510714D02*
X68763390Y-60558333D01*
X68763390Y-60558333D02*
X68906247Y-60558333D01*
X68906247Y-60558333D02*
X69096723Y-60510714D01*
X69096723Y-60510714D02*
X69191961Y-60463095D01*
X69191961Y-60463095D02*
X69287200Y-60367857D01*
X69287200Y-60367857D02*
X69334819Y-60225000D01*
X69334819Y-60225000D02*
X69334819Y-59986905D01*
X68334819Y-60891667D02*
X68334819Y-61558333D01*
X68334819Y-61558333D02*
X69334819Y-61129762D01*
X88384819Y-78560714D02*
X87384819Y-78560714D01*
X87384819Y-78560714D02*
X87384819Y-78798809D01*
X87384819Y-78798809D02*
X87432438Y-78941666D01*
X87432438Y-78941666D02*
X87527676Y-79036904D01*
X87527676Y-79036904D02*
X87622914Y-79084523D01*
X87622914Y-79084523D02*
X87813390Y-79132142D01*
X87813390Y-79132142D02*
X87956247Y-79132142D01*
X87956247Y-79132142D02*
X88146723Y-79084523D01*
X88146723Y-79084523D02*
X88241961Y-79036904D01*
X88241961Y-79036904D02*
X88337200Y-78941666D01*
X88337200Y-78941666D02*
X88384819Y-78798809D01*
X88384819Y-78798809D02*
X88384819Y-78560714D01*
X88384819Y-80084523D02*
X88384819Y-79513095D01*
X88384819Y-79798809D02*
X87384819Y-79798809D01*
X87384819Y-79798809D02*
X87527676Y-79703571D01*
X87527676Y-79703571D02*
X87622914Y-79608333D01*
X87622914Y-79608333D02*
X87670533Y-79513095D01*
X87718152Y-80941666D02*
X88384819Y-80941666D01*
X87337200Y-80703571D02*
X88051485Y-80465476D01*
X88051485Y-80465476D02*
X88051485Y-81084523D01*
X145534819Y-36174405D02*
X144534819Y-36174405D01*
X144534819Y-36174405D02*
X144534819Y-36412500D01*
X144534819Y-36412500D02*
X144582438Y-36555357D01*
X144582438Y-36555357D02*
X144677676Y-36650595D01*
X144677676Y-36650595D02*
X144772914Y-36698214D01*
X144772914Y-36698214D02*
X144963390Y-36745833D01*
X144963390Y-36745833D02*
X145106247Y-36745833D01*
X145106247Y-36745833D02*
X145296723Y-36698214D01*
X145296723Y-36698214D02*
X145391961Y-36650595D01*
X145391961Y-36650595D02*
X145487200Y-36555357D01*
X145487200Y-36555357D02*
X145534819Y-36412500D01*
X145534819Y-36412500D02*
X145534819Y-36174405D01*
X144534819Y-37650595D02*
X144534819Y-37174405D01*
X144534819Y-37174405D02*
X145011009Y-37126786D01*
X145011009Y-37126786D02*
X144963390Y-37174405D01*
X144963390Y-37174405D02*
X144915771Y-37269643D01*
X144915771Y-37269643D02*
X144915771Y-37507738D01*
X144915771Y-37507738D02*
X144963390Y-37602976D01*
X144963390Y-37602976D02*
X145011009Y-37650595D01*
X145011009Y-37650595D02*
X145106247Y-37698214D01*
X145106247Y-37698214D02*
X145344342Y-37698214D01*
X145344342Y-37698214D02*
X145439580Y-37650595D01*
X145439580Y-37650595D02*
X145487200Y-37602976D01*
X145487200Y-37602976D02*
X145534819Y-37507738D01*
X145534819Y-37507738D02*
X145534819Y-37269643D01*
X145534819Y-37269643D02*
X145487200Y-37174405D01*
X145487200Y-37174405D02*
X145439580Y-37126786D01*
X126484819Y-88085714D02*
X125484819Y-88085714D01*
X125484819Y-88085714D02*
X125484819Y-88323809D01*
X125484819Y-88323809D02*
X125532438Y-88466666D01*
X125532438Y-88466666D02*
X125627676Y-88561904D01*
X125627676Y-88561904D02*
X125722914Y-88609523D01*
X125722914Y-88609523D02*
X125913390Y-88657142D01*
X125913390Y-88657142D02*
X126056247Y-88657142D01*
X126056247Y-88657142D02*
X126246723Y-88609523D01*
X126246723Y-88609523D02*
X126341961Y-88561904D01*
X126341961Y-88561904D02*
X126437200Y-88466666D01*
X126437200Y-88466666D02*
X126484819Y-88323809D01*
X126484819Y-88323809D02*
X126484819Y-88085714D01*
X125580057Y-89038095D02*
X125532438Y-89085714D01*
X125532438Y-89085714D02*
X125484819Y-89180952D01*
X125484819Y-89180952D02*
X125484819Y-89419047D01*
X125484819Y-89419047D02*
X125532438Y-89514285D01*
X125532438Y-89514285D02*
X125580057Y-89561904D01*
X125580057Y-89561904D02*
X125675295Y-89609523D01*
X125675295Y-89609523D02*
X125770533Y-89609523D01*
X125770533Y-89609523D02*
X125913390Y-89561904D01*
X125913390Y-89561904D02*
X126484819Y-88990476D01*
X126484819Y-88990476D02*
X126484819Y-89609523D01*
X125580057Y-89990476D02*
X125532438Y-90038095D01*
X125532438Y-90038095D02*
X125484819Y-90133333D01*
X125484819Y-90133333D02*
X125484819Y-90371428D01*
X125484819Y-90371428D02*
X125532438Y-90466666D01*
X125532438Y-90466666D02*
X125580057Y-90514285D01*
X125580057Y-90514285D02*
X125675295Y-90561904D01*
X125675295Y-90561904D02*
X125770533Y-90561904D01*
X125770533Y-90561904D02*
X125913390Y-90514285D01*
X125913390Y-90514285D02*
X126484819Y-89942857D01*
X126484819Y-89942857D02*
X126484819Y-90561904D01*
X107434819Y-36174405D02*
X106434819Y-36174405D01*
X106434819Y-36174405D02*
X106434819Y-36412500D01*
X106434819Y-36412500D02*
X106482438Y-36555357D01*
X106482438Y-36555357D02*
X106577676Y-36650595D01*
X106577676Y-36650595D02*
X106672914Y-36698214D01*
X106672914Y-36698214D02*
X106863390Y-36745833D01*
X106863390Y-36745833D02*
X107006247Y-36745833D01*
X107006247Y-36745833D02*
X107196723Y-36698214D01*
X107196723Y-36698214D02*
X107291961Y-36650595D01*
X107291961Y-36650595D02*
X107387200Y-36555357D01*
X107387200Y-36555357D02*
X107434819Y-36412500D01*
X107434819Y-36412500D02*
X107434819Y-36174405D01*
X106434819Y-37079167D02*
X106434819Y-37698214D01*
X106434819Y-37698214D02*
X106815771Y-37364881D01*
X106815771Y-37364881D02*
X106815771Y-37507738D01*
X106815771Y-37507738D02*
X106863390Y-37602976D01*
X106863390Y-37602976D02*
X106911009Y-37650595D01*
X106911009Y-37650595D02*
X107006247Y-37698214D01*
X107006247Y-37698214D02*
X107244342Y-37698214D01*
X107244342Y-37698214D02*
X107339580Y-37650595D01*
X107339580Y-37650595D02*
X107387200Y-37602976D01*
X107387200Y-37602976D02*
X107434819Y-37507738D01*
X107434819Y-37507738D02*
X107434819Y-37222024D01*
X107434819Y-37222024D02*
X107387200Y-37126786D01*
X107387200Y-37126786D02*
X107339580Y-37079167D01*
X69334819Y-78560714D02*
X68334819Y-78560714D01*
X68334819Y-78560714D02*
X68334819Y-78798809D01*
X68334819Y-78798809D02*
X68382438Y-78941666D01*
X68382438Y-78941666D02*
X68477676Y-79036904D01*
X68477676Y-79036904D02*
X68572914Y-79084523D01*
X68572914Y-79084523D02*
X68763390Y-79132142D01*
X68763390Y-79132142D02*
X68906247Y-79132142D01*
X68906247Y-79132142D02*
X69096723Y-79084523D01*
X69096723Y-79084523D02*
X69191961Y-79036904D01*
X69191961Y-79036904D02*
X69287200Y-78941666D01*
X69287200Y-78941666D02*
X69334819Y-78798809D01*
X69334819Y-78798809D02*
X69334819Y-78560714D01*
X69334819Y-80084523D02*
X69334819Y-79513095D01*
X69334819Y-79798809D02*
X68334819Y-79798809D01*
X68334819Y-79798809D02*
X68477676Y-79703571D01*
X68477676Y-79703571D02*
X68572914Y-79608333D01*
X68572914Y-79608333D02*
X68620533Y-79513095D01*
X68334819Y-80417857D02*
X68334819Y-81036904D01*
X68334819Y-81036904D02*
X68715771Y-80703571D01*
X68715771Y-80703571D02*
X68715771Y-80846428D01*
X68715771Y-80846428D02*
X68763390Y-80941666D01*
X68763390Y-80941666D02*
X68811009Y-80989285D01*
X68811009Y-80989285D02*
X68906247Y-81036904D01*
X68906247Y-81036904D02*
X69144342Y-81036904D01*
X69144342Y-81036904D02*
X69239580Y-80989285D01*
X69239580Y-80989285D02*
X69287200Y-80941666D01*
X69287200Y-80941666D02*
X69334819Y-80846428D01*
X69334819Y-80846428D02*
X69334819Y-80560714D01*
X69334819Y-80560714D02*
X69287200Y-80465476D01*
X69287200Y-80465476D02*
X69239580Y-80417857D01*
X145534819Y-92848214D02*
X144534819Y-92848214D01*
X144534819Y-92848214D02*
X144534819Y-93086309D01*
X144534819Y-93086309D02*
X144582438Y-93229166D01*
X144582438Y-93229166D02*
X144677676Y-93324404D01*
X144677676Y-93324404D02*
X144772914Y-93372023D01*
X144772914Y-93372023D02*
X144963390Y-93419642D01*
X144963390Y-93419642D02*
X145106247Y-93419642D01*
X145106247Y-93419642D02*
X145296723Y-93372023D01*
X145296723Y-93372023D02*
X145391961Y-93324404D01*
X145391961Y-93324404D02*
X145487200Y-93229166D01*
X145487200Y-93229166D02*
X145534819Y-93086309D01*
X145534819Y-93086309D02*
X145534819Y-92848214D01*
X144630057Y-93800595D02*
X144582438Y-93848214D01*
X144582438Y-93848214D02*
X144534819Y-93943452D01*
X144534819Y-93943452D02*
X144534819Y-94181547D01*
X144534819Y-94181547D02*
X144582438Y-94276785D01*
X144582438Y-94276785D02*
X144630057Y-94324404D01*
X144630057Y-94324404D02*
X144725295Y-94372023D01*
X144725295Y-94372023D02*
X144820533Y-94372023D01*
X144820533Y-94372023D02*
X144963390Y-94324404D01*
X144963390Y-94324404D02*
X145534819Y-93752976D01*
X145534819Y-93752976D02*
X145534819Y-94372023D01*
X144534819Y-94705357D02*
X144534819Y-95324404D01*
X144534819Y-95324404D02*
X144915771Y-94991071D01*
X144915771Y-94991071D02*
X144915771Y-95133928D01*
X144915771Y-95133928D02*
X144963390Y-95229166D01*
X144963390Y-95229166D02*
X145011009Y-95276785D01*
X145011009Y-95276785D02*
X145106247Y-95324404D01*
X145106247Y-95324404D02*
X145344342Y-95324404D01*
X145344342Y-95324404D02*
X145439580Y-95276785D01*
X145439580Y-95276785D02*
X145487200Y-95229166D01*
X145487200Y-95229166D02*
X145534819Y-95133928D01*
X145534819Y-95133928D02*
X145534819Y-94848214D01*
X145534819Y-94848214D02*
X145487200Y-94752976D01*
X145487200Y-94752976D02*
X145439580Y-94705357D01*
X69334819Y-40936905D02*
X68334819Y-40936905D01*
X68334819Y-40936905D02*
X68334819Y-41175000D01*
X68334819Y-41175000D02*
X68382438Y-41317857D01*
X68382438Y-41317857D02*
X68477676Y-41413095D01*
X68477676Y-41413095D02*
X68572914Y-41460714D01*
X68572914Y-41460714D02*
X68763390Y-41508333D01*
X68763390Y-41508333D02*
X68906247Y-41508333D01*
X68906247Y-41508333D02*
X69096723Y-41460714D01*
X69096723Y-41460714D02*
X69191961Y-41413095D01*
X69191961Y-41413095D02*
X69287200Y-41317857D01*
X69287200Y-41317857D02*
X69334819Y-41175000D01*
X69334819Y-41175000D02*
X69334819Y-40936905D01*
X69334819Y-42460714D02*
X69334819Y-41889286D01*
X69334819Y-42175000D02*
X68334819Y-42175000D01*
X68334819Y-42175000D02*
X68477676Y-42079762D01*
X68477676Y-42079762D02*
X68572914Y-41984524D01*
X68572914Y-41984524D02*
X68620533Y-41889286D01*
X146977832Y-120029901D02*
X146011906Y-119771082D01*
X146011906Y-119771082D02*
X145950283Y-120001065D01*
X145950283Y-120001065D02*
X145959305Y-120151379D01*
X145959305Y-120151379D02*
X146026649Y-120268021D01*
X146026649Y-120268021D02*
X146106317Y-120338667D01*
X146106317Y-120338667D02*
X146277978Y-120433962D01*
X146277978Y-120433962D02*
X146415967Y-120470937D01*
X146415967Y-120470937D02*
X146612278Y-120474239D01*
X146612278Y-120474239D02*
X146716596Y-120452892D01*
X146716596Y-120452892D02*
X146833238Y-120385548D01*
X146833238Y-120385548D02*
X146916209Y-120259884D01*
X146916209Y-120259884D02*
X146977832Y-120029901D01*
X145857405Y-120715661D02*
X145799084Y-120749333D01*
X145799084Y-120749333D02*
X145728438Y-120829001D01*
X145728438Y-120829001D02*
X145666814Y-121058983D01*
X145666814Y-121058983D02*
X145688161Y-121163301D01*
X145688161Y-121163301D02*
X145721833Y-121221622D01*
X145721833Y-121221622D02*
X145801501Y-121292268D01*
X145801501Y-121292268D02*
X145893494Y-121316918D01*
X145893494Y-121316918D02*
X146043808Y-121307895D01*
X146043808Y-121307895D02*
X146743663Y-120903834D01*
X146743663Y-120903834D02*
X146583441Y-121501788D01*
X145383346Y-122116902D02*
X145506593Y-121656938D01*
X145506593Y-121656938D02*
X145978882Y-121734188D01*
X145978882Y-121734188D02*
X145920561Y-121767860D01*
X145920561Y-121767860D02*
X145849915Y-121847528D01*
X145849915Y-121847528D02*
X145788292Y-122077511D01*
X145788292Y-122077511D02*
X145809639Y-122181828D01*
X145809639Y-122181828D02*
X145843311Y-122240149D01*
X145843311Y-122240149D02*
X145922979Y-122310795D01*
X145922979Y-122310795D02*
X146152961Y-122372419D01*
X146152961Y-122372419D02*
X146257279Y-122351072D01*
X146257279Y-122351072D02*
X146315600Y-122317400D01*
X146315600Y-122317400D02*
X146386246Y-122237732D01*
X146386246Y-122237732D02*
X146447869Y-122007750D01*
X146447869Y-122007750D02*
X146426522Y-121903432D01*
X146426522Y-121903432D02*
X146392851Y-121845111D01*
X69334819Y-97610714D02*
X68334819Y-97610714D01*
X68334819Y-97610714D02*
X68334819Y-97848809D01*
X68334819Y-97848809D02*
X68382438Y-97991666D01*
X68382438Y-97991666D02*
X68477676Y-98086904D01*
X68477676Y-98086904D02*
X68572914Y-98134523D01*
X68572914Y-98134523D02*
X68763390Y-98182142D01*
X68763390Y-98182142D02*
X68906247Y-98182142D01*
X68906247Y-98182142D02*
X69096723Y-98134523D01*
X69096723Y-98134523D02*
X69191961Y-98086904D01*
X69191961Y-98086904D02*
X69287200Y-97991666D01*
X69287200Y-97991666D02*
X69334819Y-97848809D01*
X69334819Y-97848809D02*
X69334819Y-97610714D01*
X69334819Y-99134523D02*
X69334819Y-98563095D01*
X69334819Y-98848809D02*
X68334819Y-98848809D01*
X68334819Y-98848809D02*
X68477676Y-98753571D01*
X68477676Y-98753571D02*
X68572914Y-98658333D01*
X68572914Y-98658333D02*
X68620533Y-98563095D01*
X69334819Y-99610714D02*
X69334819Y-99801190D01*
X69334819Y-99801190D02*
X69287200Y-99896428D01*
X69287200Y-99896428D02*
X69239580Y-99944047D01*
X69239580Y-99944047D02*
X69096723Y-100039285D01*
X69096723Y-100039285D02*
X68906247Y-100086904D01*
X68906247Y-100086904D02*
X68525295Y-100086904D01*
X68525295Y-100086904D02*
X68430057Y-100039285D01*
X68430057Y-100039285D02*
X68382438Y-99991666D01*
X68382438Y-99991666D02*
X68334819Y-99896428D01*
X68334819Y-99896428D02*
X68334819Y-99705952D01*
X68334819Y-99705952D02*
X68382438Y-99610714D01*
X68382438Y-99610714D02*
X68430057Y-99563095D01*
X68430057Y-99563095D02*
X68525295Y-99515476D01*
X68525295Y-99515476D02*
X68763390Y-99515476D01*
X68763390Y-99515476D02*
X68858628Y-99563095D01*
X68858628Y-99563095D02*
X68906247Y-99610714D01*
X68906247Y-99610714D02*
X68953866Y-99705952D01*
X68953866Y-99705952D02*
X68953866Y-99896428D01*
X68953866Y-99896428D02*
X68906247Y-99991666D01*
X68906247Y-99991666D02*
X68858628Y-100039285D01*
X68858628Y-100039285D02*
X68763390Y-100086904D01*
X126484819Y-69035714D02*
X125484819Y-69035714D01*
X125484819Y-69035714D02*
X125484819Y-69273809D01*
X125484819Y-69273809D02*
X125532438Y-69416666D01*
X125532438Y-69416666D02*
X125627676Y-69511904D01*
X125627676Y-69511904D02*
X125722914Y-69559523D01*
X125722914Y-69559523D02*
X125913390Y-69607142D01*
X125913390Y-69607142D02*
X126056247Y-69607142D01*
X126056247Y-69607142D02*
X126246723Y-69559523D01*
X126246723Y-69559523D02*
X126341961Y-69511904D01*
X126341961Y-69511904D02*
X126437200Y-69416666D01*
X126437200Y-69416666D02*
X126484819Y-69273809D01*
X126484819Y-69273809D02*
X126484819Y-69035714D01*
X126484819Y-70559523D02*
X126484819Y-69988095D01*
X126484819Y-70273809D02*
X125484819Y-70273809D01*
X125484819Y-70273809D02*
X125627676Y-70178571D01*
X125627676Y-70178571D02*
X125722914Y-70083333D01*
X125722914Y-70083333D02*
X125770533Y-69988095D01*
X125484819Y-71416666D02*
X125484819Y-71226190D01*
X125484819Y-71226190D02*
X125532438Y-71130952D01*
X125532438Y-71130952D02*
X125580057Y-71083333D01*
X125580057Y-71083333D02*
X125722914Y-70988095D01*
X125722914Y-70988095D02*
X125913390Y-70940476D01*
X125913390Y-70940476D02*
X126294342Y-70940476D01*
X126294342Y-70940476D02*
X126389580Y-70988095D01*
X126389580Y-70988095D02*
X126437200Y-71035714D01*
X126437200Y-71035714D02*
X126484819Y-71130952D01*
X126484819Y-71130952D02*
X126484819Y-71321428D01*
X126484819Y-71321428D02*
X126437200Y-71416666D01*
X126437200Y-71416666D02*
X126389580Y-71464285D01*
X126389580Y-71464285D02*
X126294342Y-71511904D01*
X126294342Y-71511904D02*
X126056247Y-71511904D01*
X126056247Y-71511904D02*
X125961009Y-71464285D01*
X125961009Y-71464285D02*
X125913390Y-71416666D01*
X125913390Y-71416666D02*
X125865771Y-71321428D01*
X125865771Y-71321428D02*
X125865771Y-71130952D01*
X125865771Y-71130952D02*
X125913390Y-71035714D01*
X125913390Y-71035714D02*
X125961009Y-70988095D01*
X125961009Y-70988095D02*
X126056247Y-70940476D01*
X126484819Y-31411905D02*
X125484819Y-31411905D01*
X125484819Y-31411905D02*
X125484819Y-31650000D01*
X125484819Y-31650000D02*
X125532438Y-31792857D01*
X125532438Y-31792857D02*
X125627676Y-31888095D01*
X125627676Y-31888095D02*
X125722914Y-31935714D01*
X125722914Y-31935714D02*
X125913390Y-31983333D01*
X125913390Y-31983333D02*
X126056247Y-31983333D01*
X126056247Y-31983333D02*
X126246723Y-31935714D01*
X126246723Y-31935714D02*
X126341961Y-31888095D01*
X126341961Y-31888095D02*
X126437200Y-31792857D01*
X126437200Y-31792857D02*
X126484819Y-31650000D01*
X126484819Y-31650000D02*
X126484819Y-31411905D01*
X125818152Y-32840476D02*
X126484819Y-32840476D01*
X125437200Y-32602381D02*
X126151485Y-32364286D01*
X126151485Y-32364286D02*
X126151485Y-32983333D01*
X126484819Y-49985714D02*
X125484819Y-49985714D01*
X125484819Y-49985714D02*
X125484819Y-50223809D01*
X125484819Y-50223809D02*
X125532438Y-50366666D01*
X125532438Y-50366666D02*
X125627676Y-50461904D01*
X125627676Y-50461904D02*
X125722914Y-50509523D01*
X125722914Y-50509523D02*
X125913390Y-50557142D01*
X125913390Y-50557142D02*
X126056247Y-50557142D01*
X126056247Y-50557142D02*
X126246723Y-50509523D01*
X126246723Y-50509523D02*
X126341961Y-50461904D01*
X126341961Y-50461904D02*
X126437200Y-50366666D01*
X126437200Y-50366666D02*
X126484819Y-50223809D01*
X126484819Y-50223809D02*
X126484819Y-49985714D01*
X126484819Y-51509523D02*
X126484819Y-50938095D01*
X126484819Y-51223809D02*
X125484819Y-51223809D01*
X125484819Y-51223809D02*
X125627676Y-51128571D01*
X125627676Y-51128571D02*
X125722914Y-51033333D01*
X125722914Y-51033333D02*
X125770533Y-50938095D01*
X125484819Y-52128571D02*
X125484819Y-52223809D01*
X125484819Y-52223809D02*
X125532438Y-52319047D01*
X125532438Y-52319047D02*
X125580057Y-52366666D01*
X125580057Y-52366666D02*
X125675295Y-52414285D01*
X125675295Y-52414285D02*
X125865771Y-52461904D01*
X125865771Y-52461904D02*
X126103866Y-52461904D01*
X126103866Y-52461904D02*
X126294342Y-52414285D01*
X126294342Y-52414285D02*
X126389580Y-52366666D01*
X126389580Y-52366666D02*
X126437200Y-52319047D01*
X126437200Y-52319047D02*
X126484819Y-52223809D01*
X126484819Y-52223809D02*
X126484819Y-52128571D01*
X126484819Y-52128571D02*
X126437200Y-52033333D01*
X126437200Y-52033333D02*
X126389580Y-51985714D01*
X126389580Y-51985714D02*
X126294342Y-51938095D01*
X126294342Y-51938095D02*
X126103866Y-51890476D01*
X126103866Y-51890476D02*
X125865771Y-51890476D01*
X125865771Y-51890476D02*
X125675295Y-51938095D01*
X125675295Y-51938095D02*
X125580057Y-51985714D01*
X125580057Y-51985714D02*
X125532438Y-52033333D01*
X125532438Y-52033333D02*
X125484819Y-52128571D01*
X164584819Y-40936905D02*
X163584819Y-40936905D01*
X163584819Y-40936905D02*
X163584819Y-41175000D01*
X163584819Y-41175000D02*
X163632438Y-41317857D01*
X163632438Y-41317857D02*
X163727676Y-41413095D01*
X163727676Y-41413095D02*
X163822914Y-41460714D01*
X163822914Y-41460714D02*
X164013390Y-41508333D01*
X164013390Y-41508333D02*
X164156247Y-41508333D01*
X164156247Y-41508333D02*
X164346723Y-41460714D01*
X164346723Y-41460714D02*
X164441961Y-41413095D01*
X164441961Y-41413095D02*
X164537200Y-41317857D01*
X164537200Y-41317857D02*
X164584819Y-41175000D01*
X164584819Y-41175000D02*
X164584819Y-40936905D01*
X163584819Y-42365476D02*
X163584819Y-42175000D01*
X163584819Y-42175000D02*
X163632438Y-42079762D01*
X163632438Y-42079762D02*
X163680057Y-42032143D01*
X163680057Y-42032143D02*
X163822914Y-41936905D01*
X163822914Y-41936905D02*
X164013390Y-41889286D01*
X164013390Y-41889286D02*
X164394342Y-41889286D01*
X164394342Y-41889286D02*
X164489580Y-41936905D01*
X164489580Y-41936905D02*
X164537200Y-41984524D01*
X164537200Y-41984524D02*
X164584819Y-42079762D01*
X164584819Y-42079762D02*
X164584819Y-42270238D01*
X164584819Y-42270238D02*
X164537200Y-42365476D01*
X164537200Y-42365476D02*
X164489580Y-42413095D01*
X164489580Y-42413095D02*
X164394342Y-42460714D01*
X164394342Y-42460714D02*
X164156247Y-42460714D01*
X164156247Y-42460714D02*
X164061009Y-42413095D01*
X164061009Y-42413095D02*
X164013390Y-42365476D01*
X164013390Y-42365476D02*
X163965771Y-42270238D01*
X163965771Y-42270238D02*
X163965771Y-42079762D01*
X163965771Y-42079762D02*
X164013390Y-41984524D01*
X164013390Y-41984524D02*
X164061009Y-41936905D01*
X164061009Y-41936905D02*
X164156247Y-41889286D01*
X88384819Y-97610714D02*
X87384819Y-97610714D01*
X87384819Y-97610714D02*
X87384819Y-97848809D01*
X87384819Y-97848809D02*
X87432438Y-97991666D01*
X87432438Y-97991666D02*
X87527676Y-98086904D01*
X87527676Y-98086904D02*
X87622914Y-98134523D01*
X87622914Y-98134523D02*
X87813390Y-98182142D01*
X87813390Y-98182142D02*
X87956247Y-98182142D01*
X87956247Y-98182142D02*
X88146723Y-98134523D01*
X88146723Y-98134523D02*
X88241961Y-98086904D01*
X88241961Y-98086904D02*
X88337200Y-97991666D01*
X88337200Y-97991666D02*
X88384819Y-97848809D01*
X88384819Y-97848809D02*
X88384819Y-97610714D01*
X87480057Y-98563095D02*
X87432438Y-98610714D01*
X87432438Y-98610714D02*
X87384819Y-98705952D01*
X87384819Y-98705952D02*
X87384819Y-98944047D01*
X87384819Y-98944047D02*
X87432438Y-99039285D01*
X87432438Y-99039285D02*
X87480057Y-99086904D01*
X87480057Y-99086904D02*
X87575295Y-99134523D01*
X87575295Y-99134523D02*
X87670533Y-99134523D01*
X87670533Y-99134523D02*
X87813390Y-99086904D01*
X87813390Y-99086904D02*
X88384819Y-98515476D01*
X88384819Y-98515476D02*
X88384819Y-99134523D01*
X87384819Y-99753571D02*
X87384819Y-99848809D01*
X87384819Y-99848809D02*
X87432438Y-99944047D01*
X87432438Y-99944047D02*
X87480057Y-99991666D01*
X87480057Y-99991666D02*
X87575295Y-100039285D01*
X87575295Y-100039285D02*
X87765771Y-100086904D01*
X87765771Y-100086904D02*
X88003866Y-100086904D01*
X88003866Y-100086904D02*
X88194342Y-100039285D01*
X88194342Y-100039285D02*
X88289580Y-99991666D01*
X88289580Y-99991666D02*
X88337200Y-99944047D01*
X88337200Y-99944047D02*
X88384819Y-99848809D01*
X88384819Y-99848809D02*
X88384819Y-99753571D01*
X88384819Y-99753571D02*
X88337200Y-99658333D01*
X88337200Y-99658333D02*
X88289580Y-99610714D01*
X88289580Y-99610714D02*
X88194342Y-99563095D01*
X88194342Y-99563095D02*
X88003866Y-99515476D01*
X88003866Y-99515476D02*
X87765771Y-99515476D01*
X87765771Y-99515476D02*
X87575295Y-99563095D01*
X87575295Y-99563095D02*
X87480057Y-99610714D01*
X87480057Y-99610714D02*
X87432438Y-99658333D01*
X87432438Y-99658333D02*
X87384819Y-99753571D01*
X88384819Y-59986905D02*
X87384819Y-59986905D01*
X87384819Y-59986905D02*
X87384819Y-60225000D01*
X87384819Y-60225000D02*
X87432438Y-60367857D01*
X87432438Y-60367857D02*
X87527676Y-60463095D01*
X87527676Y-60463095D02*
X87622914Y-60510714D01*
X87622914Y-60510714D02*
X87813390Y-60558333D01*
X87813390Y-60558333D02*
X87956247Y-60558333D01*
X87956247Y-60558333D02*
X88146723Y-60510714D01*
X88146723Y-60510714D02*
X88241961Y-60463095D01*
X88241961Y-60463095D02*
X88337200Y-60367857D01*
X88337200Y-60367857D02*
X88384819Y-60225000D01*
X88384819Y-60225000D02*
X88384819Y-59986905D01*
X87813390Y-61129762D02*
X87765771Y-61034524D01*
X87765771Y-61034524D02*
X87718152Y-60986905D01*
X87718152Y-60986905D02*
X87622914Y-60939286D01*
X87622914Y-60939286D02*
X87575295Y-60939286D01*
X87575295Y-60939286D02*
X87480057Y-60986905D01*
X87480057Y-60986905D02*
X87432438Y-61034524D01*
X87432438Y-61034524D02*
X87384819Y-61129762D01*
X87384819Y-61129762D02*
X87384819Y-61320238D01*
X87384819Y-61320238D02*
X87432438Y-61415476D01*
X87432438Y-61415476D02*
X87480057Y-61463095D01*
X87480057Y-61463095D02*
X87575295Y-61510714D01*
X87575295Y-61510714D02*
X87622914Y-61510714D01*
X87622914Y-61510714D02*
X87718152Y-61463095D01*
X87718152Y-61463095D02*
X87765771Y-61415476D01*
X87765771Y-61415476D02*
X87813390Y-61320238D01*
X87813390Y-61320238D02*
X87813390Y-61129762D01*
X87813390Y-61129762D02*
X87861009Y-61034524D01*
X87861009Y-61034524D02*
X87908628Y-60986905D01*
X87908628Y-60986905D02*
X88003866Y-60939286D01*
X88003866Y-60939286D02*
X88194342Y-60939286D01*
X88194342Y-60939286D02*
X88289580Y-60986905D01*
X88289580Y-60986905D02*
X88337200Y-61034524D01*
X88337200Y-61034524D02*
X88384819Y-61129762D01*
X88384819Y-61129762D02*
X88384819Y-61320238D01*
X88384819Y-61320238D02*
X88337200Y-61415476D01*
X88337200Y-61415476D02*
X88289580Y-61463095D01*
X88289580Y-61463095D02*
X88194342Y-61510714D01*
X88194342Y-61510714D02*
X88003866Y-61510714D01*
X88003866Y-61510714D02*
X87908628Y-61463095D01*
X87908628Y-61463095D02*
X87861009Y-61415476D01*
X87861009Y-61415476D02*
X87813390Y-61320238D01*
X184564826Y-145007829D02*
X183798782Y-144365041D01*
X183798782Y-144365041D02*
X183645737Y-144547433D01*
X183645737Y-144547433D02*
X183590388Y-144687476D01*
X183590388Y-144687476D02*
X183602127Y-144821651D01*
X183602127Y-144821651D02*
X183644475Y-144919347D01*
X183644475Y-144919347D02*
X183759779Y-145078261D01*
X183759779Y-145078261D02*
X183869214Y-145170088D01*
X183869214Y-145170088D02*
X184045736Y-145256045D01*
X184045736Y-145256045D02*
X184149302Y-145280785D01*
X184149302Y-145280785D02*
X184283476Y-145269046D01*
X184283476Y-145269046D02*
X184411781Y-145190220D01*
X184411781Y-145190220D02*
X184564826Y-145007829D01*
X183259559Y-145155825D02*
X183192472Y-145161694D01*
X183192472Y-145161694D02*
X183094776Y-145204042D01*
X183094776Y-145204042D02*
X182941731Y-145386434D01*
X182941731Y-145386434D02*
X182916992Y-145489999D01*
X182916992Y-145489999D02*
X182922861Y-145557086D01*
X182922861Y-145557086D02*
X182965209Y-145654783D01*
X182965209Y-145654783D02*
X183038165Y-145716000D01*
X183038165Y-145716000D02*
X183178209Y-145771349D01*
X183178209Y-145771349D02*
X183983256Y-145700917D01*
X183983256Y-145700917D02*
X183585340Y-146175135D01*
X182605033Y-145787695D02*
X182176508Y-146298391D01*
X182176508Y-146298391D02*
X183218033Y-146612874D01*
X145534819Y-54748214D02*
X144534819Y-54748214D01*
X144534819Y-54748214D02*
X144534819Y-54986309D01*
X144534819Y-54986309D02*
X144582438Y-55129166D01*
X144582438Y-55129166D02*
X144677676Y-55224404D01*
X144677676Y-55224404D02*
X144772914Y-55272023D01*
X144772914Y-55272023D02*
X144963390Y-55319642D01*
X144963390Y-55319642D02*
X145106247Y-55319642D01*
X145106247Y-55319642D02*
X145296723Y-55272023D01*
X145296723Y-55272023D02*
X145391961Y-55224404D01*
X145391961Y-55224404D02*
X145487200Y-55129166D01*
X145487200Y-55129166D02*
X145534819Y-54986309D01*
X145534819Y-54986309D02*
X145534819Y-54748214D01*
X145534819Y-56272023D02*
X145534819Y-55700595D01*
X145534819Y-55986309D02*
X144534819Y-55986309D01*
X144534819Y-55986309D02*
X144677676Y-55891071D01*
X144677676Y-55891071D02*
X144772914Y-55795833D01*
X144772914Y-55795833D02*
X144820533Y-55700595D01*
X145534819Y-57224404D02*
X145534819Y-56652976D01*
X145534819Y-56938690D02*
X144534819Y-56938690D01*
X144534819Y-56938690D02*
X144677676Y-56843452D01*
X144677676Y-56843452D02*
X144772914Y-56748214D01*
X144772914Y-56748214D02*
X144820533Y-56652976D01*
X107434819Y-92848214D02*
X106434819Y-92848214D01*
X106434819Y-92848214D02*
X106434819Y-93086309D01*
X106434819Y-93086309D02*
X106482438Y-93229166D01*
X106482438Y-93229166D02*
X106577676Y-93324404D01*
X106577676Y-93324404D02*
X106672914Y-93372023D01*
X106672914Y-93372023D02*
X106863390Y-93419642D01*
X106863390Y-93419642D02*
X107006247Y-93419642D01*
X107006247Y-93419642D02*
X107196723Y-93372023D01*
X107196723Y-93372023D02*
X107291961Y-93324404D01*
X107291961Y-93324404D02*
X107387200Y-93229166D01*
X107387200Y-93229166D02*
X107434819Y-93086309D01*
X107434819Y-93086309D02*
X107434819Y-92848214D01*
X106530057Y-93800595D02*
X106482438Y-93848214D01*
X106482438Y-93848214D02*
X106434819Y-93943452D01*
X106434819Y-93943452D02*
X106434819Y-94181547D01*
X106434819Y-94181547D02*
X106482438Y-94276785D01*
X106482438Y-94276785D02*
X106530057Y-94324404D01*
X106530057Y-94324404D02*
X106625295Y-94372023D01*
X106625295Y-94372023D02*
X106720533Y-94372023D01*
X106720533Y-94372023D02*
X106863390Y-94324404D01*
X106863390Y-94324404D02*
X107434819Y-93752976D01*
X107434819Y-93752976D02*
X107434819Y-94372023D01*
X107434819Y-95324404D02*
X107434819Y-94752976D01*
X107434819Y-95038690D02*
X106434819Y-95038690D01*
X106434819Y-95038690D02*
X106577676Y-94943452D01*
X106577676Y-94943452D02*
X106672914Y-94848214D01*
X106672914Y-94848214D02*
X106720533Y-94752976D01*
X107434819Y-55224405D02*
X106434819Y-55224405D01*
X106434819Y-55224405D02*
X106434819Y-55462500D01*
X106434819Y-55462500D02*
X106482438Y-55605357D01*
X106482438Y-55605357D02*
X106577676Y-55700595D01*
X106577676Y-55700595D02*
X106672914Y-55748214D01*
X106672914Y-55748214D02*
X106863390Y-55795833D01*
X106863390Y-55795833D02*
X107006247Y-55795833D01*
X107006247Y-55795833D02*
X107196723Y-55748214D01*
X107196723Y-55748214D02*
X107291961Y-55700595D01*
X107291961Y-55700595D02*
X107387200Y-55605357D01*
X107387200Y-55605357D02*
X107434819Y-55462500D01*
X107434819Y-55462500D02*
X107434819Y-55224405D01*
X107434819Y-56272024D02*
X107434819Y-56462500D01*
X107434819Y-56462500D02*
X107387200Y-56557738D01*
X107387200Y-56557738D02*
X107339580Y-56605357D01*
X107339580Y-56605357D02*
X107196723Y-56700595D01*
X107196723Y-56700595D02*
X107006247Y-56748214D01*
X107006247Y-56748214D02*
X106625295Y-56748214D01*
X106625295Y-56748214D02*
X106530057Y-56700595D01*
X106530057Y-56700595D02*
X106482438Y-56652976D01*
X106482438Y-56652976D02*
X106434819Y-56557738D01*
X106434819Y-56557738D02*
X106434819Y-56367262D01*
X106434819Y-56367262D02*
X106482438Y-56272024D01*
X106482438Y-56272024D02*
X106530057Y-56224405D01*
X106530057Y-56224405D02*
X106625295Y-56176786D01*
X106625295Y-56176786D02*
X106863390Y-56176786D01*
X106863390Y-56176786D02*
X106958628Y-56224405D01*
X106958628Y-56224405D02*
X107006247Y-56272024D01*
X107006247Y-56272024D02*
X107053866Y-56367262D01*
X107053866Y-56367262D02*
X107053866Y-56557738D01*
X107053866Y-56557738D02*
X107006247Y-56652976D01*
X107006247Y-56652976D02*
X106958628Y-56700595D01*
X106958628Y-56700595D02*
X106863390Y-56748214D01*
%TO.C,SW12*%
D13*
X152950000Y-49825000D02*
X158050000Y-49825000D01*
X156850000Y-54025000D02*
X161950000Y-54025000D01*
X150950000Y-51825000D02*
G75*
G02*
X152950000Y-49825000I1999999J1D01*
G01*
X154850000Y-56025000D02*
G75*
G02*
X156850000Y-54025000I1999999J1D01*
G01*
%TO.C,SW27*%
X181877895Y-130109425D02*
X185784722Y-133387642D01*
X182165761Y-135833683D02*
X186072587Y-139111900D01*
X179060231Y-130355939D02*
G75*
G02*
X181877895Y-130109425I1532089J-1285575D01*
G01*
X179348097Y-136080197D02*
G75*
G02*
X182165761Y-135833683I1532089J-1285575D01*
G01*
%TO.C,SW17*%
X133900000Y-64112500D02*
X139000000Y-64112500D01*
X137800000Y-68312500D02*
X142900000Y-68312500D01*
X131900000Y-66112500D02*
G75*
G02*
X133900000Y-64112500I1999999J1D01*
G01*
X135800000Y-70312500D02*
G75*
G02*
X137800000Y-68312500I1999999J1D01*
G01*
%TO.C,SW10*%
X114850000Y-40300000D02*
X119950000Y-40300000D01*
X118750000Y-44500000D02*
X123850000Y-44500000D01*
X112850000Y-42300000D02*
G75*
G02*
X114850000Y-40300000I1999999J1D01*
G01*
X116750000Y-46500000D02*
G75*
G02*
X118750000Y-44500000I1999999J1D01*
G01*
%TO.C,SW6*%
X152950000Y-30775000D02*
X158050000Y-30775000D01*
X156850000Y-34975000D02*
X161950000Y-34975000D01*
X150950000Y-32775000D02*
G75*
G02*
X152950000Y-30775000I1999999J1D01*
G01*
X154850000Y-36975000D02*
G75*
G02*
X156850000Y-34975000I1999999J1D01*
G01*
%TO.C,SW4*%
X114850000Y-21250000D02*
X119950000Y-21250000D01*
X118750000Y-25450000D02*
X123850000Y-25450000D01*
X112850000Y-23250000D02*
G75*
G02*
X114850000Y-21250000I1999999J1D01*
G01*
X116750000Y-27450000D02*
G75*
G02*
X118750000Y-25450000I1999999J1D01*
G01*
%TO.C,SW25*%
X138246308Y-107662908D02*
X143172529Y-108982885D01*
X140926378Y-112729190D02*
X145852600Y-114049168D01*
X135796818Y-109077121D02*
G75*
G02*
X138246308Y-107662908I1931851J-517638D01*
G01*
X138476889Y-114143404D02*
G75*
G02*
X140926378Y-112729191I1931851J-517638D01*
G01*
%TO.C,SW22*%
X114850000Y-78400000D02*
X119950000Y-78400000D01*
X118750000Y-82600000D02*
X123850000Y-82600000D01*
X112850000Y-80400000D02*
G75*
G02*
X114850000Y-78400000I1999999J1D01*
G01*
X116750000Y-84600000D02*
G75*
G02*
X118750000Y-82600000I1999999J1D01*
G01*
%TO.C,SW13*%
X57700000Y-68875000D02*
X62800000Y-68875000D01*
X61600000Y-73075000D02*
X66700000Y-73075000D01*
X55700000Y-70875000D02*
G75*
G02*
X57700000Y-68875000I1999999J1D01*
G01*
X59600000Y-75075000D02*
G75*
G02*
X61600000Y-73075000I1999999J1D01*
G01*
%TO.C,SW20*%
X76750000Y-87925000D02*
X81850000Y-87925000D01*
X80650000Y-92125000D02*
X85750000Y-92125000D01*
X74750000Y-89925000D02*
G75*
G02*
X76750000Y-87925000I1999999J1D01*
G01*
X78650000Y-94125000D02*
G75*
G02*
X80650000Y-92125000I1999999J1D01*
G01*
%TO.C,SW18*%
X152950000Y-68875000D02*
X158050000Y-68875000D01*
X156850000Y-73075000D02*
X161950000Y-73075000D01*
X150950000Y-70875000D02*
G75*
G02*
X152950000Y-68875000I1999999J1D01*
G01*
X154850000Y-75075000D02*
G75*
G02*
X156850000Y-73075000I1999999J1D01*
G01*
%TO.C,SW5*%
X133900000Y-26012500D02*
X139000000Y-26012500D01*
X137800000Y-30212500D02*
X142900000Y-30212500D01*
X131900000Y-28012500D02*
G75*
G02*
X133900000Y-26012500I1999999J1D01*
G01*
X135800000Y-32212500D02*
G75*
G02*
X137800000Y-30212500I1999999J1D01*
G01*
%TO.C,SW16*%
X114850000Y-59350000D02*
X119950000Y-59350000D01*
X118750000Y-63550000D02*
X123850000Y-63550000D01*
X112850000Y-61350000D02*
G75*
G02*
X114850000Y-59350000I1999999J1D01*
G01*
X116750000Y-65550000D02*
G75*
G02*
X118750000Y-63550000I1999999J1D01*
G01*
%TO.C,SW19*%
X57700000Y-87925000D02*
X62800000Y-87925000D01*
X61600000Y-92125000D02*
X66700000Y-92125000D01*
X55700000Y-89925000D02*
G75*
G02*
X57700000Y-87925000I1999999J1D01*
G01*
X59600000Y-94125000D02*
G75*
G02*
X61600000Y-92125000I1999999J1D01*
G01*
%TO.C,SW21*%
X95800000Y-83162500D02*
X100900000Y-83162500D01*
X99700000Y-87362500D02*
X104800000Y-87362500D01*
X93800000Y-85162500D02*
G75*
G02*
X95800000Y-83162500I1999999J1D01*
G01*
X97700000Y-89362500D02*
G75*
G02*
X99700000Y-87362500I1999999J1D01*
G01*
%TO.C,SW7*%
X57700000Y-49825000D02*
X62800000Y-49825000D01*
X61600000Y-54025000D02*
X66700000Y-54025000D01*
X55700000Y-51825000D02*
G75*
G02*
X57700000Y-49825000I1999999J1D01*
G01*
X59600000Y-56025000D02*
G75*
G02*
X61600000Y-54025000I1999999J1D01*
G01*
%TO.C,SW11*%
X133900000Y-45062500D02*
X139000000Y-45062500D01*
X137800000Y-49262500D02*
X142900000Y-49262500D01*
X131900000Y-47062500D02*
G75*
G02*
X133900000Y-45062500I1999999J1D01*
G01*
X135800000Y-51262500D02*
G75*
G02*
X137800000Y-49262500I1999999J1D01*
G01*
%TO.C,SW14*%
X76750000Y-68875000D02*
X81850000Y-68875000D01*
X80650000Y-73075000D02*
X85750000Y-73075000D01*
X74750000Y-70875000D02*
G75*
G02*
X76750000Y-68875000I1999999J1D01*
G01*
X78650000Y-75075000D02*
G75*
G02*
X80650000Y-73075000I1999999J1D01*
G01*
%TO.C,SW9*%
X95800000Y-45062500D02*
X100900000Y-45062500D01*
X99700000Y-49262500D02*
X104800000Y-49262500D01*
X93800000Y-47062500D02*
G75*
G02*
X95800000Y-45062500I1999999J1D01*
G01*
X97700000Y-51262500D02*
G75*
G02*
X99700000Y-49262500I1999999J1D01*
G01*
%TO.C,SW23*%
X133900000Y-83162500D02*
X139000000Y-83162500D01*
X137800000Y-87362500D02*
X142900000Y-87362500D01*
X131900000Y-85162500D02*
G75*
G02*
X133900000Y-83162500I1999999J1D01*
G01*
X135800000Y-89362500D02*
G75*
G02*
X137800000Y-87362500I1999999J1D01*
G01*
%TO.C,SW3*%
X95800000Y-26012500D02*
X100900000Y-26012500D01*
X99700000Y-30212500D02*
X104800000Y-30212500D01*
X93800000Y-28012500D02*
G75*
G02*
X95800000Y-26012500I1999999J1D01*
G01*
X97700000Y-32212500D02*
G75*
G02*
X99700000Y-30212500I1999999J1D01*
G01*
%TO.C,SW2*%
X76750000Y-30775000D02*
X81850000Y-30775000D01*
X80650000Y-34975000D02*
X85750000Y-34975000D01*
X74750000Y-32775000D02*
G75*
G02*
X76750000Y-30775000I1999999J1D01*
G01*
X78650000Y-36975000D02*
G75*
G02*
X80650000Y-34975000I1999999J1D01*
G01*
%TO.C,SW8*%
X76750000Y-49825000D02*
X81850000Y-49825000D01*
X80650000Y-54025000D02*
X85750000Y-54025000D01*
X74750000Y-51825000D02*
G75*
G02*
X76750000Y-49825000I1999999J1D01*
G01*
X78650000Y-56025000D02*
G75*
G02*
X80650000Y-54025000I1999999J1D01*
G01*
%TO.C,SW26*%
X161392440Y-117118279D02*
X165809169Y-119668279D01*
X162669939Y-122705585D02*
X167086668Y-125255585D01*
X158660389Y-117850330D02*
G75*
G02*
X161392440Y-117118279I1732051J-1000000D01*
G01*
X159937888Y-123437636D02*
G75*
G02*
X162669939Y-122705585I1732051J-999999D01*
G01*
%TO.C,SW15*%
X95800000Y-64112500D02*
X100900000Y-64112500D01*
X99700000Y-68312500D02*
X104800000Y-68312500D01*
X93800000Y-66112500D02*
G75*
G02*
X95800000Y-64112500I1999999J1D01*
G01*
X97700000Y-70312500D02*
G75*
G02*
X99700000Y-68312500I1999999J1D01*
G01*
%TO.C,SW1*%
X57700000Y-30775000D02*
X62800000Y-30775000D01*
X61600000Y-34975000D02*
X66700000Y-34975000D01*
X55700000Y-32775000D02*
G75*
G02*
X57700000Y-30775000I1999999J1D01*
G01*
X59600000Y-36975000D02*
G75*
G02*
X61600000Y-34975000I1999999J1D01*
G01*
%TO.C,SW24*%
X152950000Y-87925000D02*
X158050000Y-87925000D01*
X156850000Y-92125000D02*
X161950000Y-92125000D01*
X150950000Y-89925000D02*
G75*
G02*
X152950000Y-87925000I1999999J1D01*
G01*
X154850000Y-94125000D02*
G75*
G02*
X156850000Y-92125000I1999999J1D01*
G01*
%TO.C,D18*%
X161130000Y-82135000D02*
X161130000Y-78125000D01*
X163130000Y-82135000D02*
X161130000Y-82135000D01*
X163130000Y-82135000D02*
X163130000Y-78125000D01*
%TO.C,D12*%
X161130000Y-63085000D02*
X161130000Y-59075000D01*
X163130000Y-63085000D02*
X161130000Y-63085000D01*
X163130000Y-63085000D02*
X163130000Y-59075000D01*
%TO.C,D17*%
X142080000Y-77372500D02*
X142080000Y-73362500D01*
X144080000Y-77372500D02*
X142080000Y-77372500D01*
X144080000Y-77372500D02*
X144080000Y-73362500D01*
%TO.C,D26*%
X161846528Y-132691775D02*
X163851528Y-129219013D01*
X163578578Y-133691775D02*
X161846528Y-132691775D01*
X163578578Y-133691775D02*
X165583578Y-130219013D01*
%TO.C,D24*%
X161130000Y-101185000D02*
X161130000Y-97175000D01*
X163130000Y-101185000D02*
X161130000Y-101185000D01*
X163130000Y-101185000D02*
X163130000Y-97175000D01*
%TO.C,D2*%
X84930000Y-44035000D02*
X84930000Y-40025000D01*
X86930000Y-44035000D02*
X84930000Y-44035000D01*
X86930000Y-44035000D02*
X86930000Y-40025000D01*
%TO.C,D15*%
X103980000Y-77372500D02*
X103980000Y-73362500D01*
X105980000Y-77372500D02*
X103980000Y-77372500D01*
X105980000Y-77372500D02*
X105980000Y-73362500D01*
%TO.C,D7*%
X65880000Y-63085000D02*
X65880000Y-59075000D01*
X67880000Y-63085000D02*
X65880000Y-63085000D01*
X67880000Y-63085000D02*
X67880000Y-59075000D01*
%TO.C,D14*%
X84930000Y-82135000D02*
X84930000Y-78125000D01*
X86930000Y-82135000D02*
X84930000Y-82135000D01*
X86930000Y-82135000D02*
X86930000Y-78125000D01*
%TO.C,D5*%
X142080000Y-39272500D02*
X142080000Y-35262500D01*
X144080000Y-39272500D02*
X142080000Y-39272500D01*
X144080000Y-39272500D02*
X144080000Y-35262500D01*
%TO.C,D22*%
X123030000Y-91660000D02*
X123030000Y-87650000D01*
X125030000Y-91660000D02*
X123030000Y-91660000D01*
X125030000Y-91660000D02*
X125030000Y-87650000D01*
%TO.C,D3*%
X103980000Y-39272500D02*
X103980000Y-35262500D01*
X105980000Y-39272500D02*
X103980000Y-39272500D01*
X105980000Y-39272500D02*
X105980000Y-35262500D01*
%TO.C,D13*%
X65880000Y-82135000D02*
X65880000Y-78125000D01*
X67880000Y-82135000D02*
X65880000Y-82135000D01*
X67880000Y-82135000D02*
X67880000Y-78125000D01*
%TO.C,D23*%
X142080000Y-96422500D02*
X142080000Y-92412500D01*
X144080000Y-96422500D02*
X142080000Y-96422500D01*
X144080000Y-96422500D02*
X144080000Y-92412500D01*
%TO.C,D1*%
X65880000Y-44035000D02*
X65880000Y-40025000D01*
X67880000Y-44035000D02*
X65880000Y-44035000D01*
X67880000Y-44035000D02*
X67880000Y-40025000D01*
%TO.C,D25*%
X142715640Y-122588224D02*
X143753505Y-118714861D01*
X144647492Y-123105862D02*
X142715640Y-122588224D01*
X144647492Y-123105862D02*
X145685356Y-119232499D01*
%TO.C,D19*%
X65880000Y-101185000D02*
X65880000Y-97175000D01*
X67880000Y-101185000D02*
X65880000Y-101185000D01*
X67880000Y-101185000D02*
X67880000Y-97175000D01*
%TO.C,D16*%
X123030000Y-72610000D02*
X123030000Y-68600000D01*
X125030000Y-72610000D02*
X123030000Y-72610000D01*
X125030000Y-72610000D02*
X125030000Y-68600000D01*
%TO.C,D4*%
X123030000Y-34510000D02*
X123030000Y-30500000D01*
X125030000Y-34510000D02*
X123030000Y-34510000D01*
X125030000Y-34510000D02*
X125030000Y-30500000D01*
%TO.C,D10*%
X123030000Y-53560000D02*
X123030000Y-49550000D01*
X125030000Y-53560000D02*
X123030000Y-53560000D01*
X125030000Y-53560000D02*
X125030000Y-49550000D01*
%TO.C,D6*%
X161130000Y-44035000D02*
X161130000Y-40025000D01*
X163130000Y-44035000D02*
X161130000Y-44035000D01*
X163130000Y-44035000D02*
X163130000Y-40025000D01*
%TO.C,D20*%
X84930000Y-101185000D02*
X84930000Y-97175000D01*
X86930000Y-101185000D02*
X84930000Y-101185000D01*
X86930000Y-101185000D02*
X86930000Y-97175000D01*
%TO.C,D8*%
X84930000Y-63085000D02*
X84930000Y-59075000D01*
X86930000Y-63085000D02*
X84930000Y-63085000D01*
X86930000Y-63085000D02*
X86930000Y-59075000D01*
%TO.C,D27*%
X179620775Y-145525176D02*
X182198353Y-142453338D01*
X181152864Y-146810751D02*
X179620775Y-145525176D01*
X181152864Y-146810751D02*
X183730442Y-143738913D01*
%TO.C,D11*%
X142080000Y-58322500D02*
X142080000Y-54312500D01*
X144080000Y-58322500D02*
X142080000Y-58322500D01*
X144080000Y-58322500D02*
X144080000Y-54312500D01*
%TO.C,D21*%
X103980000Y-96422500D02*
X103980000Y-92412500D01*
X105980000Y-96422500D02*
X103980000Y-96422500D01*
X105980000Y-96422500D02*
X105980000Y-92412500D01*
%TO.C,D9*%
X103980000Y-58322500D02*
X103980000Y-54312500D01*
X105980000Y-58322500D02*
X103980000Y-58322500D01*
X105980000Y-58322500D02*
X105980000Y-54312500D01*
%TD*%
M02*
