%TF.GenerationSoftware,KiCad,Pcbnew,10.0.1*%
%TF.CreationDate,2026-06-06T17:58:52+12:00*%
%TF.ProjectId,keyboard,6b657962-6f61-4726-942e-6b696361645f,rev?*%
%TF.SameCoordinates,Original*%
%TF.FileFunction,Profile,NP*%
%FSLAX46Y46*%
G04 Gerber Fmt 4.6, Leading zero omitted, Abs format (unit mm)*
G04 Created by KiCad (PCBNEW 10.0.1) date 2026-06-06 17:58:52*
%MOMM*%
%LPD*%
G01*
G04 APERTURE LIST*
%TA.AperFunction,Profile*%
%ADD10C,0.944881*%
%TD*%
G04 APERTURE END LIST*
D10*
X129522800Y-18226300D02*
X129573584Y-18230162D01*
X129623630Y-18236521D01*
X129672875Y-18245315D01*
X129721255Y-18256482D01*
X129768709Y-18269957D01*
X129815173Y-18285679D01*
X129860585Y-18303584D01*
X129904881Y-18323610D01*
X129947999Y-18345694D01*
X129989876Y-18369772D01*
X130030449Y-18395783D01*
X130069656Y-18423664D01*
X130107433Y-18453350D01*
X130143717Y-18484781D01*
X130178447Y-18517892D01*
X130211558Y-18552622D01*
X130242988Y-18588906D01*
X130272675Y-18626683D01*
X130300555Y-18665890D01*
X130326566Y-18706463D01*
X130350645Y-18748340D01*
X130372729Y-18791458D01*
X130392755Y-18835754D01*
X130410660Y-18881165D01*
X130426382Y-18927630D01*
X130439857Y-18975083D01*
X130451023Y-19023464D01*
X130459818Y-19072709D01*
X130466177Y-19122755D01*
X130470039Y-19173539D01*
X130471340Y-19224999D01*
X130471340Y-21987999D01*
X130472641Y-22039459D01*
X130476503Y-22090243D01*
X130482862Y-22140289D01*
X130491656Y-22189534D01*
X130502823Y-22237915D01*
X130516298Y-22285368D01*
X130532020Y-22331833D01*
X130549925Y-22377244D01*
X130569951Y-22421540D01*
X130592035Y-22464658D01*
X130616113Y-22506535D01*
X130642124Y-22547109D01*
X130670005Y-22586315D01*
X130699691Y-22624092D01*
X130731122Y-22660376D01*
X130764233Y-22695106D01*
X130798963Y-22728217D01*
X130835247Y-22759648D01*
X130873024Y-22789334D01*
X130912231Y-22817215D01*
X130952804Y-22843226D01*
X130994681Y-22867304D01*
X131037799Y-22889388D01*
X131082095Y-22909414D01*
X131127507Y-22927319D01*
X131173971Y-22943041D01*
X131221425Y-22956516D01*
X131269805Y-22967683D01*
X131319050Y-22976477D01*
X131369096Y-22982836D01*
X131419880Y-22986698D01*
X131471340Y-22987999D01*
X148521343Y-22987999D01*
X148572803Y-22989300D01*
X148623587Y-22993162D01*
X148673633Y-22999521D01*
X148722878Y-23008316D01*
X148771258Y-23019482D01*
X148818712Y-23032957D01*
X148865176Y-23048679D01*
X148910588Y-23066584D01*
X148954884Y-23086610D01*
X148998002Y-23108694D01*
X149039879Y-23132772D01*
X149080452Y-23158783D01*
X149119659Y-23186664D01*
X149157436Y-23216350D01*
X149193720Y-23247781D01*
X149228450Y-23280892D01*
X149261561Y-23315622D01*
X149292991Y-23351906D01*
X149322678Y-23389683D01*
X149350559Y-23428890D01*
X149376570Y-23469463D01*
X149400648Y-23511340D01*
X149422732Y-23554458D01*
X149442758Y-23598754D01*
X149460663Y-23644165D01*
X149476385Y-23690630D01*
X149489860Y-23738083D01*
X149501027Y-23786464D01*
X149509821Y-23835709D01*
X149516180Y-23885755D01*
X149520042Y-23936539D01*
X149521343Y-23987999D01*
X149521343Y-26750000D01*
X149522644Y-26801460D01*
X149526506Y-26852245D01*
X149532865Y-26902291D01*
X149541659Y-26951535D01*
X149552826Y-26999916D01*
X149566301Y-27047370D01*
X149582023Y-27093834D01*
X149599928Y-27139245D01*
X149619954Y-27183542D01*
X149642038Y-27226660D01*
X149666116Y-27268537D01*
X149692127Y-27309110D01*
X149720008Y-27348316D01*
X149749695Y-27386093D01*
X149781125Y-27422378D01*
X149814236Y-27457107D01*
X149848966Y-27490218D01*
X149885250Y-27521649D01*
X149923027Y-27551336D01*
X149962234Y-27579216D01*
X150002807Y-27605227D01*
X150044684Y-27629306D01*
X150087802Y-27651390D01*
X150132098Y-27671415D01*
X150177510Y-27689321D01*
X150223974Y-27705042D01*
X150271428Y-27718518D01*
X150319808Y-27729684D01*
X150369053Y-27738478D01*
X150419099Y-27744838D01*
X150469883Y-27748699D01*
X150521343Y-27750000D01*
X167571346Y-27750000D01*
X193318630Y-27750000D01*
X193318630Y-78224999D01*
X168570873Y-78224999D01*
X168571346Y-84900017D01*
X168571346Y-89850014D01*
X168571346Y-107900010D01*
X168570045Y-107951469D01*
X168566183Y-108002254D01*
X168559824Y-108052300D01*
X168551029Y-108101544D01*
X168539863Y-108149925D01*
X168526387Y-108197379D01*
X168510665Y-108243843D01*
X168492760Y-108289255D01*
X168472734Y-108333551D01*
X168450650Y-108376669D01*
X168426571Y-108418546D01*
X168400560Y-108459119D01*
X168372679Y-108498325D01*
X168342992Y-108536102D01*
X168311561Y-108572387D01*
X168278450Y-108607116D01*
X168243720Y-108640228D01*
X168207436Y-108671658D01*
X168169659Y-108701345D01*
X168130452Y-108729225D01*
X168089879Y-108755236D01*
X168048002Y-108779315D01*
X168004884Y-108801399D01*
X167960588Y-108821425D01*
X167915176Y-108839330D01*
X167868712Y-108855052D01*
X167821259Y-108868527D01*
X167772879Y-108879693D01*
X167723634Y-108888487D01*
X167673589Y-108894847D01*
X167622805Y-108898709D01*
X167571346Y-108900010D01*
X166542339Y-108900010D01*
X166448380Y-108903915D01*
X166358397Y-108915353D01*
X166272498Y-108933922D01*
X166190790Y-108959220D01*
X166113381Y-108990844D01*
X166040379Y-109028392D01*
X165971892Y-109071462D01*
X165908028Y-109119651D01*
X165848894Y-109172557D01*
X165794598Y-109229778D01*
X165745249Y-109290912D01*
X165700952Y-109355555D01*
X165661818Y-109423307D01*
X165627953Y-109493764D01*
X165599465Y-109566524D01*
X165576463Y-109641185D01*
X165559052Y-109717345D01*
X165547343Y-109794601D01*
X165541442Y-109872551D01*
X165541457Y-109950793D01*
X165547496Y-110028924D01*
X165559667Y-110106543D01*
X165578078Y-110183246D01*
X165602835Y-110258631D01*
X165634048Y-110332297D01*
X165671824Y-110403840D01*
X165716271Y-110472859D01*
X165767496Y-110538952D01*
X165825608Y-110601715D01*
X165890714Y-110660747D01*
X165962922Y-110715645D01*
X166042339Y-110766007D01*
X178922344Y-118202004D01*
X178966257Y-118228861D01*
X179008305Y-118257598D01*
X179048464Y-118288128D01*
X179086712Y-118320366D01*
X179123026Y-118354227D01*
X179157382Y-118389623D01*
X179189759Y-118426470D01*
X179220132Y-118464682D01*
X179248478Y-118504173D01*
X179274776Y-118544856D01*
X179299001Y-118586647D01*
X179321132Y-118629458D01*
X179341144Y-118673206D01*
X179359014Y-118717803D01*
X179374721Y-118763164D01*
X179388241Y-118809203D01*
X179399550Y-118855834D01*
X179408626Y-118902971D01*
X179415446Y-118950529D01*
X179419987Y-118998422D01*
X179422226Y-119046563D01*
X179422140Y-119094868D01*
X179419706Y-119143250D01*
X179414901Y-119191623D01*
X179407701Y-119239902D01*
X179398085Y-119288001D01*
X179386028Y-119335833D01*
X179371509Y-119383314D01*
X179354504Y-119430357D01*
X179334989Y-119476876D01*
X179312943Y-119522787D01*
X179288341Y-119568001D01*
X181044338Y-120317002D01*
X181078422Y-120278415D01*
X181114033Y-120241993D01*
X181151083Y-120207743D01*
X181189484Y-120175672D01*
X181229146Y-120145788D01*
X181269981Y-120118100D01*
X181311900Y-120092614D01*
X181354815Y-120069339D01*
X181398638Y-120048282D01*
X181443280Y-120029452D01*
X181488652Y-120012854D01*
X181534666Y-119998499D01*
X181581233Y-119986392D01*
X181628265Y-119976543D01*
X181675672Y-119968958D01*
X181723367Y-119963645D01*
X181771262Y-119960613D01*
X181819266Y-119959869D01*
X181867293Y-119961420D01*
X181915253Y-119965274D01*
X181963057Y-119971440D01*
X182010618Y-119979924D01*
X182057846Y-119990735D01*
X182104654Y-120003880D01*
X182150952Y-120019367D01*
X182196652Y-120037203D01*
X182241665Y-120057398D01*
X182285904Y-120079957D01*
X182329278Y-120104889D01*
X182371701Y-120132202D01*
X182413082Y-120161903D01*
X182453335Y-120194001D01*
X199306347Y-134335000D01*
X199344932Y-134369082D01*
X199381354Y-134404692D01*
X199415604Y-134441741D01*
X199447674Y-134480141D01*
X199477557Y-134519802D01*
X199505245Y-134560636D01*
X199530729Y-134602555D01*
X199554004Y-134645470D01*
X199575060Y-134689292D01*
X199593890Y-134733933D01*
X199610487Y-134779305D01*
X199624842Y-134825319D01*
X199636948Y-134871886D01*
X199646798Y-134918917D01*
X199654382Y-134966325D01*
X199659694Y-135014020D01*
X199662727Y-135061915D01*
X199663471Y-135109920D01*
X199661920Y-135157947D01*
X199658066Y-135205907D01*
X199651900Y-135253712D01*
X199643416Y-135301273D01*
X199632606Y-135348502D01*
X199619461Y-135395310D01*
X199603975Y-135441609D01*
X199586139Y-135487309D01*
X199565945Y-135532324D01*
X199543387Y-135576562D01*
X199518456Y-135619938D01*
X199491144Y-135662361D01*
X199461444Y-135703743D01*
X199429348Y-135743996D01*
X179165340Y-159894005D01*
X179131258Y-159932591D01*
X179095648Y-159969013D01*
X179058599Y-160003263D01*
X179020200Y-160035333D01*
X178980539Y-160065216D01*
X178939705Y-160092904D01*
X178897786Y-160118390D01*
X178854871Y-160141665D01*
X178811049Y-160162722D01*
X178766408Y-160181552D01*
X178721036Y-160198149D01*
X178675023Y-160212505D01*
X178628456Y-160224612D01*
X178581425Y-160234461D01*
X178534017Y-160242046D01*
X178486322Y-160247359D01*
X178438428Y-160250391D01*
X178390423Y-160251136D01*
X178342396Y-160249585D01*
X178294436Y-160245731D01*
X178246631Y-160239566D01*
X178199070Y-160231082D01*
X178151841Y-160220271D01*
X178105033Y-160207126D01*
X178058734Y-160191640D01*
X178013033Y-160173803D01*
X177968019Y-160153609D01*
X177923780Y-160131050D01*
X177880404Y-160106118D01*
X177837980Y-160078805D01*
X177796597Y-160049104D01*
X177756344Y-160017006D01*
X163056339Y-147682000D01*
X163025341Y-147736001D01*
X143107342Y-136236001D01*
X143063429Y-136209144D01*
X143021381Y-136180407D01*
X142981221Y-136149877D01*
X142942973Y-136117638D01*
X142906659Y-136083778D01*
X142872302Y-136048381D01*
X142839925Y-136011534D01*
X142809552Y-135973322D01*
X142781204Y-135933832D01*
X142754906Y-135893149D01*
X142730680Y-135851358D01*
X142708550Y-135808546D01*
X142688537Y-135764799D01*
X142670666Y-135720202D01*
X142654958Y-135674841D01*
X142641438Y-135628802D01*
X142630128Y-135582171D01*
X142621052Y-135535033D01*
X142614231Y-135487475D01*
X142609690Y-135439583D01*
X142607450Y-135391441D01*
X142607536Y-135343136D01*
X142609970Y-135294755D01*
X142614775Y-135246381D01*
X142621975Y-135198102D01*
X142631591Y-135150004D01*
X142643647Y-135102171D01*
X142658167Y-135054691D01*
X142675173Y-135007648D01*
X142694688Y-134961128D01*
X142716735Y-134915218D01*
X142741337Y-134870003D01*
X144205333Y-132333001D01*
X144234327Y-132279182D01*
X144259685Y-132224574D01*
X144281463Y-132169307D01*
X144299714Y-132113513D01*
X144314492Y-132057321D01*
X144325851Y-132000863D01*
X144333846Y-131944268D01*
X144338530Y-131887668D01*
X144339957Y-131831192D01*
X144338183Y-131774972D01*
X144333259Y-131719138D01*
X144325242Y-131663821D01*
X144314184Y-131609150D01*
X144300140Y-131555258D01*
X144283164Y-131502273D01*
X144263309Y-131450327D01*
X144240631Y-131399551D01*
X144215183Y-131350074D01*
X144187019Y-131302028D01*
X144156193Y-131255543D01*
X144122759Y-131210749D01*
X144086772Y-131167778D01*
X144048285Y-131126758D01*
X144007352Y-131087823D01*
X143964028Y-131051101D01*
X143918367Y-131016723D01*
X143870422Y-130984820D01*
X143820247Y-130955522D01*
X143767898Y-130928961D01*
X143713427Y-130905266D01*
X143656890Y-130884568D01*
X143598339Y-130866997D01*
X126211338Y-126208001D01*
X126161960Y-126193420D01*
X126113899Y-126176541D01*
X126067197Y-126157439D01*
X126021901Y-126136193D01*
X125978053Y-126112879D01*
X125935700Y-126087573D01*
X125894884Y-126060354D01*
X125855651Y-126031298D01*
X125818044Y-126000481D01*
X125782110Y-125967982D01*
X125747891Y-125933876D01*
X125715432Y-125898241D01*
X125684778Y-125861154D01*
X125655973Y-125822693D01*
X125629061Y-125782933D01*
X125604088Y-125741951D01*
X125581096Y-125699826D01*
X125560132Y-125656634D01*
X125541239Y-125612451D01*
X125524462Y-125567356D01*
X125509845Y-125521424D01*
X125497433Y-125474732D01*
X125487269Y-125427359D01*
X125479399Y-125379381D01*
X125473868Y-125330874D01*
X125470718Y-125281916D01*
X125469995Y-125232583D01*
X125471743Y-125182954D01*
X125476007Y-125133104D01*
X125482831Y-125083111D01*
X125492260Y-125033051D01*
X125504337Y-124983002D01*
X130752338Y-105396004D01*
X130766348Y-105336538D01*
X130776647Y-105277254D01*
X130783321Y-105218262D01*
X130786457Y-105159675D01*
X130786140Y-105101606D01*
X130782455Y-105044165D01*
X130775490Y-104987465D01*
X130765329Y-104931617D01*
X130752060Y-104876734D01*
X130735766Y-104822928D01*
X130716536Y-104770310D01*
X130694454Y-104718992D01*
X130669607Y-104669086D01*
X130642080Y-104620704D01*
X130611960Y-104573958D01*
X130579331Y-104528960D01*
X130544281Y-104485821D01*
X130506895Y-104444655D01*
X130467259Y-104405571D01*
X130425459Y-104368683D01*
X130381580Y-104334103D01*
X130335710Y-104301941D01*
X130287933Y-104272311D01*
X130238336Y-104245324D01*
X130187004Y-104221091D01*
X130134024Y-104199726D01*
X130079481Y-104181339D01*
X130023462Y-104166042D01*
X129966051Y-104153949D01*
X129907336Y-104145169D01*
X129847402Y-104139816D01*
X129786335Y-104138001D01*
X126521335Y-104138001D01*
X126469876Y-104136700D01*
X126419091Y-104132838D01*
X126369045Y-104126479D01*
X126319801Y-104117685D01*
X126271420Y-104106518D01*
X126223966Y-104093043D01*
X126177502Y-104077321D01*
X126132091Y-104059416D01*
X126087794Y-104039390D01*
X126044676Y-104017306D01*
X126002799Y-103993228D01*
X125962226Y-103967217D01*
X125923020Y-103939336D01*
X125885243Y-103909649D01*
X125848958Y-103878219D01*
X125814229Y-103845108D01*
X125781117Y-103810378D01*
X125749687Y-103774094D01*
X125720000Y-103736317D01*
X125692120Y-103697110D01*
X125666109Y-103656537D01*
X125642030Y-103614660D01*
X125619946Y-103571542D01*
X125599920Y-103527246D01*
X125582015Y-103481834D01*
X125566293Y-103435370D01*
X125552818Y-103387916D01*
X125541652Y-103339536D01*
X125532858Y-103290291D01*
X125526498Y-103240245D01*
X125522637Y-103189461D01*
X125521335Y-103138001D01*
X125521335Y-100375001D01*
X125520034Y-100323541D01*
X125516172Y-100272756D01*
X125509813Y-100222710D01*
X125501019Y-100173466D01*
X125489853Y-100125085D01*
X125476377Y-100077631D01*
X125460656Y-100031167D01*
X125442750Y-99985756D01*
X125422724Y-99941459D01*
X125400641Y-99898341D01*
X125376562Y-99856464D01*
X125350551Y-99815891D01*
X125322671Y-99776685D01*
X125292984Y-99738908D01*
X125261553Y-99702623D01*
X125228442Y-99667894D01*
X125193713Y-99634783D01*
X125157428Y-99603352D01*
X125119651Y-99573665D01*
X125080445Y-99545785D01*
X125039872Y-99519774D01*
X124997994Y-99495695D01*
X124954877Y-99473612D01*
X124910580Y-99453585D01*
X124865169Y-99435680D01*
X124818705Y-99419959D01*
X124771251Y-99406483D01*
X124722870Y-99395317D01*
X124673625Y-99386523D01*
X124623579Y-99380163D01*
X124572795Y-99376302D01*
X124521335Y-99375000D01*
X112421337Y-99375000D01*
X112369877Y-99376302D01*
X112319093Y-99380163D01*
X112269047Y-99386523D01*
X112219802Y-99395317D01*
X112171421Y-99406483D01*
X112123968Y-99419959D01*
X112077504Y-99435680D01*
X112032092Y-99453585D01*
X111987796Y-99473612D01*
X111944678Y-99495695D01*
X111902801Y-99519774D01*
X111862228Y-99545785D01*
X111823021Y-99573665D01*
X111785244Y-99603352D01*
X111748960Y-99634783D01*
X111714230Y-99667894D01*
X111681119Y-99702623D01*
X111649689Y-99738908D01*
X111620002Y-99776685D01*
X111592121Y-99815891D01*
X111566110Y-99856464D01*
X111542032Y-99898341D01*
X111519948Y-99941459D01*
X111499922Y-99985756D01*
X111482017Y-100031167D01*
X111466295Y-100077631D01*
X111452820Y-100125085D01*
X111441653Y-100173466D01*
X111432859Y-100222710D01*
X111426500Y-100272756D01*
X111422638Y-100323541D01*
X111421337Y-100375001D01*
X111421337Y-103138001D01*
X111420036Y-103189461D01*
X111416174Y-103240245D01*
X111409815Y-103290291D01*
X111401021Y-103339536D01*
X111389854Y-103387916D01*
X111376379Y-103435370D01*
X111360657Y-103481834D01*
X111342752Y-103527246D01*
X111322726Y-103571542D01*
X111300642Y-103614660D01*
X111276563Y-103656537D01*
X111250553Y-103697110D01*
X111222672Y-103736317D01*
X111192985Y-103774094D01*
X111161555Y-103810378D01*
X111128443Y-103845108D01*
X111093714Y-103878219D01*
X111057430Y-103909649D01*
X111019653Y-103939336D01*
X110980446Y-103967217D01*
X110939873Y-103993228D01*
X110897996Y-104017306D01*
X110854878Y-104039390D01*
X110810582Y-104059416D01*
X110765170Y-104077321D01*
X110718706Y-104093043D01*
X110671252Y-104106518D01*
X110622872Y-104117685D01*
X110573627Y-104126479D01*
X110523581Y-104132838D01*
X110472797Y-104136700D01*
X110421337Y-104138001D01*
X93371334Y-104138001D01*
X93319875Y-104139302D01*
X93269091Y-104143164D01*
X93219046Y-104149523D01*
X93169801Y-104158317D01*
X93121421Y-104169484D01*
X93073968Y-104182959D01*
X93027504Y-104198681D01*
X92982092Y-104216586D01*
X92937796Y-104236612D01*
X92894678Y-104258696D01*
X92852801Y-104282775D01*
X92812228Y-104308785D01*
X92773021Y-104336666D01*
X92735244Y-104366353D01*
X92698960Y-104397783D01*
X92664230Y-104430894D01*
X92631119Y-104465624D01*
X92599688Y-104501908D01*
X92570001Y-104539685D01*
X92542120Y-104578892D01*
X92516109Y-104619465D01*
X92492030Y-104661342D01*
X92469946Y-104704460D01*
X92449920Y-104748756D01*
X92432015Y-104794168D01*
X92416293Y-104840632D01*
X92402817Y-104888086D01*
X92391651Y-104936466D01*
X92382856Y-104985711D01*
X92376497Y-105035757D01*
X92372635Y-105086541D01*
X92371334Y-105138001D01*
X92371334Y-107900002D01*
X92370033Y-107951462D01*
X92366171Y-108002246D01*
X92359811Y-108052292D01*
X92351017Y-108101537D01*
X92339851Y-108149917D01*
X92326375Y-108197371D01*
X92310653Y-108243835D01*
X92292748Y-108289247D01*
X92272722Y-108333543D01*
X92250638Y-108376661D01*
X92226559Y-108418538D01*
X92200547Y-108459111D01*
X92172667Y-108498318D01*
X92142980Y-108536095D01*
X92111549Y-108572379D01*
X92078438Y-108607109D01*
X92043708Y-108640220D01*
X92007423Y-108671651D01*
X91969646Y-108701337D01*
X91930440Y-108729218D01*
X91889867Y-108755229D01*
X91847990Y-108779307D01*
X91804872Y-108801391D01*
X91760576Y-108821417D01*
X91715164Y-108839322D01*
X91668700Y-108855044D01*
X91621247Y-108868519D01*
X91572866Y-108879686D01*
X91523622Y-108888480D01*
X91473577Y-108894839D01*
X91422793Y-108898701D01*
X91371334Y-108900002D01*
X73321331Y-108900002D01*
X68371334Y-108900002D01*
X50321331Y-108900002D01*
X50269872Y-108898701D01*
X50219088Y-108894839D01*
X50169042Y-108888480D01*
X50119798Y-108879686D01*
X50071418Y-108868519D01*
X50023964Y-108855044D01*
X49977501Y-108839322D01*
X49932089Y-108821417D01*
X49887793Y-108801391D01*
X49844675Y-108779307D01*
X49802798Y-108755229D01*
X49762225Y-108729218D01*
X49723018Y-108701337D01*
X49685241Y-108671651D01*
X49648957Y-108640220D01*
X49614227Y-108607109D01*
X49581116Y-108572379D01*
X49549685Y-108536095D01*
X49519998Y-108498318D01*
X49492117Y-108459111D01*
X49466106Y-108418538D01*
X49442027Y-108376661D01*
X49419943Y-108333543D01*
X49399917Y-108289247D01*
X49382011Y-108243835D01*
X49366290Y-108197371D01*
X49352814Y-108149917D01*
X49341648Y-108101537D01*
X49332853Y-108052292D01*
X49326494Y-108002246D01*
X49322632Y-107951462D01*
X49321331Y-107900002D01*
X49321331Y-89849999D01*
X49321331Y-84900002D01*
X49321331Y-70800000D01*
X49321331Y-65849999D01*
X49321331Y-51749997D01*
X49321331Y-46799998D01*
X49321331Y-28749999D01*
X49322632Y-28698539D01*
X49326494Y-28647755D01*
X49332853Y-28597709D01*
X49341648Y-28548464D01*
X49352814Y-28500083D01*
X49366290Y-28452629D01*
X49382011Y-28406165D01*
X49399917Y-28360754D01*
X49419943Y-28316457D01*
X49442027Y-28273340D01*
X49466106Y-28231462D01*
X49492117Y-28190889D01*
X49519998Y-28151683D01*
X49549685Y-28113906D01*
X49581116Y-28077621D01*
X49614227Y-28042892D01*
X49648957Y-28009781D01*
X49685241Y-27978350D01*
X49723018Y-27948663D01*
X49762225Y-27920783D01*
X49802798Y-27894772D01*
X49844675Y-27870693D01*
X49887793Y-27848610D01*
X49932089Y-27828584D01*
X49977501Y-27810678D01*
X50023964Y-27794957D01*
X50071418Y-27781481D01*
X50119798Y-27770315D01*
X50169042Y-27761521D01*
X50219088Y-27755162D01*
X50269872Y-27751300D01*
X50321331Y-27749999D01*
X68371334Y-27749999D01*
X73321338Y-27749999D01*
X86421337Y-27749999D01*
X86472796Y-27748697D01*
X86523580Y-27744836D01*
X86573625Y-27738476D01*
X86622869Y-27729682D01*
X86671250Y-27718516D01*
X86718703Y-27705041D01*
X86765167Y-27689319D01*
X86810579Y-27671414D01*
X86854875Y-27651388D01*
X86897993Y-27629304D01*
X86939870Y-27605225D01*
X86980443Y-27579214D01*
X87019649Y-27551334D01*
X87057426Y-27521647D01*
X87093711Y-27490217D01*
X87128441Y-27457105D01*
X87161552Y-27422376D01*
X87192983Y-27386091D01*
X87222670Y-27348314D01*
X87250550Y-27309108D01*
X87276562Y-27268535D01*
X87300641Y-27226658D01*
X87322725Y-27183540D01*
X87342751Y-27139243D01*
X87360656Y-27093832D01*
X87376378Y-27047368D01*
X87389854Y-26999914D01*
X87401020Y-26951533D01*
X87409814Y-26902289D01*
X87416174Y-26852243D01*
X87420036Y-26801458D01*
X87421337Y-26749999D01*
X87421337Y-23987999D01*
X87422638Y-23936539D01*
X87426500Y-23885755D01*
X87432859Y-23835709D01*
X87441654Y-23786464D01*
X87452820Y-23738083D01*
X87466296Y-23690630D01*
X87482018Y-23644165D01*
X87499923Y-23598754D01*
X87519949Y-23554458D01*
X87542033Y-23511340D01*
X87566112Y-23469463D01*
X87592123Y-23428890D01*
X87620004Y-23389683D01*
X87649691Y-23351906D01*
X87681122Y-23315622D01*
X87714233Y-23280892D01*
X87748963Y-23247781D01*
X87785247Y-23216350D01*
X87823024Y-23186664D01*
X87862231Y-23158783D01*
X87902804Y-23132772D01*
X87944681Y-23108694D01*
X87987799Y-23086610D01*
X88032095Y-23066584D01*
X88077507Y-23048679D01*
X88123971Y-23032957D01*
X88171424Y-23019482D01*
X88219804Y-23008316D01*
X88269049Y-22999521D01*
X88319094Y-22993162D01*
X88369878Y-22989300D01*
X88421337Y-22987999D01*
X105471340Y-22987999D01*
X105522800Y-22986698D01*
X105573584Y-22982836D01*
X105623630Y-22976477D01*
X105672875Y-22967683D01*
X105721255Y-22956516D01*
X105768709Y-22943041D01*
X105815173Y-22927319D01*
X105860585Y-22909414D01*
X105904881Y-22889388D01*
X105947999Y-22867304D01*
X105989876Y-22843226D01*
X106030449Y-22817215D01*
X106069656Y-22789334D01*
X106107433Y-22759648D01*
X106143717Y-22728217D01*
X106178447Y-22695106D01*
X106211558Y-22660376D01*
X106242988Y-22624092D01*
X106272675Y-22586315D01*
X106300556Y-22547109D01*
X106326566Y-22506535D01*
X106350645Y-22464658D01*
X106372729Y-22421540D01*
X106392755Y-22377244D01*
X106410660Y-22331833D01*
X106426382Y-22285368D01*
X106439857Y-22237915D01*
X106451023Y-22189534D01*
X106459818Y-22140289D01*
X106466177Y-22090243D01*
X106470039Y-22039459D01*
X106471340Y-21987999D01*
X106471340Y-19224999D01*
X106472641Y-19173539D01*
X106476503Y-19122755D01*
X106482862Y-19072709D01*
X106491656Y-19023464D01*
X106502823Y-18975083D01*
X106516298Y-18927630D01*
X106532020Y-18881165D01*
X106549925Y-18835754D01*
X106569951Y-18791458D01*
X106592035Y-18748340D01*
X106616113Y-18706463D01*
X106642124Y-18665890D01*
X106670005Y-18626683D01*
X106699692Y-18588906D01*
X106731122Y-18552622D01*
X106764233Y-18517892D01*
X106798963Y-18484781D01*
X106835247Y-18453350D01*
X106873024Y-18423664D01*
X106912231Y-18395783D01*
X106952804Y-18369772D01*
X106994681Y-18345694D01*
X107037799Y-18323610D01*
X107082095Y-18303584D01*
X107127507Y-18285679D01*
X107173971Y-18269957D01*
X107221425Y-18256482D01*
X107269805Y-18245315D01*
X107319050Y-18236521D01*
X107369096Y-18230162D01*
X107419880Y-18226300D01*
X107471340Y-18224999D01*
X129471340Y-18224999D01*
X129522800Y-18226300D01*
M02*
