%TF.GenerationSoftware,KiCad,Pcbnew,10.0.1*%
%TF.CreationDate,2026-06-06T17:58:52+12:00*%
%TF.ProjectId,keyboard,6b657962-6f61-4726-942e-6b696361645f,rev?*%
%TF.SameCoordinates,Original*%
%TF.FileFunction,Copper,L2,Bot*%
%TF.FilePolarity,Positive*%
%FSLAX46Y46*%
G04 Gerber Fmt 4.6, Leading zero omitted, Abs format (unit mm)*
G04 Created by KiCad (PCBNEW 10.0.1) date 2026-06-06 17:58:52*
%MOMM*%
%LPD*%
G01*
G04 APERTURE LIST*
G04 Aperture macros list*
%AMRoundRect*
0 Rectangle with rounded corners*
0 $1 Rounding radius*
0 $2 $3 $4 $5 $6 $7 $8 $9 X,Y pos of 4 corners*
0 Add a 4 corners polygon primitive as box body*
4,1,4,$2,$3,$4,$5,$6,$7,$8,$9,$2,$3,0*
0 Add four circle primitives for the rounded corners*
1,1,$1+$1,$2,$3*
1,1,$1+$1,$4,$5*
1,1,$1+$1,$6,$7*
1,1,$1+$1,$8,$9*
0 Add four rect primitives between the rounded corners*
20,1,$1+$1,$2,$3,$4,$5,0*
20,1,$1+$1,$4,$5,$6,$7,0*
20,1,$1+$1,$6,$7,$8,$9,0*
20,1,$1+$1,$8,$9,$2,$3,0*%
G04 Aperture macros list end*
%TA.AperFunction,SMDPad,CuDef*%
%ADD10RoundRect,0.250000X-1.025000X-1.000000X1.025000X-1.000000X1.025000X1.000000X-1.025000X1.000000X0*%
%TD*%
%TA.AperFunction,SMDPad,CuDef*%
%ADD11RoundRect,0.250000X-1.427983X-0.107187X0.142408X-1.424902X1.427983X0.107187X-0.142408X1.424902X0*%
%TD*%
%TA.AperFunction,SMDPad,CuDef*%
%ADD12RoundRect,0.250000X-1.248893X-0.700636X0.731255X-1.231215X1.248893X0.700636X-0.731255X1.231215X0*%
%TD*%
%TA.AperFunction,SMDPad,CuDef*%
%ADD13RoundRect,0.250000X-1.387676X-0.353525X0.387676X-1.378525X1.387676X0.353525X-0.387676X1.378525X0*%
%TD*%
%TA.AperFunction,ComponentPad*%
%ADD14O,2.500000X1.500000*%
%TD*%
%TA.AperFunction,ComponentPad*%
%ADD15O,1.500000X2.500000*%
%TD*%
%TA.AperFunction,SMDPad,CuDef*%
%ADD16RoundRect,0.225000X0.375000X-0.225000X0.375000X0.225000X-0.375000X0.225000X-0.375000X-0.225000X0*%
%TD*%
%TA.AperFunction,SMDPad,CuDef*%
%ADD17RoundRect,0.225000X0.212260X-0.382356X0.437260X0.007356X-0.212260X0.382356X-0.437260X-0.007356X0*%
%TD*%
%TA.AperFunction,SMDPad,CuDef*%
%ADD18RoundRect,0.225000X0.303988X-0.314390X0.420456X0.120276X-0.303988X0.314390X-0.420456X-0.120276X0*%
%TD*%
%TA.AperFunction,SMDPad,CuDef*%
%ADD19RoundRect,0.225000X0.142639X-0.413405X0.431894X-0.068685X-0.142639X0.413405X-0.431894X0.068685X0*%
%TD*%
%TA.AperFunction,ViaPad*%
%ADD20C,0.600000*%
%TD*%
%TA.AperFunction,Conductor*%
%ADD21C,0.200000*%
%TD*%
G04 APERTURE END LIST*
D10*
%TO.P,SW12,1,1*%
%TO.N,COL6*%
X149965000Y-54185000D03*
%TO.P,SW12,2,2*%
%TO.N,Net-(D12-A)*%
X162892000Y-51645000D03*
%TD*%
D11*
%TO.P,SW27,1,1*%
%TO.N,COL5*%
X176788699Y-131530658D03*
%TO.P,SW27,2,2*%
%TO.N,Net-(D27-A)*%
X188324036Y-137894220D03*
%TD*%
D10*
%TO.P,SW17,1,1*%
%TO.N,COL5*%
X130915000Y-68472500D03*
%TO.P,SW17,2,2*%
%TO.N,Net-(D17-A)*%
X143842000Y-65932500D03*
%TD*%
%TO.P,SW10,1,1*%
%TO.N,COL4*%
X111865000Y-44660000D03*
%TO.P,SW10,2,2*%
%TO.N,Net-(D10-A)*%
X124792000Y-42120000D03*
%TD*%
%TO.P,SW6,1,1*%
%TO.N,COL6*%
X149965000Y-35135000D03*
%TO.P,SW6,2,2*%
%TO.N,Net-(D6-A)*%
X162892000Y-32595000D03*
%TD*%
%TO.P,SW4,1,1*%
%TO.N,COL4*%
X111865000Y-25610000D03*
%TO.P,SW4,2,2*%
%TO.N,Net-(D4-A)*%
X124792000Y-23070000D03*
%TD*%
D12*
%TO.P,SW25,1,1*%
%TO.N,COL3*%
X134234568Y-111101769D03*
%TO.P,SW25,2,2*%
%TO.N,Net-(D25-A)*%
X147378491Y-111994072D03*
%TD*%
D10*
%TO.P,SW22,1,1*%
%TO.N,COL4*%
X111865000Y-82760000D03*
%TO.P,SW22,2,2*%
%TO.N,Net-(D22-A)*%
X124792000Y-80220000D03*
%TD*%
%TO.P,SW13,1,1*%
%TO.N,COL1*%
X54715000Y-73235000D03*
%TO.P,SW13,2,2*%
%TO.N,Net-(D13-A)*%
X67642000Y-70695000D03*
%TD*%
%TO.P,SW20,1,1*%
%TO.N,COL2*%
X73765000Y-92285000D03*
%TO.P,SW20,2,2*%
%TO.N,Net-(D20-A)*%
X86692000Y-89745000D03*
%TD*%
%TO.P,SW18,1,1*%
%TO.N,COL6*%
X149965000Y-73235000D03*
%TO.P,SW18,2,2*%
%TO.N,Net-(D18-A)*%
X162892000Y-70695000D03*
%TD*%
%TO.P,SW5,1,1*%
%TO.N,COL5*%
X130915000Y-30372500D03*
%TO.P,SW5,2,2*%
%TO.N,Net-(D5-A)*%
X143842000Y-27832500D03*
%TD*%
%TO.P,SW16,1,1*%
%TO.N,COL4*%
X111865000Y-63710000D03*
%TO.P,SW16,2,2*%
%TO.N,Net-(D16-A)*%
X124792000Y-61170000D03*
%TD*%
%TO.P,SW19,1,1*%
%TO.N,COL1*%
X54715000Y-92285000D03*
%TO.P,SW19,2,2*%
%TO.N,Net-(D19-A)*%
X67642000Y-89745000D03*
%TD*%
%TO.P,SW21,1,1*%
%TO.N,COL3*%
X92815000Y-87522500D03*
%TO.P,SW21,2,2*%
%TO.N,Net-(D21-A)*%
X105742000Y-84982500D03*
%TD*%
%TO.P,SW7,1,1*%
%TO.N,COL1*%
X54715000Y-54185000D03*
%TO.P,SW7,2,2*%
%TO.N,Net-(D7-A)*%
X67642000Y-51645000D03*
%TD*%
%TO.P,SW11,1,1*%
%TO.N,COL5*%
X130915000Y-49422500D03*
%TO.P,SW11,2,2*%
%TO.N,Net-(D11-A)*%
X143842000Y-46882500D03*
%TD*%
%TO.P,SW14,1,1*%
%TO.N,COL2*%
X73765000Y-73235000D03*
%TO.P,SW14,2,2*%
%TO.N,Net-(D14-A)*%
X86692000Y-70695000D03*
%TD*%
%TO.P,SW9,1,1*%
%TO.N,COL3*%
X92815000Y-49422500D03*
%TO.P,SW9,2,2*%
%TO.N,Net-(D9-A)*%
X105742000Y-46882500D03*
%TD*%
%TO.P,SW23,1,1*%
%TO.N,COL5*%
X130915000Y-87522500D03*
%TO.P,SW23,2,2*%
%TO.N,Net-(D23-A)*%
X143842000Y-84982500D03*
%TD*%
%TO.P,SW3,1,1*%
%TO.N,COL3*%
X92815000Y-30372500D03*
%TO.P,SW3,2,2*%
%TO.N,Net-(D3-A)*%
X105742000Y-27832500D03*
%TD*%
%TO.P,SW2,1,1*%
%TO.N,COL2*%
X73765000Y-35135000D03*
%TO.P,SW2,2,2*%
%TO.N,Net-(D2-A)*%
X86692000Y-32595000D03*
%TD*%
%TO.P,SW8,1,1*%
%TO.N,COL2*%
X73765000Y-54185000D03*
%TO.P,SW8,2,2*%
%TO.N,Net-(D8-A)*%
X86692000Y-51645000D03*
%TD*%
D13*
%TO.P,SW26,1,1*%
%TO.N,COL4*%
X156627354Y-119401649D03*
%TO.P,SW26,2,2*%
%TO.N,Net-(D26-A)*%
X169092464Y-123665445D03*
%TD*%
D10*
%TO.P,SW15,1,1*%
%TO.N,COL3*%
X92815000Y-68472500D03*
%TO.P,SW15,2,2*%
%TO.N,Net-(D15-A)*%
X105742000Y-65932500D03*
%TD*%
%TO.P,SW1,1,1*%
%TO.N,COL1*%
X54715000Y-35135000D03*
%TO.P,SW1,2,2*%
%TO.N,Net-(D1-A)*%
X67642000Y-32595000D03*
%TD*%
%TO.P,SW24,1,1*%
%TO.N,COL6*%
X149965000Y-92285000D03*
%TO.P,SW24,2,2*%
%TO.N,Net-(D24-A)*%
X162892000Y-89745000D03*
%TD*%
D14*
%TO.P,U2,1,0_1*%
%TO.N,TX*%
X189585800Y-30291300D03*
%TO.P,U2,2,1_2*%
%TO.N,RX*%
X189585800Y-32831300D03*
%TO.P,U2,3,2_3*%
%TO.N,ROW0*%
X189585800Y-35371300D03*
%TO.P,U2,4,3_4*%
%TO.N,ROW1*%
X189585800Y-37911300D03*
%TO.P,U2,5,4_5*%
%TO.N,ROW2*%
X189585800Y-40451300D03*
%TO.P,U2,6,5_6*%
%TO.N,ROW3*%
X189585800Y-42991300D03*
%TO.P,U2,7,6_7*%
%TO.N,ROW4*%
X189585800Y-45531300D03*
%TO.P,U2,8,7_8*%
%TO.N,COL0*%
X189585800Y-48071300D03*
%TO.P,U2,9,8_9*%
%TO.N,COL1*%
X189585800Y-50611300D03*
D15*
%TO.P,U2,10,9_10*%
%TO.N,COL2*%
X186545800Y-51111300D03*
%TO.P,U2,11,10_11*%
%TO.N,COL3*%
X184005800Y-51111300D03*
%TO.P,U2,12,11_12*%
%TO.N,COL4*%
X181465800Y-51111300D03*
%TO.P,U2,13,12_13*%
%TO.N,COL5*%
X178925800Y-51111300D03*
%TO.P,U2,14,13_14*%
%TO.N,COL6*%
X176385800Y-51111300D03*
D14*
%TO.P,U2,15,14_15*%
%TO.N,unconnected-(U2-14-Pad15)*%
X173345800Y-50611300D03*
%TO.P,U2,16,15_16*%
%TO.N,unconnected-(U2-15-Pad16)*%
X173345800Y-48071300D03*
%TO.P,U2,17,26_17*%
%TO.N,unconnected-(U2-26-Pad17)*%
X173345800Y-45531300D03*
%TO.P,U2,18,27_18*%
%TO.N,unconnected-(U2-27-Pad18)*%
X173345800Y-42991300D03*
%TO.P,U2,19,28_19*%
%TO.N,unconnected-(U2-28-Pad19)*%
X173345800Y-40451300D03*
%TO.P,U2,20,29_20*%
%TO.N,unconnected-(U2-29-Pad20)*%
X173345800Y-37911300D03*
%TO.P,U2,21,3V3_21*%
%TO.N,VCC*%
X173345800Y-35371300D03*
%TO.P,U2,22,GND_22*%
%TO.N,GND*%
X173345800Y-32831300D03*
%TO.P,U2,23,5V_23*%
%TO.N,unconnected-(U2-5V-Pad23)*%
X173345800Y-30291300D03*
%TD*%
D16*
%TO.P,D18,1,K*%
%TO.N,ROW2*%
X162130000Y-81425000D03*
%TO.P,D18,2,A*%
%TO.N,Net-(D18-A)*%
X162130000Y-78125000D03*
%TD*%
%TO.P,D12,1,K*%
%TO.N,ROW1*%
X162130000Y-62375000D03*
%TO.P,D12,2,A*%
%TO.N,Net-(D12-A)*%
X162130000Y-59075000D03*
%TD*%
%TO.P,D17,1,K*%
%TO.N,ROW2*%
X143080000Y-76662500D03*
%TO.P,D17,2,A*%
%TO.N,Net-(D17-A)*%
X143080000Y-73362500D03*
%TD*%
D17*
%TO.P,D26,1,K*%
%TO.N,ROW4*%
X163067553Y-132576897D03*
%TO.P,D26,2,A*%
%TO.N,Net-(D26-A)*%
X164717553Y-129719013D03*
%TD*%
D16*
%TO.P,D24,1,K*%
%TO.N,ROW3*%
X162130000Y-100475000D03*
%TO.P,D24,2,A*%
%TO.N,Net-(D24-A)*%
X162130000Y-97175000D03*
%TD*%
%TO.P,D2,1,K*%
%TO.N,ROW0*%
X85930000Y-43325000D03*
%TO.P,D2,2,A*%
%TO.N,Net-(D2-A)*%
X85930000Y-40025000D03*
%TD*%
%TO.P,D15,1,K*%
%TO.N,ROW2*%
X104980000Y-76662500D03*
%TO.P,D15,2,A*%
%TO.N,Net-(D15-A)*%
X104980000Y-73362500D03*
%TD*%
%TO.P,D7,1,K*%
%TO.N,ROW1*%
X66880000Y-62375000D03*
%TO.P,D7,2,A*%
%TO.N,Net-(D7-A)*%
X66880000Y-59075000D03*
%TD*%
%TO.P,D14,1,K*%
%TO.N,ROW2*%
X85930000Y-81425000D03*
%TO.P,D14,2,A*%
%TO.N,Net-(D14-A)*%
X85930000Y-78125000D03*
%TD*%
%TO.P,D5,1,K*%
%TO.N,ROW0*%
X143080000Y-38562500D03*
%TO.P,D5,2,A*%
%TO.N,Net-(D5-A)*%
X143080000Y-35262500D03*
%TD*%
%TO.P,D22,1,K*%
%TO.N,ROW3*%
X124030000Y-90950000D03*
%TO.P,D22,2,A*%
%TO.N,Net-(D22-A)*%
X124030000Y-87650000D03*
%TD*%
%TO.P,D3,1,K*%
%TO.N,ROW0*%
X104980000Y-38562500D03*
%TO.P,D3,2,A*%
%TO.N,Net-(D3-A)*%
X104980000Y-35262500D03*
%TD*%
%TO.P,D13,1,K*%
%TO.N,ROW2*%
X66880000Y-81425000D03*
%TO.P,D13,2,A*%
%TO.N,Net-(D13-A)*%
X66880000Y-78125000D03*
%TD*%
%TO.P,D23,1,K*%
%TO.N,ROW3*%
X143080000Y-95712500D03*
%TO.P,D23,2,A*%
%TO.N,Net-(D23-A)*%
X143080000Y-92412500D03*
%TD*%
%TO.P,D1,1,K*%
%TO.N,ROW0*%
X66880000Y-43325000D03*
%TO.P,D1,2,A*%
%TO.N,Net-(D1-A)*%
X66880000Y-40025000D03*
%TD*%
D18*
%TO.P,D25,1,K*%
%TO.N,ROW4*%
X143865329Y-122161236D03*
%TO.P,D25,2,A*%
%TO.N,Net-(D25-A)*%
X144719429Y-118973680D03*
%TD*%
D16*
%TO.P,D19,1,K*%
%TO.N,ROW3*%
X66880000Y-100475000D03*
%TO.P,D19,2,A*%
%TO.N,Net-(D19-A)*%
X66880000Y-97175000D03*
%TD*%
%TO.P,D16,1,K*%
%TO.N,ROW2*%
X124030000Y-71900000D03*
%TO.P,D16,2,A*%
%TO.N,Net-(D16-A)*%
X124030000Y-68600000D03*
%TD*%
%TO.P,D4,1,K*%
%TO.N,ROW0*%
X124030000Y-33800000D03*
%TO.P,D4,2,A*%
%TO.N,Net-(D4-A)*%
X124030000Y-30500000D03*
%TD*%
%TO.P,D10,1,K*%
%TO.N,ROW1*%
X124030000Y-52850000D03*
%TO.P,D10,2,A*%
%TO.N,Net-(D10-A)*%
X124030000Y-49550000D03*
%TD*%
%TO.P,D6,1,K*%
%TO.N,ROW0*%
X162130000Y-43325000D03*
%TO.P,D6,2,A*%
%TO.N,Net-(D6-A)*%
X162130000Y-40025000D03*
%TD*%
%TO.P,D20,1,K*%
%TO.N,ROW3*%
X85930000Y-100475000D03*
%TO.P,D20,2,A*%
%TO.N,Net-(D20-A)*%
X85930000Y-97175000D03*
%TD*%
%TO.P,D8,1,K*%
%TO.N,ROW1*%
X85930000Y-62375000D03*
%TO.P,D8,2,A*%
%TO.N,Net-(D8-A)*%
X85930000Y-59075000D03*
%TD*%
D19*
%TO.P,D27,1,K*%
%TO.N,ROW4*%
X180843198Y-145624072D03*
%TO.P,D27,2,A*%
%TO.N,Net-(D27-A)*%
X182964398Y-143096126D03*
%TD*%
D16*
%TO.P,D11,1,K*%
%TO.N,ROW1*%
X143080000Y-57612500D03*
%TO.P,D11,2,A*%
%TO.N,Net-(D11-A)*%
X143080000Y-54312500D03*
%TD*%
%TO.P,D21,1,K*%
%TO.N,ROW3*%
X104980000Y-95712500D03*
%TO.P,D21,2,A*%
%TO.N,Net-(D21-A)*%
X104980000Y-92412500D03*
%TD*%
%TO.P,D9,1,K*%
%TO.N,ROW1*%
X104980000Y-57612500D03*
%TO.P,D9,2,A*%
%TO.N,Net-(D9-A)*%
X104980000Y-54312500D03*
%TD*%
D20*
%TO.N,COL6*%
X167500000Y-52500000D03*
X170100000Y-52500000D03*
%TO.N,COL5*%
X177000000Y-45981300D03*
X150565000Y-48000000D03*
X131500000Y-94500000D03*
X149365000Y-47500000D03*
X131500000Y-96500000D03*
%TO.N,COL4*%
X112500000Y-95000000D03*
X112000000Y-39162500D03*
X111500000Y-58500000D03*
X132000000Y-81500000D03*
X130000000Y-81500000D03*
X112000000Y-37500000D03*
X149000000Y-82500000D03*
X112000000Y-57000000D03*
X112500000Y-96500000D03*
X150565000Y-82500000D03*
%TO.N,COL3*%
X175500000Y-58000000D03*
X146500000Y-100000000D03*
X94500000Y-99500000D03*
X147500000Y-80900000D03*
X170500000Y-63000000D03*
X95000000Y-102000000D03*
X134500000Y-104000000D03*
X168500000Y-63000000D03*
X147500000Y-76500000D03*
X151000000Y-69500000D03*
X147500000Y-82100000D03*
X134500000Y-100900000D03*
X147500000Y-79000000D03*
X174000000Y-60000000D03*
X147500000Y-98500000D03*
X149000000Y-70000000D03*
%TO.N,COL1*%
X170500000Y-59000000D03*
X111000000Y-68500000D03*
X149365000Y-67000000D03*
X72500000Y-67000000D03*
X112500000Y-68500000D03*
X168500000Y-59000000D03*
X94000000Y-63000000D03*
X130000000Y-71000000D03*
X143500000Y-69500000D03*
X145500000Y-70000000D03*
X92000000Y-63000000D03*
X151000000Y-67500000D03*
X133000000Y-73000000D03*
X75000000Y-67000000D03*
%TO.N,COL2*%
X183500000Y-47000000D03*
X181500000Y-42500000D03*
%TO.N,VCC*%
X185100000Y-72500000D03*
X183750000Y-72500000D03*
X186750000Y-72500000D03*
X187500000Y-73750000D03*
%TO.N,RX*%
X185100000Y-74000000D03*
X183750000Y-74000000D03*
%TO.N,ROW0*%
X180000000Y-40000000D03*
X74500000Y-43000000D03*
X149000000Y-38500000D03*
X92000000Y-41500000D03*
X132000000Y-35500000D03*
X151000000Y-39500000D03*
X178500000Y-41000000D03*
X93500000Y-41500000D03*
X130000000Y-35500000D03*
X73000000Y-43000000D03*
%TO.N,ROW1*%
X73000000Y-62500000D03*
X151000000Y-59500000D03*
X131515000Y-54500000D03*
X93500000Y-59000000D03*
X130000000Y-54000000D03*
X149000000Y-59000000D03*
X92215000Y-59000000D03*
X74500000Y-62500000D03*
%TO.N,ROW2*%
X74500000Y-81500000D03*
X131515000Y-74000000D03*
X93500000Y-77500000D03*
X151000000Y-78000000D03*
X73000000Y-81000000D03*
X111000000Y-73000000D03*
X92000000Y-78500000D03*
X130315000Y-73500000D03*
X149000000Y-78000000D03*
X112500000Y-73000000D03*
%TO.N,ROW3*%
X185000000Y-47500000D03*
X181000000Y-60000000D03*
X184000000Y-49000000D03*
X181500000Y-58000000D03*
%TO.N,ROW4*%
X182500000Y-58000000D03*
X151500000Y-114000000D03*
X182100000Y-59600000D03*
X166000000Y-75500000D03*
X156325735Y-109174265D03*
X157500000Y-108500000D03*
X168500000Y-69500000D03*
X152508805Y-112991195D03*
X172000000Y-69500000D03*
X166000000Y-80500000D03*
%TD*%
%TO.N,COL6*%
D21*
X149965000Y-54185000D02*
X154380000Y-49770000D01*
X154380000Y-49770000D02*
X164770000Y-49770000D01*
X174497100Y-52500000D02*
X176385800Y-50611300D01*
X164770000Y-49770000D02*
X167500000Y-52500000D01*
X170100000Y-52500000D02*
X174497100Y-52500000D01*
X149965000Y-73235000D02*
X149965000Y-92285000D01*
X149965000Y-35135000D02*
X149965000Y-54185000D01*
X149965000Y-54185000D02*
X149965000Y-73235000D01*
%TO.N,Net-(D12-A)*%
X162892000Y-51645000D02*
X163355000Y-52108000D01*
X163355000Y-52108000D02*
X163355000Y-57850000D01*
X163355000Y-57850000D02*
X162130000Y-59075000D01*
%TO.N,COL5*%
X154500000Y-106500000D02*
X146000000Y-106500000D01*
X176788699Y-128788699D02*
X154500000Y-106500000D01*
X131500000Y-94500000D02*
X131500000Y-92500000D01*
X131500000Y-101500000D02*
X131500000Y-96500000D01*
X146000000Y-106500000D02*
X141000000Y-101500000D01*
X131500000Y-92500000D02*
X130915000Y-91915000D01*
X146872500Y-45007500D02*
X149365000Y-47500000D01*
X168452176Y-48000000D02*
X172410876Y-44041300D01*
X141000000Y-101500000D02*
X131500000Y-101500000D01*
X135330000Y-45007500D02*
X146872500Y-45007500D01*
X130915000Y-49422500D02*
X135330000Y-45007500D01*
X150565000Y-48000000D02*
X168452176Y-48000000D01*
X130915000Y-68472500D02*
X130915000Y-87522500D01*
X130915000Y-30372500D02*
X130915000Y-49422500D01*
X130915000Y-49422500D02*
X130915000Y-68472500D01*
X172410876Y-44041300D02*
X175060000Y-44041300D01*
X130915000Y-91915000D02*
X130915000Y-87522500D01*
X176788699Y-131530658D02*
X176788699Y-128788699D01*
X175060000Y-44041300D02*
X177000000Y-45981300D01*
%TO.N,Net-(D27-A)*%
X184753889Y-143096126D02*
X182964398Y-143096126D01*
X188324036Y-137894220D02*
X188324036Y-139525979D01*
X188324036Y-139525979D02*
X184753889Y-143096126D01*
%TO.N,Net-(D17-A)*%
X144305000Y-66395500D02*
X144305000Y-72137500D01*
X143842000Y-65932500D02*
X144305000Y-66395500D01*
X144305000Y-72137500D02*
X143080000Y-73362500D01*
%TO.N,COL4*%
X130000000Y-81500000D02*
X125000000Y-76500000D01*
X111865000Y-25610000D02*
X111865000Y-37365000D01*
X112000000Y-39162500D02*
X112000000Y-41000000D01*
X169900000Y-58751471D02*
X169900000Y-75003696D01*
X170251471Y-58400000D02*
X169900000Y-58751471D01*
X151500000Y-82500000D02*
X150565000Y-82500000D01*
X156627354Y-119401649D02*
X156627354Y-117958273D01*
X111865000Y-58865000D02*
X111865000Y-63710000D01*
X141169081Y-102500000D02*
X130000000Y-102500000D01*
X111865000Y-44660000D02*
X111865000Y-56865000D01*
X111500000Y-58500000D02*
X111865000Y-58865000D01*
X156627354Y-117958273D02*
X141169081Y-102500000D01*
X125000000Y-76500000D02*
X118125000Y-76500000D01*
X152000000Y-82000000D02*
X151500000Y-82500000D01*
X152175000Y-82175000D02*
X152000000Y-82000000D01*
X181465800Y-50611300D02*
X173677100Y-58400000D01*
X118125000Y-76500000D02*
X111865000Y-82760000D01*
X111865000Y-82760000D02*
X111865000Y-63710000D01*
X111865000Y-37365000D02*
X112000000Y-37500000D01*
X112500000Y-95000000D02*
X111865000Y-94365000D01*
X112500000Y-98000000D02*
X112500000Y-96500000D01*
X149000000Y-82500000D02*
X148000000Y-81500000D01*
X111865000Y-94365000D02*
X111865000Y-82760000D01*
X111865000Y-56865000D02*
X112000000Y-57000000D01*
X173677100Y-58400000D02*
X170251471Y-58400000D01*
X148000000Y-81500000D02*
X132000000Y-81500000D01*
X169900000Y-75003696D02*
X162728696Y-82175000D01*
X130000000Y-102500000D02*
X125500000Y-98000000D01*
X111865000Y-41135000D02*
X111865000Y-44660000D01*
X125500000Y-98000000D02*
X112500000Y-98000000D01*
X112000000Y-41000000D02*
X111865000Y-41135000D01*
X162728696Y-82175000D02*
X152175000Y-82175000D01*
%TO.N,Net-(D10-A)*%
X124792000Y-42120000D02*
X125255000Y-42583000D01*
X125255000Y-42583000D02*
X125255000Y-48325000D01*
X125255000Y-48325000D02*
X124030000Y-49550000D01*
%TO.N,Net-(D6-A)*%
X162892000Y-32595000D02*
X163355000Y-33058000D01*
X163355000Y-33058000D02*
X163355000Y-38800000D01*
X163355000Y-38800000D02*
X162130000Y-40025000D01*
%TO.N,Net-(D4-A)*%
X124792000Y-23070000D02*
X125255000Y-23533000D01*
X125255000Y-29275000D02*
X124030000Y-30500000D01*
X125255000Y-23533000D02*
X125255000Y-29275000D01*
%TO.N,COL3*%
X151680000Y-68820000D02*
X151000000Y-69500000D01*
X92815000Y-68472500D02*
X92815000Y-87522500D01*
X168500000Y-63000000D02*
X162680000Y-68820000D01*
X147500000Y-79000000D02*
X147500000Y-80900000D01*
X134500000Y-105000000D02*
X134234568Y-105265432D01*
X125688213Y-98775000D02*
X102483186Y-98775000D01*
X149000000Y-70000000D02*
X147500000Y-71500000D01*
X176617100Y-58000000D02*
X175500000Y-58000000D01*
X147500000Y-82100000D02*
X147500000Y-98500000D01*
X134234568Y-107321355D02*
X125688213Y-98775000D01*
X162680000Y-68820000D02*
X151680000Y-68820000D01*
X135400000Y-100000000D02*
X134500000Y-100900000D01*
X171000000Y-63000000D02*
X170500000Y-63000000D01*
X174000000Y-60000000D02*
X171000000Y-63000000D01*
X92815000Y-30372500D02*
X92815000Y-49422500D01*
X102483186Y-98775000D02*
X99258186Y-102000000D01*
X94500000Y-99500000D02*
X92815000Y-97815000D01*
X92815000Y-49422500D02*
X92815000Y-68472500D01*
X134500000Y-104000000D02*
X134500000Y-105000000D01*
X184005800Y-50611300D02*
X176617100Y-58000000D01*
X147500000Y-71500000D02*
X147500000Y-76500000D01*
X146500000Y-100000000D02*
X135400000Y-100000000D01*
X99258186Y-102000000D02*
X95000000Y-102000000D01*
X134234568Y-105265432D02*
X134234568Y-111101769D01*
X134234568Y-111101769D02*
X134234568Y-107321355D01*
X92815000Y-97815000D02*
X92815000Y-87522500D01*
%TO.N,Net-(D25-A)*%
X147378491Y-116385331D02*
X144790142Y-118973680D01*
X147378491Y-111994072D02*
X147378491Y-116385331D01*
X144790142Y-118973680D02*
X144719429Y-118973680D01*
%TO.N,Net-(D22-A)*%
X124792000Y-80220000D02*
X125255000Y-80683000D01*
X125255000Y-80683000D02*
X125255000Y-86425000D01*
X125255000Y-86425000D02*
X124030000Y-87650000D01*
%TO.N,COL1*%
X60950000Y-67000000D02*
X72500000Y-67000000D01*
X138973402Y-73362500D02*
X142835902Y-69500000D01*
X111000000Y-68380756D02*
X111000000Y-68500000D01*
X133362500Y-73362500D02*
X138973402Y-73362500D01*
X145500000Y-70000000D02*
X146365000Y-70000000D01*
X54715000Y-35135000D02*
X54715000Y-54185000D01*
X151000000Y-67500000D02*
X160000000Y-67500000D01*
X54715000Y-73235000D02*
X54715000Y-92285000D01*
X105619244Y-63000000D02*
X111000000Y-68380756D01*
X115000000Y-71000000D02*
X130000000Y-71000000D01*
X189500000Y-59000000D02*
X189500000Y-51025500D01*
X170500000Y-59000000D02*
X189500000Y-59000000D01*
X133000000Y-73000000D02*
X133362500Y-73362500D01*
X142835902Y-69500000D02*
X143500000Y-69500000D01*
X189500000Y-51025500D02*
X189085800Y-50611300D01*
X94000000Y-63000000D02*
X105619244Y-63000000D01*
X75000000Y-67000000D02*
X88000000Y-67000000D01*
X54715000Y-73235000D02*
X60950000Y-67000000D01*
X54715000Y-54185000D02*
X54715000Y-73235000D01*
X112500000Y-68500000D02*
X115000000Y-71000000D01*
X88000000Y-67000000D02*
X92000000Y-63000000D01*
X146365000Y-70000000D02*
X149365000Y-67000000D01*
X160000000Y-67500000D02*
X168500000Y-59000000D01*
%TO.N,Net-(D13-A)*%
X67642000Y-70695000D02*
X68105000Y-71158000D01*
X68105000Y-71158000D02*
X68105000Y-76900000D01*
X68105000Y-76900000D02*
X66880000Y-78125000D01*
%TO.N,COL2*%
X73765000Y-35135000D02*
X80550001Y-28349999D01*
X186545800Y-50045800D02*
X186545800Y-50611300D01*
X175861300Y-36861300D02*
X181500000Y-42500000D01*
X133178099Y-25957500D02*
X147466101Y-25957500D01*
X128500000Y-21279401D02*
X133178099Y-25957500D01*
X128500000Y-21000000D02*
X128500000Y-21279401D01*
X118320351Y-23587999D02*
X120908350Y-21000000D01*
X73765000Y-54185000D02*
X73765000Y-73235000D01*
X99270851Y-28349999D02*
X104032851Y-23587999D01*
X104032851Y-23587999D02*
X118320351Y-23587999D01*
X80550001Y-28349999D02*
X99270851Y-28349999D01*
X171516190Y-36861300D02*
X175861300Y-36861300D01*
X183500000Y-47000000D02*
X186545800Y-50045800D01*
X163896190Y-29241300D02*
X171516190Y-36861300D01*
X120908350Y-21000000D02*
X128500000Y-21000000D01*
X147466101Y-25957500D02*
X150749901Y-29241300D01*
X150749901Y-29241300D02*
X163896190Y-29241300D01*
X73765000Y-73235000D02*
X73765000Y-92285000D01*
X73765000Y-35135000D02*
X73765000Y-54185000D01*
%TO.N,Net-(D20-A)*%
X87155000Y-95950000D02*
X85930000Y-97175000D01*
X87155000Y-90208000D02*
X87155000Y-95950000D01*
X86692000Y-89745000D02*
X87155000Y-90208000D01*
%TO.N,Net-(D18-A)*%
X162892000Y-70695000D02*
X163355000Y-71158000D01*
X163355000Y-71158000D02*
X163355000Y-76900000D01*
X163355000Y-76900000D02*
X162130000Y-78125000D01*
%TO.N,Net-(D5-A)*%
X144305000Y-28295500D02*
X144305000Y-34037500D01*
X144305000Y-34037500D02*
X143080000Y-35262500D01*
X143842000Y-27832500D02*
X144305000Y-28295500D01*
%TO.N,Net-(D16-A)*%
X125255000Y-67375000D02*
X124030000Y-68600000D01*
X124792000Y-61170000D02*
X125255000Y-61633000D01*
X125255000Y-61633000D02*
X125255000Y-67375000D01*
%TO.N,Net-(D19-A)*%
X67642000Y-89745000D02*
X68105000Y-90208000D01*
X68105000Y-90208000D02*
X68105000Y-95950000D01*
X68105000Y-95950000D02*
X66880000Y-97175000D01*
%TO.N,Net-(D21-A)*%
X106205000Y-85445500D02*
X106205000Y-91187500D01*
X106205000Y-91187500D02*
X104980000Y-92412500D01*
X105742000Y-84982500D02*
X106205000Y-85445500D01*
%TO.N,Net-(D7-A)*%
X67642000Y-51645000D02*
X68105000Y-52108000D01*
X68105000Y-57850000D02*
X66880000Y-59075000D01*
X68105000Y-52108000D02*
X68105000Y-57850000D01*
%TO.N,Net-(D11-A)*%
X143842000Y-46882500D02*
X144305000Y-47345500D01*
X144305000Y-53087500D02*
X143080000Y-54312500D01*
X144305000Y-47345500D02*
X144305000Y-53087500D01*
%TO.N,Net-(D14-A)*%
X87155000Y-76900000D02*
X85930000Y-78125000D01*
X87155000Y-71158000D02*
X87155000Y-76900000D01*
X86692000Y-70695000D02*
X87155000Y-71158000D01*
%TO.N,Net-(D9-A)*%
X105742000Y-46882500D02*
X106205000Y-47345500D01*
X106205000Y-53087500D02*
X104980000Y-54312500D01*
X106205000Y-47345500D02*
X106205000Y-53087500D01*
%TO.N,Net-(D23-A)*%
X143842000Y-84982500D02*
X144305000Y-85445500D01*
X144305000Y-85445500D02*
X144305000Y-91187500D01*
X144305000Y-91187500D02*
X143080000Y-92412500D01*
%TO.N,Net-(D3-A)*%
X106205000Y-34037500D02*
X104980000Y-35262500D01*
X106205000Y-28295500D02*
X106205000Y-34037500D01*
X105742000Y-27832500D02*
X106205000Y-28295500D01*
%TO.N,Net-(D2-A)*%
X87155000Y-33058000D02*
X87155000Y-38800000D01*
X87155000Y-38800000D02*
X85930000Y-40025000D01*
X86692000Y-32595000D02*
X87155000Y-33058000D01*
%TO.N,VCC*%
X187500000Y-73750000D02*
X187500000Y-73000000D01*
X183750000Y-72500000D02*
X185100000Y-72500000D01*
X187500000Y-73000000D02*
X187000000Y-72500000D01*
X187000000Y-72500000D02*
X186750000Y-72500000D01*
%TO.N,RX*%
X185100000Y-74000000D02*
X183750000Y-74000000D01*
%TO.N,Net-(D8-A)*%
X87155000Y-57850000D02*
X85930000Y-59075000D01*
X87155000Y-52108000D02*
X87155000Y-57850000D01*
X86692000Y-51645000D02*
X87155000Y-52108000D01*
%TO.N,Net-(D26-A)*%
X169092464Y-126216355D02*
X165589806Y-129719013D01*
X169092464Y-123665445D02*
X169092464Y-126216355D01*
X165589806Y-129719013D02*
X164717553Y-129719013D01*
%TO.N,Net-(D15-A)*%
X105742000Y-65932500D02*
X106205000Y-66395500D01*
X106205000Y-72137500D02*
X104980000Y-73362500D01*
X106205000Y-66395500D02*
X106205000Y-72137500D01*
%TO.N,Net-(D1-A)*%
X68105000Y-33058000D02*
X68105000Y-38800000D01*
X67642000Y-32595000D02*
X68105000Y-33058000D01*
X68105000Y-38800000D02*
X66880000Y-40025000D01*
%TO.N,Net-(D24-A)*%
X163355000Y-90208000D02*
X163355000Y-95950000D01*
X163355000Y-95950000D02*
X162130000Y-97175000D01*
X162892000Y-89745000D02*
X163355000Y-90208000D01*
%TO.N,ROW0*%
X184628700Y-35371300D02*
X189085800Y-35371300D01*
X143080000Y-38562500D02*
X148937500Y-38562500D01*
X163513700Y-41941300D02*
X177558700Y-41941300D01*
X73000000Y-43000000D02*
X72675000Y-43325000D01*
X85930000Y-43325000D02*
X74825000Y-43325000D01*
X104980000Y-38562500D02*
X96437500Y-38562500D01*
X162130000Y-43325000D02*
X163513700Y-41941300D01*
X104980000Y-38562500D02*
X119267500Y-38562500D01*
X180000000Y-40000000D02*
X184628700Y-35371300D01*
X151000000Y-39500000D02*
X154825000Y-43325000D01*
X124030000Y-33800000D02*
X128300000Y-33800000D01*
X177558700Y-41941300D02*
X178500000Y-41000000D01*
X96437500Y-38562500D02*
X93500000Y-41500000D01*
X119267500Y-38562500D02*
X124030000Y-33800000D01*
X72675000Y-43325000D02*
X66880000Y-43325000D01*
X92000000Y-41500000D02*
X90175000Y-43325000D01*
X154825000Y-43325000D02*
X162130000Y-43325000D01*
X135062500Y-38562500D02*
X143080000Y-38562500D01*
X90175000Y-43325000D02*
X85930000Y-43325000D01*
X148937500Y-38562500D02*
X149000000Y-38500000D01*
X132000000Y-35500000D02*
X135062500Y-38562500D01*
X74825000Y-43325000D02*
X74500000Y-43000000D01*
X128300000Y-33800000D02*
X130000000Y-35500000D01*
%TO.N,ROW1*%
X66880000Y-62375000D02*
X72875000Y-62375000D01*
X85930000Y-62375000D02*
X88840000Y-62375000D01*
X162130000Y-62375000D02*
X168500000Y-56005000D01*
X88840000Y-62375000D02*
X92215000Y-59000000D01*
X128850000Y-52850000D02*
X130000000Y-54000000D01*
X94887500Y-57612500D02*
X104980000Y-57612500D01*
X168500000Y-50492176D02*
X172410876Y-46581300D01*
X124030000Y-52850000D02*
X128850000Y-52850000D01*
X172410876Y-46581300D02*
X180415800Y-46581300D01*
X168500000Y-56005000D02*
X168500000Y-50492176D01*
X153875000Y-62375000D02*
X162130000Y-62375000D01*
X180415800Y-46581300D02*
X189085800Y-37911300D01*
X144467500Y-59000000D02*
X149000000Y-59000000D01*
X74500000Y-62500000D02*
X74625000Y-62375000D01*
X72875000Y-62375000D02*
X73000000Y-62500000D01*
X119267500Y-57612500D02*
X124030000Y-52850000D01*
X93500000Y-59000000D02*
X94887500Y-57612500D01*
X143080000Y-57612500D02*
X144467500Y-59000000D01*
X151000000Y-59500000D02*
X153875000Y-62375000D01*
X74625000Y-62375000D02*
X85930000Y-62375000D01*
X104980000Y-57612500D02*
X119267500Y-57612500D01*
X134627500Y-57612500D02*
X143080000Y-57612500D01*
X131515000Y-54500000D02*
X134627500Y-57612500D01*
%TO.N,ROW2*%
X128715000Y-71900000D02*
X130315000Y-73500000D01*
X169500000Y-74055000D02*
X169500000Y-50500000D01*
X180537100Y-49000000D02*
X189085800Y-40451300D01*
X170500000Y-49500000D02*
X175000000Y-49500000D01*
X175000000Y-49500000D02*
X175500000Y-49000000D01*
X162130000Y-81425000D02*
X169500000Y-74055000D01*
X131515000Y-74000000D02*
X134177500Y-76662500D01*
X94337500Y-76662500D02*
X104980000Y-76662500D01*
X89075000Y-81425000D02*
X92000000Y-78500000D01*
X169500000Y-50500000D02*
X170500000Y-49500000D01*
X134177500Y-76662500D02*
X143080000Y-76662500D01*
X147500000Y-78000000D02*
X146162500Y-76662500D01*
X107337500Y-76662500D02*
X111000000Y-73000000D01*
X66880000Y-81425000D02*
X72575000Y-81425000D01*
X74500000Y-81500000D02*
X74575000Y-81425000D01*
X175500000Y-49000000D02*
X180537100Y-49000000D01*
X154425000Y-81425000D02*
X151000000Y-78000000D01*
X72575000Y-81425000D02*
X73000000Y-81000000D01*
X112500000Y-73000000D02*
X113600000Y-71900000D01*
X104980000Y-76662500D02*
X107337500Y-76662500D01*
X85930000Y-81425000D02*
X89075000Y-81425000D01*
X146162500Y-76662500D02*
X143080000Y-76662500D01*
X74575000Y-81425000D02*
X85930000Y-81425000D01*
X149000000Y-78000000D02*
X147500000Y-78000000D01*
X162130000Y-81425000D02*
X154425000Y-81425000D01*
X124030000Y-71900000D02*
X128715000Y-71900000D01*
X113600000Y-71900000D02*
X124030000Y-71900000D01*
X93500000Y-77500000D02*
X94337500Y-76662500D01*
%TO.N,ROW3*%
X119267500Y-95712500D02*
X124030000Y-90950000D01*
X147842500Y-100475000D02*
X162130000Y-100475000D01*
X176500000Y-60000000D02*
X181000000Y-60000000D01*
X189085800Y-43414200D02*
X189085800Y-42991300D01*
X164467000Y-81002382D02*
X171000000Y-74469382D01*
X185055800Y-50055800D02*
X184000000Y-49000000D01*
X185055800Y-54444200D02*
X185055800Y-50055800D01*
X164467000Y-98138000D02*
X164467000Y-81002382D01*
X104980000Y-95712500D02*
X119267500Y-95712500D01*
X181500000Y-58000000D02*
X185055800Y-54444200D01*
X100217500Y-100475000D02*
X104980000Y-95712500D01*
X162130000Y-100475000D02*
X164467000Y-98138000D01*
X66880000Y-100475000D02*
X85930000Y-100475000D01*
X85930000Y-100475000D02*
X100217500Y-100475000D01*
X171000000Y-74469382D02*
X171000000Y-65500000D01*
X143080000Y-95712500D02*
X147842500Y-100475000D01*
X171000000Y-65500000D02*
X176500000Y-60000000D01*
X185000000Y-47500000D02*
X189085800Y-43414200D01*
X124030000Y-90950000D02*
X128792500Y-95712500D01*
X128792500Y-95712500D02*
X143080000Y-95712500D01*
%TO.N,ROW4*%
X152508805Y-112991195D02*
X156325735Y-109174265D01*
X163067553Y-132576897D02*
X167796023Y-132576897D01*
X172000000Y-65500000D02*
X177000000Y-60500000D01*
X166000000Y-100000000D02*
X166000000Y-80500000D01*
X157500000Y-108500000D02*
X166000000Y-100000000D01*
X181248529Y-60600000D02*
X182100000Y-59748529D01*
X143865329Y-122161236D02*
X151500000Y-114526565D01*
X166000000Y-75500000D02*
X168500000Y-73000000D01*
X151500000Y-114526565D02*
X151500000Y-114000000D01*
X152651892Y-122161236D02*
X163067553Y-132576897D01*
X143865329Y-122161236D02*
X152651892Y-122161236D01*
X167796023Y-132576897D02*
X180843198Y-145624072D01*
X182500000Y-58000000D02*
X187595800Y-52904200D01*
X182100000Y-59748529D02*
X182100000Y-59600000D01*
X168500000Y-73000000D02*
X168500000Y-69500000D01*
X187595800Y-52904200D02*
X187595800Y-47021300D01*
X172000000Y-69500000D02*
X172000000Y-65500000D01*
X177000000Y-60500000D02*
X177100000Y-60600000D01*
X177100000Y-60600000D02*
X181248529Y-60600000D01*
X187595800Y-47021300D02*
X189085800Y-45531300D01*
%TD*%
M02*
